<?xml version="1.0" encoding="UTF-8" standalone="no"?>
<!-- Created with Inkscape (http://www.inkscape.org/) -->

<svg
   width="298.98438mm"
   height="315.07352mm"
   viewBox="0 0 298.98438 315.07352"
   version="1.1"
   id="svg1"
   xml:space="preserve"
   sodipodi:docname="stamp_goal_heart_3.svg"
   inkscape:version="1.4.4 (dcaf3e7, 2026-05-05)"
   xmlns:inkscape="http://www.inkscape.org/namespaces/inkscape"
   xmlns:sodipodi="http://sodipodi.sourceforge.net/DTD/sodipodi-0.dtd"
   xmlns="http://www.w3.org/2000/svg"
   xmlns:svg="http://www.w3.org/2000/svg"><sodipodi:namedview
     id="namedview1"
     pagecolor="#ffffff"
     bordercolor="#000000"
     borderopacity="0.25"
     inkscape:showpageshadow="2"
     inkscape:pageopacity="0.0"
     inkscape:pagecheckerboard="0"
     inkscape:deskcolor="#d1d1d1"
     inkscape:document-units="mm"
     inkscape:zoom="0.02183353"
     inkscape:cx="549.61337"
     inkscape:cy="572.51393"
     inkscape:window-width="944"
     inkscape:window-height="250"
     inkscape:window-x="0"
     inkscape:window-y="33"
     inkscape:window-maximized="0"
     inkscape:current-layer="layer1"><inkscape:page
       x="0"
       y="1.1865309e-21"
       width="298.98438"
       height="315.07352"
       id="page2"
       margin="0"
       bleed="0" /></sodipodi:namedview><defs
     id="defs1" /><g
     inkscape:label="Layer 1"
     inkscape:groupmode="layer"
     id="layer1"
     transform="translate(38.432562,-4.0139816)"><path
       style="fill:#000000"
       d="m 110.39012,39.011035 c -0.55786,-0.390744 -0.58804,-0.593617 -0.58804,-3.953747 0,-3.360131 0.0302,-3.563004 0.58804,-3.953748 0.75272,-0.527221 1.64167,-0.525626 2.17119,0.0039 0.61019,0.610191 0.61019,7.289512 0,7.899703 -0.52952,0.529522 -1.41847,0.531117 -2.17119,0.0039 z"
       id="path40" /><path
       style="fill:#000000"
       d="m 141.6165,50.469267 c -0.14573,-0.181901 -0.52471,-0.846149 -0.84219,-1.476107 -0.38823,-0.770368 -1.00296,-1.41003 -1.87752,-1.953691 -1.66911,-1.037576 -1.90176,-1.694874 -0.88434,-2.498479 0.41883,-0.330809 1.12922,-0.898253 1.57865,-1.260987 0.44943,-0.362733 1.10314,-1.198625 1.45269,-1.857536 1.01035,-1.904521 1.74851,-1.873548 2.75652,0.115665 0.59163,1.167536 1.99782,2.647281 2.51568,2.647281 0.40066,0 1.05693,0.817747 1.05693,1.316996 0,0.279698 -0.56306,0.889965 -1.32848,1.439864 -0.73066,0.524929 -1.74635,1.60766 -2.25709,2.40607 -0.92838,1.4513 -1.62005,1.808443 -2.17085,1.120924 z"
       id="path39" /><path
       style="fill:#000000"
       d="m 79.162345,60.098107 c -0.18972,-0.120333 -0.526934,-0.915699 -0.749365,-1.76748 -0.894884,-3.426884 -2.515971,-5.422792 -5.387981,-6.633768 -2.21288,-0.933055 -2.424271,-1.108502 -2.328481,-1.932549 0.06609,-0.56857 0.44687,-0.862843 2.254644,-1.742439 3.393913,-1.651352 4.250831,-2.716776 5.390558,-6.702194 0.465624,-1.628202 0.81435,-2.153245 1.430154,-2.153245 0.628007,0 0.965111,0.540395 1.467077,2.351801 1.038902,3.749002 2.149468,5.078219 5.432721,6.502324 1.898956,0.823668 2.103825,0.984553 2.178876,1.711076 0.07885,0.763312 -0.01326,0.845719 -1.913057,1.711484 -1.097744,0.500258 -2.395741,1.214535 -2.884438,1.587282 -1.105738,0.843388 -2.116651,2.669036 -2.720659,4.913348 -0.254564,0.945885 -0.575572,1.868619 -0.71335,2.050521 -0.286079,0.377694 -0.950282,0.425041 -1.456699,0.103839 z"
       id="path38" /><path
       style="fill:#000000"
       d="m 184.65882,64.578683 c -0.88171,-0.881707 -1.00906,-1.97217 -0.37379,-3.200649 1.24116,-2.400137 4.89206,-1.408904 4.89206,1.328213 0,1.547146 -1.09869,2.645833 -2.64584,2.645833 -0.86195,0 -1.26588,-0.166841 -1.87243,-0.773397 z"
       id="path37" /><path
       style="fill:#000000"
       d="m 33.581728,64.578683 c -2.333846,-2.333847 0.779533,-5.897718 3.475302,-3.978162 1.346994,0.959145 1.285416,3.387343 -0.110701,4.365222 -0.954601,0.668628 -2.484964,0.492577 -3.364601,-0.38706 z"
       id="path36" /><path
       style="fill:#000000"
       d="m 196.52765,93.199477 c -0.22241,-0.254662 -0.47898,-0.87974 -0.57016,-1.389063 -0.29156,-1.628538 -1.62854,-4.060055 -2.83791,-5.161221 -1.08626,-0.98906 -1.73873,-1.348676 -4.27322,-2.355236 -0.97115,-0.385684 -1.24251,-0.950963 -0.7897,-1.645051 0.10691,-0.163882 1.11545,-0.680314 2.2412,-1.147626 3.11322,-1.292342 4.96522,-3.669811 5.63347,-7.231869 0.21332,-1.137092 0.66642,-1.581682 1.49118,-1.463162 0.5049,0.07256 0.69162,0.410993 1.16135,2.105085 1.03076,3.717388 2.74191,5.68266 5.87515,6.747682 1.68882,0.574047 2.4164,1.251728 2.01948,1.880974 -0.34404,0.545412 -0.68765,0.736316 -2.50573,1.39215 -2.73838,0.98781 -4.52367,3.139183 -5.39495,6.501207 -0.35635,1.375077 -0.92063,2.229151 -1.47279,2.229151 -0.0951,0 -0.35497,-0.20836 -0.57737,-0.463021 z m 1.16717,-5.960677 c 0.60891,-1.27691 1.77333,-2.566233 3.04725,-3.37413 l 1.12435,-0.71304 -1.31992,-0.820505 c -0.90217,-0.560818 -1.6332,-1.32216 -2.30977,-2.405522 -0.54442,-0.871758 -1.0647,-1.590398 -1.15619,-1.596977 -0.0915,-0.0066 -0.32394,0.368527 -0.51657,0.833569 -0.47917,1.156818 -1.73885,2.544452 -3.08812,3.401796 l -1.1252,0.714964 0.79896,0.330937 c 0.9765,0.404483 3.3766,2.977702 3.59721,3.856688 0.2165,0.862579 0.45542,0.805172 0.948,-0.22778 z"
       id="path35" /><path
       style="fill:#000000"
       d="m 23.354625,93.488985 c -0.179069,-0.07245 -0.5794,-0.985789 -0.889624,-2.029632 -0.714684,-2.404777 -1.289861,-3.519378 -2.399466,-4.649784 -0.908531,-0.925563 -3.694234,-2.406909 -4.52694,-2.40728 -0.257781,-1.14e-4 -0.604094,-0.297381 -0.769584,-0.660592 -0.248618,-0.545658 -0.217527,-0.752499 0.178972,-1.190625 0.263924,-0.291633 0.610236,-0.530335 0.769584,-0.53045 0.159347,-1.15e-4 1.004097,-0.339354 1.877222,-0.753865 2.655944,-1.260894 4.417638,-3.70946 5.034449,-6.997346 0.213459,-1.137835 0.666366,-1.581573 1.493397,-1.463162 0.503858,0.07214 0.681921,0.385144 1.075336,1.89025 1.039857,3.978229 2.87837,6.016952 6.473494,7.178445 2.269891,0.733344 2.212037,1.895893 -0.137,2.752958 -3.445669,1.25718 -5.153196,3.058606 -6.177732,6.517453 -0.302317,1.020626 -0.73667,2.004512 -0.965229,2.186413 -0.4417,0.351531 -0.525309,0.364208 -1.036879,0.157217 z m 2.832033,-8.643463 c 0.449776,-0.378461 1.165855,-0.893727 1.591286,-1.145036 l 0.773513,-0.456925 -1.245001,-0.842285 c -1.508984,-1.020878 -1.946602,-1.500415 -2.701373,-2.960133 -0.565982,-1.094601 -1.056013,-1.462135 -1.058302,-0.79375 -0.0023,0.677756 -1.568391,2.65976 -2.785119,3.524822 -0.692183,0.492124 -1.30632,0.942577 -1.36475,1.001006 -0.05843,0.05843 0.416293,0.412457 1.054939,0.786729 1.201323,0.704022 2.153343,1.775936 2.948818,3.320179 l 0.460352,0.893674 0.753931,-1.320084 c 0.414663,-0.726047 1.12193,-1.629735 1.571706,-2.008197 z"
       id="path34" /><path
       style="fill:#000000"
       d="m 126.17723,93.956783 c -0.57531,-0.465855 -0.59788,-0.586033 -0.33548,-1.785937 0.65919,-3.014362 9.43943,-30.41242 9.84899,-30.733026 0.69441,-0.543588 1.95285,-0.286206 2.38513,0.487817 0.34893,0.624781 0.22558,1.152341 -1.67027,7.143751 -4.68962,14.820542 -7.90421,24.48923 -8.28654,24.923839 -0.52701,0.599071 -1.17195,0.586967 -1.94183,-0.03644 z"
       id="path33" /><path
       style="fill:#000000"
       d="m 93.591777,94.125519 c -0.240045,-0.181902 -1.523946,-3.545417 -2.853112,-7.47448 -1.329166,-3.929062 -3.123441,-9.227344 -3.987277,-11.773959 -0.962765,-2.83826 -1.513674,-4.864084 -1.423492,-5.234519 0.307334,-1.262419 2.545799,-1.445347 3.038247,-0.248286 0.583868,1.419287 7.677607,23.212925 7.677607,23.587419 0,0.565022 -0.948007,1.474554 -1.536931,1.474554 -0.263228,0 -0.674997,-0.148828 -0.915042,-0.330729 z"
       id="path32" /><path
       style="fill:#000000"
       d="m 110.23997,94.766141 c -0.40086,-0.442943 -0.43789,-2.568173 -0.43789,-25.135417 0,-24.298785 0.008,-24.659136 0.52917,-25.18073 0.63569,-0.635691 1.26635,-0.671637 2.0578,-0.117289 l 0.58803,0.411878 v 24.814824 c 0,23.70418 -0.0216,24.834423 -0.48385,25.252707 -0.63901,0.578298 -1.70805,0.556487 -2.25326,-0.04597 z"
       id="path31" /><path
       style="fill:#000000"
       d="m 169.06875,96.13427 c -0.83107,-0.327807 -1.85206,-1.541119 -2.01135,-2.390237 -0.53208,-2.836229 2.818,-4.684163 4.98374,-2.749074 0.76026,0.679293 0.86407,0.932976 0.86407,2.111578 0,1.140431 -0.11993,1.459461 -0.80687,2.1464 -0.7997,0.799704 -2.20218,1.207696 -3.02959,0.881333 z"
       id="path30" /><path
       style="fill:#000000"
       d="m 145.23332,95.756234 c -0.39618,-0.396179 -0.505,-0.739724 -0.38534,-1.216485 0.19399,-0.772935 10.14334,-16.738813 24.20676,-38.844963 1.2035,-1.891771 2.43412,-3.707474 2.73472,-4.034896 1.04578,-1.139116 2.83554,-0.481579 2.83554,1.041748 0,0.388636 -0.92178,2.099808 -2.19795,4.080208 -1.20887,1.875971 -4.34631,6.744607 -6.97208,10.819191 -4.26526,6.618686 -15.68959,24.617532 -17.25773,27.189285 -0.97027,1.59124 -2.00227,1.927559 -2.96392,0.965912 z"
       id="path29" /><path
       style="fill:#000000"
       d="M 74.559154,95.9776 C 74.328666,95.795701 72.50219,93.027498 70.500317,89.826039 68.498444,86.624581 62.532549,77.146422 57.242773,68.763465 47.287075,52.986203 47.025747,52.495378 48.040772,51.480354 c 0.60443,-0.604431 1.783407,-0.516404 2.404643,0.179538 0.534707,0.599009 2.00817,2.911348 6.36454,9.988021 1.298939,2.110053 6.371677,10.29972 11.272751,18.199261 4.901073,7.899541 8.911043,14.596807 8.911043,14.882813 0,0.651867 -0.902168,1.578344 -1.53693,1.578344 -0.263229,0 -0.667178,-0.148828 -0.897665,-0.330729 z"
       id="path28" /><path
       style="fill:#000000"
       d="m 50.884925,95.88148 c -1.825339,-0.900179 -2.15732,-3.544279 -0.619108,-4.930962 0.63291,-0.570561 1.068901,-0.727604 2.020022,-0.727604 1.026609,0 1.351083,0.138174 2.112493,0.899584 0.69441,0.69441 0.899583,1.119822 0.899583,1.865222 0,1.337784 -0.605316,2.377149 -1.681977,2.888058 -1.126877,0.534738 -1.656019,0.535843 -2.731013,0.0057 z"
       id="path27" /><path
       style="fill:#000000"
       d="m 213.03981,103.97446 c -1.07481,-0.6553 -1.73797,-2.10946 -1.48574,-3.2579 0.27383,-1.24673 0.80574,-1.901255 1.97276,-2.427508 0.89479,-0.403491 1.21201,-0.42853 2.09135,-0.165072 1.42931,0.428231 2.39849,1.637425 2.39849,2.99246 0,2.68075 -2.71261,4.23849 -4.97686,2.85802 z"
       id="path26" /><path
       style="fill:#000000"
       d="m 6.400221,103.98996 c -1.2114023,-0.76 -1.7824909,-2.18634 -1.3942357,-3.48222 0.3204583,-1.069597 1.5272446,-2.25042 2.5664599,-2.511247 1.724884,-0.432918 3.8046348,1.41577 3.8046348,3.381937 0,2.35284 -2.9346448,3.89275 -4.976859,2.61153 z"
       id="path25" /><path
       style="fill:#000000"
       d="m 183.25184,115.48076 c -0.52024,-0.52024 -0.52514,-0.91218 -0.0345,-2.75591 0.21119,-0.7936 0.35121,-1.47567 0.31116,-1.51573 -0.04,-0.04 -0.80958,-0.54901 -1.71005,-1.13101 -1.3868,-0.89634 -1.63722,-1.17552 -1.63722,-1.82531 0,-0.9409 0.32308,-1.22257 1.85209,-1.61468 2.90001,-0.74371 2.79175,-0.65791 3.71254,-2.94218 0.4684,-1.16201 1.0638,-2.22628 1.32311,-2.36506 0.72645,-0.38879 1.47567,0.40987 2.35658,2.51208 0.83707,1.99759 0.66793,1.87823 3.91439,2.76235 1.28996,0.3513 1.82446,1.06842 1.39476,1.87132 -0.155,0.28961 -0.91795,1.00686 -1.69545,1.59388 l -1.41364,1.06731 0.36787,1.75496 c 0.64333,3.06909 0.0616,3.504 -2.61449,1.95465 l -1.8264,-1.05741 -1.37057,0.89167 c -1.78893,1.16383 -2.39905,1.33021 -2.9302,0.79907 z"
       id="path24" /><path
       style="fill:#000000"
       d="m 30.054978,115.54146 c -0.437811,-0.32014 -0.447331,-0.50025 -0.127158,-2.40571 0.29905,-1.77975 0.293567,-2.08935 -0.04035,-2.2781 -1.363098,-0.77052 -2.648501,-1.94172 -2.801918,-2.55298 -0.240527,-0.95834 0.484653,-1.51517 2.486068,-1.90892 0.858365,-0.16888 1.74136,-0.4538 1.962213,-0.63317 0.220852,-0.17937 0.735047,-1.13017 1.142656,-2.1129 0.837881,-2.0201 1.169909,-2.39164 2.027196,-2.26843 0.474756,0.0682 0.78749,0.53115 1.483558,2.19603 0.485095,1.16026 1.017378,2.19324 1.18285,2.29551 0.165472,0.10227 1.079727,0.38159 2.031676,0.62071 2.007909,0.50437 2.402393,0.76671 2.402393,1.59767 0,0.62236 -0.94243,1.56972 -2.415908,2.42856 -0.75963,0.44276 -0.802213,0.54904 -0.666534,1.6636 0.07972,0.65485 0.221549,1.55809 0.315185,2.00721 0.122346,0.58684 0.04387,0.94297 -0.27892,1.26575 -0.549169,0.54917 -1.060865,0.41009 -2.959384,-0.80438 l -1.417399,-0.9067 -0.720291,0.50743 c -0.67004,0.47202 -2.832622,1.63486 -3.04043,1.63486 -0.05074,0 -0.305222,-0.15572 -0.565505,-0.34604 z"
       id="path23" /><path
       style="fill:#000000"
       d="m 195.19968,132.93582 c -0.86205,-0.46774 -1.52468,-1.64488 -1.52468,-2.70855 0,-1.96554 2.31413,-3.60146 4.04882,-2.86223 1.77517,0.75648 2.58635,2.40904 1.94085,3.95393 -0.76441,1.8295 -2.74876,2.54807 -4.46499,1.61685 z"
       id="path22" /><path
       style="fill:#000000"
       d="m 220.46949,135.59285 c -0.29668,-0.2078 -0.62189,-0.81742 -0.72268,-1.3547 -0.7484,-3.9893 -3.08833,-6.64382 -6.95598,-7.89115 -1.0801,-0.34833 -1.4264,-0.59555 -1.55566,-1.11056 -0.21042,-0.83836 0.1904,-1.22051 1.85758,-1.77106 3.6154,-1.19389 5.52447,-3.38995 6.59985,-7.59197 0.68467,-2.67534 2.00364,-2.60861 2.72079,0.13766 1.05027,4.02194 3.05987,6.3037 6.55571,7.44354 1.69711,0.55336 2.01215,0.80495 2.01215,1.60691 0,0.66804 -0.10281,0.72975 -2.96912,1.78235 -1.60395,0.58902 -3.76815,2.53668 -4.55187,4.09641 -0.62773,1.24929 -0.70475,1.4667 -1.20349,3.39741 -0.34611,1.3398 -1.00541,1.80281 -1.78728,1.25516 z m 1.23332,-6.44085 c 0.76577,-1.50103 1.77491,-2.60307 3.08862,-3.37296 0.63951,-0.37477 1.16274,-0.76208 1.16274,-0.86068 0,-0.0986 -0.43728,-0.41471 -0.97173,-0.70246 -1.30153,-0.70076 -2.34189,-1.77659 -3.24188,-3.35241 l -0.74477,-1.30405 -0.80192,1.42093 c -0.81967,1.45236 -2.27634,2.92462 -3.40039,3.43678 -0.34589,0.15759 -0.62889,0.36869 -0.62889,0.4691 0,0.10041 0.58747,0.54776 1.30549,0.99411 1.34007,0.83303 2.82403,2.59829 3.09635,3.68328 0.21949,0.87451 0.53934,0.75865 1.13638,-0.41164 z"
       id="path21" /><path
       style="fill:#000000"
       d="m -7.0325469,186.29697 c -1.2103044,-0.73804 -1.625021,-1.93049 -1.1496267,-3.30557 0.7839187,-2.26748 3.6145322,-2.68099 4.9321253,-0.7205 0.3323162,0.49446 0.6042114,1.18498 0.6042114,1.53449 0,1.5045 -1.4744252,2.99188 -2.9634235,2.98945 -0.3346484,-5.4e-4 -0.9751274,-0.22458 -1.4232865,-0.49787 z"
       id="path20" /><path
       style="fill:#000000"
       d="m 51.573396,206.92452 c -1.704321,-1.70432 -0.53818,-4.51827 1.872436,-4.51827 0.861948,0 1.265879,0.16684 1.872435,0.7734 1.704321,1.70432 0.53818,4.51827 -1.872435,4.51827 -0.861949,0 -1.26588,-0.16684 -1.872436,-0.7734 z"
       id="path19" /><path
       style="fill:#000000"
       d="m 173.31077,210.39873 c -0.45486,-0.73925 -1.2145,-1.51205 -1.82183,-1.85338 -1.69761,-0.95412 -1.71025,-1.64648 -0.0488,-2.67394 0.60775,-0.37583 1.3075,-1.14895 1.71108,-1.89046 1.0705,-1.96685 1.79296,-1.95469 2.81433,0.0474 0.27947,0.5478 1.04467,1.36516 1.70045,1.81635 1.51725,1.04389 1.52388,1.59973 0.0314,2.62661 -0.63854,0.43933 -1.477,1.33802 -1.86324,1.99709 -0.93008,1.58705 -1.51389,1.57094 -2.52335,-0.0696 z"
       id="path18" /><path
       style="fill:#000000"
       d="m 217.13268,215.35664 c -0.37993,-0.29885 -0.82642,-0.99609 -0.9922,-1.54944 -0.56378,-1.88171 0.89616,-3.72803 2.94784,-3.72803 0.59495,0 1.0907,0.25734 1.73293,0.89958 0.73748,0.73747 0.89959,1.09984 0.89959,2.01083 0,2.33261 -2.7973,3.77575 -4.58816,2.36706 z"
       id="path17" /><path
       style="fill:#000000"
       d="m 4.8270723,218.59691 c -0.1827646,-0.1191 -0.5157977,-0.92345 -0.7400735,-1.78745 -1.1763575,-4.53182 -3.1377226,-6.73048 -7.0958964,-7.95439 -1.8330956,-0.56682 -2.4106249,-1.34331 -1.635859,-2.19941 0.2564596,-0.28339 0.8408974,-0.5962 1.2987507,-0.69514 3.5290772,-0.7626 6.2684965,-3.78575 7.4138948,-8.18178 0.7405011,-2.84203 2.0621939,-2.82075 2.843642,0.0458 0.6734102,2.47022 1.4200848,3.93085 2.7197528,5.3203 1.1975673,1.28029 3.4018503,2.56919 4.9095433,2.87073 0.973737,0.19475 1.402234,0.67447 1.288335,1.44234 -0.10046,0.67726 -0.345125,0.83805 -2.41011,1.58392 -3.04058,1.09825 -5.0953896,3.28079 -6.0218066,6.39614 -0.313576,1.05449 -0.7112326,2.21491 -0.8836812,2.57871 -0.3251786,0.686 -1.1098796,0.95598 -1.6864919,0.58024 z m 1.2440052,-6.59335 c 0.4314227,-1.19308 3.1128672,-3.94538 4.0803885,-4.18821 0.967511,-0.24283 0.876826,-0.49061 -0.4680107,-1.27873 -1.4122898,-0.82766 -3.2034165,-2.80713 -3.6449888,-4.02828 -0.3581027,-0.99031 -0.6752328,-1.13754 -0.9323345,-0.43282 -0.5596741,1.53407 -1.9952559,3.2483 -3.4960674,4.17465 -0.88553749,0.54659 -1.6100681309594,1.03335 -1.6100681309594,1.08169 0,0.0483 0.3869531409594,0.28436 0.8598958609594,0.5245 1.60185037,0.81335 3.02469197,2.18595 3.79589317,3.66186 0.4224932,0.80856 0.8335481,1.47039 0.9134552,1.47074 0.079907,3.4e-4 0.3057338,-0.44309 0.5018368,-0.9854 z"
       id="path16" /><path
       style="fill:#000000"
       d="m 44.790572,225.81886 c -0.509646,-0.35697 -0.565657,-0.61963 -0.521892,-2.44739 0.04182,-1.74637 -0.04332,-2.19606 -0.578873,-3.05751 -0.75809,-1.21941 -2.17687,-2.17689 -3.590822,-2.4233 -0.574046,-0.10004 -1.586078,-0.4587 -2.248958,-0.79702 -3.291737,-1.68004 -4.475733,-5.08171 -3.193026,-9.17371 0.677694,-2.16193 0.671812,-3.73608 -0.01929,-5.16371 -0.663283,-1.37016 -1.33969,-1.87808 -3.946042,-2.96312 -4.753455,-1.97888 -6.996715,-5.0421 -7.671986,-10.47624 -0.26889,-2.16385 -1.439221,-5.96061 -1.837327,-5.96061 -0.103172,0 -1.062731,0.29766 -2.132354,0.66146 -2.351345,0.79974 -3.270654,0.83039 -3.96875,0.13229 -0.679906,-0.67991 -0.706338,0.0391 0.328251,-8.92924 0.06668,-0.578 -0.01012,-0.59764 -2.709501,-0.69288 -7.8189044,-0.27588 -15.2442295,-4.15966 -20.8738433,-10.91797 -3.3852247,-4.06393 -5.4706147,-8.03392 -6.7918217,-12.9297 -1.951396,-7.23097 -1.308465,-14.43649 1.865043,-20.90209 2.649063,-5.39711 6.2114596,-9.0129 11.3397792,-11.50975 3.7131079,-1.80782 6.5755052,-2.46435 10.7566759,-2.46719 5.2955649,-0.004 9.5178879,1.24717 13.7370349,4.06931 6.24101,4.17454 10.30568,10.90664 11.573185,19.16805 0.52607,3.42885 0.334757,9.56924 -0.406254,13.03915 -1.546818,7.24322 -4.283884,12.67767 -8.710414,17.29453 l -2.194991,2.28937 1.401241,1.3178 c 0.770682,0.72479 2.206478,2.00214 3.190658,2.83857 2.988122,2.53952 2.767496,3.62462 -1.075075,5.28752 -1.86164,0.80564 -2.401241,1.1512 -2.272365,1.45521 0.726886,1.7147 1.436058,4.25052 1.676136,5.99345 0.712292,5.17111 1.962644,6.76852 7.056552,9.01521 1.836048,0.80979 3.630778,2.46451 4.444803,4.09805 0.880097,1.76612 0.9429,4.51239 0.15449,6.75556 -0.901069,2.56371 -0.597134,4.37956 0.934731,5.58452 0.374396,0.2945 1.623751,0.84951 2.776345,1.23336 4.229923,1.4087 6.523179,4.78926 5.930399,8.74221 -0.185461,1.23674 -0.861419,2.2357 -1.512812,2.2357 -0.185902,0 -0.594917,-0.17995 -0.908922,-0.39989 z M 23.547914,178.86285 c 0.800364,-0.31789 1.48783,-0.61056 1.527701,-0.65038 0.03987,-0.0398 -0.955799,-1.07164 -2.2126,-2.29295 -1.774925,-1.7248 -2.435582,-2.20815 -2.959149,-2.16495 -0.370732,0.0306 -0.783694,0.16526 -0.917695,0.29926 -0.225371,0.22537 -0.967024,4.97797 -0.986124,6.3192 l -0.0084,0.58866 2.050521,-0.76043 c 1.127786,-0.41824 2.705364,-1.02052 3.505729,-1.33841 z M -7.4030413,146.70872 c 2.1808904,-1.12778 1.5166563,-4.36289 -0.8957912,-4.36289 -0.6964227,0 -1.0779202,0.19416 -1.5995266,0.81405 -1.0468939,1.24417 -0.7512289,2.90309 0.6431529,3.60861 0.836794,0.4234 0.9232171,0.42061 1.8521649,-0.0598 z m 2.564545,-9.4367 c 0.2042238,-0.16949 0.9380176,-1.50823 1.6306528,-2.97499 0.8034127,-1.70134 1.8515214,-3.37302 2.89504679,-4.61746 2.11932651,-2.52737 2.20596251,-3.94953 0.30062168,-4.93482 -1.29737077,-0.6709 -2.63058307,-0.13888 -4.60848157,1.83902 -3.9206878,3.92069 -5.3861084,9.88125 -2.7061101,11.00704 0.6788532,0.28516 1.9580205,0.12128 2.4882704,-0.31879 z"
       id="path15" /><path
       style="fill:#000000"
       d="M 108.08229,232.94155 C 84.175141,217.83233 65.002247,200.67045 54.544777,185.01949 45.358155,171.27051 40.842176,156.27666 42.050559,143.53646 43.914325,123.88644 55.24212,109.94768 72.289891,106.3272 c 3.535104,-0.75076 9.836644,-0.80857 13.038233,-0.11961 2.837893,0.6107 7.118384,2.05111 9.173498,3.08693 6.145128,3.09729 11.499258,8.23458 15.366148,14.74379 l 1.46274,2.46228 1.21912,-2.23651 c 4.9677,-9.11336 13.87817,-15.65637 24.448,-17.95229 3.43041,-0.74514 9.40067,-0.7885 13.02112,-0.0946 11.54844,2.21346 21.08244,9.69292 26.32299,20.6505 4.32606,9.04543 5.47149,20.58932 3.1766,32.01458 -3.94458,19.63841 -17.28532,38.37491 -41.00896,57.59533 -7.61538,6.16983 -25.53594,18.47507 -26.90063,18.47145 -0.1933,-5.1e-4 -1.78021,-0.9039 -3.52646,-2.00752 z m 6.34972,-40.98495 c 5.55247,-0.98916 10.66436,-5.28521 12.34283,-10.37296 0.95842,-2.90519 0.37392,-4.68889 -1.64156,-5.00946 -1.40822,-0.22398 -2.50365,0.79216 -2.89711,2.68741 -0.17634,0.84943 -0.71916,2.06979 -1.31982,2.96719 -2.08357,3.11292 -5.46062,4.81605 -9.56934,4.82606 -5.72775,0.0139 -10.10835,-3.08507 -11.354087,-8.03235 -0.333811,-1.32568 -1.481516,-2.54541 -2.395113,-2.54541 -0.912929,0 -1.997148,0.74093 -2.357592,1.61112 -0.850228,2.05263 0.932407,6.20495 3.970456,9.24845 4.084476,4.09179 9.300036,5.67481 15.221336,4.61995 z m -39.150112,-8.48124 c 5.434275,-1.41545 7.385752,-6.20174 3.773974,-9.25624 -3.783369,-3.19962 -10.666233,-3.18184 -14.228831,0.0367 -1.421749,1.28447 -1.856209,2.16356 -1.856209,3.75588 0,4.11945 6.461756,6.98716 12.311066,5.46361 z m 79.982002,-0.64524 c 4.33256,-1.99701 5.4417,-5.39352 2.66726,-8.16796 -2.18898,-2.18898 -5.91175,-3.26718 -9.3357,-2.70385 -3.39928,0.55927 -5.74855,1.99371 -6.79058,4.14625 -1.38647,2.86405 0.61193,5.92067 4.77429,7.30245 1.12155,0.37232 2.06454,0.46272 4.11279,0.39429 2.34877,-0.0785 2.88002,-0.19132 4.57194,-0.97118 z M 90.403256,171.16216 c 4.256837,-2.0607 6.092119,-9.39979 3.674239,-14.69287 -3.267155,-7.15227 -11.49312,-5.77449 -13.272398,2.22302 -1.117541,5.02314 0.625312,10.28534 4.071305,12.29251 1.599062,0.9314 3.82184,1.00272 5.526854,0.17734 z m 46.959714,-0.15864 c 1.49905,-0.81589 2.92953,-2.60529 3.72119,-4.6549 0.68626,-1.77672 0.92488,-5.68452 0.46602,-7.6317 -1.32943,-5.64141 -5.68622,-8.37639 -9.80689,-6.15628 -5.15485,2.77729 -6.18124,12.17662 -1.86632,17.09104 1.88685,2.14901 4.99131,2.70962 7.486,1.35184 z"
       id="path14" /><path
       style="fill:#000000"
       d="m 201.20178,238.54447 c -0.49923,-0.36505 -0.50042,-0.41896 -0.0484,-2.18282 0.25493,-0.99469 0.46252,-1.93756 0.46129,-2.09527 -10e-4,-0.15772 -0.65872,-0.7389 -1.46111,-1.29153 -1.50438,-1.03611 -2.02444,-1.97481 -1.52911,-2.76006 0.15292,-0.24244 1.17066,-0.62379 2.40753,-0.9021 l 2.14261,-0.48211 0.86819,-2.12341 c 0.4775,-1.16787 1.0865,-2.24024 1.35334,-2.38305 0.79908,-0.42765 1.57275,0.34926 2.38968,2.39968 0.41216,1.03449 0.94794,1.98526 1.19062,2.11281 0.24268,0.12755 1.15562,0.38429 2.02874,0.57053 1.93627,0.41302 2.24896,0.63423 2.24896,1.59104 0,0.6006 -0.31328,0.98696 -1.60829,1.98344 -1.28346,0.98761 -1.58036,1.35143 -1.47,1.8014 0.0761,0.31012 0.21971,1.18815 0.31923,1.95116 0.31696,2.43024 -0.57256,2.77357 -3.117,1.20305 l -1.59019,-0.98152 -1.79477,0.98152 c -2.02801,1.10908 -2.0874,1.122 -2.79137,0.60724 z"
       id="path13" /><path
       style="fill:#000000"
       d="m 18.511824,238.37276 c -0.210672,-0.39365 -0.21327,-0.91407 -0.0093,-1.86511 0.44733,-2.08583 0.377555,-2.4478 -0.576997,-2.99326 -1.359234,-0.7767 -2.315104,-1.7859 -2.315104,-2.44425 0,-0.78095 0.800455,-1.27683 2.746118,-1.70119 1.722932,-0.37579 2.128136,-0.81429 3.004505,-3.25139 0.544958,-1.51547 1.359607,-2.19363 2.135999,-1.77812 0.285985,0.15305 0.89357,1.21715 1.370399,2.40005 0.471144,1.1688 0.89499,2.12509 0.94188,2.12509 0.584773,0 4.004938,0.87911 4.267307,1.09686 0.726227,0.60271 0.376599,1.40406 -1.254478,2.87527 l -1.617081,1.45859 0.420384,1.62231 c 0.51807,1.9993 0.518199,2.07178 0.0046,2.58537 -0.588958,0.58896 -0.876318,0.53274 -2.608409,-0.51027 -0.845815,-0.50932 -1.672248,-0.92299 -1.836519,-0.91927 -0.16427,0.004 -0.948,0.42044 -1.741622,0.92604 -1.648235,1.05006 -2.510711,1.15987 -2.931682,0.37328 z"
       id="path12" /><path
       style="fill:#000000"
       d="m 181.91605,242.03488 c -0.56624,-0.80841 -0.53143,-0.99724 0.4231,-2.2952 1.21499,-1.65212 1.30519,-3.19297 0.32244,-5.50809 -1.03701,-2.44295 -1.06348,-5.0975 -0.072,-7.21909 0.9572,-2.0482 2.80888,-3.77631 5.04804,-4.71112 3.8814,-1.62043 5.36298,-3.33669 5.8111,-6.73155 0.56326,-4.26714 0.81649,-5.46546 1.43881,-6.80867 0.35795,-0.7726 0.61852,-1.43528 0.57903,-1.4726 -0.0395,-0.0373 -1.11238,-0.54756 -2.38421,-1.13384 -3.64515,-1.68032 -3.71678,-2.70227 -0.38814,-5.5371 1.04875,-0.89317 2.37169,-2.10036 2.93987,-2.68264 l 1.03306,-1.05871 -1.98298,-1.85188 c -4.14776,-3.87355 -7.31346,-9.89947 -8.59358,-16.35791 -0.62965,-3.17675 -0.63525,-9.47611 -0.011,-12.418 2.44852,-11.53962 9.44969,-19.84895 19.15863,-22.7384 3.16102,-0.94074 8.00759,-1.16373 11.20624,-0.51561 9.32391,1.88927 16.3419,8.50647 18.81435,17.7399 1.698,6.34125 1.04196,13.23398 -1.90666,20.03237 -2.94238,6.78399 -8.97218,13.18534 -15.47783,16.43155 -3.82307,1.90766 -8.85093,2.96869 -12.49969,2.63784 -0.90499,-0.0821 -1.64544,-0.0984 -1.64544,-0.0363 0,0.0621 0.17764,1.53718 0.39476,3.2779 0.21712,1.74071 0.39571,3.71203 0.39688,4.3807 0.004,2.17677 -1.23517,2.59407 -4.34753,1.46435 -1.2492,-0.45344 -1.7956,-0.54506 -1.97234,-0.33073 -0.59484,0.72132 -1.36764,3.80307 -1.5869,6.32822 -0.4359,5.02007 -2.03048,7.27063 -6.81102,9.61295 -3.32389,1.62861 -4.11162,2.37494 -4.75181,4.50213 -0.43258,1.43736 -0.30656,2.42298 0.5928,4.63632 0.78462,1.93094 0.84004,4.61349 0.12754,6.17308 -1.10714,2.42341 -2.95633,3.47383 -3.8555,2.19009 z m 19.3342,-36.65207 c -0.0733,-0.25466 -0.20974,-1.53458 -0.30314,-2.84427 -0.2147,-3.01049 -0.26102,-3.16224 -1.07908,-3.53497 -0.636,-0.28979 -0.81381,-0.17875 -3.00741,1.87807 -1.28229,1.20234 -2.34504,2.25922 -2.36165,2.34862 -0.0337,0.18105 5.9863,2.57593 6.53605,2.60019 0.20897,0.009 0.29517,-0.17004 0.21523,-0.44764 z m -8.11155,-23.7881 c -1.23108,-5.56861 -0.89626,-11.26504 0.94188,-16.02459 0.98904,-2.56096 0.98733,-3.14911 -0.011,-3.80327 -1.31953,-0.86459 -2.19601,0.40442 -3.32297,4.81116 -1.15107,4.50095 -0.73171,10.7647 0.97983,14.63536 0.75564,1.70888 1.69705,3.27636 1.86618,3.10724 0.067,-0.067 -0.13725,-1.29365 -0.45389,-2.7259 z m 7.58678,-22.85954 c 0.4042,-0.15368 1.45375,-1.0304 2.33233,-1.94827 0.87857,-0.91786 2.64346,-2.34338 3.92197,-3.16783 2.61481,-1.68615 3.04235,-2.32686 2.46874,-3.69969 -0.44083,-1.05505 -1.62998,-1.61929 -2.90757,-1.37961 -1.46536,0.2749 -3.89582,1.62416 -5.49711,3.0517 -3.14042,2.79966 -4.00831,5.31874 -2.32145,6.73813 0.92204,0.77586 0.99193,0.79001 2.00309,0.40557 z"
       id="path11" /><path
       style="fill:#000000"
       d="M 7.3291548,250.03604 C -5.7115201,234.11814 -14.259216,218.00777 -19.69713,199.09793 c -7.200061,-25.03754 -7.528535,-52.97767 -0.911374,-77.52189 6.438577,-23.881824 17.6514222,-43.692801 35.266579,-62.309377 20.611611,-21.783378 48.465261,-36.037781 78.5285,-40.187799 6.813735,-0.940588 10.814125,-1.196003 18.732175,-1.196003 14.87989,0 26.42453,1.78038 41.19873,6.353547 20.0082,6.193285 40.70428,19.350145 55.51971,35.294839 9.37884,10.093721 17.52738,21.813106 23.27168,33.469792 6.86069,13.922131 11.19763,27.663551 13.61137,43.127081 2.21079,14.16341 2.11493,30.78971 -0.26294,45.60168 -4.22816,26.33771 -14.1095,48.61034 -30.77175,69.35979 -0.87642,1.0914 -1.62987,2.03277 -1.67432,2.09192 -0.0822,0.10931 -2.17745,-0.73801 -2.52559,-1.02133 -0.10473,-0.0852 0.47833,-0.98605 1.29569,-2.00184 11.07724,-13.76648 19.1472,-28.11634 24.44431,-43.46647 5.84353,-16.93355 8.81758,-37.27626 7.96673,-54.49304 C 242.96041,131.31739 238.1946,112.57627 229.37591,94.720831 225.34979,86.569054 222.19237,81.485619 216.1467,73.421872 204.78313,58.265078 191.83794,46.786556 175.69224,37.55083 158.94484,27.970912 140.80476,22.551891 120.78229,21.147478 115.24765,20.759267 103.7809,20.965424 98.425,21.549432 71.570374,24.477664 47.621997,34.643808 27.119789,51.818668 23.814551,54.587492 14.91839,63.515929 11.6581,67.336455 5.2822263,74.807934 -0.72951731,83.252981 -4.8223453,90.487498 c -1.4265584,2.521596 -4.9714715,9.810652 -6.3694487,13.096872 -5.369609,12.62232 -8.959879,26.29987 -10.396825,39.60789 -0.561504,5.20027 -0.781244,19.27162 -0.391696,25.08274 1.52866,22.8039 8.515268,44.96672 20.0313844,63.54326 3.345524,5.39664 7.4020301,10.98358 12.2383256,16.85558 l 2.695539,3.27281 -1.359366,0.6298 c -0.747651,0.34639 -1.43684,0.62857 -1.531531,0.62707 -0.094691,-0.001 -1.3388878,-1.42687 -2.7648822,-3.16748 z"
       id="path10" /><path
       style="fill:#000000"
       d="M -4.2317089,256.84427 C -19.318715,238.73588 -29.984301,216.27379 -35.168361,191.69063 c -2.298376,-10.89906 -3.255705,-20.71528 -3.264149,-33.4698 -0.0096,-14.45539 1.224909,-25.22487 4.306656,-37.57083 C -25.698482,86.88862 -6.807824,57.280967 19.976039,35.855171 42.90501,17.513102 71.710205,6.4488813 102.35009,4.2148818 c 5.42349,-0.3954347 18.60957,-0.177121 23.72387,0.3927813 16.87244,1.8801488 30.95796,5.6372109 45.86628,12.2340109 18.92592,8.374551 38.06266,22.666245 50.78478,37.927073 12.09569,14.509393 20.30624,28.42944 27.19876,46.112413 4.95135,12.70284 8.16673,25.92846 9.75916,40.14176 2.87943,25.70052 -1.49291,55.33566 -11.70595,79.34134 -3.70237,8.7024 -9.48935,19.36471 -14.30674,26.3597 -4.94024,7.17336 -9.69855,13.20987 -10.18057,12.91532 -1.22451,-0.74826 -4.56105,-3.09591 -4.62216,-3.25222 -0.0414,-0.10579 0.91735,-1.4303 2.13045,-2.94335 12.88773,-16.07439 22.15386,-34.35938 27.67393,-54.60933 8.01867,-29.41588 7.28669,-59.82889 -2.13011,-88.50313 C 239.54242,89.018092 228.58134,70.554794 212.86811,53.609899 206.88158,47.154123 196.55508,38.584703 188.34182,33.256809 169.92822,21.312017 149.75009,14.089233 127.13229,11.346791 120.62664,10.557971 107.7603,10.366069 100.93854,10.95611 58.99534,14.583949 22.772546,34.681252 -2.3574596,68.267289 c -5.4239165,7.249018 -9.9581754,14.626567 -14.1444324,23.013959 -8.392007,16.813842 -13.349669,34.259812 -15.150233,53.313542 -0.623539,6.59835 -0.624214,20.66565 -0.0013,27.37505 2.874463,30.96151 14.017802,58.54636 32.911079,81.46995 1.3651904,1.65641 2.3848483,3.09674 2.2659063,3.20072 -0.483735,0.42292 -4.8795294,3.18033 -5.0700039,3.18033 -0.1129307,0 -1.3212938,-1.33946 -2.6852513,-2.97657 z"
       id="path9" /><path
       style="fill:#000000"
       d="m 106.12206,307.4437 c -3.64352,-0.30526 -7.616507,-0.93641 -11.665811,-1.85322 -3.343208,-0.75695 -8.428165,-2.27096 -8.802183,-2.6208 -0.111774,-0.10455 0.304945,-0.59544 0.926042,-1.09088 0.621096,-0.49543 1.699917,-1.43113 2.39738,-2.07932 l 1.268114,-1.17852 3.494386,0.82823 c 7.566272,1.79334 12.214852,2.28468 19.966602,2.11043 6.34153,-0.14255 9.86141,-0.57938 15.27779,-1.89602 l 3.43958,-0.83611 2.56851,2.11527 2.5685,2.11527 -0.79264,0.33328 c -1.2852,0.54039 -7.87324,2.3752 -10.1652,2.83107 -5.87983,1.1695 -14.77125,1.69971 -20.48107,1.22132 z"
       id="path8" /><path
       style="fill:#000000"
       d="m 42.154753,318.40381 c -0.643923,-0.64392 -0.673182,-0.78626 -0.503019,-2.44715 0.423457,-4.13319 2.768413,-13.81908 4.255675,-17.57816 0.21707,-0.54864 0.394672,-1.12074 0.394672,-1.27133 0,-0.40434 -2.504056,-1.43642 -4.682438,-1.92992 -2.87118,-0.65045 -7.454112,-0.56776 -11.231137,0.20264 -7.474057,1.52448 -15.332582,4.78747 -25.6705987,10.65885 -4.8142469,2.73421 -5.44108777,2.8916 -6.3966255,1.6061 l -0.5404226,-0.72703 0.6937274,-4.16776 c 1.13252707,-6.80396 3.1024414,-12.95797 6.1925167,-19.34539 0.9408368,-1.94478 1.6581954,-3.58838 1.5941302,-3.65245 -0.3353634,-0.33536 -7.7149675,-0.91739 -13.4049873,-1.05725 -3.5652602,-0.0876 -6.6906512,-0.2667 -6.9453122,-0.39791 -0.254662,-0.13122 -0.46353,-0.50228 -0.464152,-0.82459 -0.002,-1.0578 2.952814,-5.01049 6.0778102,-8.13024 6.8078668,-6.79645 16.0809538,-12.54758 25.3168438,-15.70141 10.397185,-3.55038 19.83517,-3.96255 30.518979,-1.33282 2.110052,0.51937 3.939766,0.96372 4.066032,0.98743 0.126266,0.0237 0.461357,-0.96891 0.744648,-2.20583 0.405017,-1.76842 0.559582,-3.83192 0.723375,-9.6573 0.178857,-6.36118 0.284305,-7.64073 0.746013,-9.0525 1.337575,-4.08993 3.70182,-6.38382 7.883103,-7.64852 2.499192,-0.75592 7.680191,-0.6225 11.104538,0.28597 8.463055,2.24522 18.677718,8.3321 26.392327,15.72707 l 2.594519,2.48702 1.64616,-0.50264 c 1.43676,-0.43871 2.52121,-0.50265 8.52533,-0.50265 6.56974,0 6.93704,0.0267 8.16593,0.59371 l 1.28677,0.5937 2.59609,-2.46845 c 6.39074,-6.07654 15.51345,-11.96815 22.59286,-14.59089 3.76218,-1.39379 6.93289,-2.04036 10.20522,-2.08107 6.90837,-0.0859 11.00662,2.59533 12.74271,8.33687 0.54203,1.79255 0.58902,2.4971 0.60619,9.08697 0.0155,5.94197 0.10228,7.53422 0.516,9.46481 0.40382,1.88441 0.57746,2.29643 0.92302,2.19012 18.82147,-5.7907 36.5083,-2.27864 53.56108,10.63557 4.70644,3.56423 11.80269,10.89104 12.24145,12.63917 0.22869,0.91117 -0.30918,1.67424 -1.2848,1.82275 -0.47118,0.0717 -3.53559,0.19312 -6.80981,0.26977 -5.34225,0.12507 -8.82143,0.36654 -12.07534,0.83809 l -1.09514,0.15871 1.94052,4.00925 c 3.29414,6.80595 5.83288,15.37155 6.12871,20.67801 0.11882,2.13138 0.0748,2.45418 -0.41933,3.07633 -0.90697,1.1419 -1.40569,1.09107 -3.9309,-0.40063 -9.12354,-5.38949 -17.24005,-9.07612 -24.1506,-10.96955 -7.26468,-1.99045 -13.15319,-1.92945 -18.04822,0.18696 l -1.24717,0.53923 0.5296,1.53487 c 3.07802,8.92075 4.61149,18.73188 3.15537,20.188 -0.29104,0.29104 -0.82689,0.52916 -1.19077,0.52916 -0.87327,0 -9.84326,-2.98734 -14.68423,-4.89039 -4.50241,-1.76996 -13.04165,-5.86483 -16.33879,-7.83502 -12.93418,-7.7288 -22.57455,-17.6044 -28.55432,-29.2511 l -1.6902,-3.29197 -6.11306,-0.0117 -6.11305,-0.0117 -0.97605,2.07457 c -2.47007,5.25012 -6.944789,11.65296 -11.447049,16.3795 -8.904919,9.34853 -20.147162,16.40166 -35.828432,22.47795 -4.084438,1.58267 -12.668154,4.35982 -13.475471,4.35982 -0.366742,0 -0.974464,-0.30766 -1.350495,-0.68369 z m 7.491356,-5.68892 c 7.948384,-2.73773 18.605817,-7.59969 24.437223,-11.14834 7.774022,-4.73082 14.330081,-10.41756 19.759527,-17.13946 1.734647,-2.14758 5.755259,-8.1755 5.573964,-8.35679 -0.06117,-0.0612 -1.131636,1.04995 -2.378819,2.46914 -5.087632,5.78931 -11.595318,11.66526 -16.604672,14.99276 -2.389166,1.58702 -7.033033,3.98258 -8.302725,4.283 -1.132392,0.26793 -0.789438,-0.38553 0.708294,-1.34957 0.678239,-0.43656 2.396557,-1.5404 3.818484,-2.45296 2.618075,-1.68023 6.558914,-4.77414 6.348732,-4.98433 -0.063,-0.063 -1.077838,0.42718 -2.255199,1.08928 -4.544585,2.55569 -10.830941,4.80403 -11.516175,4.11879 -0.189137,-0.18913 0.294472,-0.53139 1.559618,-1.10375 5.191309,-2.34859 6.974487,-3.27092 9.413753,-4.86915 2.797097,-1.83268 3.31762,-2.4877 1.073025,-1.35027 -2.090508,1.05934 -6.80483,2.78267 -9.151044,3.34519 -2.428346,0.58221 -5.295327,0.70081 -5.132496,0.21231 0.05616,-0.16848 1.881788,-0.85652 4.056944,-1.52896 6.124493,-1.89336 11.928926,-4.90472 17.269819,-8.95966 2.686417,-2.0396 5.602721,-4.56005 5.602721,-4.84223 0,-0.10857 -1.084792,0.40627 -2.410648,1.14407 -5.426085,3.01949 -12.86185,6.05899 -18.000362,7.35797 -7.601533,1.92162 -13.79188,2.52525 -29.727533,2.89877 -9.07894,0.2128 -11.203897,0.34161 -14.948959,0.90614 -2.401094,0.36195 -4.781558,0.78307 -5.28992,0.93583 -1.264145,0.37987 -2.188095,0.35604 -2.05444,-0.053 0.176385,-0.53979 3.265857,-2.21488 7.013631,-3.80274 1.928151,-0.81692 3.505729,-1.60241 3.505729,-1.74554 0,-0.16242 -1.357703,-0.22525 -3.61238,-0.16717 -2.681158,0.0691 -3.641129,0.01 -3.723905,-0.23074 -0.06249,-0.18145 0.914958,-0.98238 2.223317,-1.82182 3.80771,-2.443 4.050937,-2.60967 4.052827,-2.77733 9.94e-4,-0.0882 -1.261719,-0.22492 -2.806029,-0.30374 -4.436182,-0.22641 -4.529934,-0.74645 -0.713487,-3.95772 l 2.291453,-1.9281 -3.068469,-0.26586 c -1.687658,-0.14623 -3.151642,-0.34905 -3.253299,-0.4507 -0.513,-0.513 0.259311,-1.5465 2.113568,-2.82834 1.087974,-0.75212 2.049272,-1.48259 2.136217,-1.62327 0.09891,-0.16005 -1.241091,-0.25578 -3.580101,-0.25578 -3.713735,0 -3.73763,-0.004 -3.653635,-0.58903 0.05725,-0.39887 0.787779,-1.06082 2.262942,-2.05052 l 2.178395,-1.4615 -1.860586,-0.078 c -1.023321,-0.0429 -2.926386,0.10593 -4.229033,0.33073 -1.302646,0.2248 -2.546989,0.40872 -2.765205,0.40872 -1.48192,0 1.649375,-1.89412 5.159493,-3.12098 6.882269,-2.4055 15.39159,-2.65202 24.028533,-0.69612 0.972588,0.22025 2.141888,0.51917 2.598443,0.66426 l 0.830101,0.2638 0.126625,5.47942 c 0.101892,4.40914 0.232728,5.87184 0.669832,7.4885 0.831209,3.07428 1.980419,5.35901 3.508004,6.9742 1.836499,1.94183 3.099977,2.52799 5.429811,2.51904 l 1.834694,-0.007 -1.57888,-0.85285 c -5.468765,-2.954 -8.169131,-9.98015 -7.7096,-20.05981 l 0.163967,-3.59656 -2.316911,-0.68952 c -4.673791,-1.39095 -7.344285,-1.80879 -12.503369,-1.95634 -5.593143,-0.15996 -9.184509,0.22296 -14.18596,1.51252 -7.727305,1.99241 -16.6916186,6.58964 -23.3848742,11.99263 -2.5245917,2.03792 -6.1050264,5.48075 -5.9539804,5.72515 0.063538,0.1028 1.756598,0.20978 3.762356,0.23772 7.8545758,0.10943 16.4791246,1.50785 16.4791246,2.67199 0,0.13767 -0.607968,1.17672 -1.351041,2.30901 -1.7760213,2.70628 -4.969229,9.2975 -6.1651652,12.72574 -1.009557,2.89398 -2.5379606,8.50831 -2.5379606,9.32278 0,0.41143 0.3139912,0.30473 2.0505209,-0.69681 13.2097409,-7.61863 26.5424389,-11.58475 35.1234389,-10.44828 2.831554,0.37501 6.484719,1.54291 8.863542,2.83362 2.904619,1.576 2.849574,1.42487 1.63309,4.48382 -1.972807,4.96078 -4.852834,15.98471 -4.176042,15.98471 0.05658,0 1.5151,-0.48643 3.241146,-1.08095 z M 176.2125,313.2801 c 0,-2.24938 -2.3996,-11.50125 -3.98711,-15.37266 -1.2965,-3.16175 -1.33208,-3.07032 1.83137,-4.70658 6.83274,-3.53417 14.18879,-3.81813 23.98387,-0.92582 5.80138,1.71304 11.903,4.34156 17.92421,7.72159 1.85467,1.04113 3.43225,1.89296 3.50573,1.89296 0.27078,0 0.11016,-0.79113 -0.93314,-4.59614 -1.78802,-6.5211 -4.11568,-11.98111 -7.30729,-17.14072 -1.90158,-3.07414 -1.85727,-3.38754 0.5644,-3.99216 3.46222,-0.8644 11.98305,-1.7272 17.59212,-1.78134 0.58617,-0.006 0.46209,-0.20163 -1.19063,-1.88061 -5.25961,-5.34317 -13.10765,-10.49713 -20.7019,-13.59536 -10.89664,-4.4455 -22.61446,-5.0774 -33.67602,-1.81601 l -2.26211,0.66695 0.11065,3.89482 c 0.29795,10.48814 -2.29819,17.00011 -7.91443,19.85202 l -1.69493,0.86068 2.24896,-0.11142 c 2.6408,-0.13082 3.54287,-0.52571 5.28373,-2.31298 3.06953,-3.15137 4.83359,-10.196 4.35232,-17.38065 l -0.18064,-2.6967 1.02698,-0.27456 c 11.22639,-3.00134 22.13042,-2.524 29.74904,1.3023 1.98436,0.99661 2.85109,1.67868 2.44548,1.92447 -0.1162,0.0704 -1.40191,-0.10207 -2.85712,-0.38331 -1.52318,-0.29438 -3.43168,-0.47904 -4.49791,-0.43521 l -1.85209,0.0761 1.85209,1.21658 c 2.07465,1.36277 2.91422,2.18562 2.65614,2.60321 -0.10889,0.17619 -1.51059,0.28126 -3.75214,0.28126 -2.26036,0 -3.54582,0.0971 -3.49011,0.26372 0.0485,0.14505 0.98116,0.89498 2.07257,1.66652 1.48896,1.05257 2.00473,1.57556 2.0659,2.09481 0.10015,0.85011 -0.0675,0.90535 -3.45497,1.13847 -1.41882,0.0976 -2.573,0.25571 -2.56482,0.35127 0.008,0.0956 1.08681,1.04559 2.39697,2.11118 2.04887,1.66639 2.37066,2.03635 2.30024,2.64457 -0.0994,0.85888 -0.7133,1.03022 -3.85218,1.07524 -1.20055,0.0172 -2.18146,0.1206 -2.17981,0.22974 0.002,0.10914 1.3411,1.0914 2.97656,2.18281 1.63546,1.09141 2.97356,2.16297 2.97356,2.38125 0,0.3378 -0.52186,0.38212 -3.50572,0.29776 -2.14794,-0.0607 -3.50573,-8e-5 -3.50573,0.15658 0,0.14064 1.04179,0.70712 2.3151,1.25886 5.95105,2.57863 8.45633,4.00773 7.9367,4.52735 -0.0835,0.0836 -1.38257,-0.0937 -2.88674,-0.39379 -5.36283,-1.07004 -8.99832,-1.36317 -21.65256,-1.74584 -13.22186,-0.39984 -16.05589,-0.5965 -21.43126,-1.48722 -6.84211,-1.13376 -14.65885,-3.9042 -22.8787,-8.10877 -1.74198,-0.89105 -3.22108,-1.56626 -3.28687,-1.50047 -0.0658,0.0658 0.39739,0.56538 1.0293,1.11019 7.83499,6.75507 14.61666,10.4367 24.58816,13.34842 1.72683,0.50425 1.71102,1.0036 -0.0318,1.0036 -2.91299,0 -11.45785,-2.65583 -14.08661,-4.37826 -0.37363,-0.2448 -0.67932,-0.32982 -0.67932,-0.18891 0,0.65852 7.02943,4.64142 12.12711,6.87126 1.26078,0.5515 1.8748,0.95542 1.75271,1.15298 -0.46764,0.75665 -5.47063,-0.9343 -10.68701,-3.61207 -1.80921,-0.92874 -3.3374,-1.64069 -3.39597,-1.58212 -0.25384,0.25384 5.41129,4.30966 10.32347,7.39085 0.83675,0.52485 1.52136,1.07482 1.52136,1.22215 0,0.5711 -1.12364,0.20523 -4.28205,-1.39427 -3.62641,-1.83651 -7.30191,-4.29566 -10.77104,-7.20655 -2.52109,-2.11539 -8.93533,-8.53029 -11.30139,-11.30254 -0.83681,-0.98047 -1.57491,-1.72925 -1.64022,-1.66394 -0.0653,0.0653 0.45845,1.04611 1.1639,2.17956 6.13971,9.86468 15.86588,18.87047 27.10986,25.10197 5.81296,3.22157 14.79053,7.16859 21.68136,9.53226 3.02054,1.0361 2.91041,1.02169 2.91041,0.38064 z M 72.669226,278.47583 c 5.238765,-0.84967 11.745861,-3.23381 18.80264,-6.88912 4.531798,-2.3474 6.423967,-3.4854 6.423967,-3.86353 0,-0.41367 -0.510797,-0.25195 -5.641556,1.78617 -12.196831,4.845 -17.365202,6.20673 -23.594903,6.21665 -6.157232,0.01 -8.897502,-1.60147 -8.600728,-5.05725 0.216723,-2.52363 3.833037,-5.03501 9.319471,-6.472 4.58266,-1.20028 6.312416,-1.33321 17.348479,-1.33321 h 10.394305 l -0.07556,-2.24158 -0.07555,-2.24159 -2.645833,-0.73483 c -1.455209,-0.40415 -4.134115,-1.04684 -5.953125,-1.42821 -1.819011,-0.38137 -3.45612,-0.81273 -3.638021,-0.95859 -0.533475,-0.42777 -0.391368,-1.47225 0.246773,-1.81377 0.98067,-0.52484 5.756391,-0.12988 9.145935,0.75639 2.953641,0.77229 2.976553,0.774 2.975231,0.22232 -0.0017,-0.72524 -2.485766,-2.43516 -6.948319,-4.78299 -3.732489,-1.96373 -4.226868,-2.45584 -3.349039,-3.33366 0.47763,-0.47763 0.744218,-0.53394 1.78741,-0.3775 1.686574,0.25292 4.235374,1.24654 6.625314,2.58282 1.103715,0.61711 2.084417,1.15697 2.179338,1.19969 0.09492,0.0427 0.248894,-0.32912 0.342163,-0.82628 0.09327,-0.49717 0.450414,-1.45866 0.793654,-2.13665 l 0.624075,-1.2327 -3.077153,-2.57482 C 84.805368,233.509 73.304752,228.11265 65.676257,228.67631 c -2.64294,0.19529 -4.245912,0.77333 -5.704184,2.05695 -1.010198,0.88921 -2.450935,3.08858 -2.192515,3.347 0.04684,0.0468 0.858856,-0.27688 1.804471,-0.71939 1.990998,-0.9317 4.781847,-1.31992 5.752862,-0.80025 0.836717,0.4478 0.38204,0.84499 -1.969184,1.72022 -2.398459,0.89281 -4.429959,2.24939 -5.424533,3.62236 -0.719683,0.99349 -1.014271,1.8093 -0.653339,1.8093 0.07691,0 0.880582,-0.37464 1.785938,-0.83254 1.193791,-0.60377 2.136833,-0.86799 3.432038,-0.96159 2.486672,-0.17969 2.391237,0.34059 -0.362192,1.97457 -2.364584,1.40322 -4.731037,3.74943 -4.731037,4.69056 0,0.5946 0.0012,0.59445 1.613636,-0.20476 1.060606,-0.52569 2.14875,-0.8385 3.175,-0.91273 1.459767,-0.10559 1.561364,-0.0756 1.561364,0.46033 0,0.36796 -0.294015,0.7347 -0.820927,1.02399 -1.722096,0.94548 -4.222273,3.06387 -4.997656,4.23449 -1.303097,1.96731 -2.084155,5.33283 -2.652582,11.42977 -0.441177,4.73206 0.160594,9.7945 1.501405,12.63067 0.796911,1.68568 2.74377,3.68946 4.218447,4.34178 2.967519,1.31267 7.09971,1.62776 11.655957,0.88879 z m 87.312914,-0.23635 c 5.47057,-1.73546 7.75266,-6.79529 7.41221,-16.43427 -0.1592,-4.50709 -0.65647,-7.96469 -1.53056,-10.64214 -0.66522,-2.03766 -2.19467,-3.8072 -4.73995,-5.48404 -1.31295,-0.86498 -1.84467,-1.37563 -1.84467,-1.77158 0,-0.51185 0.1151,-0.54676 1.44024,-0.43687 0.86513,0.0717 2.08012,0.43659 3.0427,0.91369 l 1.60248,0.79426 v -0.79981 c 0,-0.99765 -2.04872,-3.07603 -4.30413,-4.36645 -2.81407,-1.61004 -2.95593,-2.30787 -0.42248,-2.07814 0.92952,0.0843 2.25185,0.46868 3.3007,0.9595 0.96245,0.45038 1.79606,0.81887 1.85249,0.81887 0.37106,0 -0.0247,-1.09219 -0.68688,-1.89551 -1.07278,-1.30147 -3.27467,-2.71877 -5.60607,-3.60849 -2.23807,-0.85409 -2.6607,-1.50517 -1.15982,-1.78673 1.61259,-0.30253 3.04909,0.0508 6.70039,1.64805 0.2632,0.11514 0.27416,-0.0168 0.0508,-0.61097 C 163.9697,230.4799 160.63658,228.6 156.4747,228.6 c -7.44179,0 -19.36182,5.73196 -29.65096,14.25819 l -3.219,2.66746 0.48004,0.99603 c 0.26403,0.54782 0.61791,1.50975 0.78641,2.13762 0.1685,0.62788 0.38899,1.10413 0.48999,1.05834 0.101,-0.0458 0.95754,-0.52233 1.90342,-1.05897 2.22761,-1.26381 5.48662,-2.56048 6.93407,-2.75888 0.89207,-0.12227 1.27884,-0.0456 1.76774,0.35025 1.10805,0.89724 0.58993,1.48459 -2.7459,3.11277 -4.05871,1.98102 -7.54341,4.30514 -7.54341,5.03109 0,0.54787 0.0232,0.54629 2.97657,-0.2021 3.94841,-1.00055 8.68062,-1.29297 9.46317,-0.58476 0.64217,0.58116 0.64815,0.71753 0.0618,1.41167 -0.34971,0.41402 -1.30477,0.71618 -3.90261,1.23469 -3.61295,0.72112 -8.08085,1.89347 -8.37561,2.19771 -0.0954,0.0985 -0.2145,1.12344 -0.26458,2.27763 l -0.0911,2.09853 9.525,-0.0621 c 7.39872,-0.0482 10.21248,0.0296 12.60465,0.3488 3.84556,0.51311 7.77997,1.5231 9.92947,2.54896 2.25696,1.07715 4.49537,3.15871 4.86237,4.52166 0.93305,3.46507 -2.24603,5.59205 -8.32727,5.57141 -6.06173,-0.0206 -13.06384,-1.89559 -24.54159,-6.57172 -2.28219,-0.92978 -4.27649,-1.69052 -4.43177,-1.69052 -0.15527,0 -0.28232,0.15122 -0.28232,0.33605 0,0.60889 9.11822,5.38509 13.93463,7.29906 4.5868,1.82273 7.39823,2.62564 12.52371,3.57661 1.47097,0.27292 7.30265,-0.0416 8.64047,-0.46599 z m -43.282,-8.89723 c 1.85361,-0.35153 3.02795,-1.17779 3.75535,-2.64225 0.55788,-1.12316 0.59625,-1.57639 0.67725,-7.99901 0.10231,-8.11243 -0.0757,-9.38332 -1.51635,-10.82393 -1.43447,-1.43448 -2.4091,-1.59987 -8.85294,-1.50233 -5.36944,0.0813 -5.63649,0.11037 -6.72209,0.73207 -0.84492,0.48387 -1.31258,1.0186 -1.85118,2.11667 -0.70705,1.44148 -0.72246,1.57956 -0.81565,7.30755 -0.1636,10.05682 0.59179,12.11689 4.69771,12.81142 1.81556,0.30711 9.00822,0.30698 10.6279,-1.9e-4 z"
       id="path7" /><path
       style="fill:#000000"
       d="m 162.71875,252.90574 c -1.23693,-0.86306 -2.47177,-1.79135 -2.74409,-2.06287 -1.01799,-1.01497 0.32584,-1.42979 2.15728,-0.66592 1.73702,0.72449 3.73984,3.07377 3.39238,3.97922 -0.20539,0.53525 -0.31886,0.48467 -2.80557,-1.25043 z"
       id="path6" /><path
       style="fill:#000000"
       d="m 162.85104,258.73622 c -2.93,-2.21639 -3.35274,-2.88413 -1.82592,-2.88413 1.45713,0 3.74238,1.7226 4.32263,3.25837 0.6494,1.71877 0.17648,1.64789 -2.49671,-0.37424 z"
       id="path5" /><path
       style="fill:#000000"
       d="m 163.21902,264.89594 c -0.63895,-0.55567 -1.73379,-1.39931 -2.43299,-1.87476 -2.13268,-1.45022 -0.94552,-2.20437 1.43257,-0.91005 1.46756,0.79874 2.46908,1.91298 2.75719,3.06752 0.26069,1.04461 -0.34205,0.94762 -1.75677,-0.28271 z"
       id="path4" /><path
       style="fill:#000000"
       d="m 57.414582,254.01729 c 0,-1.8628 2.742305,-4.25062 4.881652,-4.25062 1.624918,0 1.218478,0.79349 -1.243631,2.42794 -4.029853,2.67519 -3.638021,2.47887 -3.638021,1.82268 z"
       id="path3" /><path
       style="fill:#000000"
       d="m 57.149998,260.10264 c 0,-1.76817 2.775215,-4.25055 4.75196,-4.25055 1.371922,0 0.93747,0.66891 -1.709973,2.63281 -2.442646,1.81198 -3.041987,2.13071 -3.041987,1.61774 z"
       id="path2" /><path
       style="fill:#000000"
       d="m 57.834777,265.6794 c -0.443863,-0.71818 1.210746,-2.95418 2.777546,-3.7535 1.187475,-0.6058 2.358509,-0.68164 2.358509,-0.15275 0,0.20065 -0.908735,1.06386 -2.01941,1.91823 -3.007745,2.31368 -2.941494,2.27142 -3.116645,1.98802 z"
       id="path1" /></g></svg>
