<?xml version="1.0" encoding="UTF-8" standalone="no"?>
<!-- Created with Inkscape (http://www.inkscape.org/) -->

<svg
   width="350.96912mm"
   height="310.0643mm"
   viewBox="0 0 350.96912 310.0643"
   version="1.1"
   id="svg1"
   xml:space="preserve"
   sodipodi:docname="stamp_goal_cherry_blossom_5.svg"
   inkscape:version="1.4.4 (dcaf3e7, 2026-05-05)"
   xmlns:inkscape="http://www.inkscape.org/namespaces/inkscape"
   xmlns:sodipodi="http://sodipodi.sourceforge.net/DTD/sodipodi-0.dtd"
   xmlns="http://www.w3.org/2000/svg"
   xmlns:svg="http://www.w3.org/2000/svg"><sodipodi:namedview
     id="namedview1"
     pagecolor="#ffffff"
     bordercolor="#000000"
     borderopacity="0.25"
     inkscape:showpageshadow="2"
     inkscape:pageopacity="0.0"
     inkscape:pagecheckerboard="0"
     inkscape:deskcolor="#d1d1d1"
     inkscape:document-units="mm"
     inkscape:zoom="0.022186258"
     inkscape:cx="1036.6778"
     inkscape:cy="563.41183"
     inkscape:window-width="944"
     inkscape:window-height="250"
     inkscape:window-x="0"
     inkscape:window-y="33"
     inkscape:window-maximized="0"
     inkscape:current-layer="layer1"><inkscape:page
       x="0"
       y="2.4881296e-38"
       width="350.96912"
       height="310.0643"
       id="page2"
       margin="0"
       bleed="0" /></sodipodi:namedview><defs
     id="defs1" /><g
     inkscape:label="Layer 1"
     inkscape:groupmode="layer"
     id="layer1"
     transform="translate(64.362372,-12.30509)"><path
       style="fill:#000000"
       d="m 22.796434,322.11761 c -5.282272,-0.88659 -10.191753,-3.73964 -13.1817278,-7.66032 -1.3823411,-1.81263 -2.6496481,-4.29361 -7.9063607,-15.47812 -1.77826154,-3.78354 -6.8053193,-14.26104 -11.1712394,-23.28334 -4.3659201,-9.02229 -9.2195201,-19.08307 -10.7857771,-22.35729 -1.566258,-3.27422 -4.004332,-8.33437 -5.417943,-11.24479 -1.413612,-2.91042 -3.852372,-7.97057 -5.419467,-11.24479 -1.567095,-3.27422 -4.603076,-9.58453 -6.746624,-14.02292 -2.143548,-4.43838 -5.893066,-12.23698 -8.33226,-17.33021 -2.439195,-5.09323 -6.994246,-14.49916 -10.122334,-20.90208 -3.128089,-6.40292 -6.004499,-12.5888 -6.392022,-13.74641 -0.868059,-2.59306 -1.454588,-5.83143 -1.655433,-9.14005 -0.178773,-2.945 0.52588,-7.46544 1.657084,-10.63041 0.38083,-1.06551 3.400535,-7.23558 6.710455,-13.71125 3.309921,-6.47568 8.849418,-17.3699 12.309993,-24.20938 19.018884,-37.588908 43.11431297,-82.512375 46.6105914,-86.900689 2.7560822,-3.459265 7.2193436,-6.370884 11.4083186,-7.442243 1.952038,-0.499247 4.030278,-0.510109 96.871782,-0.506282 105.52008,0.0043 96.30054,-0.164243 100.4332,1.836561 3.66641,1.775074 6.95101,4.633667 8.98174,7.81682 0.46418,0.727604 1.68555,2.870729 2.71416,4.7625 1.9809,3.643187 9.32737,17.074498 13.09699,23.944791 2.94442,5.366319 10.57736,19.772701 16.54177,31.220834 4.75218,9.121383 9.07263,17.593827 20.77801,40.745838 10.22867,20.23123 10.70666,21.2137 11.3921,23.41562 1.0322,3.31589 1.60148,7.52544 1.3924,10.29623 -0.42778,5.66922 -1.38051,8.60017 -5.61643,17.27822 -4.34376,8.89901 -14.65528,30.23967 -23.11168,47.8318 -0.97931,2.03729 -4.37175,9.06198 -7.53876,15.61042 -3.16701,6.54843 -7.69512,15.95437 -10.06248,20.90208 -2.36735,4.94771 -5.31253,11.07943 -6.54485,13.62604 -6.43025,13.28826 -13.33879,27.71943 -16.77051,35.03174 -2.68922,5.73017 -4.00249,7.76093 -6.54904,10.12698 -3.27145,3.03957 -6.85073,4.76353 -11.12402,5.35789 -2.44396,0.33993 -174.425302,0.34597 -176.449636,0.006 z m 177.759096,-5.04336 c 5.20776,-1.64466 8.61705,-4.60078 11.10298,-9.62713 0.64809,-1.3104 3.61268,-7.50222 6.58799,-13.75962 2.9753,-6.2574 6.50527,-13.63927 7.84437,-16.40417 1.33911,-2.76489 3.77794,-7.82505 5.41963,-11.24479 1.64169,-3.41974 3.9049,-8.12271 5.02937,-10.45104 1.12447,-2.32833 2.37235,-4.94771 2.77307,-5.82083 0.40072,-0.87313 3.55524,-7.42157 7.01005,-14.55209 3.45481,-7.13052 8.81473,-18.26286 11.91093,-24.73854 6.08458,-12.72583 12.23851,-25.44329 17.98836,-37.17396 5.13657,-10.47947 5.756,-12.43262 5.74791,-18.12395 -0.005,-3.416 -0.36918,-5.70079 -1.3679,-8.57865 -0.86235,-2.4849 -27.38968,-54.743289 -35.33317,-69.60573 -1.6333,-3.055937 -3.9824,-7.46125 -5.22024,-9.789583 -6.85299,-12.890313 -22.15524,-40.766601 -23.41946,-42.663513 -2.11953,-3.180258 -6.2422,-6.043354 -9.98642,-6.935318 -1.00661,-0.239799 -23.64103,-0.311108 -95.45327,-0.300722 -85.258397,0.01233 -94.287239,0.05338 -95.761429,0.43538 -3.39029,0.878513 -6.9936608,3.226223 -9.0291965,5.882808 -1.4480767,1.88989 -5.9973968,9.986869 -16.3845463,29.161573 -12.3563202,22.809798 -18.5906742,34.692951 -31.0935472,59.266665 -2.184169,4.29287 -6.836965,13.41247 -10.339546,20.26578 -3.502581,6.85332 -6.59703,13.04457 -6.876552,13.75833 -1.861443,4.75326 -2.025389,10.89089 -0.437299,16.37106 0.708276,2.44411 1.780369,4.75413 10.441251,22.49754 1.633721,3.34698 4.1343,8.5262 5.556841,11.50938 4.998668,10.48258 12.167055,25.3901 18.066197,37.57083 3.277131,6.76672 7.922902,16.41078 10.323936,21.43125 2.401034,5.02047 7.1302235,14.84312 10.509311,21.82812 3.37908751,6.985 7.9232709,16.45047 10.0981854,21.03438 4.5306106,9.54883 5.4138276,11.23538 6.8969776,13.17018 2.123825,2.77057 6.351616,5.23172 10.052261,5.85178 0.789327,0.13225 39.255622,0.21601 88.706176,0.19316 78.78479,-0.0364 87.44184,-0.0812 88.63678,-0.45858 z"
       id="path24" /><path
       style="fill:#000000"
       d="m 24.668287,310.46524 c -2.310927,-0.54444 -5.271755,-2.53629 -6.803888,-4.5772 -1.40255,-1.86829 -2.632973,-4.36288 -20.1119488,-40.77554 -4.3309233,-9.02229 -10.1376472,-21.10714 -12.9038302,-26.85521 -2.766184,-5.74807 -7.829276,-16.2851 -11.251317,-23.41562 -7.364538,-15.34552 -12.772489,-26.53399 -19.886338,-41.14271 -5.971931,-12.26372 -6.561846,-13.91807 -6.557072,-18.38854 0.0053,-4.96861 0.276461,-5.67684 8.044742,-21.01205 C -30.051341,105.18063 -18.40932,82.833234 -8.4698412,64.558333 -7.1243444,62.084479 -4.3473128,56.948126 -2.29866,53.144214 3.7887515,41.841189 9.3287436,31.845589 10.365475,30.294792 c 1.090441,-1.63114 3.232953,-3.615722 4.812126,-4.457413 3.30902,-1.763689 -4.698687,-1.628004 96.079689,-1.628004 100.26158,0 92.83495,-0.118522 95.87429,1.530061 2.31186,1.253986 3.8842,2.939134 5.64347,6.048362 7.06145,12.479955 27.21089,49.802628 33.54723,62.139285 1.71907,3.34698 4.67755,9.061977 6.57439,12.699997 3.63373,6.96924 14.69168,28.70624 18.70908,36.77709 1.4904,2.99417 2.56703,5.53957 2.89962,6.85534 0.99329,3.92964 0.58423,9.25401 -1.01939,13.26851 -0.28724,0.71907 -2.73526,5.81268 -5.44005,11.31913 -2.70479,5.50645 -4.91781,10.0465 -4.91781,10.089 0,0.0425 -1.23558,2.62144 -2.74574,5.73098 -4.35717,8.97177 -17.53899,36.26168 -20.87871,43.22454 -1.67517,3.4925 -4.02353,8.37406 -5.21858,10.84791 -2.20457,4.56362 -9.07192,18.89663 -19.96618,41.67188 -8.5705,17.91724 -8.88001,18.50149 -10.8393,20.46078 -1.73455,1.73456 -4.11183,3.10527 -6.23274,3.59374 -1.50491,0.34659 -171.107384,0.34588 -172.578583,-7.4e-4 z m 18.326505,-3.65176 c 0,-0.12951 0.53691,-0.96482 1.193133,-1.85623 l 1.193132,-1.62076 -1.643776,-1.06242 c -3.304001,-2.13548 -6.955682,-2.43189 -10.356151,-0.84062 -1.984426,0.92863 -4.253829,2.92491 -5.161977,4.54074 l -0.604053,1.07477 h 7.689846 c 4.316498,0 7.689846,-0.1033 7.689846,-0.23548 z m 13.972286,-0.54655 c 1.365279,-1.09319 5.114188,-2.78297 7.373989,-3.32375 2.920228,-0.69882 8.197441,-0.4512 11.197475,0.52542 2.48994,0.81056 4.978479,1.98135 6.2662,2.94807 0.798138,0.59918 1.044065,0.63229 4.696355,0.63229 2.22268,0 3.854111,-0.10504 3.854111,-0.24813 0,-0.47371 -3.451397,-3.33192 -5.821443,-4.82091 -8.893057,-5.58712 -19.226009,-6.1297 -28.125958,-1.4769 -2.715001,1.41937 -6.425766,4.2186 -7.537631,5.68604 l -0.651535,0.8599 h 3.885882 3.885882 z m 54.640282,-0.60703 c 0.49251,-0.76399 1.15102,-1.61588 1.46333,-1.89309 0.31232,-0.27722 0.56785,-0.60154 0.56785,-0.72072 0,-0.11917 -0.85774,-0.81905 -1.90609,-1.55528 -5.28943,-3.71462 -11.745664,-3.28051 -16.691901,1.12235 l -1.267785,1.12851 1.345942,1.65364 1.345943,1.65365 h 7.123611 7.1236 z m 13.311,0.57121 c 2.71247,-1.86623 6.78067,-3.25059 10.81289,-3.67949 4.67909,-0.49772 10.07637,0.72297 14.22725,3.21772 l 2.12909,1.27962 h 3.85042 3.85043 l -1.31297,-1.33667 c -1.51974,-1.54717 -5.07369,-4.04487 -7.47181,-5.25116 -10.90306,-5.4844 -24.45036,-3.60033 -33.04947,4.59632 l -2.06669,1.96996 3.92108,0.0108 3.92108,0.0108 z m 58.84586,0.30942 c -0.45383,-0.848 -2.15133,-2.10845 -4.23163,-3.14213 -1.91735,-0.95271 -2.05198,-0.97956 -4.89479,-0.97645 -2.76951,0.003 -3.01811,0.0494 -4.728,0.88241 -1.77739,0.86586 -4.14834,2.82891 -4.14834,3.43466 0,0.23088 2.33079,0.30994 9.13743,0.30994 8.93122,0 9.13129,-0.0115 8.86533,-0.50843 z m 10.16771,-0.48376 c -1.87306,-4.51478 -6.57984,-8.94741 -11.81499,-11.1268 -2.54972,-1.06146 -6.58495,-1.73434 -8.93295,-1.48959 -4.94551,0.5155 -9.78435,2.76085 -12.92187,5.9961 l -1.13371,1.16903 1.84775,1.64218 c 1.70335,1.51384 1.86913,1.60222 2.12139,1.13087 0.41816,-0.78134 3.39887,-2.93016 5.17745,-3.73247 3.20634,-1.44637 6.92053,-1.78804 10.18646,-0.93705 3.95916,1.03161 8.23264,4.12379 9.78913,7.08315 l 0.661,1.25677 h 2.71599 2.71598 z M 24.541587,304.297 c 1.205719,-2.09636 3.069646,-4.03693 5.200042,-5.41387 2.334808,-1.50906 4.463175,-2.17883 7.43233,-2.33885 3.824181,-0.20611 6.570591,0.65325 9.769599,3.05694 l 1.429685,1.07425 1.742545,-1.3626 c 0.9584,-0.74943 1.793397,-1.40023 1.855549,-1.44622 0.248952,-0.18423 -1.535081,-1.80182 -3.155712,-2.86128 -9.213593,-6.02328 -20.790842,-3.67005 -27.765911,5.6438 l -1.305812,1.74365 0.783233,1.0713 c 0.711071,0.9726 2.481946,2.52651 2.879268,2.52651 0.0886,0 0.599436,-0.76214 1.135184,-1.69363 z m 175.783973,0.71179 c 0.45635,-0.34235 1.15709,-1.09483 1.55719,-1.67218 l 0.72746,-1.04972 -1.26519,-2.18303 c -5.86989,-10.12825 -15.7582,-16.07365 -26.73345,-16.07365 -7.87977,0 -14.92191,2.94041 -20.6862,8.63741 -1.4938,1.47636 -2.716,2.80417 -2.716,2.95068 0,0.14652 0.37226,0.39616 0.82724,0.55477 0.45498,0.15861 1.4186,0.65224 2.14137,1.09697 l 1.31413,0.80859 2.15811,-2.06497 c 3.27702,-3.13557 5.93312,-4.74577 9.88086,-5.99001 4.87814,-1.53749 9.46408,-1.45822 14.61923,0.2527 7.05434,2.34124 12.55261,7.17454 15.90259,13.97931 0.52049,1.05727 0.96387,1.65699 1.14595,1.55004 0.16334,-0.096 0.67036,-0.45456 1.12671,-0.79691 z M 92.211222,299.70677 c 1.875589,-1.74394 4.06264,-3.0258 6.654715,-3.9004 1.915173,-0.64622 2.604703,-0.74344 5.247603,-0.73994 2.55103,0.003 3.38475,0.11524 5.15938,0.69223 2.39074,0.77732 4.8408,2.15466 6.22886,3.50166 0.51546,0.50021 1.01424,0.90947 1.1084,0.90947 0.0942,0 1.07079,-0.64542 2.17027,-1.43426 l 1.99907,-1.43427 -1.58193,-1.43156 c -2.06463,-1.86838 -5.33623,-3.70418 -8.46946,-4.75248 -2.35138,-0.78671 -2.76107,-0.8418 -6.35,-0.85388 -2.85999,-0.01 -4.26083,0.1041 -5.50374,0.44686 -4.021396,1.10899 -7.815434,3.18254 -10.85703,5.93366 l -1.411807,1.27697 2.073265,1.49919 c 1.140296,0.82455 2.097452,1.50916 2.127013,1.52135 0.02956,0.0122 0.661987,-0.54338 1.405391,-1.2346 z m -70.883085,-5.76986 c 2.192528,-2.07847 3.693116,-3.08652 6.670544,-4.48108 3.746562,-1.7548 5.453155,-2.10785 10.101319,-2.0897 3.519963,0.0137 4.231937,0.0956 6.29618,0.72345 3.907761,1.18866 7.697206,3.37076 10.570085,6.08663 l 1.520432,1.43734 1.522276,-0.62612 c 0.837253,-0.34437 1.90923,-0.70168 2.382173,-0.79403 0.472943,-0.0924 0.859896,-0.30074 0.859896,-0.46309 0,-0.49459 -4.78501,-5.03307 -6.59224,-6.25261 -5.603554,-3.78133 -11.618323,-5.50765 -18.206456,-5.22552 -7.267348,0.31122 -14.129984,3.42062 -19.819477,8.98003 l -1.623381,1.58626 1.053968,2.2866 c 1.468858,3.1867 1.409363,3.14787 2.578125,1.68288 0.547768,-0.6866 1.756719,-1.96957 2.686556,-2.85104 z m 185.799453,-0.39782 c 1.11405,-2.33719 2.02553,-4.34557 2.02553,-4.46305 0,-0.11748 -0.74007,-0.42126 -1.64461,-0.67506 -2.57641,-0.7229 -5.20103,-0.23929 -7.27131,1.33979 l -0.87462,0.6671 1.52473,1.77211 c 0.8386,0.97466 2.0592,2.63045 2.71246,3.67954 0.65325,1.04908 1.25851,1.91229 1.34501,1.91822 0.0865,0.006 1.06877,-1.90145 2.18281,-4.23865 z m -122.517619,0.17824 c 8.236525,-7.99949 20.009769,-10.21045 30.623619,-5.75099 2.32064,0.97503 6.56761,3.76483 8.60492,5.65249 l 1.60101,1.48341 2.69847,-0.82677 c 1.48416,-0.45472 2.69847,-0.90388 2.69847,-0.99813 0,-0.41139 -5.34265,-5.27164 -7.17365,-6.52593 -3.92911,-2.69156 -8.24518,-4.54243 -12.93468,-5.54682 -1.7344,-0.37147 -3.33862,-0.47656 -7.01146,-0.45933 -4.451241,0.0209 -4.967985,0.0765 -7.906507,0.8506 -3.815205,1.00507 -8.592623,3.25863 -11.830422,5.58053 -2.145449,1.53855 -6.856845,6.03825 -6.851014,6.54319 0.0023,0.20166 4.389595,1.8266 5.180443,1.91871 0.158585,0.0185 1.193946,-0.84596 2.300801,-1.92096 z m 63.300849,-0.75743 c 0.40729,-0.61847 1.50804,-1.92177 2.44613,-2.89624 l 1.70561,-1.77175 -0.88962,-0.54755 c -1.05894,-0.65177 -3.21392,-1.3329 -4.21705,-1.3329 -1.33061,0 -4.07158,1.04252 -5.40381,2.05532 -1.20612,0.91694 -3.04271,3.43866 -3.04271,4.1778 0,0.18899 0.82311,0.37169 2.18282,0.4845 1.20054,0.0996 2.89718,0.3431 3.77031,0.54109 2.49384,0.5655 2.62611,0.53826 3.44832,-0.71027 z m -73.972808,-2.26654 c 1.054897,-1.27337 1.348653,-1.814 1.233954,-2.271 -0.284085,-1.13189 -2.245751,-3.01957 -4.073011,-3.91941 -1.577732,-0.77695 -2.00619,-0.86962 -4.020968,-0.86962 -1.92125,0 -2.496745,0.11166 -3.887665,0.75429 -0.897927,0.41486 -1.901126,1.04013 -2.229331,1.38949 l -0.596736,0.6352 2.222711,2.31468 c 1.222492,1.27307 2.24932,2.35815 2.281841,2.41128 0.03252,0.0531 0.683956,-0.21475 1.447632,-0.59531 0.763676,-0.38055 1.752078,-0.69147 2.196448,-0.69093 1.006239,10e-4 2.300889,0.77194 3.090287,1.83966 0.330979,0.44767 0.680207,0.78221 0.776063,0.74342 0.09586,-0.0388 0.797305,-0.82258 1.558775,-1.74175 z m 61.668308,-1.29297 c 3.73413,-6.61653 12.01923,-8.74434 18.16477,-4.66516 0.76981,0.51097 1.49061,0.88879 1.60178,0.83961 0.97237,-0.43019 3.774,-2.1663 3.774,-2.33867 0,-0.12063 -0.55914,-0.7115 -1.24254,-1.31305 -1.46374,-1.28844 -4.85216,-3.00742 -7.09183,-3.59776 -2.02447,-0.53361 -5.87817,-0.53259 -7.9375,0.002 -3.98576,1.03487 -8.38251,4.1243 -10.579,7.43347 l -0.96988,1.46118 1.6345,1.84363 c 0.89898,1.014 1.6704,1.84364 1.71429,1.84364 0.0439,0 0.46301,-0.67905 0.93141,-1.50899 z M 13.783473,287.96252 c 0.277215,-0.31108 1.456528,-1.33754 2.620694,-2.28101 1.164167,-0.94347 2.116667,-1.83229 2.116667,-1.97515 0,-0.45031 -1.223138,-1.88694 -2.486977,-2.92107 -2.028096,-1.65948 -4.990343,-2.44673 -7.0889459,-1.88397 l -0.5800894,0.15556 0.6178882,1.36219 c 1.8084681,3.98691 3.8798381,8.10906 4.0747871,8.10906 0.122071,0 0.44876,-0.25453 0.725976,-0.56561 z m 186.248617,-2.65155 c 0.92198,-0.43145 2.52296,-0.88746 3.7167,-1.05863 2.09325,-0.30015 3.26997,-0.12908 6.64443,0.966 0.51249,0.16631 0.68843,-0.0302 1.53886,-1.71895 0.52812,-1.04871 0.89933,-2.06543 0.8249,-2.25938 -0.22008,-0.5735 -4.3377,-1.74576 -6.67502,-1.90033 -4.0873,-0.2703 -8.90473,1.44859 -11.91639,4.25184 l -1.47082,1.36903 1.92532,1.37381 1.92533,1.37382 0.93352,-0.81964 c 0.51343,-0.45081 1.66236,-1.16071 2.55317,-1.57757 z m -119.62638,-0.99527 1.720193,-1.30201 -0.744095,-1.02719 c -1.765248,-2.43686 -5.035061,-4.68927 -8.68457,-5.98239 -2.112467,-0.7485 -2.611415,-0.82206 -5.625363,-0.8294 -2.948139,-0.007 -3.561711,0.0753 -5.650139,0.75983 -3.082407,1.01027 -8.108194,4.29753 -8.108194,5.3034 0,0.28701 3.41631,2.52769 3.853913,2.52769 0.09126,0 0.705217,-0.47471 1.364348,-1.0549 1.537816,-1.35364 3.568379,-2.30744 6.06641,-2.84953 4.216757,-0.91507 8.744014,0.55035 11.956111,3.87005 0.969289,1.00176 1.845334,1.83603 1.946769,1.85392 0.101434,0.0179 0.958512,-0.55337 1.904617,-1.26947 z m 48.64134,-1.27768 c 3.18023,-4.41118 7.66207,-7.58574 12.65263,-8.96204 2.60392,-0.71811 7.94193,-0.66306 10.64719,0.1098 3.64954,1.04264 6.42095,2.662 9.45636,5.52545 l 1.79968,1.69774 2.53448,-0.60337 c 1.39397,-0.33186 2.53448,-0.67248 2.53448,-0.75695 0,-0.0845 -0.71043,-0.99758 -1.57873,-2.02913 -3.39554,-4.0339 -8.6696,-7.33679 -13.89939,-8.70452 -3.26116,-0.85288 -8.32315,-0.97452 -11.44125,-0.27492 -4.9812,1.1176 -9.5644,3.61602 -13.18032,7.18492 -2.35596,2.32532 -4.59631,5.26615 -4.26455,5.59791 0.30953,0.30953 3.48502,2.44097 3.65974,2.45648 0.0955,0.008 0.58135,-0.55015 1.07968,-1.24137 z m 61.06713,-1.54559 c 2.50646,-2.58144 6.54099,-4.93767 10.23057,-5.9748 3.8317,-1.07708 8.95264,-0.71025 12.9907,0.93056 l 1.55566,0.63212 1.081,-2.17967 1.08101,-2.17967 -0.70885,-0.33014 c -0.38987,-0.18158 -1.52918,-0.61214 -2.53181,-0.95679 -9.55384,-3.28419 -19.8206,-0.70833 -27.21473,6.82797 -1.27349,1.29798 -2.31544,2.45226 -2.31544,2.56507 0,0.19137 3.76883,1.78482 4.37668,1.85045 0.15161,0.0164 0.80645,-0.51692 1.45521,-1.1851 z M 23.871533,280.9246 c 0.905593,-0.40197 1.649734,-0.88927 1.653646,-1.08289 0.01388,-0.68718 -1.891133,-3.19641 -3.812012,-5.02106 -3.450176,-3.27733 -8.085522,-5.04281 -12.3482542,-4.70313 -1.5846305,0.12627 -4.2249099,0.73553 -4.6720222,1.07809 -0.038285,0.0293 0.3516362,0.9777 0.8664925,2.10747 0.8388218,1.84068 0.9972825,2.03596 1.5248183,1.87912 0.3237937,-0.0963 1.5568174,-0.24434 2.7400526,-0.32905 3.870879,-0.27713 7.441975,1.31576 10.482605,4.67576 0.836697,0.92458 1.521267,1.77983 1.521267,1.90055 0,0.34586 0.286052,0.27519 2.043407,-0.50486 z m 64.18592,-1.23055 c 1.13434,-0.49312 2.112985,-0.94713 2.174766,-1.00891 0.06178,-0.0618 -0.67387,-1.09496 -1.634781,-2.29595 -5.856795,-7.32009 -15.544699,-11.44585 -24.359773,-10.37405 -6.337055,0.77052 -12.248225,3.53295 -16.48486,7.70379 -1.757061,1.72978 -3.87979,4.56736 -3.503185,4.68293 0.110209,0.0338 1.176077,0.34177 2.368596,0.68432 l 2.168215,0.62283 1.606405,-1.79421 c 2.570826,-2.8714 6.854748,-5.48346 10.57363,-6.44712 8.414268,-2.18036 16.789633,0.25602 22.723848,6.61032 1.046317,1.12039 1.902394,2.14407 1.902394,2.27485 0,0.36965 0.256945,0.30097 2.464745,-0.6588 z m 92.941237,-1.28231 c 2.2373,-2.84085 2.12432,-2.58694 1.40498,-3.15733 -0.34921,-0.27689 -1.23023,-0.82435 -1.95784,-1.21656 -1.15377,-0.62194 -1.62738,-0.71376 -3.70416,-0.71819 -2.47878,-0.005 -3.86277,0.42989 -5.52471,1.73717 l -0.65942,0.51871 1.58308,2.1009 1.58307,2.10091 2.43503,0.0871 c 1.33927,0.0479 2.68382,0.11185 2.98789,0.14206 0.39533,0.0393 0.92303,-0.41513 1.85208,-1.59481 z m -60.22472,0.87151 c 0.15119,-0.28249 1.16453,-1.65171 2.25186,-3.04271 l 1.97698,-2.52908 h -16.53005 c -9.091528,0 -16.530052,0.0585 -16.530052,0.13 0,0.0715 0.386954,0.64008 0.859896,1.26351 0.472943,0.62342 1.03849,1.40377 1.256771,1.73411 0.395885,0.59912 0.401711,0.59959 2.33598,0.19095 3.275426,-0.69198 7.599395,-0.95935 10.784345,-0.66686 3.3697,0.30946 8.5386,1.52833 11.12628,2.62368 2.21179,0.93623 2.13077,0.9265 2.46799,0.2964 z m -89.041092,-0.94656 c 1.15475,-0.22096 2.146964,-0.44917 2.204921,-0.50713 0.216743,-0.21674 -1.055214,-2.69116 -2.498028,-4.85958 -5.806874,-8.72719 -15.768956,-13.27411 -25.4029848,-11.59449 -1.9925046,0.34738 -4.9580981,1.24776 -5.32859699,1.61781 -0.12118527,0.12104 1.73973349,4.10358 1.91747669,4.10358 0.080605,0 1.0706183,-0.26721 2.2000284,-0.59379 1.6878147,-0.48805 2.6895104,-0.59199 5.6253477,-0.58372 3.203142,0.009 3.790384,0.0858 5.688542,0.7436 4.35169,1.50811 8.144196,4.20757 10.727256,7.63555 0.901873,1.19688 1.887241,2.68551 2.189708,3.30808 0.302466,0.62257 0.555979,1.13192 0.563362,1.1319 0.0074,-3e-5 0.958219,-0.18084 2.112968,-0.40181 z m 8.086914,-0.75483 c 0,-0.56176 2.517894,-4.28546 3.888691,-5.75095 l 1.229233,-1.31415 -1.169899,-1.19306 c -1.825446,-1.86158 -3.63096,-2.62467 -6.196983,-2.61912 -1.703911,0.004 -2.348842,0.12612 -3.307292,0.62783 -0.654844,0.3428 -1.230552,0.65847 -1.279352,0.70151 -0.0488,0.043 0.526807,0.99044 1.279127,2.10533 1.185821,1.75731 2.663341,4.61253 3.662696,7.07794 0.230292,0.56813 0.470148,0.7276 1.094357,0.7276 0.500975,0 0.799422,-0.13549 0.799422,-0.36293 z m 148.290148,-6.14252 1.81986,-1.27217 -1.56698,-1.42412 c -3.20117,-2.90932 -8.5998,-4.81136 -12.67783,-4.46664 -2.3686,0.20022 -5.0975,1.02495 -7.14975,2.16079 -1.68423,0.93217 -4.17215,2.96788 -4.0418,3.30718 0.0426,0.11081 0.81423,0.81481 1.71482,1.56445 l 1.63742,1.36299 1.73819,-1.19002 c 4.08806,-2.79879 8.89604,-3.02485 13.41864,-0.63092 0.82409,0.43621 1.77087,1.0832 2.10397,1.43777 0.33309,0.35456 0.73567,0.59475 0.89461,0.53376 0.15895,-0.061 1.10793,-0.68337 2.10885,-1.38307 z M 97.366667,260.21771 v -9.12813 l -9.194271,-0.0696 -9.194271,-0.0696 v 6.58592 6.58591 l 0.859896,0.34891 c 1.426865,0.57897 5.007679,2.76346 6.416146,3.91419 l 1.322916,1.08084 4.894792,-0.0602 4.894792,-0.0602 z m 7.540623,3.6598 0.13229,-5.46833 0.80359,-1.14234 c 1.45772,-2.07226 3.5937,-3.04694 6.11196,-2.78899 1.61709,0.16564 2.6457,0.65744 3.8098,1.82153 1.50403,1.50404 1.65986,2.19803 1.78809,7.96342 l 0.11646,5.23572 2.15172,-0.0763 2.15172,-0.0764 0.0696,-9.19427 0.0696,-9.19427 h -10.85135 -10.85134 v 9.27112 9.27112 l 2.18281,-0.0768 2.18281,-0.0769 z m 27.44419,4.27314 c 3.15864,-1.81114 6.59247,-3.01392 10.19279,-3.57027 l 0.99219,-0.15332 v -6.73488 -6.73489 h -9.26042 -9.26042 v 9.26042 9.26042 h 2.51036 2.51036 z m 88.99712,-4.39776 c 1.30428,-2.71232 2.32013,-4.98277 2.25745,-5.04545 -0.30659,-0.30659 -4.44812,1.77138 -6.27677,3.1493 -1.99644,1.50436 -4.861,4.41015 -4.60246,4.6687 0.0692,0.0692 1.11093,0.44266 2.31484,0.82982 1.20392,0.38716 2.42534,0.84097 2.71427,1.00847 0.28892,0.16751 0.6819,0.30817 0.87329,0.3126 0.19359,0.004 1.40002,-2.17977 2.71938,-4.92344 z m -22.83806,2.16073 c -0.48774,-0.93614 -4.50555,-4.74881 -6.25831,-5.93877 -2.26486,-1.53763 -6.12746,-3.33997 -8.66998,-4.04554 -2.80773,-0.77916 -10.14971,-0.86188 -12.74796,-0.14362 -4.06997,1.1251 -7.45102,2.86141 -10.76812,5.52988 -1.77469,1.42767 -3.82971,3.67718 -3.82971,4.19216 0,0.10276 0.80367,0.52186 1.78594,0.93132 0.98226,0.40946 1.91985,0.84624 2.08352,0.97063 0.19143,0.14547 0.85818,-0.32239 1.86901,-1.31148 4.41019,-4.31537 9.76991,-6.35514 15.95736,-6.07294 5.55149,0.25319 10.42276,2.44795 14.36604,6.47264 l 1.53376,1.56542 2.47899,-0.80659 c 2.30949,-0.75143 2.45988,-0.84327 2.19946,-1.34311 z m -148.784154,0.88912 c 0.95429,-0.59834 1.735073,-1.19149 1.735073,-1.31811 0,-0.12661 -0.922735,-1.15923 -2.050521,-2.29469 -3.383643,-3.40669 -7.496118,-5.17935 -11.974241,-5.16144 -2.800387,0.0112 -5.068629,0.56616 -7.81619,1.91237 -1.873176,0.91779 -3.325869,1.98478 -3.006211,2.20803 0.05974,0.0417 0.848883,0.70425 1.753648,1.4723 l 1.645028,1.39643 1.926847,-0.94081 c 4.998336,-2.4405 10.253822,-1.61874 14.311027,2.23772 0.901306,0.85671 1.661627,1.5618 1.689603,1.56687 0.02798,0.005 0.831648,-0.48033 1.785937,-1.07867 z M 208.96884,264.3849 c 0.6518,-0.90951 1.64452,-2.11203 2.20604,-2.67227 l 1.02095,-1.01861 -0.9681,-0.84069 c -2.09372,-1.81816 -4.85627,-2.59891 -7.69145,-2.17375 -1.18203,0.17726 -4.43732,1.89885 -4.43732,2.34673 0,0.13225 0.66117,0.97108 1.46926,1.86405 0.8081,0.89298 1.78821,2.12773 2.17802,2.74389 l 0.70875,1.12029 2.12146,0.0881 c 1.16681,0.0485 2.14078,0.11238 2.16439,0.142 0.0236,0.0296 0.57621,-0.69029 1.228,-1.59979 z m -56.30035,-1.19063 c 1.40023,-2.11992 4.63168,-5.26998 7.11705,-6.93778 4.84751,-3.2529 9.9032,-4.9785 15.3194,-5.22879 l 3.12576,-0.14444 1.33199,-1.97391 c 3.27304,-4.85044 7.99206,-8.71247 13.55535,-11.09366 6.69409,-2.86519 14.61745,-3.23857 21.443,-1.01049 4.54781,1.48456 9.93105,4.87058 13.1978,8.30135 1.48109,1.55545 2.03178,1.92125 2.03178,1.34962 0,-0.14728 2.30977,-5.05861 5.13282,-10.91406 2.82305,-5.85545 6.79738,-14.09909 8.83184,-18.31919 8.98484,-18.63737 11.39259,-23.61167 18.24973,-37.70313 8.7874,-18.05817 8.97692,-18.47931 9.46589,-21.03492 0.92324,-4.82536 0.47077,-6.71387 -3.56566,-14.88227 l -3.17055,-6.41614 h -11.75997 -11.75997 l -0.68498,0.81405 c -0.37708,0.44813 -0.68498,1.14435 -0.68498,1.54886 0,0.78804 1.052,2.13501 1.66746,2.13501 0.71488,0 2.55777,1.59253 3.1342,2.70843 0.8605,1.66582 0.8378,4.16217 -0.0536,5.8948 -0.76069,1.47856 -2.42133,2.88172 -3.89484,3.29095 -0.64556,0.17929 -9.31014,0.27421 -25.1188,0.27517 -23.69789,10e-4 -24.15951,-0.008 -25.58564,-0.54191 -3.97931,-1.48885 -6.48526,-6.03624 -5.70317,-10.34918 0.41372,-2.28152 1.29695,-3.87744 3.0148,-5.44746 2.35236,-2.14992 2.44112,-2.16384 14.04273,-2.20106 5.52979,-0.0178 10.1323,-0.0801 10.22781,-0.13859 0.0955,-0.0585 -0.56047,-0.85033 -1.45772,-1.75968 -1.9895,-2.01631 -2.67932,-3.67133 -2.67417,-6.41585 0.005,-2.80216 0.6751,-4.43673 2.61185,-6.37348 2.62335,-2.62335 1.12118,-2.46559 24.27707,-2.54966 11.01114,-0.04 20.09677,-0.14926 20.1903,-0.24285 0.33345,-0.33369 -9.73216,-19.744314 -24.81406,-47.851718 -2.61581,-4.874948 -6.39212,-11.840104 -8.39181,-15.478125 -1.99968,-3.638021 -5.62092,-10.24599 -8.0472,-14.684375 -2.61346,-4.780803 -4.80968,-8.480193 -5.38861,-9.076742 -0.53747,-0.553823 -1.74859,-1.387261 -2.69138,-1.852084 l -1.71417,-0.845133 -45.31552,-0.06912 -45.31552,-0.06912 v 5.496767 5.496766 l 1.06678,0.657773 c 1.15489,0.712104 2.3728,2.745186 2.3728,3.96095 0,1.063241 -1.09931,2.989957 -2.04032,3.575988 -0.72297,0.450238 -0.85109,0.687025 -0.85896,1.5875 -0.009,1.018997 0.0423,1.082919 1.37887,1.719792 2.3164,1.103795 2.36899,2.957574 0.11526,4.0626 -0.99819,0.489421 -1.00064,0.49465 -0.92233,1.968651 0.0752,1.415525 0.11413,1.487106 0.92178,1.695339 0.91205,0.235152 1.93487,1.325703 1.93487,2.062993 0,0.672944 -0.92403,1.732255 -1.84311,2.112953 -0.75197,0.311472 -0.80272,0.421698 -0.80272,1.743224 0,1.409 10e-4,1.411348 1.14378,1.916676 2.072,0.916544 2.24148,3.017347 0.31744,3.934857 -0.90206,0.430162 -0.93197,0.491845 -0.92936,1.916815 0.003,1.464862 0.008,1.474597 1.05426,1.913984 1.8162,0.762758 2.0987,2.714333 0.52272,3.611019 -0.88206,0.501868 -0.8958,0.568342 -0.49942,2.416616 l 0.28651,1.33594 h 1.51266 c 0.83196,0 1.65553,0.142875 1.83016,0.3175 0.19183,0.191833 0.3175,1.121918 0.3175,2.34988 v 2.032379 l 5.09323,3.837664 c 9.7381,7.337498 16.85089,11.511901 24.49104,14.373471 3.42972,1.28458 7.66711,2.21826 10.10323,2.22617 1.0914,0.004 2.14932,0.11091 2.35091,0.23858 1.44068,0.9124 -3.22226,6.31288 -7.26819,8.4178 -4.01189,2.08722 -8.52227,2.76783 -13.93428,2.10268 l -1.78594,-0.2195 v 2.26392 c 0,2.12288 -0.0412,2.29092 -0.66146,2.69732 l -0.66146,0.43341 v 4.58908 4.58907 l 2.18281,0.0768 2.18282,0.0769 v 3.175 c 0,3.03881 -0.0255,3.1862 -0.59532,3.43617 -0.32742,0.14365 -0.59531,0.34048 -0.59531,0.43741 0,0.34169 4.92211,4.1632 7.09061,5.50511 5.1324,3.17604 10.15466,4.73434 16.01711,4.96975 3.98526,0.16003 4.27153,0.28771 3.58421,1.59866 -0.54231,1.03437 -3.34788,3.96538 -4.88031,5.09853 -2.6928,1.99117 -6.75199,3.67206 -10.16995,4.21132 -2.28978,0.36127 -5.7488,0.32414 -8.26823,-0.0887 l -2.05052,-0.33604 v 2.31642 c 0,2.27181 -0.0153,2.3273 -0.79375,2.88162 l -0.79375,0.56519 v 4.46878 4.46877 l 2.05052,0.0773 2.05052,0.0773 0.0745,3.26374 c 0.0705,3.09004 0.0459,3.27122 -0.46302,3.40429 -0.29562,0.0773 -0.53749,0.23795 -0.53749,0.35698 0,0.3964 5.03824,4.20221 7.49711,5.66321 2.88546,1.71446 5.72162,2.88097 9.06926,3.73016 2.551,0.64712 8.07243,1.25674 9.05508,0.99977 0.90261,-0.23604 1.89521,0.12382 1.89521,0.68709 0,0.2752 -0.47825,1.10541 -1.06279,1.8449 -2.42205,3.06412 -6.86552,5.89944 -11.52122,7.35153 -2.28963,0.71412 -2.5482,0.73724 -8.11963,0.72584 l -5.75469,-0.0118 v 2.32335 c 0,2.3139 -0.003,2.32502 -0.79375,2.73381 l -0.79375,0.41047 v 4.74457 4.74458 l 2.05052,0.0773 2.05052,0.0773 v 3.175 c 0,3.03882 -0.0255,3.1862 -0.59531,3.43618 -0.32742,0.14365 -0.59531,0.34146 -0.59531,0.43958 0,0.3844 3.68379,3.52726 5.68854,4.85325 5.40032,3.57187 11.24692,5.4262 17.10859,5.4262 2.9148,0 3.12949,0.27427 1.6146,2.0627 -2.27005,2.67995 -6.48702,5.27492 -10.45231,6.43198 -1.53066,0.44664 -2.90243,0.58793 -6.75264,0.69551 l -4.83176,0.13501 0.0693,10.08792 0.0693,10.08792 1.19062,0.1587 c 0.65485,0.0873 1.38213,0.17658 1.61619,0.19844 0.2494,0.0233 0.84153,-0.59003 1.43043,-1.48162 z M 57.660396,263.073 c 1.02897,-0.32136 1.911917,-0.61047 1.962105,-0.64247 0.288208,-0.18373 -2.589607,-4.04118 -4.264198,-5.71578 -3.401916,-3.40191 -7.443303,-5.75186 -12.261904,-7.12995 -2.762374,-0.79001 -8.180796,-0.84652 -11.317608,-0.11802 -4.54209,1.05487 -8.746038,3.28689 -11.910369,6.32364 l -2.141338,2.055 2.308153,0.93321 2.308153,0.93321 1.359744,-1.07482 c 3.088084,-2.44099 6.559117,-4.00383 10.366953,-4.66776 7.391443,-1.28874 15.144932,1.89153 20.021296,8.2122 0.626227,0.81171 1.264496,1.47583 1.418376,1.47583 0.15388,0 1.121666,-0.26293 2.150637,-0.58429 z m 16.381628,-4.74944 c 0.09548,-2.20595 0.173601,-6.3001 0.173601,-9.09812 v -5.08729 l -4.564062,-0.13041 c -5.254767,-0.15014 -6.773988,-0.46923 -10.469675,-2.19904 -2.768409,-1.29578 -5.443424,-3.29123 -6.808224,-5.07866 -1.20173,-1.57386 -0.942115,-1.91233 1.466784,-1.91233 5.1825,0 11.96393,-2.21338 16.887467,-5.51188 2.259317,-1.51361 5.86896,-4.46079 5.86896,-4.79185 0,-0.13354 -0.26789,-0.28085 -0.595312,-0.32735 -0.581102,-0.0825 -0.595313,-0.16349 -0.595313,-3.39184 v -3.30729 l 1.984375,-0.13229 1.984375,-0.13229 0.08029,-4.68225 0.08029,-4.68224 -0.807894,-0.41778 c -0.807683,-0.41767 -0.807893,-0.41838 -0.807893,-2.73949 v -2.3217 l -5.225521,0.005 c -4.587154,0.004 -5.47861,-0.066 -7.297253,-0.57652 -3.053425,-0.85707 -6.2163,-2.21353 -8.024577,-3.44151 -3.144248,-2.13522 -6.341588,-5.55728 -5.747456,-6.15141 0.137146,-0.13715 1.569439,-0.30578 3.182873,-0.37473 6.24618,-0.26693 11.795439,-1.96209 17.423392,-5.32242 2.527681,-1.50921 6.746875,-4.71656 6.746875,-5.12882 0,-0.13536 -0.238125,-0.32168 -0.529166,-0.41405 -0.489867,-0.15548 -0.529167,-0.40032 -0.529167,-3.29681 0,-3.59512 -0.106588,-3.45006 2.535181,-3.45006 h 1.698152 v -4.4799 -4.47991 l -0.79375,-0.56519 c -0.775948,-0.55253 -0.79375,-0.61592 -0.79375,-2.82663 v -2.26143 l -1.521354,0.22892 c -0.836745,0.12591 -3.128698,0.21535 -5.093229,0.19876 -4.368235,-0.0369 -6.603085,-0.5696 -10.511763,-2.50563 -3.025932,-1.49879 -5.990919,-4.00736 -7.480963,-6.32939 -1.215482,-1.89417 -1.029973,-2.11484 1.778693,-2.11587 5.882387,-0.002 12.360837,-2.05113 17.933825,-5.67208 2.050151,-1.33204 6.00522,-4.47846 6.163086,-4.90298 0.04272,-0.11487 -0.228812,-0.28578 -0.6034,-0.3798 l -0.681068,-0.17093 0.07423,-3.23408 0.07423,-3.23407 2.116666,-0.13229 2.116667,-0.1323 0.07234,-4.55144 c 0.07151,-4.49895 0.0654,-4.55509 -0.529167,-4.86825 -0.906942,-0.47769 -0.989938,-0.72548 -0.99433,-2.96862 l -0.0041,-2.06956 -1.521354,0.21748 c -0.836745,0.11961 -2.771511,0.20413 -4.299479,0.18782 -6.205731,-0.0662 -11.787251,-2.76326 -15.286508,-7.38651 -2.241426,-2.96139 -2.163501,-3.55197 0.469841,-3.56084 2.318783,-0.008 5.823626,-0.72696 9.175477,-1.88273 7.49841,-2.58556 15.080364,-6.979241 25.683377,-14.883299 l 4.828647,-3.599534 v -1.874755 c 0,-2.636151 0.19088,-2.8983 2.11036,-2.8983 0.85942,0 1.61427,-0.0893 1.67745,-0.198438 0.0632,-0.10914 0.19238,-0.853281 0.28711,-1.653646 0.16733,-1.413664 0.14966,-1.46792 -0.61892,-1.900472 -1.55207,-0.873494 -1.17609,-3.033271 0.64251,-3.690886 0.67401,-0.243727 0.92858,-0.493475 0.92858,-0.911012 0,-0.316379 0.0713,-0.931876 0.1585,-1.367771 0.14414,-0.720702 0.056,-0.849605 -0.97275,-1.422136 -2.05893,-1.14589 -1.91847,-2.88664 0.32303,-4.003197 0.87419,-0.435462 0.93269,-0.54631 0.97748,-1.852084 0.0471,-1.373193 0.036,-1.394227 -0.98429,-1.859968 -2.07865,-0.948879 -2.0268,-2.980522 0.10008,-3.921341 l 1.1917,-0.527145 v -1.393823 c 0,-1.328672 -0.0427,-1.414176 -0.9131,-1.829246 -1.2998,-0.619835 -1.86562,-1.573842 -1.57019,-2.647476 0.18626,-0.676873 0.51909,-0.987262 1.62245,-1.513026 1.26962,-0.604991 1.3882,-0.737785 1.38906,-1.555562 7.5e-4,-0.71559 -0.23141,-1.111784 -1.1628,-1.984375 -1.46413,-1.371693 -1.97629,-2.852416 -1.51692,-4.385639 0.37312,-1.245387 1.39379,-2.525985 2.44759,-3.07093 l 0.76224,-0.394166 v -5.55244 -5.552441 l -45.177609,0.06913 -45.177603,0.06913 -1.75981,0.833769 c -3.237231,1.533745 -3.044869,1.236619 -15.0478816,23.243315 -9.6493502,17.691419 -16.9684254,31.36584 -24.0745774,44.979166 -1.063465,2.037292 -2.935213,5.599878 -4.15944,7.916848 -4.65595,8.81187 -22.111499,43.39748 -22.589851,44.75848 -1.206583,3.43294 -1.227359,7.31908 -0.05816,10.87805 0.22939,0.69825 3.928711,8.47282 8.220714,17.27683 4.292003,8.80401 9.241979,18.98386 10.999948,22.62188 4.004829,8.28778 13.13845,26.38599 14.534034,28.79909 0.576241,0.99638 1.387537,2.18701 1.80288,2.64584 l 0.755169,0.83423 1.136403,-0.62581 c 0.625022,-0.3442 1.9698405,-1.08212 2.9884864,-1.63982 1.0186458,-0.55771 3.1022395,-1.43177 4.6302083,-1.94235 8.256701,-2.75905 17.2885793,-2.24796 25.0277613,1.41626 3.665979,1.73571 6.438326,3.66564 9.142805,6.36464 2.041279,2.03715 5.23105,6.35432 5.634777,7.62635 0.12672,0.39926 0.655763,0.52533 3.257868,0.77635 1.708619,0.16482 4.033337,0.54022 5.166039,0.83422 4.531349,1.17614 9.72333,4.25231 13.424576,7.95386 2.087116,2.08729 5.272086,6.3855 5.677005,7.66128 0.16308,0.51382 0.376513,0.54782 3.529185,0.56215 1.845585,0.008 3.831858,0.11375 4.413942,0.23415 2.327757,0.48148 2.144994,0.7729 2.33994,-3.73105 z M 1.9791635,257.05292 c 1.2629399,-2.47556 3.7584124,-3.7121 6.4771535,-3.20952 1.799853,0.33272 2.279877,0.58224 3.779525,1.96456 l 1.179281,1.08703 0.568103,-0.78604 c 0.312456,-0.43232 0.950698,-1.21217 1.418315,-1.73301 l 0.850213,-0.94697 -1.114419,-1.06992 c -4.626179,-4.44145 -11.6433992,-4.27338 -17.5823754,0.42111 l -1.3621618,1.07673 1.0785293,2.32051 c 1.4655277,3.15316 1.3283457,3.0398 2.89201965,2.38996 0.99208275,-0.41229 1.44718245,-0.79185 1.81581675,-1.51444 z m 214.9473465,-0.0102 c 0.95813,-0.58208 1.86327,-1.05833 2.01142,-1.05833 0.64672,0 0.14599,-0.77262 -1.51658,-2.34004 -1.31077,-1.23575 -2.48988,-2.02332 -4.43177,-2.96013 -3.08452,-1.48804 -4.96308,-1.93656 -8.06979,-1.92675 -2.78934,0.009 -5.06449,0.57067 -7.80521,1.92753 -2.21357,1.09588 -5.16182,3.26847 -5.15595,3.79947 0.002,0.17011 0.88429,0.88236 1.96091,1.58278 l 1.95751,1.27349 1.61763,-1.19083 c 0.8897,-0.65496 2.29924,-1.44967 3.13231,-1.76603 1.91284,-0.72641 5.53232,-0.97669 7.49922,-0.51856 1.92853,0.44919 4.63545,1.89616 5.92171,3.16542 0.58208,0.57439 1.07593,1.05019 1.09743,1.05733 0.0215,0.007 0.82303,-0.46327 1.78116,-1.04535 z M 8.8631263,256.85315 c 0.2926489,-0.2625 -0.9516903,-0.86877 -1.7830846,-0.86877 -0.9723375,0 -2.4498327,0.64903 -2.4498327,1.07616 0,0.25854 3.9280112,0.0661 4.2329173,-0.20739 z M 224.98838,253.85151 c 1.21631,-0.26085 1.3471,-0.36828 1.843,-1.5139 0.63951,-1.47734 0.60778,-1.55476 -1.61447,-3.93966 -3.38943,-3.6375 -8.58936,-6.76392 -13.41795,-8.06743 -1.91191,-0.51613 -2.90323,-0.60794 -6.61459,-0.61257 -3.74562,-0.005 -4.68502,0.0813 -6.61458,0.60543 -2.91965,0.79306 -6.31444,2.29538 -8.46936,3.74801 -2.00012,1.34828 -5.54496,4.69145 -6.61977,6.24317 l -0.74604,1.07706 2.50672,0.70456 2.50672,0.70457 1.6162,-1.72773 c 5.0201,-5.36651 13.09046,-7.81961 20.40497,-6.2024 4.62829,1.0233 9.72135,4.13784 12.53368,7.66467 0.6985,0.87597 1.29391,1.59364 1.32313,1.59484 0.0292,0.001 0.64227,-0.12419 1.36234,-0.27862 z M 21.197778,249.47547 c 1.001535,-0.66948 1.854442,-1.30567 1.895349,-1.41375 0.147116,-0.38871 -3.887631,-3.94618 -5.690095,-5.017 -7.5637118,-4.49352 -17.27940549,-3.52441 -24.0225787,2.39617 l -0.8822951,0.77467 0.6765844,1.51097 c 1.0684013,2.38599 1.0697887,2.38645 3.0417261,1.00797 3.88038212,-2.71258 7.2983981,-3.74678 11.6853135,-3.53564 4.0270428,0.19382 7.2599038,1.58039 9.9575938,4.27081 0.654843,0.65308 1.264155,1.19543 1.354027,1.20523 0.08987,0.01 0.982839,-0.52995 1.984375,-1.19943 z m 76.246626,-3.08224 -0.07774,-1.91823 -9.16052,-0.0695 -9.16052,-0.0695 -0.166043,0.83021 c -0.218035,1.09018 -0.212264,2.74632 0.01035,2.96893 0.09701,0.097 4.328948,0.17639 9.404299,0.17639 h 9.227911 z m 24.660806,-0.0661 v -1.98437 h -10.84792 -10.84791 v 1.98437 1.98438 h 10.84791 10.84792 z m 21.69583,0 v -1.98437 h -9.39271 -9.39271 v 1.98437 1.98438 h 9.39271 9.39271 z m -113.157725,-0.916 c 0.826958,-0.17168 1.50356,-0.37354 1.50356,-0.44858 0,-0.50776 -3.037053,-4.36372 -4.625125,-5.87224 -3.981597,-3.78212 -8.472994,-6.14521 -14.237173,-7.49069 -3.170865,-0.74014 -8.8241333,-0.79253 -11.9409054,-0.11065 -4.459905,0.97572 -9.4454989,3.22596 -12.1482296,5.48309 l -0.837108,0.69909 1.045163,2.14518 c 0.57484,1.17985 1.1331521,2.14518 1.240694,2.14518 0.1075419,0 1.1103613,-0.65636 2.2284875,-1.45858 2.5274354,-1.81335 5.2253487,-3.10826 8.09448106,-3.88509 3.17046474,-0.85842 8.91721354,-0.85868 12.08649044,-5.5e-4 4.639843,1.25631 8.846804,3.78285 12.062606,7.24435 1.101945,1.18614 2.003536,2.2506 2.003536,2.36546 0,0.11487 0.454492,0.0485 1.009981,-0.14749 0.55549,-0.19599 1.686584,-0.4968 2.513542,-0.66848 z m 125.725435,-5.74411 c 2.45331,-0.57204 5.62833,-1.82267 5.34544,-2.10555 -0.0879,-0.0879 -2.57677,-0.0144 -5.53077,0.16333 -4.02873,0.24243 -16.18143,0.2869 -48.63029,0.17796 -23.792661,-0.0799 -43.973755,-0.20837 -44.84688,-0.28551 l -1.5875,-0.14027 1.322917,0.63607 c 1.700472,0.81761 5.435257,1.68787 8.466667,1.97286 1.309687,0.12312 20.538281,0.20417 42.730206,0.18011 39.96944,-0.0434 40.37136,-0.049 42.73021,-0.599 z M 72.996475,234.5234 c 2.338317,-0.69492 3.406906,-1.23325 5.091875,-2.56514 1.387746,-1.09695 4.233822,-4.46803 3.983514,-4.71834 -0.08014,-0.0801 -0.863554,0.45168 -1.740913,1.18182 -2.00151,1.66567 -6.03484,4.47425 -8.033555,5.59409 -2.232334,1.25074 -2.107235,1.34157 0.699079,0.50757 z m 79.006645,0.44803 c 0,-0.061 -0.98553,-0.64808 -2.19006,-1.30467 -2.52258,-1.37506 -7.37576,-4.75141 -8.62417,-5.99983 -1.42566,-1.42565 -1.23244,-0.66989 0.32908,1.28719 2.39069,2.99628 4.60527,4.55446 7.83056,5.50958 1.99138,0.58972 2.65459,0.71657 2.65459,0.50773 z m -7.54062,-13.91205 v -1.19063 H 111.25729 78.052084 l -0.08479,0.88508 c -0.04663,0.4868 -0.02043,1.05281 0.05823,1.2578 0.122149,0.31831 4.98096,0.36291 33.289996,0.30554 L 144.4625,222.25 Z m -45.905208,-7.9375 v -4.23334 h -7.805209 -7.805208 v 4.23334 4.23333 h 7.805208 7.805209 z m 7.941848,2.57968 c 0.008,-3.04992 1.80844,-4.94758 4.70255,-4.95658 2.93207,-0.009 4.56688,1.55892 4.80463,4.60839 l 0.14576,1.86955 2.57969,0.0757 2.57969,0.0757 v -4.24291 -4.24292 h -10.05417 -10.05416 v 4.23334 4.23333 h 2.64583 2.64583 z m 32.82187,0.13229 c 0.01,-0.83674 0.0172,-2.71197 0.0163,-4.16718 l -0.002,-2.64584 -7.68925,-0.0701 -7.68926,-0.0701 v 4.23733 4.23733 h 7.67292 7.67291 z m 1.51506,-11.64166 0.0777,-1.91823 h -29.5126 -29.512628 v 1.98552 1.98553 l 29.434898,-0.0673 29.43489,-0.0673 z m 9.61767,-6.16598 c 3.80973,-0.38792 7.12235,-1.15273 9.25951,-2.13781 1.77969,-0.82031 2.39724,-1.41595 1.21956,-1.17629 -3.59782,0.73215 -8.65971,0.81497 -49.80781,0.81497 -34.092866,0 -43.017718,-0.071 -45.849189,-0.3647 -1.93372,-0.20058 -3.578455,-0.3021 -3.654965,-0.22559 -0.228915,0.22892 2.780956,1.5027 4.801037,2.03181 1.035969,0.27135 3.005007,0.62361 4.37564,0.78281 1.370633,0.15919 2.849248,0.33109 3.285811,0.38198 2.136251,0.24904 73.860586,0.14838 76.370406,-0.10718 z m -76.007303,-6.07943 c 2.463057,-0.68255 3.729844,-1.3283 5.756546,-2.93446 1.649016,-1.30684 4.772437,-4.90634 4.496691,-5.18209 -0.08322,-0.0832 -0.600945,0.25299 -1.150494,0.74715 -1.536721,1.38182 -7.976217,5.90112 -9.513268,6.67649 -0.753686,0.3802 -1.445322,0.8126 -1.536969,0.96089 -0.213309,0.34514 -0.316022,0.35928 1.947494,-0.26798 z m 75.704603,0.29084 c 0,-0.13571 -0.22245,-0.31736 -0.49434,-0.40365 -0.9657,-0.3065 -6.41921,-3.8413 -9.15908,-5.93665 -1.5301,-1.17015 -2.782,-2.06541 -2.782,-1.98946 0,0.076 0.64755,0.94968 1.439,1.94161 2.60481,3.26465 5.0049,4.94054 8.61517,6.01563 2.30816,0.68734 2.38125,0.69878 2.38125,0.37252 z m -8.42017,-14.05283 c 0.0562,-0.58873 0.0389,-1.16244 -0.0384,-1.2749 -0.15575,-0.22679 -59.926754,-0.36612 -60.663874,-0.14142 -0.33402,0.10182 -0.463021,0.41875 -0.463021,1.13755 0,0.54803 0.07937,1.07579 0.176389,1.1728 0.09701,0.097 13.836227,0.17639 30.531586,0.17639 h 30.35519 z m -42.908995,-8.06233 v -4.10566 l -6.548437,0.0708 -6.548438,0.0708 -0.07304,4.0349 -0.07304,4.0349 h 6.621474 6.621475 z m 7.674395,2.98119 c 0.003,-2.46377 0.9267,-3.9625 2.96659,-4.81461 1.24641,-0.52066 2.34149,-0.52109 3.58526,-0.001 1.98773,0.83052 2.97167,2.37014 2.97167,4.64989 v 1.29061 h 2.51354 2.51354 v -4.10431 -4.1043 l -9.72343,0.0694 -9.72344,0.0694 -0.073,4.0349 -0.073,4.0349 h 2.52043 2.52043 z m 30.16102,-2.98127 v -4.10575 l -6.41614,0.0709 -6.41615,0.0709 -0.073,4.0349 -0.073,4.0349 h 6.48918 6.48918 z m 1.26836,-8.52811 0.0777,-1.91823 H 111.26888 84.534375 v 1.98564 1.98564 l 26.656775,-0.0674 26.65677,-0.0674 z m 12.93858,-6.49838 c 2.58803,-0.52923 4.2479,-1.06498 6.03369,-1.94747 1.70861,-0.84435 2.12394,-1.2658 1.05083,-1.06634 -0.44068,0.0819 -2.88146,0.34224 -5.42395,0.57849 -4.08068,0.37918 -9.12115,0.41746 -42.9873,0.3265 -26.975316,-0.0725 -39.071503,-0.19409 -40.745833,-0.4097 -1.309688,-0.16866 -2.768203,-0.35937 -3.241146,-0.42381 -1.422593,-0.19383 -0.975946,0.28118 1.058333,1.12555 2.879544,1.19522 6.194248,1.89932 10.64948,2.26215 0.582083,0.0474 16.893645,0.0664 36.247916,0.0421 31.77198,-0.0398 35.40018,-0.0871 37.35798,-0.48749 z m 89.51839,-5.3462 c 1.02714,-0.53116 1.67127,-1.80114 1.46667,-2.89174 -0.17336,-0.92408 -1.25923,-2.09845 -2.20436,-2.38401 -0.93747,-0.28324 -2.1542,-1.43443 -2.74957,-2.60146 -0.43224,-0.84726 -0.52427,-1.43483 -0.44486,-2.84023 0.12413,-2.19671 0.96186,-3.59904 2.79305,-4.67544 l 1.2627,-0.74223 11.04635,-0.0796 c 6.0755,-0.0438 11.04636,-0.13234 11.04636,-0.19684 0,-0.0645 -1.27864,-2.67783 -2.84141,-5.80741 l -2.84142,-5.69013 h -20.91502 -20.91503 l -1.1652,0.59531 c -0.64086,0.32742 -1.51656,1.03711 -1.94599,1.57708 -1.44822,1.82104 -1.18276,4.96608 0.56012,6.63587 1.36862,1.31122 2.50986,1.51049 8.65079,1.51049 5.40673,0 5.64968,0.0225 6.51518,0.60323 0.59627,0.40008 1.01707,0.97356 1.24958,1.70294 0.31431,0.98597 0.29618,1.22266 -0.17525,2.2884 -0.99965,2.25988 0.094,2.13438 -19.90968,2.28459 l -17.61769,0.13229 -1.0549,0.73124 c -2.69542,1.86843 -3.16867,5.81022 -1.00155,8.34201 1.73786,2.0303 -0.16092,1.89421 26.52321,1.90094 20.84616,0.005 23.99072,-0.0451 24.66792,-0.39533 z M 77.839988,149.23137 c 2.097077,-0.66554 4.255659,-1.92241 5.864142,-3.41452 1.13779,-1.05546 3.740662,-4.2844 3.740662,-4.6404 0,-0.14937 -1.16086,0.65487 -2.579688,1.78719 -3.043936,2.42929 -6.576302,4.96441 -8.334375,5.98147 -2.014222,1.16524 -1.686303,1.23693 1.309259,0.28626 z m 69.400632,0.40833 c 0,-0.13571 -0.23542,-0.32147 -0.52317,-0.4128 -0.88529,-0.28098 -6.19178,-3.93349 -9.02106,-6.20928 -1.47586,-1.18713 -2.73554,-2.10624 -2.79931,-2.04248 -0.22133,0.22133 3.5445,4.55437 4.82564,5.55251 1.53401,1.19513 4.03577,2.46437 5.8267,2.95611 1.63492,0.4489 1.6912,0.45409 1.6912,0.15594 z m 78.84584,-13.24699 c 0.64382,-0.64382 0.6732,-1.25439 0.0913,-1.8974 -0.39497,-0.43643 -0.93096,-0.48385 -5.46927,-0.48385 -4.31046,0 -5.10072,0.0627 -5.51524,0.43788 -0.67704,0.61271 -0.60283,1.28221 0.21328,1.92416 0.64619,0.5083 1.0426,0.54838 5.42396,0.54838 4.37404,0 4.76631,-0.0395 5.25599,-0.52917 z m -87.00818,-0.57334 c 0.12672,-0.19399 0.19939,-0.70989 0.16148,-1.14645 l -0.0689,-0.79375 -27.97968,-0.0674 -27.979692,-0.0674 v 1.14774 c 0,0.63125 0.04963,1.19734 0.110291,1.25797 0.06066,0.0606 12.57885,0.0904 27.818201,0.0661 22.75846,-0.0363 27.74907,-0.10717 27.93833,-0.39687 z M 98.762584,127.2052 c 0.08619,-4.75601 0.414441,-4.40326 -3.912879,-4.20499 -1.526088,0.0699 -3.578377,0.13528 -4.560642,0.14524 l -1.785938,0.0181 v 3.92465 c 0,2.15856 0.08192,4.00658 0.182044,4.1067 0.100124,0.10013 2.392078,0.14973 5.093229,0.11024 l 4.911185,-0.0718 z m 7.749866,2.28573 c 0.18856,-2.19106 0.9273,-3.45138 2.4571,-4.19195 1.9462,-0.94214 4.07476,-0.6644 5.56147,0.72566 1.04093,0.97326 1.48877,2.14258 1.48877,3.88721 v 1.47363 l 2.4474,-0.0761 2.44739,-0.0761 0.0729,-3.99919 0.0728,-3.99919 -0.86659,-0.12412 c -0.47663,-0.0683 -3.84316,-0.0864 -7.48118,-0.0402 -3.63802,0.0462 -7.65638,0.0859 -8.92969,0.0884 l -2.3151,0.004 v 4.11097 4.11097 l 2.44739,-0.0761 2.4474,-0.0761 z m 27.23442,-2.22635 v -4.10104 h -5.02708 -5.02708 v 4.10104 4.10105 h 5.02708 5.02708 z m 1.32292,-8.73265 v -1.98579 l -23.87864,0.0676 -23.87865,0.0676 -0.07774,1.91823 -0.07774,1.91823 h 23.95638 23.95638 z m 13.09688,-6.65614 c 3.52083,-0.81551 7.50945,-2.74659 5.63801,-2.72963 -0.33601,0.003 -2.03968,0.20186 -3.78593,0.44181 -2.7643,0.37983 -7.31619,0.45028 -35.18958,0.54464 -31.429712,0.10639 -39.045602,-0.0261 -43.875224,-0.76335 -0.993559,-0.15167 -1.862141,-0.22009 -1.930181,-0.15205 -0.24855,0.24855 2.200674,1.47124 4.106743,2.05014 4.192354,1.2733 4.142751,1.27177 39.449702,1.21417 32.61716,-0.0532 33.24738,-0.0639 35.58646,-0.60573 z m -64.962769,-5.9451 c 5.285632,-1.73883 11.40848,-6.225782 16.599281,-12.164311 2.492958,-2.852062 3.165898,-3.887346 1.499168,-2.306372 -5.253775,4.983436 -16.397977,12.461783 -21.840928,14.656403 -1.132822,0.45676 -1.997598,0.89255 -1.921724,0.96843 0.205415,0.20541 3.689372,-0.50448 5.664203,-1.15415 z m 61.920059,1.13515 c 0,-0.12249 -0.47117,-0.36387 -1.04705,-0.53641 -1.50289,-0.45027 -7.12431,-3.37007 -10.06545,-5.22805 -3.18396,-2.011363 -7.83755,-5.480063 -11.24479,-8.38165 -1.45521,-1.239246 -2.68833,-2.211277 -2.74028,-2.160069 -0.18776,0.185115 2.27512,2.968796 5.38522,6.086663 5.82891,5.843476 11.12231,8.959136 17.04235,10.031056 2.4947,0.4517 2.67,0.46408 2.67,0.18846 z m -28.36274,-22.327456 -0.08,-1.383491 -5.42396,-0.0056 -5.42396,-0.0056 -0.08,1.389063 -0.08,1.389062 h 5.5839 5.58391 z m -3.2205,-4.768071 c -0.0877,-0.327422 -0.16116,-0.863203 -0.16315,-1.190625 -0.003,-0.567451 -0.10268,-0.595313 -2.12028,-0.595313 h -2.11666 v 1.04312 c 0,1.034925 0.009,1.043917 1.12447,1.144401 0.61847,0.0557 1.64439,0.122081 2.27982,0.147505 1.07775,0.04312 1.14462,0.0062 0.9958,-0.549088 z m -0.69593,-7.309115 c 0,-0.272852 -0.0762,-0.877045 -0.16931,-1.342653 l -0.16931,-0.846559 -1.35204,0.181945 c -0.74363,0.100069 -1.37636,0.202717 -1.40608,0.228107 -0.0297,0.02539 -0.13423,0.547707 -0.23225,1.160708 l -0.17822,1.114546 h 1.7536 c 1.53825,0 1.75361,-0.06092 1.75361,-0.496094 z m -0.52917,-8.367448 v -1.190625 h -1.19062 -1.19062 v 1.190625 1.190625 h 1.19062 1.19062 z m -0.26458,-7.805208 c 0,-1.033135 -0.0221,-1.058334 -0.92604,-1.058334 -0.90399,0 -0.92604,0.0252 -0.92604,1.058334 0,1.033135 0.0221,1.058333 0.92604,1.058333 0.90399,0 0.92604,-0.0252 0.92604,-1.058333 z"
       id="path23" /><path
       style="fill:#000000"
       d="m 30.481238,57.877604 c -0.06015,-0.10914 -0.497296,-1.421462 -0.971432,-2.916269 -0.56104,-1.76879 -1.054988,-2.852961 -1.414551,-3.104808 -0.303868,-0.212837 -1.479855,-0.695819 -2.613305,-1.073292 -1.133451,-0.377474 -2.131839,-0.801229 -2.218641,-0.941678 -0.293863,-0.47548 0.393189,-0.925331 2.350997,-1.539331 2.799591,-0.877995 3.035125,-1.121561 4.008823,-4.145534 1.13636,-3.529141 1.442013,-3.544094 2.505006,-0.122546 0.481431,1.549623 1.0632,2.87777 1.396613,3.188392 0.314302,0.292816 1.569158,0.836711 2.78857,1.208654 2.821323,0.860557 2.832905,1.268106 0.06499,2.286834 -3.405997,1.253573 -3.25446,1.088921 -4.233068,4.599459 -0.321526,1.153404 -0.705395,2.245927 -0.853041,2.427828 -0.302272,0.372399 -0.64758,0.428729 -0.810959,0.132291 z"
       id="path22" /><path
       style="fill:#000000"
       d="m 83.403513,63.976987 c -0.06656,-0.116822 -0.445242,-1.197084 -0.841511,-2.400582 -0.777979,-2.362775 -0.990133,-2.573389 -3.280689,-3.256873 -2.06326,-0.615661 -1.733503,-1.415072 0.929195,-2.252593 1.592512,-0.500907 1.724306,-0.667933 2.494406,-3.161224 0.479727,-1.553176 1.059632,-2.30228 1.466951,-1.894961 0.07911,0.07911 0.460927,1.076083 0.848485,2.215499 l 0.70465,2.071664 2.116667,0.845605 c 1.164166,0.465084 2.15288,1.018778 2.19714,1.230432 0.05568,0.266267 -0.474159,0.565409 -1.719792,0.970977 -0.990145,0.322384 -2.003707,0.780721 -2.252358,1.018527 -0.248652,0.237807 -0.784433,1.376303 -1.190625,2.529993 -0.679784,1.930758 -1.166875,2.619967 -1.472519,2.083536 z"
       id="path21" /><path
       style="fill:#000000"
       d="m 58.696049,69.230208 c -0.141926,-0.09568 -0.764599,-1.614773 -1.383718,-3.37577 -0.619119,-1.760996 -1.336549,-3.548574 -1.594289,-3.972393 -0.503638,-0.828165 -2.648405,-1.988892 -5.5795,-3.01957 -3.11365,-1.09487 -3.132965,-1.680424 -0.091,-2.758818 1.141457,-0.404654 2.861153,-1.130923 3.821548,-1.613933 1.972909,-0.992233 2.188647,-1.345844 3.734366,-6.120922 1.184563,-3.659384 1.733705,-3.625736 2.974201,0.18224 0.402945,1.236927 1.027232,2.920239 1.387305,3.740694 0.764397,1.741737 1.483743,2.211546 5.834518,3.810552 2.352563,0.864618 2.71198,1.076468 2.71198,1.598515 0,0.492026 -0.277514,0.70283 -1.521355,1.155648 -4.727583,1.721066 -5.498831,2.059823 -6.143458,2.698406 -0.450211,0.44599 -1.168701,1.954846 -1.976594,4.150923 -1.2113,3.292645 -1.595029,3.914734 -2.174004,3.524428 z m 1.401003,-8.013969 c 0.943738,-1.795938 1.079658,-1.929121 2.81988,-2.7631 l 1.82835,-0.876213 -1.727794,-0.783419 c -1.818567,-0.824578 -2.616349,-1.72743 -3.367219,-3.810694 -0.196688,-0.545703 -0.422992,-0.990356 -0.5029,-0.988116 -0.07991,0.0022 -0.566497,0.801418 -1.081312,1.775952 -0.85298,1.614673 -1.093235,1.854928 -2.707908,2.707908 -0.974534,0.514814 -1.773713,1.001405 -1.775952,1.081312 -0.0022,0.07991 0.39822,0.290757 0.889911,0.468554 1.683643,0.608813 2.906164,1.734906 3.736226,3.441526 0.436562,0.897579 0.817023,1.632235 0.845468,1.632569 0.02845,3.34e-4 0.497908,-0.848492 1.04325,-1.886279 z"
       id="path20" /><path
       style="fill:#000000"
       d="m 5.6073717,129.85743 c -0.6845458,-0.17741 -0.995928,-1.20576 -1.1695846,-3.86257 -0.1302568,-1.99284 -0.21308,-2.30377 -0.5751856,-2.15931 -1.0890311,0.43444 -4.58562828,1.20811 -5.1182517,1.13248 -0.8034768,-0.1141 -1.5296981,-2.28891 -1.7164483,-5.14024 -0.3905355,-5.96276 3.06054638,-12.29892 7.9767124,-14.64519 0.958244,-0.45733 1.7422617,-0.86748 1.7422617,-0.91144 0,-0.044 -0.5779943,-0.0244 -1.2844317,0.0435 -1.7957459,0.17255 -5.59191733,-0.37736 -7.575546,-1.09738 -4.0879067,-1.48383 -7.9514459,-5.605569 -8.8791089,-9.472503 -0.394054,-1.642604 -0.354253,-1.684011 2.7753343,-2.887291 1.1723034,-0.450733 2.1666433,-0.852768 2.2096443,-0.89341 0.043001,-0.04064 -0.2828381,-0.68619 -0.724087,-1.43455 -0.4412488,-0.748359 -1.0022351,-1.97201 -1.2466361,-2.719223 l -0.4443655,-1.35857 0.6392858,-0.526068 c 0.3516072,-0.289337 1.4759289,-0.926187 2.4984926,-1.415223 4.9655266,-2.374735 10.7434475,-1.575217 15.271878,2.11324 0.8330106,0.678496 1.5643386,1.23363 1.6251746,1.23363 0.06083,0 -0.141355,-0.625078 -0.449313,-1.389063 -0.46771,-1.1603 -0.561564,-1.95552 -0.569893,-4.828646 -0.01201,-4.144466 0.56144,-6.259604 2.503765,-9.234948 1.297636,-1.987779 3.780479,-4.391093 4.536401,-4.391093 0.244552,0 1.321662,0.944029 2.393577,2.097842 l 1.948936,2.097841 0.609712,-0.889816 c 0.774336,-1.130069 3.343575,-3.570451 3.758979,-3.570451 0.17319,0 1.120401,0.820018 2.104911,1.822261 2.128463,2.1668 3.754503,5.215824 4.390062,8.231906 0.519415,2.464915 0.356389,6.059624 -0.380979,8.400521 -0.286488,0.909505 -0.461569,1.653646 -0.389069,1.653646 0.0725,0 0.698931,-0.509884 1.392069,-1.133075 4.543714,-4.085189 11.478999,-4.73656 17.211522,-1.61653 0.718189,0.390887 1.513308,0.94 1.76693,1.220249 0.441024,0.487326 0.426857,0.57371 -0.324911,1.981101 -0.432323,0.809356 -1.304049,2.05191 -1.937168,2.761231 l -1.151126,1.289674 0.886543,0.364865 c 4.170246,1.716303 4.986307,2.088184 5.232011,2.38424 0.756115,0.911062 -1.521414,5.224052 -3.835348,7.263053 -2.947051,2.5969 -6.061949,3.77996 -10.100024,3.83607 -1.490906,0.0207 -2.711296,0.10324 -2.711979,0.18338 -6.84e-4,0.0801 0.504773,0.3959 1.123237,0.70169 0.618463,0.30579 1.798431,1.16298 2.62215,1.90486 3.87111,3.48653 5.810502,9.16469 4.899334,14.34429 -0.214602,1.21991 -0.524474,2.56147 -0.688605,2.98124 -0.290485,0.74292 -0.336236,0.75876 -1.720696,0.59605 -0.782251,-0.0919 -2.132108,-0.38809 -2.99968,-0.65811 l -1.577406,-0.49094 -0.169017,2.14385 c -0.318569,4.04078 -0.584096,4.29726 -4.000381,3.86412 -3.767322,-0.47765 -6.471429,-1.80315 -9.143854,-4.48213 -1.851018,-1.85556 -3.655778,-4.9367 -4.231961,-7.22493 -0.360683,-1.43241 -0.644618,-1.43371 -0.902947,-0.004 -0.0989,0.54731 -0.660179,1.99514 -1.247283,3.21739 -2.025901,4.21759 -6.084147,7.39678 -10.6714251,8.35989 -1.8254166,0.38325 -3.2455985,0.4555 -4.1822122,0.21276 z M 23.92444,114.67652 c 1.13383,-1.13383 1.141859,-2.60301 0.02035,-3.72452 -0.793181,-0.79318 -0.79375,-0.79601 -0.79375,-3.94839 0,-1.73506 0.07067,-3.15465 0.15704,-3.15465 0.08637,0 1.205379,0.95814 2.486683,2.1292 2.296615,2.09903 2.327665,2.14396 2.190122,3.16942 -0.173949,1.29689 0.4063,2.26922 1.669026,2.79682 0.7871,0.32887 1.025758,0.32806 1.825711,-0.006 0.944086,-0.39446 1.987418,-1.76462 1.989179,-2.6123 0.0031,-1.49386 -1.780803,-3.01717 -3.200766,-2.73317 -0.671035,0.1342 -0.957279,-0.0799 -2.807626,-2.09989 -1.133226,-1.23713 -2.100098,-2.36436 -2.148605,-2.50495 -0.05356,-0.15525 1.174097,-0.25562 3.126622,-0.25562 h 3.214816 l 0.873369,0.92604 c 0.729328,0.77332 1.057031,0.92605 1.98696,0.92605 3.02835,0 3.713517,-4.01783 0.886594,-5.198994 -1.077884,-0.450369 -1.79738,-0.281676 -2.798836,0.656213 -0.721581,0.675778 -0.800229,0.68787 -3.96875,0.610158 -1.777919,-0.04361 -3.316507,-0.159454 -3.419083,-0.257439 -0.102576,-0.09799 0.755154,-1.248438 1.906068,-2.556561 1.896966,-2.156081 2.170093,-2.370272 2.921904,-2.291412 2.6069,0.273447 4.152554,-2.556753 2.436135,-4.460735 -1.884762,-2.090719 -5.180734,-0.480916 -4.735545,2.312913 0.126177,0.791833 -0.02808,1.006192 -2.161426,3.003503 l -2.2973,2.150813 -0.168941,-1.15142 c -0.09292,-0.63328 -0.205788,-2.264219 -0.250824,-3.624307 -0.07425,-2.242386 -0.03056,-2.513671 0.468703,-2.910417 0.67899,-0.539565 1.141687,-1.412148 1.141687,-2.153065 0,-1.41216 -1.506598,-2.914672 -2.9226,-2.914672 -1.503044,0 -3.126002,1.966896 -2.775447,3.363619 0.09289,0.370115 0.523265,1.027305 0.956383,1.460423 l 0.787487,0.787487 -0.07343,3.551113 -0.07343,3.551113 -2.38125,-1.975476 c -2.268798,-1.882187 -2.382028,-2.026192 -2.397725,-3.049409 -0.03184,-2.075784 -2.269084,-3.468317 -4.073268,-2.535337 -1.7678015,0.914165 -1.938871,3.382095 -0.322874,4.657936 0.56312,0.444588 0.966417,0.534803 1.965974,0.439779 l 1.257524,-0.119548 2.175345,2.26589 2.175345,2.265889 -0.919327,0.189711 c -0.50563,0.104341 -2.008769,0.29166 -3.34031,0.416262 -2.413909,0.22589 -2.423391,0.2244 -3.24532,-0.50999 -1.7924973,-1.601596 -4.2555721,-0.440273 -4.2555721,2.00647 0,1.60462 0.7835104,2.52666 2.322459,2.73307 1.0585791,0.14199 1.1957271,0.0837 2.1416601,-0.91071 l 1.010653,-1.06242 3.275374,-0.1968 c 3.782213,-0.22725 3.703161,-0.55407 0.687858,2.84378 -1.554913,1.75218 -1.910904,2.02563 -2.458247,1.88826 -0.83745,-0.21019 -2.086276,0.32145 -2.601234,1.10738 -0.633793,0.96729 -0.525706,2.55831 0.229135,3.3728 1.172714,1.26538 2.848,1.25797 4.030363,-0.0178 0.521086,-0.56226 0.64104,-0.94104 0.585262,-1.84808 -0.06816,-1.10834 -0.0064,-1.20502 2.166301,-3.39166 l 2.236458,-2.2508 0.167511,1.66218 c 0.09213,0.9142 0.181429,2.33763 0.198438,3.16318 0.02752,1.33559 -0.05655,1.58847 -0.762824,2.29475 -1.706543,1.70655 -0.576251,4.53863 1.811378,4.53863 0.829027,0 1.234722,-0.17639 1.872436,-0.81411 z"
       id="path19" /><path
       style="fill:#000000"
       d="m -20.219512,134.25315 c -0.35219,-1.1753 -0.859568,-2.41561 -1.127507,-2.75624 -0.285123,-0.36247 -1.226576,-0.86192 -2.270071,-1.20427 -3.031519,-0.9946 -3.052709,-1.34805 -0.140877,-2.34975 0.988653,-0.34011 2.009279,-0.81713 2.268057,-1.06005 0.258778,-0.24292 0.795225,-1.44553 1.192105,-2.67246 0.98225,-3.03657 1.338206,-3.03843 2.284349,-0.0119 0.408656,1.3072 0.937924,2.54184 1.176151,2.74364 0.238226,0.20179 1.355873,0.6964 2.48366,1.09914 1.148385,0.41009 2.050521,0.88548 2.050521,1.08054 0,0.19982 -0.889306,0.64447 -2.086116,1.04305 -1.147363,0.3821 -2.267211,0.8979 -2.488549,1.1462 -0.221339,0.24831 -0.718542,1.49327 -1.104896,2.76657 -0.93092,3.06804 -1.359975,3.10171 -2.236827,0.17555 z"
       id="path18" /><path
       style="fill:#000000"
       d="m 40.084375,150.30527 c 0,-0.0607 0.241118,-0.67286 0.535816,-1.36037 0.294699,-0.6875 0.479371,-1.30645 0.410382,-1.37544 -0.113677,-0.11368 -0.810586,0.0877 -2.070677,0.59845 -0.408169,0.16543 -0.463021,0.0123 -0.463021,-1.29301 0,-3.72299 2.491695,-6.86919 6.316472,-7.97565 0.622878,-0.18019 0.627039,-0.16766 0.517172,1.55777 -0.124238,1.95111 -0.237806,1.89082 2.068465,1.09797 0.560109,-0.19256 1.122966,-0.28547 1.250793,-0.20647 0.362735,0.22418 -1.41e-4,2.81478 -0.576924,4.11869 -1.169097,2.64294 -4.36625,4.94774 -6.863998,4.94821 -0.618464,1.1e-4 -1.12448,-0.0495 -1.12448,-0.11015 z"
       id="path17" /><path
       style="fill:#000000"
       d="m -38.523244,159.14927 c -1.071116,-0.56613 -2.619463,-2.20703 -2.619463,-2.77604 0,-0.23145 0.608642,-0.54475 1.597034,-0.82208 0.87837,-0.24646 1.556902,-0.52051 1.50785,-0.609 -0.04905,-0.0885 -0.363274,-0.7416 -0.69827,-1.45134 -0.735843,-1.55901 -0.570095,-1.7423 1.580838,-1.74822 2.69924,-0.007 5.394231,1.93751 5.951973,4.29543 0.133291,0.5635 0.07613,0.72761 -0.253451,0.72761 -0.553822,0 -0.54894,0.4252 0.0073,0.63866 0.395341,0.15171 0.392308,0.21096 -0.03496,0.68309 -1.405433,1.55299 -5.065134,2.10509 -7.038878,1.06189 z"
       id="path16" /><path
       style="fill:#000000"
       d="m -12.258143,212.9289 c -1.036949,-0.12745 -1.331194,-0.68496 -2.026904,-3.84038 -0.411613,-1.86689 -0.502336,-2.03708 -1.020856,-1.91505 -1.072533,0.2524 -3.743957,0.54149 -4.180968,0.45245 -0.962478,-0.19612 -1.908732,-3.95311 -1.914407,-7.60092 -0.007,-4.48491 1.076252,-7.71935 3.782486,-11.2942 l 1.327685,-1.75384 -1.99124,-0.443 c -2.62061,-0.58303 -6.205284,-2.40715 -8.155652,-4.15013 -1.946548,-1.73957 -3.824005,-4.57715 -4.801254,-7.2566 l -0.745419,-2.04381 1.023802,-0.88501 c 0.563092,-0.48675 1.568394,-1.19912 2.234004,-1.58303 0.66561,-0.38391 1.240256,-0.72058 1.276991,-0.74815 0.03674,-0.0276 -0.288573,-0.69475 -0.722907,-1.48263 -0.434334,-0.78789 -0.982896,-2.00686 -1.219026,-2.70884 -0.422822,-1.25697 -0.419885,-1.28641 0.19374,-1.94227 1.501378,-1.60473 4.938359,-3.64771 7.237652,-4.30213 3.386871,-0.96397 7.346608,-0.82366 10.757113,0.38118 2.3550477,0.83197 2.4836371,0.85977 2.4284134,0.52496 -0.024002,-0.14552 -0.1664417,-1.15209 -0.3165322,-2.23683 -0.7612146,-5.50146 1.413815,-11.4766 5.8072051,-15.95327 1.661883,-1.69339 2.45057192,-2.31511 2.9368648,-2.31511 0.67559591,0 1.8926297,0.78602 3.7690299,2.43422 l 1.0404274,0.91389 0.811656,-0.9256 c 0.8926555,-1.01798 3.2454336,-2.95167 3.5913739,-2.95167 0.1202622,0 1.1143375,0.59906 2.2090567,1.33125 2.999571,2.00624 5.550533,5.48255 6.75764,9.20894 0.777601,2.40049 1.142966,5.6508 0.875113,7.78506 -0.123473,0.98383 -0.171768,1.84152 -0.107322,1.90596 0.06444,0.0645 0.8299,-0.2426 1.701009,-0.68234 2.138068,-1.07929 5.181909,-1.82219 7.456796,-1.81994 3.823966,0.004 8.929032,1.86174 11.580388,4.21461 l 1.10941,0.98451 -0.622161,1.5667 c -0.342189,0.86169 -0.897502,2.1232 -1.23403,2.80337 l -0.611869,1.23667 1.944467,0.96078 c 2.704658,1.3364 3.163619,1.8068 2.94088,3.01415 -0.300639,1.62962 -1.472734,4.31604 -2.689921,6.16526 -2.213693,3.36315 -5.865883,6.0372 -9.747508,7.13687 -1.164167,0.32982 -2.157815,0.62611 -2.208107,0.65843 -0.05029,0.0323 0.51883,0.79209 1.264715,1.68836 3.498496,4.20387 4.90479,9.69474 3.877403,15.1393 -0.239898,1.27133 -0.666537,2.8489 -0.948088,3.50573 -0.495336,1.15558 -0.549334,1.19424 -1.66781,1.19424 -0.635745,0 -1.833438,-0.13607 -2.66154,-0.30237 -0.828103,-0.16631 -1.570799,-0.23722 -1.650437,-0.15758 -0.07964,0.0796 -0.404223,1.31405 -0.7213,2.74315 l -0.576503,2.59835 -1.190625,0.2199 c -1.455972,0.26891 -4.091209,0.0696 -6.217708,-0.47032 -4.213149,-1.06968 -8.7753913,-4.37479 -10.7170327,-7.76394 -0.5085487,-0.88767 -0.9841653,-1.61395 -1.0569257,-1.61395 -0.07276,0 -0.5490104,0.73059 -1.0583333,1.62354 -1.1461046,2.00937 -3.8724131,4.85566 -5.86959028,6.12792 -3.35211332,2.13539 -7.46757422,3.09215 -11.28334502,2.62316 z m 5.3407859,-3.13685 c 2.574118,-0.6641 5.1253387,-2.14472 7.06020927,-4.09745 2.43119273,-2.45363 3.49604713,-4.57083 4.74782953,-9.43991 0.2127566,-0.82757 0.4219994,-1.12448 0.7924438,-1.12448 0.6425944,0 0.7285776,0.15278 1.3519227,2.4022 0.8806949,3.17809 2.0305417,5.20493 4.2097438,7.42052 2.926617,2.97548 6.708509,4.72936 10.197924,4.72936 h 1.635214 l 0.476803,-2.78172 c 0.262241,-1.52995 0.628146,-2.90733 0.813122,-3.06085 0.239617,-0.19886 1.074171,-0.11926 2.902468,0.27686 1.411381,0.30579 2.624094,0.49803 2.694916,0.42721 0.36574,-0.36574 0.850481,-3.46837 0.850676,-5.44483 2.79e-4,-2.82581 -0.513135,-5.02821 -1.740142,-7.46472 -1.098194,-2.18072 -3.480851,-4.81151 -5.501973,-6.07495 -1.87345,-1.17113 -2.261083,-1.53416 -2.096399,-1.96332 0.109124,-0.28437 0.749447,-0.37201 2.717959,-0.37201 5.001976,0 8.500419,-1.35195 11.69213,-4.51833 1.58316,-1.5706 2.256466,-2.49163 3.108854,-4.25266 0.598417,-1.23633 1.088031,-2.32738 1.088031,-2.42457 0,-0.0972 -1.22039,-0.78677 -2.711979,-1.53242 -1.491588,-0.74564 -2.76534,-1.40532 -2.830559,-1.46595 -0.06522,-0.0606 0.525062,-1.41474 1.311734,-3.00911 1.658849,-3.36205 1.753411,-3.0628 -1.467046,-4.64272 -5.874102,-2.88177 -12.182926,-1.84742 -17.166528,2.8145 -1.714737,1.60405 -2.247371,1.83801 -2.764866,1.21446 -0.221357,-0.26671 -0.102002,-0.88048 0.482857,-2.48303 1.553836,-4.25761 1.609535,-8.50615 0.161939,-12.35206 -0.99175,-2.63483 -1.930799,-4.0653 -4.092084,-6.23351 l -1.9697096,-1.97603 -2.1417478,2.30675 c -1.1779614,1.26872 -2.2458108,2.30676 -2.3729988,2.30676 -0.1271879,0 -1.1659107,-0.89297 -2.3082728,-1.98437 -1.1423621,-1.09141 -2.18739968,-1.98438 -2.32230574,-1.98438 -0.54576326,0 -3.23998606,3.36501 -4.25259706,5.31138 -2.626412,5.04829 -2.7549286,10.26667 -0.3911556,15.88274 1.1521624,2.73742 0.5235931,3.03803 -2.1387874,1.02288 -1.960206,-1.48367 -3.5142952,-2.32203 -5.6779762,-3.06302 -2.148785,-0.73588 -6.678949,-0.67338 -8.953127,0.12352 -1.771945,0.62091 -5.069789,2.55856 -5.069789,2.97876 0,0.33969 1.539639,3.37783 2.150178,4.24292 0.27261,0.38627 0.49487,0.86252 0.493909,1.05833 -9.6e-4,0.19582 -1.021614,0.93431 -2.268119,1.6411 -1.246506,0.70678 -2.321014,1.42745 -2.387797,1.60149 -0.346514,0.903 2.053912,4.72297 4.154824,6.61187 1.63788,1.47259 5.03032,3.16315 7.236955,3.6064 0.881432,0.17705 2.861723,0.27405 4.497916,0.22033 2.833431,-0.093 2.9256885,-0.0783 3.0050331,0.47879 0.063405,0.44521 -0.2677934,0.81223 -1.4691791,1.62808 -0.85307,0.57931 -2.21665,1.77223 -3.030177,2.65093 -2.99069,3.23031 -4.309133,6.64486 -4.306635,11.1535 0.0014,2.54828 0.40961,4.7717 0.873298,4.75678 0.09785,-0.003 1.243514,-0.24129 2.545908,-0.5292 1.302395,-0.28791 2.446459,-0.43416 2.542365,-0.32501 0.09591,0.10916 0.314995,1.09144 0.486865,2.18285 0.17187,1.0914 0.43138,2.43086 0.576688,2.97656 0.261279,0.98123 0.279005,0.99219 1.6048705,0.99219 0.7373703,0 2.0722342,-0.18874 2.9663644,-0.41941 z"
       id="path15" /><path
       style="fill:#000000"
       d="m 3.9922704,193.25782 c -0.9737777,-1.15726 -0.831102,-2.41505 0.3878627,-3.41928 0.4347056,-0.35812 0.4666302,-0.71332 0.3269774,-3.63802 -0.08512,-1.78263 -0.2265411,-3.2347 -0.3142698,-3.22683 -0.087729,0.008 -0.9559644,1.15252 -1.9294126,2.54365 -1.70476634,2.43624 -1.7644914,2.57505 -1.622788,3.77151 0.12617506,1.06535 0.0525612,1.35211 -0.51711728,2.0144 -0.5383699,0.6259 -0.87541988,0.77222 -1.77873052,0.77222 -0.9023751,0 -1.2404553,-0.14643 -1.7762986,-0.76939 -0.5384654,-0.626 -0.6360297,-0.96155 -0.523508,-1.80046 0.1764058,-1.3152 0.8165503,-2.01644 2.0158417,-2.20821 0.99241638,-0.15869 1.07829046,-0.2595 3.6624643,-4.29921 l 0.9179196,-1.43494 -0.739482,0.1856 c -0.4067151,0.10208 -1.8555819,0.61279 -3.2197041,1.13493 -2.2308405,0.85388 -2.519086,1.04234 -2.8667428,1.8744 -0.4934308,1.18095 -1.0841408,1.62181 -2.1871968,1.63235 -1.1029845,0.0106 -2.4270432,-1.20783 -2.4270432,-2.23333 0,-1.94458 1.8362576,-3.21757 3.4428535,-2.38677 0.8119198,0.41986 0.8961069,0.40241 3.9896515,-0.82679 1.73812646,-0.69064 3.0688176,-1.33379 2.9570916,-1.42922 -0.1117261,-0.0954 -1.54176234,-0.6102 -3.1778583,-1.14391 l -2.9747199,-0.9704 -0.976671,0.52347 c -2.5896391,1.38796 -4.8299198,-1.63743 -2.7515333,-3.71582 1.3296533,-1.32965 2.4995011,-1.02421 3.9891025,1.04152 0.2793167,0.38735 1.3607546,0.81891 3.65091843,1.45694 1.78972387,0.49862 3.21847387,0.82832 3.17499997,0.73268 -0.043474,-0.0956 -1.0107514,-1.37919 -2.14950549,-2.85234 -1.83201801,-2.36998 -2.18419581,-2.69663 -3.05803701,-2.83636 -1.8154711,-0.29031 -2.8143753,-2.06217 -2.0241091,-3.59037 0.5046093,-0.97581 1.5204619,-1.438 2.68176,-1.22014 1.27236702,0.2387 1.80791687,1.01469 1.833125,2.65613 0.02305573,1.50128 0.04375688,1.53358 3.3928549,5.29375 l 0.9426325,1.05834 0.011014,-3.55261 0.011014,-3.55261 -0.8538826,-0.71285 c -0.709131,-0.59201 -0.8538825,-0.89803 -0.8538825,-1.8052 0,-1.68447 1.0444679,-2.54267 2.9765625,-2.44574 1.7391795,0.0873 2.573,2.78202 1.2493154,4.03759 -0.6282067,0.59588 -0.6559354,0.75593 -0.6350847,3.66579 0.034567,4.82413 0.038793,4.82697 2.3457933,1.57496 1.8960594,-2.67273 1.9596554,-2.81212 1.8942504,-4.15166 -0.05752,-1.17805 0.03205,-1.4858 0.596766,-2.05052 0.723044,-0.72305 2.142887,-0.8959 3.109539,-0.37856 0.702554,0.37599 1.270834,1.77579 1.094791,2.6967 -0.177188,0.9269 -1.243586,1.77992 -2.225156,1.77992 -0.667188,0 -0.985062,0.34485 -2.74341,2.97624 -1.0938316,1.63693 -1.8874942,3.01 -1.7636948,3.05127 0.1237994,0.0413 1.6292708,-0.45056 3.3454908,-1.09295 2.728303,-1.02121 3.162193,-1.26737 3.452997,-1.95899 0.735848,-1.75007 2.559067,-2.16682 3.846625,-0.87926 2.044835,2.04483 -0.536045,5.4779 -2.88255,3.83435 -0.564541,-0.39542 -0.779759,-0.34778 -3.773069,0.83524 -1.745909,0.69002 -3.2288376,1.3427 -3.2953974,1.4504 -0.06656,0.10769 1.3369394,0.66813 3.1188854,1.24541 2.863333,0.9276 3.291333,1.00505 3.682388,0.66631 0.243367,-0.21081 0.906466,-0.44552 1.473553,-0.52158 1.337841,-0.17944 2.396852,0.66571 2.624291,2.09435 0.139163,0.87414 0.05169,1.09032 -0.776224,1.91823 -0.648125,0.64812 -1.172641,0.93306 -1.71759,0.93306 -0.945493,0 -2.06132,-0.8188 -2.274764,-1.66922 -0.131677,-0.52465 -0.591001,-0.75189 -3.006295,-1.48732 -3.6683377,-1.11697 -3.7769145,-1.1441 -3.7769145,-0.94386 0,0.22247 1.3944125,2.26758 2.8408575,4.16654 0.955099,1.2539 1.297759,1.52136 1.949134,1.52136 1.127519,0 2.089176,1.03904 2.089176,2.25728 0,2.15455 -2.650266,3.31859 -4.147294,1.82156 -0.608697,-0.6087 -0.666562,-0.82799 -0.527751,-2.00003 l 0.155904,-1.31637 -2.1722007,-2.67722 c -1.6070762,-1.98071 -2.1968772,-2.54917 -2.2670511,-2.185 -0.052168,0.27073 -0.010129,1.84816 0.093419,3.5054 0.1401149,2.24247 0.2853078,3.0504 0.5676568,3.15875 0.2086629,0.0801 0.5611287,0.49704 0.7832573,0.92659 0.8401237,1.62462 -0.350635,3.38821 -2.2876865,3.38821 -0.7908734,0 -1.1419089,-0.16969 -1.6841104,-0.81406 z m 3.1186493,-13.39668 c 0.4605048,-0.36452 0.6656586,-0.71323 0.5448155,-0.92604 -0.4789657,-0.84349 -1.2463216,-1.46338 -1.6732903,-1.35172 -0.254738,0.0666 -0.6182494,-0.0658 -0.8078031,-0.29415 -0.5103305,-0.61491 -0.8413287,-0.50385 -0.6593435,0.22124 0.1235456,0.49225 0.034735,0.67619 -0.3918341,0.81158 -0.3033737,0.0963 -0.5515886,0.27637 -0.5515886,0.40018 0,0.12381 -0.063952,0.39177 -0.1421148,0.59546 -0.078163,0.20369 0.099425,0.67741 0.3946405,1.05272 0.5014412,0.63748 0.6029127,0.66241 1.5423132,0.3789 0.5530569,-0.16691 1.3379492,-0.56659 1.7442052,-0.88817 z"
       id="path14" /><path
       style="fill:#000000"
       d="m 39.767435,225.94591 c -0.0773,-0.0773 0.140977,-0.91616 0.485069,-1.86412 0.931111,-2.56518 0.91723,-2.58349 -1.274121,-1.67985 -2.124684,0.87615 -2.322633,0.80252 -2.329539,-0.86652 -0.0118,-2.85229 1.257969,-5.93342 3.312448,-8.03774 1.528213,-1.5653 4.126714,-2.97021 5.94463,-3.21404 l 1.05762,-0.14186 -0.0063,1.29161 c -0.0035,0.71039 -0.115955,1.76452 -0.249963,2.34252 -0.134008,0.57799 -0.201842,1.09271 -0.150743,1.14381 0.0511,0.0511 1.062698,-0.21345 2.247996,-0.58789 1.185299,-0.37443 2.283303,-0.68079 2.440009,-0.68079 0.189779,0 0.244334,0.70109 0.163379,2.09956 -0.09624,1.66257 -0.2956,2.45311 -0.957834,3.7983 -0.928799,1.88666 -2.915907,4.06425 -4.619687,5.06252 -1.731251,1.01437 -5.543887,1.85355 -6.062952,1.33449 z"
       id="path13" /><path
       style="fill:#000000"
       d="m 149.99919,58.252761 c -0.0762,-0.198462 0.16653,-1.171144 0.5393,-2.161516 0.37278,-0.990371 0.63699,-1.841456 0.58715,-1.8913 -0.0498,-0.04984 -0.77866,0.282034 -1.6196,0.737505 -1.72685,0.935298 -1.84303,0.879782 -2.1274,-1.016506 -0.3632,-2.421965 0.50685,-5.981611 1.99524,-8.16316 1.51115,-2.214906 4.57492,-4.296623 6.52231,-4.431666 l 0.73714,-0.05112 -0.0401,2.315104 c -0.0221,1.273308 -0.009,2.315104 0.0289,2.315104 0.038,0 0.98954,-0.425313 2.11463,-0.94514 1.1251,-0.519828 2.19581,-0.887516 2.37935,-0.817085 0.4936,0.189413 0.71382,2.784058 0.3878,4.569146 -0.94821,5.191779 -4.92276,8.973532 -10.23505,9.73857 -0.82841,0.119301 -1.16824,0.06632 -1.26964,-0.197938 z"
       id="path12" /><path
       style="fill:#000000"
       d="m 136.7374,75.750258 c -0.14923,-0.189204 -0.52919,-1.206588 -0.84437,-2.260852 -0.6383,-2.135119 -0.91945,-2.410846 -3.28977,-3.226356 -0.8317,-0.286146 -1.6238,-0.589252 -1.76023,-0.673569 -0.5685,-0.351355 0.14716,-0.933744 1.80163,-1.466116 0.97002,-0.312132 1.97452,-0.756644 2.23222,-0.987804 0.25771,-0.23116 0.77093,-1.411618 1.14049,-2.623239 0.89767,-2.942971 1.19071,-2.902024 2.22285,0.310595 0.32727,1.018646 0.7896,2.046652 1.0274,2.284458 0.23781,0.237807 1.23605,0.693998 2.21832,1.013759 1.34327,0.437282 1.78593,0.70151 1.78593,1.066035 0,0.365185 -0.44023,0.626316 -1.78593,1.059357 -0.98227,0.316088 -1.97925,0.747961 -2.21551,0.959718 -0.23626,0.211757 -0.69569,1.243386 -1.02096,2.292509 -0.67461,2.17591 -1.08718,2.79024 -1.51207,2.251505 z"
       id="path11" /><path
       style="fill:#000000"
       d="m 198.83437,105.28082 c -4.63779,-1.26194 -7.92364,-4.16174 -9.25742,-8.169749 l -0.56956,-1.711521 -1.3547,1.070829 c -1.66747,1.318056 -3.30997,2.165315 -5.34406,2.756641 -2.06349,0.599872 -6.75204,0.422727 -8.87426,-0.335291 l -1.4552,-0.519775 -0.0212,-2.456318 -0.0211,-2.456318 -1.90715,-0.484327 c -1.04893,-0.26638 -2.02168,-0.555112 -2.16167,-0.641628 -0.40597,-0.250903 -0.29453,-3.599424 0.1721,-5.171278 1.02108,-3.439509 3.20704,-6.440887 5.99311,-8.228706 l 1.3301,-0.853522 -0.63377,-0.409977 c -3.46507,-2.241509 -5.55191,-6.351616 -5.50996,-10.852031 0.0271,-2.910532 0.0769,-2.979619 2.48499,-3.448205 l 2.05514,-0.399906 0.0992,-2.085816 c 0.0546,-1.147199 0.21984,-2.231133 0.36725,-2.408743 0.1474,-0.177609 1.23111,-0.531017 2.40824,-0.785351 3.2447,-0.701059 6.12982,-0.202399 9.06892,1.567455 0.85437,0.514484 1.58318,0.935425 1.61956,0.935425 0.0364,0 0.14411,-0.587701 0.2394,-1.306003 0.24803,-1.869792 1.99881,-5.189608 3.59569,-6.818121 1.58173,-1.613066 4.11153,-3.222974 5.39077,-3.430567 0.85062,-0.138037 0.96454,-0.0598 2.04552,1.404778 0.62961,0.853025 1.17552,1.596778 1.21313,1.652784 0.0376,0.05601 0.94427,-0.330948 2.01478,-0.859896 1.07051,-0.528949 2.07247,-0.961725 2.22658,-0.961725 0.49618,0 2.15488,2.054522 2.98274,3.694513 1.58196,3.133841 2.00079,6.532564 1.18906,9.64901 -0.22183,0.851647 -0.35206,1.599716 -0.2894,1.662375 0.0627,0.06266 0.57158,-0.01315 1.13093,-0.168468 2.55107,-0.708367 6.32197,-0.150133 9.14311,1.353523 1.74903,0.932219 3.91243,2.727424 3.91243,3.246554 0,0.188394 -0.41006,1.157279 -0.91124,2.153078 -0.50119,0.995799 -0.88814,1.825331 -0.8599,1.843404 0.0282,0.01807 0.67033,0.364363 1.42687,0.769533 0.75654,0.40517 1.63385,1.011653 1.94959,1.347739 0.50271,0.535115 0.53714,0.716991 0.27698,1.463295 -1.10973,3.183375 -3.92091,6.535429 -6.62615,7.901027 -1.63127,0.823467 -4.92124,1.705089 -5.35727,1.435606 -0.35791,-0.2212 -0.25301,0.16775 0.44074,1.634227 1.00531,2.125045 1.35983,4.683421 0.98399,7.100909 -0.54253,3.489692 -2.40624,7.301177 -3.57007,7.301177 -0.32851,0 -1.42643,-0.22992 -2.43984,-0.51093 -1.0134,-0.281 -1.85073,-0.48936 -1.86072,-0.46302 -0.01,0.0264 -0.36957,1.00041 -0.79904,2.16457 l -0.78087,2.11667 -1.8506,0.054 c -1.01783,0.0297 -2.50544,-0.12417 -3.30581,-0.34195 z m 4.33319,-4.01155 c 0.41321,-1.12779 0.79418,-2.199348 0.84659,-2.381249 0.1329,-0.461289 0.47865,-0.422192 2.89002,0.326795 1.16416,0.361598 2.1913,0.659238 2.28252,0.661422 0.25184,0.006 1.2336,-2.402011 1.68346,-4.129136 1.00501,-3.858494 -0.0123,-7.311342 -3.02772,-10.276739 -1.39451,-1.371355 -1.71763,-2.258905 -0.82239,-2.258905 0.28201,0 1.32381,0.1887 2.3151,0.419332 3.28051,0.763234 6.4169,-0.01099 8.82947,-2.179559 1.28583,-1.155788 3.15935,-3.899916 3.15935,-4.627466 0,-0.335331 -0.57473,-0.774251 -1.86396,-1.423495 -1.02518,-0.516271 -1.93007,-1.110961 -2.01088,-1.321533 -0.0808,-0.210572 0.34745,-1.283615 0.95168,-2.384541 l 1.09858,-2.001683 -0.60906,-0.504401 c -0.33499,-0.27742 -1.38298,-0.891088 -2.32886,-1.363706 -1.47384,-0.736415 -2.06588,-0.874932 -4.1398,-0.968571 -2.75583,-0.124429 -4.20755,0.236223 -6.86584,1.705688 -0.88711,0.490381 -1.75031,0.891602 -1.91823,0.891602 -0.53925,0 -0.32737,-0.987673 0.49605,-2.31228 1.32502,-2.13151 2.09714,-4.688583 2.10349,-6.96626 0.008,-2.769881 -0.65166,-4.850929 -2.32556,-7.339706 -0.18141,-0.269718 -0.57869,-0.137346 -1.79519,0.598155 -0.85922,0.519489 -1.81834,1.128551 -2.13138,1.353471 -0.55013,0.395262 -0.61542,0.342047 -1.95128,-1.590342 -0.76016,-1.099608 -1.43268,-1.999288 -1.49449,-1.999288 -0.30558,0 -1.91938,0.966658 -2.81466,1.685963 -2.21233,1.777497 -4.15061,5.819607 -4.15061,8.655747 0,0.709575 0.1445,2.1328 0.32111,3.162723 0.27428,1.599485 0.26464,1.90831 -0.0661,2.117526 -0.71181,0.450211 -0.94671,0.262937 -1.72768,-1.377372 -1.00582,-2.112598 -2.7267,-3.813952 -4.87419,-4.81888 -1.42271,-0.665766 -2.05987,-0.805997 -3.70492,-0.815396 -1.0927,-0.0062 -2.31415,0.08021 -2.71433,0.192126 -0.72377,0.202405 -0.7276,0.215853 -0.7276,2.550242 v 2.346763 l -0.8599,0.152509 c -0.47294,0.08388 -1.47851,0.230674 -2.23459,0.32621 -1.30291,0.164629 -1.37891,0.21693 -1.45521,1.001416 -0.14852,1.526885 0.31733,3.990207 1.03153,5.454546 1.37374,2.81664 4.07149,4.804298 7.56809,5.576042 0.97216,0.214568 1.63221,0.518174 1.79734,0.826726 0.30986,0.578979 0.2897,0.588741 -2.34211,1.133731 -2.48383,0.514349 -4.85091,1.722832 -6.30493,3.21891 -1.52338,1.567445 -3.00303,4.577823 -3.20316,6.516924 -0.15161,1.468954 -0.13822,1.508385 0.60886,1.793305 0.42013,0.160229 1.33858,0.359751 2.04101,0.443382 1.85745,0.221148 1.96182,0.406617 1.66048,2.950672 -0.16728,1.412309 -0.16557,2.249689 0.005,2.420195 0.47941,0.47941 4.50863,0.831028 6.13607,0.535477 3.56263,-0.646992 7.24587,-3.321395 8.79169,-6.383654 0.53849,-1.066745 0.94727,-1.565833 1.2825,-1.565833 0.44388,0 0.50325,0.292427 0.60637,2.986432 0.10102,2.639029 0.2077,3.185343 0.9171,4.696355 0.96548,2.056471 1.8706,3.170658 3.46921,4.270528 1.50008,1.03209 4.3581,2.05668 5.75743,2.06402 l 1.06333,0.006 z"
       id="path10" /><path
       style="fill:#000000"
       d="m 192.52497,89.098438 c -0.95458,-0.807738 -0.98016,-1.73374 -0.0763,-2.763149 0.6879,-0.783475 0.83281,-1.220402 1.04188,-3.14142 0.13357,-1.227253 0.18832,-2.2909 0.12166,-2.363661 -0.0666,-0.07276 -0.86592,0.691673 -1.77614,1.698741 -1.23817,1.369907 -1.66077,2.035712 -1.67806,2.643772 -0.0643,2.261431 -3.75902,2.272327 -3.75902,0.01109 0,-0.88715 1.1057,-1.967352 2.03849,-1.991481 0.56419,-0.01459 1.07022,-0.400515 2.13332,-1.626977 0.76652,-0.884315 1.33816,-1.663367 1.2703,-1.731226 -0.25724,-0.257237 -5.23905,0.84855 -5.3709,1.192152 -0.22298,0.581064 -1.59388,1.153205 -2.32406,0.96994 -1.45707,-0.365701 -1.95676,-2.451012 -0.83895,-3.501136 0.80026,-0.751806 1.96328,-0.734018 2.81274,0.04302 0.67584,0.618224 0.67627,0.618255 3.14489,0.23323 1.35793,-0.211792 2.36996,-0.469517 2.24896,-0.572721 -0.121,-0.103204 -1.08795,-0.566996 -2.14877,-1.03065 -1.48411,-0.648664 -2.04431,-0.781165 -2.43,-0.574754 -0.83406,0.446377 -1.52691,0.305165 -2.10432,-0.428886 -0.69657,-0.885551 -0.70009,-1.950641 -0.009,-2.692554 1.00895,-1.082975 2.7233,-0.617552 3.1146,0.84557 0.17748,0.663608 0.47654,0.858772 2.30476,1.504074 1.15545,0.407835 2.14919,0.693141 2.20832,0.634012 0.0591,-0.05913 -0.53211,-1.123052 -1.31386,-2.364276 -1.04538,-1.659794 -1.5677,-2.25677 -1.97454,-2.25677 -0.83017,0 -1.78881,-1.163359 -1.76113,-2.13721 0.0313,-1.099715 0.73423,-1.83154 1.75931,-1.83154 1.53088,0 2.64784,1.439515 2.02295,2.607136 -0.20427,0.381674 0.0437,0.907345 1.21454,2.574259 0.80917,1.152056 1.55911,2.190231 1.66654,2.307055 0.10742,0.116825 0.33257,-0.99464 0.50033,-2.469923 0.28837,-2.535995 0.27606,-2.719136 -0.22564,-3.356944 -0.69929,-0.88901 -0.67058,-1.733979 0.0889,-2.616968 1.26436,-1.469916 3.34916,-0.621865 3.34916,1.362368 0,0.613837 -0.19294,1.029298 -0.6421,1.382603 -0.55412,0.435873 -0.681,0.853976 -0.92604,3.051484 -0.15617,1.400524 -0.28394,2.637203 -0.28394,2.748177 0,0.110973 0.83344,-0.625282 1.85208,-1.636122 1.51607,-1.504447 1.85208,-1.98987 1.85208,-2.675571 0,-1.810989 2.09784,-2.772025 3.42643,-1.569672 1.19523,1.081667 0.33813,3.424015 -1.23652,3.379244 -0.66692,-0.01896 -1.1159,0.298605 -2.58392,1.827642 -0.9772,1.017825 -1.7348,1.891022 -1.68355,1.940438 0.0513,0.04941 1.20554,-0.109114 2.56508,-0.352288 2.12797,-0.380619 2.54517,-0.542738 2.99863,-1.165234 0.39413,-0.541056 0.75173,-0.723101 1.42041,-0.723101 1.84578,0 2.70263,2.297778 1.27547,3.42038 -0.87544,0.688624 -1.43037,0.69183 -2.29305,0.01325 l -0.68029,-0.535124 -2.4395,0.532427 c -1.34171,0.292834 -2.4969,0.58984 -2.56707,0.660012 -0.0702,0.07017 0.16252,0.237887 0.5171,0.372698 0.35459,0.134812 1.46418,0.616684 2.46577,1.070828 1.23698,0.56087 1.90758,0.739218 2.09076,0.556041 0.45019,-0.450196 1.89831,-0.309006 2.38873,0.232898 0.55519,0.613478 0.62997,1.969473 0.14109,2.558533 -0.95248,1.147664 -2.96998,0.829747 -3.30911,-0.521447 -0.12234,-0.48745 -0.6606,-0.835708 -2.43584,-1.576024 -1.25334,-0.52267 -2.32598,-0.903135 -2.38363,-0.845479 -0.0577,0.05766 0.12857,0.441611 0.41383,0.853232 0.28527,0.411622 0.83655,1.31395 1.22508,2.005174 0.52058,0.926163 0.86535,1.256771 1.3106,1.256771 1.59631,0 2.34162,2.410379 1.05761,3.42038 -0.93515,0.735593 -1.83022,0.690892 -2.65364,-0.132526 -0.54572,-0.545719 -0.65256,-0.855483 -0.53819,-1.560301 0.11899,-0.733219 -0.0841,-1.241401 -1.22193,-3.057049 l -1.36465,-2.177644 -0.30984,2.337989 c -0.28732,2.168083 -0.27315,2.384637 0.19507,2.979877 0.84866,1.078892 0.61921,2.213087 -0.57235,2.829268 -0.98711,0.510457 -1.65454,0.48863 -2.32173,-0.07593 z m 2.99026,-9.7555 c 0.23556,-0.0904 0.61557,-0.5265 0.84446,-0.969121 0.39881,-0.771222 0.39014,-0.824782 -0.20822,-1.284971 -0.73318,-0.563879 -1.11271,-0.601416 -1.89855,-0.187778 -1.10507,0.581664 -1.25274,1.269944 -0.44563,2.077057 0.55084,0.550834 0.98276,0.643092 1.70794,0.364813 z"
       id="path9" /><path
       style="fill:#000000"
       d="m 229.68097,108.38351 c -0.087,-0.14074 -0.39669,-1.02822 -0.68825,-1.97218 -0.69309,-2.24397 -1.11062,-2.69398 -3.17085,-3.4176 -1.02074,-0.35852 -1.71979,-0.75608 -1.71979,-0.97807 0,-0.21431 0.78898,-0.69737 1.84768,-1.13126 1.01622,-0.41649 1.95276,-0.86234 2.0812,-0.990778 0.12844,-0.12844 0.56275,-1.166267 0.96514,-2.306283 0.41547,-1.177081 0.88319,-2.072756 1.08239,-2.072756 0.20505,0 0.60817,0.824364 0.97037,1.984375 0.34078,1.091407 0.79539,2.161714 1.01026,2.378461 0.21486,0.216751 1.18207,0.694971 2.14935,1.062721 1.71936,0.65368 2.33028,1.19722 1.62343,1.44438 -2.29646,0.80299 -3.46175,1.30396 -3.785,1.62721 -0.21406,0.21406 -0.67713,1.30244 -1.02904,2.41861 -0.6134,1.94554 -0.99607,2.50462 -1.33689,1.95317 z"
       id="path8" /><path
       style="fill:#000000"
       d="m 174.63547,127.33073 c 0.0981,-0.32742 0.40526,-1.11973 0.6825,-1.76068 0.27724,-0.64095 0.43977,-1.22967 0.36118,-1.30826 -0.0786,-0.0786 -0.79798,0.17838 -1.59863,0.57106 -1.75986,0.86312 -1.82911,0.77593 -1.6463,-2.07269 0.15694,-2.44551 1.21663,-4.74418 3.04093,-6.59638 1.35402,-1.37473 3.97515,-2.78927 5.16912,-2.78961 0.66648,-1.9e-4 0.72664,0.0831 0.71608,0.99198 -0.006,0.5457 -0.10941,1.4982 -0.22905,2.11666 -0.11965,0.61847 -0.11718,1.12448 0.005,1.12448 0.12266,0 1.01207,-0.297 1.97647,-0.66 0.9644,-0.363 1.86009,-0.5941 1.99042,-0.51355 0.77632,0.47979 -0.21462,4.8774 -1.58613,7.03896 -1.57802,2.48704 -4.99094,4.45334 -7.72967,4.45334 -1.25659,0 -1.32087,-0.0332 -1.1524,-0.59531 z"
       id="path7" /><path
       style="fill:#000000"
       d="m 253.19275,168.2835 c -0.21086,-0.50465 -0.38338,-1.03597 -0.38338,-1.1807 0,-0.14474 -0.24757,-0.92487 -0.55017,-1.73363 -0.61285,-1.63798 -1.24285,-2.0914 -4.01389,-2.88885 -2.21497,-0.63742 -2.02886,-1.0273 0.95837,-2.00764 1.00005,-0.32819 2.03916,-0.8176 2.30913,-1.08757 0.26996,-0.26997 0.81242,-1.56511 1.20545,-2.87809 0.44254,-1.47835 0.85092,-2.38723 1.07262,-2.38723 0.39768,0 0.36333,-0.078 1.12464,2.55521 0.30113,1.04156 0.75506,2.15006 1.00872,2.46332 0.25367,0.31327 1.41277,0.90516 2.57578,1.31533 2.81823,0.99392 2.84786,1.36003 0.1819,2.24788 -1.15145,0.38347 -2.33556,0.96094 -2.63135,1.28326 -0.29579,0.32232 -0.85224,1.62784 -1.23655,2.90115 -0.38431,1.2733 -0.82005,2.3151 -0.96832,2.3151 -0.14827,0 -0.4421,-0.41289 -0.65295,-0.91754 z"
       id="path6" /><path
       style="fill:#000000"
       d="m 176.92716,171.66452 c -0.13596,-0.26351 -0.45517,-1.13395 -0.70934,-1.93431 -0.70235,-2.21155 -0.96014,-2.48285 -3.02836,-3.18697 -1.27992,-0.43575 -1.86284,-0.76435 -1.81297,-1.022 0.0404,-0.20887 0.90496,-0.72048 1.92118,-1.13692 1.01623,-0.41645 1.95277,-0.86226 2.08121,-0.9907 0.12844,-0.12844 0.56275,-1.16627 0.96514,-2.30628 0.43064,-1.22006 0.88045,-2.07276 1.09341,-2.07276 0.21772,0 0.62537,0.8144 1.02364,2.04497 0.36402,1.12473 0.84044,2.21193 1.05872,2.416 0.21828,0.20407 1.207,0.63514 2.19714,0.95794 2.30622,0.75184 2.28697,1.2262 -0.0839,2.06819 -0.94398,0.33523 -1.89492,0.78568 -2.1132,1.001 -0.21828,0.21532 -0.70213,1.30323 -1.07522,2.41757 -0.70543,2.10694 -1.09764,2.55779 -1.51741,1.74427 z"
       id="path5" /><path
       style="fill:#000000"
       d="m 225.36534,227.26675 c -3.90152,-1.05082 -7.57278,-4.04879 -9.3499,-7.63516 -0.58502,-1.18062 -1.20498,-2.89016 -1.3777,-3.79898 -0.17271,-0.90882 -0.38119,-1.6524 -0.46328,-1.6524 -0.0821,0 -0.37242,0.65656 -0.64519,1.45902 -0.69337,2.03986 -2.24001,4.30032 -4.18709,6.11957 -2.95211,2.7583 -6.22956,4.06308 -10.20596,4.06308 -2.67954,0 -2.79013,-0.14899 -2.80152,-3.77435 -0.007,-2.1946 -0.0683,-2.56045 -0.40787,-2.42923 -1.09365,0.42262 -3.88631,0.93047 -4.72721,0.85965 -0.85561,-0.0721 -0.98186,-0.18544 -1.26762,-1.13837 -0.44406,-1.48077 -0.42444,-5.50606 0.0363,-7.46024 0.70855,-3.00487 1.87287,-5.04017 4.21314,-7.36484 1.233,-1.22478 2.79257,-2.46861 3.68122,-2.93595 l 1.54188,-0.81087 -2.23903,-0.17211 c -3.68568,-0.2833 -7.2843,-1.72697 -9.54572,-3.82948 -1.8231,-1.69499 -4.39588,-6.61351 -4.39588,-8.40383 0,-0.48838 1.13322,-1.04181 3.44509,-1.68246 1.05707,-0.29293 1.96658,-0.57724 2.02114,-0.63179 0.0546,-0.0546 -0.26621,-0.88004 -0.71281,-1.8344 -0.44659,-0.95436 -0.83561,-2.25206 -0.86448,-2.88378 l -0.0525,-1.14858 1.6537,-0.81447 c 0.90953,-0.44795 2.25807,-0.95397 2.99674,-1.12448 1.93688,-0.44708 5.70751,-0.3877 7.40578,0.11663 2.05434,0.61007 4.84876,2.07544 6.08132,3.18899 0.5823,0.52607 1.1148,0.90043 1.18333,0.8319 0.0685,-0.0685 -0.008,-0.82937 -0.16948,-1.69075 -0.83472,-4.44539 0.8153,-9.85991 4.1273,-13.54365 1.23626,-1.37502 3.78171,-3.23604 4.42616,-3.23604 0.42429,0 2.23575,1.84067 3.12461,3.175 0.33928,0.50932 0.64163,0.96184 0.67189,1.0056 0.0302,0.0438 0.70574,-0.57117 1.50109,-1.36651 0.94227,-0.94227 1.83142,-1.56154 2.55211,-1.77746 1.08303,-0.32448 1.12503,-0.31297 2.01917,0.55367 2.10978,2.04487 4.09815,7.33408 4.09815,10.90135 0,2.01852 -0.59726,4.99776 -1.35747,6.77124 -0.61161,1.42683 -0.61571,1.56307 -0.0316,1.04961 0.88849,-0.781 3.38698,-2.01548 5.18724,-2.56298 2.21408,-0.67334 5.36505,-0.72763 7.673,-0.13219 1.86817,0.48197 4.6922,1.89478 6.01188,3.00762 l 0.90548,0.76358 -0.66146,1.26803 c -0.3638,0.69741 -1.30273,1.96083 -2.08651,2.80758 -0.78379,0.84676 -1.3791,1.58248 -1.32292,1.63494 0.0562,0.0525 1.26376,0.63635 2.6835,1.29753 1.41975,0.66119 2.65507,1.39422 2.74515,1.62897 0.32084,0.8361 -1.49436,3.79553 -3.42363,5.58173 -3.3527,3.10409 -7.18192,4.37587 -11.66053,3.87276 -1.32725,-0.14909 -2.45131,-0.23442 -2.49792,-0.18962 -0.0466,0.0448 0.44396,0.44521 1.09016,0.88981 2.73453,1.88141 5.07346,5.43343 5.90513,8.96786 0.55115,2.34224 0.36103,5.63052 -0.47792,8.26646 -0.75307,2.36607 -0.97904,2.45573 -3.7868,1.50249 -1.01864,-0.34583 -2.02055,-0.67654 -2.22647,-0.73491 -0.27992,-0.0794 -0.45775,0.39454 -0.70479,1.87825 -0.18172,1.09141 -0.47138,2.37133 -0.64368,2.84427 -0.30426,0.83514 -0.35634,0.8594 -1.80875,0.84249 -0.82251,-0.01 -2.11763,-0.18499 -2.87805,-0.3898 z m -10.00358,-15.05007 c 0.96907,-0.40491 1.72886,-1.56702 1.72886,-2.64433 0,-0.36597 -0.32929,-1.05649 -0.73177,-1.5345 l -0.73178,-0.8691 0.23155,-2.97656 c 0.12735,-1.63711 0.33323,-2.97656 0.45751,-2.97656 0.12428,0 1.11528,1.01722 2.20223,2.2605 1.85524,2.12207 1.95992,2.30741 1.7093,3.02635 -0.20467,0.58711 -0.16667,0.97721 0.16283,1.67158 0.75986,1.6013 2.69509,1.99545 4.07917,0.83082 1.99936,-1.68235 0.89806,-4.7625 -1.66833,-4.66602 -0.79163,0.0298 -1.03488,-0.17928 -2.76617,-2.37715 -1.04401,-1.32538 -1.84789,-2.46009 -1.78639,-2.5216 0.0615,-0.0615 1.45924,0.014 3.10608,0.16776 2.88974,0.26981 3.01656,0.30805 3.63295,1.09565 0.84767,1.08313 1.72818,1.40109 2.85242,1.03006 2.00497,-0.6617 2.62978,-3.05428 1.17701,-4.50706 -1.00847,-1.00846 -2.30109,-1.04644 -3.42511,-0.10064 l -0.79953,0.67276 -3.09966,-0.40651 c -1.70481,-0.22357 -3.15372,-0.46056 -3.2198,-0.52664 -0.0661,-0.0661 0.87575,-1.06816 2.09295,-2.22686 l 2.21309,-2.10672 1.24201,0.14363 c 1.12136,0.12968 1.31925,0.0664 2.03697,-0.65132 0.43723,-0.43723 0.87291,-1.10554 0.96818,-1.48513 0.22544,-0.89823 -0.54954,-2.23998 -1.67264,-2.8959 -0.71115,-0.41534 -0.98981,-0.44694 -1.74458,-0.19784 -1.25136,0.41298 -1.79615,1.1145 -1.95416,2.51634 -0.1282,1.13739 -0.25955,1.30384 -2.40947,3.05345 -1.25064,1.01777 -2.38049,1.85049 -2.51078,1.85049 -0.13718,0 -0.15549,-1.41123 -0.0435,-3.35266 l 0.19338,-3.35265 0.89678,-0.84578 c 0.74331,-0.70103 0.89678,-1.03635 0.89678,-1.95936 0,-0.87804 -0.16359,-1.27719 -0.77339,-1.88699 -1.11835,-1.11835 -2.41953,-1.07298 -3.61869,0.12619 -1.17444,1.17443 -1.23007,2.42635 -0.161,3.62285 l 0.73858,0.82661 -0.32389,3.21246 c -0.17814,1.76685 -0.33191,3.32888 -0.34171,3.47119 -0.01,0.14231 -1.02984,-0.74803 -2.26677,-1.97853 -2.18158,-2.17025 -2.24896,-2.27428 -2.24896,-3.47248 0,-1.09039 -0.11338,-1.33476 -0.96709,-2.08432 -0.81911,-0.71919 -1.11062,-0.82582 -1.90511,-0.6969 -1.41705,0.22996 -2.53973,1.48549 -2.53973,2.84027 0,0.89638 0.15364,1.22361 0.87869,1.87145 0.71776,0.64131 1.07443,0.77098 1.94738,0.70795 1.04097,-0.0752 1.11921,-0.0191 3.01789,2.1618 1.07207,1.23143 1.94922,2.31514 1.94922,2.40824 0,0.0931 -1.38047,0.25555 -3.06772,0.36097 l -3.06771,0.19168 -0.83489,-0.80311 c -1.18009,-1.13518 -1.97104,-1.26643 -3.09047,-0.51286 -1.73463,1.16772 -1.97902,2.907 -0.60197,4.28406 1.0066,1.00659 2.42651,0.93815 3.71669,-0.17915 l 0.99295,-0.85989 3.01965,0.13229 3.01966,0.13229 -2.0075,2.11298 c -1.98109,2.08518 -2.02526,2.11333 -3.35669,2.13935 -1.09715,0.0215 -1.4939,0.16501 -2.12378,0.76848 -0.42603,0.40816 -0.84746,1.07387 -0.93652,1.47936 -0.32495,1.47947 1.2145,3.15712 2.89703,3.15712 0.36873,0 1.05062,-0.3397 1.5153,-0.75489 0.67988,-0.60748 0.85579,-0.98208 0.9008,-1.91823 0.0511,-1.06291 0.20122,-1.29712 1.73899,-2.71311 0.92568,-0.85238 2.02,-1.79 2.43181,-2.0836 l 0.74876,-0.53382 -0.18938,3.14193 c -0.13444,2.23043 -0.29527,3.20397 -0.55438,3.35578 -0.65594,0.38433 -1.36774,1.28077 -1.52986,1.92674 -0.25169,1.0028 0.49902,2.45253 1.49381,2.88475 1.0936,0.47514 1.10035,0.47521 2.18364,0.0226 z"
       id="path4" /><path
       style="fill:#000000"
       d="m 172.78615,227.00693 c -2.16578,-0.88023 -3.31367,-1.89526 -4.31271,-3.81353 -0.70288,-1.34959 -0.8599,-1.95371 -0.8599,-3.30829 0,-1.49544 0.38765,-3.32365 0.70474,-3.32365 0.26632,0 1.32465,0.641 2.23183,1.35176 l 0.9522,0.74602 0.32736,-1.46281 c 0.18005,-0.80455 0.49268,-1.52626 0.69474,-1.60379 0.55993,-0.21487 2.1109,0.8652 3.02253,2.10483 1.41211,1.92017 1.93304,4.63542 1.31575,6.85807 -0.35441,1.27608 -0.63644,1.41962 -1.48218,0.75436 -0.38202,-0.3005 -0.77624,-0.54636 -0.87605,-0.54636 -0.0998,0 -0.10436,0.60103 -0.0101,1.33561 0.0942,0.73459 0.0975,1.38123 0.007,1.43699 -0.0902,0.0558 -0.86219,-0.18239 -1.71551,-0.52921 z"
       id="path3" /><path
       style="fill:#000000"
       d="m 131.10104,259.16752 v -3.44773 h 3.33423 3.33424 l -0.10155,3.37344 -0.10155,3.37344 -3.23269,0.0743 -3.23268,0.0743 z"
       id="path2" /><path
       style="fill:#000000"
       d="m 84.983294,262.43052 c -0.101385,-0.10139 -0.184336,-1.65278 -0.184336,-3.44753 v -3.2632 h 3.315197 3.315197 l -0.07405,3.37344 -0.07405,3.37344 -3.05681,0.0741 c -1.681246,0.0408 -3.139762,-0.009 -3.241146,-0.11024 z"
       id="path1" /></g></svg>
