<?xml version="1.0" encoding="UTF-8" standalone="no"?>
<!-- Created with Inkscape (http://www.inkscape.org/) -->

<svg
   width="319.01746mm"
   height="326.18579mm"
   viewBox="0 0 319.01746 326.18579"
   version="1.1"
   id="svg1"
   xml:space="preserve"
   sodipodi:docname="stamp_goal_star_1.svg"
   inkscape:version="1.4.4 (dcaf3e7, 2026-05-05)"
   xmlns:inkscape="http://www.inkscape.org/namespaces/inkscape"
   xmlns:sodipodi="http://sodipodi.sourceforge.net/DTD/sodipodi-0.dtd"
   xmlns="http://www.w3.org/2000/svg"
   xmlns:svg="http://www.w3.org/2000/svg"><sodipodi:namedview
     id="namedview1"
     pagecolor="#ffffff"
     bordercolor="#000000"
     borderopacity="0.25"
     inkscape:showpageshadow="2"
     inkscape:pageopacity="0.0"
     inkscape:pagecheckerboard="0"
     inkscape:deskcolor="#d1d1d1"
     inkscape:document-units="mm"
     inkscape:zoom="0.021089718"
     inkscape:cx="616.41413"
     inkscape:cy="592.70589"
     inkscape:window-width="944"
     inkscape:window-height="250"
     inkscape:window-x="0"
     inkscape:window-y="33"
     inkscape:window-maximized="0"
     inkscape:current-layer="layer1"><inkscape:page
       x="0"
       y="-3.273496e-21"
       width="319.01746"
       height="326.18579"
       id="page2"
       margin="0"
       bleed="0" /></sodipodi:namedview><defs
     id="defs1" /><g
     inkscape:label="Layer 1"
     inkscape:groupmode="layer"
     id="layer1"
     transform="translate(48.537764,-4.8079794)"><path
       style="fill:#000000"
       d="m 62.794991,330.66302 c -0.113889,-0.1819 -0.758383,-2.89057 -1.432208,-6.01927 l -1.225138,-5.68854 -9.762052,-0.0125 c -5.369129,-0.007 -9.970412,-0.1089 -10.225073,-0.22674 -0.875785,-0.40526 -0.5029,-1.35518 1.363546,-3.47363 l 1.826568,-2.0732 -4.406255,-2.36299 C 19.66759,300.47375 2.111652,287.13015 -9.2996677,274.14529 -18.708512,263.43903 -26.200172,252.38316 -32.294353,240.2107 c -5.070195,-10.12715 -8.550041,-19.56529 -11.450952,-31.05757 -2.885022,-11.42935 -4.195566,-20.72456 -4.670361,-33.12517 -1.32768,-34.67608 8.185164,-68.12403 27.902686,-98.10817 C -9.1725414,60.674554 3.3670596,47.332137 19.314582,35.542369 45.671943,16.05676 75.877948,5.6442733 108.34687,4.8515323 c 23.55911,-0.5752043 47.245,4.556218 68.54504,14.8499187 21.993,10.628582 41.56695,26.351663 56.66672,45.518424 7.57784,9.618862 13.38214,18.826038 18.84791,29.897832 9.98561,20.227493 15.47695,38.761943 17.48097,59.002083 0.48555,4.90393 0.73647,15.46979 0.5053,21.27719 -0.58612,14.72425 -3.29077,29.3915 -7.92904,42.99904 -8.21435,24.09892 -21.91677,45.91027 -40.41256,64.32827 -11.42663,11.37857 -23.6554,20.42267 -37.96735,28.07973 -2.583,1.38193 -4.69636,2.59581 -4.69636,2.69751 0,0.10171 0.60657,0.89414 1.34793,1.76097 1.80244,2.10747 2.05101,2.65618 1.4675,3.23946 -0.41297,0.41282 -1.33499,0.45072 -10.33609,0.42484 l -9.88267,-0.0284 -0.58351,2.93882 c -1.03712,5.22347 -1.80289,8.37577 -2.13058,8.77061 -0.17616,0.21226 -0.54648,0.38592 -0.82293,0.38592 -0.84715,0 -6.38693,-2.90602 -10.24335,-5.37338 l -1.68266,-1.07658 -2.1538,0.46886 c -8.83096,1.92241 -13.04965,2.61116 -19.50579,3.18457 -14.98597,1.33099 -29.913396,0.31904 -45.293316,-3.0705 l -3.643224,-0.80293 -1.648443,1.0598 c -2.051049,1.31864 -6.342572,3.78019 -8.409781,4.82371 -1.657006,0.83646 -2.73343,0.99615 -3.071795,0.45572 z m 9.47656,-8.83373 c 8.464271,-5.36236 16.249027,-12.13172 22.169961,-19.27825 1.91723,-2.31408 5.24482,-6.80769 5.463817,-7.37839 0.104271,-0.27173 -0.779291,-1.93064 -1.312063,-2.46341 -0.03631,-0.0363 -2.1582,0.98702 -4.715317,2.27406 -11.610559,5.84378 -20.786161,8.48189 -28.347309,8.15023 l -3.393318,-0.14884 -3.618141,2.73651 c -4.623656,3.49701 -11.158766,8.91846 -11.158766,9.25718 0,0.24233 7.640358,0.1507 11.445314,-0.13727 2.284513,-0.17289 3.805574,-0.18288 4.084433,-0.0268 0.3267,0.18283 0.700569,1.54319 1.412255,5.13862 0.532359,2.68948 1.046226,5.09401 1.141925,5.3434 0.154269,0.40202 0.373131,0.34397 1.930283,-0.51195 0.965957,-0.53095 3.169573,-1.86073 4.896926,-2.95506 z m 84.496009,3.27748 c 0.0794,-0.32742 0.5515,-2.66826 1.04917,-5.20186 0.49767,-2.5336 1.06606,-4.76775 1.26308,-4.96478 0.29304,-0.29304 1.02992,-0.3098 4.04911,-0.0921 4.33134,0.31228 11.76474,0.35802 11.75141,0.0723 -0.013,-0.2789 -6.26427,-5.30644 -11.25481,-9.05164 -3.79949,-2.85135 -4.27228,-3.13214 -4.99896,-2.96883 -1.81527,0.40793 -7.63734,0.16337 -10.59218,-0.44494 -5.80745,-1.19558 -13.81857,-4.2044 -21.38218,-8.03072 -2.01031,-1.01699 -3.68627,-1.80714 -3.72437,-1.7559 -0.0381,0.0512 -0.32865,0.52488 -0.64568,1.05253 l -0.5764,0.95937 1.88621,2.61251 c 5.97116,8.27039 14.16053,16.25814 22.82345,22.26155 2.96648,2.05577 9.62222,6.14784 9.99945,6.14784 0.11461,0 0.27333,-0.26789 0.3527,-0.59532 z m -33.73631,-2.70388 c 6.0057,-0.53119 15.34749,-1.95817 16.33834,-2.49572 0.21323,-0.11568 -0.78127,-1.12613 -2.79444,-2.83924 l -3.12549,-2.65965 -3.42327,0.47137 c -6.57841,0.90583 -10.57595,1.15872 -18.23993,1.15391 -7.79439,-0.005 -10.79102,-0.20198 -18.726928,-1.23165 l -4.439425,-0.576 -1.381408,1.32434 c -0.759774,0.72839 -2.129869,1.95684 -3.044654,2.72988 -0.914786,0.77304 -1.616775,1.452 -1.559976,1.5088 0.456094,0.4561 15.218131,2.47009 20.685721,2.82217 4.05934,0.2614 15.80468,0.13733 19.71146,-0.20821 z m -4.89792,-9.13705 c 6.69625,-0.35565 12.57084,-1.05749 12.57084,-1.50183 0,-0.19219 -0.0938,-0.34942 -0.20842,-0.34942 -0.56656,0 -8.90173,-9.82819 -11.13378,-13.1281 l -0.89116,-1.3175 -2.68072,-0.0119 c -1.81703,-0.008 -3.0498,-0.15171 -3.82629,-0.44582 -1.09144,-0.41341 -1.22272,-0.40773 -2.77812,0.12035 -1.28951,0.4378 -2.04952,0.527 -3.61693,0.4245 l -1.98438,-0.12976 -1.5875,2.264 c -2.177591,3.10556 -5.416755,7.10583 -8.174967,10.09585 -1.932011,2.09438 -2.229868,2.53029 -1.828946,2.67666 0.782632,0.28573 8.863853,1.07823 13.158023,1.29038 5.87497,0.29023 7.72133,0.29203 12.98235,0.0126 z M 51.4968,306.33612 c 1.654051,-1.33794 3.006727,-2.4988 3.005946,-2.57968 -7.8e-4,-0.0809 -1.340233,-0.72763 -2.976562,-1.43721 -9.528661,-4.13205 -22.705677,-11.86078 -31.51711,-18.48577 -18.1596743,-13.6536 -32.725736,-31.61129 -42.234655,-52.06876 -6.496611,-13.9768 -10.887033,-29.5123 -12.558914,-44.4397 -1.554006,-13.87495 -1.18736,-28.26186 1.061039,-41.63439 6.595571,-39.22766 27.9304045,-74.471044 59.255746,-97.885599 17.131731,-12.805347 36.296476,-21.552838 56.885418,-25.964587 14.89268,-3.191168 31.340332,-3.891786 46.695432,-1.989077 24.00106,2.974063 47.50635,12.673314 67.60457,27.896432 11.4104,8.642647 21.52343,18.749735 29.81548,29.797962 6.09087,8.115398 10.46125,15.231874 15.25968,24.848009 8.28804,16.60934 13.17225,33.25333 15.29555,52.12292 0.58497,5.19851 0.67229,22.39232 0.13975,27.51666 -1.76415,16.97557 -6.07133,32.76344 -13.13721,48.15417 -10.62042,23.13315 -24.0716,40.00377 -43.63243,54.72431 -9.62166,7.2408 -22.55534,14.7006 -31.31975,18.06439 -0.90737,0.34825 -1.65151,0.70007 -1.65365,0.78182 -0.007,0.28296 6.072,5.01073 6.44325,5.01073 0.56703,0 10.77689,-5.22642 13.92579,-7.1286 4.12498,-2.49182 10.2642,-6.63582 14.15521,-9.55483 11.20747,-8.40777 22.67138,-19.90169 31.12467,-31.20615 17.55907,-23.4815 27.87689,-50.11059 30.70373,-79.24271 0.43669,-4.50036 0.43463,-20.56981 -0.003,-25.26771 -1.65726,-17.78069 -5.93576,-34.01797 -13.43717,-50.99529 C 239.72681,81.223667 223.44345,60.185739 202.80313,43.882197 172.12231,19.647795 134.85961,8.6543712 96.705208,12.580672 64.1553,15.93024 32.965059,30.328359 8.5989564,53.252506 -15.814589,76.221289 -32.634023,106.53536 -39.278344,139.5429 c -2.040215,10.13535 -2.708598,16.22535 -2.964628,27.01231 -0.790377,33.29989 9.016827,65.37921 28.068035,91.81042 12.7208552,17.64861 28.00647,31.23117 48.835352,43.39431 3.589127,2.09589 13.106031,7.00881 13.576886,7.00881 0.138673,0 1.605448,-1.09468 3.259499,-2.43263 z m 116.7782,-7.04466 c 5.69253,-2.40258 17.17183,-8.29106 17.1915,-8.81864 0.0248,-0.66387 -16.91635,-6.5749 -18.84376,-6.5749 -0.4721,0 -0.49584,0.11339 -0.2908,1.38906 0.1228,0.76399 0.22157,3.05594 0.2195,5.09323 -0.005,4.52413 -0.56447,6.70573 -2.2768,8.872 -0.79888,1.01065 -0.99935,1.43244 -0.75315,1.5846 0.37476,0.23161 1.10825,-0.007 4.75351,-1.54535 z m -110.066668,1.37342 c 0,-0.0915 -0.425049,-0.63685 -0.944554,-1.21188 -2.351085,-2.60237 -3.294616,-7.70302 -2.461321,-13.3057 0.164061,-1.10307 0.225024,-2.07884 0.135474,-2.16839 -0.407,-0.407 -9.063148,2.33648 -14.588974,4.62383 -4.37756,1.81204 -4.29138,1.61961 -1.444115,3.22467 5.665502,3.19375 11.848443,6.22971 16.703032,8.20155 1.937732,0.78706 2.600458,0.94913 2.600458,0.63592 z m 15.006306,-2.89478 c 5.570292,-1.24932 10.911528,-3.28139 18.809325,-7.15602 l 5.108337,-2.50613 -0.181835,-2.56804 c -0.100009,-1.41242 -0.232897,-2.65733 -0.295307,-2.76647 -0.180178,-0.31509 -3.406414,-0.21556 -6.432242,0.19844 -3.798217,0.51968 -5.723253,0.49134 -7.011458,-0.1032 -4.234151,-1.95419 -3.486956,-7.43111 1.107798,-8.12013 1.505742,-0.2258 5.959648,0.68524 9.270078,1.8962 1.422689,0.52041 2.777385,1.00532 3.010436,1.07756 0.3378,0.10472 0.456126,-0.14218 0.583482,-1.2175 0.08786,-0.74187 0.363441,-1.99503 0.612394,-2.7848 0.54785,-1.73798 0.661307,-1.56282 -2.858703,-4.41343 -5.802481,-4.69902 -14.011296,-9.4463 -19.327656,-11.17747 -5.24936,-1.70936 -9.813008,-2.06734 -12.317694,-0.96624 -1.684648,0.7406 -3.283276,2.46228 -3.894243,4.194 -1.064709,3.01779 -0.737476,8.73159 0.804716,14.05115 0.358655,1.23712 0.6521,2.56842 0.6521,2.95845 0,0.39002 -0.411203,2.31353 -0.913784,4.27447 -1.842853,7.19032 -1.424039,12.12347 1.217996,14.3466 2.229363,1.87588 6.069967,2.12517 12.05626,0.78256 z m 85.727412,3e-4 c 2.6163,-1.27909 3.35018,-3.04858 3.33939,-8.05165 -0.007,-3.21315 -0.0956,-3.89074 -0.88322,-6.74687 -1.21885,-4.42012 -1.22844,-4.66953 -0.30639,-7.97071 1.11715,-3.99966 1.36234,-5.58904 1.36234,-8.83091 0,-5.84672 -1.95516,-8.79178 -6.35067,-9.56603 -4.65405,-0.8198 -13.4283,2.03502 -21.51429,6.99996 -2.97785,1.82845 -7.84347,5.39365 -10.07085,7.37926 l -1.29102,1.15088 0.56341,2.228 c 0.30988,1.2254 0.56342,2.51688 0.56342,2.86995 0,0.73842 -0.33916,0.79827 3.9806,-0.70243 3.87158,-1.34501 7.37449,-2.03508 9.05279,-1.78341 3.08562,0.46272 4.57651,3.66258 2.97764,6.39084 -1.30724,2.23064 -3.28066,2.61055 -9.51869,1.83248 -1.74071,-0.21712 -3.83625,-0.39476 -4.65673,-0.39476 h -1.49179 l -0.16825,2.37025 c -0.0925,1.30364 -0.19966,2.51896 -0.23805,2.7007 -0.0755,0.35732 7.85645,4.47216 11.83644,6.14036 10.38695,4.35368 18.98626,5.85541 22.81392,3.98409 z m -51.38984,-5.25609 c 0.95298,-0.39818 0.97841,-0.45377 1.44681,-3.16258 0.32062,-1.85413 0.62072,-2.27881 1.61031,-2.27881 1.12069,0 1.47231,0.55585 1.83779,2.90529 0.30772,1.97813 0.39565,2.17557 1.14045,2.56072 1.00418,0.51928 3.18112,0.3191 4.14826,-0.38146 1.67493,-1.21324 2.62532,-4.96359 2.64036,-10.41909 0.0202,-7.34264 -1.49201,-10.57748 -4.96264,-10.61563 -1.73973,-0.0191 -2.31873,0.22879 -2.92192,1.25112 -0.78568,1.33163 -2.96683,1.62196 -3.3405,0.44466 -0.37555,-1.18328 -1.15601,-1.62061 -2.8921,-1.62061 -2.96977,0 -4.27939,1.54267 -5.04715,5.94534 -0.97849,5.61106 0.0401,12.74959 2.09471,14.67976 1.09661,1.03021 2.7789,1.30413 4.24562,0.69129 z M 33.79886,286.9721 c 6.491058,-2.91481 13.148481,-5.27449 19.117806,-6.77618 1.81901,-0.45761 3.414178,-0.93673 3.544817,-1.06472 0.140116,-0.13727 0.095,-0.91654 -0.110017,-1.90018 -0.318904,-1.53007 -0.501991,-1.82498 -2.2219,-3.57886 l -1.874359,-1.91137 -2.116666,1.06062 c -2.607805,1.30672 -4.93971,1.72948 -7.414512,1.34419 -5.051915,-0.78652 -8.665839,-4.54121 -6.734363,-6.99668 0.294525,-0.37443 1.207635,-1.00962 2.029131,-1.41155 1.858258,-0.90916 5.200835,-1.14588 7.489179,-0.53039 0.800169,0.21522 1.483588,0.36257 1.518709,0.32745 0.03512,-0.0351 -0.886768,-1.66247 -2.048644,-3.61633 -1.161876,-1.95386 -2.233257,-3.76083 -2.380847,-4.01549 -0.224516,-0.3874 -0.667724,-0.46408 -2.7135,-0.46949 -2.856045,-0.008 -4.124738,-0.25996 -6.166994,-1.22693 -4.26149,-2.01772 -7.379736,-7.38171 -5.260348,-9.04882 1.549626,-1.21893 5.542747,-0.97258 8.299696,0.51204 0.788796,0.42477 1.474233,0.73225 1.523193,0.68329 0.04896,-0.049 -0.265256,-1.20936 -0.698258,-2.57867 -0.433002,-1.36931 -1.070505,-3.56082 -1.416673,-4.87002 l -0.629398,-2.38037 -2.309885,-0.59087 c -4.099459,-1.04864 -6.557273,-2.86474 -8.076517,-5.96782 -1.658763,-3.38805 -1.624282,-5.85728 0.08813,-6.31091 1.814254,-0.4806 5.301513,0.81434 7.258444,2.69531 0.628077,0.6037 1.196687,1.04291 1.263579,0.97602 0.06689,-0.0669 0.0073,-1.1802 -0.132446,-2.47402 -0.139737,-1.29381 -0.335782,-3.51629 -0.435655,-4.93884 l -0.181586,-2.58644 -1.886259,-0.88058 c -3.307755,-1.54419 -5.517244,-4.00288 -6.522799,-7.25849 -0.563537,-1.82452 -0.679626,-4.10057 -0.2648,-5.19165 0.222025,-0.58397 0.415876,-0.67787 1.389063,-0.67287 2.241511,0.0115 4.870987,1.8384 6.422695,4.46231 0.436562,0.73821 0.865963,1.34457 0.954225,1.34746 0.08826,0.003 0.239904,-1.04693 0.336984,-2.33293 0.167925,-2.22446 0.13809,-2.42069 -0.613457,-4.03489 -1.118114,-2.40153 -1.48838,-4.93226 -1.077784,-7.36655 0.585915,-3.4737 3.204351,-7.69163 4.774863,-7.69163 1.648837,0 3.433236,4.19261 3.426837,8.05167 -0.0043,2.59414 -1.009964,5.77792 -2.443857,7.73688 -0.918651,1.25505 -0.9381,1.33526 -1.127596,4.65051 -0.106052,1.85539 -0.12139,3.37344 -0.03408,3.37344 0.08731,0 0.39368,-0.46052 0.680832,-1.02339 1.378595,-2.70227 4.484455,-5.05418 7.212057,-5.46132 1.108526,-0.16547 1.313438,-0.11293 1.918229,0.49187 0.372419,0.37241 0.677125,0.95858 0.677125,1.30258 0,0.96816 -0.782895,3.38235 -1.487569,4.58717 -1.449819,2.47883 -5.352088,5.32849 -7.971286,5.82109 -0.783019,0.14727 -0.859876,0.2478 -0.859674,1.12447 6.4e-4,2.78851 0.99148,10.88461 1.332111,10.88461 0.117217,0 0.29177,-0.35808 0.387895,-0.79573 0.299092,-1.36175 2.245922,-3.96595 3.844717,-5.14291 1.880438,-1.3843 4.248673,-2.1934 5.179162,-1.76944 1.642644,0.74844 1.494539,4.17705 -0.336641,7.7932 -0.958777,1.89336 -3.688123,4.48473 -5.892978,5.59508 -1.537096,0.77407 -1.868654,1.05406 -1.868654,1.57801 0,1.6427 3.323156,11.5325 3.944754,11.7397 0.158917,0.053 0.223813,-0.0734 0.144215,-0.28083 -0.238719,-0.6221 0.582033,-4.00202 1.330472,-5.47899 1.352937,-2.6699 4.027687,-4.90937 5.638472,-4.72091 0.965825,0.11301 1.774383,1.41803 2.166661,3.49703 0.809494,4.29015 -1.411767,9.27844 -5.509366,12.3724 l -0.88375,0.66729 0.942902,1.87235 c 1.002022,1.98975 3.127926,5.22574 4.945804,7.52836 1.242612,1.57395 2.572168,3.11701 2.683732,3.11468 0.04083,-8.5e-4 0.08266,-1.39984 0.09297,-3.10886 0.03235,-5.36341 1.583691,-8.99427 4.928058,-11.53394 3.454642,-2.62342 9.85944,-2.72813 17.382238,-0.28417 6.842718,2.22302 15.587039,7.4758 22.060316,13.25179 l 1.561545,1.39335 1.35472,-0.70837 c 1.75094,-0.91554 5.48473,-1.163 7.50188,-0.49719 1.15158,0.3801 1.41827,0.38324 2.58299,0.0304 2.60013,-0.78776 6.8187,-0.3569 8.13068,0.83042 0.42497,0.38459 0.59742,0.29794 2.26747,-1.13943 6.19476,-5.33167 14.20185,-10.2526 20.58219,-12.64922 2.88325,-1.08303 6.64503,-1.98787 9.32664,-2.24339 9.12035,-0.86903 14.32202,4.2259 14.36408,14.06936 l 0.0105,2.45855 1.18975,-1.293 c 1.4722,-1.59998 4.23331,-5.60833 6.01848,-8.73713 l 1.34492,-2.35721 -0.64906,-0.4028 c -1.19427,-0.74115 -3.5896,-3.45073 -4.29883,-4.86282 -1.10328,-2.19665 -1.5959,-4.53279 -1.43932,-6.82568 0.3221,-4.71661 2.20948,-5.73332 5.33697,-2.87497 1.77904,1.62594 2.88098,3.7522 3.54116,6.83287 l 0.47862,2.23344 0.47774,-1.1751 c 1.21455,-2.98747 3.32439,-10.01655 3.32439,-11.07545 0,-0.1537 -0.80367,-0.68685 -1.78593,-1.18478 -0.98227,-0.49792 -2.28342,-1.33483 -2.89146,-1.85979 -2.44311,-2.10933 -4.31844,-6.04174 -4.31844,-9.0554 0,-1.19314 0.11636,-1.55573 0.68024,-2.11961 0.58955,-0.58954 0.82567,-0.65699 1.77089,-0.50584 2.58556,0.41345 5.85423,3.20797 7.09026,6.06176 0.35479,0.81914 0.71915,1.49138 0.80969,1.49387 0.21277,0.006 0.37908,-1.09437 0.90357,-5.9774 0.5752,-5.35512 0.57198,-5.3729 -1.07128,-5.92938 -2.26399,-0.76667 -3.62066,-1.592 -5.17969,-3.15103 -1.71109,-1.71109 -2.68869,-3.45934 -3.13048,-5.59827 -0.54821,-2.65417 0.425,-3.76672 2.77693,-3.17449 2.7146,0.68354 4.99134,2.51823 6.19779,4.99441 0.3638,0.74668 0.76856,1.36224 0.89946,1.36789 0.13813,0.006 0.1621,-1.42753 0.0571,-3.41613 -0.17541,-3.32264 -0.20804,-3.46676 -1.07749,-4.75876 -1.67062,-2.48252 -2.09152,-3.99657 -2.10097,-7.55754 -0.007,-2.71216 0.081,-3.39994 0.60469,-4.71804 0.74745,-1.88115 1.97791,-3.35175 2.80443,-3.35175 1.28743,0 3.72628,3.69071 4.33587,6.56146 0.63385,2.985 0.22178,6.3038 -1.11588,8.98726 -0.55792,1.11922 -0.61095,1.51243 -0.49901,3.69972 0.0689,1.34607 0.20069,2.44739 0.29289,2.44739 0.0922,0 0.33782,-0.38695 0.54583,-0.85989 0.57254,-1.30173 3.24457,-3.829 4.82744,-4.56589 1.73862,-0.80939 3.25844,-0.87104 3.64548,-0.14786 0.46079,0.86101 0.31735,3.75471 -0.27276,5.5021 -1.08797,3.22168 -3.77656,6.0329 -7.02529,7.34576 -1.49256,0.60317 -1.56394,0.67556 -1.74579,1.77056 -0.24678,1.486 -0.9615,9.05431 -0.86523,9.16206 0.0407,0.0456 0.62601,-0.45357 1.30063,-1.10922 1.93238,-1.87806 3.79488,-2.66102 6.35183,-2.67021 2.07566,-0.007 2.12729,0.008 2.48737,0.75247 0.76696,1.58533 -0.57581,5.38145 -2.7647,7.81603 -1.51518,1.68523 -4.59796,3.2803 -7.18232,3.71621 l -1.83971,0.31031 -0.33429,1.50389 c -0.3199,1.43919 -2.10352,7.33525 -2.52,8.33029 -0.15558,0.37171 0.17224,0.27212 1.49186,-0.45324 4.08115,-2.24328 9.48812,-1.69314 9.48812,0.96539 0,1.23633 -1.31947,3.67065 -2.784,5.13625 -2.4597,2.46151 -5.35168,3.53249 -9.53884,3.53249 -2.32931,0 -2.7262,0.0638 -2.87882,0.46303 -0.17656,0.46179 -3.76413,6.30783 -4.52632,7.37575 l -0.40163,0.56274 1.79085,-0.49659 c 3.37366,-0.93549 6.81528,-0.51803 9.04496,1.09714 1.21614,0.88097 1.7371,1.87597 1.49249,2.85057 -0.29544,1.17713 -2.40898,3.10022 -4.43491,4.03529 -1.77495,0.81924 -2.11758,0.88538 -4.56482,0.88117 -2.89534,-0.005 -4.84767,-0.53189 -6.82908,-1.84313 l -1.04299,-0.69022 -1.79507,1.78132 c -1.56026,1.5483 -1.84651,1.98553 -2.18833,3.34247 -0.56023,2.22401 -0.4203,2.5177 1.36572,2.86657 4.60466,0.89943 12.72406,3.62218 19.79905,6.63937 2.35522,1.00441 4.42234,1.82619 4.59359,1.82619 0.37898,0 4.37623,-2.73739 8.32211,-5.69913 6.31485,-4.73986 12.96877,-10.71616 17.86239,-16.04332 5.10508,-5.55736 10.49364,-12.41606 10.1683,-12.94248 -0.25648,-0.41498 -2.9508,-1.12037 -4.34947,-1.13871 -2.74556,-0.036 -5.20869,1.31782 -9.69133,5.32672 -8.62006,7.70906 -8.68517,7.76254 -9.35742,7.68576 -0.96645,-0.11039 -0.93647,-0.74215 0.11805,-2.48825 1.3108,-2.17045 2.45185,-5.00753 2.93235,-7.29097 0.93149,-4.42663 1.69155,-18.63109 1.78842,-33.42316 l 0.0537,-8.20208 -0.92604,-0.0868 c -1.72468,-0.16172 -1.85208,-0.476 -1.85208,-4.56877 0,-2.62749 0.0925,-3.70741 0.33072,-3.8616 0.18191,-0.11773 1.16417,-0.27359 2.18282,-0.34635 l 1.85208,-0.13229 0.0705,-7.25774 c 0.0547,-5.63003 -0.005,-7.30545 -0.26459,-7.47043 -0.18429,-0.11698 -0.78938,-0.21451 -1.34465,-0.21673 -1.4281,-0.006 -2.03312,-0.39939 -2.03312,-1.32284 0,-0.47376 1.46256,-3.6067 3.7938,-8.12662 2.08659,-4.0456 5.00763,-9.74381 6.4912,-12.66269 l 2.69741,-5.30706 -0.0948,-6.73149 c -0.0521,-3.70231 -0.1899,-7.06308 -0.30611,-7.46836 -0.2692,-0.93878 0.42101,-1.77666 1.46354,-1.77666 0.94964,0 1.56539,0.63187 1.56539,1.60639 v 0.77486 h 1.67317 c 1.00619,0 2.5295,0.25631 3.82135,0.64298 2.9738,0.89009 4.21324,1.03537 6.00596,0.70397 1.77947,-0.32895 2.25786,-0.11163 2.25786,1.02569 0,0.86335 -0.45973,1.30201 -2.3662,2.25775 l -1.44015,0.72196 1.57245,0.63281 c 2.75682,1.10944 3.11822,2.41357 0.84033,3.03236 -1.44724,0.39314 -4.9951,0.16085 -6.54393,-0.42847 -1.37846,-0.52448 -4.29876,-0.6205 -5.35782,-0.17617 -0.72217,0.30299 -0.7276,0.32426 -0.7276,2.85066 0,2.03251 0.0974,2.68691 0.48344,3.2477 0.26589,0.38626 1.50709,2.6073 2.75823,4.93563 1.25114,2.32833 4.12922,7.62427 6.39573,11.76875 5.04137,9.21851 5.09994,9.50466 2.00427,9.79201 l -1.45521,0.13508 v 7.40833 7.40833 l 1.85208,0.13229 c 1.01865,0.0728 2.00091,0.22862 2.18281,0.34635 0.23824,0.15419 0.33073,1.23411 0.33073,3.8616 0,4.08384 -0.12885,4.40541 -1.83061,4.56877 l -0.90458,0.0868 0.0506,3.57187 c 0.11466,8.09084 0.88204,23.42109 1.18767,23.72672 0.38071,0.38071 6.72775,-12.55886 9.31488,-18.99007 9.87202,-24.5403 12.8342,-51.05268 8.55485,-76.56841 C 248.54164,119.60729 237.33625,95.209003 219.87295,73.721066 212.70134,64.896674 200.30362,53.663902 189.78169,46.457315 159.91779,26.003206 124.27636,18.046715 89.032291,23.966308 64.487802,28.0888 42.233721,38.229984 21.960415,54.530959 11.149165,63.223864 1.7261061,73.563309 -6.5894616,85.85729 c -14.7865444,21.86087 -23.3818444,46.12203 -25.7308594,72.62813 -0.427233,4.82085 -0.42825,19.28559 -0.0017,24.07708 1.690489,18.98921 6.361949,35.78947 14.346094,51.59375 2.952528,5.84441 2.776893,5.74482 2.981746,1.69067 0.09478,-1.87575 0.252284,-7.60741 0.350009,-12.73702 l 0.177683,-9.32657 h -1.014156 c -1.822328,0 -1.981864,-0.36462 -1.981864,-4.52961 0,-4.24532 -0.02737,-4.20164 2.632559,-4.20164 h 1.609015 l -0.07027,-7.47448 -0.07027,-7.47447 -1.321,-0.0833 c -1.424884,-0.0898 -2.250875,-0.61786 -2.250875,-1.43896 0,-0.44716 5.775867,-11.70039 11.4354032,-22.27981 l 1.8344329,-3.42912 -0.068829,-7.90238 c -0.074334,-8.53442 -0.099251,-8.37733 1.3302433,-8.38637 0.8849219,-0.006 1.60833354,0.72506 1.60833354,1.62445 0,0.73303 0.0369039,0.75275 1.40886595,0.75275 0.85678221,0 2.17871071,0.27584 3.37343751,0.70392 1.6200542,0.58048 2.38216,0.69825 4.3458217,0.67157 1.3096875,-0.0178 2.6633089,-0.0667 3.0080479,-0.10861 0.854728,-0.10399 1.281805,0.60183 0.945994,1.56343 -0.190229,0.54472 -0.694934,0.95226 -1.901365,1.53531 -0.903317,0.43656 -1.645411,0.87665 -1.6490981,0.97798 -0.00369,0.10132 0.7057519,0.44399 1.5765311,0.7615 1.789416,0.65245 2.199199,1.01952 2.075096,1.85877 -0.06047,0.40892 -0.404593,0.69806 -1.144789,0.96187 -1.3698982,0.48824 -5.6179432,0.30203 -7.276042,-0.31893 -1.3084408,-0.49001 -3.16887297,-0.6312 -4.29947922,-0.32629 l -0.72760418,0.19622 v 2.6709 2.67089 l 2.2852396,4.26938 c 1.2568818,2.34816 4.2929756,7.97745 6.7468752,12.50954 5.3891336,9.95316 5.4276256,10.12404 2.3449686,10.41018 l -1.4552082,0.13508 -0.070266,7.47447 -0.070266,7.47448 H 10.4643 c 2.804595,0 2.764852,-0.0597 2.764852,4.15567 0,4.10942 -0.183645,4.57558 -1.802552,4.57558 h -0.926787 l 0.182103,7.47448 c 0.27561,11.31254 1.245528,26.15068 2.036473,31.15469 0.647831,4.09858 1.583775,6.51173 3.878121,9.99899 0.805776,1.22473 1.377925,2.36425 1.295252,2.57969 -0.39555,1.03079 -1.630371,0.2243 -6.911569,-4.51411 -7.2179349,-6.47608 -9.9288109,-8.16904 -13.0780578,-8.16732 -2.0016235,0.001 -3.9875674,0.49595 -3.9875674,0.99362 0,0.44587 5.20831516,6.95032 8.6794541,10.83942 5.0558012,5.66457 12.7583291,12.75153 18.8372131,17.3318 2.667918,2.0102 9.343734,6.63876 9.589487,6.6487 0.108227,0.004 1.358384,-0.51366 2.778125,-1.15119 z m 60.260515,-6.47039 1.058333,-0.19071 -2.513542,-0.8326 c -3.293784,-1.09105 -5.546757,-1.49242 -6.449896,-1.14905 -0.899661,0.34205 -0.898248,1.13605 0.0033,1.8452 0.617476,0.48571 1.048316,0.54663 3.770312,0.53312 1.690246,-0.008 3.549423,-0.10107 4.131507,-0.20596 z m 40.961665,-0.083 c 1.13117,-0.59541 1.27321,-1.34017 0.36863,-1.93287 -0.80649,-0.52843 -3.13726,-0.17551 -6.50583,0.98511 l -2.48178,0.85507 1.15887,0.1587 c 2.13075,0.2918 6.85984,0.24995 7.46011,-0.066 z m -87.396041,-10.37026 0.926042,-0.39696 -0.79375,-0.30999 c -0.436563,-0.17049 -1.627188,-0.48051 -2.645834,-0.68895 -1.54421,-0.31597 -2.046659,-0.32187 -3.022597,-0.0355 -0.643783,0.18892 -1.214098,0.47425 -1.267368,0.63406 -0.05327,0.15981 0.41393,0.54638 1.038222,0.85905 0.932526,0.46705 1.465575,0.54768 2.98716,0.45186 1.018646,-0.0641 2.268802,-0.29527 2.778125,-0.51359 z m 131.399131,0.11285 c 0.60051,-0.27269 1.16592,-0.61566 1.25646,-0.76216 0.23855,-0.38598 -1.29108,-0.84707 -2.81008,-0.84707 -1.26831,0 -4.08478,0.65296 -4.51005,1.0456 -0.3344,0.30874 2.20043,1.03741 3.64892,1.04893 0.74991,0.006 1.79583,-0.20424 2.41475,-0.4853 z M 39.003977,253.07719 c -0.569949,-0.50754 -1.766409,-1.2909 -2.658801,-1.74079 -1.638209,-0.82589 -3.801427,-1.31785 -3.801427,-0.86452 0,0.39598 1.903801,2.10627 2.908703,2.61304 1.319855,0.66561 2.089476,0.86646 3.419233,0.89234 L 40.040246,254 Z m 146.616673,0.12159 c 1.24961,-0.60493 3.10749,-2.2945 2.89721,-2.63474 -0.21924,-0.35474 -2.77228,0.22352 -4.0386,0.91474 -0.69042,0.37687 -1.73155,1.1059 -2.31363,1.62009 l -1.05834,0.93488 1.64987,-0.12373 c 0.92982,-0.0697 2.17953,-0.38014 2.86349,-0.71124 z M 48.047251,249.25831 c 0.599947,-1.23915 1.216836,-4.51873 0.849973,-4.51873 -0.0683,0 -0.487091,0.50602 -0.93064,1.12448 -0.950427,1.32523 -1.534995,2.94859 -1.786419,4.96094 l -0.181816,1.45521 0.677209,-0.79375 c 0.372465,-0.43656 0.989726,-1.43923 1.371693,-2.22815 z m 126.957639,1.23596 c -0.18645,-1.5462 -1.31361,-4.21079 -2.21047,-5.22552 l -0.58462,-0.66146 0.1652,1.67832 c 0.0909,0.92308 0.28252,1.99464 0.42593,2.38125 0.33388,0.90014 1.89167,3.21529 2.16391,3.21596 0.11416,2.8e-4 0.13218,-0.62456 0.04,-1.38855 z M 33.602082,234.44945 c 0,-0.45425 -2.52439,-3.04033 -3.689821,-3.77999 -1.670179,-1.06 -2.000376,-0.98802 -1.346566,0.29356 0.650778,1.27562 2.166495,2.58273 3.730243,3.21683 1.426895,0.57861 1.306144,0.55369 1.306144,0.2696 z m 156.172108,-0.71441 c 1.2119,-0.61146 2.27556,-1.66009 2.88398,-2.84325 l 0.5222,-1.01549 -0.61258,0.19425 c -1.11162,0.35251 -2.47947,1.36374 -3.73778,2.76328 -0.68223,0.75881 -1.24043,1.48289 -1.24043,1.60907 0,0.24732 0.81456,-0.0166 2.18461,-0.70786 z M 41.714595,232.58273 c 1.294444,-1.29445 2.731261,-3.81048 2.377848,-4.1639 -0.32854,-0.32854 -2.580104,2.13029 -3.369214,3.67936 -0.424131,0.83259 -0.771147,1.57673 -0.771147,1.65364 0,0.39658 0.584607,0.009 1.762513,-1.1691 z m 139.524985,1.14754 c 0,-0.0888 -0.36426,-0.84484 -0.80947,-1.68014 -0.82039,-1.5392 -3.01068,-3.95151 -3.31317,-3.64901 -0.35536,0.35536 1.28602,3.27333 2.4521,4.35923 1.12638,1.04893 1.67054,1.36487 1.67054,0.96992 z M -0.22765715,230.98125 H 1.0583313 v -4.51105 c 0,-5.02588 -0.16979279,-5.69957 -1.66649098,-6.61216 -1.07280322,-0.65413 -1.94421492,-0.65413 -3.01701812,0 -1.4957011,0.91198 -1.666491,1.58783 -1.666491,6.59458 v 4.49348 l 0.7276042,0.12324 c 0.4001823,0.0678 1.2502375,0.0757 1.8890116,0.0176 0.6387741,-0.0581 1.7401022,-0.10566 2.44739585,-0.10566 z M 224.57917,227.27708 c 0.10373,-4.61918 -0.0509,-5.61831 -1.04435,-6.74984 -1.54178,-1.75599 -4.03069,-1.39668 -4.99165,0.72061 -0.43854,0.96624 -0.51574,1.74577 -0.52069,5.25753 -0.003,2.2677 0.0771,4.20604 0.17852,4.30743 0.10139,0.10138 1.5599,0.15099 3.24115,0.11024 l 3.05681,-0.0741 z m -42.03489,-12.20487 c -0.44854,-0.83812 -3.12216,-3.52835 -3.31495,-3.33556 -0.27455,0.27455 0.91336,1.97245 2.07664,2.96817 1.23625,1.05818 1.67819,1.1893 1.23831,0.36739 z m -142.76709,-0.2001 c 0.777671,-0.51273 2.647559,-2.93764 2.431708,-3.15349 -0.244893,-0.24489 -3.579733,3.06812 -3.579733,3.5563 0,0.21798 0.441316,0.0631 1.148025,-0.40281 z m -8.95437,-1.30853 c -0.747403,-1.37322 -2.776988,-3.56613 -2.776988,-3.00044 0,0.82918 0.923602,2.37809 2.035415,3.41346 0.671373,0.62522 1.273769,1.08366 1.338658,1.01877 0.06489,-0.0649 -0.203799,-0.70919 -0.597085,-1.43179 z m 160.6976,0.0902 c 0.77645,-0.88433 1.89,-2.78202 1.89,-3.22091 0,-0.38032 -2.1538,1.90945 -2.92442,3.10902 -0.42886,0.66759 -0.77975,1.29686 -0.77975,1.39838 0,0.3536 0.99147,-0.34948 1.81417,-1.28649 z m -196.500879,-12.46054 0.085665,-3.85882 0.8640701,-0.77139 c 1.1262747,-1.00546 2.1673797,-1.01039 3.28083097,-0.0155 0.96336505,0.86077 1.21740862,2.11194 1.25673108,6.18945 l 0.0223263,2.3151 h 1.58750005 1.5875 v -6.32169 c 0,-5.52048 -0.053043,-6.34205 -0.4185146,-6.48229 -0.8322509,-0.31937 -11.0994328,-0.17849 -11.434819,0.1569 -0.343726,0.34373 -0.4771453,12.13466 -0.1411111,12.47069 0.097014,0.097 0.8621365,0.17639 1.7002724,0.17639 h 1.5238835 z m 223.292179,3.13122 c 0.0168,-0.40018 0.005,-0.96328 -0.0269,-1.25132 -0.0316,-0.28804 0.0272,-1.65238 0.13066,-3.03186 0.17786,-2.37238 0.23517,-2.55527 1.05879,-3.37889 1.19038,-1.19038 2.25329,-1.18153 3.46366,0.0288 0.97759,0.97759 1.07842,1.58011 0.91869,5.48962 -0.11091,2.71464 -0.01,2.87121 1.85081,2.87121 h 1.56967 v -6.18531 c 0,-4.92941 -0.074,-6.2467 -0.3643,-6.48765 -0.25435,-0.21109 -2.071,-0.28075 -6.01927,-0.23083 l -5.65498,0.0715 -0.0709,6.41615 -0.0709,6.41614 h 1.59221 c 1.55317,0 1.59295,-0.0178 1.62267,-0.7276 z m -182.364914,-2.8884 c 0.356666,-1.77597 0.399729,-4.85066 0.06794,-4.85066 -0.397457,0 -0.82516,2.25498 -0.82516,4.35049 0,1.09973 0.102626,1.99951 0.228057,1.99951 0.125431,0 0.363556,-0.6747 0.529167,-1.49934 z m 150.319864,-0.33972 c 0,-2.05428 -0.44422,-4.51094 -0.81568,-4.51094 -0.13346,0 -0.24266,0.75405 -0.24266,1.67566 0,1.91241 0.49059,4.67434 0.83028,4.67434 0.12543,0 0.22806,-0.82758 0.22806,-1.83906 z"
       id="path33" /><path
       style="fill:#000000"
       d="m 110.86635,47.840548 c -0.52105,-2.063449 -1.36871,-4.30013 -2.00205,-5.282719 -0.70442,-1.092853 -2.66835,-2.17184 -5.22887,-2.872746 -0.88543,-0.242371 -1.64685,-0.551651 -1.69207,-0.687288 -0.0452,-0.135637 0.96163,-0.564381 2.23742,-0.952765 4.19814,-1.278017 5.14374,-2.349297 6.56182,-7.433907 0.2428,-0.870551 0.55669,-1.49296 0.72469,-1.436961 0.163,0.05433 0.60579,1.16214 0.98398,2.461791 1.29446,4.448382 2.0797,5.232395 6.47894,6.468816 0.87312,0.245394 1.5875,0.597283 1.5875,0.781974 0,0.184691 -0.99599,0.686441 -2.2133,1.114999 -3.92308,1.381125 -4.60021,2.104199 -5.81647,6.211053 -0.42017,1.418752 -0.89205,2.622254 -1.04863,2.674448 -0.15659,0.05219 -0.41442,-0.418819 -0.57296,-1.046695 z"
       id="path32" /><path
       style="fill:#000000"
       d="m 149.93834,56.422394 c -0.0614,-0.109141 -0.32331,-1.091407 -0.58202,-2.182813 -0.84599,-3.568883 -1.84221,-4.813957 -5.10739,-6.383209 -0.91783,-0.44111 -1.62281,-0.939939 -1.56662,-1.108509 0.0562,-0.168569 0.99779,-0.555297 2.09244,-0.859396 3.38062,-0.93915 4.33996,-1.807207 6.04889,-5.473365 0.45787,-0.982266 0.93574,-1.785938 1.06193,-1.785938 0.1262,0 0.3582,0.506016 0.51555,1.124479 1.30517,5.129798 1.68977,5.703012 4.99003,7.437252 1.03841,0.545668 1.88802,1.093097 1.88802,1.216509 0,0.123412 -0.86176,0.486138 -1.91503,0.806057 -3.7578,1.141398 -4.51298,1.801957 -6.13887,5.369741 -0.91706,2.012356 -1.06808,2.228191 -1.28693,1.839192 z m 1.58321,-6.243678 c 0.55339,-0.78511 1.19942,-1.310245 2.03431,-1.653646 0.67288,-0.276759 1.2231,-0.562729 1.22273,-0.635489 -3.8e-4,-0.07276 -0.35572,-0.334311 -0.78965,-0.581223 -0.79082,-0.449982 -2.38269,-2.659409 -2.38269,-3.307036 0,-0.530138 -0.47317,-0.40916 -0.65629,0.167797 -0.21885,0.689549 -1.86868,2.109466 -3.00052,2.582376 l -0.91717,0.383218 0.7891,0.479883 c 0.98699,0.60022 1.82017,1.645741 2.24272,2.814271 0.17905,0.495163 0.39777,0.900297 0.48605,0.900297 0.0883,0 0.52541,-0.517702 0.97141,-1.150448 z"
       id="path31" /><path
       style="fill:#000000"
       d="m 75.241726,56.313156 c -0.123337,-0.194581 -0.501525,-0.949096 -0.840417,-1.6767 -1.656402,-3.556304 -2.831219,-4.569955 -6.469539,-5.582018 -0.982266,-0.273234 -1.785937,-0.58586 -1.785937,-0.694723 0,-0.108863 0.74414,-0.569961 1.653645,-1.024662 3.336511,-1.668065 4.241137,-2.868431 5.115348,-6.78766 0.235331,-1.055026 0.534376,-1.918229 0.664544,-1.918229 0.130168,0 0.720443,0.982266 1.311721,2.182813 1.549914,3.146988 2.515644,4.037454 5.276713,4.865477 1.237447,0.371101 2.406278,0.722146 2.597403,0.780101 0.586314,0.177788 0.08847,0.611935 -1.78168,1.553728 -2.073146,1.04402 -3.329202,2.031709 -3.84006,3.0196 -0.198244,0.383362 -0.570712,1.708633 -0.827707,2.945047 -0.502048,2.415378 -0.721624,2.8932 -1.074034,2.337226 z m 0.119188,-5.884289 c 0.419173,-1.159201 1.254104,-2.213063 2.217469,-2.79892 l 0.76386,-0.464531 -1.269559,-0.658608 c -0.698258,-0.362234 -1.626747,-1.144522 -2.06331,-1.738417 -0.436562,-0.593895 -0.853281,-1.082204 -0.926041,-1.085131 -0.07276,-0.0029 -0.414901,0.596721 -0.760312,1.33255 -0.392884,0.836962 -1.008263,1.600634 -1.643605,2.039676 -0.558571,0.385992 -1.020103,0.772254 -1.025625,0.858361 -0.0055,0.08611 0.453132,0.295327 1.019234,0.464935 0.975581,0.292291 2.939474,2.087211 2.939474,2.686561 0,0.585495 0.442677,0.209029 0.748415,-0.636476 z"
       id="path30" /><path
       style="fill:#000000"
       d="m 180.47673,69.294935 c -0.14247,-0.349559 -0.5027,-1.468999 -0.80052,-2.487645 -1.00177,-3.426419 -2.27992,-4.674648 -5.84008,-5.703371 -1.17247,-0.338791 -2.09054,-0.73966 -2.04015,-0.89082 0.0504,-0.15116 0.91589,-0.526383 1.92334,-0.833828 2.518,-0.768424 3.92855,-1.537067 4.63098,-2.523535 0.32718,-0.459475 0.96228,-1.996985 1.41135,-3.416689 0.44906,-1.419704 0.93554,-2.597968 1.08106,-2.618364 0.14552,-0.0204 0.56888,1.008402 0.9408,2.286219 1.24414,4.27451 1.9327,4.978607 6.1338,6.272217 0.98061,0.301952 1.78293,0.668066 1.78293,0.813587 0,0.145521 -0.80232,0.512034 -1.78293,0.814473 -3.98751,1.229822 -5.05508,2.315201 -6.14934,6.251934 -0.70907,2.550967 -0.93568,2.908253 -1.29124,2.035822 z"
       id="path29" /><path
       style="fill:#000000"
       d="m 42.397297,69.543546 c -0.180702,-0.180701 -0.328548,-0.492102 -0.328548,-0.692002 0,-0.804395 -1.404245,-4.480266 -2.020586,-5.289257 -0.769944,-1.010607 -2.644184,-2.022394 -4.77382,-2.577094 -1.625635,-0.423424 -2.276077,-0.827923 -1.650358,-1.026329 0.206234,-0.06539 1.208409,-0.362107 2.227055,-0.659363 3.928376,-1.146359 4.790982,-2.209508 6.214405,-7.659169 0.390753,-1.496019 0.869454,-1.140632 1.319377,0.979502 0.180848,0.852195 0.702856,2.309404 1.160017,3.238242 0.700502,1.423247 1.038563,1.800625 2.149946,2.399984 0.725309,0.391153 2.124294,0.92012 3.108854,1.175482 0.984561,0.255362 1.789852,0.590171 1.789537,0.744021 -3.16e-4,0.15385 -1.092779,0.624916 -2.427696,1.046813 -3.357978,1.061282 -4.411049,2.110194 -5.383201,5.361939 -1.004695,3.360594 -0.997335,3.344879 -1.384982,2.957231 z"
       id="path28" /><path
       style="fill:#000000"
       d="m 178.79754,84.940216 c -2.26198,-1.779274 -1.03172,-5.300634 1.85189,-5.300634 1.29507,0 2.29398,0.733462 2.70819,1.988512 0.38661,1.171462 -0.0219,2.543636 -0.98225,3.299017 -0.89965,0.707672 -2.68651,0.714217 -3.57783,0.01311 z"
       id="path27" /><path
       style="fill:#000000"
       d="m 39.93994,85.121271 c -1.777033,-1.400341 -1.699341,-4.328884 0.137041,-5.165596 1.311684,-0.597643 2.490292,-0.399653 3.473434,0.58349 1.230367,1.230367 1.258149,2.642371 0.07842,3.986002 -0.722041,0.822359 -0.969549,0.934232 -2.050521,0.926833 -0.676149,-0.0046 -1.41342,-0.153456 -1.638379,-0.330729 z"
       id="path26" /><path
       style="fill:#000000"
       d="m 158.34867,92.33466 c -0.389,-0.429846 -0.43574,-0.70096 -0.23944,-1.389062 0.13414,-0.470236 2.53994,-5.407875 5.34622,-10.97253 4.30662,-8.539714 5.20437,-10.143165 5.75662,-10.281771 0.9826,-0.246616 1.97335,0.509733 1.97335,1.506471 0,0.52367 -1.7764,4.30174 -5.06658,10.775671 -2.78661,5.483097 -5.24584,10.177627 -5.46496,10.432289 -0.53533,0.62217 -1.71063,0.585936 -2.30521,-0.07107 z"
       id="path25" /><path
       style="fill:#000000"
       d="M 61.862018,92.538019 C 61.633106,92.356118 59.096854,87.535183 56.225904,81.82483 50.669658,70.773395 50.557641,70.454767 51.997923,69.79853 c 1.404072,-0.639737 1.60468,-0.340285 7.105136,10.606004 2.85488,5.681409 5.19069,10.613023 5.19069,10.959142 0,1.204622 -1.488821,1.92361 -2.431731,1.174343 z"
       id="path24" /><path
       style="fill:#000000"
       d="M 19.117043,97.568365 C 18.969782,97.38467 18.645828,96.525084 18.397145,95.658174 17.336493,91.960734 16.1103,90.54068 12.802112,89.178571 10.375734,88.179536 9.8553088,87.797924 10.371615,87.396359 c 0.189204,-0.147157 1.123358,-0.537314 2.075896,-0.867016 3.280305,-1.135412 4.615694,-2.56464 5.690585,-6.090471 0.971968,-3.188223 1.552655,-3.261059 2.521265,-0.316245 0.722705,2.197203 1.620878,4.013407 2.264644,4.579357 0.659851,0.580091 2.568637,1.526017 4.192692,2.077748 1.555983,0.528605 1.85311,1.17383 0.749537,1.627656 -2.729201,1.122337 -4.297272,1.953328 -5.040685,2.671286 -0.779813,0.75311 -1.574848,2.469243 -2.44359,5.274639 -0.370848,1.197564 -0.883875,1.690368 -1.264916,1.215052 z m 0.96168,-6.485554 c 0.602883,-1.17217 1.668763,-2.212635 2.907657,-2.838327 l 0.893674,-0.451342 -1.305866,-0.745811 c -1.204466,-0.687899 -2.357752,-2.031749 -2.827644,-3.29487 -0.163444,-0.439355 -0.312909,-0.306416 -0.991641,0.881998 -0.549149,0.961524 -1.207462,1.653125 -2.10413,2.210524 -0.717718,0.446158 -1.303226,0.882696 -1.301129,0.970085 0.0021,0.08739 0.587371,0.480671 1.300609,0.873961 0.944987,0.521079 1.500243,1.077297 2.046709,2.050252 0.412451,0.734349 0.777257,1.335301 0.81068,1.335448 0.03342,1.48e-4 0.290409,-0.446215 0.571081,-0.991918 z"
       id="path23" /><path
       style="fill:#000000"
       d="m 200.98672,95.712999 c -1.62805,-5.158272 -2.31039,-5.806279 -8.58073,-8.149012 -1.29988,-0.485661 -0.97307,-1.041934 1.00443,-1.709676 4.81447,-1.625703 6.0677,-2.94227 7.67873,-8.066833 0.97573,-3.103696 1.30789,-3.078049 2.38503,0.184156 1.0313,3.123358 1.33979,3.759567 2.41893,4.98864 0.94042,1.071081 2.43925,1.892292 5.05411,2.769162 0.98675,0.330898 1.86404,0.714812 1.94954,0.853144 0.25133,0.40666 -0.46724,0.900224 -2.02384,1.390122 -0.80037,0.251893 -2.20914,0.872535 -3.13061,1.379205 -2.11263,1.161627 -2.85757,2.293339 -4.15828,6.317208 -0.57601,1.781961 -1.11607,3.020447 -1.3171,3.020447 -0.20209,0 -0.72306,-1.211301 -1.28021,-2.976563 z m 2.53507,-6.174064 c 0.46491,-0.74932 1.18756,-1.416927 2.0467,-1.89081 0.73043,-0.402887 1.32977,-0.807374 1.33187,-0.89886 0.002,-0.09149 -0.34747,-0.311841 -0.7768,-0.489677 -1.11346,-0.461209 -2.56013,-1.949127 -3.30021,-3.394305 l -0.6357,-1.241346 -0.28864,0.747622 c -0.57016,1.476816 -1.84584,3.000358 -3.04481,3.636413 -0.66575,0.353177 -1.21045,0.729221 -1.21045,0.835654 0,0.106433 0.44805,0.42209 0.99566,0.70146 1.28672,0.656436 2.36027,1.741162 3.038,3.069628 0.48788,0.956324 0.56954,1.01231 0.8333,0.57136 0.16083,-0.268868 0.61581,-1.010081 1.01108,-1.647139 z"
       id="path22" /><path
       style="fill:#000000"
       d="m 165.00872,104.29112 c -0.91042,-1.00599 -0.57651,-1.68603 3.0659,-6.244074 3.23141,-4.043727 3.5703,-4.384567 4.35952,-4.384567 1.1339,0 1.88223,1.025319 1.44642,1.981812 -0.31355,0.688162 -6.55245,8.607559 -7.03364,8.928199 -0.5207,0.34697 -1.38998,0.21392 -1.8382,-0.28137 z"
       id="path21" /><path
       style="fill:#000000"
       d="m 54.948917,104.17967 c -1.484663,-1.37437 -6.794751,-8.423246 -6.794751,-9.019701 0,-0.855083 0.846203,-1.556377 1.751036,-1.451177 0.602267,0.07002 1.392211,0.912007 4.256732,4.537165 1.934477,2.448153 3.517232,4.680573 3.517232,4.960933 0,0.65875 -0.912039,1.56809 -1.572746,1.56809 -0.282927,0 -0.803803,-0.26789 -1.157503,-0.59531 z"
       id="path20" /><path
       style="fill:#000000"
       d="m 84.741226,110.27664 c -0.322794,-0.15584 -0.704424,-0.6538 -0.848068,-1.10657 -0.245071,-0.77247 -2.209975,-8.44047 -6.33962,-24.740253 l -1.769362,-6.983702 -1.426581,-0.365089 c -0.78462,-0.200799 -1.613794,-0.50499 -1.842609,-0.675982 -2.117558,-1.582429 -2.983361,-3.090465 -2.991551,-5.210618 -0.0076,-1.962103 0.66742,-3.514968 2.061158,-4.741785 3.02303,-2.660978 7.557716,-1.939218 9.591883,1.526684 0.899154,1.532019 0.988003,4.04905 0.204375,5.78983 l -0.50769,1.127802 0.632287,0.453073 c 3.278847,2.349499 15.91263,10.939679 15.981651,10.86652 C 97.73426,85.954589 107.95,67.132349 107.95,66.938941 c 0,-0.124045 -0.28697,-0.451265 -0.63771,-0.727156 -3.12292,-2.456491 -2.94496,-7.53982 0.34903,-9.970053 3.89797,-2.875826 9.56122,0.09451 9.54329,5.005389 -0.007,1.835669 -0.57691,3.286404 -1.80642,4.595962 -0.45848,0.488333 -0.83361,0.994306 -0.83361,1.124386 0,0.206549 7.96905,15.128002 9.7012,18.164759 0.51883,0.909603 0.72972,1.080353 1.09322,0.885107 0.3636,-0.195307 12.97972,-8.94226 15.39277,-10.672052 0.63246,-0.45338 0.63423,-0.467178 0.1815,-1.416555 -1.61481,-3.386292 0.006,-7.512655 3.40635,-8.671212 2.34893,-0.800361 4.4374,-0.433832 6.21943,1.091516 1.50348,1.286929 2.19088,2.749779 2.20458,4.691591 0.0214,3.04187 -2.08686,5.494845 -5.29583,6.16157 l -0.98065,0.203748 -3.48808,13.882967 c -4.94565,19.684252 -4.62809,18.579162 -5.45231,18.973492 -0.5997,0.28691 -1.17595,0.21975 -4.09052,-0.47679 -14.79942,-3.53682 -30.24541,-3.4476 -45.614574,0.26348 -2.55636,0.61726 -2.328015,0.6005 -3.10044,0.22757 z m 5.613982,-4.29241 c 6.003596,-1.34698 14.487922,-2.25937 21.062102,-2.26497 6.08484,-0.005 14.5533,0.94388 20.96707,2.3498 l 3.35194,0.73475 0.30444,-1.01612 c 0.16744,-0.55887 0.22889,-1.09167 0.13655,-1.18402 -0.23818,-0.23817 -5.05574,-1.31531 -8.64814,-1.9336 -5.20538,-0.8959 -10.58659,-1.33467 -16.36861,-1.33467 -5.8203,0 -8.72615,0.2138 -14.568937,1.07192 -3.048523,0.44774 -10.26588,1.9433 -10.497942,2.17537 -0.04239,0.0424 0.05119,0.58242 0.207968,1.20006 0.215442,0.84878 0.389811,1.09021 0.714094,0.98873 0.235976,-0.0738 1.738736,-0.42811 3.339465,-0.78725 z"
       id="path19" /><path
       style="fill:#000000"
       d="m 148.49626,112.40707 c -0.18127,-0.18127 -0.32959,-0.64413 -0.32959,-1.02856 0,-0.38443 1.53967,-3.85695 3.4215,-7.71671 3.59983,-7.383488 3.77501,-7.622113 5.19846,-7.080918 0.34555,0.131378 0.70299,0.545919 0.79836,0.925909 0.19961,0.795311 -0.28428,1.910209 -4.25895,9.812829 -2.63726,5.24353 -2.64883,5.26082 -3.57301,5.33881 -0.50994,0.043 -1.07549,-0.0701 -1.25677,-0.25136 z"
       id="path18" /><path
       style="fill:#000000"
       d="m 71.746512,112.48097 c -0.533006,-0.33788 -6.693204,-13.252471 -6.849706,-14.360112 -0.118001,-0.835147 -0.03873,-1.029617 0.586785,-1.439468 0.644742,-0.422452 0.796026,-0.432514 1.394198,-0.09273 0.811826,0.461141 0.454485,-0.193901 4.154266,7.61517 2.968799,6.2662 3.391678,7.53327 2.733778,8.19117 -0.365517,0.36552 -1.502017,0.4139 -2.019321,0.086 z"
       id="path17" /><path
       style="fill:#000000"
       d="m 162.54215,122.07472 c -0.40637,-0.62021 -0.41291,-0.76423 -0.0631,-1.38906 0.47626,-0.85066 4.40571,-4.16961 17.78424,-15.02118 9.19772,-7.460434 10.35566,-8.320448 11.10425,-8.247246 0.92509,0.09046 1.72389,1.136733 1.43755,1.882922 -0.16961,0.441997 -1.93563,1.921794 -14.60822,12.240644 -4.07459,3.31779 -8.81845,7.20088 -10.54192,8.6291 -3.47475,2.87949 -4.27808,3.17878 -5.11281,1.90482 z"
       id="path16" /><path
       style="fill:#000000"
       d="M 56.168107,121.51862 C 55.3257,120.8322 49.278645,115.93837 42.730207,110.64345 27.987148,98.722542 29.104165,99.696291 29.104165,98.765077 c 0,-0.989506 0.432799,-1.398412 1.480126,-1.398412 0.862506,0 5.222639,3.347865 19.264656,14.792085 10.705895,8.72528 10.665668,8.68469 9.846026,9.93562 -0.696073,1.06234 -1.722093,0.89485 -3.526866,-0.57575 z"
       id="path15" /><path
       style="fill:#000000"
       d="m 220.66236,130.63802 c -0.13936,-0.32742 -0.43688,-1.41679 -0.66115,-2.42082 -0.79211,-3.54607 -2.70046,-6.589 -4.95929,-7.90778 -0.61946,-0.36165 -2.04652,-0.98331 -3.17125,-1.38145 -2.37899,-0.84213 -2.78645,-1.19781 -2.38403,-2.08103 0.19293,-0.42344 0.67435,-0.71689 1.56026,-0.95108 2.05088,-0.54214 5.05158,-2.11217 5.91389,-3.09428 1.16364,-1.32532 2.27074,-3.67873 2.91193,-6.19004 0.68011,-2.66373 0.92495,-3.15946 1.56044,-3.15946 0.72377,0 0.99292,0.46239 1.62246,2.78742 1.54842,5.71859 3.53173,7.92042 8.58709,9.53324 1.46194,0.4664 1.8703,0.71099 1.93854,1.16113 0.12413,0.81872 -0.33745,1.24538 -1.89276,1.74959 -2.0084,0.6511 -4.2531,1.89643 -5.29335,2.93668 -1.30042,1.30042 -2.4445,3.59598 -3.20096,6.42266 -0.35976,1.34427 -0.79348,2.61207 -0.96383,2.81733 -0.4676,0.56344 -1.28279,0.44796 -1.56799,-0.22211 z m 4.29117,-12.38582 1.53203,-0.9902 -1.12559,-0.66365 c -1.45841,-0.85987 -2.36633,-1.853 -3.1805,-3.47897 l -0.65741,-1.31291 -0.67068,1.32353 c -0.60914,1.20207 -2.08276,2.75206 -3.6436,3.83242 l -0.59735,0.41347 1.2044,0.70582 c 1.44235,0.84528 2.48284,2.022 3.18473,3.60172 l 0.51794,1.16573 0.952,-1.80338 c 0.78243,-1.48218 1.22486,-1.97974 2.48403,-2.79358 z"
       id="path14" /><path
       style="fill:#000000"
       d="m -0.13657285,130.9026 c -0.0659797,-0.1819 -0.42089178,-1.37936 -0.78869359,-2.66103 -1.60996836,-5.61022 -3.41888426,-7.6114 -8.54559716,-9.45387 -0.9161094,-0.32923 -1.7775844,-0.80776 -1.9143894,-1.06338 -0.373841,-0.69853 0.42523,-1.44312 2.1248341,-1.97998 4.9878843,-1.57553 6.7944446,-3.63217 8.43954005,-9.60784 0.5770483,-2.09607 0.80004437,-2.56623 1.24791155,-2.63104 0.7740422,-0.11201 1.0271578,0.31315 1.7009175,2.85704 0.6249597,2.35964 1.736671,4.85495 2.785682,6.25266 0.8118944,1.08177 2.6202831,2.12978 5.4051158,3.13242 1.795609,0.64649 2.26556,0.9255 2.331315,1.38414 0.100817,0.70318 -0.59661,1.19741 -2.7212006,1.92837 -4.1900417,1.44159 -6.2817442,3.83547 -7.5596996,8.65182 -0.8373415,3.15576 -1.0188618,3.52142 -1.74810973,3.52142 -0.3507146,0 -0.69164626,-0.14883 -0.75762592,-0.33073 z m 1.54409025,-9.74465 c 0.5503441,-1.18263 1.0616819,-1.82395 1.9491877,-2.44464 0.6617195,-0.46279 1.3838365,-0.97064 1.6047044,-1.12855 0.3357197,-0.24002 0.233012,-0.38795 -0.6262709,-0.902 -1.5791341,-0.9447 -2.3466792,-1.75555 -3.0174669,-3.18771 -0.682852,-1.45791 -0.92239145,-1.6039 -1.1491667,-0.70036 -0.27353956,1.08987 -1.736457,2.82109 -3.0851143,3.65092 -0.7241994,0.44561 -1.3167262,0.9046 -1.3167262,1.01998 0,0.11539 0.3499855,0.35476 0.7777455,0.53195 1.1283426,0.46737 2.83704139,2.29745 3.38152091,3.62172 0.25901813,0.62998 0.5304733,1.14463 0.60323372,1.14366 0.0727604,-9.7e-4 0.46801919,-0.72321 0.87835277,-1.60497 z"
       id="path13" /><path
       style="fill:#000000"
       d="m 174.20282,132.73388 c -0.953,-0.81972 -0.72389,-1.79556 0.62553,-2.66432 0.543,-0.34959 6.73789,-3.80973 13.76642,-7.68921 13.7848,-7.60869 14.00381,-7.70005 14.84582,-6.19261 0.34567,0.61884 0.34246,0.76873 -0.0285,1.33494 -0.50226,0.76655 -27.27462,15.79753 -28.17699,15.81959 -0.17379,0.004 -0.6383,-0.26952 -1.03225,-0.60839 z"
       id="path12" /><path
       style="fill:#000000"
       d="m 41.539582,130.62664 c -2.692135,-1.49542 -8.526198,-4.72494 -12.964584,-7.17671 -10.274288,-5.67552 -10.054166,-5.53393 -10.054166,-6.46684 0,-0.91853 0.72881,-1.62476 1.676699,-1.62476 0.739767,0 26.522074,14.14564 27.625905,15.15714 0.327422,0.30004 0.595313,0.81378 0.595313,1.14165 0,0.58553 -1.108605,1.69502 -1.689327,1.69067 -0.162277,-0.001 -2.497704,-1.22573 -5.18984,-2.72115 z"
       id="path11" /><path
       style="fill:#000000"
       d="m 149.36767,139.10469 c -0.0579,-0.1819 -0.37256,-1.20709 -0.69922,-2.27819 -1.02183,-3.35061 -1.9754,-4.29616 -5.38874,-5.34347 -1.10159,-0.338 -1.96426,-0.73041 -1.91706,-0.87203 0.0472,-0.14162 0.79375,-0.45467 1.65899,-0.69566 2.05448,-0.57223 3.63794,-1.40711 4.32473,-2.28022 0.30395,-0.38641 0.89924,-1.78496 1.32288,-3.10789 0.42364,-1.32293 0.88019,-2.44198 1.01457,-2.48677 0.13437,-0.0448 0.44826,0.66583 0.69754,1.57916 1.0983,4.02407 2.05302,5.08418 5.5368,6.14796 1.02981,0.31445 1.91614,0.70303 1.96963,0.86349 0.0537,0.16094 -0.58629,0.49047 -1.4272,0.73493 -2.28768,0.66505 -4.01684,1.63664 -4.60695,2.5886 -0.29001,0.46784 -0.84272,1.8924 -1.22825,3.16571 -0.66143,2.18451 -1.01592,2.74381 -1.25772,1.98438 z"
       id="path10" /><path
       style="fill:#000000"
       d="m 72.680509,139.23698 c -0.06113,-0.10914 -0.3648,-1.03188 -0.674831,-2.05052 -1.10888,-3.64336 -2.059715,-4.60201 -5.673629,-5.72027 -0.988987,-0.30602 -1.758723,-0.67471 -1.710524,-0.81931 0.0482,-0.1446 0.916902,-0.52758 1.93045,-0.85107 3.647914,-1.1643 4.292041,-1.80073 5.391228,-5.32687 0.376707,-1.20845 0.803984,-2.18236 0.949505,-2.16423 0.14552,0.0181 0.622318,1.12961 1.059549,2.46998 0.437231,1.34036 1.032543,2.69971 1.322916,3.02078 0.699239,0.77315 2.301944,1.58616 4.133357,2.09676 0.818807,0.22828 1.512657,0.53412 1.541889,0.67964 0.02923,0.14553 -0.878826,0.59121 -2.017906,0.99041 -3.396416,1.19031 -4.186696,2.0573 -5.129932,5.62783 -0.54428,2.06032 -0.826355,2.57488 -1.122072,2.04687 z"
       id="path9" /><path
       style="fill:#000000"
       d="m 200.69737,145.98385 c -0.90824,-3.29586 -2.22383,-4.60887 -5.49621,-5.48541 -0.68858,-0.18445 -1.19477,-0.4279 -1.12486,-0.54101 0.0699,-0.11311 0.95279,-0.45645 1.96196,-0.76298 1.00918,-0.30653 2.18413,-0.85121 2.61101,-1.2104 0.83022,-0.69859 1.66953,-2.40665 2.18132,-4.43917 0.17356,-0.68927 0.40602,-1.25321 0.51657,-1.25321 0.11056,0 0.40264,0.80269 0.64908,1.78376 0.84846,3.37777 1.89309,4.44509 5.23866,5.35248 0.69122,0.18747 1.25677,0.43285 1.25677,0.54529 0,0.11243 -0.82552,0.45517 -1.83448,0.76163 -2.93618,0.89184 -3.85307,1.90269 -4.66781,5.14621 -0.24267,0.96605 -0.53011,1.75646 -0.63876,1.75646 -0.10866,0 -0.40262,-0.74414 -0.65325,-1.65365 z"
       id="path8" /><path
       style="fill:#000000"
       d="m 20.679362,147.17448 c -0.132736,-0.25466 -0.432074,-1.11787 -0.665196,-1.91823 -0.233122,-0.80037 -0.660198,-1.83798 -0.949057,-2.30581 -0.558523,-0.90458 -2.339865,-1.94276 -4.186729,-2.44007 -0.616027,-0.16588 -1.120048,-0.39264 -1.120048,-0.50391 0,-0.11127 0.831857,-0.47022 1.848572,-0.79768 2.96408,-0.95464 3.841655,-1.92781 4.653718,-5.16065 0.242665,-0.96606 0.541207,-1.75646 0.663428,-1.75646 0.12222,0 0.350056,0.50601 0.506302,1.12448 0.947675,3.75115 1.887919,4.89944 4.714842,5.75809 1.045774,0.31764 1.959286,0.67119 2.030028,0.78565 0.07074,0.11446 -0.420273,0.34632 -1.091144,0.51525 -1.670868,0.42073 -3.67631,1.47248 -4.188319,2.19655 -0.233425,0.3301 -0.731996,1.58245 -1.107935,2.783 -0.375939,1.20054 -0.724835,2.18281 -0.775325,2.18281 -0.05049,0 -0.200401,-0.20836 -0.333137,-0.46302 z"
       id="path7" /><path
       style="fill:#000000"
       d="m -18.520836,154.72901 c -1.72259,-1.16923 -1.999925,-3.68196 -0.581128,-5.26517 1.800577,-2.00924 5.18766,-1.19574 5.890603,1.41479 0.823204,3.05715 -2.706735,5.61703 -5.309475,3.85038 z"
       id="path6" /><path
       style="fill:#000000"
       d="m 195.82963,168.39863 c -1.69158,-1.42336 -1.59547,-3.86693 0.1996,-5.0749 2.12154,-1.42766 4.78952,0.004 4.78952,2.57002 0,2.62252 -3.03713,4.14737 -4.98912,2.50488 z"
       id="path5" /><path
       style="fill:#000000"
       d="m 22.458222,168.67106 c -0.750963,-0.40811 -1.55614,-1.84514 -1.55614,-2.77731 0,-0.94281 0.745187,-2.23847 1.566452,-2.7236 2.486807,-1.469 5.608165,1.15237 4.514919,3.7917 -0.762673,1.84126 -2.839083,2.62553 -4.525231,1.70921 z"
       id="path4" /><path
       style="fill:#000000"
       d="m 243.05751,179.90651 c -2.34353,-0.69395 -2.96721,-3.78823 -1.11438,-5.52887 0.73993,-0.69513 2.36582,-0.971 3.39165,-0.57548 1.72965,0.66688 2.36504,3.53374 1.11298,5.02173 -0.61019,0.72517 -1.04583,0.96284 -2.23734,1.22063 -0.21828,0.0472 -0.73709,-0.0149 -1.15291,-0.13801 z"
       id="path3" /><path
       style="fill:#000000"
       d="m 69.146176,243.70784 c -2.439434,-0.62614 -4.23868,-2.3806 -4.991124,-4.86691 -1.440132,-4.75863 -1.070888,-15.39885 1.206612,-34.77 0.431293,-3.66834 0.784169,-7.01032 0.784169,-7.42664 0,-0.62974 -0.900289,-1.66642 -5.357813,-6.1695 -11.456419,-11.57351 -19.917554,-21.87834 -21.64953,-26.36699 -1.775423,-4.60125 0.09979,-8.28168 5.297251,-10.39681 5.773805,-2.34967 18.451329,-5.05613 35.336133,-7.54375 2.619375,-0.38591 4.952975,-0.8029 5.185777,-0.92665 0.232802,-0.12375 1.832232,-2.70093 3.55429,-5.72707 9.769159,-17.16713 15.957669,-25.77333 19.834929,-27.58388 1.69568,-0.79183 3.78713,-0.82672 5.42396,-0.0905 4.0379,1.81622 10.06121,10.16269 20.33451,28.1774 1.63454,2.86624 3.17507,5.27423 3.42338,5.35107 0.24832,0.0769 2.89227,0.50358 5.87545,0.9483 17.17485,2.56033 29.84482,5.37032 35.04273,7.7719 2.39063,1.10455 4.2014,2.72114 4.79811,4.28359 0.68972,1.80601 0.41927,4.66294 -0.64632,6.82746 -2.3173,4.70712 -9.54199,13.31717 -20.49598,24.42618 -5.78568,5.86755 -6.29946,6.463 -6.16401,7.14375 0.31617,1.58892 1.51783,12.19827 2.1519,18.9989 1.4629,15.68998 1.11531,22.48872 -1.31247,25.67171 -0.36826,0.48282 -1.35517,1.21451 -2.19312,1.62598 -2.08899,1.0258 -4.93612,1.01881 -8.53501,-0.0209 -5.31107,-1.53442 -15.07572,-5.71869 -29.03366,-12.44128 l -5.88261,-2.83325 -7.74343,3.69332 c -18.934308,9.03094 -26.498156,11.98874 -31.535266,12.3317 -1.030009,0.0701 -2.248995,0.0309 -2.708858,-0.0871 z m 46.578874,-41.12861 c 4.14293,-2.04755 6.762,-6.79979 6.77312,-12.28969 0.003,-1.69947 -0.0737,-2.00791 -0.64552,-2.57969 -0.77343,-0.77343 -1.59877,-0.81421 -5.03911,-0.24895 -3.16013,0.51923 -8.28607,0.49882 -12.03854,-0.0479 -1.67349,-0.24383 -3.36796,-0.36165 -3.7655,-0.26182 -2.631148,0.66074 -1.688875,7.88934 1.61382,12.3803 1.32101,1.79631 3.68068,3.3971 5.78559,3.92494 0.54796,0.13741 1.97124,0.21719 3.16283,0.17729 1.88521,-0.0631 2.42449,-0.20003 4.15331,-1.05446 z m -32.092491,-5.62049 c 4.349602,-0.9893 6.491307,-4.42526 4.484846,-7.1951 -2.935525,-4.05238 -11.660987,-4.32201 -15.047488,-0.465 -1.544409,1.75898 -1.497581,3.81155 0.124864,5.47309 2.286375,2.34146 6.175737,3.15639 10.437778,2.18701 z m 62.428701,-0.3405 c 1.80623,-0.68844 3.57132,-2.32837 3.93889,-3.65961 0.84831,-3.07234 -2.66574,-6.05924 -7.48087,-6.35865 -5.08127,-0.31595 -9.30157,2.11382 -9.30157,5.35523 0,2.18575 2.17444,4.2801 5.26084,5.06707 1.94487,0.4959 5.7541,0.29293 7.58271,-0.40404 z m -52.979305,-12.9712 c 1.306496,-0.66652 2.324701,-1.8578 3.188414,-3.73037 0.557981,-1.20974 0.67256,-1.8569 0.679236,-3.83646 0.0094,-2.78752 -0.329941,-4.10768 -1.504764,-5.85409 -2.470594,-3.6726 -6.826092,-4.04722 -9.584726,-0.82437 -2.531597,2.9576 -2.878297,8.17722 -0.780875,11.7562 1.695583,2.89329 5.121647,3.95891 8.002715,2.48909 z m 41.482305,-0.15836 c 2.434,-1.42642 3.68423,-4.12725 3.67438,-7.93764 -0.005,-2.03936 -0.1118,-2.60917 -0.74193,-3.96875 -1.32716,-2.86346 -3.31955,-4.34855 -5.84911,-4.35981 -3.7772,-0.0168 -6.55477,3.54573 -6.5966,8.46085 -0.0229,2.68699 0.50328,4.44364 1.86511,6.22718 1.90618,2.49645 4.994,3.13361 7.64815,1.57817 z"
       id="path2" /><path
       style="fill:#000000"
       d="m 111.13151,259.24508 c -0.47224,-1.86936 -1.31246,-3.98941 -1.98897,-5.01859 -0.7367,-1.12074 -3.07931,-2.39992 -5.30881,-2.89886 -0.80019,-0.17907 -1.41687,-0.43966 -1.3704,-0.57908 0.0465,-0.13941 0.97256,-0.51074 2.05798,-0.82516 4.00374,-1.15981 4.98425,-2.15308 6.1619,-6.24214 0.35863,-1.24524 0.7923,-2.24896 0.97169,-2.24896 0.1793,0 0.53717,0.82717 0.80129,1.85209 1.01379,3.93392 1.85585,5.08419 4.42948,6.05074 0.97897,0.36766 2.18858,0.76947 2.688,0.8929 0.49942,0.12343 0.9428,0.33801 0.98527,0.47685 0.0425,0.13883 -1.01655,0.60204 -2.35339,1.02935 -3.27429,1.0466 -4.3772,2.11278 -5.34072,5.16285 -0.37482,1.18653 -0.6815,2.3152 -0.6815,2.50815 0,0.19295 -0.17163,0.49327 -0.38141,0.66736 -0.31762,0.26361 -0.42974,0.12522 -0.67041,-0.8275 z"
       id="path1" /></g></svg>
