<?xml version="1.0" encoding="UTF-8" standalone="no"?>
<!-- Created with Inkscape (http://www.inkscape.org/) -->

<svg
   width="308.36725mm"
   height="323.686mm"
   viewBox="0 0 308.36725 323.686"
   version="1.1"
   id="svg1"
   xml:space="preserve"
   sodipodi:docname="stamp_goal_heart_1.svg"
   inkscape:version="1.4.4 (dcaf3e7, 2026-05-05)"
   xmlns:inkscape="http://www.inkscape.org/namespaces/inkscape"
   xmlns:sodipodi="http://sodipodi.sourceforge.net/DTD/sodipodi-0.dtd"
   xmlns="http://www.w3.org/2000/svg"
   xmlns:svg="http://www.w3.org/2000/svg"><sodipodi:namedview
     id="namedview1"
     pagecolor="#ffffff"
     bordercolor="#000000"
     borderopacity="0.25"
     inkscape:showpageshadow="2"
     inkscape:pageopacity="0.0"
     inkscape:pagecheckerboard="0"
     inkscape:deskcolor="#d1d1d1"
     inkscape:document-units="mm"
     inkscape:zoom="0.021252593"
     inkscape:cx="564.63699"
     inkscape:cy="588.16353"
     inkscape:window-width="944"
     inkscape:window-height="250"
     inkscape:window-x="0"
     inkscape:window-y="33"
     inkscape:window-maximized="0"
     inkscape:current-layer="layer1"><inkscape:page
       x="0"
       y="0"
       width="308.36725"
       height="323.686"
       id="page2"
       margin="0"
       bleed="0" /></sodipodi:namedview><defs
     id="defs1" /><g
     inkscape:label="Layer 1"
     inkscape:groupmode="layer"
     id="layer1"
     transform="translate(44.245267,-4.4171089)"><path
       style="fill:#000000"
       d="m 108.71155,32.560436 c -1.17459,-0.511208 -1.68759,-1.377421 -1.68759,-2.849512 0,-1.739821 0.97951,-2.857384 2.65441,-3.028524 3.45995,-0.353534 4.87042,4.344473 1.74903,5.825669 -1.09217,0.518269 -1.62189,0.528483 -2.71585,0.05237 z"
       id="path51" /><path
       style="fill:#000000"
       d="m 128.5875,34.275702 c -2.92044,-1.207975 -2.12407,-5.82783 1.00533,-5.832008 1.14653,-0.0015 2.30447,0.734136 2.71968,1.727877 0.47907,1.146588 0.47262,1.559485 -0.0413,2.642473 -0.63247,1.332833 -2.34876,2.013836 -3.68372,1.461658 z"
       id="path50" /><path
       style="fill:#000000"
       d="m 89.300555,34.06469 c -2.743552,-1.376028 -1.638097,-5.621985 1.463712,-5.621985 1.034249,0 2.169191,0.778389 2.668192,1.829954 0.389245,0.820275 0.397364,1.04939 0.07042,1.987375 -0.396674,1.138037 -1.75438,2.268393 -2.723779,2.267676 -0.305901,-2.26e-4 -0.971247,-0.208585 -1.478545,-0.46302 z"
       id="path49" /><path
       style="fill:#000000"
       d="m 147.48486,38.252641 c -0.63433,-0.634322 -0.7734,-0.995919 -0.7734,-2.010833 0,-1.06324 0.13137,-1.368803 0.93319,-2.170624 0.86001,-0.860014 1.02843,-0.922453 2.14781,-0.796282 1.77431,0.19999 2.60754,1.116592 2.60754,2.868436 0,1.177558 -0.10396,1.431493 -0.86407,2.110654 -1.22741,1.096692 -2.95361,1.096116 -4.05107,-0.0014 z"
       id="path48" /><path
       style="fill:#000000"
       d="m 68.953255,38.348631 c -2.243532,-1.887808 -0.455781,-5.580143 2.438861,-5.037105 2.20481,0.413625 3.109466,3.352593 1.520944,4.941115 -1.048279,1.04828 -2.778235,1.090216 -3.959805,0.09599 z"
       id="path47" /><path
       style="fill:#000000"
       d="m 166.1205,46.172016 c -0.31185,-0.125847 -0.75776,-0.501151 -0.9909,-0.834008 -2.14634,-3.064337 1.84741,-6.666358 4.41727,-3.983999 0.95147,0.993113 1.14604,2.130819 0.57148,3.341599 -0.70732,1.490565 -2.40718,2.118324 -3.99785,1.476408 z"
       id="path46" /><path
       style="fill:#000000"
       d="m 51.302708,45.534789 c -0.712156,-0.712156 -0.899378,-1.111818 -0.898595,-1.91823 0.0014,-1.493361 0.81065,-2.651613 2.093937,-2.997166 2.051276,-0.552352 3.725908,0.818567 3.725908,3.050173 0,1.439338 -1.395275,2.764806 -2.910417,2.764806 -0.910997,0 -1.27336,-0.16211 -2.010833,-0.899583 z"
       id="path45" /><path
       style="fill:#000000"
       d="m 183.32979,55.853539 c -0.73747,-0.737474 -0.89958,-1.099837 -0.89958,-2.010834 0,-1.515141 1.32547,-2.910416 2.76481,-2.910416 1.87173,0 3.05602,1.127862 3.05602,2.910416 0,1.782554 -1.18429,2.910417 -3.05602,2.910417 -0.74541,0 -1.17082,-0.205173 -1.86523,-0.899583 z"
       id="path44" /><path
       style="fill:#000000"
       d="m 33.986815,56.413978 c -0.81218,-0.640016 -1.310774,-1.650538 -1.310774,-2.656602 0,-0.813955 0.185862,-1.211783 0.899583,-1.925504 1.211018,-1.211018 2.659581,-1.258089 3.924888,-0.127537 0.764486,0.683068 0.86407,0.929515 0.86407,2.13837 0,1.208855 -0.09958,1.455302 -0.86407,2.138371 -0.671892,0.600336 -1.113236,0.770175 -1.984375,0.763631 -0.616167,-0.0046 -1.304362,-0.153456 -1.529322,-0.330729 z"
       id="path43" /><path
       style="fill:#000000"
       d="m 200.025,70.271343 c -1.95301,-0.836305 -2.38966,-3.748941 -0.75482,-5.034908 0.92392,-0.726753 2.69459,-0.732887 3.6104,-0.01251 2.02804,1.595253 1.09269,4.706813 -1.54649,5.144632 -0.42896,0.07116 -1.01805,0.02741 -1.30909,-0.09721 z"
       id="path42" /><path
       style="fill:#000000"
       d="m 18.471809,70.127367 c -1.396911,-0.612813 -2.077586,-2.559376 -1.375218,-3.932785 0.500797,-0.979259 1.360674,-1.49185 2.513039,-1.498076 1.376388,-0.0074 2.367966,0.739139 2.771769,2.086914 0.695749,2.322205 -1.655132,4.332959 -3.90959,3.343947 z"
       id="path41" /><path
       style="fill:#000000"
       d="m 221.39914,97.835819 c -0.84219,-0.153296 -1.92726,-1.553496 -1.92726,-2.486969 0,-0.979598 0.6353,-2.244395 1.30826,-2.60455 0.27997,-0.149835 0.97687,-0.272427 1.54868,-0.272427 1.83207,0 2.92991,1.656165 2.39119,3.607255 -0.3529,1.27811 -1.78582,2.036103 -3.32087,1.756691 z"
       id="path40" /><path
       style="fill:#000000"
       d="m -3.0135867,97.658895 c -1.8620376,-1.032048 -1.7251568,-4.110324 0.2185737,-4.915444 1.86402725,-0.772105 3.72105332,0.439277 3.72105332,2.427331 0,1.315383 -0.34193047,1.953178 -1.3176209,2.457728 -0.94032912,0.486263 -1.78190882,0.496016 -2.62200612,0.03038 z"
       id="path39" /><path
       style="fill:#000000"
       d="m 168.20158,103.70162 c -1.08815,-0.76217 -0.78329,-1.6731 2.37015,-7.08191 6.19759,-10.630191 15.53344,-25.799677 16.23783,-26.384266 0.5929,-0.492064 1.87725,-0.419733 2.4964,0.14059 0.96523,0.873517 0.70036,2.030904 -1.14152,4.988145 -0.92075,1.478324 -5.22286,8.402862 -9.56024,15.387862 -4.33738,6.985 -8.07163,12.848829 -8.29834,13.030729 -0.5587,0.44827 -1.39445,0.41604 -2.10428,-0.0811 z"
       id="path38" /><path
       style="fill:#000000"
       d="m 49.415342,103.65052 c -0.284482,-0.25466 -2.044105,-2.96333 -3.910273,-6.019272 -1.866168,-3.055937 -6.131288,-9.953112 -9.478045,-15.327053 -4.388898,-7.047326 -6.085011,-9.99052 -6.085011,-10.559062 0,-1.071842 1.208462,-2.130374 2.175951,-1.905988 1.030238,0.23894 1.604051,1.031485 6.55579,9.054793 8.800413,14.259321 13.581454,22.523832 13.581454,23.476912 0,1.452 -1.760945,2.2455 -2.839866,1.27967 z"
       id="path37" /><path
       style="fill:#000000"
       d="m 75.670833,107.27355 c -0.336783,-0.17278 -3.649756,-6.46849 -9.11259,-17.31682 l -8.583424,-17.045331 -1.497371,0.156506 c -2.560382,0.267613 -4.610124,-0.813814 -5.576996,-2.942378 -1.489927,-3.280066 0.620828,-7.036981 4.191174,-7.459836 1.965016,-0.232727 4.021942,0.782264 5.013239,2.473784 0.784067,1.33791 0.972559,3.684086 0.384288,4.78328 -0.176504,0.3298 -0.248881,0.716192 -0.160838,0.858649 0.33667,0.544744 21.363294,14.282135 21.860416,14.282135 0.203591,0 0.248339,-0.479627 0.141939,-1.521354 -0.08546,-0.836745 -0.289359,-5.271823 -0.453101,-9.855729 -0.163742,-4.583906 -0.380567,-8.746925 -0.481834,-9.251152 -0.153484,-0.764226 -0.326554,-0.945908 -1.040094,-1.091842 -3.8798,-0.793504 -5.41802,-5.744133 -2.734673,-8.801307 1.357407,-1.546511 4.314879,-2.019742 6.298409,-1.007821 2.649792,1.351823 3.534318,5.151926 1.806802,7.76238 l -0.675318,1.020474 6.80648,8.528905 c 3.743564,4.690897 6.842042,8.578514 6.885507,8.639148 0.04347,0.06063 0.145232,0.04404 0.226149,-0.03688 0.258194,-0.258194 9.198973,-26.70031 9.054043,-26.777084 -4.06992,-2.155903 -4.89926,-7.061945 -1.67268,-9.89492 1.27456,-1.119078 1.95785,-1.36907 3.74203,-1.36907 3.46923,0 5.72481,2.230697 5.77289,5.709202 0.0187,1.351414 -0.10582,1.815272 -0.77976,2.905426 -0.70942,1.147534 -1.94772,2.267912 -2.83264,2.562884 -0.19272,0.06424 1.20281,4.497502 3.85764,12.254801 5.22961,15.280658 5.01338,14.669651 5.18706,14.657257 0.0804,-0.0057 2.40836,-2.943595 5.17325,-6.528572 2.7649,-3.584978 5.77883,-7.461803 6.69763,-8.615168 1.49118,-1.871876 1.62955,-2.143879 1.28868,-2.533407 -1.96336,-2.243633 -1.63372,-6.04978 0.67636,-7.80949 3.48969,-2.658295 8.40296,-0.227174 8.40296,4.157851 0,2.424555 -1.57651,4.480757 -3.8848,5.066855 -1.19508,0.303445 -1.27946,0.382918 -1.43547,1.352066 -0.24379,1.514387 -0.87064,20.19467 -0.68393,20.381373 0.18903,0.189031 1.27901,-0.499129 12.95784,-8.18098 7.70742,-5.069613 8.91563,-5.951912 8.77535,-6.408222 -0.0895,-0.291042 -0.22727,-1.157326 -0.30624,-1.925075 -0.46272,-4.498706 4.00637,-7.304328 7.95191,-4.992085 2.30334,1.349847 3.08097,4.727092 1.65049,7.168031 -1.00975,1.723013 -3.01964,2.6574 -5.26509,2.447716 l -1.64644,-0.153746 -8.55506,16.929551 c -5.65209,11.184875 -8.7633,17.065985 -9.16872,17.331635 -0.5528,0.36221 -1.04206,0.34854 -4.93352,-0.13783 -10.6976,-1.33704 -19.00756,-1.8751 -28.96291,-1.87533 -10.354733,-2.4e-4 -17.755622,0.50793 -32.771537,2.25022 -0.582083,0.0675 -1.296458,6.3e-4 -1.5875,-0.1487 z m 7.672917,-5.64986 c 9.66587,-1.689518 19.37829,-2.40227 29.76563,-2.184373 9.72845,0.204076 17.16173,0.951043 25.49867,2.562363 1.58224,0.30581 3.03537,0.49516 3.22919,0.42078 0.44474,-0.17066 1.43464,-2.08594 1.43464,-2.775777 0,-0.659397 -0.5993,-0.849935 -5.82084,-1.850645 -8.85202,-1.696494 -16.9314,-2.413748 -27.18924,-2.413748 -10.672995,0 -18.062607,0.636814 -27.619467,2.38016 -6.835091,1.246846 -6.814243,1.23439 -5.776112,3.45084 l 0.641058,1.36869 1.066152,-0.15542 c 0.586383,-0.0855 2.733027,-0.44677 4.770319,-0.80287 z"
       id="path36" /><path
       style="fill:#000000"
       d="m 181.43227,112.25472 c -0.67159,-0.32367 -0.99141,-1.22221 -0.75525,-2.12191 0.28137,-1.07193 25.79936,-29.116006 26.91316,-29.577358 1.36371,-0.564866 2.62128,0.274432 2.62128,1.74943 0,0.816543 -0.56471,1.512391 -5.6224,6.928074 -3.09231,3.311199 -9.16475,9.846738 -13.4943,14.523424 -4.32955,4.67668 -8.05999,8.57523 -8.28987,8.66344 -0.52745,0.2024 -0.63754,0.18916 -1.37262,-0.1651 z"
       id="path35" /><path
       style="fill:#000000"
       d="M 32.666009,107.35469 C 22.137973,96.742544 9.7793453,83.945734 9.441544,83.306785 9.0642114,82.593064 9.2235986,81.299931 9.7419235,80.869759 c 0.5984985,-0.49671 1.7053835,-0.618304 2.3678935,-0.26012 0.727806,0.393486 4.388244,4.184538 16.446302,17.033148 4.500761,4.795843 8.935839,9.511803 9.855729,10.479923 1.407275,1.48106 1.672526,1.90878 1.672526,2.69698 0,1.01383 -0.723214,1.76052 -1.705168,1.76052 -0.336216,0 -2.418911,-1.90492 -5.713197,-5.22552 z"
       id="path34" /><path
       style="fill:#000000"
       d="m 228.50139,112.55478 c -1.27039,-1.18355 -1.30153,-2.69898 -0.0824,-4.00949 0.91018,-0.97839 2.59068,-1.01915 3.67198,-0.0891 0.63546,0.5466 0.74235,0.83563 0.74235,2.00728 0,1.17165 -0.10689,1.46068 -0.74235,2.00728 -0.97695,0.84034 -2.73362,0.88143 -3.58959,0.084 z"
       id="path33" /><path
       style="fill:#000000"
       d="m -11.371577,112.47748 c -1.23669,-1.23669 -1.030846,-3.63404 0.376712,-4.38735 0.756668,-0.40495 2.3269463,-0.32981 3.0533057,0.14612 0.7682372,0.50337 1.2833393,1.91422 1.0452395,2.86289 -0.4593489,1.83019 -3.1841802,2.66941 -4.4752572,1.37834 z"
       id="path32" /><path
       style="fill:#000000"
       d="m 234.68542,129.58864 c -0.85409,-0.20429 -1.96501,-1.42261 -2.13799,-2.3447 -0.2295,-1.22332 0.54763,-2.72803 1.64592,-3.18693 1.1144,-0.46563 1.53706,-0.45826 2.59823,0.0453 1.65333,0.78456 2.01728,3.17729 0.6981,4.58948 -0.42219,0.45195 -0.94823,0.82173 -1.16898,0.82173 -0.22076,0 -0.55994,0.0454 -0.75375,0.10084 -0.1938,0.0555 -0.59049,0.0439 -0.88153,-0.0257 z"
       id="path31" /><path
       style="fill:#000000"
       d="m -16.70762,129.26843 c -2.325291,-1.41788 -1.291264,-5.31116 1.410606,-5.31116 1.80973,0 2.993887,1.15114 2.993887,2.91042 0,2.36176 -2.359377,3.64777 -4.404493,2.40074 z"
       id="path30" /><path
       style="fill:#000000"
       d="m 208.54967,138.85521 c -0.0683,-0.11746 -0.20881,-0.92794 -0.31219,-1.80106 -0.33339,-2.81553 -1.17505,-5.91476 -2.11099,-7.7733 -1.72176,-3.41895 -4.3444,-5.30989 -9.00476,-6.49249 -1.43229,-0.36345 -2.73154,-0.78819 -2.88721,-0.94386 -0.55105,-0.55105 0.24144,-1.12299 2.43256,-1.75557 4.50361,-1.30019 7.47778,-3.51928 9.26453,-6.91244 0.90841,-1.72515 1.97643,-5.47146 2.29861,-8.06287 0.10348,-0.83239 0.35195,-1.64938 0.55216,-1.81553 0.72557,-0.60217 1.0924,-0.0551 1.40736,2.09899 0.71334,4.87856 2.09277,8.19448 4.4269,10.64158 1.7718,1.85755 3.76848,2.9463 6.97889,3.80546 1.35666,0.36307 2.59202,0.78549 2.74524,0.93871 0.54305,0.54305 -0.25873,1.15611 -2.11039,1.61367 -7.59578,1.877 -10.38965,5.26646 -12.08203,14.65765 -0.28271,1.56878 -0.42101,1.86451 -0.90411,1.93336 -0.31369,0.0447 -0.62625,-0.0148 -0.69457,-0.1323 z"
       id="path29" /><path
       style="fill:#000000"
       d="m 10.374007,138.87331 c -0.103153,-0.10315 -0.188629,-0.49513 -0.189947,-0.87105 -0.0051,-1.46295 -1.3654685,-6.58892 -2.2166325,-8.35262 -0.937059,-1.94169 -2.179294,-3.38225 -3.9922386,-4.62959 -1.4838548,-1.02091 -2.7815918,-1.54198 -5.5626903,-2.2335 -2.1900406,-0.54456 -2.3878598,-0.64763 -2.4635659,-1.28363 -0.073323,-0.61597 0.042303,-0.7231 1.0583334,-0.98055 5.0690779,-1.28442 8.1108213,-3.13952 10.0160844,-6.10861 1.1384571,-1.77414 2.4961374,-5.77362 2.914485,-8.58557 0.1841565,-1.23781 0.4925105,-2.38143 0.6852315,-2.54138 0.674186,-0.55952 1.103907,-0.0431 1.279662,1.53794 0.285025,2.56396 1.405075,6.72792 2.299624,8.54921 1.658819,3.37733 4.604583,5.48734 9.261889,6.63417 2.244923,0.55279 2.955031,1.05134 2.353815,1.65256 -0.143412,0.14341 -1.316265,0.52757 -2.60634,0.85368 -7.171606,1.81286 -9.721619,5.19794 -11.351601,15.06896 -0.172022,1.04175 -0.333231,1.33935 -0.758505,1.40023 -0.29703,0.0425 -0.624452,-0.007 -0.727604,-0.11025 z"
       id="path28" /><path
       style="fill:#000000"
       d="m 236.74879,147.34007 c -2.02932,-1.00065 -2.42494,-3.80862 -0.75733,-5.37526 0.8682,-0.81563 2.80129,-1.0397 3.72849,-0.43218 0.91608,0.60024 1.71037,1.96085 1.71037,2.92987 0,1.12971 -0.91429,2.48118 -1.9797,2.92634 -1.15175,0.48123 -1.64504,0.47233 -2.70183,-0.0488 z"
       id="path27" /><path
       style="fill:#000000"
       d="m -19.917139,147.91105 c -0.463703,-0.39018 -0.975953,-1.15286 -1.138332,-1.69483 -0.771016,-2.57342 2.092418,-4.86064 4.516089,-3.60732 1.126498,0.58254 1.590422,1.40931 1.590422,2.83434 0,1.80558 -0.98404,2.87541 -2.805859,3.05046 -1.146407,0.11016 -1.429668,0.0338 -2.16232,-0.58265 z"
       id="path26" /><path
       style="fill:#000000"
       d="m 236.75306,165.37417 c -1.03713,-0.45108 -1.67077,-1.61372 -1.67077,-3.06564 0,-0.89585 0.16558,-1.26351 0.89959,-1.99752 0.76785,-0.76785 1.08168,-0.89958 2.14312,-0.89958 1.06145,0 1.37527,0.13173 2.14313,0.89958 0.49477,0.49477 0.91276,1.17938 0.92887,1.52136 0.0911,1.93458 -0.44743,3.00537 -1.79467,3.56828 -1.06831,0.44637 -1.57369,0.44132 -2.64927,-0.0265 z"
       id="path25" /><path
       style="fill:#000000"
       d="m -19.6541,166.67141 c -2.541923,-1.78043 -1.20185,-6.18176 1.887029,-6.19775 1.317403,-0.007 2.484491,0.74475 3.085989,1.98728 0.475548,0.98235 0.51474,1.30091 0.271281,2.20505 -0.424417,1.57616 -1.56623,2.41835 -3.278713,2.41835 -0.818711,0 -1.614817,-0.16724 -1.965586,-0.41293 z"
       id="path24" /><path
       style="fill:#000000"
       d="m 208.58426,166.36989 c -7.62055,-6.11499 -10.08995,-11.8149 -6.76116,-15.60619 2.21758,-2.52568 5.36975,-2.53251 7.97924,-0.0173 l 1.31431,1.26683 0.97089,-1.06213 c 2.40459,-2.63058 6.16313,-2.77453 8.23244,-0.31529 2.28259,2.7127 1.43451,6.97255 -2.27725,11.43842 -1.87372,2.2544 -6.21993,6.06845 -6.91516,6.06845 -0.18373,0 -1.32822,-0.79776 -2.54331,-1.77279 z"
       id="path23" /><path
       style="fill:#000000"
       d="m 6.0716265,166.29909 c -3.4053911,-2.58938 -5.93458094,-5.34282 -7.1306221,-7.76284 -0.9220463,-1.86564 -0.9788691,-2.12134 -0.8849034,-3.98213 0.085589,-1.69492 0.2185849,-2.15662 0.9008683,-3.12739 0.44025017,-0.6264 1.27175284,-1.40585 1.84778376,-1.73211 2.13328804,-1.20829 5.38291644,-0.54775 6.94661514,1.41202 0.3934135,0.49306 0.8082316,0.89647 0.9218181,0.89648 0.1135865,0 0.5785637,-0.42373 1.0332825,-0.94162 1.1462242,-1.30548 2.6412552,-2.01027 4.2958312,-2.02513 1.61705,-0.0145 2.681091,0.47718 3.806665,1.75914 2.527562,2.87873 1.439429,7.57262 -2.801452,12.08464 -2.601075,2.76737 -5.4959877,5.26582 -6.0846204,5.25132 -0.2509249,-0.006 -1.5339947,-0.83076 -2.8512661,-1.83238 z"
       id="path22" /><path
       style="fill:#000000"
       d="m 234.90383,182.3176 c -1.13921,-0.50756 -1.76181,-1.54302 -1.76181,-2.9301 0,-1.43782 0.63622,-2.43787 1.88212,-2.95844 2.71171,-1.13303 5.33743,1.50225 4.20272,4.21801 -0.67953,1.62633 -2.68385,2.40085 -4.32303,1.67053 z"
       id="path21" /><path
       style="fill:#000000"
       d="m -17.462502,184.04341 c -2.510221,-1.10252 -2.463995,-4.70177 0.07401,-5.76222 1.696267,-0.70874 3.730568,0.36213 4.19376,2.20763 0.399883,1.59327 -0.986556,3.49389 -2.680266,3.67429 -0.582083,0.062 -1.296458,0.008 -1.5875,-0.1197 z"
       id="path20" /><path
       style="fill:#000000"
       d="m 17.877206,196.41742 c -2.346414,-0.38922 -5.220115,-1.93379 -7.029291,-3.77815 -2.4717743,-2.51983 -4.2100044,-6.2974 -4.0501332,-8.80186 l 0.081384,-1.27491 1.7197917,-0.0494 c 0.9458854,-0.0272 1.7945875,-0.057 1.8860055,-0.0661 0.09142,-0.009 0.02831,-0.76084 -0.140231,-1.67035 -0.168545,-0.9095 -0.265852,-1.85434 -0.216238,-2.09964 0.144235,-0.71312 2.646031,-0.90766 5.499667,-0.42764 7.36796,1.23936 11.227046,6.23085 11.227046,14.52148 v 2.84758 l -0.859896,0.27594 c -2.365811,0.75918 -5.483834,0.96011 -8.118105,0.52314 z"
       id="path19" /><path
       style="fill:#000000"
       d="m 196.99076,196.59562 c -0.20965,-0.25262 -0.29429,-0.9945 -0.23444,-2.05486 0.0543,-0.96106 -0.0177,-1.69252 -0.1709,-1.73795 -0.14552,-0.0431 -1.07708,0.12068 -2.07013,0.36404 -1.38375,0.3391 -1.87823,0.36979 -2.11667,0.13135 -0.19918,-0.19917 -0.30763,-1.28215 -0.30142,-3.00987 0.0264,-7.35129 4.11506,-12.32925 11.68335,-14.22455 1.19243,-0.29862 2.74025,-0.50638 3.43959,-0.46169 l 1.27153,0.0812 -0.0252,2.12811 -0.0252,2.1281 2.00956,-0.0114 2.00957,-0.0114 -0.036,1.98437 c -0.0839,4.6164 -3.22777,10.06222 -7.3613,12.75109 -2.50647,1.63046 -7.36192,2.79946 -8.07231,1.94349 z"
       id="path18" /><path
       style="fill:#000000"
       d="m 229.88765,197.81344 c -1.27774,-0.80336 -1.68452,-1.56888 -1.68452,-3.17011 0,-1.30122 0.0893,-1.51679 1.01004,-2.43751 1.13557,-1.13556 2.00807,-1.4469 3.34953,-1.19524 2.07863,0.38995 3.43314,2.58707 2.83196,4.59364 -0.47524,1.58622 -1.62281,2.50457 -3.28307,2.62732 -1.05988,0.0784 -1.59404,-0.0221 -2.22394,-0.4181 z"
       id="path17" /><path
       style="fill:#000000"
       d="m -12.488719,199.90342 c -2.411353,-1.47029 -2.232871,-5.52944 0.295895,-6.72942 1.223151,-0.58042 3.0064708,-0.53923 4.0440399,0.0934 2.3727392,1.44675 2.2918422,5.25899 -0.1419947,6.69144 -1.0702574,0.62991 -3.1182922,0.60287 -4.1979402,-0.0554 z"
       id="path16" /><path
       style="fill:#000000"
       d="m 44.287889,224.02023 c -0.669114,-0.59786 -0.856918,-1.00351 -0.959669,-2.07286 -0.16049,-1.67025 0.369268,-2.77561 1.613131,-3.36586 3.111041,-1.47628 6.107156,1.55573 4.537243,4.59161 -0.600191,1.16064 -1.401865,1.59042 -2.966625,1.59042 -1.152056,0 -1.535645,-0.1282 -2.22408,-0.74331 z"
       id="path15" /><path
       style="fill:#000000"
       d="m 236.60412,224.87426 c -0.0846,-0.0846 0.0127,-0.55244 0.2162,-1.03959 0.3462,-0.82855 0.32141,-0.97825 -0.3839,-2.31908 l -0.75398,-1.43334 1.17049,-2.88487 c 4.14714,-10.22125 7.73023,-23.56628 9.44143,-35.16404 1.20008,-8.13363 1.35589,-10.59041 1.35077,-21.29896 -0.006,-12.32204 -0.51319,-17.49493 -2.79408,-28.49067 C 241.29632,115.10698 234.40614,98.617174 224.69484,84.005206 208.62862,59.831387 186.26229,41.709659 159.54375,31.218272 136.40511,22.13258 110.67779,19.790659 85.572271,24.484756 67.209853,27.918063 50.317357,34.795679 34.924999,45.105299 6.8904161,63.882534 -14.885974,94.721084 -23.398696,127.70017 c -3.065957,11.87781 -4.340356,21.97857 -4.351484,34.48941 -0.01194,13.42695 1.335234,24.29301 4.59205,37.03857 1.1048,4.32365 3.672546,12.49581 5.208565,16.5769 0.599821,1.59368 0.292209,3.06563 -0.764121,3.65639 -0.668398,0.3738 -0.760077,0.36462 -1.23453,-0.12362 -0.557409,-0.5736 -2.318391,-5.25918 -4.175752,-11.11074 -1.670089,-5.26156 -2.581485,-8.64458 -3.635255,-13.49375 -6.304999,-29.0139 -4.088179,-58.00518 6.463924,-84.53437 C -11.609831,85.848583 4.1961251,64.424442 24.209374,48.519772 54.766944,24.235454 95.22202,14.012957 134.54063,20.640428 c 42.81662,7.217092 80.41903,35.085456 100.84817,74.741862 8.19985,15.91729 13.10717,32.59448 15.22059,51.72604 0.66867,6.05309 0.6706,21.50356 0.003,27.64896 -1.72074,15.85054 -5.01346,29.37679 -10.49077,43.09529 -1.46976,3.68117 -3.06692,7.17555 -3.2797,7.17555 -0.0464,0 -0.15362,-0.0693 -0.23825,-0.15388 z"
       id="path14" /><path
       style="fill:#000000"
       d="m 169.57548,224.65522 c -1.30997,-0.57544 -1.96194,-1.61517 -1.96194,-3.12881 0,-1.13511 0.11946,-1.43314 0.87872,-2.19241 2.76966,-2.76966 7.13029,0.37805 5.33451,3.85071 -0.69683,1.34753 -2.84208,2.08956 -4.25129,1.47051 z"
       id="path13" /><path
       style="fill:#000000"
       d="m 146.55673,248.46455 c -1.35275,-0.58898 -1.96194,-1.60203 -1.96194,-3.2626 0,-1.33232 0.0838,-1.53444 1.02721,-2.47786 0.9305,-0.9305 1.15706,-1.0272 2.40655,-1.0272 0.97268,0 1.60708,0.16216 2.15179,0.55002 2.23208,1.58938 2.00491,4.99727 -0.4061,6.09231 -1.27283,0.5781 -2.10333,0.61045 -3.21751,0.12533 z"
       id="path12" /><path
       style="fill:#000000"
       d="m 67.958653,248.81618 c -0.458157,-0.13273 -1.202297,-0.66192 -1.653646,-1.17597 -0.670137,-0.76325 -0.820451,-1.16344 -0.819644,-2.18222 0.0018,-2.27641 1.472226,-3.7611 3.724955,-3.7611 3.995544,0 5.017849,5.49345 1.299198,6.98136 -1.185818,0.47447 -1.357159,0.48374 -2.550863,0.13793 z"
       id="path11" /><path
       style="fill:#000000"
       d="m 107.13379,251.2715 c -6.00454,-3.65082 -21.779308,-14.32411 -28.023374,-18.96077 -6.296902,-4.6759 -10.197631,-8.04941 -15.89406,-13.74584 -7.335499,-7.33549 -12.256579,-13.37902 -17.250972,-21.18572 -2.790902,-4.36244 -6.996242,-12.73711 -8.635938,-17.19792 -4.561073,-12.40845 -5.76368,-24.66919 -3.478129,-35.46 3.214572,-15.17702 13.353612,-27.00877 27.087842,-31.61016 4.665445,-1.56307 7.089597,-1.94021 12.615007,-1.96261 5.509595,-0.0223 7.308878,0.23904 12.032207,1.74785 7.334603,2.34296 14.383489,7.12135 19.133217,12.97027 1.96339,2.41776 4.77202,6.63747 5.0948,7.65447 0.25892,0.81578 0.67373,0.46674 1.88736,-1.58809 1.87517,-3.17488 3.99901,-5.8337 7.23048,-9.05174 5.87437,-5.84995 12.96066,-9.69003 20.8103,-11.27715 3.55393,-0.71858 11.20513,-0.65042 14.82399,0.13205 9.66387,2.08952 17.90306,7.3092 23.73023,15.03353 1.94596,2.57951 5.0545,8.56654 6.09827,11.74523 1.86449,5.67809 2.77142,13.59117 2.29174,19.99563 -2.0907,27.9138 -18.36791,53.19557 -49.18977,76.4016 -6.9266,5.21509 -16.62133,11.79838 -23.2771,15.80651 -3.79633,2.28617 -4.18539,2.31652 -7.0861,0.55286 z M 114.3,199.24161 c 6.40642,-1.64786 12.04543,-7.43185 12.98716,-13.32106 0.13469,-0.84236 0.0446,-1.14583 -0.54957,-1.85201 -0.59322,-0.705 -0.89594,-0.84458 -1.83166,-0.84458 -1.37244,0 -2.08541,0.66797 -2.54009,2.37976 -1.15228,4.33821 -5.66256,8.16799 -10.60015,9.00082 -6.63698,1.11948 -13.737837,-2.91294 -15.439946,-8.76799 -0.534647,-1.83912 -0.864587,-2.28976 -1.890556,-2.58216 -0.983577,-0.28031 -2.314344,0.20067 -2.736231,0.98898 -0.80369,1.5017 0.02554,4.43342 2.154169,7.61598 2.701641,4.03929 7.129854,6.73893 12.906244,7.86823 1.19917,0.23444 5.92358,-0.07 7.54063,-0.48597 z m -44.71322,-6.32246 c 2.068505,-0.55091 3.67259,-1.34767 4.844209,-2.40616 4.915279,-4.44066 0.923511,-10.65643 -7.336572,-11.42412 -4.66342,-0.43342 -9.633247,1.69425 -11.117069,4.75942 -1.782151,3.68143 1.115157,7.76671 6.42076,9.05343 1.830186,0.44386 5.55364,0.45289 7.188672,0.0174 z m 87.56626,0.0737 c 4.43083,-0.81908 7.55009,-3.63018 7.55009,-6.80419 0,-0.78627 -0.18992,-1.82979 -0.42204,-2.31895 -0.52266,-1.10142 -2.34466,-2.808 -3.77935,-3.53992 -4.99164,-2.54654 -12.98689,-1.11141 -15.74721,2.8266 -1.05554,1.5059 -1.25716,3.73206 -0.47526,5.24768 1.89582,3.67481 7.33334,5.61298 12.87377,4.58878 z M 85.591535,178.93544 c 3.740145,-1.39179 6.012089,-7.64739 4.940466,-13.60315 -0.667183,-3.708 -2.085611,-6.08748 -4.368766,-7.32879 -5.470635,-2.97431 -10.807129,2.89386 -10.282867,11.30733 0.08238,1.32207 0.395079,3.1878 0.694886,4.14607 1.438833,4.59895 5.214618,6.89322 9.016281,5.47854 z m 53.333955,-0.0736 c 3.02115,-1.24182 5.13231,-5.59669 5.13231,-10.58683 0,-6.41378 -3.17776,-11.07587 -7.52289,-11.03682 -4.32757,0.0389 -7.37788,4.65108 -7.38677,11.16911 -0.0107,7.81461 4.49059,12.62763 9.77735,10.45454 z"
       id="path10" /><path
       style="fill:#000000"
       d="m 0.97143299,252.93928 c -0.29751808,-0.37823 -0.7989979,-1.46315 -1.11439959,-2.41094 -0.33693691,-1.01249 -0.69853081,-1.6762 -0.8767045,-1.60921 -2.5861413,0.97247 -3.6635773,1.28068 -4.0109798,1.14736 -0.6059917,-0.23254 -1.6728557,-2.81521 -2.0347862,-4.92583 -0.5363098,-3.12752 0.4728294,-7.30243 2.429216,-10.04992 0.2943479,-0.41338 0.535178,-0.82251 0.535178,-0.90919 0,-0.0867 -0.5195304,-0.15759 -1.1545121,-0.15759 -2.7778368,0 -6.0006768,-1.05721 -8.2079078,-2.69248 -2.336184,-1.73082 -4.702247,-5.50117 -4.126885,-6.57624 0.144115,-0.26928 0.979527,-0.93247 1.856472,-1.47375 0.876945,-0.54128 1.56113,-1.06212 1.52041,-1.15742 -0.04072,-0.0953 -0.481525,-0.94883 -0.979567,-1.89674 -0.522764,-0.99496 -0.83562,-1.90566 -0.740139,-2.15448 0.229605,-0.59834 2.727199,-2.2126 4.447545,-2.87456 1.9071787,-0.73386 5.4349482,-0.92321 7.3842277,-0.39635 0.8001686,0.21627 1.4860493,0.36202 1.5241792,0.32389 0.03813,-0.0381 -0.1233348,-0.59391 -0.3588105,-1.23508 -0.5587372,-1.52135 -0.7864936,-5.82714 -0.4028516,-7.616 0.1643454,-0.76632 0.6045192,-2.03952 0.9781639,-2.82934 0.8029463,-1.69729 1.1452842,-1.77292 3.5683759,-0.78833 l 1.5940191,0.64771 0.2695761,-0.71385 c 0.1482668,-0.39262 0.5823704,-1.41278 0.9646745,-2.26702 l 0.6950985,-1.55317 1.4030637,0.14481 c 2.0964076,0.21637 5.1989055,1.81598 6.9737975,3.59561 1.713505,1.71808 3.164849,4.41706 3.679621,6.84277 0.192733,0.9082 0.423451,1.64663 0.512707,1.64095 0.08926,-0.006 0.55341,-0.54199 1.031452,-1.1918 2.345639,-3.18849 6.817736,-5.4049 10.90479,-5.4045 2.099633,2e-4 2.227913,0.14416 2.340651,2.62669 l 0.09663,2.12785 h 1.805169 c 2.392717,0 2.636717,0.25369 2.636717,2.74143 0,4.73428 -2.307813,8.8817 -6.482292,11.64947 -1.043995,0.69219 -1.049388,0.70406 -0.398069,0.87616 0.363146,0.096 1.564016,0.6268 2.668602,1.17966 3.475099,1.73934 6.008288,5.09984 6.275998,8.32566 0.09136,1.10091 -0.01349,1.5749 -0.556039,2.51354 -0.367749,0.63623 -0.819341,1.67111 -1.003537,2.29972 -0.247694,0.84532 -0.443126,1.10689 -0.750512,1.00449 -0.228585,-0.0761 -1.129984,-0.40033 -2.003109,-0.7204 -1.916622,-0.70261 -5.5012,-0.95197 -7.553503,-0.52545 -3.445825,0.71612 -5.275693,2.21405 -5.2778,4.3204 -8.92e-4,0.89143 -0.09824,1.02927 -0.990104,1.40191 -1.263159,0.52778 -1.824316,0.37416 -3.405191,-0.9322 -0.706495,-0.58381 -1.348069,-1.06148 -1.425721,-1.06148 -0.07765,0 -0.34404,0.57116 -0.591974,1.26923 -1.770704,4.98553 -6.8462069,9.23865 -11.8818112,9.9566 -1.1113553,0.15845 -1.2796441,0.10969 -1.76912881,-0.51259 z M 10.955889,238.75233 c 0.785718,-0.73201 0.960657,-1.72447 0.481196,-2.72991 -0.376622,-0.78978 -0.36388,-1.04733 0.164449,-3.32403 0.314987,-1.35736 0.690999,-2.4987 0.835584,-2.53631 0.144584,-0.0376 1.007021,0.80081 1.916527,1.86316 1.381205,1.61333 1.653646,2.09252 1.653646,2.90858 0,1.31278 0.39733,1.97247 1.453914,2.41394 1.677227,0.70079 3.308586,-0.45909 3.308586,-2.35237 0,-1.12436 -1.076256,-2.29435 -2.110541,-2.29435 -0.56996,0 -1.073803,-0.42808 -2.477462,-2.10495 -0.969099,-1.15773 -1.761998,-2.15268 -1.761998,-2.211 0,-0.0583 1.061132,-0.18614 2.35807,-0.28405 2.249258,-0.1698 2.404924,-0.14621 3.373438,0.51104 1.220546,0.8283 2.299522,0.73008 3.19818,-0.29113 0.913019,-1.03753 0.817044,-2.53004 -0.218738,-3.4016 -1.047931,-0.88177 -2.177673,-0.8923 -3.041626,-0.0284 -0.574431,0.57443 -0.974851,0.67899 -3.198881,0.83533 -2.053164,0.14432 -2.519745,0.11116 -2.425242,-0.17235 0.06436,-0.19307 0.884189,-1.33714 1.821845,-2.54237 1.35465,-1.74121 1.848262,-2.19394 2.403122,-2.20407 2.134447,-0.039 2.947179,-3.48007 1.060425,-4.48983 -0.588774,-0.3151 -1.875208,-0.3764 -2.540614,-0.12106 -0.613049,0.23525 -1.202478,1.50644 -1.202478,2.59332 0,0.74176 -0.337369,1.36212 -1.653646,3.04079 -0.909506,1.15991 -1.775633,2.1157 -1.924729,2.12398 -0.149095,0.008 -0.582002,-1.32366 -0.962016,-2.95986 -0.600533,-2.58567 -0.642955,-3.04341 -0.324231,-3.49845 1.016996,-1.45197 -0.236884,-3.84539 -2.0145452,-3.84539 -1.2142433,0 -2.3812501,1.23897 -2.3812501,2.5281 0,0.77107 0.1905718,1.16103 0.8895689,1.82027 0.7665554,0.72295 0.9851903,1.23734 1.5810532,3.7198 0.3803165,1.58446 0.6503974,2.92192 0.6001797,2.97214 -0.050218,0.0502 -1.1486447,-0.3713 -2.4409491,-0.93671 -2.0276132,-0.88711 -2.4139662,-1.16162 -2.8189573,-2.00287 -1.0453662,-2.17144 -4.13494309,-1.84868 -4.571348,0.47755 -0.35524757,1.89364 1.3643476,3.40086 3.1919123,2.79771 0.7267171,-0.23984 1.1100441,-0.14137 3.1244829,0.80263 1.2628774,0.5918 2.2961408,1.17277 2.2961408,1.29104 0,0.11827 -0.9513581,0.64991 -2.114129,1.18143 -1.7606545,0.80482 -2.294123,0.93761 -3.1906718,0.79425 -2.73293897,-0.43702 -4.1555748,2.49884 -2.0637808,4.25897 0.4370293,0.36774 1.0295012,0.66861 1.3166043,0.66861 0.9682186,0 2.0392443,-0.76684 2.3774941,-1.70225 0.2829547,-0.7825 0.6257245,-1.04859 2.3890273,-1.85462 2.2074253,-1.00904 2.7397848,-1.13597 2.5358784,-0.60459 -0.07101,0.18505 -0.3375888,1.28637 -0.5923973,2.44739 -0.3934841,1.79289 -0.5975539,2.22348 -1.3544067,2.85781 -0.6991411,0.58597 -0.8911185,0.94597 -0.8911185,1.67104 0,1.23231 0.4045398,1.92086 1.3660918,2.32517 0.9688751,0.40738 1.8503201,0.26667 2.5783401,-0.41158 z"
       id="path9" /><path
       style="fill:#000000"
       d="m 211.24134,254.54254 c -4.37257,-1.20583 -8.206,-5.31556 -9.6375,-10.33212 -0.24915,-0.87313 -0.48872,-1.62788 -0.53239,-1.67723 -0.0437,-0.0494 -0.79048,0.41175 -1.65961,1.02468 l -1.58023,1.11441 -1.20559,-0.46042 c -1.10341,-0.4214 -1.19317,-0.52245 -1.05916,-1.19249 0.20009,-1.00048 -0.56887,-2.52193 -1.5893,-3.14454 -3.12902,-1.90917 -8.36865,-2.137 -12.17899,-0.52958 -1.38659,0.58495 -1.73386,0.44766 -1.74814,-0.69108 -0.004,-0.29104 -0.31353,-1.18401 -0.68861,-1.98438 -0.81739,-1.74415 -0.76393,-2.93105 0.22978,-5.10159 1.45823,-3.1852 4.72342,-5.67208 9.14951,-6.96859 0.20035,-0.0587 -0.33419,-0.56687 -1.21487,-1.15497 -2.95254,-1.97163 -4.9542,-4.66941 -5.79417,-7.80922 -0.19465,-0.72761 -0.35533,-2.41574 -0.35705,-3.75142 -0.004,-3.10211 0.17222,-3.31882 2.60862,-3.20769 l 1.75263,0.0799 0.39749,-2.24896 c 0.21862,-1.23692 0.50353,-2.41351 0.63314,-2.61462 0.34207,-0.53082 3.88411,-0.18461 6.45315,0.63074 3.01383,0.95653 5.1426,2.51582 7.49238,5.48806 l 0.99235,1.25522 0.3167,-0.99064 c 0.56218,-1.75848 2.15935,-4.56621 3.35215,-5.8929 2.31877,-2.57902 6.18535,-4.46212 10.06286,-4.90081 1.57937,-0.17869 1.61471,-0.16844 1.99107,0.57725 0.21073,0.41754 0.59115,1.62236 0.84536,2.67739 0.25421,1.05503 0.50113,1.91823 0.5487,1.91823 0.0476,0 0.92418,-0.17621 1.94802,-0.39159 1.02384,-0.21537 2.02668,-0.32821 2.22852,-0.25075 0.53642,0.20584 1.0178,2.06235 1.16131,4.4788 0.18978,3.19567 -0.55683,6.08523 -2.50348,9.68901 -0.0487,0.0902 1.19608,0.22257 2.76625,0.29413 3.32615,0.15158 4.86101,0.66434 7.38956,2.46868 1.4734,1.05139 2.74133,2.5365 2.74133,3.21088 0,0.13993 -0.65578,0.97907 -1.45729,1.86477 l -1.45729,1.61035 1.44682,1.23606 c 0.79575,0.67983 1.51966,1.46554 1.60868,1.74603 0.32713,1.03069 -1.96635,3.67477 -4.39095,5.0622 -2.18179,1.24848 -3.86222,1.65299 -6.80557,1.63822 -2.36861,-0.0119 -2.69849,0.0399 -2.54585,0.39967 2.11645,4.98834 1.98764,9.75596 -0.369,13.65754 -0.76443,1.26557 -1.5434,1.51567 -2.57329,0.82619 -0.28704,-0.19217 -0.95636,-0.61117 -1.48737,-0.93112 l -0.96549,-0.58172 -1.07402,1.95691 c -0.86822,1.58195 -1.62645,2.44957 -1.97759,2.26292 -0.0245,-0.013 -0.59309,-0.17495 -1.26358,-0.35985 z m -1.53869,-15.73573 c 1.11484,-1.11484 1.07574,-2.44155 -0.10481,-3.55654 -0.7132,-0.67359 -0.95757,-1.20228 -1.30058,-2.81381 -0.23231,-1.09141 -0.5047,-2.19273 -0.60531,-2.4474 -0.29033,-0.73484 0.45747,-0.57449 2.78997,0.59827 1.52496,0.76673 2.11079,1.2008 2.11079,1.56398 0,0.67652 1.46636,1.87265 2.29572,1.87265 0.40647,0 1.01949,-0.35188 1.5672,-0.89958 1.18566,-1.18567 1.21468,-2.2656 0.0911,-3.38921 -0.74336,-0.74336 -0.91356,-0.79607 -2.11217,-0.65411 -1.11346,0.13188 -1.59381,0.0222 -3.29253,-0.75196 -1.09389,-0.4985 -1.98888,-1.00869 -1.98888,-1.13375 0,-0.12506 1.05459,-0.72856 2.34355,-1.3411 2.05766,-0.97786 2.42646,-1.07594 3.0232,-0.80405 1.85987,0.84742 3.89776,-1.27091 3.09262,-3.21469 -0.87406,-2.11017 -3.73284,-2.02115 -4.63767,0.1444 -0.2951,0.70628 -0.74153,1.02329 -2.61943,1.86005 -1.24504,0.55477 -2.32105,0.95134 -2.39113,0.88126 -0.0701,-0.0701 0.32445,-1.47711 0.87671,-3.12674 0.75745,-2.2625 1.13967,-3.04946 1.55587,-3.20342 1.43366,-0.53035 1.86963,-2.70905 0.76344,-3.81524 -1.27025,-1.27025 -3.23599,-1.06294 -4.00402,0.42227 -0.4717,0.91218 -0.47361,1.50071 -0.008,2.34214 0.30457,0.54992 0.29678,0.84629 -0.0522,1.98437 -0.22561,0.73585 -0.6097,2.04582 -0.85355,2.91105 -0.24384,0.86524 -0.57355,1.61656 -0.73267,1.6696 -0.15913,0.053 -0.98217,-0.82425 -1.82898,-1.94955 -1.37146,-1.82248 -1.54001,-2.18357 -1.54297,-3.30545 -0.002,-0.94968 -0.15408,-1.41995 -0.61621,-1.91187 -1.56222,-1.6629 -4.27526,-0.61865 -4.27526,1.64555 0,1.00842 1.12351,2.35226 2.05698,2.46035 0.54774,0.0634 1.10274,0.60408 2.37175,2.31044 0.91117,1.2252 1.65668,2.34284 1.65668,2.48365 0,0.16006 -0.94849,0.18638 -2.53077,0.0702 -1.97004,-0.14461 -2.6427,-0.29771 -3.03598,-0.69098 -1.16694,-1.16695 -3.0896,-0.84687 -3.78567,0.63022 -1.12343,2.38398 1.74601,4.62161 3.6422,2.84023 0.6248,-0.58697 0.76878,-0.60604 3.19971,-0.42379 2.32686,0.17445 2.51418,0.22837 2.18118,0.62786 -2.83111,3.39636 -3.47073,4.00889 -4.18614,4.00889 -0.41068,0 -1.07804,0.28502 -1.48303,0.63338 -1.99013,1.71184 0.20154,5.21588 2.51433,4.01989 1.09372,-0.56559 1.46914,-1.13837 1.49792,-2.28537 0.022,-0.87515 0.28562,-1.31285 1.81836,-3.01865 0.98597,-1.09729 1.88867,-1.99508 2.006,-1.99508 0.11733,0 0.47951,1.1519 0.80484,2.55978 0.55196,2.38861 0.56298,2.60808 0.16491,3.28197 -0.51167,0.86618 -0.52688,1.48414 -0.0574,2.33121 0.80836,1.45845 2.47384,1.72468 3.61988,0.57864 z"
       id="path8" /><path
       style="fill:#000000"
       d="m 10.977517,265.70781 c -1.502388,-1.02251 -1.9816849,-1.90242 -1.9816849,-3.63802 0,-2.37839 1.4134649,-3.94072 3.7700929,-4.16716 4.544283,-0.43665 6.327669,5.19809 2.468338,7.79889 -1.208298,0.81427 -3.065548,0.81702 -4.256746,0.006 z"
       id="path7" /><path
       style="fill:#000000"
       d="m 201.86397,266.46013 c -0.44378,-0.1933 -1.12381,-0.72811 -1.51119,-1.18848 -2.41773,-2.87331 -0.51,-6.90602 3.26699,-6.90602 3.14301,0 5.18434,3.50124 3.62511,6.21771 -1.05769,1.84268 -3.50195,2.69522 -5.38091,1.87679 z"
       id="path6" /><path
       style="fill:#000000"
       d="m 165.63649,284.22865 c -0.0596,-0.1819 -0.24058,-1.00417 -0.40218,-1.82726 -0.53263,-2.71294 -2.61049,-5.0653 -5.08658,-5.75857 l -1.14114,-0.3195 0.10018,-5.542 c 0.14384,-7.95715 -0.41042,-11.08662 -2.63112,-14.85582 -0.57636,-0.97826 -1.64551,-2.36689 -2.37588,-3.08583 l -1.32795,-1.30717 0.87242,-0.66094 c 1.44782,-1.09684 3.65387,-1.58754 6.47407,-1.44002 l 2.45819,0.12858 -0.53414,-0.69048 c -3.01449,-3.89674 -3.94315,-8.19077 -2.61923,-12.11111 1.01375,-3.00188 1.68779,-3.23187 4.53753,-1.54824 l 1.50648,0.89003 0.57121,-1.71648 c 0.31417,-0.94406 0.83553,-2.02376 1.15859,-2.39934 0.50316,-0.58496 0.72421,-0.65719 1.54179,-0.50382 1.75519,0.32928 4.59974,1.96198 5.85964,3.36329 1.92226,2.13802 2.83089,4.43374 3.51854,8.88983 l 0.21226,1.37547 1.56275,-1.17351 c 2.19806,-1.65058 4.02452,-2.29379 6.93183,-2.44114 2.6899,-0.13633 5.29217,0.41746 5.58834,1.18926 0.092,0.23967 -0.0211,1.15744 -0.25115,2.03948 -0.2301,0.88205 -0.3635,1.69302 -0.29644,1.80216 0.0671,0.10914 0.53844,0.19844 1.04749,0.19844 1.68532,0 3.2978,0.55089 3.6085,1.23282 0.38752,0.85052 -0.14365,3.6894 -1.05338,5.62978 -0.89164,1.90181 -4.16657,5.18882 -6.22325,6.24619 -0.8364,0.43001 -1.52101,0.85428 -1.52136,0.94281 -3.4e-4,0.0885 0.6759,0.61017 1.50277,1.15918 4.10174,2.7234 6.43411,6.89563 6.43411,11.50959 0,2.83508 -0.18991,3.03501 -2.70233,2.845 l -1.98773,-0.15033 -0.14555,2.12347 c -0.08,1.16791 -0.27527,2.2532 -0.43383,2.41176 -0.43281,0.43281 -3.43531,0.54351 -5.14046,0.18952 -0.82666,-0.17161 -2.31682,-0.71915 -3.31148,-1.21676 -1.89285,-0.94695 -4.93738,-3.51947 -5.5748,-4.71051 -0.20482,-0.38272 -0.45251,-0.69585 -0.5504,-0.69585 -0.0979,0 -0.32751,0.50601 -0.51024,1.12448 -1.01727,3.44291 -3.90324,7.14288 -6.61649,8.48269 -1.53429,0.75764 -2.87141,0.92463 -3.04958,0.38085 z m 6.67012,-13.83209 c 0.78288,-0.54835 1.03493,-1.99785 0.49159,-2.82709 -0.38634,-0.58963 -0.37936,-0.82753 0.0869,-2.96104 0.27883,-1.27595 0.56298,-2.37592 0.63144,-2.44438 0.0685,-0.0685 0.66013,0.75782 1.31482,1.83619 0.87076,1.43425 1.15465,2.14736 1.05741,2.65605 -0.21274,1.11285 0.14015,1.98796 0.97591,2.42015 1.06768,0.55212 1.42872,0.50897 2.37026,-0.28329 0.61989,-0.52161 0.81405,-0.9031 0.81405,-1.59953 0,-1.03342 -0.96488,-2.21341 -1.8099,-2.21341 -0.35101,0 -0.8519,-0.57375 -1.59953,-1.83219 -1.14061,-1.91993 -1.33705,-2.55314 -0.71841,-2.31574 0.20355,0.0781 1.12628,0.28689 2.05052,0.46396 1.33992,0.25671 1.84852,0.50174 2.50988,1.20921 1.53281,1.63967 3.80077,0.80502 3.80077,-1.39876 0,-1.79855 -1.89057,-2.85328 -3.41167,-1.90334 -0.38401,0.23982 -0.98216,0.21066 -2.68491,-0.13086 -1.20496,-0.24167 -2.25924,-0.50782 -2.34285,-0.59143 -0.0836,-0.0836 0.57858,-0.85817 1.47153,-1.72123 1.3393,-1.29446 1.78222,-1.5692 2.52982,-1.5692 1.92136,0 2.88132,-2.39556 1.53446,-3.82923 -0.93379,-0.99398 -2.38585,-0.92983 -3.29057,0.14536 -0.37673,0.44773 -0.68497,1.10555 -0.68497,1.46183 0,0.45173 -0.50046,1.12013 -1.65365,2.20856 -0.90951,0.85843 -1.73588,1.48053 -1.83639,1.38244 -0.10051,-0.0981 -0.37792,-1.3267 -0.61646,-2.73026 -0.39608,-2.33042 -0.39744,-2.62209 -0.0157,-3.3603 0.77562,-1.49988 0.40886,-2.75822 -0.9733,-3.33938 -2.35367,-0.98964 -4.23341,2.02506 -2.36169,3.78764 0.63513,0.59809 0.80903,1.08967 1.18007,3.3358 0.23935,1.44889 0.3894,2.68012 0.33345,2.73606 -0.0559,0.0559 -1.0154,-0.23653 -2.13212,-0.64996 -1.52177,-0.56339 -2.12293,-0.92993 -2.39976,-1.46323 -0.49082,-0.94556 -1.37767,-1.53742 -2.30368,-1.53742 -1.05713,0 -2.30202,1.28774 -2.30202,2.38125 0,1.64791 2.01097,2.88124 3.44583,2.11332 0.37795,-0.20227 0.94102,-0.0957 2.29771,0.43491 2.80988,1.09895 2.82218,1.17065 0.42918,2.50235 -1.65771,0.92252 -2.28534,1.13727 -3.14093,1.07471 -0.86962,-0.0636 -1.20304,0.0556 -1.78593,0.63851 -0.96723,0.96723 -0.94722,2.04222 0.0567,3.04614 0.82548,0.82548 1.55338,0.96186 2.48514,0.4656 0.76285,-0.4063 1.21929,-1.02509 1.23667,-1.67658 0.0101,-0.37746 0.58138,-0.84558 1.99279,-1.63286 1.08827,-0.60703 1.97922,-1.02375 1.9799,-0.92604 6.7e-4,0.0977 -0.20722,1.18968 -0.46199,2.42661 -0.36548,1.77449 -0.61084,2.37439 -1.16297,2.84349 -0.38487,0.32699 -0.77482,0.89357 -0.86655,1.25906 -0.17918,0.7139 0.39535,2.10641 0.96336,2.33495 0.69124,0.27812 1.9575,0.16367 2.51582,-0.2274 z"
       id="path5" /><path
       style="fill:#000000"
       d="m 49.212499,283.93742 c -2.823811,-1.31657 -5.121559,-4.15588 -6.61607,-8.17544 -0.257004,-0.69122 -0.528997,-1.25677 -0.604428,-1.25677 -0.07543,0 -0.776348,0.70634 -1.557591,1.56964 -2.540213,2.80703 -5.638343,4.48768 -9.327886,5.06013 -2.05748,0.31923 -3.818753,0.0104 -4.098494,-0.71855 -0.09139,-0.23817 -0.239918,-1.30546 -0.330053,-2.37177 l -0.163884,-1.93873 -1.985011,0.16779 c -2.550278,0.21558 -2.700958,0.043 -2.700958,-3.09397 0,-4.5933 1.776399,-8.03267 5.66644,-10.97107 0.958042,-0.72367 1.741383,-1.37838 1.740759,-1.45493 -6.25e-4,-0.0765 -0.898034,-0.59961 -1.994244,-1.16239 -3.635254,-1.86626 -6.572651,-5.63573 -7.24364,-9.29552 -0.482846,-2.6336 -0.0075,-3.14846 3.219747,-3.48746 0.836745,-0.0879 1.522354,-0.23214 1.523577,-0.32055 0.0012,-0.0884 -0.206362,-0.97458 -0.461297,-1.96927 -0.441379,-1.72215 -0.44141,-1.82469 -6.34e-4,-2.147 0.814252,-0.59539 3.526047,-1.01411 5.677238,-0.87659 2.535468,0.16209 4.573354,0.9145 6.682787,2.46738 0.877206,0.64576 1.654117,1.17411 1.726469,1.17411 0.07235,0 0.131548,-0.33814 0.131548,-0.75143 0,-1.31784 1.017287,-4.78603 1.876906,-6.39884 1.688809,-3.16853 5.56827,-5.92978 8.79971,-6.2633 l 1.448122,-0.14945 0.527909,1.03478 c 0.29035,0.56914 0.72255,1.70433 0.960444,2.52266 l 0.432536,1.48787 1.753391,-0.91393 c 2.41703,-1.25984 3.181401,-1.16191 4.012495,0.51407 0.787599,1.58826 1.063942,5.22313 0.559663,7.36149 -0.419549,1.77908 -1.648538,4.26231 -2.813278,5.68437 -0.489031,0.59707 -0.889148,1.14877 -0.889148,1.226 0,0.0772 1.16086,0.19513 2.579688,0.262 2.789733,0.13148 4.865584,0.75666 6.274228,1.88962 l 0.784123,0.63066 -1.083803,1.43549 c -3.067918,4.06343 -4.177864,8.83741 -4.008496,17.24091 l 0.08447,4.19109 -1.719792,0.56212 c -1.275025,0.41674 -2.03501,0.87647 -2.938656,1.77767 -1.270909,1.26746 -2.353011,3.56794 -2.353011,5.00235 0,1.26079 -1.447743,1.4451 -3.571876,0.45476 z m -1.863937,-13.30073 c 0.644958,-0.24749 1.23896,-1.58254 1.046068,-2.35109 -0.0922,-0.36736 -0.438501,-0.88099 -0.769554,-1.14139 -0.417126,-0.32811 -0.806037,-1.22033 -1.266802,-2.90623 -0.365688,-1.33803 -0.548704,-2.43277 -0.406702,-2.43277 0.579292,0 3.922386,2.16961 3.922386,2.54557 0,0.67028 1.476842,1.95235 2.248958,1.95235 0.970573,0 2.248958,-1.32006 2.248958,-2.32227 0,-0.46576 -0.271137,-1.06802 -0.678893,-1.508 -0.585074,-0.63131 -0.831881,-0.71533 -1.785938,-0.60798 -0.93139,0.1048 -1.418614,-0.0475 -3.070694,-0.95974 -1.080008,-0.59637 -2.006111,-1.21347 -2.058007,-1.37135 -0.0519,-0.15787 0.823422,-0.64545 1.945151,-1.08351 1.692069,-0.66079 2.164991,-0.7491 2.776106,-0.51843 1.082672,0.40866 2.11033,-0.0509 2.739984,-1.22516 l 0.529166,-0.9869 -0.529166,-0.9869 c -0.691267,-1.28922 -1.661613,-1.64627 -2.886543,-1.06214 -0.498942,0.23793 -1.065614,0.76244 -1.259271,1.16557 -0.263964,0.5495 -0.875101,0.95184 -2.441416,1.60728 -1.149122,0.48087 -2.131941,0.83168 -2.184042,0.77958 -0.0521,-0.0521 0.157975,-1.33441 0.466834,-2.84958 0.444843,-2.18226 0.720065,-2.93549 1.324146,-3.62395 0.975786,-1.11209 0.972556,-2.00434 -0.01081,-2.98771 -0.986798,-0.9868 -2.164768,-1.03428 -3.075088,-0.12396 -0.721198,0.72119 -0.87798,2.16678 -0.330139,3.04401 0.252846,0.40487 0.229599,1.06975 -0.111711,3.19493 -0.237051,1.47601 -0.495777,2.74843 -0.574944,2.8276 -0.07917,0.0792 -0.981398,-0.59852 -2.004956,-1.50597 -1.293997,-1.14722 -1.861015,-1.83656 -1.861015,-2.26249 0,-0.96991 -0.273033,-1.44038 -1.077257,-1.85626 -1.068346,-0.55246 -1.678954,-0.48268 -2.606609,0.29789 -1.160804,0.97675 -1.15282,2.42251 0.01882,3.40838 0.548312,0.46137 1.07992,0.6749 1.555951,0.62497 0.561361,-0.0589 1.118412,0.27123 2.490684,1.47602 0.972183,0.85353 1.670989,1.63733 1.552903,1.74178 -0.118086,0.10444 -1.207492,0.38322 -2.420902,0.6195 -1.971606,0.38392 -2.287874,0.38737 -2.974279,0.0324 -1.995288,-1.0318 -4.034145,1.41457 -2.73032,3.27604 0.901691,1.28734 2.580752,1.24218 3.68797,-0.0992 0.399832,-0.48439 1.067752,-0.7684 2.577685,-1.09607 1.120909,-0.24325 2.109158,-0.37113 2.196109,-0.28417 0.279402,0.2794 -2.170948,4.03053 -2.696338,4.1277 -0.824822,0.15255 -1.691085,1.13418 -1.691085,1.9163 0,1.08586 0.249174,1.54146 1.077257,1.96968 1.022485,0.52875 1.635504,0.48643 2.470718,-0.17055 0.608339,-0.47852 0.700913,-0.73311 0.652488,-1.79439 -0.04651,-1.01941 0.125784,-1.54825 0.980407,-3.00917 0.570261,-0.97483 1.108102,-1.7747 1.195202,-1.77748 0.0871,-0.003 0.430187,1.02389 0.762417,2.28152 0.579116,2.19219 0.585217,2.31849 0.147776,3.05902 -1.071241,1.81346 0.82066,3.75014 2.88834,2.9567 z"
       id="path4" /><path
       style="fill:#000000"
       d="m 190.5,293.77246 c -1.74625,-0.87481 -3.23453,-1.65261 -3.30729,-1.72844 -0.0728,-0.0758 0.21446,-0.39192 0.63827,-0.70241 7.41481,-5.4322 12.81536,-9.84679 18.54402,-15.15853 22.00279,-20.40146 37.99001,-47.03161 45.37699,-75.5851 5.06402,-19.5744 6.46614,-37.8339 4.34103,-56.53236 C 251.06951,99.864785 227.45867,60.900575 190.88751,36.459046 178.31388,28.055744 163.48322,21.309277 148.82813,17.326238 108.98006,6.4961213 64.795026,13.563511 30.559374,36.243308 11.950078,48.571248 -3.4212731,64.783045 -15.456804,84.775471 -27.032618,104.00425 -34.045902,124.93855 -36.56079,147.76979 c -0.677193,6.14785 -0.678307,23.38341 -0.0019,29.36875 2.880127,25.48541 10.006261,46.69675 22.379558,66.614 6.1772992,9.94358 12.7390713,18.08898 22.2374387,27.60424 7.6749323,7.68859 15.0625743,14.02472 22.3188083,19.14208 0.988965,0.69746 1.762872,1.29713 1.719792,1.33261 -0.04308,0.0355 -1.596887,0.78709 -3.452906,1.67026 l -3.374579,1.60575 -3.107712,-2.26247 C -3.049493,274.49374 -21.817028,250.80249 -32.617655,223.69916 -46.78283,188.15276 -48.071642,146.94213 -36.121659,111.65633 -29.542514,92.229494 -19.932513,75.160186 -6.328414,58.737497 -2.9617845,54.673346 6.9416365,44.692527 11.215858,41.056111 24.156798,30.046237 37.788102,21.713776 52.584483,15.768548 72.389719,7.8107482 93.026255,4.0102595 114.03542,4.4515531 c 15.37531,0.3229557 29.07806,2.6592342 43.92083,7.4883729 38.22373,12.436201 69.54378,39.170269 88.45704,75.504864 9.47916,18.21059 15.05453,37.71719 17.24207,60.325 0.45638,4.71658 0.6194,16.18338 0.30152,21.20893 -1.41742,22.40909 -7.84415,46.34425 -17.64263,65.7067 -10.91664,21.57201 -27.03976,41.49332 -45.09862,55.72271 -3.97679,3.13349 -6.64496,5.00102 -7.11076,4.97703 -0.23643,-0.0122 -1.85862,-0.73789 -3.60487,-1.6127 z"
       id="path3" /><path
       style="fill:#000000"
       d="m 101.99687,327.94443 c -9.189394,-0.94474 -20.224748,-3.94929 -29.174855,-7.94333 l -2.848818,-1.2713 -3.104307,1.04547 c -8.072905,2.71879 -25.135276,6.17649 -33.35911,6.76023 -2.116591,0.15024 -2.491027,0.11149 -2.951828,-0.30553 -0.290259,-0.26268 -0.527745,-0.58096 -0.527745,-0.70728 0,-0.12633 1.954345,-4.18577 4.342989,-9.02098 2.388643,-4.83521 4.41575,-9.04349 4.504682,-9.35174 0.149265,-0.51738 -0.06762,-0.62281 -2.821634,-1.37173 -1.640831,-0.4462 -5.305047,-1.35706 -8.142703,-2.02413 -6.438354,-1.51352 -6.406422,-1.50046 -6.300476,-2.57727 0.08,-0.8131 0.233247,-0.91107 4.580684,-2.92832 12.336754,-5.72439 18.920307,-8.2636 28.244271,-10.89356 l 1.521354,-0.42911 v -1.33066 c 0,-3.74529 1.511847,-5.57654 4.959413,-6.00719 1.476029,-0.18437 1.512294,-0.20914 1.824814,-1.24639 0.188147,-0.62445 0.328081,-2.84788 0.341361,-5.4239 0.02443,-4.73914 0.335178,-8.22679 0.954759,-10.71562 1.208545,-4.85468 4.500637,-8.49331 8.834863,-9.76486 1.999455,-0.58659 6.169146,-0.54192 9.058475,0.097 6.636932,1.46772 14.14635,5.79875 18.834961,10.86301 l 1.52182,1.64375 1.24258,-0.36114 c 1.784,-0.51849 11.4174,-0.46621 12.88425,0.0699 l 1.05833,0.38683 2.68386,-2.54359 c 1.47613,-1.39897 3.76917,-3.28693 5.09566,-4.19546 3.03631,-2.07961 8.13237,-4.54037 11.40277,-5.50613 2.22828,-0.65801 2.93393,-0.74232 6.21771,-0.7429 3.61046,-6.3e-4 3.74888,0.0205 5.47148,0.83663 5.76141,2.72952 7.94242,8.36592 7.50811,19.40334 -0.13955,3.54658 -0.0951,4.61948 0.23689,5.71867 0.39955,1.32285 0.43526,1.35668 1.60059,1.51641 2.99049,0.40989 4.2484,1.88639 4.53934,5.32819 l 0.16816,1.98934 1.08563,0.28413 c 9.03101,2.36353 17.53746,5.65934 29.59449,11.46634 3.44501,1.65921 3.63802,1.7932 3.63802,2.5256 0,0.42539 -0.12264,0.84922 -0.27253,0.94186 -0.14989,0.0926 -4.02977,1.1022 -8.62196,2.24348 -4.59219,1.14128 -8.41026,2.13587 -8.48459,2.2102 -0.0743,0.0743 1.90055,4.25643 4.38863,9.29355 2.48808,5.03711 4.52378,9.36728 4.52378,9.6226 0,1.21574 -1.19826,1.34927 -6.2703,0.69876 -8.45405,-1.08428 -18.8495,-3.19647 -26.14116,-5.31147 -2.32833,-0.67535 -4.42524,-1.28338 -4.6598,-1.35117 -0.23455,-0.0678 -1.58827,0.37124 -3.00824,0.97561 -7.62629,3.24591 -16.17684,5.64087 -24.68392,6.91381 -2.8689,0.42928 -5.27021,0.56204 -11.43658,0.63228 -4.29286,0.0489 -8.81724,-0.0151 -10.05417,-0.1423 z m 20.37292,-7.2494 c 4.69727,-0.6713 10.30851,-1.86866 14.81667,-3.16166 6.44573,-1.84874 6.15818,-1.50096 2.78771,-3.37164 -3.43207,-1.90487 -5.20703,-3.01858 -7.6825,-4.82044 -4.94831,-3.6018 -10.82108,-9.13847 -13.88254,-13.08802 l -1.64852,-2.12674 -1.09801,0.41187 c -0.74784,0.28052 -2.40854,0.45217 -5.20728,0.53823 -3.90697,0.12014 -5.4153,-0.0425 -7.6647,-0.82626 -0.26737,-0.0932 -1.04436,0.6817 -2.38125,2.37476 -4.834178,6.12211 -12.969471,12.94904 -20.461444,17.17071 l -2.817251,1.5875 1.008093,0.43182 c 1.352727,0.57944 8.854532,2.72164 11.819565,3.37517 3.482702,0.76763 7.002694,1.36069 10.451037,1.76082 4.25293,0.4935 17.82248,0.33524 21.96042,-0.25612 z m -80.517208,-1.10872 c 8.803984,-2.01202 19.081141,-5.10956 26.409917,-7.95995 2.037292,-0.79236 4.031589,-1.56276 4.431771,-1.712 1.319143,-0.49192 0.76152,-0.74873 -1.625776,-0.74873 -3.926622,0 -7.083129,-1.23262 -9.342768,-3.64835 -2.396886,-2.56247 -3.375248,-5.77493 -3.381191,-11.10217 -0.0022,-1.92815 -0.09321,-3.50535 -0.202348,-3.50489 -0.604766,0.003 -7.649935,2.01469 -11.178646,3.19267 -6.047041,2.01867 -15.213542,5.76799 -15.213542,6.22271 0,0.10082 2.083594,0.74188 4.630208,1.42457 7.106276,1.90504 7.622645,2.07775 7.790155,2.60553 0.160517,0.50574 -1.222177,3.71727 -4.84882,11.26215 -1.181171,2.45731 -2.147585,4.57067 -2.147585,4.69635 0,0.33359 0.106211,0.31707 4.678625,-0.72789 z m 139.519298,0.82052 c 0,-0.0747 -0.11655,-0.34263 -0.259,-0.59531 -0.37772,-0.67004 -3.79546,-7.89107 -5.4556,-11.52666 -1.48849,-3.25968 -1.65053,-3.90145 -1.09843,-4.35054 0.18191,-0.14796 2.89058,-0.95868 6.01928,-1.80161 3.12869,-0.84293 5.78281,-1.61058 5.89802,-1.70589 0.4411,-0.36488 -10.04835,-4.73496 -16.08448,-6.70108 -4.12774,-1.3445 -9.30701,-2.81197 -9.9339,-2.81463 -0.35216,-0.001 -0.39476,0.44798 -0.30707,3.23941 0.30341,9.65767 -3.94445,14.80291 -12.44467,15.07372 -2.1718,0.0692 -2.75909,0.23186 -1.98676,0.55031 8.91681,3.67658 17.65076,6.48266 29.4349,9.45694 4.78865,1.20865 6.21771,1.47878 6.21771,1.17534 z M 77.613992,304.9303 c 6.47588,-1.55778 13.051607,-5.302 18.530941,-10.55153 1.326797,-1.27116 2.412359,-2.45272 2.412359,-2.62571 0,-0.17298 -0.33308,-0.31452 -0.740178,-0.31452 -0.50388,0 -1.518314,0.58355 -3.177614,1.8279 -10.885629,8.16343 -24.204978,11.7432 -27.404522,7.36537 -1.643892,-2.24928 0.727243,-5.6614 5.646605,-8.12561 5.041682,-2.52547 10.465415,-3.66102 20.224582,-4.23435 2.458911,-0.14446 4.51103,-0.30293 4.560264,-0.35217 0.04923,-0.0492 -0.0853,-0.91474 -0.298966,-1.92334 -0.213666,-1.00861 -0.390551,-2.38992 -0.393077,-3.06959 -0.0044,-1.17056 -0.04871,-1.24543 -0.840986,-1.41945 -0.460016,-0.10103 -2.893706,-0.098 -5.408201,0.007 l -4.57181,0.19047 -0.687472,-0.68747 c -0.56224,-0.56224 -0.636302,-0.78309 -0.406568,-1.21235 0.520255,-0.9721 1.326173,-1.17259 4.766692,-1.18578 1.819011,-0.007 4.081198,0.039 5.027084,0.10224 1.37074,0.0916 1.719791,0.0379 1.719791,-0.26458 0,-0.87051 -5.568033,-2.8949 -9.052979,-3.29143 -2.076259,-0.23624 -2.414081,-0.35109 -2.721298,-0.92513 -0.63952,-1.19495 0.741387,-2.38732 2.75178,-2.37606 1.914237,0.0107 5.725994,1.15624 9.323146,2.80182 0.194283,0.0889 0.411512,-0.50024 0.614007,-1.66517 0.172347,-0.99148 0.612823,-2.55197 0.978837,-3.46774 l 0.665478,-1.66503 -0.673274,-0.88271 c -0.875225,-1.14748 -3.581576,-3.49778 -5.589863,-4.85446 -3.832054,-2.58869 -8.826718,-4.66403 -12.918626,-5.36784 -2.626459,-0.45175 -6.396609,-0.22106 -7.718874,0.47229 -1.824765,0.95685 -3.571876,3.24509 -3.571876,4.67818 0,0.34074 0.0914,0.34201 0.727605,0.0101 0.826192,-0.43098 2.711979,-0.51629 2.711979,-0.12269 0,0.14307 -0.610351,0.56942 -1.356334,0.94744 -1.827946,0.92629 -2.612416,1.75386 -2.612416,2.75596 v 0.81257 l 0.796533,-0.41191 c 0.94822,-0.49034 2.676581,-0.64268 2.817592,-0.24835 0.05495,0.15366 -0.305166,0.47254 -0.800248,0.70863 -1.459177,0.69583 -2.741912,1.97359 -2.872158,2.86101 -0.09612,0.6549 -0.04035,0.7714 0.300874,0.62846 1.110353,-0.46511 2.754059,-0.88353 2.963169,-0.7543 0.431905,0.26694 0.239352,0.626 -0.556357,1.03748 -0.434599,0.22474 -1.208505,0.77591 -1.719792,1.22483 -0.73537,0.64566 -0.929613,1.01255 -0.929613,1.75585 0,0.87292 0.03288,0.91086 0.463021,0.53429 0.716895,-0.62759 2.401208,-1.1516 2.709768,-0.84304 0.173901,0.1739 -0.18114,0.59408 -1.050209,1.24291 -1.054423,0.78719 -1.519537,1.41012 -2.362289,3.1638 -1.413062,2.94045 -3.101239,7.89769 -3.897235,11.44404 -0.895083,3.9878 -1.150051,9.79656 -0.514056,11.71136 0.873427,2.62964 3.268407,4.5141 6.487708,5.10476 1.711676,0.31405 5.067124,0.0744 7.647076,-0.54624 z m 73.225828,-0.0309 c 1.74067,-0.65127 3.36672,-2.0208 4.09558,-3.44949 1.85054,-3.62735 0.96233,-12.25965 -2.13981,-20.7963 -1.53552,-4.22554 -2.35634,-5.69047 -3.71451,-6.62931 -1.00959,-0.69789 -1.36557,-1.37672 -0.71598,-1.36531 0.18191,0.003 0.84975,0.24132 1.48411,0.52916 0.63435,0.28785 1.1999,0.52336 1.25677,0.52336 0.0569,0 0.1034,-0.34333 0.1034,-0.76296 0,-0.8061 -1.48637,-2.40078 -2.79233,-2.99582 -0.71789,-0.32709 -0.83427,-0.68398 -0.29104,-0.89244 0.3133,-0.12022 1.44053,0.19527 2.88493,0.80743 0.37068,0.1571 0.46302,0.0627 0.46302,-0.47323 0,-0.89598 -1.02862,-2.0679 -2.50027,-2.84861 -0.66229,-0.35135 -1.16501,-0.75804 -1.11716,-0.90378 0.20287,-0.61785 1.48733,-0.39131 3.41899,0.60303 0.10914,0.0562 0.19844,-0.20129 0.19844,-0.57216 0,-0.90929 -1.32807,-2.36457 -2.78123,-3.04764 -0.65314,-0.30701 -1.18752,-0.67665 -1.18752,-0.82142 0,-0.34409 1.61969,-0.33849 2.53301,0.009 0.39346,0.1496 0.77559,0.21178 0.84917,0.13819 0.23344,-0.23343 -0.76155,-2.51618 -1.45696,-3.34264 -1.36095,-1.61739 -2.46674,-1.96232 -6.29085,-1.96232 -3.15632,0 -3.662,0.0712 -6.14037,0.86412 -3.53502,1.13103 -8.47548,3.62209 -11.23376,5.66423 -2.80379,2.07583 -5.32835,4.67669 -5.08174,5.23532 0.59211,1.34129 1.21261,3.44507 1.34446,4.55833 0.0839,0.70853 0.2395,1.34197 0.34574,1.40763 0.10624,0.0657 1.4287,-0.34603 2.93879,-0.91487 5.6654,-2.1341 8.96334,-2.03275 8.96334,0.27543 0,0.96468 -0.24378,1.06994 -4.17295,1.80168 -3.70415,0.68984 -7.46871,2.15697 -7.46871,2.91071 0,0.12476 2.23707,0.21131 4.97128,0.19234 4.35024,-0.0302 5.06088,0.0241 5.68854,0.43461 0.92045,0.60202 0.95451,1.61219 0.0738,2.18924 -0.55905,0.3663 -1.30428,0.39678 -5.68215,0.23239 -4.19916,-0.15768 -5.0573,-0.12772 -5.15025,0.17981 -0.24309,0.8043 -0.98582,6.11952 -0.87114,6.2342 0.0673,0.0673 2.12872,0.23448 4.581,0.37156 8.92555,0.49895 14.99142,1.74578 19.80452,4.07078 5.59162,2.70107 7.81161,6.01944 5.66364,8.46584 -1.94604,2.21642 -6.50658,2.30572 -12.6751,0.24818 -5.08375,-1.69571 -10.84258,-4.84506 -15.25106,-8.3404 -1.15607,-0.91662 -1.86233,-1.28843 -2.44739,-1.28843 -0.45231,0 -0.82238,0.13387 -0.82238,0.29748 0,0.53338 4.993,5.16207 7.48758,6.94125 4.61808,3.2937 10.96549,6.1027 15.26659,6.75611 2.44045,0.37074 5.77946,0.13513 7.56794,-0.53403 z m -74.619305,-5.51026 c 2.823372,-0.67693 5.146398,-1.56868 8.644856,-3.31853 2.947074,-1.47407 6.675843,-3.79879 6.452057,-4.02257 -0.192728,-0.19273 -4.764333,0.41128 -7.709095,1.01854 -4.860669,1.00235 -10.359261,3.18881 -12.104688,4.8133 -1.995409,1.85717 0.258239,2.57827 4.71687,1.50926 z m 71.926725,0.10087 c 1.45091,-1.4509 -4.61178,-4.66096 -11.71106,-6.20074 -2.7991,-0.6071 -8.5106,-1.40924 -8.69824,-1.2216 -0.37413,0.37413 7.23859,4.68044 10.37456,5.8686 4.5974,1.74187 9.14282,2.44566 10.03474,1.55374 z m -34.19555,-9.14488 c 1.80195,-0.38645 2.92377,-1.47844 3.51179,-3.41838 0.71707,-2.36572 1.06047,-7.83838 0.71409,-11.38055 -0.34509,-3.52909 -0.64519,-4.59523 -1.57596,-5.59889 -1.09074,-1.17613 -2.15826,-1.39517 -6.79953,-1.39517 -5.19153,0 -6.38419,0.33476 -7.38624,2.07322 -1.05254,1.82606 -1.34097,3.82659 -1.34141,9.30386 -7.5e-4,9.26914 1.0692,10.65619 8.25161,10.6972 1.77547,0.0101 3.85701,-0.11645 4.62565,-0.28129 z"
       id="path2" /><path
       style="fill:#000000"
       d="m 104.24583,315.89482 c -0.29104,-0.0429 -1.83885,-0.21592 -3.43958,-0.38459 -4.337542,-0.45704 -14.166416,-2.44872 -15.300247,-3.10038 -0.274431,-0.15772 2.312998,-1.9213 2.818835,-1.9213 0.204466,0 1.712088,0.30256 3.350272,0.67236 11.77151,2.65726 23.45369,2.77696 35.22696,0.36095 1.40135,-0.28757 2.91065,-0.62689 3.35401,-0.75404 0.68615,-0.19679 1.02851,-0.0921 2.30075,0.70372 0.82205,0.5142 1.39634,1.02532 1.2762,1.13582 -0.69477,0.63902 -10.98396,2.61764 -16.45221,3.16378 -2.42417,0.24211 -11.73523,0.32978 -13.13499,0.12368 z"
       id="path1" /></g></svg>
