<?xml version="1.0" encoding="UTF-8" standalone="no"?>
<!-- Created with Inkscape (http://www.inkscape.org/) -->

<svg
   width="313.08478mm"
   height="317.6972mm"
   viewBox="0 0 313.08478 317.6972"
   version="1.1"
   id="svg1"
   xml:space="preserve"
   sodipodi:docname="stamp_goal_strawberry_1.svg"
   inkscape:version="1.4.4 (dcaf3e7, 2026-05-05)"
   xmlns:inkscape="http://www.inkscape.org/namespaces/inkscape"
   xmlns:sodipodi="http://sodipodi.sourceforge.net/DTD/sodipodi-0.dtd"
   xmlns="http://www.w3.org/2000/svg"
   xmlns:svg="http://www.w3.org/2000/svg"><sodipodi:namedview
     id="namedview1"
     pagecolor="#ffffff"
     bordercolor="#000000"
     borderopacity="0.25"
     inkscape:showpageshadow="2"
     inkscape:pageopacity="0.0"
     inkscape:pagecheckerboard="0"
     inkscape:deskcolor="#d1d1d1"
     inkscape:document-units="mm"
     inkscape:zoom="0.021653217"
     inkscape:cx="600.37269"
     inkscape:cy="577.28143"
     inkscape:window-width="944"
     inkscape:window-height="250"
     inkscape:window-x="0"
     inkscape:window-y="33"
     inkscape:window-maximized="0"
     inkscape:current-layer="layer1"><inkscape:page
       x="0"
       y="0"
       width="313.08478"
       height="317.6972"
       id="page2"
       margin="0"
       bleed="0" /></sodipodi:namedview><defs
     id="defs1" /><g
     inkscape:label="Layer 1"
     inkscape:groupmode="layer"
     id="layer1"
     transform="translate(45.472933,-3.2234284)"><path
       style="fill:#000000"
       d="m 41.432576,80.778255 c -0.763673,-4.488568 -2.252784,-6.523899 -5.482613,-7.493687 -1.073053,-0.322194 -2.1296,-0.674209 -2.347881,-0.782254 -0.806759,-0.399331 -0.365322,-0.89324 1.190625,-1.332152 3.025247,-0.853381 4.736992,-2.084672 5.513545,-3.965997 0.210233,-0.509323 0.585688,-1.848776 0.834345,-2.976563 0.305053,-1.383572 0.574397,-2.050521 0.828092,-2.050521 0.456115,0 0.716918,0.622631 1.271699,3.036002 0.233317,1.014957 0.715304,2.285246 1.071082,2.822864 1.134923,1.714984 2.060144,2.2409 5.942826,3.378035 0.354707,0.103884 0.691481,0.328559 0.748387,0.499276 0.118176,0.35453 -0.505006,0.647552 -2.600815,1.222914 -3.071903,0.843328 -4.656239,2.78184 -5.34252,6.536835 -0.29836,1.632479 -0.446264,1.964064 -0.906057,2.03129 -0.451034,0.06594 -0.580172,-0.09998 -0.720715,-0.926042 z"
       id="path21" /><path
       style="fill:#000000"
       d="M 74.560251,83.806769 C 74.330367,83.624868 74.059473,82.99979 73.958264,82.417707 73.857055,81.835623 73.135773,78.739998 72.355415,75.53854 71.144825,70.572034 70.05985,66.018468 67.832144,56.554685 67.431532,54.852796 67.375334,54.768748 66.638,54.768748 c -2.741038,0 -5.254668,-2.696229 -5.254668,-5.636387 0,-2.949985 2.08475,-5.212056 4.997675,-5.422758 3.636508,-0.263041 6.09439,1.927782 6.109015,5.445247 0.0069,1.65531 -0.425834,2.801819 -1.533682,4.063589 l -0.81194,0.924748 4.28457,3.711286 c 2.356514,2.041207 7.347649,6.408677 11.091411,9.705489 3.743762,3.296811 6.898918,5.992422 7.011458,5.990245 0.193639,-0.0037 2.970997,-4.807854 12.072031,-20.881478 l 3.96053,-6.994811 -0.63107,-0.413523 c -1.76824,-1.158694 -2.84527,-2.14309 -3.64637,-3.332739 -0.82919,-1.231368 -0.87905,-1.430815 -0.79189,-3.167367 0.11153,-2.221819 0.66271,-3.143348 2.69399,-4.504111 1.07617,-0.720932 1.64501,-1.397931 2.69524,-3.207716 2.04122,-3.517472 2.23089,-3.521717 4.20789,-0.09419 0.65483,1.135273 1.55603,2.344287 2.00268,2.686699 3.02866,2.32185 3.51735,3.048466 3.53279,5.252774 0.0158,2.250427 -1.26351,4.19063 -3.99693,6.061931 -0.47294,0.323777 -0.8599,0.716619 -0.8599,0.872982 0,0.156362 0.69376,1.487708 1.54169,2.958546 0.84792,1.470837 4.31463,7.496281 7.70379,13.389875 3.38916,5.893594 6.31505,10.878206 6.50197,11.076915 0.2827,0.300516 1.37963,-0.589602 6.52119,-5.291667 3.39973,-3.109126 8.23487,-7.48365 10.74475,-9.721166 l 4.56343,-4.068209 -1.04467,-1.133331 c -1.79319,-1.945384 -2.04805,-4.561184 -0.673,-6.907525 0.96145,-1.640599 2.50985,-2.47585 4.58974,-2.47585 3.39309,0 5.58861,2.183609 5.58861,5.558292 0,1.618843 -0.66826,3.040241 -1.9644,4.178261 -0.80061,0.702949 -1.36768,0.949449 -3.47761,1.511697 -0.15545,0.04142 -0.43392,0.771967 -0.61882,1.623429 -0.1849,0.851462 -0.98721,4.405613 -1.78292,7.898113 -0.7957,3.4925 -2.0974,9.261601 -2.89265,12.820225 -0.79525,3.558624 -1.59216,6.563129 -1.7709,6.676678 -0.17874,0.113549 -16.5245,0.208275 -36.3239,0.210504 -28.404767,0.0032 -36.087081,-0.06572 -36.416879,-0.326678 z"
       id="path20" /><path
       style="fill:#000000"
       d="m 200.31747,106.9089 c -0.18726,-0.11573 -0.6132,-1.58264 -0.94653,-3.25979 -1.90984,-9.609354 -4.89355,-12.93685 -13.20315,-14.724455 -2.09527,-0.450744 -2.9731,-1.029968 -2.40872,-1.589356 0.14225,-0.14099 1.35633,-0.495381 2.69794,-0.787533 8.10241,-1.764391 10.92713,-4.871406 12.75851,-14.033537 0.49164,-2.459618 0.84619,-3.639206 1.15179,-3.831973 0.71625,-0.451797 1.14377,0.293602 1.50438,2.62295 0.78943,5.09929 2.55538,9.281935 4.8089,11.389839 1.60602,1.502242 4.52676,2.887045 7.58522,3.596355 2.85781,0.662776 3.55717,0.940017 3.4197,1.355625 -0.16615,0.502301 -1.16759,0.899294 -3.76988,1.494466 -5.10008,1.16644 -8.24129,3.567681 -9.90964,7.575226 -0.78865,1.894441 -1.8811,6.092823 -2.28333,8.775133 -0.17782,1.18574 -0.78641,1.79947 -1.40519,1.41705 z"
       id="path19" /><path
       style="fill:#000000"
       d="m 15.522202,119.65781 c -0.06569,-0.10914 -0.374361,-1.50812 -0.685927,-3.10885 -1.271478,-6.53246 -2.873607,-9.75922 -5.8487055,-11.77957 -1.876948,-1.27461 -3.5122351,-1.92794 -7.1739227,-2.8661 -2.03829044,-0.52223 -2.75525941,-0.8171 -2.8212228,-1.16028 -0.1090139,-0.56715 0.35675173,-0.756545 3.7557025,-1.527193 3.2849972,-0.74481 6.3365198,-2.238291 7.7857385,-3.810508 1.967858,-2.134873 2.966772,-4.619996 4.263304,-10.606352 0.65971,-3.046016 0.716459,-3.178343 1.39689,-3.257272 0.634808,-0.07364 0.727933,0.02355 0.887317,0.926042 2.100664,11.894718 4.61769,14.980702 13.874873,17.0112 1.807199,0.396396 1.984375,0.4928 1.984375,1.079723 0,0.57206 -0.178363,0.68415 -1.5875,0.99759 -9.381097,2.0867 -12.119181,5.16986 -13.9021,15.65418 -0.1856,1.0914 -0.452118,2.1332 -0.592262,2.3151 -0.279104,0.36227 -1.14646,0.44812 -1.33656,0.13229 z"
       id="path18" /><path
       style="fill:#000000"
       d="m 225.29271,127.44454 c -2.39495,-1.16261 -3.5766,-2.99479 -3.56606,-5.52927 0.018,-4.32644 4.54051,-7.25369 8.46085,-5.47637 1.48633,0.67384 2.28462,1.40865 2.95877,2.72351 1.54251,3.00852 0.40935,6.64379 -2.54274,8.15727 -1.65121,0.84655 -3.72379,0.89528 -5.31082,0.12486 z m 4.34539,-3.74362 c 0.9067,-0.9067 0.92422,-2.48555 0.038,-3.42883 -2.10352,-2.2391 -5.63409,0.31069 -4.1465,2.99462 0.81493,1.47032 2.85656,1.68609 4.10845,0.43421 z"
       id="path17" /><path
       style="fill:#000000"
       d="m -8.505773,127.69032 c -1.2520002,-0.44726 -2.27493,-1.26442 -3.112625,-2.48649 -0.526858,-0.7686 -0.693645,-1.38436 -0.767642,-2.83404 -0.08329,-1.63165 -0.0039,-2.0248 0.667346,-3.30321 1.656799,-3.15562 5.5720524,-4.12173 8.5934158,-2.12046 2.58151165,1.70992 3.43832833,5.44724 1.830186,7.98301 -1.6799557,2.64902 -4.5008777,3.72923 -7.2106808,2.76119 z m 3.2194,-3.47118 c 2.7887337,-1.44211 0.7625053,-5.82226 -2.137636,-4.62098 -1.0527641,0.43607 -1.5718265,1.22028 -1.5718265,2.37476 0,2.07453 1.8615886,3.20179 3.7094625,2.24622 z"
       id="path16" /><path
       style="fill:#000000"
       d="m 110.96237,141.20184 c -3.69625,-3.76885 -5.70788,-9.80886 -4.89709,-14.70378 0.15419,-0.9309 0.21226,-1.80273 0.12904,-1.93739 -0.0832,-0.13465 -1.0617,0.63198 -2.17438,1.70364 -3.39226,3.26718 -6.287598,5.08274 -10.389555,6.51494 -3.037612,1.06057 -6.016365,1.46813 -9.463053,1.29474 -3.24986,-0.16349 -6.613038,-0.86353 -6.826965,-1.42101 -0.216138,-0.56325 0.868372,-3.60338 2.239383,-6.27751 1.821757,-3.5533 4.254649,-6.48476 7.335875,-8.8392 0.873125,-0.66718 1.637109,-1.25155 1.697743,-1.29862 0.466264,-0.36191 -0.587986,-0.21716 -3.253635,0.44674 -4.276603,1.06512 -7.228379,1.41991 -10.218067,1.22817 -6.419756,-0.41173 -11.876301,-2.88203 -15.776525,-7.14239 -2.043464,-2.23215 -3.578242,-4.81769 -3.480213,-5.86288 l 0.07445,-0.79375 5.55625,-0.16054 c 3.055938,-0.0883 7.26142,-0.30254 9.345516,-0.4761 5.984507,-0.49838 11.697972,0.27199 16.505691,2.22555 0.893421,0.36302 1.675186,0.66005 1.737256,0.66005 0.06207,0 -0.489288,-0.69506 -1.225239,-1.54458 -3.324525,-3.83755 -6.055341,-9.808175 -5.499302,-12.023611 0.23443,-0.934043 1.239362,-1.248477 3.990133,-1.248477 8.956445,0 19.022817,4.951112 24.499607,12.050038 0.6126,0.79404 1.18863,1.43994 1.28007,1.43533 0.0914,-0.005 0.68717,-0.78114 1.32383,-1.72564 4.58558,-6.802749 12.93037,-11.307196 21.65475,-11.689045 4.65442,-0.203715 5.35707,0.19198 4.97153,2.799718 -0.44155,2.986613 -2.94106,7.619687 -5.88096,10.900917 -0.80323,0.8965 -1.07212,1.33844 -0.73622,1.21008 1.87719,-0.71739 5.26835,-1.50964 7.64375,-1.78576 3.49697,-0.40649 6.28739,-0.12643 13.53116,1.35807 3.63216,0.74436 6.29672,1.13262 8.52559,1.24228 4.36745,0.2149 4.53679,0.4709 2.31128,3.49404 -2.49726,3.39229 -7.18881,6.33033 -11.90344,7.45441 -2.03617,0.48547 -2.92623,0.54985 -6.1418,0.44426 l -3.76055,-0.12348 1.87536,1.7363 c 3.58646,3.32052 6.08477,7.43092 7.49154,12.32565 0.56795,1.97614 0.62159,2.42404 0.32573,2.7199 -0.19481,0.19481 -1.45715,0.47734 -2.80521,0.62784 -7.96255,0.889 -16.04451,-2.69534 -20.9266,-9.28092 -0.75695,-1.02107 -1.46471,-1.85649 -1.5728,-1.85649 -0.10809,0 -0.45242,1.03651 -0.76516,2.30335 -1.36739,5.53887 -4.7403,10.39748 -9.34724,13.46448 -1.5617,1.03968 -4.42564,2.48842 -4.91922,2.48842 -0.10004,0 -1.03708,-0.87198 -2.08231,-1.93774 z"
       id="path15" /><path
       style="fill:#000000"
       d="m 189.80204,254.28369 c -2.03237,-0.54809 -4.06519,-1.48939 -5.832,-2.70053 -0.6083,-0.41699 -1.1885,-0.75816 -1.28932,-0.75816 -0.10082,0 -0.96149,0.5553 -1.91261,1.234 l -1.72929,1.234 -0.69016,-0.77098 c -0.37958,-0.42404 -1.01714,-1.02753 -1.41679,-1.34108 l -0.72665,-0.57011 1.26515,-0.9287 c 2.22061,-1.63008 2.25858,-1.7091 1.55325,-3.23235 -3.14108,-6.78351 -2.9927,-13.08386 0.45324,-19.24578 1.16585,-2.08473 3.47484,-4.68942 4.15706,-4.68942 1.01687,0 2.91579,3.46315 3.84452,7.01146 0.61435,2.34717 0.62096,6.24736 0.0145,8.5719 -0.24288,0.931 -0.91246,2.59131 -1.48795,3.68957 -0.57549,1.09826 -1.00745,2.03573 -0.95991,2.08327 0.29817,0.29817 9.87286,-8.86262 11.78063,-11.27137 l 0.77795,-0.98224 -1.46617,-2.23619 c -2.99276,-4.56454 -4.16429,-8.03691 -4.14662,-12.29035 0.0143,-3.44439 0.62496,-5.97833 2.23476,-9.27336 1.39144,-2.8481 1.88615,-3.37826 2.77462,-2.97344 1.67389,0.76267 4.8189,6.21872 5.53425,9.60096 0.75649,3.57673 0.25484,8.97778 -1.0722,11.544 -0.2299,0.44457 -0.34968,0.87661 -0.26619,0.9601 0.18397,0.18397 6.9e-4,0.3963 1.99175,-2.30746 2.4559,-3.33498 4.75898,-6.92001 6.626,-10.31417 1.53192,-2.78497 1.63593,-3.07494 1.29616,-3.6136 -0.20317,-0.32211 -1.23262,-1.77156 -2.28765,-3.221 -2.35138,-3.23038 -4.07538,-6.54977 -4.73096,-9.10899 -1.24467,-4.85881 0.0873,-15.292 1.95232,-15.292 1.41775,0 5.08844,3.44234 6.81862,6.39444 0.5236,0.89339 1.27001,2.5288 1.65869,3.63423 0.64534,1.83538 0.70716,2.359 0.71209,6.03123 0.003,2.21175 0.0813,3.93815 0.17415,3.83646 0.33539,-0.36752 2.60655,-6.86594 3.39355,-9.7099 1.19681,-4.32492 2.35866,-10.26465 2.07805,-10.62366 -0.13108,-0.1677 -1.2512,-0.87339 -2.48916,-1.5682 -6.53802,-3.66945 -9.89806,-9.72185 -9.89806,-17.82923 0,-3.26119 0.19983,-3.51582 2.20788,-2.81339 2.31531,0.8099 4.19353,2.02795 6.19859,4.01986 1.51719,1.50725 2.14088,2.37833 2.94864,4.1183 1.06744,2.29932 1.87406,5.31196 1.87406,6.99941 0,0.54123 0.0761,0.90797 0.16908,0.81497 0.25153,-0.25153 0.87078,-7.11459 0.88066,-9.76021 0.009,-2.2795 -0.004,-2.32534 -1.4261,-5.02708 -2.15038,-4.08676 -2.66896,-6.01525 -2.65419,-9.87036 0.0138,-3.60203 0.54257,-5.93441 2.1188,-9.34597 1.20853,-2.61569 2.08613,-3.7509 2.89973,-3.7509 0.78552,0 2.35249,2.19778 3.84474,5.39251 1.54085,3.29876 1.94148,5.10449 1.94417,8.76269 0.002,2.90974 -0.0715,3.39144 -0.88161,5.76561 -0.48616,1.42484 -1.28572,3.25784 -1.77679,4.07335 -0.86909,1.44326 -0.89672,1.57856 -1.03778,5.08231 l -0.14491,3.59957 1.13671,-2.11667 c 2.42611,-4.51769 7.14035,-8.10115 10.7512,-8.17237 l 1.50649,-0.0297 -0.0337,3.30729 c -0.0289,2.83467 -0.13555,3.60977 -0.7463,5.42396 -1.93615,5.75117 -6.0049,9.86 -12.05203,12.17074 l -1.78525,0.68218 -0.78976,4.02458 c -0.43437,2.21352 -0.74438,4.07693 -0.68891,4.14091 0.0555,0.064 0.292,-0.15657 0.52563,-0.49012 1.3635,-1.94667 3.26856,-3.91066 4.67517,-4.8198 2.27806,-1.47238 4.02887,-1.95016 7.14638,-1.95016 2.216,0 2.65364,0.0718 2.9553,0.48452 0.49728,0.68043 0.11986,1.60439 -1.3971,3.42024 -2.98199,3.56957 -6.32084,5.3897 -12.18908,6.64473 l -2.738,0.58557 -1.13657,3.42831 c -0.62511,1.88556 -1.39029,4.0107 -1.70041,4.72252 -0.31012,0.71182 -0.49955,1.35852 -0.42095,1.43712 0.0786,0.0786 0.52808,-0.22417 0.99884,-0.67282 1.4134,-1.34701 3.37586,-2.4376 5.68341,-3.15844 1.8772,-0.58641 2.54181,-0.66667 4.7625,-0.57513 3.24957,0.13395 4.72632,0.73542 4.64518,1.89196 -0.0758,1.07995 -1.72436,4.26319 -3.28095,6.33511 -3.38259,4.50244 -8.85076,6.4991 -14.64825,5.34869 -1.57765,-0.31306 -2.39624,-0.37676 -2.45806,-0.19127 -0.21647,0.64939 -4.48715,7.77417 -5.78985,9.6592 -0.78073,1.12973 -1.41951,2.09649 -1.41951,2.14835 0,0.0519 0.86569,-0.35933 1.92376,-0.91376 3.15508,-1.65326 5.55659,-2.18383 9.17602,-2.02727 3.114,0.1347 5.92386,0.82914 6.94818,1.71721 0.41064,0.35601 0.41682,0.47985 0.0659,1.31971 -1.02136,2.44446 -4.91006,6.77548 -7.58192,8.44433 -1.93222,1.20687 -3.71149,1.8424 -6.24308,2.22994 -2.71989,0.41637 -5.89702,0.007 -8.82645,-1.13842 l -2.02405,-0.79112 -4.87952,4.93992 c -3.46142,3.50425 -4.6802,4.88896 -4.19367,4.76456 4.33282,-1.10782 6.95835,-1.10946 10.13896,-0.006 3.01538,1.04582 6.02503,3.11066 6.02503,4.13362 0,0.61704 -3.30167,3.46254 -5.58814,4.81606 -2.50899,1.48525 -4.68069,2.10364 -7.77332,2.21342 -2.01293,0.0715 -3.0976,-0.0279 -4.53442,-0.41538 z m 6.40204,-4.50245 c 2.29133,-0.63496 4.35009,-1.50097 4.35009,-1.82985 0,-0.42317 -4.26463,-0.90444 -6.88795,-0.77731 -2.44508,0.11849 -7.39955,1.33648 -7.39955,1.81908 0,0.36905 4.33219,1.26183 6.22302,1.28243 1.08849,0.0119 2.62615,-0.19278 3.71439,-0.49435 z m -13.93822,-6.43072 c 1.465,-3.64319 2.0032,-8.07508 1.34145,-11.04635 -0.45527,-2.04417 -0.51177,-2.07854 -1.20236,-0.73157 -0.87038,1.69764 -1.69004,5.25126 -1.69443,7.34615 -0.004,1.97754 0.52981,5.82083 0.8087,5.82083 0.10344,0 0.43943,-0.62507 0.74664,-1.38906 z m 28.10446,-12.38543 c 1.76269,-0.36045 5.26729,-2.05083 6.82369,-3.29128 l 1.16171,-0.92589 h -1.82849 c -3.13674,0 -6.76776,1.23998 -10.41681,3.5573 l -1.98438,1.26017 2.40782,-0.15408 c 1.32431,-0.0847 3.05071,-0.28555 3.83646,-0.44622 z m -11.76445,-7.06144 c 0.40764,-4.37179 -0.11205,-8.32747 -1.30914,-9.96459 -0.33515,-0.45834 -0.39019,-0.39536 -0.68798,0.78728 -0.60876,2.41759 -0.40289,5.75638 0.54139,8.78043 0.46576,1.49159 0.93526,2.71198 1.04335,2.71198 0.10808,0 0.29365,-1.0418 0.41238,-2.3151 z m 21.88026,-14.63868 c 1.18841,-0.30229 2.87618,-0.88998 3.75059,-1.30598 1.53752,-0.73148 4.89245,-3.47692 4.89245,-4.00365 0,-0.3774 -2.19594,-0.0147 -4.3507,0.71868 -1.99404,0.67864 -3.69793,1.76713 -5.96805,3.81255 -1.68661,1.51967 -1.52806,1.59332 1.67571,0.7784 z m -8.88806,-7.46707 c -0.10925,-2.21823 -0.32421,-3.51679 -0.83314,-5.03286 -0.61232,-1.82407 -1.85315,-4.14837 -2.2146,-4.14837 -0.29055,0 0.19507,5.23866 0.61316,6.61458 0.48244,1.58771 2.23022,5.55625 2.44702,5.55625 0.0741,0 0.0685,-1.34532 -0.0124,-2.9896 z m 15.81131,-24.40376 c 1.80868,-1.27343 3.84372,-3.35378 5.15556,-5.27037 0.8845,-1.29226 3.24967,-6.51194 3.04394,-6.71767 -0.26859,-0.26859 -2.81177,1.54189 -4.37248,3.11278 -2.18055,2.19476 -3.49496,4.19673 -4.9378,7.52073 -0.626,1.44216 -1.13818,2.67337 -1.13818,2.73603 0,0.16205 0.44406,-0.11073 2.24896,-1.3815 z m -2.48626,-18.83417 c 0.52271,-2.91193 0.42858,-7.48476 -0.19379,-9.41421 -0.27222,-0.84394 -0.61402,-1.51381 -0.75954,-1.48859 -0.54943,0.0952 -0.99201,2.29149 -1.00906,5.00741 -0.0127,2.01764 0.15206,3.51805 0.60177,5.48111 0.34057,1.48665 0.70287,2.65129 0.80512,2.5881 0.10225,-0.0632 0.35222,-1.04141 0.5555,-2.17382 z"
       id="path14" /><path
       style="fill:#000000"
       d="m 23.812498,254.4116 c -1.946769,-0.49681 -3.642572,-1.24502 -5.467106,-2.41216 -1.937135,-1.23917 -4.58706,-3.76318 -4.58706,-4.3691 0,-0.6739 1.951072,-2.24869 4.108403,-3.31606 3.427612,-1.69585 7.198449,-2.0104 10.771077,-0.89847 0.838578,0.26099 1.524687,0.40267 1.524687,0.31484 0,-0.0878 -1.701901,-1.89105 -3.782001,-4.00715 -2.0801,-2.1161 -4.169228,-4.30439 -4.642506,-4.86286 l -0.860506,-1.0154 -1.641348,0.65436 c -4.155657,1.65676 -8.515936,1.90803 -12.0548259,0.6947 -2.2073201,-0.7568 -5.1769772,-2.76605 -7.00253803,-4.73787 -1.47709567,-1.59544 -4.15098517,-5.43204 -4.14347467,-5.94522 0.00925,-0.63192 0.5396266,-0.99675 2.3998518,-1.65079 2.6075295,-0.91678 6.4871169,-1.12803 9.2849303,-0.50558 1.9998787,0.44493 5.0061115,1.71607 5.8398125,2.46928 0.835696,0.755 0.485745,-0.0774 -0.81449,-1.93731 -1.403435,-2.00756 -4.15521,-6.66653 -5.1034002,-8.64046 -0.3360945,-0.69967 -0.7856198,-1.25677 -1.0140978,-1.25677 -0.2257185,0 -1.2437903,0.17653 -2.2623818,0.39228 -6.8510482,1.45117 -12.785713,-1.53099 -16.1082862,-8.09439 -0.795402,-1.57123 -1.299986,-2.92369 -1.320659,-3.53983 -0.03135,-0.93446 0.03302,-1.02074 1.024877,-1.3734 0.582083,-0.20696 2.010833,-0.44236 3.1750001,-0.52309 3.7843288,-0.26246 7.6678272,1.08312 10.5563844,3.65765 0.8151866,0.72657 1.4821575,1.26715 1.4821575,1.2013 0,-0.0659 -0.5308017,-1.59343 -1.1795594,-3.3946 -0.6487576,-1.80118 -1.42498975,-4.07059 -1.72496023,-5.04313 l -0.54540086,-1.76825 -1.51618561,-0.29079 c -6.105795,-1.17105 -8.8745539,-2.34017 -11.6688149,-4.92723 -2.104682,-1.94861 -3.524799,-4.30932 -3.048243,-5.0672 0.36046,-0.57325 1.297188,-0.79066 3.581856,-0.83135 3.7705385,-0.0671 7.4462706,1.84965 9.9868801,5.20787 0.7923067,1.04728 1.4852804,1.85942 1.5399414,1.80476 0.085278,-0.0853 -1.2245769,-7.65729 -1.3376573,-7.73273 -0.02254,-0.015 -0.8774623,-0.34266 -1.8998279,-0.72804 -5.6376843,-2.12516 -9.6211803,-6.0748 -11.6948063,-11.59542 -1.016568,-2.7064 -1.644555,-7.03333 -1.227771,-8.45952 0.256234,-0.8768 0.273709,-0.8852 1.776566,-0.85409 1.164689,0.0241 1.961449,0.25074 3.424864,0.97418 3.4554461,1.7082 5.5190057,3.74476 7.4784427,7.38059 l 0.8989073,1.66797 0.00601,-3.17912 c 0.0051,-2.69619 -0.074004,-3.31918 -0.5207051,-4.10104 -2.3642095,-4.1381 -3.1920325,-6.64086 -3.3760015,-10.20666 -0.222475,-4.31215 1.0353791,-8.60809 3.748458,-12.80208 1.5061464,-2.32826 2.0393395,-2.64278 2.9449686,-1.73715 0.94118168,0.94119 2.9189878,5.16577 3.5975644,7.68439 0.742341,2.75528 0.7982567,7.16833 0.122169,9.64198 -0.5406481,1.97811 -1.67519854,4.56793 -2.8067723,6.40697 -0.7500361,1.21897 -0.7932549,1.44169 -0.7932549,4.08789 0,3.3724 0.50140823,9.1339 0.82530358,9.48326 0.13757289,0.14839 0.2330297757603,-0.15536 0.2330297757603,-0.74152 0,-1.7504 0.8111062242397,-4.73777 1.9142767442397,-7.05046 1.7429732,-3.65396 5.2038427,-6.7306 9.1070117,-8.09593 1.991503,-0.69664 2.207879,-0.43388 2.207879,2.6811 0,8.18037 -3.9022199,14.98254 -10.6202747,18.51277 l -1.88056724,0.98821 0.17219489,1.48974 c 0.31502065,2.72539 2.03774395,9.6365 3.50408055,14.05745 0.7963932,2.40109 1.5308216,4.44965 1.6320631,4.55235 0.1012414,0.10269 0.1437352,-1.14746 0.094431,-2.77813 -0.1119674,-3.70313 0.363594,-6.10724 1.7832197,-9.01471 1.3000958,-2.66267 3.1903197,-5.01096 5.3254097,-6.61594 1.723183,-1.29534 2.716518,-1.53261 3.135869,-0.74905 0.486073,0.90824 1.319602,4.6977 1.60349,7.28992 0.487837,4.45451 -0.304549,8.5779 -2.441789,12.70648 -1.065296,2.05788 -3.177492,5.02699 -4.787371,6.72962 l -0.8280479,0.87576 1.5874999,3.09245 c 1.372544,2.67372 5.656777,9.42867 7.245492,11.42396 0.710508,0.89234 0.878788,0.60634 0.422497,-0.71806 -0.208103,-0.60402 -0.583013,-2.13976 -0.833134,-3.41274 -0.428308,-2.17988 -0.428747,-2.467 -0.0075,-4.93531 0.683281,-4.00417 2.676931,-8.09673 5.298141,-10.87602 1.459415,-1.54743 1.875027,-1.3535 3.230194,1.50729 1.930541,4.07541 2.741041,8.42851 2.244246,12.0536 -0.492886,3.59656 -2.146635,7.54494 -4.60498,10.99454 l -0.927906,1.30206 0.564751,0.79312 c 0.845529,1.18743 10.444998,10.91216 10.611575,10.75003 0.07925,-0.0771 -0.287308,-1.20822 -0.814567,-2.51354 -0.851778,-2.10872 -0.971693,-2.69961 -1.07562,-5.3002 -0.09521,-2.38239 -0.01261,-3.34221 0.444008,-5.15937 0.900728,-3.58459 3.157532,-7.65645 4.243543,-7.65645 0.658538,0 2.682729,2.69318 4.014,5.34062 1.881708,3.74206 2.724876,8.33854 2.104822,11.47432 -0.408601,2.0664 -1.26417,4.72094 -1.999517,6.20381 -1.111867,2.24216 -1.120072,2.20117 0.719724,3.59515 0.915217,0.69344 1.700883,1.28655 1.745926,1.31802 0.115525,0.0807 -2.585522,2.75975 -2.782431,2.75975 -0.08899,0 -0.767928,-0.45401 -1.508755,-1.00892 -0.740828,-0.5549 -1.493903,-1.09655 -1.6735,-1.20365 -0.190862,-0.11382 -1.235247,0.35469 -2.513542,1.12757 -1.20285,0.72727 -2.960907,1.58147 -3.906792,1.89822 -2.17541,0.72849 -5.898696,0.91243 -7.937501,0.39213 z m 8.995834,-4.87152 c 1.027066,-0.30294 1.559932,-0.57182 1.322917,-0.66753 -3.009383,-1.21525 -4.532399,-1.55648 -7.408334,-1.65986 -2.989909,-0.10747 -5.863264,0.28245 -5.925258,0.80409 -0.0337,0.28357 3.424767,1.69329 4.958167,2.02101 1.579255,0.33752 5.051652,0.0925 7.052508,-0.49771 z m 6.654811,-6.71872 c 0.474145,-2.57932 0.410318,-6.54546 -0.13945,-8.66511 -0.501766,-1.93458 -1.211947,-3.70417 -1.486581,-3.70417 -0.37436,0 -0.856292,2.31501 -0.989894,4.75505 -0.09548,1.74383 -0.01067,3.1355 0.275115,4.51435 0.471219,2.27353 1.43739,5.0181 1.76652,5.0181 0.121918,0 0.380348,-0.8632 0.57429,-1.91822 z M 17.197915,231.54818 c 0,-0.12474 -1.393623,-0.98332 -3.09694,-1.90795 -3.541674,-1.92255 -6.8039925,-2.9424 -9.0560855,-2.83107 l -1.4374002,0.0711 1.4510695,1.09343 c 2.8830743,2.17249 5.4262792,3.12343 9.3646102,3.50155 1.307829,0.12556 2.467168,0.24439 2.576308,0.26405 0.109141,0.0197 0.198438,-0.0663 0.198438,-0.19106 z m 6.792714,-7.97526 c 0.670484,-2.25491 0.742062,-2.86375 0.695625,-5.91696 -0.02847,-1.87188 -0.119634,-3.47128 -0.202586,-3.55423 -0.28908,-0.28908 -0.70116,0.40801 -1.391146,2.35333 -0.58849,1.65916 -0.697757,2.42351 -0.714944,5.00119 -0.0212,3.18014 0.252568,5.26179 0.639579,4.86311 0.124346,-0.1281 0.562408,-1.36399 0.973472,-2.74644 z M 3.7041647,209.67421 c 0,-0.60057 -5.0277776,-4.22079 -6.7640393,-4.87041 -1.6083232,-0.60175 -4.3053551,-1.09385 -4.476584,-0.81679 -0.189227,0.30617 2.8452002,3.09805 3.9645815,3.64768 2.0040749,0.98403 4.5187061,1.74747 7.0776043,2.14877 0.1091406,0.0171 0.1984375,-0.032 0.1984375,-0.10925 z m 7.4709823,-6.87694 c 1.214852,-2.7144 1.779645,-4.91438 1.976014,-7.69695 0.154701,-2.19213 -0.0144,-2.66727 -0.668689,-1.87889 -0.650462,0.78375 -1.925496,3.71397 -2.291367,5.26589 -0.4125472,1.74991 -0.5601041,7.11819 -0.183717,6.68383 0.119793,-0.13825 0.645285,-1.20649 1.167759,-2.37388 z m -15.1555326,-25.1567 c -1.8891026,-4.4071 -3.6724142,-7.25835 -5.9404329,-9.49786 -1.6831915,-1.66204 -3.7527515,-3.21567 -3.9803495,-2.98807 -0.07329,0.0733 0.395185,1.39453 1.041046,2.9361 1.836673,4.38386 3.5084521,6.62404 6.7746145,9.07797 1.2368784,0.92929 2.3339754,1.68962 2.4379933,1.68962 0.104018,0 -0.045774,-0.54799 -0.3328714,-1.21776 z m 8.8761126,-4.47078 c 0.6735016,-1.28277 0.7935105,-1.649 0.3904141,-1.19143 -0.6879355,0.78092 -2.3478344,4.01922 -1.7634841,3.44039 0.2203634,-0.21828 0.8382449,-1.23031 1.37307,-2.24896 z m -7.2769791,-13.08011 c 0,-0.28183 0.2372909,-1.50222 0.527313,-2.71198 0.5963892,-2.48771 0.7043918,-6.4084 0.2304642,-8.36627 -0.398993,-1.6483 -0.6354433,-1.85064 -1.0999598,-0.94131 -1.0540204,2.06334 -1.2735203,6.38678 -0.5177132,10.19729 0.4251574,2.14348 0.8598958,3.06477 0.8598958,1.82227 z"
       id="path13" /><path
       style="fill:#000000"
       d="m 123.47322,256.48717 c -1.97785,-4.03277 -6.66169,-7.03903 -10.88335,-6.98534 -8.31819,0.10578 -7.80084,0.0466 -10.02762,1.14713 -2.36354,1.16812 -4.727709,3.34175 -5.731067,5.26919 -0.359828,0.69122 -0.784262,1.25677 -0.943186,1.25677 -0.481536,0 -4.477539,-2.4964 -6.386032,-3.9895 -4.473738,-3.50003 -7.44823,-6.59301 -16.77879,-17.44715 -11.123074,-12.93935 -15.766152,-18.9796 -21.045956,-27.37897 -12.793,-20.35175 -17.518586,-40.45225 -13.448873,-57.20541 3.285636,-13.52547 12.332343,-25.1596 23.698939,-30.47699 3.09253,-1.44672 3.400004,-1.49619 5.174003,-0.83245 2.601613,0.97339 5.117152,1.39952 8.465002,1.43397 l 3.202749,0.033 -0.865594,1.13365 c -2.068915,2.7096 -4.613862,8.89839 -4.613862,11.21996 0,1.33737 0.648723,1.96874 2.780892,2.70649 3.374991,1.16777 6.207675,1.54922 10.448275,1.40697 3.121804,-0.10473 4.280036,-0.25978 6.217708,-0.8324 2.72616,-0.80562 6.10558,-2.34843 8.223732,-3.75437 0.8006,-0.53142 1.49923,-0.92157 1.5525,-0.867 0.0533,0.0546 0.34691,1.15441 0.65254,2.44412 0.97854,4.12935 3.52748,8.20556 6.75913,10.80903 1.88703,1.52023 2.80686,1.74042 4.69063,1.12288 6.30027,-2.06537 11.76527,-7.00414 14.25594,-12.88325 0.35344,-0.83427 0.73701,-1.51888 0.85238,-1.52136 0.11538,-0.002 0.77022,0.51236 1.45521,1.14408 6.25748,5.77093 15.68492,7.93317 23.74056,5.44504 2.76499,-0.85402 3.01404,-1.98661 1.55191,-7.05762 -0.75965,-2.63467 -2.34133,-5.91028 -3.92655,-8.13176 l -1.16798,-1.63677 2.15064,-0.32923 c 1.18285,-0.18107 3.08425,-0.66995 4.22533,-1.0864 2.39683,-0.87473 2.44398,-0.86675 6.29681,1.06612 3.56693,1.78943 6.77856,4.1382 9.94515,7.27321 6.01573,5.95574 9.84909,13.46974 11.64602,22.82803 0.89922,4.68306 1.01967,12.21925 0.26949,16.86099 -2.14477,13.27078 -7.67611,25.74819 -20.76068,46.83126 -8.77137,14.13323 -15.73578,23.50514 -22.52814,30.31583 -5.44172,5.4564 -10.40527,8.98737 -15.60891,11.10385 -2.95149,1.20046 -2.72276,1.22861 -3.53895,-0.43556 z m -25.45417,-10.8007 c 2.07369,-0.86644 2.2933,-3.72395 0.550132,-7.15825 -0.557765,-1.09889 -1.476354,-2.41558 -2.041308,-2.92598 -0.872423,-0.78818 -1.109247,-0.88409 -1.571806,-0.63653 -0.941052,0.50363 -1.386166,2.00694 -1.405478,4.74679 -0.01534,2.17604 0.07467,2.7109 0.670307,3.98333 0.499358,1.06674 0.934308,1.5911 1.586167,1.9122 1.10038,0.54204 1.102267,0.54211 2.211986,0.0784 z m 28.77622,-0.40801 c 0.36321,-0.2857 0.92774,-1.14095 1.25452,-1.90057 0.51543,-1.19814 0.58107,-1.73424 0.49547,-4.04657 -0.10273,-2.77529 -0.66577,-4.41342 -1.57725,-4.58896 -1.0985,-0.21155 -3.61659,3.21069 -4.34649,5.90714 -0.53775,1.98662 -0.3747,3.21695 0.57607,4.34688 0.55722,0.66222 0.8711,0.80154 1.80587,0.80154 0.72375,0 1.36938,-0.18718 1.79181,-0.51946 z m -16.18889,-21.31412 c 1.55655,-0.80492 2.33859,-3.46202 1.83811,-6.24525 -0.35021,-1.94751 -1.65731,-4.87307 -2.34062,-5.23876 -0.81073,-0.43389 -1.69963,0.27881 -2.62454,2.10428 -1.55856,3.07614 -1.75862,6.37021 -0.50027,8.23746 0.99792,1.48082 2.22524,1.86731 3.62732,1.14227 z m 37.24554,-1.02694 c 2.58338,-1.33592 3.08512,-9.03632 0.71685,-11.00181 -1.47535,-1.22443 -5.47285,5.65066 -5.03295,8.65589 0.32455,2.21717 2.39202,3.3409 4.3161,2.34592 z m -73.476986,-2.08562 c 2.075584,-1.39556 1.899349,-4.57829 -0.460479,-8.3161 -1.168258,-1.85043 -1.815688,-2.45651 -2.624125,-2.45651 -0.550388,0 -0.782588,0.23403 -1.246905,1.25677 -0.459611,1.01237 -0.572487,1.77211 -0.580435,3.90675 -0.0087,2.32571 0.07229,2.81135 0.66156,3.96875 0.450677,0.88519 0.972608,1.47086 1.5875,1.78138 1.198132,0.60505 1.583607,0.58463 2.662884,-0.14104 z m 14.269143,-17.78855 c 1.252097,-0.64748 1.710589,-1.79794 1.685332,-4.22885 -0.02466,-2.37323 -0.521736,-4.08637 -1.746542,-6.01928 -0.559615,-0.88314 -0.971097,-1.25677 -1.38412,-1.25677 -1.224541,0 -2.515506,2.23656 -3.087457,5.34892 -0.814233,4.43077 1.58029,7.68278 4.532787,6.15598 z m 45.653143,-0.89132 c 1.21337,-0.73991 1.79797,-2.18084 1.916,-4.7226 0.15295,-3.29387 -1.13104,-6.94931 -2.44097,-6.94931 -1.72443,0 -4.41973,5.79312 -4.02732,8.65607 0.40174,2.93103 2.45773,4.2931 4.55229,3.01584 z m 27.40126,-17.49738 c 1.00418,-1.19742 1.37089,-2.79549 1.23511,-5.3824 -0.0932,-1.77484 -0.27204,-2.53063 -0.89326,-3.77394 -0.97761,-1.95658 -1.76376,-2.18451 -2.90129,-0.8412 -2.05634,2.42831 -3.12783,7.15596 -2.10865,9.30374 0.92631,1.95203 3.31518,2.30709 4.66809,0.6938 z m -98.095471,-0.89212 c 1.967902,-0.82224 2.65321,-4.67059 1.493532,-8.38692 -1.358173,-4.35243 -2.873802,-4.56879 -4.660866,-0.66532 -1.45555,3.17934 -1.44022,6.57595 0.03761,8.33225 0.574558,0.68282 0.906454,0.85365 2.043029,1.05155 0.113814,0.0198 0.602829,-0.12938 1.086699,-0.33156 z m 47.628921,-1.7623 c 1.25471,-1.10165 1.56407,-2.21034 1.42574,-5.10954 -0.12737,-2.66936 -0.81187,-4.67515 -1.96519,-5.75864 -0.61076,-0.57378 -0.70183,-0.58822 -1.36768,-0.21681 -0.44358,0.24742 -1.10307,1.1625 -1.74392,2.41977 -1.27976,2.51073 -1.59129,5.24439 -0.82603,7.24821 0.84284,2.20695 2.85283,2.84312 4.47708,1.41701 z m 28.7432,-18.11619 c 0.42791,-0.22128 1.04649,-0.90589 1.37464,-1.52135 1.59149,-2.98497 -0.15607,-10.192 -2.40807,-9.93104 -0.93446,0.10829 -2.25046,2.09713 -2.9826,4.50754 -1.45914,4.80391 0.75429,8.63156 4.01603,6.94485 z m -52.402839,-1.44634 c 1.054054,-0.75055 1.592292,-2.30923 1.592292,-4.61111 0,-3.21882 -1.383445,-6.76939 -2.637628,-6.76939 -0.585043,0 -1.920479,1.47252 -2.672771,2.94714 -0.747747,1.4657 -1.361166,4.54178 -1.144514,5.73932 0.234595,1.29674 0.767749,2.30434 1.48519,2.80686 0.82423,0.57731 2.486195,0.52179 3.377431,-0.11282 z m 83.680249,-6.55185 c 1.07687,-1.12693 1.43026,-2.85187 1.04478,-5.09981 -0.35335,-2.06058 -1.49249,-4.55254 -2.51808,-5.5085 -0.94211,-0.87814 -1.60672,-0.56718 -2.40805,1.12669 -1.67897,3.54905 -1.62845,7.71766 0.11465,9.46077 1.05263,1.05263 2.77165,1.06214 3.7667,0.0208 z M 58.844574,155.17832 c 0.987696,-0.91536 1.459286,-2.18285 1.648799,-4.43144 0.116139,-1.378 0.03766,-2.40242 -0.27846,-3.63494 -0.826831,-3.22371 -1.753542,-3.71168 -3.46058,-1.82219 -2.841167,3.14483 -3.63979,8.36002 -1.533874,10.01653 0.992715,0.78087 2.708855,0.72028 3.624115,-0.12796 z"
       id="path12" /><path
       style="fill:#000000"
       d="m 201.28177,272.59827 c -0.83674,-0.21953 -1.51408,-0.4756 -1.5052,-0.56905 0.009,-0.0935 0.84014,-0.80955 1.84724,-1.59132 4.72293,-3.66623 12.98503,-11.81181 17.47824,-17.23173 8.79631,-10.61055 15.18707,-20.80111 20.49197,-32.67604 7.31746,-16.38 11.17734,-31.50582 12.32199,-48.28646 0.42712,-6.26173 0.1588,-18.78419 -0.52488,-24.49611 -2.12292,-17.73613 -6.30406,-32.23099 -13.68151,-47.42998 C 230.13405,84.710504 221.31044,72.288495 209.30201,60.324998 186.41496,37.523596 157.00052,23.305133 125.54479,19.838126 121.23583,19.363197 107.87738,19.204972 102.39269,19.563898 69.598991,21.709965 37.873382,36.118913 13.530667,59.922723 0.52269201,72.642724 -10.139415,88.081861 -17.809283,105.30417 c -10.133831,22.755 -14.416646,50.70262 -11.413671,74.48021 2.708462,21.44563 10.293365,41.72627 22.4624358,60.06041 3.3188691,5.00027 7.45619563,10.47718 11.0927596,14.68438 3.3708256,3.89976 10.2631216,10.73609 14.2547356,14.13899 1.855391,1.58174 3.373438,2.90863 3.373438,2.94864 0,0.0986 -2.790024,0.90404 -3.131527,0.90404 -0.572337,0 -5.662813,-4.53194 -10.2366082,-9.11343 -5.1557058,-5.16438 -8.81205264,-9.40002 -13.4881306,-15.62512 -19.2384822,-25.61152 -29.5886732,-58.42377 -28.1845262,-89.3508 0.153916,-3.39008 0.336307,-6.64003 0.405314,-7.22212 1.098358,-9.26485 1.552171,-12.14576 2.918025,-18.5243 2.540572,-11.86446 6.237283,-22.54823 11.66075,-33.700431 3.320659,-6.828224 5.638507,-10.952973 9.3095692,-16.566932 C 7.32654,57.776561 29.448552,39.225639 56.753124,27.457762 70.015235,21.741983 84.304701,18.176705 100.14479,16.63137 c 4.5264,-0.441589 19.09616,-0.447571 23.54792,-0.0097 26.78097,2.634343 51.23062,12.244231 73.08727,28.726816 5.55958,4.192599 9.48418,7.659835 15.28356,13.502463 11.3314,11.41588 19.79622,23.181218 26.94951,37.457352 3.74628,7.476629 5.93836,12.756559 8.51319,20.505209 4.01165,12.0726 6.23874,22.90147 7.29159,35.45417 0.40997,4.88789 0.4215,17.32137 0.0203,21.88806 -1.60627,18.28332 -6.23403,34.78304 -14.71368,52.45986 -7.91057,16.49052 -20.42937,32.60098 -34.61613,44.54755 -1.23236,1.03775 -2.34517,1.875 -2.47291,1.86056 -0.12775,-0.0144 -0.91688,-0.20587 -1.75363,-0.42539 z"
       id="path11" /><path
       style="fill:#000000"
       d="m 197.98097,290.40997 -0.97792,-0.8962 0.91044,-0.75744 c 2.68952,-2.23758 9.79627,-8.62654 10.28056,-9.24222 0.30921,-0.39309 0.5622,-0.86443 0.5622,-1.04742 0,-0.18299 1.0418,-1.19789 2.31511,-2.25534 3.41947,-2.83979 13.28985,-12.83839 16.56272,-16.77789 8.25624,-9.93789 13.99761,-18.83267 19.62892,-30.41002 7.02572,-14.44409 11.85647,-30.04971 13.84975,-44.74123 2.13332,-15.72368 1.97858,-29.54695 -0.50497,-45.11146 C 256.91475,116.02643 246.98913,91.85016 233.39716,72.892706 216.05454,48.704034 192.47167,30.098958 165.49688,19.324603 146.52732,11.747725 128.3269,8.3787236 108.74375,8.8192775 99.155951,9.0349702 92.825609,9.7209143 83.608333,11.542905 29.238619,22.290233 -14.720262,61.562317 -32.755888,115.50064 c -5.729246,17.13419 -8.623575,37.29587 -7.733412,53.87038 1.085258,20.20713 4.752486,36.24316 12.183487,53.27586 8.516123,19.51992 22.3905678,38.50807 38.0953945,52.13621 2.0857545,1.80995 3.3375795,3.08829 3.3892955,3.46107 0.07765,0.55972 3.899967,4.30523 9.25671,9.07071 l 2.194963,1.95269 -0.72311,0.75476 c -0.397711,0.41512 -0.86354,0.75477 -1.035175,0.75477 -0.876764,0 -10.805099,-7.33036 -16.2576836,-12.00349 -5.91111079,-5.06611 -14.2442295,-13.85342 -19.5691344,-20.63575 -12.110013,-15.42451 -21.21915,-33.23195 -26.583511,-51.96808 -3.240326,-11.31751 -4.936528,-20.50974 -5.725091,-31.02601 -0.416413,-5.55328 -0.17627,-22.05969 0.398251,-27.37397 2.297589,-21.25256 8.541333,-41.39036 18.653879,-60.163935 C -14.797088,66.416302 0.70499592,48.369296 19.640683,34.226837 39.411377,19.460738 63.751567,9.2131638 88.655349,5.1706581 107.26454,2.149921 123.18884,2.6182912 142.47813,6.7537103 c 28.72074,6.1574237 55.30717,20.6210437 76.81722,41.7903147 8.39206,8.259109 14.45924,15.613476 21.06932,25.539306 14.49174,21.761092 23.9977,48.167979 26.46794,73.526089 1.53344,15.74147 0.79085,31.78347 -2.11426,45.67417 -3.00154,14.35171 -7.5133,27.30972 -14.09301,40.47579 -9.73836,19.48656 -25.00857,38.09333 -41.6045,50.69519 -2.51437,1.90923 -9.65837,6.85168 -9.9037,6.85168 -0.087,0 -0.59831,-0.40329 -1.13617,-0.8962 z"
       id="path10" /><path
       style="fill:#000000"
       d="m 43.617623,292.81647 c -0.242652,-0.57494 -0.349875,-1.91601 -0.332298,-4.15613 0.027,-3.44042 0.232671,-4.59851 1.973568,-11.1125 0.937676,-3.50854 0.915478,-4.19895 -0.285322,-8.87404 -1.252641,-4.87693 -1.659042,-7.47671 -1.465384,-9.37417 0.463928,-4.54555 3.013428,-6.50238 9.324414,-7.15679 8.551271,-0.88672 21.658241,2.81548 32.032503,9.04792 1.200547,0.72124 2.182812,1.3632 2.182812,1.42657 0,0.0634 -0.459097,0.52999 -1.020215,1.03692 -1.247431,1.12698 -2.631278,3.85289 -2.839335,5.59294 -0.241192,2.01716 -0.211638,1.98438 -1.408365,1.56215 -1.509315,-0.53251 -8.29849,-1.99275 -9.26504,-1.99275 -0.929312,0 -1.871212,0.79909 -1.871212,1.5875 0,0.86619 0.913613,1.52165 2.556015,1.83376 0.849765,0.16149 3.182136,0.66962 5.183048,1.12918 l 3.638021,0.83557 v 1.51246 c 0,2.97011 1.396487,6.11781 3.726989,8.40067 l 1.167803,1.14393 -7.805209,-0.21789 c -13.665851,-0.38149 -18.227688,-0.13252 -23.252538,1.26906 -4.634989,1.29284 -9.017152,3.73017 -10.829969,6.02355 l -1.052037,1.33093 z"
       id="path9" /><path
       style="fill:#000000"
       d="m 175.17753,293.12837 c -2.12217,-3.0492 -7.7448,-5.86334 -14.84003,-7.42747 -2.70091,-0.59542 -3.1229,-0.61143 -15.18383,-0.57635 l -12.40571,0.0361 1.21322,-1.03704 c 1.30277,-1.11357 2.81299,-3.4061 3.37319,-5.12055 0.1902,-0.58209 0.41332,-1.88462 0.49583,-2.89453 l 0.15001,-1.8362 1.85208,-0.47852 c 1.01865,-0.26319 3.23762,-0.76497 4.93106,-1.11507 3.58021,-0.74016 4.12831,-0.98253 4.3663,-1.93075 0.13962,-0.5563 0.0291,-0.82506 -0.5408,-1.31528 -0.39395,-0.33886 -0.88218,-0.61611 -1.08496,-0.61611 -0.73512,0 -5.87475,1.07707 -8.14827,1.70757 -2.58488,0.71684 -2.44195,0.78969 -2.66107,-1.35622 -0.17873,-1.75038 -1.21089,-3.78284 -2.61116,-5.14177 -0.89278,-0.86641 -1.02845,-1.11646 -0.71855,-1.3244 1.80057,-1.20812 5.9078,-3.48243 8.54851,-4.73359 8.21901,-3.89414 15.64878,-5.82034 22.45033,-5.82034 6.8829,0 10.80559,1.53537 12.03008,4.70868 0.71336,1.8487 0.58824,5.55544 -0.29654,8.78507 -2.20908,8.06358 -2.21853,8.20082 -0.93239,13.53942 1.59968,6.64009 1.94053,11.64749 0.95692,14.05805 l -0.32051,0.78547 z"
       id="path8" /><path
       style="fill:#000000"
       d="m 161.925,297.91851 c -5.70788,-0.55461 -11.6592,-2.40367 -22.42315,-6.96683 l -5.09295,-2.15905 5.7544,-0.21027 c 7.48699,-0.27358 15.68719,-0.0764 18.7644,0.4512 4.24535,0.72788 9.33251,2.65964 11.79141,4.47759 0.92808,0.68616 1.78922,2.02314 1.78922,2.77788 0,0.7509 -0.59492,1.01904 -3.31239,1.49293 -2.43356,0.42437 -4.00502,0.45389 -7.27094,0.13655 z"
       id="path7" /><path
       style="fill:#000000"
       d="m 51.858332,297.92651 c -0.945885,-0.12221 -2.374635,-0.44137 -3.175,-0.70925 -1.265075,-0.42341 -1.466512,-0.58591 -1.541727,-1.24366 -0.07026,-0.61439 0.156321,-0.99067 1.205395,-2.00184 2.549752,-2.45764 8.107246,-4.60138 13.697791,-5.28377 2.663278,-0.32509 11.51539,-0.3825 18.218004,-0.11815 l 4.411892,0.174 -3.509739,1.5644 c -13.938917,6.21302 -22.652125,8.47802 -29.306616,7.61827 z"
       id="path6" /><path
       style="fill:#000000"
       d="m 98.289485,299.95966 c -0.729376,-0.34829 -1.65817,-1.06857 -2.063986,-1.60062 -0.527091,-0.69106 -0.94183,-0.96776 -1.451985,-0.96873 -0.859167,-0.002 -2.464576,-0.93885 -3.170187,-1.85072 -2.103697,-2.71865 -2.282736,-6.64279 -0.454976,-9.97206 l 0.89908,-1.63767 -0.914024,-0.30166 c -1.342072,-0.44292 -3.598682,-2.63708 -4.457138,-4.33379 -0.497647,-0.98358 -0.793147,-2.04906 -0.884737,-3.19008 -0.118839,-1.48049 -0.04284,-1.90676 0.559431,-3.13776 0.435343,-0.88981 0.696953,-1.86687 0.696953,-2.60297 0,-2.56721 2.334317,-5.4943 5.252288,-6.58605 1.579038,-0.5908 4.032296,-0.78517 5.625848,-0.44574 l 0.956261,0.20369 0.130043,-1.81753 c 0.225612,-3.15323 2.252864,-6.05112 5.166154,-7.38487 1.91017,-0.87451 3.384,-1.03127 4.66471,-0.49616 0.92628,0.38703 1.1183,0.38624 2.32826,-0.01 1.11829,-0.36578 1.53629,-0.38265 2.75018,-0.11099 3.80061,0.85054 6.99292,4.74494 6.99292,8.5309 v 1.30164 l 0.99219,-0.19008 c 0.5457,-0.10454 1.70656,-0.18579 2.57969,-0.18054 4.33387,0.026 8.70185,3.80308 8.26362,7.14563 -0.10346,0.78916 0.0184,1.22986 0.56473,2.04295 0.61182,0.9105 0.69571,1.29709 0.68894,3.175 -0.006,1.78629 -0.12244,2.35802 -0.70467,3.47326 -0.88516,1.69552 -2.60828,3.42359 -4.23648,4.24866 -0.69787,0.35363 -1.26885,0.68713 -1.26885,0.7411 0,0.054 0.38281,0.91517 0.8507,1.91377 1.05645,2.25478 1.25374,4.38402 0.61107,6.59474 -0.77428,2.66344 -2.41981,4.51469 -4.46733,5.02583 -0.41613,0.10388 -1.25349,0.68576 -1.8608,1.29307 -2.72106,2.72107 -8.32633,2.20097 -11.76244,-1.0914 l -1.17353,-1.12444 -1.27296,1.14451 c -2.06771,1.85904 -3.91799,2.61061 -6.72159,2.73025 -2.091106,0.0892 -2.542826,0.0245 -3.707385,-0.53163 z m 5.481495,-3.24381 c 2.3928,-0.81531 4.39087,-3.1072 5.10751,-5.85857 0.2159,-0.82888 0.49212,-1.60664 0.61383,-1.72834 0.47328,-0.47329 1.03861,0.14678 1.33385,1.463 0.80626,3.59447 3.44927,6.12211 6.74475,6.45032 1.13334,0.11287 1.51322,0.0307 2.28533,-0.49447 0.50932,-0.34642 1.13534,-1.07217 1.39114,-1.61278 0.39557,-0.83596 0.59336,-0.98307 1.32292,-0.98391 1.11004,-10e-4 2.44293,-0.82319 2.96164,-1.82626 0.61252,-1.18448 0.53458,-3.76992 -0.15436,-5.12035 -0.85468,-1.67531 -1.81659,-2.77534 -3.21877,-3.68095 -1.86426,-1.20405 -1.62689,-1.63578 1.00739,-1.83222 1.1627,-0.0867 2.45043,-0.29555 2.86162,-0.46409 2.52854,-1.03641 4.41175,-3.42347 4.41175,-5.5921 0,-0.92213 -0.16063,-1.27576 -0.92811,-2.04324 -0.89195,-0.89195 -0.91637,-0.96731 -0.62676,-1.93395 0.3898,-1.30104 0.1624,-2.14096 -0.85515,-3.1585 -2.29796,-2.29797 -6.27492,-2.14469 -9.78512,0.37714 -1.93963,1.39348 -2.19176,1.15926 -1.4082,-1.30819 1.04672,-3.29615 0.77288,-6.30615 -0.73579,-8.08749 -0.66323,-0.7831 -2.20378,-1.78473 -3.00592,-1.95439 -0.61776,-0.13066 -1.04205,-0.0126 -1.79769,0.50019 -1.18743,0.80582 -1.34112,0.81665 -2.2638,0.15964 -1.10019,-0.7834 -1.94963,-0.89855 -3.09598,-0.41968 -3.16332,1.32141 -4.47238,4.85111 -3.33822,9.00105 0.27839,1.01865 0.59661,2.05944 0.70716,2.31287 0.38197,0.87571 -0.56171,0.79071 -1.9006,-0.17119 -2.032408,-1.46013 -3.437501,-1.99703 -5.243555,-2.00358 -3.575973,-0.013 -6.365756,2.7406 -5.125172,5.05866 0.240106,0.44864 0.142637,0.66962 -0.623575,1.41376 -1.029917,1.00024 -1.315038,1.97556 -0.993847,3.39968 0.646801,2.86784 3.151395,4.65459 6.889082,4.9146 2.001768,0.13925 2.257459,0.21584 2.326297,0.69675 0.0562,0.39258 -0.206467,0.69981 -0.960713,1.12372 -2.376746,1.33581 -4.086969,4.04918 -4.120906,6.53806 -0.03612,2.64937 1.227903,4.10105 3.570924,4.10105 1.000112,0 1.082211,0.0628 1.570259,1.20138 0.799914,1.86612 2.578726,2.41355 5.076786,1.56238 z"
       id="path5" /><path
       style="fill:#000000"
       d="m 104.14922,284.93705 c -0.87254,-0.68634 -0.93496,-2.20916 -0.16052,-3.91596 l 0.525,-1.15703 -1.44265,-1.38616 c -1.65626,-1.5914 -2.0006,-2.47056 -1.35409,-3.45726 0.53454,-0.81581 1.21008,-1.09121 3.24001,-1.32087 1.53381,-0.17353 1.56052,-0.19104 2.0324,-1.33194 0.60211,-1.45575 2.04458,-2.75741 3.05572,-2.75741 0.96304,0 2.56696,1.70906 2.80757,2.99161 0.16666,0.88834 0.20202,0.90987 1.76244,1.07296 1.93479,0.20223 2.87278,0.62172 3.29807,1.47496 0.45735,0.91754 -0.13891,2.25273 -1.61675,3.62037 l -1.17795,1.09012 0.51681,1.36012 c 0.28424,0.74806 0.5168,1.77556 0.5168,2.28332 0,1.91705 -1.82697,2.55047 -3.83645,1.33011 -2.61344,-1.58714 -2.45809,-1.5402 -3.25028,-0.98214 -1.22281,0.86142 -2.91626,1.63357 -3.58267,1.63357 -0.34997,0 -0.95003,-0.24677 -1.33346,-0.54837 z"
       id="path4" /><path
       style="fill:#000000"
       d="m 107.55312,310.16619 c -3.22723,-0.0881 -9.203214,-0.58532 -12.30312,-1.0237 -4.233311,-0.59867 -8.995834,-1.50301 -8.995834,-1.7082 0,-0.27826 6.330416,-6.33845 6.621084,-6.33845 0.139427,0 0.786222,0.40663 1.437321,0.90362 3.638948,2.77768 9.572929,3.02955 14.010149,0.59469 l 1.57062,-0.86186 1.9693,0.98932 c 1.08311,0.54412 2.55672,1.11529 3.27468,1.26927 3.3603,0.72065 7.13556,0.0523 9.78837,-1.73292 2.32344,-1.56356 2.06526,-1.58702 4.09157,0.37181 1.00895,0.97534 2.64098,2.50748 3.62673,3.40474 2.06815,1.88248 2.23967,1.69162 -2.20441,2.45303 -5.46113,0.93566 -9.31943,1.35702 -13.62604,1.48808 -2.32833,0.0709 -4.88818,0.15573 -5.68854,0.18859 -0.80036,0.0329 -2.40771,0.0337 -3.57188,0.002 z"
       id="path3" /><path
       style="fill:#000000"
       d="m 163.45491,320.02208 c -10.83651,-3.74607 -21.86243,-10.54086 -30.71318,-18.92719 l -2.59264,-2.4566 0.6323,-0.68945 c 1.0176,-1.10958 1.72659,-2.46271 2.15778,-4.11815 0.2215,-0.85041 0.44254,-1.58601 0.49119,-1.63466 0.0486,-0.0487 1.6431,0.61498 3.54323,1.47472 8.20006,3.71026 15.30369,6.23175 21.04527,7.47018 3.67174,0.79198 11.06279,0.85983 13.69572,0.12573 4.61423,-1.2865 7.04008,-3.56251 8.07815,-7.57916 0.86887,-3.36197 0.052,-11.99817 -1.56956,-16.59422 -0.50611,-1.43446 -0.74272,-3.57772 -0.44507,-4.03148 0.21821,-0.33266 0.82214,-0.34164 4.43673,-0.066 6.04191,0.4608 12.55724,1.60124 18.73621,3.27959 3.02558,0.82181 3.70542,1.18318 3.42555,1.82084 -0.16912,0.3853 -12.11817,10.88874 -12.56997,11.04923 -0.72882,0.25889 -0.0539,1.19884 2.06682,2.87838 5.01791,3.97402 13.25482,12.13693 14.15223,14.02507 0.60941,1.2822 0.37292,1.31879 -9.52663,1.47401 -7.21283,0.11308 -10.06019,0.26261 -13.23645,0.69509 -7.34826,1.00055 -10.29243,1.81899 -11.8613,3.29727 -0.48174,0.45393 -1.78304,2.55172 -2.89178,4.66178 -1.10874,2.11005 -2.25686,4.04481 -2.55139,4.29948 -0.74814,0.64688 -1.55185,0.56577 -4.50321,-0.45449 z"
       id="path2" /><path
       style="fill:#000000"
       d="m 53.802079,320.7371 c -0.167866,-0.10692 -1.103112,-1.62314 -2.078324,-3.36939 -2.712267,-4.85668 -3.515799,-5.93851 -5.043359,-6.79009 -3.768375,-2.10078 -15.731494,-3.50952 -28.291856,-3.33155 l -4.7625,0.0675 -0.07843,-0.67282 c -0.05905,-0.50656 0.360459,-1.1931 1.697557,-2.77813 2.604858,-3.08785 7.722109,-8.062 11.5566,-11.23342 1.847432,-1.52797 3.359365,-2.9091 3.359851,-3.06918 4.87e-4,-0.16007 -0.742002,-0.93398 -1.649975,-1.71979 -0.907972,-0.78581 -3.735706,-3.32034 -6.283854,-5.63229 -5.808672,-5.27026 -5.803436,-5.25363 -1.987162,-6.31317 6.368169,-1.76806 14.769861,-3.10932 19.476814,-3.10932 2.038068,0 2.590494,0.0813 2.712549,0.39941 0.202433,0.52753 -0.175194,2.44978 -1.13179,5.76119 -2.153468,7.45457 -2.367364,11.9921 -0.766941,16.26961 2.753675,7.35986 14.920596,8.72234 29.788367,3.33578 3.30761,-1.19834 10.425393,-4.22809 13.288711,-5.65646 2.539099,-1.26664 2.495659,-1.27365 2.854523,0.46086 0.355801,1.7197 1.045985,3.15614 2.249126,4.68097 l 0.822164,1.04199 -2.499886,2.36107 c -8.653201,8.17271 -18.947581,14.83047 -28.327936,18.32072 -3.070986,1.14266 -4.268894,1.38119 -4.904245,0.97654 z"
       id="path1" /></g></svg>
