<?xml version="1.0" encoding="UTF-8" standalone="no"?>
<!-- Created with Inkscape (http://www.inkscape.org/) -->

<svg
   width="336.13501mm"
   height="303.53409mm"
   viewBox="0 0 336.13501 303.53409"
   version="1.1"
   id="svg1"
   xml:space="preserve"
   sodipodi:docname="stamp_goal_cherry_blossom_4.svg"
   inkscape:version="1.4.4 (dcaf3e7, 2026-05-05)"
   xmlns:inkscape="http://www.inkscape.org/namespaces/inkscape"
   xmlns:sodipodi="http://sodipodi.sourceforge.net/DTD/sodipodi-0.dtd"
   xmlns="http://www.w3.org/2000/svg"
   xmlns:svg="http://www.w3.org/2000/svg"><sodipodi:namedview
     id="namedview1"
     pagecolor="#ffffff"
     bordercolor="#000000"
     borderopacity="0.25"
     inkscape:showpageshadow="2"
     inkscape:pageopacity="0.0"
     inkscape:pagecheckerboard="0"
     inkscape:deskcolor="#d1d1d1"
     inkscape:document-units="mm"
     inkscape:zoom="0.022663572"
     inkscape:cx="617.73139"
     inkscape:cy="551.54589"
     inkscape:window-width="944"
     inkscape:window-height="250"
     inkscape:window-x="0"
     inkscape:window-y="33"
     inkscape:window-maximized="0"
     inkscape:current-layer="layer1"><inkscape:page
       x="0"
       y="0"
       width="336.13501"
       height="303.53409"
       id="page2"
       margin="0"
       bleed="0" /></sodipodi:namedview><defs
     id="defs1" /><g
     inkscape:label="Layer 1"
     inkscape:groupmode="layer"
     id="layer1"
     transform="translate(57.368503,-16.663824)"><path
       style="fill:#000000"
       d="M 107.43713,318.93026 C 96.423363,313.61819 81.214994,304.84827 68.130207,296.26391 39.328324,277.36823 14.92761,256.77625 -4.5244516,234.95 -22.796495,214.44779 -36.785225,193.20572 -45.643616,172.51002 c -3.771598,-8.81153 -7.779239,-22.16378 -9.520278,-31.71871 -3.305557,-18.14109 -2.88946,-36.13404 1.218372,-52.685062 9.093877,-36.640499 35.590724,-62.634803 71.034388,-69.687139 6.217467,-1.237109 8.8842,-1.462571 17.439256,-1.47442 8.629588,-0.01195 11.268124,0.189202 17.353337,1.322971 23.336787,4.348003 43.204235,16.964678 57.517131,36.52583 0.84187,1.150558 1.61955,2.190339 1.72818,2.310625 0.10863,0.120286 0.94863,-0.821755 1.86666,-2.093424 12.83674,-17.781627 30.89435,-30.400068 50.51907,-35.302119 17.1026,-4.27205 33.59484,-4.049747 50.03611,0.674448 9.47423,2.722301 20.02454,7.980833 27.96627,13.939068 18.75904,14.073862 31.15413,35.29288 35.47553,60.730175 0.43874,2.582608 0.92323,5.860457 1.07663,7.284107 0.41053,3.80992 0.80831,13.37043 0.67226,16.15726 -0.065,1.33152 -0.1847,3.8497 -0.26598,5.59595 -0.53092,11.40721 -3.81285,27.17837 -8.19413,39.3765 -8.746,24.35016 -24.12964,48.92516 -45.90742,73.33601 -4.32087,4.84328 -15.12853,15.7886 -20.6426,20.90553 -24.53384,22.7668 -58.78892,46.70797 -85.66133,59.86942 -6.55531,3.21063 -6.73282,3.23322 -10.63071,1.35322 z m 9.37641,-6.21078 c 12.50879,-6.14049 29.02101,-16.25492 44.84688,-27.4706 41.73212,-29.57525 72.87371,-62.8436 92.15919,-98.45305 10.08961,-18.62982 16.08318,-36.94677 18.61374,-56.88541 0.59969,-4.72502 0.68713,-21.85869 0.13503,-26.45834 C 269.98363,81.918066 262.24731,63.858399 249.58461,49.798814 239.24141,38.314589 224.02792,29.215531 208.61987,25.298146 195.56683,21.979505 180.66442,21.792914 167.48125,24.783054 145.5,29.768733 126.58226,43.522367 113.42103,64.08608 c -1.04453,1.632034 -1.99033,2.971487 -2.10176,2.976563 -0.11143,0.0051 -0.95397,-1.151631 -1.87232,-2.570459 C 94.05309,40.708847 71.593618,26.274078 45.111456,23.143567 43.801768,22.988746 40.348955,22.791847 37.438539,22.706013 17.023835,22.103941 -2.317737,28.51378 -18.256255,41.163387 c -3.561335,2.826454 -9.847616,9.111942 -12.680917,12.679318 -9.711751,12.227951 -16.092373,26.68238 -19.072731,43.206676 -3.498494,19.397049 -1.683873,40.623129 5.32292,62.263539 3.691343,11.40067 10.397218,25.42171 18.079491,37.80166 13.71112,22.09542 33.1355908,44.34679 55.355334,63.41137 14.145771,12.1371 29.899476,23.85319 45.406823,33.76922 15.945271,10.19607 35.996345,21.27286 37.631795,20.7889 0.29104,-0.0861 2.55323,-1.15019 5.02708,-2.36459 z"
       id="path26" /><path
       style="fill:#000000"
       d="M 105.98234,305.47011 C 93.90438,299.2263 78.78069,289.98406 65.352081,280.64054 36.864392,260.81905 14.683288,240.72215 -3.4743369,218.28125 -17.764603,200.62 -29.128286,181.67628 -35.852065,164.30625 c -4.164002,-10.75717 -7.134606,-22.99627 -8.519377,-35.10045 -0.719974,-6.29324 -0.648614,-19.26213 0.138068,-25.09226 2.173211,-16.105752 6.708616,-28.685794 14.689846,-40.745835 11.416619,-17.251087 29.72716201,-29.151882 50.445608,-32.786732 5.32778,-0.934707 8.706326,-1.202323 14.816667,-1.173636 13.175256,0.06186 24.217209,2.649266 35.529129,8.325376 15.230937,7.642599 27.34108,19.937515 37.706424,38.281741 l 2.28719,4.04779 0.53707,-0.961728 c 11.96973,-21.434323 23.99001,-33.903449 40.43386,-41.943717 10.62388,-5.194576 21.94676,-7.726632 34.58342,-7.733648 14.21159,-0.0079 26.9281,3.22518 38.76146,9.854787 19.91406,11.156803 33.77664,30.888839 38.76506,55.17831 2.46548,12.004812 2.84562,25.663932 1.05298,37.835422 -1.75678,11.92804 -4.63726,22.67387 -9.04269,33.73437 -9.86848,24.77632 -28.10614,51.32887 -51.14827,74.46773 -20.93533,21.02321 -50.77717,43.78923 -77.52292,59.14142 -6.74787,3.87331 -15.35853,8.20752 -16.30566,8.20752 -0.46934,0 -2.62562,-0.95209 -5.37346,-2.3726 z m 18.09989,-20.13799 c 5.64915,-1.30172 10.04246,-6.47805 10.7414,-12.65585 0.2158,-1.90743 0.25015,-1.89414 -2.68966,-1.03995 -1.08026,0.31389 -2.02223,0.51258 -2.09326,0.44155 -0.071,-0.071 0.16825,-1.00355 0.53174,-2.07225 0.36348,-1.0687 0.66088,-2.10083 0.66088,-2.29363 0,-0.503 -2.97456,-0.45877 -4.78062,0.0711 -5.4836,1.60875 -9.32702,6.44431 -9.91686,12.47684 -0.21909,2.24077 -0.23565,2.23123 2.45297,1.41358 l 1.64611,-0.50061 -0.41418,0.96565 c -0.58057,1.35363 -1.15825,2.9735 -1.15825,3.24787 0,0.31827 3.57053,0.27966 5.01973,-0.0543 z m -34.851906,-5.18264 c 2.528351,-0.79463 4.984525,-3.08557 6.490989,-6.05432 0.576882,-1.13684 1.502765,-5.1124 1.249607,-5.36556 -0.131423,-0.13142 -2.245334,0.17983 -4.427262,0.65187 l -0.721967,0.15619 0.655821,-1.92819 c 0.360701,-1.06051 0.655821,-2.04133 0.655821,-2.17961 0,-0.14789 -0.903784,-0.20399 -2.194822,-0.13622 -1.751052,0.0919 -2.553949,0.28325 -3.971007,0.94637 -2.339136,1.09461 -4.48482,3.14039 -5.457096,5.203 -0.856413,1.81682 -1.420112,4.14014 -1.086569,4.47835 0.122376,0.12409 1.082043,0.03 2.133674,-0.20919 1.051195,-0.23909 1.950327,-0.39564 1.998072,-0.3479 0.04774,0.0477 -0.275358,1.13752 -0.718003,2.42172 -0.442646,1.2842 -0.705075,2.43308 -0.583176,2.55307 0.550238,0.54161 3.997384,0.43226 5.975918,-0.18958 z M 160.3952,266.24292 c 1.774,-0.81674 3.94304,-2.75595 4.89006,-4.37193 0.92288,-1.57477 1.66683,-4.0916 1.66683,-5.63899 v -1.29273 l -0.8599,0.16331 c -0.47294,0.0898 -1.66871,0.36471 -2.65727,0.61087 -1.14389,0.28485 -1.76037,0.34331 -1.6956,0.16081 0.43475,-1.22498 1.04278,-4.14806 0.89383,-4.29701 -0.32248,-0.32248 -4.04165,0.39814 -5.59089,1.08328 -2.06782,0.91449 -4.44328,3.34098 -5.45492,5.57211 -0.83166,1.83418 -1.26406,3.93167 -0.86178,4.1803 0.132,0.0816 1.09982,-0.0403 2.1507,-0.27094 1.05089,-0.2306 1.96832,-0.36166 2.03874,-0.29123 0.0704,0.0704 -0.22863,1.18321 -0.66456,2.47286 -0.61315,1.81392 -0.71767,2.39618 -0.46163,2.5716 0.18204,0.12473 1.40255,0.1857 2.71223,0.1355 1.88167,-0.0721 2.69866,-0.23741 3.89416,-0.78781 z m -99.541035,-4.46134 c 5.457031,-0.71311 10.695781,-1.41187 11.641667,-1.5528 0.945885,-0.14092 3.505729,-0.49522 5.688542,-0.78733 2.182812,-0.2921 6.945312,-0.94829 10.583333,-1.4582 3.638021,-0.5099 9.710209,-1.34979 13.493753,-1.86642 3.78354,-0.51663 11.16542,-1.53641 16.40417,-2.26617 9.60683,-1.33824 11.9967,-1.66971 31.22083,-4.33032 5.82083,-0.8056 15.10771,-2.0633 20.6375,-2.79488 14.09817,-1.86517 16.50515,-2.23767 16.23096,-2.51186 -0.1296,-0.1296 -19.72386,1.91079 -26.47498,2.75689 -3.91427,0.49056 -11.64218,1.43163 -37.1164,4.51987 -4.80219,0.58217 -10.57672,1.29669 -12.83229,1.58783 -4.19262,0.54115 -17.070145,2.09962 -27.252084,3.29811 -3.128699,0.36827 -7.593542,0.90738 -9.921876,1.19801 -5.595402,0.69844 -27.106704,3.17257 -27.583873,3.17257 -0.587186,0 -0.301565,0.39601 1.125539,1.56056 1.562396,1.27494 -0.09702,1.33659 14.155209,-0.52586 z M 44.731699,255.4528 c 14.555278,-1.36424 26.300154,-2.43889 31.865175,-2.91565 3.346979,-0.28674 7.21651,-0.63666 8.598958,-0.7776 1.382448,-0.14094 3.882761,-0.38628 5.556251,-0.5452 1.673489,-0.15893 3.454528,-0.37495 3.957864,-0.48006 l 0.915155,-0.19111 -1.246965,-0.73077 c -0.930485,-0.5453 -1.464933,-0.69394 -2.105781,-0.58564 -0.472348,0.0798 -12.646003,1.03547 -27.052566,2.12366 -14.406563,1.0882 -26.848595,2.05288 -27.64896,2.14375 l -1.455208,0.16521 1.282368,1.1625 c 0.705303,0.63937 1.36785,1.16249 1.472327,1.16249 0.104477,0 2.742098,-0.23921 5.861382,-0.53158 z m 52.634967,-1.32456 c 0.351465,-0.23072 0.351728,-0.28954 0.0023,-0.51404 -0.774542,-0.49764 -2.947995,-0.85962 -4.112713,-0.68496 -1.145967,0.17185 -1.65356,0.65865 -0.718237,0.68882 0.254662,0.008 0.87974,0.1726 1.389063,0.36531 1.124878,0.4256 2.898161,0.50029 3.439583,0.14487 z m 10.693984,-1.21488 c 0.85891,-0.32959 0.40238,-0.86339 -1.00843,-1.17912 -1.40583,-0.31461 -2.80639,-0.18858 -2.80639,0.25254 0,0.12411 0.62508,0.4099 1.38907,0.63508 1.62084,0.47773 1.86423,0.50698 2.42575,0.2915 z m 10.39967,-1.53027 c 0.53191,-0.53191 -1.94636,-1.16956 -3.26211,-0.83933 -0.80215,0.20133 -0.68523,0.39811 0.50368,0.84772 0.77899,0.29458 2.46057,0.28947 2.75843,-0.008 z m 9.44092,-1.0364 c 0.43065,-0.3149 0.38165,-0.37621 -0.54474,-0.68166 -1.15845,-0.38196 -3.04659,-0.30672 -3.1888,0.12708 -0.2222,0.67779 2.92559,1.14536 3.73354,0.55458 z m -22.13758,-0.57925 c 2.21725,-0.21802 9.36101,-0.93824 15.875,-1.60049 6.514,-0.66224 13.57004,-1.37228 15.68009,-1.57786 2.11005,-0.20558 10.3849,-1.02918 18.38854,-1.83022 8.00365,-0.80104 21.27912,-2.12399 29.50105,-2.93989 13.11567,-1.30152 15.01205,-1.54508 15.46342,-1.98605 0.28296,-0.27643 0.46155,-0.54776 0.39688,-0.60294 -0.0647,-0.0552 -2.49884,0.11368 -5.40926,0.37525 -16.13723,1.45033 -54.94365,5.03115 -56.93746,5.25385 -1.28106,0.14309 -5.06765,0.50352 -8.41463,0.80095 -3.34698,0.29744 -8.3476,0.78073 -11.1125,1.07399 -2.76489,0.29325 -7.73615,0.76176 -11.04723,1.04111 l -6.02016,0.50792 -1.05268,0.8741 c -0.57897,0.48075 -1.05483,0.9559 -1.05745,1.0559 -0.003,0.1 0.38218,0.12982 0.85513,0.0663 0.47294,-0.0635 2.67401,-0.29389 4.89126,-0.51191 z m 31.17986,-0.39765 c 0.73167,0 0.36242,-0.73016 -0.45159,-0.89296 -1.19848,-0.2397 -2.55841,-0.20279 -2.72952,0.0741 -0.17153,0.27754 1.92926,1.06258 2.4535,0.91684 0.1938,-0.0539 0.52123,-0.098 0.72761,-0.098 z M 39.95208,248.1787 c 11.032468,-0.68895 11.641668,-0.73768 11.641668,-0.93122 0,-0.68152 -16.658442,-1.17837 -21.695835,-0.64709 l -1.719791,0.18138 1.176018,1.04497 c 1.157175,1.02822 1.201688,1.04253 2.778125,0.8926 0.881159,-0.0838 4.400076,-0.32709 7.819815,-0.54064 z m 105.54311,0.0314 c 0.39982,-0.48175 -0.1382,-0.69236 -1.7687,-0.69236 -1.36295,0 -1.27132,0.33187 0.20684,0.74918 1.25682,0.35481 1.2191,0.35618 1.56186,-0.0568 z m -45.590711,-1.23653 c 1.004651,-0.6209 2.325151,-2.19875 2.613121,-3.12238 0.18993,-0.60919 0.16437,-0.62023 -1.08915,-0.4703 -0.70601,0.0844 -2.563581,0.23057 -4.12793,0.32472 -2.715028,0.1634 -2.844271,0.198 -2.844271,0.76155 0,1.11708 0.599912,2.30766 1.42363,2.82533 1.009236,0.63426 2.698979,0.50036 4.0246,-0.31892 z m 53.085801,0.1473 c -0.10062,-0.37406 -1.37725,-0.67325 -2.09935,-0.49201 -0.72116,0.181 -0.79291,0.53464 -0.14457,0.71255 0.77526,0.21274 2.31965,0.061 2.24392,-0.22054 z m 6.55347,-0.63143 c 0,-0.2945 -1.51318,-0.52909 -2.22021,-0.3442 -0.52006,0.136 -0.52033,0.14211 -0.0146,0.34002 0.72319,0.28301 2.23479,0.28583 2.23479,0.004 z M 117.9208,245.648 c 1.01205,-0.38345 1.8838,-1.23641 2.50813,-2.45404 l 0.52117,-1.01646 -3.2589,0.18917 c -1.7924,0.10405 -3.34821,0.24106 -3.45735,0.30447 -0.35116,0.20404 -0.21148,1.5352 0.22675,2.16086 0.72098,1.02934 2.06229,1.34566 3.4602,0.816 z m 47.57608,0.0176 c -0.0899,-0.14552 -0.27556,-0.26459 -0.41249,-0.26459 -0.13694,0 -0.24897,0.11907 -0.24897,0.26459 0,0.14552 0.18562,0.26458 0.41249,0.26458 0.22687,0 0.3389,-0.11906 0.24897,-0.26458 z m -92.736465,-1.06192 c 6.005474,-0.33786 7.954174,-0.62848 11.608938,-1.7313 3.871523,-1.16823 5.117747,-1.29897 20.008767,-2.09916 21.59968,-1.16069 20.19065,-1.04743 20.98831,-1.68697 1.80724,-1.44897 1.48469,-1.38795 9.36361,-1.77116 4.11593,-0.20018 12.36507,-0.6132 18.33142,-0.91782 5.96635,-0.30462 17.37648,-0.88291 25.35583,-1.28509 11.68004,-0.58871 14.55443,-0.80471 14.74661,-1.10818 0.48529,-0.76633 1.09123,-2.94423 0.87099,-3.13056 -0.29266,-0.2476 -56.62418,0.11517 -77.88281,0.50156 -16.972461,0.30848 -20.956586,0.5506 -28.442706,1.72845 -12.652129,1.99065 -16.692909,2.30633 -29.368751,2.29441 -14.174048,-0.0133 -27.366616,-0.74675 -34.925002,-1.9416 -4.411848,-0.69744 -5.159375,-0.99563 -5.159375,-2.05811 0,-0.75531 0.03945,-0.78571 0.695837,-0.53615 4.786072,1.81966 35.404414,3.45083 50.002169,2.66382 6.36883,-0.34336 10.004261,-0.75569 16.541294,-1.8761 11.213398,-1.92191 15.301224,-2.06345 62.538834,-2.16549 17.89906,-0.0387 35.66914,-0.11351 39.48906,-0.16631 l 6.94531,-0.096 v -1.81329 -1.81328 l -1.38906,-0.14382 c -0.76398,-0.0791 -3.29406,-0.20815 -5.6224,-0.28676 -16.33745,-0.55164 -62.84061,-2.29644 -76.59687,-2.87393 -6.10208,-0.25616 -7.27605,-0.36848 -7.27605,-0.69613 0,-0.53223 2.21776,-1.00799 5.68855,-1.22033 2.84837,-0.17427 9.81597,0.0488 29.76562,0.95297 6.2574,0.2836 17.33021,0.75879 24.60625,1.05597 7.27605,0.29719 16.74151,0.71521 21.03438,0.92895 4.29286,0.21373 8.25169,0.38957 8.7974,0.39076 l 0.99218,0.002 v -6.56167 c 0,-4.75074 0.0876,-6.64929 0.3175,-6.87916 0.71267,-0.71267 4.22528,-0.1641 4.70647,0.73501 0.15874,0.2966 0.2677,3.02846 0.2677,6.71155 v 6.21135 l 2.18281,0.15016 c 1.20055,0.0826 4.6236,0.2215 7.60677,0.3087 l 5.42396,0.15855 0.81921,-0.88027 c 2.05923,-2.21271 2.33399,-2.78564 2.34527,-4.89038 0.01,-1.80821 0.0521,-1.95629 0.53969,-1.88648 0.4343,0.0622 0.52917,0.27741 0.52917,1.20059 0,0.61865 0.0802,1.12466 0.17831,1.12448 0.0981,-1.9e-4 0.45526,-0.35277 0.79375,-0.78351 0.33849,-0.43075 1.00043,-1.23251 1.47099,-1.78171 0.99472,-1.16097 0.93605,-1.21496 -1.6493,-1.5177 -4.40152,-0.5154 -14.87462,-1.97744 -15.54428,-2.16997 -0.25466,-0.0732 -0.46302,-0.30369 -0.46302,-0.51216 0,-0.51462 0.57204,-0.49254 7.18988,0.27748 3.10333,0.36108 7.16808,0.81658 9.03278,1.0122 l 3.39036,0.35568 0.63505,-0.81144 c 0.78579,-1.00405 0.71633,-1.04017 -2.80736,-1.45992 -1.37046,-0.16325 -5.8255,-0.75984 -9.90008,-1.32574 -4.07458,-0.56591 -8.06318,-1.10663 -8.86354,-1.2016 -2.63387,-0.31254 -12.85294,-1.71388 -29.10417,-3.99107 -8.80401,-1.23365 -19.81729,-2.77637 -24.47396,-3.42828 -13.29777,-1.86162 -22.70651,-3.29893 -23.28333,-3.55685 -1.82638,-0.81664 11.37548,0.57436 31.22083,3.28954 2.61938,0.35838 8.81063,1.18619 13.75833,1.83958 4.94771,0.65338 13.46068,1.78304 18.91771,2.51035 5.45703,0.7273 15.16063,1.9871 21.56355,2.79955 6.40291,0.81245 12.35604,1.5805 13.22916,1.70678 1.49413,0.21609 1.62975,0.18984 2.3057,-0.44626 0.39501,-0.37172 0.66557,-0.76101 0.60125,-0.86508 -0.0643,-0.10407 -0.7447,-0.26931 -1.51195,-0.36721 -1.279,-0.16319 -7.99648,-1.20032 -13.83041,-2.13532 -1.30969,-0.2099 -5.17922,-0.8117 -8.59896,-1.33732 -3.41974,-0.52562 -9.49193,-1.47934 -13.49375,-2.11938 -4.00183,-0.64003 -10.72886,-1.70773 -14.94896,-2.37266 -4.22011,-0.66493 -9.51839,-1.50865 -11.77396,-1.87494 -32.2517,-5.23741 -45.86719,-7.35628 -52.65209,-8.1938 -4.58926,-0.56649 -17.305634,-0.80018 -21.595384,-0.39685 -9.311311,0.87546 -18.044262,3.38277 -24.574406,7.05555 -2.84421,1.59968 -8.195665,5.29035 -13.096876,9.03234 -3.767373,2.87632 -5.485117,3.77504 -11.509375,6.02169 -12.273108,4.57704 -20.052215,9.85126 -22.822915,15.4739 -0.996435,2.02209 -1.135709,4.5545 -0.34079,6.19659 2.623379,5.41917 12.649937,8.68019 30.968913,10.07227 8.856171,0.67299 17.775309,0.8154 25.135418,0.40134 z m 116.548965,-0.52553 0.79375,-0.20198 -0.79375,-0.0127 c -0.43656,-0.007 -1.03188,0.0896 -1.32292,0.21469 l -0.52917,0.22739 0.52917,-0.0127 c 0.29104,-0.007 0.88636,-0.1036 1.32292,-0.21468 z m 7.86586,-10.65988 c 0.58774,-0.75138 1.08383,-2.21585 0.86859,-2.56412 -0.0917,-0.14836 -0.67373,-0.26975 -1.29341,-0.26975 h -1.1267 l -0.47923,1.52135 c -0.26357,0.83675 -0.54323,1.68857 -0.62146,1.89293 -0.24213,0.63252 2.10526,0.11882 2.65221,-0.58041 z m 7.21539,0.3821 2.38125,-0.1739 1.23448,-1.31778 c 0.67896,-0.72479 1.18163,-1.4033 1.11704,-1.50781 -0.0646,-0.10451 -2.20371,-0.19002 -4.75359,-0.19002 -4.13338,0 -4.65099,0.0488 -4.773,0.44979 -0.0753,0.24738 -0.3669,0.95899 -0.64808,1.58135 -0.28117,0.62235 -0.51123,1.1879 -0.51123,1.25677 0,0.16675 3.00182,0.11713 5.95313,-0.0984 z m 6.84348,-5.03188 c 0.46535,-0.40836 0.38993,-0.44249 -1.32291,-0.59862 -0.99902,-0.0911 -3.09633,-0.18037 -4.66068,-0.19844 -1.69788,-0.0196 -2.84427,-0.13951 -2.84427,-0.29745 0,-0.16705 1.84232,-0.26458 4.99778,-0.26458 4.52888,0 5.05637,-0.0475 5.62239,-0.50639 0.34355,-0.27852 0.56509,-0.56334 0.49233,-0.63293 -0.17894,-0.17115 -13.30916,-0.69297 -13.55989,-0.53889 -0.10914,0.0671 -0.19844,0.88465 -0.19844,1.81686 v 1.69492 l 2.71198,0.0961 c 4.56084,0.16157 8.19727,-0.0752 8.76171,-0.57055 z M 198.4375,227.4094 v -1.85209 h -1.4552 -1.45521 v 1.85209 1.85208 h 1.45521 1.4552 z m 0,-9.62899 c 0,-6.88555 0.10791,-6.5106 -1.87372,-6.5106 h -1.03669 v 6.20014 6.20013 l 0.7276,0.11022 c 0.40018,0.0606 1.05503,0.12807 1.45521,0.14987 l 0.7276,0.0396 z M 8.349378,214.11406 c 1.0405771,-3.18088 1.4614439,-3.62676 4.298857,-4.55426 1.843063,-0.60246 1.722716,-1.07973 -0.477406,-1.89329 -2.120898,-0.78427 -2.9501191,-1.65766 -3.5844822,-3.7754 -0.5057555,-1.6884 -1.0271361,-2.41836 -1.4210695,-1.98958 -0.1213437,0.13207 -0.4796038,1.03303 -0.7961335,2.00211 -0.7004489,2.14449 -1.3693639,2.90834 -3.0770567,3.51376 -2.2829391,0.80935 -2.49834161,0.92244 -2.49834161,1.31161 0,0.23348 0.66028981,0.6007 1.70547911,0.94852 2.202931,0.73309 2.9112088,1.3142 3.4759762,2.85188 0.9457569,2.57499 1.1509912,2.97372 1.5306555,2.97372 0.2353134,0 0.56872,-0.54904 0.8435217,-1.38907 z m 17.980578,-9.7513 c 1.558188,-0.82317 2.186001,-1.49914 3.034739,-3.26751 l 0.763715,-1.59123 0.281627,0.74074 c 0.154894,0.4074 0.281626,0.82859 0.281626,0.93597 0,0.5863 1.740245,2.41518 2.897425,3.045 1.794136,0.97649 2.99218,0.88968 3.201544,-0.23198 0.154381,-0.82708 0.183436,-0.83873 1.385824,-0.55546 0.658306,0.15509 0.779622,0.074 1.124479,-0.75133 0.877959,-2.10125 0.04442,-5.12228 -1.842411,-6.67757 l -0.97432,-0.80312 1.554655,-0.14097 c 2.585579,-0.23445 4.519312,-1.5793 5.327552,-3.70513 0.245665,-0.64615 0.19729,-0.77397 -0.444867,-1.17552 -0.396278,-0.24779 -0.75905,-0.4755 -0.80616,-0.50602 -0.04711,-0.0305 0.109198,-0.4323 0.347352,-0.89284 0.515417,-0.99671 0.307961,-1.3592 -1.225644,-2.14159 -1.623615,-0.8283 -3.549219,-0.6887 -5.657393,0.41016 -1.360403,0.70909 -1.724193,0.81523 -1.586989,0.46302 1.006727,-2.58433 0.59405,-5.32287 -1.058534,-7.02448 -1.079702,-1.11174 -1.437714,-1.18705 -2.110221,-0.44394 -0.62834,0.69431 -0.927089,0.66761 -1.577561,-0.141 l -0.539106,-0.67017 -0.999866,0.82805 c -1.416188,1.17283 -2.042842,2.5389 -2.042842,4.45327 0,0.86945 0.122394,1.90274 0.271986,2.29619 0.149592,0.39346 0.229424,0.75794 0.177403,0.80996 -0.05202,0.052 -0.739961,-0.24849 -1.528757,-0.66781 -0.788795,-0.41932 -1.887042,-0.84217 -2.440548,-0.93968 -1.313008,-0.2313 -3.593829,0.43038 -4.384444,1.27195 -0.575639,0.61274 -0.584208,0.68067 -0.1836,1.45536 0.416235,0.80491 0.412541,0.81658 -0.389582,1.23138 -0.653101,0.33773 -0.775112,0.5313 -0.630528,1.00032 0.800372,2.59637 3.088888,4.15089 6.116378,4.15469 l 1.007317,0.001 -0.969172,0.8902 c -1.832668,1.68334 -2.722697,4.41634 -2.076183,6.37529 0.308978,0.93622 0.37407,0.97946 1.336322,0.88769 0.959618,-0.0915 1.019851,-0.0521 1.173829,0.7687 0.14877,0.79301 0.244387,0.86517 1.146424,0.86517 0.541264,0 1.458603,-0.25066 2.038531,-0.55703 z m 187.576424,-7.78604 c 3.63012,-0.94553 6.67142,-3.43438 8.35946,-6.84099 1.00124,-2.02059 1.89511,-5.48276 1.51395,-5.86392 -0.0893,-0.0893 -1.33325,0.0756 -2.76431,0.36644 -1.43106,0.29084 -2.64595,0.48487 -2.69975,0.43115 -0.0538,-0.0537 0.33303,-1.12686 0.8596,-2.38478 0.52658,-1.25793 0.89099,-2.39462 0.80981,-2.52598 -0.19856,-0.32127 -3.9294,-0.2923 -5.37848,0.0418 -3.53766,0.81557 -6.97835,3.6959 -8.66997,7.25797 -0.75997,1.60028 -0.99426,2.45683 -1.09304,3.99604 -0.1429,2.22657 -0.23701,2.15762 2.11346,1.54855 0.8715,-0.22583 1.68101,-0.37466 1.79892,-0.33073 0.11791,0.0439 -0.19099,0.89627 -0.68645,1.89409 -1.06072,2.13626 -1.10022,2.47619 -0.30551,2.62926 1.4141,0.27237 4.7068,0.15504 6.14231,-0.21886 z M 3.4375932,196.16717 c 5.4450848,-0.25442 6.5227582,-0.44286 5.9288964,-1.03672 -0.1453868,-0.14538 -4.4256838,-0.49636 -9.51177121,-0.77993 -14.38100039,-0.80183 -16.52347339,-0.8924 -16.52347339,-0.69851 0,0.0994 0.425691,0.84616 0.94598,1.65951 l 0.945981,1.4788 6.2639154,-0.17873 c 3.4451536,-0.0983 8.82286592,-0.29829 11.9504718,-0.44442 z M 181.05506,191.17368 c 0.11679,-0.10934 -0.0916,-0.88601 -0.46302,-1.72593 -0.37145,-0.83992 -0.67537,-1.64154 -0.67537,-1.78137 0,-0.15685 0.77139,-0.18195 2.01386,-0.0655 l 2.01386,0.18871 -0.19313,-1.42291 c -0.55173,-4.06513 -2.66801,-6.91243 -6.41812,-8.63508 -1.16825,-0.53665 -2.03512,-0.71852 -3.76647,-0.79022 -1.23693,-0.0512 -2.42044,0.023 -2.63004,0.1649 -0.42142,0.28536 -0.30857,0.80032 0.75411,3.44115 l 0.57322,1.4245 -1.00229,-0.15504 c -0.55126,-0.0853 -1.64542,-0.23801 -2.43147,-0.33942 l -1.42918,-0.18439 0.17821,1.16389 c 0.26739,1.74624 1.57555,4.20234 3.06643,5.7573 1.41078,1.47142 3.8084,2.78036 5.86009,3.19923 1.23047,0.2512 4.19155,0.0951 4.54931,-0.2398 z M 6.7336416,189.54049 c 0.1577804,-0.14508 0.1436724,-0.3388 -0.037896,-0.52036 -0.3586755,-0.35868 -27.2765026,-2.76611 -27.5762876,-2.46633 -0.168685,0.16869 1.022201,2.36717 1.649657,3.04541 0.469085,0.50706 0.782298,0.51533 13.0968754,0.34594 6.93896358,-0.0954 12.7294068,-0.27755 12.8676512,-0.40466 z M 138.90311,186.5974 c -0.002,-0.0364 -0.17891,-0.72099 -0.39373,-1.52136 -0.5827,-2.17092 -0.59911,-2.15026 1.22001,-1.53593 1.9114,0.64549 2.07869,0.52431 2.08009,-1.50678 0.004,-5.31 -3.93271,-9.77946 -9.32522,-10.58812 -1.44713,-0.21701 -1.42851,-0.26459 -0.95667,2.44494 0.16184,0.92936 0.22898,1.75502 0.14919,1.8348 -0.11768,0.11769 -2.29892,-0.50786 -4.11791,-1.18096 -0.30002,-0.11102 -0.3448,0.25061 -0.24485,1.97721 0.32363,5.59056 4.83947,10.07317 10.20317,10.12811 0.76398,0.008 1.38765,-0.0155 1.38592,-0.0519 z m -40.796362,-2.9119 c 0.151641,-0.18272 0.361935,-0.68873 0.467321,-1.12448 0.629717,-2.60375 1.647981,-3.63688 4.284191,-4.34673 1.74479,-0.46983 1.53251,-1.13768 -0.60104,-1.89088 -0.94821,-0.33475 -1.94977,-0.81895 -2.22569,-1.07601 -0.492154,-0.45851 -1.606531,-3.07701 -1.606531,-3.77493 0,-0.195 -0.162796,-0.48966 -0.36177,-0.65479 -0.459394,-0.38127 -0.769066,-0.0214 -1.227053,1.42607 -0.855372,2.70335 -1.859295,3.72433 -4.147582,4.21805 -0.916553,0.19776 -1.545584,0.76818 -1.294719,1.17409 0.087,0.14077 0.781859,0.46192 1.544132,0.71366 0.762273,0.25175 1.6607,0.63622 1.996505,0.8544 0.587913,0.38196 1.638404,2.10994 1.638404,2.69505 0,0.521 0.763471,2.11871 1.012436,2.11871 0.135128,0 0.369756,-0.1495 0.521396,-0.33221 z m -27.074636,-2.18133 c 0.102273,-1.09141 0.28068,-1.98438 0.396459,-1.98438 0.11578,0 1.001308,0.29766 1.967841,0.66146 0.966534,0.3638 1.809534,0.66146 1.873335,0.66146 0.0638,0 0.299208,-0.61692 0.523126,-1.37094 0.46361,-1.56114 0.534041,-4.40773 0.14281,-5.77188 -0.404782,-1.41139 -2.040613,-3.604 -3.473628,-4.65593 -0.709027,-0.52048 -1.28914,-1.02775 -1.28914,-1.12728 0,-0.0995 1.281549,-0.17869 2.847886,-0.17591 2.689478,0.005 2.946248,-0.0433 4.61628,-0.86456 1.862249,-0.91577 3.55901,-2.5655 4.469234,-4.34536 0.27611,-0.5399 0.502017,-1.04009 0.502017,-1.11153 0,-0.0714 -0.773906,-0.56267 -1.719792,-1.09164 -0.945885,-0.52897 -1.719791,-1.05701 -1.719791,-1.17343 0,-0.11641 0.487273,-0.94136 1.082829,-1.83321 l 1.082829,-1.62155 -0.619808,-0.54119 c -0.340895,-0.29765 -1.380441,-0.91015 -2.310104,-1.3611 -3.262171,-1.5824 -6.884189,-1.27431 -9.906177,0.8426 -2.281564,1.59824 -2.438499,1.48418 -1.307322,-0.95011 0.640389,-1.37811 0.722856,-1.86915 0.727605,-4.3324 0.0049,-2.53989 -0.05846,-2.89929 -0.738801,-4.19106 -0.829157,-1.57432 -2.825987,-3.88346 -3.077592,-3.55893 -0.08928,0.11515 -0.762003,0.77858 -1.494942,1.47429 l -1.332616,1.26492 -1.239134,-1.59565 c -0.681523,-0.87761 -1.348725,-1.59565 -1.48267,-1.59565 -0.680071,0 -3.247872,2.81734 -4.046666,4.43992 -0.75681,1.5373 -0.86298,2.01427 -0.864066,3.88189 -8.08e-4,1.39031 0.168798,2.61953 0.488729,3.54205 0.67791,1.95476 0.293284,2.27024 -1.204588,0.98801 -0.628035,-0.53761 -1.913285,-1.35727 -2.856111,-1.82145 -1.52478,-0.75069 -1.963386,-0.84345 -3.96875,-0.83929 -1.729315,0.004 -2.645684,0.15269 -3.93364,0.64005 -0.923514,0.34946 -1.745533,0.80846 -1.826708,1.02 -0.08118,0.21153 0.233752,1.15794 0.699839,2.10311 0.466087,0.94518 0.779284,1.78665 0.695993,1.86994 -0.08329,0.0833 -0.952303,0.46075 -1.931138,0.83881 -1.595779,0.61634 -1.770191,0.75469 -1.68768,1.33873 0.166531,1.17876 1.360455,3.36285 2.454596,4.49029 1.674979,1.72595 3.580651,2.48637 6.515362,2.59982 1.818417,0.0703 2.447396,0.18547 2.447396,0.44812 0,0.19443 -0.240985,0.42999 -0.535522,0.52347 -0.294538,0.0935 -1.242448,0.82446 -2.106468,1.62439 -2.550066,2.36091 -3.528946,5.1876 -3.069607,8.86402 0.268693,2.15055 0.281985,2.15865 2.55253,1.55486 1.082643,-0.2879 2.057739,-0.52626 2.16688,-0.52968 0.10914,-0.003 0.200063,0.67838 0.20205,1.51513 0.002,0.83674 0.07931,1.80416 0.171823,2.14983 0.157861,0.58981 0.260394,0.62011 1.666588,0.4926 3.683619,-0.33402 7.434619,-3.6288 8.242838,-7.24031 0.175552,-0.78445 0.465248,-1.42139 0.646477,-1.42139 0.18061,0 0.475622,0.62507 0.655583,1.38906 0.17996,0.76398 0.596672,1.9272 0.926025,2.58493 0.605885,1.20996 2.667007,3.34289 3.833752,3.96731 1.172688,0.62761 3.2925,1.29993 4.128988,1.30957 l 0.82881,0.01 z m -72.4414501,0.12267 c 3.7018486,-1.80468 6.3451797,-4.991 7.3542059,-8.86492 0.2230899,-0.8565 0.4051279,-2.65983 0.4051279,-4.01334 0,-2.26029 0.041478,-2.45795 0.5157726,-2.45795 0.3765956,0 0.813177,0.57164 1.6179169,2.11846 2.7659208,5.31644 8.4173868,8.40629 14.2358068,7.78319 l 1.697627,-0.1818 -0.179307,-3.17275 -0.179307,-3.17276 0.736891,0.16034 c 1.747913,0.38034 4.878757,0.7396 5.239382,0.60121 0.313397,-0.12026 0.39167,-0.72429 0.389162,-3.00311 -0.0051,-4.6007 -1.023008,-7.33161 -3.819996,-10.24816 -1.749787,-1.82459 -3.319037,-2.83409 -5.80448,-3.73405 -2.221094,-0.80424 -2.107881,-1.22923 0.430485,-1.61602 3.032994,-0.46215 4.673599,-1.01043 6.440326,-2.15232 3.38581,-2.18836 5.710978,-6.07 6.319382,-10.54959 l 0.186133,-1.37047 -1.014459,-0.28875 c -0.557953,-0.15881 -1.877662,-0.42665 -2.932688,-0.59519 -1.055027,-0.16854 -1.915732,-0.43392 -1.912678,-0.58974 0.0031,-0.15581 0.300709,-1.2892 0.661458,-2.51866 0.994365,-3.38885 1.03122,-3.29249 -1.526906,-3.99258 -6.507618,-1.78096 -12.581698,0.20395 -16.474086,5.38346 -1.4134833,1.88089 -2.1565301,2.18411 -2.0516525,0.83723 0.4235614,-5.43956 0.3974993,-6.97021 -0.1493348,-8.77054 -0.7172028,-2.36123 -2.1735038,-4.5824 -4.3063075,-6.56803 -1.7388344,-1.61885 -4.79167814,-3.46623 -5.25491719,-3.17993 -0.14104039,0.0872 -0.80548741,1.16573 -1.47654891,2.39681 -0.6710615,1.23108 -1.2680279,2.23833 -1.326592,2.23833 -0.058564,0 -1.1791291,-0.73835 -2.4901442,-1.64077 -2.7407101,-1.88653 -2.3651493,-1.99126 -4.2620799,1.1885 -1.565161,2.62362 -2.127517,4.43038 -2.281908,7.33143 -0.202622,3.80732 0.479951,6.02812 3.0245278,9.84054 1.7594523,2.6361 1.2993896,2.9351 -1.9555208,1.27092 -2.511457,-1.28407 -4.651532,-1.85234 -6.956234,-1.84713 -3.722815,0.008 -6.996262,1.32504 -9.873281,3.97116 -1.60763,1.47861 -1.633947,1.52481 -1.263152,2.21765 0.208277,0.38917 1.010865,1.40616 1.78353,2.25998 0.772665,0.85382 1.404845,1.66495 1.404845,1.80249 0,0.13755 -1.012031,0.99959 -2.248958,1.91564 -1.236928,0.91606 -2.245243,1.79682 -2.240701,1.95726 0.03079,1.08788 3.263736,4.73745 5.415701,6.11362 2.483805,1.58839 4.185288,2.07549 7.276042,2.08297 2.433884,0.006 3.063833,-0.0939 5.083876,-0.80549 1.268163,-0.44671 2.369491,-0.74846 2.447396,-0.67056 0.368107,0.36811 0.03506,1.00437 -1.169785,2.23479 -4.452959,4.54747 -5.179509,11.93462 -1.749466,17.78754 l 0.700305,1.19498 1.633528,-0.8246 c 0.898441,-0.45353 2.0820516,-1.10774 2.6302463,-1.4538 0.5481947,-0.34606 1.1021929,-0.6292 1.2311071,-0.6292 0.1289142,0 0.5055901,0.74414 0.8370576,1.65364 1.3485417,3.70023 1.5166823,3.9756 2.3151175,3.79149 0.3987461,-0.0919 1.6981365,-0.64159 2.8875344,-1.22142 z M 249.99565,171.91302 c 0.8309,-1.65077 4.53352,-10.79577 4.53352,-11.19722 0,-0.14906 -6.66639,-0.24601 -16.91611,-0.24601 -10.40601,0 -17.17855,-0.0998 -17.59804,-0.25927 -1.45398,-0.5528 -1.54965,-2.58689 -0.15557,-3.30779 0.67189,-0.34745 3.1665,-0.40169 18.47502,-0.40169 h 17.69824 l 0.82326,-2.71198 c 0.45279,-1.49159 0.90131,-3.0394 0.99671,-3.43958 l 0.17344,-0.72761 h -5.45264 -5.45264 v -0.93454 c 0,-2.11267 -1.52969,-3.94387 -3.97219,-4.75514 -1.64407,-0.54607 -3.42246,-0.38801 -5.1662,0.45916 -0.64281,0.31231 -1.23761,0.49897 -1.32177,0.41481 -0.0842,-0.0841 0.047,-0.76456 0.29149,-1.51201 0.76119,-2.32718 0.12512,-4.46779 -1.94169,-6.53461 -4.27531,-4.2753 -12.79133,-4.38735 -17.23926,-0.22683 -2.30721,2.15812 -3.07905,4.8971 -2.06078,7.3129 0.22501,0.53383 0.35062,1.0291 0.27913,1.10059 -0.0715,0.0715 -0.79992,-0.17673 -1.61873,-0.55159 -3.77162,-1.7267 -8.23364,-0.56228 -10.22125,2.66736 -0.61967,1.0069 -0.78896,1.59373 -0.80146,2.77812 -0.009,0.82587 0.0769,1.75515 0.19034,2.06508 0.20365,0.55662 0.15518,0.56507 -3.96875,0.69176 -5.00708,0.15383 -6.38089,0.53073 -8.33347,2.28627 -1.62365,1.4598 -2.32375,2.981 -2.32375,5.04915 0,2.94446 2.07506,5.5894 5.08678,6.48378 1.16272,0.34529 4.07923,0.40366 20.17008,0.40366 20.45055,0 19.9869,-0.0334 19.9869,1.43782 0,0.93934 -0.49812,1.17174 -2.92488,1.36456 -2.40438,0.19105 -3.16054,0.56969 -3.16054,1.58261 0,2.14439 0.32692,2.20709 11.57171,2.21924 l 9.58734,0.0104 z m -269.508676,0.2932 0.992187,-0.164 0.0039,-1.48673 c 0.0047,-1.80385 0.598698,-4.44044 1.317878,-5.85015 0.291662,-0.57171 0.530295,-1.08578 0.530295,-1.14239 0,-0.0566 -1.123997,-0.17676 -2.497771,-0.267 -2.959071,-0.19438 -5.169261,-0.8749 -7.627622,-2.34856 -2.355611,-1.41206 -5.145948,-4.41767 -6.446208,-6.94353 l -1.015361,-1.97242 0.549961,-0.74176 c 0.302479,-0.40797 1.155063,-1.21801 1.894631,-1.8001 0.739568,-0.58208 1.353527,-1.16144 1.364353,-1.28747 0.01083,-0.12602 -0.38163,-0.78086 -0.872124,-1.4552 -2.095754,-2.88129 -2.106131,-3.21227 -0.169312,-5.40046 2.261942,-2.55552 6.23022,-4.85526 9.481735,-5.49496 1.690574,-0.3326 6.304412,-0.22783 7.298476,0.16574 0.436879,0.17296 0.480912,0.11322 0.324166,-0.43979 -0.798454,-2.81703 -0.961524,-3.82481 -0.958097,-5.92105 0.0044,-2.7122 0.440578,-4.85474 1.45282,-7.13695 1.272776,-2.86961 4.2243673,-6.76423 5.1263602,-6.76423 0.2489858,0 1.3270085,0.53904 2.3956058,1.19788 1.0685973,0.65883 1.9660521,1.16485 1.9943441,1.12448 0.028292,-0.0404 0.5727393,-0.87707 1.209883,-1.85932 0.6371438,-0.98225 1.3877664,-1.8587 1.6680502,-1.94765 0.3280619,-0.10413 1.49656412,0.32885 3.2800509,1.2154 5.5763218,2.7719 9.3200048,7.65727 9.9925158,13.03987 0.104234,0.83426 0.253856,1.51684 0.332493,1.51684 0.07864,0 0.541835,-0.30423 1.029327,-0.67605 4.420826,-3.37193 11.720676,-3.84646 17.750579,-1.15389 1.899544,0.84822 1.921392,0.91939 1.252177,4.0788 -0.215755,1.01859 -0.392281,1.93146 -0.392281,2.02859 0,0.0971 0.614246,0.30835 1.36499,0.46935 0.750745,0.16101 1.899447,0.52916 2.55267,0.81811 l 1.187679,0.52536 -0.156431,2.21664 c -0.21109,2.99117 -0.811871,5.17072 -2.122565,7.70038 -1.412886,2.72689 -3.905357,5.2748 -6.325552,6.46626 l -1.748377,0.86072 1.790257,1.68884 c 1.841817,1.73748 3.087334,3.70461 3.968012,6.26696 0.537321,1.56335 0.428477,1.53977 3.259629,0.70604 0.982266,-0.28926 1.785938,-0.64336 1.785938,-0.78689 0,-0.14353 -0.196874,-0.96908 -0.437498,-1.83455 -0.519177,-1.86738 -0.4093,-2.08094 1.519049,-2.95244 0.714835,-0.32307 1.299699,-0.67026 1.299699,-0.77155 0,-0.10128 -0.178594,-0.69034 -0.396875,-1.30902 -0.826457,-2.34242 -0.498372,-2.83922 2.910417,-4.407 1.297849,-0.59691 2.058024,-0.74983 4.166321,-0.83813 2.430786,-0.10181 3.353621,0.0452 5.532075,0.88113 0.3371,0.12936 0.436561,-0.17047 0.565082,-1.70348 0.299907,-3.57728 3.04403,-7.58333 6.359797,-9.28444 l 1.277441,-0.65537 1.247672,1.34817 1.247673,1.34816 1.179053,-1.01672 c 0.648479,-0.55919 1.38327,-1.01704 1.632868,-1.01743 1.147983,-0.002 4.348596,3.8151 5.10257,6.0851 0.241597,0.72738 0.537401,1.32251 0.657342,1.32251 0.319441,0 5.366942,-3.36195 8.801279,-5.8622 12.679771,-9.23107 25.522269,-21.33243 36.116759,-34.0325 7.34595,-8.805903 13.60152,-17.319455 22.5547,-30.695943 3.56526,-5.326675 6.80084,-9.915594 7.19018,-10.197596 1.22083,-0.884249 3.00795,-0.867162 6.14729,0.05877 3.4781,1.025857 4.52012,1.030387 7.257,0.03155 2.90539,-1.060334 4.71135,-1.060334 7.84824,0 1.29152,0.436563 2.76006,0.79375 3.26341,0.79375 0.50336,0 2.0586,-0.368193 3.4561,-0.818207 4.0105,-1.291438 6.04369,-1.09991 7.73286,0.72844 0.38172,0.413174 2.10325,2.894351 3.82562,5.513726 11.02299,16.763683 19.90353,28.08193 30.00847,38.24575 10.0872,10.146 22.00404,19.25077 34.75779,26.55586 2.92271,1.67407 9.33722,4.91206 9.73643,4.91486 0.3553,0.002 1.7973,-8.03752 2.51483,-14.02167 0.6421,-5.35514 0.63355,-17.36805 -0.0163,-22.88646 -1.75311,-14.887116 -6.10875,-27.37376 -13.52091,-38.761466 -5.51868,-8.47864 -13.55779,-16.268511 -22.35744,-21.664258 -22.51227,-13.804031 -50.12969,-14.956262 -73.83185,-3.080349 -15.66605,7.849436 -27.79251,21.027185 -39.38776,42.802421 -0.9105,1.709869 -1.8139,3.108854 -2.00756,3.108854 -0.19366,0 -1.15509,-1.518047 -2.13652,-3.373438 C 100.28624,67.103679 91.769802,56.365221 80.858731,48.169937 62.810137,34.613674 39.500477,29.842109 17.536988,35.207765 3.7365693,38.579192 -7.9032936,45.036264 -17.461107,54.62253 c -15.397999,15.443839 -23.822433,37.433724 -23.811169,62.15312 0.0065,14.18923 2.298829,27.47318 7.244905,41.98328 1.527452,4.48102 4.05655,10.88469 5.090651,12.88951 l 0.375303,0.7276 4.028102,-0.003 c 2.215456,-0.002 4.474586,-0.0767 5.020289,-0.16691 z m 181.519646,-7.22624 c 2.5043,-1.24269 4.61588,-3.35798 5.84716,-5.85743 0.54424,-1.10478 1.05559,-2.50122 1.13633,-3.1032 l 0.1468,-1.0945 -2.15075,0.16585 c -1.18291,0.0912 -2.15074,0.0928 -2.15074,0.003 0,-0.0893 0.4342,-0.95234 0.9649,-1.91782 1.0851,-1.97411 1.0404,-2.0929 -0.89786,-2.38603 -3.67182,-0.55529 -7.00186,0.55211 -9.72797,3.23501 -1.66032,1.634 -3.39077,4.87274 -3.71251,6.9484 l -0.18065,1.16538 1.88225,-0.1578 c 1.03524,-0.0868 1.88226,-0.10751 1.88226,-0.046 0,0.0615 -0.41672,0.76319 -0.92605,1.55939 -0.50932,0.7962 -0.92604,1.56902 -0.92604,1.71737 0,0.50777 1.71993,0.7947 4.36563,0.72828 2.40387,-0.0603 2.81057,-0.14816 4.44724,-0.96032 z m -48.02209,-11.20354 c 3.60111,-1.48953 6.33635,-4.10033 7.96235,-7.60009 0.83181,-1.79035 1.79841,-6.00983 1.53436,-6.69792 -0.17558,-0.45756 -0.37922,-0.42727 -3.69297,0.54932 -1.27431,0.37555 -2.36755,0.63221 -2.42941,0.57034 -0.0619,-0.0619 0.23585,-1.28412 0.66158,-2.71612 0.42574,-1.43199 0.70201,-2.72023 0.61393,-2.86275 -0.44274,-0.71637 -6.18896,0.70639 -8.37417,2.07344 -4.26385,2.66744 -7.0727,7.44786 -7.0727,12.03712 v 1.51339 l 2.40835,-0.65994 c 1.32459,-0.36296 2.45381,-0.61447 2.50938,-0.5589 0.0556,0.0556 -0.31381,1.08468 -0.82085,2.28691 -0.50703,1.20222 -0.92188,2.37002 -0.92188,2.59509 0,0.35236 0.41359,0.39193 2.97656,0.28482 2.41675,-0.101 3.29044,-0.25423 4.64547,-0.81471 z m 37.38137,-36.77278 c 2.51423,-3.5047 7.9848,-12.02421 10.27803,-16.0063 0.77749,-1.350091 1.5006,-2.508466 1.6069,-2.574163 0.1063,-0.0657 0.64234,0.622208 1.1912,1.528676 2.66344,4.398827 4.1244,6.661537 6.12158,9.480977 2.32233,3.27846 6.32478,8.17444 6.68258,8.17444 0.25853,0 0.68068,-18.89525 0.43117,-19.298966 -0.0952,-0.154111 -0.0768,-0.272756 0.0409,-0.263656 0.11773,0.0091 0.92843,0.852601 1.80155,1.874448 2.90996,3.405614 8.9576,9.380524 12.22775,12.080674 3.03858,2.50895 4.30871,3.42531 4.30871,3.10859 0,-0.075 -0.48775,-1.35907 -1.0839,-2.85358 -1.55927,-3.90902 -5.00151,-13.171551 -5.00151,-13.458271 0,-0.133798 1.1947,0.70851 2.65489,1.871791 4.7605,3.79254 10.54708,7.37893 15.33677,9.50539 1.38245,0.61376 2.72191,1.22872 2.97657,1.36658 0.92876,0.50277 0.3951,-0.21436 -2.47483,-3.32571 -9.36579,-10.153622 -16.85205,-20.104837 -27.71735,-36.843691 -1.38704,-2.136846 -2.1185,-3.023731 -2.59178,-3.142518 -0.42721,-0.107223 -1.74702,0.19429 -3.74839,0.856324 -1.69895,0.561999 -3.56567,1.01291 -4.14825,1.002024 -0.58258,-0.01089 -2.24945,-0.467223 -3.70416,-1.014082 -3.12403,-1.174391 -4.05607,-1.159307 -7.04848,0.114076 -2.92891,1.246365 -3.59595,1.261531 -6.99869,0.159128 -1.61456,-0.523079 -3.37663,-0.951052 -3.91571,-0.951052 -0.97058,0 -1.00385,0.0367 -3.41443,3.767195 -9.71643,15.036687 -16.97093,25.133383 -25.32267,35.243706 -1.52691,1.84844 -2.81657,3.47327 -2.86592,3.61074 -0.13411,0.37369 5.77764,-2.65935 8.95326,-4.59348 3.05625,-1.86143 6.67546,-4.34688 9.12812,-6.26864 0.87313,-0.684129 1.7289,-1.325765 1.90173,-1.425858 0.34449,-0.199521 -0.35129,1.795518 -3.07767,8.824668 -1.96686,5.07096 -2.76926,7.38779 -2.61283,7.54422 0.0559,0.0559 1.34794,-0.92643 2.87123,-2.18291 3.01068,-2.48336 9.22412,-8.59054 12.57265,-12.35765 l 2.10323,-2.366141 0.31659,5.805721 c 0.17413,3.19315 0.50783,7.35353 0.74155,9.24531 0.58391,4.72605 0.65619,4.90983 1.47963,3.76199 z"
       id="path25" /><path
       style="fill:#000000"
       d="m 197.9794,66.84067 c -0.61576,-0.109968 -1.20039,-0.280761 -1.29917,-0.379539 -0.154,-0.154007 0.15384,-1.525384 0.60822,-2.709476 0.10121,-0.263762 -0.22589,-0.37543 -1.27564,-0.435482 l -1.41176,-0.08076 -0.0897,-1.058333 c -0.31252,-3.688461 2.41541,-8.618513 6.11665,-11.05432 2.69979,-1.776743 6.68515,-2.761264 9.76647,-2.412652 2.51204,0.284205 2.57979,0.418904 1.59119,3.163608 -0.46168,1.281793 -0.79612,2.373831 -0.7432,2.42675 0.0529,0.05292 0.88376,-0.04889 1.84632,-0.226251 0.96255,-0.177358 1.83108,-0.241484 1.93006,-0.142503 0.34083,0.340828 -0.41201,3.357461 -1.27577,5.111997 -1.64724,3.346019 -4.92153,6.173481 -8.38951,7.244632 -1.89406,0.585014 -5.626,0.864538 -7.37419,0.552329 z m 7.6812,-3.673934 c 0.96724,-0.452627 2.33663,-1.363614 3.04308,-2.024417 1.23079,-1.151261 2.90501,-3.741626 2.60938,-4.037256 -0.0778,-0.07783 -0.98663,0.0095 -2.01956,0.194126 -2.87228,0.513306 -2.90449,0.374065 -0.88625,-3.830946 0.48299,-1.006318 0.87817,-1.869521 0.87817,-1.918229 0,-0.04871 -0.52517,-0.08856 -1.16705,-0.08856 -1.43478,0 -3.98439,0.770816 -5.51331,1.666823 -2.28197,1.337324 -4.48792,4.32571 -5.07004,6.868361 l -0.16712,0.729975 1.85772,-0.172657 c 1.33503,-0.124078 1.85772,-0.08604 1.85772,0.135178 0,0.169309 -0.29548,1.035016 -0.65663,1.923793 l -0.65662,1.615957 2.06595,-0.119595 c 1.58859,-0.09196 2.47229,-0.309748 3.82456,-0.942553 z"
       id="path24" /><path
       style="fill:#000000"
       d="M 10.629422,69.254684 C 10.499012,69.000023 10.126079,67.901698 9.8006829,66.813962 8.4810107,62.402559 7.3615197,61.183877 3.4489737,59.899465 2.0613586,59.443939 0.75169563,58.906847 0.53861155,58.705928 c -0.58266643,-0.549401 0.004345,-0.969825 2.50409235,-1.793461 4.2421176,-1.397724 5.2849747,-2.485539 6.7465002,-7.037344 1.1722049,-3.65074 1.9097469,-3.843698 2.7683259,-0.724261 0.704611,2.560033 2.144868,5.368196 3.103261,6.050632 0.462133,0.329068 2.098368,1.023028 3.636078,1.542134 2.270816,0.766591 2.810869,1.048403 2.875891,1.500712 0.06976,0.485254 -0.249622,0.670522 -2.48305,1.440378 -3.661218,1.26201 -4.640988,1.95512 -5.640142,3.989957 -0.453005,0.922573 -1.055884,2.492429 -1.339731,3.488568 -0.283847,0.99614 -0.654884,1.978406 -0.824527,2.182813 -0.420704,0.506917 -0.969974,0.466955 -1.255888,-0.09137 z"
       id="path23" /><path
       style="fill:#000000"
       d="m 228.32234,98.477909 c -1.33311,-0.377699 -2.82004,-1.220969 -3.52345,-1.998234 -0.45199,-0.499437 -0.48006,-0.498683 -1.83468,0.04931 -1.12324,0.454394 -1.90971,0.552976 -4.28608,0.537252 -3.65438,-0.02418 -5.60421,-0.431319 -7.20149,-1.503721 -3.78775,-2.543077 -3.27486,-7.941238 0.91958,-9.678632 0.80923,-0.335195 0.8581,-0.432438 0.86054,-1.71234 0.005,-2.519759 1.61463,-4.928442 3.96616,-5.934307 0.50932,-0.217862 1.62834,-0.46771 2.48671,-0.555218 l 1.56067,-0.159105 0.36283,-1.24738 c 0.52444,-1.803006 2.7747,-4.149894 4.88865,-5.098578 2.17518,-0.976162 5.47772,-1.207663 7.78136,-0.545456 3.75447,1.07926 6.34935,3.825208 6.95228,7.356992 l 0.19062,1.116611 1.44517,0.207981 c 3.04865,0.438742 5.44006,2.387553 6.21937,5.068295 0.35869,1.233839 0.54484,1.499906 1.13778,1.626197 2.75514,0.586818 4.15567,1.714267 4.69044,3.775885 0.98699,3.804943 -2.03215,7.139128 -6.49679,7.174715 -0.80133,0.0064 -1.86526,-0.105487 -2.3643,-0.24861 -0.66997,-0.192145 -1.25314,-0.157535 -2.22909,0.132292 -1.80044,0.534671 -3.32563,0.492909 -5.21248,-0.142727 l -1.58884,-0.535242 -0.86478,0.659595 c -2.15562,1.644172 -5.44939,2.337451 -7.86018,1.654425 z m 5.06522,-3.379383 c 0.93017,-0.468282 2.43214,-1.958344 2.68846,-2.66716 0.10382,-0.287116 0.22546,-0.292916 0.62591,-0.02984 2.54983,1.675091 2.85578,1.790258 4.73037,1.780663 1.25701,-0.0064 2.13604,-0.161356 2.73589,-0.482181 0.81911,-0.4381 0.95992,-0.442248 1.92358,-0.05667 2.02808,0.811476 4.73388,0.334012 5.66843,-1.000244 0.21325,-0.304451 0.38772,-0.992721 0.38772,-1.529489 0,-0.765002 -0.17597,-1.12401 -0.81414,-1.660997 -1.07569,-0.905132 -1.85735,-1.072468 -3.3059,-0.707718 -0.65932,0.16602 -1.30874,0.233891 -1.44314,0.150824 -0.1344,-0.08307 -0.17288,-0.672598 -0.0855,-1.310069 0.25125,-1.833055 -0.0858,-2.964897 -1.22079,-4.099917 -1.42684,-1.426846 -3.26973,-1.840762 -5.41674,-1.21661 -0.84094,0.244469 -1.5948,0.378679 -1.67523,0.298245 -0.0804,-0.08044 -0.008,-0.60731 0.16073,-1.170835 0.45955,-1.533854 0.37075,-2.669438 -0.32361,-4.138196 -1.15336,-2.439685 -3.39714,-3.894933 -6.25439,-4.056414 -2.13973,-0.120929 -3.54138,0.242765 -5.1952,1.348031 -1.65509,1.106117 -2.7365,3.118751 -2.7365,5.092979 0,0.750017 -0.0692,1.432885 -0.15381,1.517484 -0.0846,0.0846 -0.65015,-0.07154 -1.25677,-0.346967 -1.43291,-0.650592 -2.65337,-0.641604 -4.04021,0.02975 -2.08885,1.011195 -2.76328,2.886858 -1.92876,5.364098 0.28975,0.860112 0.45276,1.6379 0.36224,1.728419 -0.0905,0.09052 -0.80209,0.165918 -1.58128,0.167555 -1.58967,0.0033 -2.66452,0.606455 -3.2653,1.832217 -0.48094,0.981273 -0.19222,1.935683 0.89606,2.962069 1.07916,1.017781 2.69763,1.426399 5.64971,1.426399 2.33947,0 3.37174,-0.281117 5.00066,-1.361829 1.40412,-0.931563 1.53394,-0.933326 2.00532,-0.02723 1.33192,2.560181 5.04487,3.581965 7.8622,2.163632 z"
       id="path22" /><path
       style="fill:#000000"
       d="m -7.4870051,106.11317 c -1.3675269,-0.4878 -2.9920029,-1.59444 -3.5172119,-2.39601 -0.238552,-0.36407 -0.527135,-0.66195 -0.641297,-0.66195 -0.114161,0 -0.814005,0.4081 -1.555209,0.90689 -1.696892,1.14193 -3.856429,1.62512 -5.84846,1.30858 -1.342348,-0.2133 -1.464732,-0.29224 -1.588689,-1.02485 -0.118322,-0.6993 -0.253754,-0.80361 -1.138215,-0.87664 -0.805356,-0.0665 -1.059494,-0.22348 -1.284934,-0.79375 -0.484662,-1.22598 -0.357767,-4.010294 0.254008,-5.573396 l 0.556924,-1.422953 -0.582771,-0.486473 c -0.320524,-0.267561 -0.666348,-0.490435 -0.768497,-0.495276 -0.357715,-0.01695 -1.720508,-2.269918 -2.154412,-3.561664 -0.240892,-0.717147 -0.437987,-1.815418 -0.437987,-2.440602 0,-1.004221 0.09586,-1.186267 0.822492,-1.562025 0.709245,-0.366764 0.801326,-0.531153 0.668772,-1.193926 -0.323131,-1.61565 2.260091,-2.78723 5.618983,-2.548403 1.109833,0.07891 2.285769,0.226309 2.613191,0.327548 0.511061,0.158019 0.595313,0.08749 0.595313,-0.498322 0,-2.307495 2.479231,-5.7464 4.921701,-6.826821 l 1.2269751,-0.54275 0.7608142,0.562495 c 0.7187703,0.53141 0.7975128,0.538448 1.4249032,0.127366 0.5571839,-0.365081 0.738413,-0.378979 1.1257854,-0.08633 2.0656785,1.560544 3.1993377,3.449019 3.4337201,5.719966 l 0.1481661,1.43559 1.0857385,-0.215148 c 2.15019604,-0.426081 3.9533705,-0.235315 5.6128864,0.59381 l 1.558269,0.778541 v 1.248571 c 0,1.010762 0.1187676,1.332351 0.623565,1.688438 0.5388978,0.380142 0.6005991,0.583488 0.454423,1.497622 -0.420948,2.632465 -2.5339843,5.36731 -5.1280311,6.637071 -0.93643206,0.458375 -1.10806446,0.653267 -0.9626101,1.093067 0.0973589,0.294377 0.23574948,1.388501 0.30753464,2.431386 0.14416463,2.094398 -0.1535988,3.370688 -1.14712952,4.916868 -0.52677548,0.81979 -0.79042282,0.99218 -1.51737002,0.99218 -0.6817155,0 -0.9476778,0.14894 -1.1811986,0.66146 -0.2718596,0.59667 -0.4509569,0.66032 -1.8284072,0.64985 -0.8398646,-0.006 -1.9791454,-0.17289 -2.5317352,-0.37001 z m 2.8239806,-2.82776 c 0.160649,-0.80325 0.2004619,-0.8242 1.3248968,-0.69746 1.1461056,0.12918 1.1626286,0.11946 1.4549469,-0.85622 0.536415,-1.79039 0.3706455,-3.507354 -0.4980738,-5.158816 -0.9155991,-1.740581 -0.9862636,-2.248958 -0.3126056,-2.248958 2.20342902,0 5.4193397,-2.195147 6.2472552,-4.264312 C 3.7940168,89.458271 3.9561413,88.945677 3.9136716,88.920545 3.8712019,88.895414 3.4960276,88.728309 3.079951,88.549201 2.4649843,88.284477 2.357602,88.113573 2.5059992,87.635732 3.0289649,85.951774 3.0179127,85.911928 1.9452645,85.614084 0.53095509,85.221371 -0.24558268,85.256159 -1.885164,85.785685 c -1.1762354,0.379881 -1.8888591,0.920061 -4.197571,3.181821 l -2.7808116,2.724259 1.0583334,-0.172625 c 0.5820834,-0.09494 1.2618952,-0.35025 1.5106929,-0.567347 0.5811639,-0.507114 1.7051812,-0.243099 1.9259137,0.452367 0.3422901,1.078461 -0.7701697,2.103508 -1.7270876,1.591382 -0.6291407,-0.336706 -2.6355607,-0.037 -2.6355607,0.393687 0,0.176308 0.47625,0.761202 1.0583334,1.299766 1.443534,1.335607 1.3741221,2.809961 -0.1322917,2.809961 -0.7432216,0 -1.189346,-0.488324 -1.1965083,-1.309687 -0.00607,-0.696002 -0.8999378,-2.10602 -1.1662605,-1.839697 -0.0825,0.0825 -0.225145,1.038944 -0.316986,2.125428 -0.22468,2.657954 0.310151,4.51618 1.6760904,5.82346 1.2172114,1.16493 2.355925,1.79031 3.2856957,1.80449 0.5697854,0.009 0.7242797,-0.13815 0.8601574,-0.81754 z m -10.4244405,-1.02597 c 1.110975,-0.57295 2.429963,-1.9236 3.017186,-3.089616 0.521001,-1.034519 1.140024,-4.487401 0.855401,-4.771392 -0.284106,-0.283475 -1.485127,1.158478 -1.485127,1.783053 0,0.277806 -0.246109,0.636817 -0.546909,0.7978 -0.685672,0.36696 -1.834341,-0.293702 -1.834341,-1.05503 0,-0.63147 0.683145,-1.335716 1.295695,-1.335716 0.56444,0 1.731605,-1.184326 1.51406,-1.536321 -0.252667,-0.408824 -1.532224,-0.548322 -2.20747,-0.240659 -0.87137,0.397023 -1.808955,-0.506396 -1.559022,-1.50221 0.23491,-0.935955 1.411495,-1.236064 1.999432,-0.509992 0.426872,0.527165 2.132305,1.049327 2.132305,0.652861 0,-0.382857 -2.834725,-3.861669 -3.609362,-4.429457 -1.485997,-1.089196 -2.495892,-1.457757 -4.011083,-1.463843 -0.829224,-0.0033 -1.824699,0.115069 -2.212165,0.263111 -0.635355,0.242753 -0.690934,0.370199 -0.566388,1.298758 0.127783,0.952694 0.07755,1.05467 -0.67254,1.365368 -0.723229,0.299572 -0.793597,0.425574 -0.652596,1.16856 0.35932,1.893393 1.811593,3.582676 3.700037,4.30388 0.629711,0.240489 1.14493,0.558667 1.14493,0.707062 0,0.148395 -0.303751,0.668047 -0.675003,1.154783 -0.997285,1.307508 -1.441664,2.556272 -1.441664,4.051268 v 1.331412 h 0.921001 c 0.786179,0 0.94646,0.10651 1.094914,0.72761 0.09565,0.40018 0.231061,0.82831 0.300907,0.95139 0.187169,0.32983 2.422444,-0.0681 3.497802,-0.62268 z m 7.2970485,-13.028713 c 1.8527206,-2.450454 2.4930819,-3.981031 2.4961604,-5.966265 0.00267,-1.71953 -0.3986482,-2.862966 -1.3828893,-3.940163 l -0.5298255,-0.579864 -0.7599758,0.561874 -0.7599758,0.561874 -0.6145315,-0.577322 c -0.3379922,-0.317527 -0.714682,-0.577322 -0.837088,-0.577322 -0.568511,0 -1.947425,1.394372 -2.650449,2.680163 -0.650601,1.189911 -0.77733,1.724469 -0.779621,3.288523 -0.0025,1.724948 0.08622,2.023123 1.16158,3.902604 0.640373,1.119228 1.321675,2.03496 1.514004,2.03496 0.417759,0 0.493318,-1.99667 0.08511,-2.248958 -0.968116,-0.598329 0.552639,-2.273633 1.569758,-1.729287 0.5680054,0.303987 0.7594335,1.525978 0.3144174,2.007099 -0.3520691,0.380633 -0.626792,2.23573 -0.3310912,2.23573 0.1397799,0 0.8167695,-0.744141 1.5044213,-1.653646 z"
       id="path21" /><path
       style="fill:#000000"
       d="m 94.279029,112.01976 c -0.482638,-0.58839 -0.680148,-3.65138 -0.364795,-5.65726 0.758506,-4.82467 4.153483,-8.548308 8.927536,-9.79179 0.83338,-0.217069 1.92334,-0.394671 2.42212,-0.394671 h 0.90688 l -0.16838,1.432698 c -0.0926,0.787983 -0.23859,1.615642 -0.32439,1.839243 -0.13038,0.339763 0.0108,0.376805 0.85956,0.225498 0.55856,-0.09958 1.49181,-0.183095 2.0739,-0.185598 1.03445,-0.0044 1.0602,0.01802 1.14093,0.99564 0.0454,0.5501 -0.11391,1.67611 -0.35407,2.50224 -1.23552,4.25004 -3.91792,7.13613 -7.95197,8.55578 -2.021272,0.71133 -6.719003,1.02477 -7.167321,0.47822 z m 5.022089,-2.50361 c 2.865022,-0.7424 4.626052,-1.94599 6.071662,-4.14975 1.04548,-1.59377 1.63819,-3.10494 1.21782,-3.10494 -0.15045,0 -1.03323,0.20243 -1.96174,0.44984 -0.92851,0.24741 -1.77143,0.36662 -1.87315,0.2649 -0.10172,-0.10172 -0.0693,-0.959 0.0721,-1.90506 0.30715,-2.055262 0.15492,-2.128825 -1.93038,-0.93282 -2.68982,1.54271 -4.334739,4.35171 -4.535693,7.74553 l -0.121415,2.05052 h 0.723409 c 0.397874,0 1.449689,-0.1882 2.337367,-0.41822 z"
       id="path20" /><path
       style="fill:#000000"
       d="m 249.50583,125.68692 c -0.14526,-0.38205 -0.34148,-1.01681 -0.43605,-1.41057 -0.29373,-1.22301 -1.09579,-2.60053 -1.77221,-3.04374 -0.35613,-0.23334 -1.34526,-0.65982 -2.19806,-0.94772 -2.10993,-0.71231 -2.0684,-1.21623 0.16925,-2.0538 2.2314,-0.83524 3.05202,-1.6845 3.81304,-3.94612 0.8348,-2.4809 1.28981,-2.52669 1.98467,-0.19972 0.29599,0.99124 0.7278,2.07173 0.95958,2.4011 0.4622,0.65681 1.78752,1.39532 3.42916,1.91085 0.58209,0.18279 1.1664,0.43198 1.29848,0.55376 0.37051,0.3416 -0.30386,0.98084 -1.25061,1.18546 -1.35387,0.29262 -3.21194,1.33888 -3.56952,2.00996 -0.18178,0.34116 -0.59487,1.38526 -0.91797,2.32022 -0.65322,1.89023 -1.11359,2.26234 -1.50976,1.22032 z"
       id="path19" /><path
       style="fill:#000000"
       d="m -28.952584,126.02737 c -0.06127,-0.19266 -0.255613,-0.82654 -0.43188,-1.40862 -0.809411,-2.67291 -1.403075,-3.26095 -4.349917,-4.3087 -0.727604,-0.2587 -1.322917,-0.63387 -1.322917,-0.83371 0,-0.20182 0.615457,-0.57255 1.384463,-0.83394 0.761454,-0.25882 1.749068,-0.68597 2.194698,-0.94921 0.846976,-0.50032 1.972079,-2.4748 2.269363,-3.98257 0.09261,-0.46968 0.332607,-0.99026 0.533336,-1.15685 0.397026,-0.32951 0.765207,0.34072 1.445281,2.63093 0.57802,1.94655 1.394987,2.55549 5.203589,3.87859 0.620801,0.21566 0.33201,0.68716 -0.661458,1.07994 -3.698218,1.46212 -3.956454,1.70885 -4.822173,4.60718 -0.421608,1.41151 -1.184744,2.08711 -1.442385,1.27696 z"
       id="path18" /><path
       style="fill:#000000"
       d="m 40.155582,130.47299 c -0.419286,-0.41928 -1.020833,-1.93619 -1.652191,-4.16629 l -0.420994,-1.48704 -1.512554,0.6107 c -2.134088,0.86165 -3.867918,1.29008 -4.397874,1.08671 -0.618113,-0.23719 -2.684838,-4.67816 -3.228639,-6.93768 -0.572573,-2.37908 -0.561966,-6.57242 0.02233,-8.82729 0.241595,-0.93234 0.936066,-2.65861 1.54327,-3.83614 0.607203,-1.17753 1.144767,-2.23026 1.194586,-2.3394 0.04982,-0.10914 -0.48964,-0.19844 -1.198797,-0.19844 -4.51895,0 -9.958922,-3.22092 -12.868294,-7.619104 -1.310057,-1.980453 -2.81976,-5.341163 -2.81976,-6.27699 0,-0.662473 1.110848,-1.655975 3.209826,-2.870751 l 1.22545,-0.709225 -1.159305,-2.252988 c -0.637617,-1.239143 -1.159305,-2.531923 -1.159305,-2.872843 0,-1.496012 5.482102,-5.133709 9.149283,-6.071088 3.369812,-0.861367 7.060977,-0.771636 9.932376,0.241452 0.564671,0.199228 1.026676,0.337704 1.026676,0.307725 0,-0.02998 -0.176527,-0.887902 -0.392281,-1.906493 -1.243932,-5.872688 0.630927,-12.317661 4.918937,-16.909219 1.041197,-1.114904 2.094016,-2.134633 2.339599,-2.266064 0.47361,-0.253469 2.248808,0.653278 3.883587,1.983684 l 0.827967,0.673811 1.360519,-1.835239 c 0.748286,-1.009382 1.543009,-1.905267 1.766051,-1.990857 0.996536,-0.382406 5.584149,2.632465 7.951313,5.225416 2.907045,3.184326 4.536475,6.767481 4.795406,10.545205 0.07765,1.132901 0.228808,2.05982 0.335905,2.05982 0.107096,0 0.886582,-0.416617 1.732191,-0.925816 4.463862,-2.687998 9.976639,-3.218006 15.215458,-1.46284 2.732674,0.91553 4.884905,1.952095 5.071447,2.442528 0.07175,0.188652 -0.141123,1.472511 -0.473063,2.85302 -0.33194,1.380509 -0.55302,2.591739 -0.491288,2.691623 0.06173,0.09988 0.497826,0.264581 0.9691,0.365994 0.471274,0.101414 1.617446,0.527281 2.547048,0.946373 l 1.690186,0.761984 -0.175539,1.713366 c -0.26527,2.589187 -1.381426,6.126456 -2.623027,8.312772 -2.003267,3.527523 -5.752561,6.770812 -9.229341,7.983748 l -0.974619,0.340013 1.831329,1.960969 c 2.185247,2.339944 3.956374,5.658694 4.625886,8.668024 0.585594,2.63213 0.432262,7.51243 -0.303201,9.65033 l -0.50061,1.45521 -1.852084,-0.005 c -1.018645,-0.003 -2.268802,-0.0625 -2.778125,-0.13229 l -0.926041,-0.12685 -0.151741,2.58591 c -0.08346,1.42225 -0.27726,2.71143 -0.430672,2.86484 -0.803493,0.80349 -5.843164,1.02214 -8.853472,0.38412 -3.503921,-0.74265 -7.804853,-3.28673 -9.91981,-5.86776 l -0.963696,-1.17606 -1.108392,2.24543 c -3.023376,6.12491 -7.845385,9.47334 -14.86155,10.31994 -1.000941,0.12077 -1.464247,0.0647 -1.739459,-0.21051 z m 4.69129,-3.25938 c 3.979156,-1.23498 7.464395,-4.23287 9.322402,-8.01882 1.038846,-2.1168 1.314406,-3.17331 1.857528,-7.12187 0.108435,-0.78834 0.344667,-1.48243 0.524959,-1.54243 0.197701,-0.0658 0.696863,0.70074 1.257661,1.93133 2.989434,6.55989 8.396047,10.17255 15.223941,10.17255 h 2.445524 l -0.131075,-3.18258 c -0.07209,-1.75042 -0.03158,-3.24407 0.09002,-3.31923 0.121601,-0.0751 1.111722,0.0473 2.200268,0.27217 1.088546,0.22485 2.452003,0.40881 3.029905,0.40881 h 1.050729 l 0.31621,-1.52135 c 0.336694,-1.61991 0.203913,-4.4771 -0.307518,-6.61719 -1.035863,-4.33457 -4.330522,-8.35119 -8.503988,-10.367479 -3.265605,-1.577681 -3.173643,-1.907548 0.676594,-2.426944 2.475731,-0.333976 3.376957,-0.590507 5.225521,-1.487429 4.190151,-2.03306 7.227805,-5.953083 8.494417,-10.961855 0.664714,-2.628587 0.723194,-2.556733 -2.770084,-3.403599 -1.337697,-0.324294 -2.51123,-0.663348 -2.607851,-0.753453 -0.09662,-0.09011 0.15789,-1.175858 0.56558,-2.412785 1.267809,-3.846519 1.30827,-3.551298 -0.59018,-4.306152 -2.291975,-0.911327 -4.090395,-1.250099 -6.636327,-1.250099 -2.662464,0 -4.713693,0.508329 -7.089917,1.756999 -1.991454,1.04648 -4.735561,3.417016 -5.899133,5.096051 -0.794347,1.146242 -0.881775,1.19993 -1.408975,0.865226 -0.261358,-0.165928 -0.215468,-0.660631 0.214379,-2.311052 1.21489,-4.664635 0.533239,-9.511077 -1.851541,-13.164194 -1.318488,-2.01972 -3.909022,-4.557374 -5.774483,-5.656609 -1.371132,-0.807949 -1.437385,-0.767213 -3.150488,1.937081 -0.679925,1.073324 -1.317819,1.951498 -1.417544,1.951498 -0.09972,0 -1.112186,-0.773906 -2.249914,-1.719792 -1.137727,-0.945885 -2.2115,-1.719791 -2.38616,-1.719791 -0.710571,0 -3.561777,4.273378 -4.479745,6.714228 -1.803058,4.794277 -1.339914,9.251621 1.495905,14.396739 0.994758,1.804822 1.153766,2.701533 0.479044,2.701533 -0.158073,0 -0.965482,-0.459491 -1.794242,-1.021092 -2.037082,-1.380407 -3.288405,-1.99102 -5.437311,-2.653266 -4.421216,-1.362521 -10.259072,-0.129573 -14.050415,2.96743 l -0.782973,0.639581 0.499194,1.107015 c 0.274557,0.608858 1.013848,1.837887 1.642869,2.731175 0.62902,0.893289 1.143674,1.697921 1.143674,1.788072 0,0.09015 -0.446485,0.37332 -0.992188,0.629265 -1.848277,0.866875 -4.29021,2.409191 -4.294857,2.712615 -0.01227,0.801588 1.640799,3.751212 3.150565,5.621634 1.183119,1.465745 4.128116,3.546419 6.069957,4.288489 2.072687,0.79208 5.861697,0.96995 8.599703,0.40372 1.141528,-0.23607 2.181833,-0.42922 2.311788,-0.42922 0.673788,0 0.01239,0.99361 -1.973908,2.96536 -1.678713,1.66643 -2.443022,2.67119 -3.178432,4.17839 -2.177976,4.46369 -2.270786,9.22084 -0.272433,13.96416 0.812621,1.92884 0.523297,1.91884 4.326477,0.14954 1.376034,-0.64015 2.637381,-1.11192 2.802994,-1.04837 0.165612,0.0635 0.456689,0.87056 0.646837,1.79334 0.190149,0.92278 0.573127,2.4298 0.851064,3.34893 0.503783,1.666 0.507939,1.67063 1.349199,1.50273 0.464123,-0.0926 1.439172,-0.35319 2.166776,-0.57901 z"
       id="path17" /><path
       style="fill:#000000"
       d="m 54.021118,108.26367 c -0.732175,-0.77936 -0.754033,-2.1193 -0.04612,-2.82721 0.642514,-0.64252 0.647113,-1.38465 0.03034,-4.8948 -0.632313,-3.598554 -0.8934,-3.552291 -3.051949,0.5408 -1.618244,3.06855 -1.666106,3.21412 -1.291696,3.92871 1.018475,1.94383 -1.074964,3.98344 -3.043651,2.96539 -0.88398,-0.45712 -1.109707,-0.8881 -1.109707,-2.11875 0,-1.02629 0.918202,-2.00885 1.877263,-2.00885 0.572798,0 0.860488,-0.41988 2.35438,-3.43618 2.217969,-4.47826 2.169135,-4.533725 -2.306968,-2.620219 -2.90725,1.242831 -3.392377,1.536069 -3.469224,2.096991 -0.239823,1.750528 -2.369069,2.451088 -3.626853,1.193308 -0.910319,-0.91032 -0.862832,-2.088292 0.123966,-3.07509 0.851346,-0.851346 1.722801,-0.981056 2.576037,-0.383426 0.511805,0.358481 0.810319,0.276297 3.696893,-1.017793 4.358342,-1.953905 4.317083,-2.155737 -0.664933,-3.252713 -3.756693,-0.827176 -3.811984,-0.831381 -4.34937,-0.33073 -1.707362,1.590651 -4.324943,-0.52175 -3.455171,-2.78834 0.194348,-0.506461 1.449271,-1.202479 2.168076,-1.202479 0.707656,0 1.900904,0.997378 1.900904,1.588874 0,0.270674 0.208359,0.556751 0.46302,0.635728 0.96006,0.297739 6.69288,1.479565 7.177095,1.479565 1.067143,0 0.690513,-0.774023 -1.519569,-3.122914 -1.932592,-2.053971 -2.417612,-2.433336 -3.111028,-2.433336 -1.282971,0 -2.215768,-0.891078 -2.215768,-2.116667 0,-2.270051 3.098343,-2.895097 3.966117,-0.800106 0.163744,0.395313 0.218567,1.034106 0.12183,1.41954 -0.156257,0.622575 0.08304,0.952819 2.144082,2.958921 1.275983,1.241973 2.449597,2.212203 2.608032,2.156066 0.61938,-0.219456 -0.2803,-7.864153 -0.951851,-8.088004 -0.662155,-0.220718 -1.53821,-1.352695 -1.53821,-1.987566 0,-2.137069 2.056815,-3.246873 3.583579,-1.933606 0.906294,0.779561 0.972667,2.32505 0.138008,3.213503 l -0.564662,0.601056 0.60435,3.942077 c 0.538642,3.513474 0.662374,3.950392 1.138021,4.018548 0.439804,0.06302 0.787698,-0.438376 1.977909,-2.85062 1.240996,-2.515173 1.398606,-3.000159 1.119975,-3.446318 -0.889626,-1.424518 0.15985,-3.436824 1.792404,-3.436824 1.06259,0 2.116666,1.030318 2.116666,2.068958 0,0.946715 -0.864538,2.099912 -1.658917,2.21281 -0.453325,0.06443 -0.940118,0.758218 -2.100908,2.994274 -0.830977,1.600729 -1.515587,3.062981 -1.521354,3.249449 -0.02495,0.806589 1.000849,0.560316 4.235917,-1.016956 2.886093,-1.407127 3.426512,-1.764755 3.426512,-2.267527 0,-1.035691 1.115612,-2.055175 2.248959,-2.055175 1.955198,0 2.963453,2.325809 1.599526,3.689735 -0.690152,0.690153 -2.422765,0.910985 -2.956878,0.376872 -0.187025,-0.187025 -1.339066,0.267546 -3.670996,1.448495 -1.869139,0.946581 -3.516094,1.838715 -3.659899,1.98252 -0.388668,0.388668 0.59155,0.67588 4.108023,1.203681 l 3.092694,0.464196 0.7133,-0.561083 c 0.958662,-0.754083 2.095077,-0.719497 2.902923,0.08835 1.551329,1.551328 -0.0051,4.272828 -2.137523,3.737619 -0.386074,-0.0969 -0.914801,-0.56782 -1.221895,-1.088305 -0.297735,-0.504623 -0.737935,-0.921425 -0.978222,-0.926227 -0.240288,-0.0048 -1.837871,-0.221084 -3.550184,-0.480627 -1.712314,-0.259542 -3.17083,-0.414363 -3.241146,-0.344046 -0.382646,0.382646 0.09951,1.092174 2.259326,3.32475 2.251108,2.326941 2.447001,2.466031 3.436787,2.440071 1.433955,-0.0376 2.233804,0.76516 2.233804,2.24192 0,0.81832 -0.152147,1.20844 -0.618611,1.58616 -0.617754,0.50023 -1.723178,0.64713 -2.532509,0.33657 -0.6531,-0.25062 -1.271126,-1.64278 -1.075429,-2.42251 0.148648,-0.59226 -0.140081,-0.98926 -2.288347,-3.146499 -1.391633,-1.397444 -2.678007,-2.468725 -2.964398,-2.468725 -0.559287,0 -0.543673,0.643154 0.124127,5.113134 0.264907,1.77318 0.396926,2.10373 0.919563,2.30244 1.218145,0.46314 1.595498,2.47927 0.642422,3.43234 -0.757261,0.75726 -2.379842,0.71412 -3.12888,-0.0832 z"
       id="path16" /><path
       style="fill:#000000"
       d="m 75.174375,138.46401 c -1.145952,-2.94827 -1.20228,-3.01003 -3.563918,-3.90792 -0.976586,-0.3713 -0.781194,-0.84716 0.550046,-1.33958 1.48486,-0.54925 2.094701,-1.17232 2.678079,-2.7362 0.27517,-0.73766 0.617077,-1.38011 0.759793,-1.42769 0.142716,-0.0476 0.516608,0.6187 0.830871,1.48059 0.6575,1.80326 0.868478,2.02056 2.599865,2.67778 0.699561,0.26555 1.271929,0.63366 1.271929,0.81803 0,0.18437 -0.501676,0.50244 -1.114835,0.70683 -1.425889,0.47529 -2.20104,1.29131 -2.730719,2.87467 -0.483117,1.44418 -0.934607,1.74497 -1.281111,0.85349 z"
       id="path15" /><path
       style="fill:#000000"
       d="m 4.8682393,164.58773 c -0.451164,-0.19521 -0.8976484,-0.5565 -0.9921876,-0.80286 -0.2994253,-0.78029 -0.1862566,-1.91544 0.2249856,-2.25675 0.5218102,-0.43306 0.5206882,-0.44753 -0.3026079,-3.9026 -0.9349833,-3.92378 -1.1793218,-3.9245 -2.83803763,-0.008 -1.04719573,2.4724 -1.21032356,3.07117 -0.97651399,3.58433 0.79236023,1.73904 -0.0483691,3.237 -1.81676228,3.237 -2.0407074,0 -2.7783529,-2.24499 -1.1953574,-3.63802 0.3720725,-0.32742 0.8841739,-0.59531 1.1380031,-0.59531 0.3394876,0 0.7832737,-0.78699 1.67850226,-2.97656 1.66353274,-4.06872 1.49778424,-4.21183 -2.31553966,-1.99922 -2.5535627,1.48165 -2.8955614,1.76643 -3.0541617,2.54313 -0.2169659,1.06253 -0.8927533,1.61925 -1.9792172,1.63048 -1.4262741,0.0147 -2.3623304,-1.55702 -1.7999956,-3.02244 0.2874285,-0.74902 1.519885,-1.21367 2.4850174,-0.93688 0.7807937,0.22393 1.1131092,0.0988 3.6023916,-1.35616 1.5082381,-0.88157 2.80935623,-1.71143 2.89137359,-1.84414 0.25172296,-0.4073 -0.93218229,-0.68882 -4.33474909,-1.03077 -3.1506725,-0.31663 -3.2739325,-0.30987 -3.6303992,0.19906 -0.722141,1.031 -2.9536916,0.80325 -3.3948846,-0.34648 -0.835537,-2.17738 1.343235,-4.13465 3.0809675,-2.76775 0.3978857,0.31298 0.7234286,0.72731 0.7234286,0.92074 0,0.36115 1.024454,0.53586 5.2932232,0.90271 2.96731304,0.255 2.99457966,-0.086 0.2129085,-2.66264 -2.0595182,-1.90772 -2.2588175,-2.02776 -3.1454355,-1.89445 -2.0893597,0.31416 -3.2864584,-2.18431 -1.7003183,-3.54874 1.3907072,-1.19631 3.3083723,-0.32346 3.3083723,1.50586 0,0.94416 0.1458762,1.12501 2.431342,3.01433 1.73441737,1.43378 2.52236036,1.93436 2.7488754,1.74637 0.2908845,-0.24141 -0.038686,-2.3075 -1.08550802,-6.80508 -0.07740614,-0.33257 -0.42884254,-0.71421 -0.78096979,-0.84809 -1.50198559,-0.57105 -1.85059849,-2.6897 -0.58808439,-3.574 1.98840418,-1.39273 4.3641757,1.15256 2.8681908,3.07285 -0.4823438,0.61915 -0.4768289,0.69556 0.2938001,4.07058 0.704871,3.08702 1.0025987,3.81916 1.558471,3.8324 0.093541,0.002 0.7312082,-1.27587 1.4170374,-2.84022 1.1129882,-2.53868 1.2155297,-2.93157 0.9544041,-3.6568 -0.6123675,-1.70076 -0.059675,-2.88845 1.4827791,-3.18637 0.7107793,-0.13729 0.9804814,-0.0329 1.6536459,0.64031 0.4423926,0.44239 0.8043503,1.03557 0.8043503,1.31818 0,0.71193 -0.9231125,1.81682 -1.675727,2.00571 -0.498792,0.12519 -0.8754398,0.74188 -1.8562681,3.03927 -0.6767778,1.58522 -1.2305051,3.00628 -1.2305051,3.15792 0,0.61786 0.7430843,0.42458 2.8951143,-0.75307 3.9087247,-2.13895 3.9358857,-2.15929 4.1081067,-3.07731 0.181484,-0.96739 1.244181,-1.93523 2.124904,-1.93523 0.794298,0 1.886411,0.89657 2.092548,1.71789 0.192892,0.76854 -0.40111,2.10359 -1.046068,2.35109 -0.675629,0.25926 -1.839042,0.192 -2.155672,-0.12463 -0.208922,-0.20893 -1.04822,0.15338 -3.029479,1.30776 -3.5313127,2.05751 -3.8651673,2.30735 -3.5342456,2.64488 0.1455208,0.14843 1.7071643,0.35326 3.4703189,0.45518 3.0487227,0.17624 3.2333877,0.15766 3.7703127,-0.37926 0.844435,-0.84444 2.476013,-0.77666 3.191207,0.13256 0.718356,0.91324 0.693442,1.75053 -0.0788,2.64832 -0.906253,1.05358 -2.296842,1.01602 -3.306401,-0.0893 -0.71613,-0.78406 -0.863929,-0.82636 -3.519544,-1.00737 -3.0123033,-0.20532 -3.6966182,-0.15364 -3.8444132,0.29031 -0.053123,0.15957 0.9688747,1.20137 2.2711049,2.3151 2.1916063,1.87438 2.4564513,2.02498 3.5611873,2.02498 0.974215,0 1.294247,0.12808 1.741866,0.69714 0.301603,0.38342 0.54837,0.96268 0.54837,1.28723 0,0.32456 -0.246767,0.90381 -0.54837,1.28724 -1.184412,1.50573 -3.8342644,0.46208 -3.629197,-1.42938 0.06528,-0.60212 -0.2790946,-1.00315 -2.3437267,-2.72924 -2.4614361,-2.05784 -3.26829,-2.43189 -3.26829,-1.51513 0,0.43003 0.8356784,4.30713 1.2021474,5.57732 0.063006,0.21838 0.4548986,0.54771 0.8708716,0.73184 1.7901297,0.79239 1.5595594,3.30834 -0.3532273,3.85436 -0.2910416,0.0831 -0.8983008,-0.009 -1.3494647,-0.20386 z"
       id="path14" /><path
       style="fill:#000000"
       d="m 59.869893,172.89989 c -0.323069,-0.13 -0.660614,-0.52808 -0.750102,-0.88463 -0.170752,-0.68033 0.249055,-1.75588 0.685349,-1.75588 0.142704,0 0.255275,-0.93341 0.255275,-2.11667 0,-1.16417 -0.0893,-2.11622 -0.198438,-2.11568 -0.109141,5.4e-4 -0.758355,0.69382 -1.442699,1.54062 -0.926142,1.14599 -1.205165,1.68913 -1.091345,2.12437 0.201604,0.77094 -0.581251,1.62569 -1.488942,1.62569 -0.931924,0 -1.334827,-0.4524 -1.334827,-1.49882 0,-0.89405 0.540056,-1.40374 1.50396,-1.4194 0.273331,-0.004 1.019278,-0.71725 1.730523,-1.65365 1.462872,-1.92596 1.311403,-2.08451 -1.312749,-1.37419 -1.289098,0.34894 -1.751825,0.60437 -1.926329,1.06335 -0.450937,1.18606 -2.203327,1.13971 -2.663424,-0.0704 -0.357738,-0.94092 0.306293,-1.92602 1.298285,-1.92602 0.404104,0 0.857433,0.1227 1.007399,0.27267 0.332173,0.33217 4.247779,-0.82149 4.107245,-1.21012 -0.05035,-0.13925 -0.88379,-0.57092 -1.852084,-0.95928 -1.2977,-0.52048 -2.043469,-0.66927 -2.836764,-0.56596 -1.237438,0.16113 -1.966478,-0.34817 -1.966478,-1.37377 0,-0.85416 0.672981,-1.45521 1.629381,-1.45521 0.644331,0 0.855745,0.15343 1.098828,0.79743 0.251575,0.6665 0.637361,0.92714 2.349732,1.5875 1.126806,0.43454 2.11211,0.79007 2.189565,0.79007 0.719886,0 -1.551839,-3.47042 -2.597928,-3.96875 -0.59423,-0.28307 -0.857569,-0.61009 -0.918384,-1.14047 -0.113723,-0.9918 0.363244,-1.50536 1.398108,-1.50536 0.661138,0 0.921556,0.15447 1.166408,0.69186 0.173379,0.38053 0.242326,0.92158 0.153216,1.20234 -0.178662,0.56291 1.645771,3.65569 2.158883,3.65974 0.181584,0.001 0.34802,-0.87263 0.436637,-2.29305 0.124683,-1.99851 0.07655,-2.3855 -0.372153,-2.99241 -0.660182,-0.89295 -0.312092,-2.02237 0.701718,-2.27682 1.392099,-0.3494 2.391569,1.77148 1.221149,2.59127 -0.403251,0.28245 -0.520893,0.78752 -0.621833,2.66971 -0.06847,1.27675 -0.03365,2.3775 0.07737,2.44612 0.111025,0.0686 0.809215,-0.56045 1.551533,-1.39794 0.960839,-1.08402 1.312567,-1.68019 1.220886,-2.06937 -0.189978,-0.80644 0.550188,-1.70228 1.40647,-1.70228 0.92154,0 1.360831,0.43929 1.360831,1.36083 0,0.76236 -0.868957,1.60565 -1.431923,1.38962 -0.38872,-0.14917 -3.152871,3.25004 -2.81344,3.45982 0.135408,0.0837 1.251015,-0.0999 2.479126,-0.40788 1.81392,-0.45494 2.287376,-0.67953 2.523077,-1.19684 0.390734,-0.85756 1.987638,-0.91207 2.431349,-0.083 0.733509,1.37057 -0.451316,2.61513 -1.96763,2.06682 -0.730157,-0.26403 -1.222786,-0.23285 -2.914541,0.18446 -1.119727,0.27621 -2.050731,0.62126 -2.068898,0.76678 -0.01817,0.14552 0.850814,0.63432 1.93107,1.08622 1.55866,0.65203 2.086989,0.76615 2.559414,0.55284 1.582892,-0.71469 2.723764,1.39281 1.269726,2.34554 -0.815415,0.53428 -1.613231,0.3004 -2.056527,-0.60285 -0.251536,-0.51253 -0.82341,-0.86089 -2.241746,-1.36556 -1.047237,-0.37262 -1.97835,-0.60321 -2.06914,-0.51242 -0.278186,0.27818 2.087392,3.64418 2.565246,3.6501 0.632332,0.008 1.27567,0.73335 1.27567,1.43861 0,0.68654 -0.754683,1.47732 -1.409896,1.47732 -0.750748,0 -1.566732,-1.02309 -1.387032,-1.73908 0.118177,-0.47085 -0.13224,-1.07861 -0.969259,-2.35236 -0.620733,-0.94461 -1.247667,-1.68084 -1.393188,-1.63606 -0.145521,0.0448 -0.299025,0.97614 -0.34112,2.06969 -0.05912,1.53589 0.01612,2.06517 0.330729,2.32626 0.611894,0.50783 0.511122,1.75796 -0.180772,2.24258 -0.664216,0.46524 -0.653748,0.46422 -1.454567,0.14198 z"
       id="path13" /><path
       style="fill:#000000"
       d="m 27.138687,196.56652 c -0.228676,-0.22868 -0.415774,-0.53304 -0.415774,-0.67637 0,-0.29715 1.598736,-1.81827 1.911049,-1.81827 0.11309,0 0.205618,-0.23011 0.205618,-0.51134 0,-0.59989 -0.822036,-0.92825 -1.744316,-0.69678 -1.323869,0.33227 -2.256378,-0.90724 -1.287483,-1.71135 0.336964,-0.27966 0.612876,-0.23601 1.588712,0.25135 1.604929,0.80154 2.135806,0.66404 1.996683,-0.51715 -0.05932,-0.50368 -0.118855,-1.33249 -0.132291,-1.84182 -0.02263,-0.85797 0.03391,-0.92604 0.76932,-0.92604 0.734409,0 0.792316,0.0692 0.774562,0.92604 -0.01055,0.50933 -0.07008,1.26715 -0.132292,1.68405 -0.177818,1.19171 0.481117,1.42921 1.941608,0.69981 1.377038,-0.68773 2.046331,-0.57209 2.046331,0.35357 0,0.84794 -0.624424,1.33119 -1.451773,1.12354 -0.875174,-0.21966 -1.987811,0.0726 -1.987811,0.52206 0,0.1963 0.416715,0.68941 0.926034,1.0958 1.056156,0.84271 1.211706,1.75801 0.374873,2.20587 -0.439713,0.23533 -0.653739,0.20216 -1.058334,-0.16399 -0.278936,-0.25243 -0.507156,-0.61351 -0.507156,-0.80239 0,-0.60241 -0.602553,-1.69123 -0.93593,-1.69123 -0.177003,0 -0.572011,0.58157 -0.877796,1.29239 -0.462194,1.0744 -0.964924,1.61802 -1.496307,1.61802 -0.05046,0 -0.278851,-0.1871 -0.507527,-0.41577 z"
       id="path12" /><path
       style="fill:#000000"
       d="m 58.282709,209.15998 c -3.233312,-0.0917 -5.953906,-0.24192 -6.045766,-0.33378 -0.09186,-0.0919 -0.09958,-0.27613 -0.01715,-0.4095 0.283691,-0.45902 8.382231,-6.27777 11.218086,-8.06013 4.426428,-2.78204 3.491942,-2.58219 12.00836,-2.56807 7.699078,0.0128 14.111475,0.2925 14.449313,0.63033 0.104867,0.10487 -0.01107,0.30357 -0.257632,0.44155 -0.246565,0.13799 -3.340723,2.42101 -6.875907,5.07339 -3.535183,2.65237 -6.666207,4.96711 -6.957829,5.14385 -0.579908,0.35147 -6.974755,0.38153 -17.521471,0.0824 z"
       id="path11" /><path
       style="fill:#000000"
       d="m 79.246032,209.43266 c -0.435752,-0.16426 0.448178,-0.92275 5.159375,-4.42723 3.12687,-2.32596 6.390788,-4.69574 7.253153,-5.26617 1.531412,-1.013 1.617697,-1.03569 3.704167,-0.97438 5.245893,0.15414 8.604663,1.19056 9.307173,2.87191 0.20332,0.48663 0.36968,1.09909 0.36968,1.36102 0,0.85496 -1.2324,2.30078 -2.72546,3.19745 -3.242304,1.94719 -7.586784,2.88608 -14.340163,3.09907 -2.328333,0.0734 -5.126302,0.17919 -6.217708,0.23503 -1.091406,0.0558 -2.221004,0.0123 -2.510217,-0.0967 z"
       id="path10" /><path
       style="fill:#000000"
       d="m 129.60955,216.89601 c -2.38772,-0.1514 -2.46109,-0.31456 -2.56135,-5.69596 -0.0463,-2.48252 -0.0146,-4.79058 0.0703,-5.12903 0.28718,-1.14418 1.14025,-1.44256 3.3361,-1.16684 2.91711,0.36629 2.89536,0.31925 2.89536,6.26265 0,4.51271 -0.0384,4.90385 -0.52917,5.39465 -0.29104,0.29104 -0.79705,0.50665 -1.12447,0.47914 -0.32743,-0.0275 -1.26649,-0.0926 -2.08681,-0.14461 z"
       id="path9" /><path
       style="fill:#000000"
       d="m 145.45772,217.9022 c -3.28249,-0.23132 -3.22448,-0.14042 -3.32941,-5.21732 -0.0879,-4.25419 0.11013,-5.44904 0.95704,-5.77403 0.23456,-0.09 1.56312,-0.0276 2.95234,0.13869 3.53635,0.4233 3.45189,0.28373 3.45189,5.70479 0,3.98354 -0.043,4.37937 -0.52916,4.86548 -0.29104,0.29105 -0.678,0.51031 -0.8599,0.48725 -0.1819,-0.0231 -1.37116,-0.11524 -2.6428,-0.20486 z"
       id="path8" /><path
       style="fill:#000000"
       d="m 157.86815,218.70047 c -2.84412,-0.21218 -2.82231,-0.17113 -2.82231,-5.31399 0,-5.30471 -0.0974,-5.15379 3.15903,-4.89606 3.51722,0.27838 3.45555,0.18392 3.45555,5.29293 0,3.74827 -0.0455,4.14657 -0.52917,4.63021 -0.29104,0.29105 -0.67799,0.50945 -0.85989,0.48535 -0.1819,-0.0241 -1.26335,-0.1134 -2.40321,-0.19844 z"
       id="path7" /><path
       style="fill:#000000"
       d="m 167.18771,218.97248 c -0.59589,-0.48251 -0.61702,-0.6344 -0.62463,-4.48844 -0.01,-4.98437 -0.0495,-4.92251 2.98846,-4.6575 3.07182,0.26796 3.09082,0.29887 3.08211,5.01275 -0.005,2.76572 -0.10215,3.88902 -0.36313,4.20347 -0.54633,0.6583 -4.24624,0.60714 -5.08281,-0.0703 z"
       id="path6" /><path
       style="fill:#000000"
       d="m 179.31143,220.02558 c -1.17143,-0.10229 -1.883,-0.2948 -2.04647,-0.55368 -0.13783,-0.21828 -0.25243,-2.05438 -0.25466,-4.08021 -0.005,-4.0992 0.21022,-4.72611 1.54696,-4.51652 0.38387,0.0602 1.26208,0.18069 1.95156,0.26778 1.98024,0.25012 2.05368,0.4155 2.05368,4.62478 0,2.98029 -0.0778,3.74417 -0.41577,4.08214 -0.22868,0.22868 -0.5561,0.39704 -0.72761,0.37415 -0.1715,-0.0229 -1.11996,-0.1122 -2.10769,-0.19844 z"
       id="path5" /><path
       style="fill:#000000"
       d="m 188.20551,220.60209 c -0.60713,-0.0551 -1.23556,-0.25895 -1.39651,-0.45288 -0.19189,-0.23121 -0.26731,-1.66099 -0.21905,-4.15298 l 0.0736,-3.80038 1.95674,0.0187 c 2.77361,0.0265 2.93806,0.26813 2.93806,4.31738 0,2.36559 -0.0962,3.22421 -0.41188,3.67486 -0.41812,0.59694 -0.54036,0.61338 -2.94095,0.39531 z"
       id="path4" /><path
       style="fill:#000000"
       d="m 204.31125,221.53565 c -0.47446,-0.47446 -0.43347,-5.87146 0.0476,-6.27073 0.51282,-0.4256 3.37481,-0.085 3.80207,0.45249 0.4427,0.55689 0.45366,5.37781 0.0132,5.81824 -0.17754,0.17754 -1.02893,0.3175 -1.93146,0.3175 -0.90252,0 -1.75391,-0.13996 -1.93146,-0.3175 z"
       id="path3" /><path
       style="fill:#000000"
       d="m 214.72816,222.14812 c -0.0796,-0.1288 -0.0118,-0.61541 0.15058,-1.08134 0.16615,-0.4766 0.23828,-1.64439 0.16492,-2.66976 -0.11636,-1.62621 -0.0759,-1.83991 0.37566,-1.98322 0.98753,-0.31343 1.27443,0.31789 1.27443,2.80427 0,1.27997 -0.0723,2.51555 -0.16059,2.74573 -0.17154,0.44701 -1.55531,0.58832 -1.805,0.18432 z"
       id="path2" /><path
       style="fill:#000000"
       d="m 211.13881,222.14412 c -1.17941,-0.15738 -1.19124,-0.16925 -1.41907,-1.42301 -0.12943,-0.71232 -0.13,-2.04073 -0.001,-3.0427 l 0.22844,-1.77841 1.61604,0.0234 c 2.56293,0.0371 2.5409,0.0131 2.34154,2.55336 -0.10313,1.31409 -0.062,2.46691 0.10315,2.89083 0.40214,1.03226 -0.0451,1.15331 -2.8688,0.77652 z"
       id="path1" /></g></svg>
