<?xml version="1.0" encoding="UTF-8" standalone="no"?>
<!-- Created with Inkscape (http://www.inkscape.org/) -->

<svg
   width="322.67938mm"
   height="313.91473mm"
   viewBox="0 0 322.67938 313.91473"
   version="1.1"
   id="svg1"
   xml:space="preserve"
   sodipodi:docname="stamp_goal_apple_3.svg"
   inkscape:version="1.4.4 (dcaf3e7, 2026-05-05)"
   xmlns:inkscape="http://www.inkscape.org/namespaces/inkscape"
   xmlns:sodipodi="http://sodipodi.sourceforge.net/DTD/sodipodi-0.dtd"
   xmlns="http://www.w3.org/2000/svg"
   xmlns:svg="http://www.w3.org/2000/svg"><sodipodi:namedview
     id="namedview1"
     pagecolor="#ffffff"
     bordercolor="#000000"
     borderopacity="0.25"
     inkscape:showpageshadow="2"
     inkscape:pageopacity="0.0"
     inkscape:pagecheckerboard="0"
     inkscape:deskcolor="#d1d1d1"
     inkscape:document-units="mm"
     inkscape:zoom="0.070859716"
     inkscape:cx="2229.7577"
     inkscape:cy="-1213.6656"
     inkscape:window-width="1512"
     inkscape:window-height="921"
     inkscape:window-x="0"
     inkscape:window-y="33"
     inkscape:window-maximized="1"
     inkscape:current-layer="layer1"><inkscape:page
       x="0"
       y="0"
       width="322.67938"
       height="313.91473"
       id="page2"
       margin="0"
       bleed="0" /></sodipodi:namedview><defs
     id="defs1" /><g
     inkscape:label="Layer 1"
     inkscape:groupmode="layer"
     id="layer1"
     transform="translate(50.222803,-10.993277)"><path
       style="fill:#000000"
       d="m 171.02518,63.433852 c -0.24112,-0.472943 -1.47914,-2.46724 -2.75116,-4.431771 -3.61244,-5.579161 -4.22373,-7.050958 -4.2308,-10.186458 -0.0101,-4.484079 2.68948,-7.666412 6.48074,-7.639667 2.6244,0.01851 4.57545,1.374893 5.73687,3.988317 l 0.49381,1.111151 1.14949,-0.775784 c 3.60639,-2.433922 8.13346,-0.961214 9.29161,3.022663 0.55907,1.923145 0.37655,3.432264 -0.68018,5.623649 -1.31491,2.726811 -3.26075,4.280714 -9.31136,7.435817 -2.86045,1.491588 -5.32227,2.711979 -5.47071,2.711979 -0.14845,0 -0.46718,-0.386953 -0.70831,-0.859896 z"
       id="path23" /><path
       style="fill:#000000"
       d="m 63.823649,74.38442 c -0.172512,-0.106619 -0.606818,-1.349518 -0.965123,-2.761998 -0.842115,-3.319714 -1.990166,-5.450377 -3.81146,-7.07367 -1.320224,-1.176697 -4.197995,-2.636254 -5.197833,-2.636254 -0.500218,0 -0.95551,-0.857691 -0.686417,-1.293091 0.115074,-0.186195 0.982658,-0.608795 1.927964,-0.939111 4.269659,-1.491936 6.444611,-4.113853 7.780264,-9.379154 0.692904,-2.731507 0.858354,-3.038377 1.56322,-2.899395 0.343622,0.06775 0.610624,0.7135 1.046611,2.531236 1.310826,5.465145 3.561489,8.187258 8.073291,9.764416 1.018967,0.356193 1.75565,0.773468 1.807786,1.023973 0.113105,0.54345 -0.423986,1.191126 -0.987751,1.191126 -0.904795,0 -4.289784,1.868323 -5.404366,2.982905 -1.439592,1.439593 -2.714751,3.989766 -3.487389,6.974389 -0.57788,2.232289 -1.023239,2.907425 -1.658797,2.514628 z m 0.975516,-7.378693 c 0.819191,-2.341419 3.232949,-5.015534 5.183126,-5.7422 0.51354,-0.191352 0.514473,-0.206169 0.03162,-0.501706 -2.684003,-1.642792 -3.578804,-2.555383 -4.675355,-4.768315 l -1.113062,-2.246253 -0.988701,2.044508 c -1.018266,2.105645 -2.667917,3.882117 -4.258965,4.586383 -0.423224,0.187337 -0.769498,0.407817 -0.769498,0.489954 0,0.08214 0.720603,0.61568 1.60134,1.185648 1.638456,1.060326 2.834607,2.573028 3.81111,4.81969 0.268813,0.618463 0.565812,1.124479 0.659999,1.124479 0.09419,0 0.327459,-0.446485 0.518384,-0.992188 z"
       id="path22" /><path
       style="fill:#000000"
       d="M 25.93461,83.683259 C 24.846198,83.167725 21.571979,81.917112 18.658568,80.904118 9.9455777,77.874612 6.9957769,76.210035 4.6191983,72.981681 2.8699717,70.605525 2.2847098,68.858595 2.2847098,66.01354 c 0,-3.016598 0.6646385,-4.844922 2.4854917,-6.837225 3.0824706,-3.372714 8.2821235,-4.029725 12.6722645,-1.601227 1.250264,0.69161 1.595135,0.56515 1.603481,-0.587979 0.0079,-1.088019 1.832281,-4.240303 3.188077,-5.508492 2.041105,-1.909215 3.33362,-2.398015 6.340974,-2.398015 2.746368,0 4.084118,0.426319 5.957255,1.89848 1.380603,1.085061 2.961021,3.584468 3.603027,5.698132 0.472627,1.556024 0.538774,2.295269 0.428982,4.79426 -0.163263,3.71607 -0.872096,6.005425 -3.349362,10.817607 -0.994948,1.932723 -2.453799,4.764198 -3.241892,6.292167 -0.788092,1.527969 -1.75258,3.522266 -2.143306,4.431771 -0.854312,1.98861 -1.043117,2.021099 -3.895092,0.67024 z M 10.259877,70.496453 c 0.680856,-0.47689 0.75947,-1.504389 0.191163,-2.498538 -0.6593407,-1.153396 -0.4983112,-2.710013 0.396875,-3.836459 0.928746,-1.168675 0.993575,-1.784549 0.264583,-2.513541 -1.9023678,-1.902368 -5.1320478,1.532781 -4.662426,4.959046 0.2553169,1.862739 1.383942,3.686473 2.5457595,4.113666 0.6043834,0.222228 0.6342907,0.216924 1.2640455,-0.224174 z M 33.023025,58.991774 c 0.994251,-0.926285 0.556934,-2.62276 -1.076862,-4.177454 -1.818523,-1.730476 -4.297206,-1.51137 -4.297206,0.379857 0,0.653084 0.185621,0.853859 1.266926,1.370348 0.796052,0.380236 1.380503,0.871921 1.572514,1.322916 0.719026,1.688846 1.528611,2.041581 2.534628,1.104333 z"
       id="path21" /><path
       style="fill:#000000"
       d="m 199.91121,82.483852 c -3.2756,-6.569874 -4.1221,-9.026988 -4.1164,-11.948573 0.008,-3.91517 1.82765,-7.229821 4.82908,-8.7948 0.48819,-0.25455 1.71437,-0.497419 2.85226,-0.56495 2.58991,-0.153702 4.26442,0.514969 5.9307,2.368275 1.02388,1.138797 1.351,1.808513 2.12681,4.354219 0.056,0.183886 0.76566,-0.04282 1.8634,-0.595313 1.52446,-0.767253 2.03725,-0.891481 3.65928,-0.886485 2.33406,0.0072 3.61398,0.548863 5.0863,2.152581 1.50256,1.636653 2.0475,3.1841 1.91379,5.434492 -0.24126,4.060481 -2.84958,7.244619 -7.95474,9.710821 -1.6389,0.791718 -4.05138,1.825102 -5.36106,2.296409 -1.30969,0.471307 -3.40805,1.254714 -4.66302,1.740905 -1.25497,0.48619 -2.46572,0.883982 -2.69056,0.883982 -0.26902,0 -1.45755,-2.103481 -3.47584,-6.151563 z m 2.36245,-13.100223 c 0.29615,-0.626929 0.91394,-1.359631 1.39101,-1.649757 0.96245,-0.5853 1.11898,-1.390556 0.42037,-2.16252 -1.32866,-1.468148 -4.32462,0.952386 -4.32462,3.493997 0,1.964043 1.63783,2.17146 2.51324,0.31828 z"
       id="path20" /><path
       style="fill:#000000"
       d="m 51.624386,107.61927 c -0.121466,-0.32742 -0.372527,-1.25016 -0.557913,-2.05052 -1.052373,-4.54341 -3.804971,-7.738836 -7.649978,-8.880681 -0.756453,-0.224642 -1.442005,-0.582092 -1.523449,-0.794333 -0.189787,-0.494575 0.369058,-1.172904 0.966301,-1.172904 0.890041,0 4.194092,-1.873316 5.12876,-2.907881 1.30781,-1.447589 2.475566,-3.872649 3.167639,-6.578185 0.530561,-2.074131 0.644429,-2.287893 1.218725,-2.287893 0.57908,0 0.673779,0.187316 1.102708,2.181175 0.592422,2.753847 1.833735,5.372449 3.189349,6.728063 1.030795,1.030794 4.405968,2.864721 5.272256,2.864721 0.580044,0 1.079241,0.627489 0.890496,1.119352 -0.08288,0.215969 -0.650477,0.540204 -1.261336,0.72052 -1.863402,0.550049 -4.143514,1.901444 -5.123024,3.036356 -1.496101,1.73346 -2.330451,3.64343 -3.273256,7.49304 -0.20892,0.85305 -0.402244,1.12448 -0.800912,1.12448 -0.303155,0 -0.618965,-0.25189 -0.746366,-0.59531 z m 1.398726,-6.91225 c 0.763744,-1.726961 2.232441,-3.402749 3.774027,-4.306179 0.630636,-0.369577 1.14661,-0.717118 1.14661,-0.772314 0,-0.0552 -0.370803,-0.292106 -0.824008,-0.526467 -1.583198,-0.818704 -3.039955,-2.440511 -3.93358,-4.379254 l -0.871032,-1.889729 -0.847,1.819398 c -0.853041,1.832377 -2.595258,3.752238 -3.975901,4.3813 -0.363538,0.16564 -0.660979,0.396095 -0.660979,0.512123 0,0.116029 0.536596,0.525427 1.192436,0.909775 1.550117,0.908429 2.85343,2.452611 3.579113,4.240577 0.319867,0.7881 0.628781,1.43292 0.686475,1.43292 0.05769,0 0.387922,-0.63997 0.733839,-1.42215 z"
       id="path19" /><path
       style="fill:#000000"
       d="m 125.14792,113.12814 c -1.09141,-0.19778 -3.43593,-0.7294 -5.21005,-1.18137 -1.77412,-0.45197 -3.70469,-0.82177 -4.29017,-0.82177 -1.81739,0 -1.79731,0.20577 -0.78737,-8.06979 1.44041,-11.802853 8.10806,-21.508916 18.0928,-26.337582 5.7954,-2.802683 9.42857,-3.567924 16.80104,-3.538742 5.84338,0.02313 7.09523,0.194391 12.63656,1.728761 3.54373,0.981243 3.49132,0.896594 2.99873,4.843648 -1.82123,14.593155 -9.97111,26.505985 -21.45613,31.362785 -3.99527,1.68953 -6.49426,2.16715 -11.90625,2.27559 -3.37249,0.0676 -5.51194,-0.0138 -6.87916,-0.26153 z m 1.7789,-12.64059 c 1.74387,-1.26669 5.00381,-3.397206 7.24432,-4.734479 7.08677,-4.229819 9.05798,-5.769184 8.13587,-6.353503 -0.51563,-0.326736 -0.82033,-0.296945 -3.22438,0.31526 -6.74415,1.717431 -13.18876,6.463623 -17.27897,12.725252 -1.63243,2.49906 -1.52428,2.90266 0.39942,1.49057 0.8542,-0.62701 2.97988,-2.17641 4.72374,-3.4431 z"
       id="path18" /><path
       style="fill:#000000"
       d="m 182.15412,113.75221 c -0.0963,-0.15577 -0.33732,-1.05883 -0.53566,-2.00681 -0.39951,-1.90946 -1.36514,-4.19559 -2.41503,-5.71761 -0.84958,-1.23163 -3.30253,-2.90111 -4.93352,-3.35776 -2.15451,-0.60323 -2.33059,-1.53092 -0.40005,-2.10771 3.95859,-1.182724 6.79909,-4.416474 7.62658,-8.682431 0.41058,-2.116705 0.70157,-2.715307 1.31993,-2.715307 0.3634,0 0.57926,0.228531 0.68728,0.727604 0.65847,3.042293 1.69734,5.692901 2.86414,7.307649 0.74838,1.035676 3.14568,2.571253 4.99616,3.200245 2.24577,0.76337 2.29137,1.66931 0.11164,2.21818 -0.6188,0.15581 -1.83736,0.74366 -2.70792,1.30633 -3.01575,1.94918 -4.00913,3.72103 -5.26067,9.38322 -0.165,0.74648 -0.99723,1.01986 -1.35288,0.4444 z m 1.42155,-7.45586 c 0.76062,-1.66847 2.54532,-3.60646 3.8821,-4.21554 0.36354,-0.16564 0.66098,-0.38107 0.66098,-0.47872 0,-0.0977 -0.60552,-0.56992 -1.34561,-1.04948 -1.49037,-0.965725 -2.59173,-2.328959 -3.32793,-4.119195 -0.26721,-0.649788 -0.55324,-1.181879 -0.63562,-1.182425 -0.0824,-5.45e-4 -0.48866,0.708001 -0.90283,1.574547 -0.89857,1.880033 -1.78697,2.902006 -3.42663,3.941853 l -1.21756,0.77215 1.32637,0.85112 c 1.67783,1.07666 2.44419,1.99041 3.33596,3.97756 0.39043,0.86998 0.75195,1.58178 0.80339,1.58178 0.0514,0 0.43276,-0.74414 0.84738,-1.65365 z"
       id="path17" /><path
       style="fill:#000000"
       d="m 218.36284,164.43846 c -4.93557,-1.12867 -9.61561,-3.80976 -13.59328,-7.78729 -3.70196,-3.70182 -6.13974,-7.53342 -7.95157,-12.49793 -3.79112,-10.38794 -3.23568,-21.29836 1.56578,-30.75596 5.53835,-10.90908 16.05774,-17.38925 27.17352,-16.739488 11.01638,0.643951 20.26989,8.057108 24.10661,19.312238 3.62587,10.63661 2.01832,24.45656 -3.92982,33.78414 -1.80951,2.83759 -4.71504,6.30766 -6.68304,7.98154 -3.54879,3.01844 -7.91604,5.49326 -11.39823,6.45912 -2.13708,0.59277 -7.1844,0.72514 -9.28997,0.24363 z m -11.82909,-27.75471 c 1.19916,-1.19916 1.24454,-2.50034 0.12619,-3.61869 -1.05116,-1.05115 -2.34155,-1.056 -3.50868,-0.0132 -1.79049,1.59981 -0.61641,4.44784 1.86114,4.51467 0.37,0.01 0.98603,-0.34749 1.52135,-0.88281 z m 0.9198,-9.22668 c 1.02299,-0.6894 1.3078,-1.1967 2.1134,-3.76436 1.29083,-4.11424 3.6066,-7.79046 6.62661,-10.51958 1.78429,-1.61241 1.90117,-1.78758 2.02032,-3.02755 0.11439,-1.19052 0.046,-1.4078 -0.71704,-2.27682 -1.59527,-1.8169 -3.5684,-1.54778 -6.54515,0.89271 -1.77545,1.45561 -4.01872,4.2399 -5.36633,6.66054 -0.93232,1.67469 -2.4174,5.87606 -2.90178,8.20933 -0.38884,1.87301 0.0543,2.99666 1.51611,3.84403 1.26693,0.73442 2.14422,0.72948 3.25386,-0.0183 z"
       id="path16" /><path
       style="fill:#000000"
       d="m -3.7041688,164.68914 c -5.4647168,-1.17186 -10.9565912,-4.39027 -15.2626062,-8.94438 -3.598606,-3.80595 -6.105287,-8.13141 -7.998188,-13.80146 -6.522133,-19.53661 2.367987,-39.58339 19.9619572,-45.013222 2.2343044,-0.689549 2.6584855,-0.731916 7.26758709,-0.725888 4.57409301,0.006 5.05025341,0.05396 7.26758711,0.73229 3.1577256,0.966015 6.3952346,2.577106 8.8484976,4.40331 10.305333,7.67125 15.075575,22.58792 11.904312,37.22509 -1.917263,8.84924 -6.505258,16.17546 -13.433989,21.45169 -2.095425,1.59567 -6.9246616,3.93678 -9.4032102,4.55848 -2.4848445,0.62328 -6.5416191,0.67385 -9.1519476,0.11409 z M -17.178038,137.24419 c 1.451719,-1.12275 1.583191,-2.74813 0.32413,-4.00719 -1.356385,-1.35638 -3.757507,-0.55568 -4.126804,1.37618 -0.168045,0.87907 0.382596,2.28486 1.046023,2.6705 0.656401,0.38156 2.241593,0.35885 2.756651,-0.0395 z m 0.158385,-9.3577 c 1.219597,-0.57874 1.604499,-1.22735 2.19851,-3.70478 1.047666,-4.36949 2.722149,-7.59582 5.6069725,-10.8033 2.4736548,-2.75032 2.6477743,-3.84564 0.8906559,-5.60276 -0.7307667,-0.73076 -1.0830816,-0.88398 -2.0326344,-0.88398 -3.64777,0 -9.04234,7.40537 -10.697076,14.68437 -0.863694,3.79929 -0.501143,5.57927 1.295588,6.36081 1.110055,0.48285 1.634657,0.4732 2.737984,-0.0504 z"
       id="path15" /><path
       style="fill:#000000"
       d="m 194.0157,185.14219 c -0.1393,-0.1819 -0.3942,-0.98558 -0.56646,-1.78594 -0.75252,-3.49652 -2.22185,-5.39501 -5.26434,-6.80191 -1.08202,-0.50035 -1.91823,-1.05306 -1.91823,-1.26788 0,-0.21462 0.83728,-0.76903 1.91823,-1.27018 2.9943,-1.38821 4.36426,-3.20902 5.37437,-7.14308 0.23173,-0.9025 0.52611,-1.74897 0.65419,-1.88105 0.31812,-0.32806 1.04904,0.31319 1.04904,0.92034 0,0.26571 0.30882,1.46068 0.68625,2.65548 0.58349,1.84706 0.89305,2.37917 2.06714,3.55327 0.99401,0.994 1.83954,1.54812 3.01792,1.97777 2.21091,0.80614 2.20111,1.32329 -0.0444,2.34143 -3.06438,1.38946 -4.66206,3.41187 -5.46343,6.91581 -0.32872,1.43728 -0.66807,2.11667 -1.05727,2.11667 -0.10988,0 -0.31376,-0.14883 -0.45305,-0.33073 z m 0.9289,-5.83916 c 0.41632,-1.15131 2.00756,-2.99295 3.05322,-3.53368 0.77298,-0.39972 0.79536,-0.44933 0.32513,-0.72067 -1.19496,-0.68951 -2.49966,-2.09811 -3.08468,-3.33034 -0.34642,-0.72967 -0.6969,-1.32667 -0.77883,-1.32667 -0.0819,0 -0.29187,0.3952 -0.46654,0.87822 -0.40913,1.13143 -2.00165,2.98989 -3.00798,3.51028 l -0.78488,0.40588 1.01936,0.73842 c 1.33508,0.96713 2.34114,2.18289 2.75618,3.33065 0.18419,0.50937 0.40612,0.92613 0.49317,0.92613 0.0871,0 0.30119,-0.3952 0.47585,-0.87822 z"
       id="path14" /><path
       style="fill:#000000"
       d="m 27.837322,185.14219 c -0.150317,-0.1819 -0.358325,-0.80698 -0.462239,-1.38906 -0.103915,-0.58209 -0.570913,-1.89522 -1.037774,-2.91809 -1.013065,-2.21955 -2.381713,-3.50416 -4.735612,-4.44481 -1.975017,-0.78925 -2.206505,-1.35088 -0.786123,-1.90726 2.044956,-0.80103 3.339647,-1.60195 4.199139,-2.59767 0.960262,-1.11245 2.12963,-3.76939 2.398212,-5.44902 0.220316,-1.37778 0.807473,-1.9146 1.322996,-1.20958 0.202534,0.27698 0.368244,0.6888 0.368244,0.91515 0,0.22636 0.316193,1.361 0.702652,2.52143 0.908296,2.72736 2.591572,4.53254 5.068655,5.43573 1.376866,0.50203 1.637027,0.69638 1.637027,1.2229 0,0.34691 -0.158104,0.62601 -0.354616,0.62601 -0.80604,0 -3.632253,1.68027 -4.609563,2.74052 -1.055988,1.14562 -1.97906,3.16413 -2.326051,5.08647 -0.188021,1.04164 -0.5405,1.69801 -0.911854,1.69801 -0.109884,0 -0.322776,-0.14883 -0.473093,-0.33073 z m 0.948943,-5.83916 c 0.416316,-1.15131 2.007561,-2.99295 3.053221,-3.53368 0.785962,-0.40644 0.802144,-0.44478 0.304173,-0.72067 -1.014824,-0.56224 -2.987112,-2.75479 -3.329313,-3.70113 -0.190108,-0.52574 -0.41103,-0.95404 -0.490937,-0.95178 -0.07991,0.002 -0.511124,0.68686 -0.95826,1.52135 -0.577116,1.07707 -1.223501,1.80511 -2.228002,2.50944 -0.778265,0.54571 -1.292751,0.99219 -1.143302,0.99219 0.703529,0 2.701201,1.92298 3.413206,3.28559 0.42409,0.81161 0.836451,1.47594 0.916358,1.47628 0.07991,3.5e-4 0.288193,-0.39457 0.462856,-0.87759 z"
       id="path13" /><path
       style="fill:#000000"
       d="m 185.82303,221.40145 c -0.14448,-0.18814 -0.41527,-1.05645 -0.60177,-1.92957 -0.1865,-0.87313 -0.68824,-2.36141 -1.11499,-3.3073 -1.2117,-2.68573 -2.75865,-4.04639 -5.88908,-5.17989 -1.31032,-0.47446 -1.60781,-0.69096 -1.60781,-1.17011 0,-0.47981 0.29876,-0.6961 1.62468,-1.1762 2.03445,-0.73666 4.03169,-2.1858 4.97307,-3.60832 0.8119,-1.22686 1.77023,-3.65747 2.25237,-5.71264 0.31361,-1.33679 0.71564,-1.80165 1.25467,-1.45075 0.14698,0.0957 0.46281,1.04823 0.70184,2.11679 0.97051,4.33846 2.97161,6.95806 6.39128,8.36673 2.32167,0.95636 2.72574,1.28678 2.25998,1.84799 -0.18722,0.22558 -0.49062,0.41015 -0.67424,0.41015 -0.18361,0 -1.29574,0.48145 -2.4714,1.06989 -3.13904,1.57114 -4.24268,3.11802 -5.43768,7.62158 -0.60176,2.26785 -1.07422,2.86568 -1.66092,2.10165 z m 0.80324,-6.1086 c 0.34837,-1.388 2.20279,-3.75697 3.56347,-4.55222 0.74695,-0.43657 1.36024,-0.85329 1.36287,-0.92605 0.003,-0.0728 -0.52783,-0.46877 -1.17879,-0.88002 -1.46006,-0.92241 -2.37533,-1.98898 -3.26699,-3.80704 -0.3772,-0.76909 -0.75031,-1.39632 -0.82913,-1.39384 -0.0788,0.002 -0.41905,0.64175 -0.75605,1.42058 -0.67698,1.56456 -2.19618,3.25027 -3.62054,4.01734 -0.50936,0.2743 -0.92611,0.56166 -0.92611,0.63856 0,0.0769 0.38072,0.30835 0.84603,0.51432 1.31017,0.57994 2.93403,2.37808 3.65716,4.04965 0.3609,0.83426 0.73258,1.51887 0.82594,1.52136 0.0934,0.002 0.23833,-0.26871 0.32214,-0.60264 z"
       id="path12" /><path
       style="fill:#000000"
       d="m 36.129749,221.40866 c -0.06369,-0.19211 -0.303097,-1.11012 -0.532014,-2.04003 -1.137934,-4.62253 -3.01122,-6.91652 -6.811643,-8.34141 -1.241002,-0.46529 -1.687921,-0.7676 -1.751005,-1.18446 -0.05389,-0.35609 0.09049,-0.61916 0.396875,-0.72313 4.750312,-1.61203 6.972085,-4.0552 8.244645,-9.06621 0.807604,-3.18013 1.481181,-3.15623 2.252236,0.0799 0.982802,4.12486 2.690426,6.45682 5.852233,7.99192 1.014541,0.49257 1.982228,0.89558 2.150416,0.89558 0.168188,0 0.454016,0.1786 0.635173,0.39688 0.473202,0.57017 -0.01485,1.05193 -1.481726,1.46263 -1.558908,0.43647 -4.081174,2.07097 -4.946503,3.20547 -0.922367,1.20929 -1.722306,3.14318 -2.28262,5.51836 -0.389469,1.65096 -0.564074,1.9986 -1.039194,2.06908 -0.31409,0.0466 -0.623183,-0.0725 -0.686873,-0.26459 z m 1.487498,-7.1716 c 0.929311,-1.89483 1.815289,-2.89077 3.247478,-3.65054 0.662213,-0.35131 1.204024,-0.70913 1.204024,-0.79516 0,-0.086 -0.297441,-0.29194 -0.66098,-0.45758 -1.241369,-0.56561 -2.925954,-2.3879 -3.695123,-3.99719 -0.422553,-0.88408 -0.850787,-1.60742 -0.951631,-1.60742 -0.100844,0 -0.439134,0.59458 -0.751756,1.32129 -0.702029,1.63191 -1.807274,2.91622 -3.346417,3.88858 -0.647064,0.40879 -1.170972,0.80278 -1.16424,0.87554 0.0067,0.0728 0.666658,0.54684 1.466501,1.05351 1.374947,0.87097 2.497545,2.24303 3.305243,4.03972 0.1799,0.40019 0.40224,0.72761 0.494088,0.72761 0.09185,0 0.475614,-0.62926 0.852813,-1.39836 z"
       id="path11" /><path
       style="fill:#000000"
       d="M 85.480278,228.58549 C 79.047493,227.19101 73.446003,223.78213 67.061914,217.3767 56.903227,207.18406 48.93293,192.00977 44.745543,174.88958 c -1.647573,-6.73612 -1.995398,-9.55743 -2.006078,-16.27187 -0.0155,-9.74257 1.657271,-17.77637 5.316171,-25.53199 4.589525,-9.72823 13.50055,-17.85416 22.720405,-20.71866 6.056089,-1.88155 13.367893,-1.61761 20.378017,0.73561 4.095348,1.37476 10.113132,4.79777 13.997612,7.96204 0.8294,0.67562 1.55151,1.18489 1.60469,1.1317 0.16697,-0.16696 -0.64149,-4.45873 -1.44443,-7.66788 -1.42725,-5.70438 -3.74683,-11.05054 -6.82244,-15.724369 -1.643665,-2.497784 -6.628046,-8.40352 -7.314953,-8.66711 -0.677395,-0.259942 -1.279469,-1.742904 -1.098737,-2.70629 0.312862,-1.667701 5.221427,-5.63417 8.541446,-6.902097 1.036217,-0.395735 1.170196,-0.394877 1.790344,0.01146 1.00166,0.656307 2.31333,2.58212 4.07205,5.978622 3.39658,6.559574 5.50093,13.213756 7.04748,22.284844 0.56825,3.33299 1.44442,11.43086 1.44864,13.38879 0.001,0.5536 0.0888,0.59906 0.86122,0.44669 2.49834,-0.49289 3.98429,-1.19356 7.46632,-3.52062 l 3.71233,-2.48096 1.71979,0.22032 c 0.94588,0.12117 3.86291,0.21425 6.48229,0.20685 4.31478,-0.0122 5.022,-0.0815 7.52285,-0.73716 3.05407,-0.80069 6.21652,-2.0895 8.57594,-3.495 l 1.54676,-0.92139 3.11556,1.04167 c 1.71356,0.57292 3.94181,1.45777 4.95166,1.96632 11.52382,5.80331 18.70634,17.51774 20.8719,34.04132 0.33739,2.57437 0.40283,4.62653 0.29529,9.26041 -0.16565,7.13783 -0.75967,11.52944 -2.48726,18.38855 -5.79413,23.00459 -21.12716,44.5903 -35.90743,50.55019 -3.61553,1.4579 -7.06787,2.04423 -11.1311,1.89047 -4.26593,-0.16142 -6.24475,-0.66624 -11.03232,-2.81445 -3.48809,-1.56513 -6.25691,-2.3838 -8.09499,-2.39349 -1.87457,-0.01 -5.06463,0.89638 -8.37478,2.3792 -5.055526,2.26468 -6.680707,2.6684 -11.259374,2.797 -3.161659,0.0888 -4.275074,0.0127 -6.330138,-0.43281 z"
       id="path10" /><path
       style="fill:#000000"
       d="m 190.34956,244.35215 c -0.6095,-0.93023 -0.36161,-2.57407 0.59657,-3.95592 0.42724,-0.61616 1.65461,-1.67958 2.85565,-2.47421 4.44041,-2.93785 5.11916,-4.1692 5.45791,-9.90141 0.34219,-5.79038 1.32634,-8.26449 4.40761,-11.0806 1.09061,-0.99676 2.59595,-1.88946 5.78041,-3.4279 4.57162,-2.20861 5.94009,-3.24378 6.9782,-5.27864 1.45462,-2.85128 1.2214,-5.72167 -0.78166,-9.62067 -1.82381,-3.55009 -2.23939,-4.95742 -2.23939,-7.58363 0,-2.72751 0.43834,-4.15331 2.4246,-7.88668 0.79806,-1.50001 1.40249,-2.77582 1.34318,-2.83513 -0.0593,-0.0593 -1.17792,-0.39421 -2.48581,-0.74422 -4.12692,-1.10444 -5.82669,-2.3391 -5.17856,-3.76158 0.37743,-0.82838 5.26831,-8.5606 5.80678,-9.18021 0.5264,-0.60573 1.1844,-0.5871 1.76083,0.0499 0.25528,0.28208 1.0535,0.63927 1.77382,0.79375 1.56805,0.33628 5.26143,0.35833 6.63364,0.0396 0.67153,-0.15598 1.06046,-0.13295 1.22377,0.0725 0.22466,0.28258 2.39734,6.95743 3.34087,10.26377 0.52826,1.85114 0.32947,2.75781 -0.72411,3.30264 -0.89429,0.46246 -3.09892,0.52069 -4.62731,0.12223 -0.54524,-0.14215 -1.55805,-0.28972 -2.25069,-0.32795 l -1.25933,-0.0695 -1.46747,2.5686 c -3.2606,5.70723 -3.42768,8.11005 -0.91432,13.1486 2.1071,4.22411 2.6485,6.69233 2.14731,9.78958 -0.69148,4.27316 -3.44144,7.63235 -7.96247,9.72651 -4.89542,2.26758 -5.78605,2.77715 -7.09613,4.06 -2.18607,2.14063 -2.95433,4.3559 -2.96195,8.54075 -0.007,3.99064 -1.27227,7.43427 -3.5533,9.67293 -0.62948,0.61779 -2.08092,1.73696 -3.22542,2.48705 -1.682,1.10236 -2.21074,1.61741 -2.75816,2.68672 -0.60408,1.18 -0.781,1.33168 -1.6377,1.40408 -0.78851,0.0666 -1.04047,-0.0409 -1.40737,-0.60089 z"
       id="path9" /><path
       style="fill:#000000"
       d="m 31.435427,244.93802 c -0.22864,-0.1819 -0.486935,-0.6388 -0.573987,-1.01534 -0.257309,-1.11297 -1.150435,-2.02481 -3.096501,-3.16137 -3.292109,-1.9227 -5.337082,-4.55527 -6.079908,-7.8269 -0.161305,-0.71043 -0.389886,-2.91645 -0.507957,-4.90225 -0.200354,-3.3697 -0.272681,-3.71938 -1.084273,-5.24208 -1.298036,-2.43536 -2.871917,-3.67908 -7.486797,-5.91622 -4.9251387,-2.38754 -6.8007263,-3.95529 -8.2413555,-6.88871 -2.1117047,-4.29986 -1.8909105,-7.54661 0.9160694,-13.47068 2.2280305,-4.7022 2.1216487,-6.52758 -0.7013191,-12.03374 -2.027093,-3.95382 -1.7655824,-3.78598 -4.84398418,-3.10885 -2.07780342,0.45703 -4.50356872,0.5035 -5.38233292,0.10311 -0.3546024,-0.16157 -0.7798007,-0.5902 -0.944885,-0.95252 -0.3518983,-0.77234 0.034209,-2.347 2.1407487,-8.73065 l 1.3278156,-4.02381 2.95068102,0.14484 c 2.96605378,0.14559 5.18291518,-0.15751 7.24006238,-0.98989 0.4673889,-0.18912 0.9017734,-0.2897 0.9652989,-0.22351 0.7492611,0.78066 5.9901117,9.39555 5.9901117,9.84652 0,0.33392 -0.17494,0.85688 -0.388755,1.16215 -0.407498,0.58178 -3.624961,1.97622 -5.7504086,2.4922 l -1.2443717,0.30209 1.6877036,3.34515 c 1.9116907,3.78911 2.4099477,5.73457 2.1778217,8.50337 -0.153452,1.83037 -0.465043,2.72445 -2.580219,7.40363 -0.9977356,2.20718 -1.1362226,2.74617 -1.1556924,4.49791 -0.01818,1.63568 0.1042534,2.25987 0.687253,3.50375 1.1438901,2.44058 2.541311,3.5609 7.5329074,6.03915 3.773949,1.87372 4.667227,2.43774 6.031391,3.80827 2.628883,2.64116 3.850287,5.79596 3.850287,9.94502 0,5.50736 1.111015,7.7041 5.273208,10.42639 2.91797,1.9085 4.208677,3.78126 3.865776,5.60908 -0.258012,1.37532 -1.636327,2.10019 -2.574389,1.35389 z"
       id="path8" /><path
       style="fill:#000000"
       d="m 105.30036,272.55308 c -2.35956,-0.49135 -3.92323,-2.31198 -4.62117,-5.38061 -1.409297,-6.1962 -1.008805,-15.11531 0.83046,-18.49465 1.46838,-2.69789 3.26986,-3.23563 10.37779,-3.09773 4.32637,0.0839 5.07455,0.16358 6.14543,0.65423 2.23481,1.02396 3.25303,2.94397 3.82009,7.20338 0.44292,3.32703 0.48232,6.93236 0.11167,10.21922 -0.56113,4.97598 -1.50547,7.09877 -3.70763,8.33438 -1.14144,0.64045 -1.35113,0.66295 -6.60283,0.70843 -2.98318,0.0258 -5.84239,-0.0402 -6.35381,-0.14665 z"
       id="path7" /><path
       style="fill:#000000"
       d="m 158.15952,280.70555 c -8.53155,-0.87003 -19.28584,-4.38615 -30.49806,-9.97137 -1.89177,-0.94236 -3.4645,-1.73469 -3.49495,-1.76075 -0.0304,-0.026 0.11148,-0.69714 0.31538,-1.49131 0.20391,-0.79417 0.52895,-2.73675 0.72231,-4.31684 l 0.35157,-2.87289 1.31743,-0.50724 c 5.6701,-2.18315 11.44447,-3.41678 17.01894,-3.63591 4.31749,-0.16971 4.32546,-0.17118 4.96094,-0.90997 0.77964,-0.90639 0.80901,-1.74272 0.0932,-2.65279 -1.10899,-1.40985 -4.19694,-1.54165 -9.49863,-0.40542 -2.75786,0.59106 -9.34593,2.70999 -12.19433,3.92209 -0.9875,0.42022 -1.86517,0.6943 -1.9504,0.60908 -0.0852,-0.0852 -0.15702,-0.70066 -0.15955,-1.36763 -0.007,-1.76209 -0.65531,-4.55244 -1.49126,-6.41518 l -0.72797,-1.62214 1.31035,-1.16757 c 6.15386,-5.48331 11.87043,-9.2599 19.69889,-13.01385 13.47193,-6.46013 24.9317,-7.367 29.25589,-2.31516 0.48834,0.57052 1.15999,1.82447 1.49256,2.78655 0.53372,1.54398 0.60213,2.23051 0.58293,5.8503 -0.0244,4.60412 -0.41273,6.84364 -2.23307,12.87896 l -1.0515,3.48625 0.90446,3.14234 c 1.29,4.48181 1.56321,6.15365 1.56828,9.59662 0.007,4.63399 -1.13283,8.06944 -3.25857,9.82288 -2.34583,1.93498 -7.63781,2.88132 -13.03479,2.33095 z"
       id="path6" /><path
       style="fill:#000000"
       d="m 57.628945,280.71155 c -2.195824,-0.25606 -4.256118,-0.85773 -5.630094,-1.64415 -2.030272,-1.16206 -3.651966,-4.03761 -4.030529,-7.14683 -0.139453,-1.14536 -0.27827,-1.35238 -1.505243,-2.24478 C 31.843752,259.04287 13.276652,241.42251 0.53169807,226.08646 -5.4310577,218.91145 -12.356605,209.14581 -17.002814,201.36121 c -3.175738,-5.32086 -8.834245,-16.69443 -10.998041,-22.106 -7.562205,-18.9128 -11.041223,-37.5143 -10.515506,-56.22396 0.759162,-27.017711 7.573763,-50.574429 19.545194,-67.563843 14.1745434,-20.115991 37.069382,-32.445135 60.246166,-32.44328 19.436469,0.0016 38.680962,8.222265 53.081139,22.674779 6.321742,6.344724 11.003102,12.87465 15.837272,22.091103 l 1.05279,2.007157 1.87314,-3.611605 c 9.50981,-18.335867 23.67334,-31.204236 42.23178,-38.369949 12.64811,-4.883637 26.80603,-6.069185 39.97588,-3.347477 10.354,2.139778 21.74464,7.614644 30.89175,14.847999 3.17981,2.514525 10.61402,10.066733 13.00468,13.211092 11.86598,15.606919 18.59572,34.686336 21.13535,59.920694 0.46666,4.63678 0.61954,16.8693 0.27446,21.96041 -1.61475,23.82319 -8.76088,45.93376 -22.22142,68.75449 -6.0624,10.27807 -14.53737,21.67614 -24.32373,32.71322 -3.9631,4.4696 -15.58697,16.08459 -20.14851,20.13312 -6.14276,5.45193 -16.03591,13.60126 -16.51169,13.60126 -0.0864,0 -0.1568,-0.62508 -0.15649,-1.38906 l 5.6e-4,-1.38907 2.18225,-1.71951 c 15.34519,-12.09132 29.2354,-25.77903 40.81194,-40.21695 19.92518,-24.85009 32.05307,-50.42898 36.37169,-76.71136 1.18996,-7.24194 1.60168,-11.60106 1.77595,-18.80322 0.58943,-24.35885 -4.56092,-47.90367 -14.22838,-65.045053 -3.62872,-6.434085 -7.22807,-11.234975 -12.40438,-16.545231 -10.03581,-10.295501 -21.97168,-17.248598 -35.19561,-20.502782 -4.93409,-1.214195 -8.31439,-1.654512 -13.89063,-1.809391 -18.60435,-0.516734 -37.70906,7.051335 -51.74418,20.497758 -6.88652,6.597662 -11.92721,13.645882 -17.03712,23.822372 -1.64646,3.278954 -2.41312,4.548992 -2.74599,4.548992 -0.32315,0 -0.76147,-0.66537 -1.45988,-2.2161 -2.59327,-5.75796 -7.3076,-13.435891 -11.35395,-18.491436 C 94.309369,48.587391 88.10061,42.745511 82.786262,38.992856 68.28939,28.756087 50.634817,23.946729 34.395832,25.810613 13.653694,28.191361 -5.465191,39.96671 -17.776693,57.943748 c -9.220557,13.463693 -15.266536,31.455435 -17.538099,52.190222 -2.601014,23.742 0.3633,45.16001 9.406791,67.96673 2.193743,5.53238 7.100986,15.52505 10.311926,20.99826 13.0413828,22.22972 34.717113,46.26516 58.348589,64.70067 2.592301,2.02232 4.750072,3.64015 4.795046,3.59517 0.04497,-0.045 0.203308,-1.0829 0.351855,-2.30651 0.148546,-1.22361 0.699279,-3.82039 1.22385,-5.77061 0.833383,-3.09831 0.918145,-3.68273 0.671539,-4.63021 -0.155225,-0.59639 -0.70146,-2.61432 -1.213854,-4.4843 -2.482309,-9.05914 -2.326489,-15.65361 0.45532,-19.26955 3.099327,-4.02867 11.105556,-4.44745 21.210604,-1.10945 9.612183,3.17519 20.317576,9.35336 27.077521,15.62666 l 1.942104,1.8023 -0.699427,1.24151 c -0.885094,1.57108 -1.127098,2.40016 -1.59835,5.47571 -0.209326,1.36613 -0.429676,2.53297 -0.489667,2.59296 -0.05999,0.06 -1.819586,-0.53687 -3.910211,-1.32634 -8.440166,-3.18725 -15.3005,-4.52029 -17.900363,-3.47824 -1.992454,0.7986 -2.333085,2.51063 -0.747648,3.75774 0.578606,0.45513 1.208419,0.54725 4.583822,0.67044 4.953054,0.18078 9.974413,1.23816 15.813934,3.33004 2.338261,0.83764 2.44388,0.97934 2.494391,3.34659 0.01553,0.72761 0.265518,2.31273 0.55554,3.52249 0.290022,1.20977 0.527313,2.30852 0.527313,2.44167 0,0.23764 -5.360723,2.90769 -10.31875,5.13952 -5.698211,2.56503 -12.42467,4.74957 -18.341656,5.9568 -2.083015,0.42499 -9.142772,1.17291 -9.704178,1.02807 -0.07276,-0.0188 -0.928797,-0.12702 -1.902304,-0.24054 z"
       id="path5" /><path
       style="fill:#000000"
       d="m 173.19173,283.97729 c -1.73863,-1.20043 -1.7826,-1.25775 -1.26864,-1.65364 0.29284,-0.22556 0.95887,-0.74088 1.48008,-1.14516 0.52121,-0.40428 1.4196,-1.43004 1.99644,-2.27946 0.76682,-1.1292 1.92402,-2.20859 4.30428,-4.01488 18.94919,-14.37979 37.32787,-32.61844 50.90536,-50.51748 18.01272,-23.74596 29.65868,-49.31753 33.81524,-74.24969 1.5538,-9.32011 2.05669,-15.45127 2.0385,-24.85314 -0.028,-14.4897 -1.8803,-28.191664 -5.57748,-41.258633 C 257.42182,71.763417 251.55323,59.55691 244.92216,50.801823 229.27562,30.143514 207.45512,18.21729 183.62083,17.29695 c -15.68627,-0.605712 -31.88613,4.080296 -45.9052,13.278646 -9.73127,6.384987 -19.3373,16.154512 -25.02179,25.447657 -0.64458,1.05378 -1.25435,1.916983 -1.35504,1.918229 -0.10069,0.0012 -1.13885,-1.396719 -2.30703,-3.106588 C 89.999564,26.977278 57.926756,12.656431 27.781248,18.555676 c -20.9034109,4.090638 -38.909426,16.03599 -51.794577,34.360988 -10.622213,15.106693 -17.461599,35.81687 -19.616079,59.398956 -0.506254,5.54127 -0.577772,7.17255 -0.591586,13.49375 -0.05354,24.4995 5.976574,47.81773 18.439585,71.30521 9.316728,17.55808 22.9652867,35.18502 40.768566,52.65209 9.81119,9.6259 17.727081,16.45145 28.206071,24.32094 1.418828,1.06551 2.579687,2.04314 2.579687,2.17251 0,0.12938 0.249354,0.76571 0.55412,1.41407 0.727953,1.54865 2.429113,3.45756 3.893573,4.36907 l 1.175117,0.73141 -1.638138,1.11244 c -0.900976,0.61184 -1.788438,1.05476 -1.972138,0.98427 -0.409723,-0.15723 -9.148806,-6.68233 -12.595867,-9.4048 -26.2233724,-20.7111 -47.75654,-44.35787 -61.831793,-67.90095 -16.695703,-27.9262 -24.889242,-58.6008 -23.410514,-87.64324 1.577504,-30.982414 9.622992,-55.80991 24.123556,-74.442658 14.289655,-18.361736 34.6016568,-30.55954 56.091668,-33.684278 19.95278,-2.9012185 40.794359,2.199454 58.605209,14.342768 7.744403,5.280081 16.052952,13.137603 21.828122,20.643188 l 0.66146,0.859651 2.1066,-2.720011 c 3.0216,-3.901443 12.00131,-12.784757 15.88507,-15.714542 7.08885,-5.347608 12.27927,-8.366098 19.8566,-11.547618 19.25484,-8.084601 38.9583,-8.8221312 58.06319,-2.173393 7.34303,2.555466 12.97724,5.399712 19.71146,9.950687 5.21462,3.524034 8.8306,6.522907 13.50169,11.197495 14.23777,14.248435 23.23391,31.462369 28.28269,54.118403 3.70751,16.637158 4.7322,34.675698 2.91578,51.329168 -2.73243,25.05179 -12.48748,50.73087 -28.2959,74.48583 -13.96302,20.9819 -32.33783,40.76175 -54.37197,58.52952 -6.61024,5.33033 -13.00617,10.1239 -13.50829,10.12408 -0.22628,9e-5 -1.2219,-0.55944 -2.21248,-1.24339 z"
       id="path4" /><path
       style="fill:#000000"
       d="m 110.73009,302.15735 c -0.0889,-0.14378 -0.33793,-0.93854 -0.55349,-1.76613 -0.83633,-3.21089 -2.14416,-4.7884 -5.02661,-6.06316 -1.76075,-0.77869 -1.82452,-1.35594 -0.21619,-1.9568 2.80209,-1.04686 4.15575,-2.57149 5.23407,-5.89513 0.7527,-2.32003 1.3171,-2.62322 1.75197,-0.94114 0.50618,1.95797 0.58029,2.16691 1.21994,3.43975 0.71539,1.42353 1.73945,2.2849 3.88336,3.26642 0.83061,0.38026 1.51019,0.85003 1.51019,1.04392 0,0.1939 -0.75469,0.70571 -1.67708,1.13735 -0.9224,0.43164 -2.10173,1.20944 -2.62074,1.72845 -0.9002,0.9002 -1.91339,3.07379 -2.24017,4.80582 -0.23348,1.23748 -0.86949,1.84101 -1.26525,1.20065 z m 2.9251,-8.0088 1.12595,-0.79364 -1.10047,-0.83632 c -0.60525,-0.45998 -1.41573,-1.41625 -1.80107,-2.12504 l -0.7006,-1.28873 -0.53194,1.03457 c -0.53008,1.03097 -1.47486,2.03453 -2.6592,2.82465 l -0.6236,0.41603 0.79052,0.4088 c 0.97881,0.50616 2.07052,1.77873 2.5876,3.01628 l 0.39155,0.93709 0.69766,-1.40003 c 0.44681,-0.89662 1.10252,-1.68539 1.8236,-2.19366 z"
       id="path3" /><path
       style="fill:#000000"
       d="m 159.2567,320.91501 c -10.0683,-6.09343 -22.38237,-17.39856 -28.9654,-26.59216 -3.17493,-4.43398 -8.38033,-13.8195 -10.13719,-18.2777 l -0.54007,-1.37048 1.15511,-0.67694 c 0.63531,-0.37231 1.38353,-0.99052 1.66272,-1.37378 l 0.50762,-0.69685 1.06607,0.67299 c 1.60882,1.0156 8.62969,4.48884 11.88759,5.88082 4.02519,1.71981 9.193,3.46287 12.94165,4.36511 5.68982,1.36944 12.82063,1.94289 16.39749,1.31864 1.30663,-0.22803 1.34735,-0.21403 3.30729,1.13733 1.09141,0.75252 5.07611,3.48438 8.85489,6.07082 3.77879,2.58643 6.97666,4.89227 7.10638,5.12407 0.15564,0.27811 0.11359,0.53571 -0.12364,0.75735 -0.68855,0.64332 -8.25516,3.53534 -14.97606,5.72397 -2.68236,0.8735 -3.26187,1.155 -3.36969,1.6368 -0.0716,0.32003 -0.79366,3.97516 -1.60455,8.1225 -0.81088,4.14735 -1.59223,7.91705 -1.73633,8.37713 -0.2121,0.67715 -0.67976,1.14787 -1.14041,1.14787 -0.0368,0 -1.06889,-0.60637 -2.29347,-1.34749 z"
       id="path2" /><path
       style="fill:#000000"
       d="m 105.98838,322.38148 c -7.723979,-4.11686 -23.201256,-13.56122 -24.20404,-14.76951 -0.196607,-0.23689 -0.48074,-0.43072 -0.631406,-0.43072 -0.150665,0 -1.177884,0.80921 -2.282707,1.79824 -2.925018,2.61845 -6.147927,5.25349 -9.096529,7.43728 -2.910416,2.15551 -7.971034,5.41917 -8.808994,5.68105 -1.202666,0.37584 -1.416843,-0.38686 -3.594421,-12.7999 -0.446744,-2.54662 -0.851765,-4.77341 -0.900047,-4.94844 -0.04828,-0.17502 -1.135477,-0.63567 -2.41599,-1.02367 -2.653039,-0.80386 -10.487943,-3.61911 -13.837581,-4.97214 -3.299208,-1.33265 -3.253261,-1.56777 0.853117,-4.36542 4.199736,-2.86126 10.579713,-7.23877 12.845504,-8.81372 1.741412,-1.21046 1.807823,-1.23204 3.102421,-1.00796 1.853478,0.3208 6.033951,0.3117 9.072408,-0.0198 8.846893,-0.96509 18.12053,-4.13976 28.905053,-9.89516 l 4.238983,-2.26222 0.922539,0.92254 c 0.50739,0.50739 1.27783,1.10626 1.71209,1.33083 0.43425,0.22456 0.78955,0.45421 0.78955,0.51034 0,0.2957 -2.01606,4.74256 -3.444333,7.59722 -2.290175,4.57734 -4.209135,7.75584 -7.445389,12.33232 -0.850131,1.2022 -1.545692,2.2321 -1.545692,2.28866 0,0.25618 11.109424,7.08766 17.485124,10.75208 l 3.65178,2.09885 5.63728,-3.21432 c 3.1005,-1.76788 7.46909,-4.34749 9.70798,-5.73248 3.89753,-2.41102 4.08689,-2.49648 4.45116,-2.00879 0.86871,1.16306 0.90578,1.40092 0.28001,1.79645 -5.83307,3.68694 -19.49457,11.54521 -20.0712,11.54521 -0.65256,0 -13.112524,-7.3042 -19.157759,-11.23054 -1.600729,-1.03966 -3.036411,-1.96712 -3.190405,-2.06101 -0.256278,-0.15626 -4.000119,3.94991 -3.783371,4.14953 0.05204,0.0479 2.237735,1.45055 4.85711,3.11695 5.557117,3.53535 12.206995,7.4684 17.528535,10.3672 l 3.7702,2.05373 5.35792,-2.97033 c 2.94686,-1.63368 8.32938,-4.75555 11.96116,-6.93749 l 6.60324,-3.96717 1.92263,2.08592 c 1.05745,1.14725 1.89074,2.19097 1.85176,2.31938 -0.039,0.12841 -3.10172,2.06817 -6.80608,4.31059 -10.36522,6.27453 -19.85109,11.46348 -20.95532,11.46295 -0.3281,-1.6e-4 -2.72943,-1.13712 -5.33629,-2.52657 z"
       id="path1" /></g></svg>
