<?xml version="1.0" encoding="UTF-8" standalone="no"?>
<!-- Created with Inkscape (http://www.inkscape.org/) -->

<svg
   width="321.48895mm"
   height="321.94119mm"
   viewBox="0 0 321.48895 321.94119"
   version="1.1"
   id="svg1"
   xml:space="preserve"
   sodipodi:docname="stamp_goal_cherry_blossom_8.svg"
   inkscape:version="1.4.4 (dcaf3e7, 2026-05-05)"
   xmlns:inkscape="http://www.inkscape.org/namespaces/inkscape"
   xmlns:sodipodi="http://sodipodi.sourceforge.net/DTD/sodipodi-0.dtd"
   xmlns="http://www.w3.org/2000/svg"
   xmlns:svg="http://www.w3.org/2000/svg"><sodipodi:namedview
     id="namedview1"
     pagecolor="#ffffff"
     bordercolor="#000000"
     borderopacity="0.25"
     inkscape:showpageshadow="2"
     inkscape:pageopacity="0.0"
     inkscape:pagecheckerboard="0"
     inkscape:deskcolor="#d1d1d1"
     inkscape:document-units="mm"
     inkscape:zoom="0.021367773"
     inkscape:cx="608.39283"
     inkscape:cy="584.9931"
     inkscape:window-width="944"
     inkscape:window-height="250"
     inkscape:window-x="0"
     inkscape:window-y="33"
     inkscape:window-maximized="0"
     inkscape:current-layer="layer1"><inkscape:page
       x="9.6583515e-22"
       y="0"
       width="321.48892"
       height="321.94119"
       id="page2"
       margin="0"
       bleed="0" /></sodipodi:namedview><defs
     id="defs1" /><g
     inkscape:label="Layer 1"
     inkscape:groupmode="layer"
     id="layer1"
     transform="translate(49.653216,-5.8249385)"><path
       style="fill:#000000"
       d="m 110.3538,56.693093 c -1.66137,-4.449006 -3.20195,-6.049688 -7.31026,-7.59543 -1.18583,-0.446164 -2.20409,-0.905226 -2.26281,-1.020138 -0.0587,-0.114913 0.90526,-0.622936 2.14219,-1.12894 4.26975,-1.746676 5.78946,-3.316041 7.45365,-7.697171 0.46421,-1.22209 0.95125,-2.18624 1.0823,-2.142556 0.13106,0.04368 0.62957,1.119662 1.10782,2.391061 1.28496,3.415981 2.42692,4.986441 4.43591,6.100395 0.91466,0.507165 2.46682,1.199607 3.44923,1.538759 0.98241,0.339152 1.74665,0.735288 1.69831,0.880303 -0.0483,0.145014 -0.91166,0.567963 -1.91849,0.939887 -4.73189,1.747959 -6.27932,3.34755 -7.90855,8.1751 -0.31632,0.937287 -0.69379,1.743711 -0.83882,1.792054 -0.14502,0.04834 -0.65374,-0.956653 -1.13048,-2.233324 z"
       id="path26" /><path
       style="fill:#000000"
       d="m 132.53544,76.663019 c -1.42578,-5.242947 -0.26477,-10.339697 3.04421,-13.363918 1.36215,-1.244928 3.43034,-2.444936 4.2138,-2.444936 0.42685,0 0.7003,1.627813 0.7003,4.168828 0,1.658243 0.0193,1.707447 0.59531,1.519869 2.14029,-0.696948 5.12674,-1.377302 5.30399,-1.208321 0.40452,0.385658 -0.33905,3.604143 -1.26766,5.486904 -1.60326,3.250606 -5.06786,5.68522 -9.34529,6.567034 -2.83719,0.584902 -2.89163,0.572731 -3.24466,-0.72546 z"
       id="path25" /><path
       style="fill:#000000"
       d="m 67.708882,85.75402 c -4.145529,-1.62192 -6.654187,-5.081938 -6.618747,-9.128777 0.0088,-1.003042 0.07842,-1.886161 0.154745,-1.962487 0.07632,-0.07632 1.087192,0.332576 2.24637,0.908669 l 2.107596,1.047442 0.162978,-0.804747 c 0.358426,-1.769823 1.026954,-3.582872 1.321118,-3.582872 0.678933,0 2.769565,2.204336 3.525655,3.717407 1.38723,2.776092 1.338842,5.757215 -0.144726,8.916448 -0.726757,1.547616 -0.915632,1.608558 -2.754989,0.888917 z"
       id="path24" /><path
       style="fill:#000000"
       d="m 164.2248,100.07864 c -0.062,-0.109136 -0.32369,-0.853277 -0.5816,-1.653641 -1.54925,-4.807726 -3.28123,-6.636256 -7.79491,-8.229436 -1.13188,-0.399514 -1.99308,-0.855823 -1.99308,-1.056035 0,-0.195827 0.84445,-0.664255 1.89963,-1.053749 4.47418,-1.651534 6.12304,-3.38361 7.91444,-8.313906 0.74408,-2.047839 1.22812,-2.152987 1.80414,-0.391911 1.14273,3.493694 2.62574,5.870977 4.39138,7.039418 0.58558,0.387522 2.10132,1.094521 3.3683,1.57111 1.26699,0.476589 2.34267,0.983677 2.39039,1.126862 0.0477,0.143186 -0.54436,0.467054 -1.31575,0.719708 -2.25819,0.739621 -4.65035,1.994435 -5.6465,2.961877 -1.06377,1.033121 -2.17078,3.121993 -3.01663,5.692207 -0.5263,1.599206 -1.06876,2.205736 -1.41981,1.587496 z m 2.58397,-8.955289 c 0.73367,-0.741687 1.57206,-1.480262 1.86311,-1.641278 0.49498,-0.273847 0.43875,-0.372385 -0.87058,-1.52561 -0.76986,-0.67807 -1.79288,-1.747733 -2.27339,-2.377029 l -0.87364,-1.144176 -0.99337,1.302596 c -0.54636,0.716428 -1.57716,1.731135 -2.29068,2.254904 -0.71352,0.52377 -1.2973,0.991559 -1.2973,1.039532 0,0.04797 0.58946,0.51993 1.30992,1.048794 0.72046,0.528864 1.75568,1.568823 2.30051,2.311019 l 0.99058,1.349448 0.40045,-0.634839 c 0.22025,-0.349161 1.00073,-1.241673 1.73439,-1.983361 z"
       id="path23" /><path
       style="fill:#000000"
       d="m 177.70047,113.00485 c -1.02523,-3.4523 -0.68473,-6.40739 1.02449,-8.89131 0.91783,-1.33385 3.09312,-3.04271 3.87319,-3.04271 0.44653,0 0.7581,1.44044 0.7581,3.50482 0,0.89711 0.0673,1.02156 0.46302,0.85606 0.98126,-0.4104 3.5722,-1.18588 3.96214,-1.18588 0.33582,0 0.37863,0.22556 0.23859,1.25677 -0.29611,2.1803 -0.95687,3.71007 -2.19949,5.09216 -1.41332,1.57195 -2.93112,2.51831 -5.14314,3.20676 -2.38273,0.7416 -2.53195,0.70166 -2.9769,-0.79667 z"
       id="path22" /><path
       style="fill:#000000"
       d="m 7.6909591,138.29225 c -0.4122702,-1.08435 -0.8117944,-3.64345 -0.8117944,-5.19984 0,-3.2048 1.4321064,-6.50667 3.7041663,-8.54034 1.212193,-1.085 3.873217,-2.4983 4.161372,-2.21014 0.0873,0.0873 0.214348,1.40921 0.282321,2.93757 0.06797,1.52836 0.165006,2.77883 0.215627,2.77883 0.05062,0 0.957749,-0.286 2.015839,-0.63555 1.05809,-0.34956 2.327694,-0.71993 2.821343,-0.82305 l 0.897543,-0.18748 -0.136339,1.81523 c -0.344667,4.58894 -3.90501,8.53838 -8.862076,9.83057 -3.6320069,0.94678 -4.0092447,0.96739 -4.2880019,0.2342 z"
       id="path21" /><path
       style="fill:#000000"
       d="m 162.84655,156.75637 c -0.43903,-0.21672 -0.95808,-0.64999 -1.15345,-0.96281 -0.5059,-0.81007 -0.67469,-3.32627 -0.31287,-4.66382 0.34027,-1.25788 0.47109,-1.27642 2.42916,-0.34423 l 0.95835,0.45624 0.95599,-0.8761 c 0.5258,-0.48186 1.14057,-0.87611 1.36616,-0.87611 0.23522,0 0.63186,0.51718 0.92993,1.21256 0.53775,1.25453 0.63562,2.6794 0.34832,5.0713 l -0.16685,1.38906 -2.27825,-0.006 c -1.47302,-0.004 -2.56038,-0.1453 -3.07649,-0.40007 z"
       id="path20" /><path
       style="fill:#000000"
       d="m -10.52674,156.83177 c -0.15003,-0.1819 -0.582645,-1.10606 -0.961366,-2.05369 -0.37872,-0.94764 -1.252813,-2.42266 -1.942427,-3.27784 -0.689614,-0.85518 -1.361161,-1.6993 -1.492325,-1.87582 -0.16198,-0.21799 0.252329,-0.89951 1.29155,-2.12454 0.841517,-0.99197 1.889296,-2.61697 2.328397,-3.61111 0.439101,-0.99414 0.898371,-1.80752 1.020601,-1.80752 0.122229,0 0.710302,0.97072 1.3068281,2.15715 0.5965261,1.18643 1.6694174,2.77551 2.384203,3.53129 0.7147855,0.75578 1.2996101,1.46936 1.2996101,1.58573 0,0.11637 -0.547259,0.79664 -1.2161312,1.51172 -0.7491877,0.80094 -1.6642636,2.25912 -2.38327,3.79775 -0.6419264,1.37369 -1.211183,2.49761 -1.265014,2.49761 -0.05383,0 -0.220626,-0.14883 -0.370656,-0.33073 z"
       id="path19" /><path
       style="fill:#000000"
       d="m 23.15104,158.89264 c -0.145521,-0.0441 -1.017916,-0.29446 -1.938656,-0.55636 l -1.674072,-0.47618 0.168674,-0.94411 c 0.261519,-1.46379 1.565371,-4.07401 2.615873,-5.23679 1.704053,-1.88618 5.754499,-3.53612 7.536722,-3.07005 0.54076,0.14141 0.540546,0.14614 -0.07966,1.76788 -0.342031,0.89435 -0.702327,1.82419 -0.800658,2.0663 -0.146113,0.35976 0.07862,0.49544 1.229831,0.74246 0.774737,0.16625 1.740818,0.4444 2.146846,0.61813 l 0.738232,0.31587 -0.800812,1.26034 c -1.382674,2.17608 -4.415,3.65595 -7.404404,3.61356 -0.810332,-0.0115 -1.592394,-0.057 -1.737915,-0.10105 z"
       id="path18" /><path
       style="fill:#000000"
       d="m 230.5597,162.35299 c -0.0928,-0.24179 -0.1173,-1.59786 -0.0545,-3.01349 0.0856,-1.92823 0.26789,-2.92365 0.72686,-3.96826 0.7682,-1.74838 2.96701,-3.81412 4.6817,-4.39838 2.06926,-0.70506 2.04656,-0.72707 1.86749,1.8104 -0.12404,1.75766 -0.0853,2.20754 0.18126,2.10525 0.18645,-0.0716 1.19226,-0.22126 2.23511,-0.33269 1.82189,-0.19466 1.89611,-0.18053 1.89611,0.36116 0,2.32112 -2.56374,5.63021 -5.32057,6.8674 -2.08822,0.93714 -5.9369,1.28934 -6.21348,0.56861 z"
       id="path17" /><path
       style="fill:#000000"
       d="m 206.24271,165.52832 c -2.02851,-0.65593 -3.71472,-1.70367 -5.10126,-3.16974 -1.44562,-1.52853 -2.85552,-4.11451 -3.12145,-5.72525 -0.2863,-1.73407 -0.39682,-1.70048 -1.4368,0.43673 -1.16102,2.38594 -3.53049,4.87193 -5.58795,5.86273 -1.58795,0.7647 -4.05801,1.37346 -5.57288,1.37346 -1.53011,0 -1.64139,-0.25705 -1.49611,-3.45607 l 0.0971,-2.13766 -0.66427,0.14811 c -0.36535,0.0815 -1.63994,0.22617 -2.83243,0.32158 l -2.16817,0.17349 -0.18215,-0.72575 c -0.32476,-1.29395 0.0599,-5.21467 0.66902,-6.81859 0.83764,-2.20578 2.59358,-4.43898 4.48166,-5.6998 0.89308,-0.59637 1.50315,-1.15888 1.35569,-1.25001 -0.14745,-0.0911 -0.36493,-0.10585 -0.48328,-0.0327 -0.3627,0.22416 -3.8149,-0.66131 -5.07648,-1.30209 -1.72059,-0.87391 -3.38272,-2.398 -4.49939,-4.1257 -1.04629,-1.61881 -2.04677,-4.6378 -1.66386,-5.02072 0.16396,-0.16396 4.20163,-1.30846 5.01733,-1.42219 0.0246,-0.003 -0.42094,-0.95846 -0.99007,-2.12229 -1.34308,-2.74652 -1.33475,-3.11708 0.0855,-3.80091 2.77911,-1.33812 5.90095,-1.67363 8.7592,-0.94136 1.92802,0.49395 3.28355,1.24252 5.01854,2.7714 l 1.27619,1.12458 -0.21785,-1.03176 c -0.11982,-0.56747 -0.21785,-2.22238 -0.21785,-3.67759 0,-2.5072 0.0515,-2.7537 0.98295,-4.70438 1.04891,-2.19667 3.0876,-4.51309 4.71065,-5.35241 l 0.89842,-0.46459 0.76226,0.89507 c 0.41925,0.49228 1.12031,1.52014 1.5579,2.28412 0.43759,0.76398 0.85147,1.38906 0.91974,1.38906 0.0683,0 0.41833,-0.34965 0.77793,-0.77701 0.3596,-0.42736 1.24942,-1.27569 1.97739,-1.88517 l 1.32357,-1.10816 1.07381,1.15757 c 3.39629,3.66121 4.11478,9.58245 1.68931,13.92209 -0.34617,0.61936 -0.57192,1.1261 -0.50169,1.1261 0.0702,0 0.56787,-0.3008 1.10586,-0.66844 2.2402,-1.53088 6.52855,-2.19244 9.34878,-1.44223 1.4181,0.37723 3.75291,1.60655 4.98297,2.62362 0.85944,0.71062 0.89539,0.80181 0.56177,1.42518 -0.19603,0.3663 -0.94851,1.39773 -1.67216,2.29208 -0.72365,0.89435 -1.2741,1.64842 -1.22322,1.67572 0.0509,0.0273 0.77983,0.40626 1.61989,0.84216 0.84007,0.43589 1.83675,1.0369 2.21486,1.33558 l 0.68747,0.54304 -0.59522,1.16672 c -0.8999,1.76396 -3.14325,3.7905 -5.46814,4.93966 -1.96698,0.97226 -2.14344,1.00962 -4.76834,1.00962 -1.49917,0 -2.72585,0.0375 -2.72595,0.0832 -1.1e-4,0.0458 0.37769,0.40118 0.83954,0.7898 1.27044,1.06901 2.74608,3.53702 3.26829,5.46621 0.56167,2.07499 0.42684,4.89108 -0.32989,6.88992 -0.49812,1.31576 -0.50689,1.32265 -1.61964,1.2719 -0.61534,-0.0281 -1.78384,-0.35548 -2.59666,-0.7276 -0.81282,-0.37212 -1.523,-0.67659 -1.57818,-0.67659 -0.0552,0 -0.10759,0.50602 -0.11648,1.12448 -0.009,0.61847 -0.22077,1.77933 -0.47085,2.57969 -0.4091,1.30932 -0.53347,1.46068 -1.2406,1.50975 -0.43226,0.03 -1.26218,-0.0995 -1.84426,-0.28768 z M 198.7344,152.3827 c 0.84508,-0.45227 1.0431,-1.31998 0.51212,-2.24411 -0.38766,-0.67468 -0.43748,-1.21078 -0.30539,-3.28619 0.0915,-1.43847 0.28039,-2.52045 0.44966,-2.57633 0.47459,-0.15664 3.28005,3.77161 3.28005,4.59278 0,0.8434 0.93459,1.94365 1.65101,1.94365 2.00377,0 2.66085,-2.91942 0.75102,-3.33678 -0.37523,-0.082 -0.76092,-0.16844 -0.85707,-0.19209 -0.0962,-0.0236 -0.8882,-0.93576 -1.7601,-2.02691 -2.09282,-2.61908 -2.0045,-2.78451 1.59257,-2.98281 2.49129,-0.13734 2.76566,-0.10502 3.21664,0.37891 0.59419,0.63761 1.64962,0.48159 2.35124,-0.34758 0.60824,-0.71882 0.58458,-1.321 -0.0854,-2.17268 -0.65651,-0.83462 -1.62306,-0.90697 -2.35384,-0.17619 -0.37402,0.37402 -1.027,0.56349 -2.3151,0.67175 -0.98678,0.0829 -2.24992,0.20858 -2.80698,0.27922 -0.76298,0.0967 -0.99141,0.0401 -0.92604,-0.22956 0.11243,-0.46377 3.81529,-3.64338 4.01286,-3.44581 0.39666,0.39667 1.54454,-0.25768 1.95239,-1.11296 0.41979,-0.88031 0.41535,-0.95353 -0.0999,-1.6467 -1.05419,-1.41825 -2.81433,-0.91836 -3.23008,0.91737 -0.1816,0.80189 -3.61585,4.25718 -3.92449,3.94855 -0.10075,-0.10075 -0.0527,-1.35887 0.10677,-2.79583 0.22217,-2.00191 0.43171,-2.80439 0.89639,-3.4329 0.49613,-0.67104 0.56001,-0.95227 0.3512,-1.54603 -0.5412,-1.53888 -2.66896,-1.65698 -3.33948,-0.18536 -0.25673,0.56346 -0.22938,0.83783 0.15459,1.55082 0.39744,0.73799 0.43866,1.24564 0.27839,3.42889 -0.10346,1.40946 -0.2805,2.61976 -0.39344,2.68955 -0.33493,0.207 -3.01482,-3.65505 -3.03545,-4.37445 -0.033,-1.1513 -0.38416,-1.78554 -1.16838,-2.11037 -1.17313,-0.48593 -2.39646,0.40495 -2.39646,1.74519 0,0.64739 1.04059,1.6863 1.69977,1.69703 0.36774,0.006 1.00813,0.6266 1.93825,1.87844 1.77834,2.39342 1.79491,2.67207 0.13229,2.22378 -3.03289,-0.81777 -4.29948,-1.25497 -4.29948,-1.4841 0,-0.44831 -1.04967,-1.30414 -1.59952,-1.30414 -0.72001,0 -1.84006,1.14993 -1.84006,1.88915 0,1.25165 1.98833,2.36577 2.79136,1.56408 0.30697,-0.30646 5.85134,1.11838 5.71619,1.469 -0.0794,0.20593 -3.62015,1.02081 -6.74613,1.55258 -0.94564,0.16086 -1.00424,0.22261 -0.83839,0.88342 0.24425,0.97316 0.30251,1.00076 1.26988,0.60158 2.13344,-0.88036 5.02996,-1.8733 5.43304,-1.86247 0.28593,0.008 -0.11267,0.52543 -1.12034,1.45521 -1.12879,1.04154 -1.77321,1.44328 -2.31511,1.44328 -1.75817,0 -2.40652,2.18357 -0.9662,3.25407 0.61516,0.45721 0.81515,0.48501 1.48703,0.20671 0.74588,-0.30895 1.5129,-1.43461 1.25828,-1.84661 -0.17517,-0.28343 3.71731,-4.0901 4.00224,-3.914 0.13898,0.0859 0.14023,1.20207 0.003,2.70251 -0.17806,1.9473 -0.35401,2.67646 -0.73868,3.06113 -1.42119,1.42118 0.37096,3.56885 2.1732,2.60431 z m 9.31516,-5.65797 c 0.41182,-0.31212 0.43549,-0.45873 0.15883,-0.98378 -0.43272,-0.82122 -0.74892,-1.00499 -1.73754,-1.00982 -0.4566,-0.002 -1.61584,-0.3717 -2.57608,-0.82105 -2.45341,-1.14809 -2.77007,-0.81934 -0.50624,0.52557 1.04125,0.6186 2.07671,1.40482 2.30102,1.74716 0.22431,0.34233 0.67866,0.67441 1.00966,0.73794 0.33101,0.0635 0.66136,0.12795 0.73413,0.14314 0.0728,0.0152 0.35006,-0.13744 0.61622,-0.33916 z"
       id="path16" /><path
       style="fill:#000000"
       d="m 210.95993,189.7724 c -1.87617,-5.39695 -3.20713,-6.92198 -7.35192,-8.42393 -0.867,-0.31418 -1.61389,-0.68382 -1.65976,-0.82143 -0.0459,-0.13761 0.90162,-0.62531 2.10553,-1.08379 3.51789,-1.3397 4.89036,-2.78909 6.29854,-6.65157 0.39749,-1.09027 0.8381,-2.02078 0.97913,-2.06779 0.14104,-0.047 0.63813,0.98161 1.10466,2.28582 1.38032,3.85879 2.48326,4.97545 6.53572,6.61699 0.93257,0.37776 1.68002,0.8059 1.66099,0.95143 -0.019,0.14552 -0.88433,0.5645 -1.92288,0.93108 -1.03856,0.36658 -2.32019,0.93343 -2.84806,1.25967 -1.28705,0.79544 -2.67902,2.91961 -3.54913,5.41602 -0.71665,2.05611 -1.05279,2.45056 -1.35282,1.5875 z"
       id="path15" /><path
       style="fill:#000000"
       d="m 118.6905,195.10659 c -6.44385,-1.17821 -11.93285,-3.97796 -16.23289,-8.27984 -4.742181,-4.74421 -7.588775,-10.56388 -8.621314,-17.62571 l -0.348173,-2.38125 -0.450622,1.52567 c -1.667908,5.647 -5.916648,11.64291 -10.884377,15.36025 -2.542433,1.90249 -7.076563,4.13151 -10.257068,5.04246 -4.220767,1.2089 -10.259269,1.51559 -14.613765,0.74221 l -1.058334,-0.18796 -0.169721,-1.58402 c -0.09335,-0.87122 -0.182644,-2.87197 -0.198437,-4.44613 -0.02604,-2.59562 -0.07183,-2.84904 -0.491738,-2.72183 -0.254661,0.0771 -2.129895,0.38244 -4.167187,0.67843 -4.347799,0.63166 -4.024956,0.7933 -4.901601,-2.454 -1.467372,-5.4355 -1.660135,-10.82159 -0.569898,-15.92383 1.870651,-8.75453 7.563784,-16.43237 15.128791,-20.40289 l 1.455208,-0.76378 -1.190625,-0.0775 c -10.869298,-0.70779 -19.594435,-5.71066 -25.578564,-14.66639 -2.765977,-4.13951 -4.489631,-8.50707 -5.496057,-13.92645 -0.647872,-3.48864 -0.705242,-3.33552 1.50086,-4.00561 1.051411,-0.31935 2.807583,-0.76906 3.902605,-0.99935 1.095021,-0.23029 2.037702,-0.45399 2.094847,-0.49711 0.05714,-0.0431 -0.203877,-0.94447 -0.580048,-2.00298 -1.039021,-2.92372 -1.823458,-5.9942 -1.616804,-6.328572 0.287398,-0.46502 5.292144,-2.738428 7.682541,-3.489798 5.278128,-1.659066 11.856071,-2.102929 16.839115,-1.136261 6.669076,1.293743 13.330189,4.697712 17.949189,9.172411 1.045779,1.01311 1.956076,1.84202 2.022882,1.84202 0.06681,0 0.03508,-0.20836 -0.07049,-0.46302 -0.105577,-0.25466 -0.482035,-1.53459 -0.836574,-2.84427 C 78.15135,99.376793 77.828837,93.747377 78.27929,90.864144 79.862057,80.73327 86.356377,71.729517 95.594789,66.857861 c 0.989998,-0.522052 1.942498,-0.889762 2.116667,-0.817134 0.366885,0.15299 1.471633,1.614073 3.850514,5.092487 l 1.69183,2.473811 1.66702,-1.716934 c 0.91686,-0.944314 2.51574,-2.447403 3.55306,-3.340198 l 1.88604,-1.623263 0.81527,0.469512 c 0.44839,0.258231 2.03656,1.630789 3.52926,3.050129 7.80535,7.421759 11.38958,17.457941 9.77972,27.384102 -0.47592,2.934427 -1.64678,6.660307 -2.88825,9.190897 -0.49899,1.01714 -0.88223,1.8744 -0.85163,1.905 0.0306,0.0306 0.82558,-0.48858 1.76661,-1.15373 2.42255,-1.71233 7.11667,-3.90441 9.91306,-4.62924 2.0655,-0.53539 2.97766,-0.61427 6.87917,-0.59488 3.94693,0.0196 4.80581,0.10514 7.01145,0.69811 5.2974,1.42419 10.59436,4.36507 14.57031,8.08947 l 1.93617,1.81368 -0.35945,0.8678 c -0.1977,0.47729 -1.23069,2.18678 -2.29552,3.79886 -1.06484,1.61209 -1.90837,2.94796 -1.87452,2.96861 0.0339,0.0207 1.44844,0.79277 3.14352,1.71583 1.69509,0.92306 3.35086,1.88111 3.67951,2.12901 0.59495,0.44877 0.59557,0.45688 0.14469,1.8735 -0.79454,2.49637 -3.23715,7.19864 -4.93805,9.50627 -4.30102,5.83522 -10.61014,10.16156 -17.57853,12.05408 -2.36736,0.64295 -3.11923,0.72099 -7.14375,0.74155 -2.47386,0.0126 -5.0817,-0.0764 -5.79521,-0.19776 l -1.29728,-0.22073 1.61699,1.34568 c 3.03965,2.52962 5.75172,6.42688 7.50598,10.78615 3.36773,8.36866 3.00872,17.40464 -1.0525,26.49053 -1.25499,2.80771 -1.27138,2.82898 -2.12734,2.76049 -0.68868,-0.0551 -5.50717,-1.52193 -6.81791,-2.07547 -0.17967,-0.0759 -0.41289,0.4782 -0.59858,1.42205 -0.16733,0.8505 -0.63427,2.61114 -1.03766,3.91253 l -0.73343,2.36616 -2.23986,0.0471 c -1.23193,0.0259 -3.18117,-0.12498 -4.33166,-0.33534 z m -22.227886,-34.1358 c 2.118917,-1.00549 2.586727,-3.792 0.92453,-5.50695 l -0.833168,-0.85962 0.670929,-6.65976 c 0.36901,-3.66287 0.670928,-6.89725 0.670928,-7.18753 0,-0.29027 0.148828,-0.52716 0.330729,-0.52642 0.347743,10e-4 1.323169,1.47626 5.423728,8.20074 2.36042,3.87083 2.48445,4.14665 2.20963,4.91358 -0.5304,1.48013 -0.36448,2.65742 0.51581,3.66002 1.1556,1.31616 2.35764,1.65747 3.84155,1.09076 2.65328,-1.0133 3.28026,-4.18481 1.19955,-6.06782 -0.30585,-0.2768 -1.11778,-0.64588 -1.80429,-0.82019 -1.20273,-0.30539 -1.3066,-0.41233 -2.8514,-2.9357 -5.95808,-9.7323 -6.05418,-9.90534 -5.49187,-9.88908 0.10914,0.003 3.29008,1.28308 7.06876,2.84427 l 6.87032,2.83853 0.18653,0.92183 c 0.115,0.56833 0.56101,1.26501 1.16306,1.81675 0.89412,0.8194 1.08636,0.88436 2.27834,0.76982 3.55477,-0.34156 4.62312,-4.93946 1.53282,-6.59681 -1.15941,-0.62179 -2.28296,-0.61213 -3.33387,0.0287 l -0.83665,0.51015 -6.90974,-2.93798 c -3.80036,-1.61589 -6.81715,-3.02323 -6.70398,-3.12742 0.11317,-0.10419 2.76561,-0.74216 5.89431,-1.41771 3.12869,-0.67555 6.56049,-1.41712 7.6262,-1.64794 l 1.93766,-0.41966 0.70817,0.66001 c 1.01365,0.94472 1.72312,1.25384 2.87772,1.25384 2.30034,0 4.04816,-1.77066 4.04816,-4.10105 0,-4.32911 -5.59849,-5.69809 -7.54062,-1.84389 -0.29104,0.57758 -0.54913,1.08994 -0.57352,1.13859 -0.0244,0.0486 -1.33408,0.37316 -2.91041,0.72114 -7.67836,1.69503 -12.5763,2.76229 -12.67684,2.76229 -0.52822,0 0.58355,-1.31621 4.92212,-5.82722 l 5.03323,-5.23328 1.01535,0.13619 c 3.06875,0.4116 5.26816,-3.40231 3.30647,-5.73364 -1.33143,-1.58232 -2.82289,-1.96359 -4.5238,-1.15646 -1.3731,0.65158 -1.96531,1.76342 -1.87176,3.51411 l 0.0771,1.44242 -5.20532,5.30446 c -3.81762,3.89032 -5.284684,5.22696 -5.50299,5.01376 -0.220334,-0.21517 -0.161107,-1.69297 0.227984,-5.68854 0.289104,-2.96881 0.605036,-6.30448 0.702076,-7.41258 0.17093,-1.95193 0.20362,-2.02771 1.04844,-2.43058 0.47961,-0.22871 1.17598,-0.81435 1.54749,-1.30142 2.12707,-2.78874 -0.0969,-6.76577 -3.619155,-6.47211 -3.797733,0.31661 -5.278336,5.0038 -2.327087,7.36692 l 0.772546,0.61859 -0.354296,3.43959 c -0.194863,1.89177 -0.486812,4.98739 -0.648777,6.87916 -0.288416,3.36875 -0.562576,4.63021 -1.006305,4.63021 -0.121844,0 -0.472884,-0.44648 -0.780087,-0.99219 -0.307204,-0.5457 -2.104208,-3.3624 -3.993342,-6.25933 l -3.43479,-5.26714 0.407714,-0.85498 c 0.829562,-1.73961 -0.328766,-4.05627 -2.327553,-4.65513 -2.015384,-0.60382 -4.237146,0.72306 -4.616158,2.75687 -0.386743,2.0753 1.259974,4.1594 3.286473,4.1594 1.073966,0 0.465231,-0.81124 5.901695,7.865 2.538457,4.05121 3.105019,5.09959 2.755903,5.09959 -0.171007,0 -7.255078,-2.87527 -11.211019,-4.5503 -2.991085,-1.26649 -3.770313,-1.70164 -3.770313,-2.10549 0,-0.27997 -0.231266,-0.96236 -0.513925,-1.51642 -1.337096,-2.62093 -4.731567,-3.03636 -6.730549,-0.82373 -1.26224,1.39715 -1.468284,2.79701 -0.651386,4.42552 0.877211,1.74874 1.769246,2.32146 3.615783,2.32146 1.143542,0 1.705532,-0.14521 2.355071,-0.60851 l 0.853119,-0.6085 7.307072,3.03606 c 4.018889,1.66983 7.375533,3.10451 7.459208,3.18819 0.08367,0.0837 0.09586,0.20841 0.02708,0.27719 -0.06878,0.0688 -2.49964,0.66515 -5.401909,1.32526 -2.902269,0.66011 -6.186918,1.42044 -7.299218,1.68963 l -2.022366,0.48943 -0.831158,-0.65048 c -1.840376,-1.44031 -4.318704,-0.92678 -5.298875,1.09799 -0.297474,0.61449 -0.540861,1.33974 -0.540861,1.61165 0,0.88658 1.029237,2.64685 1.82114,3.11464 1.698967,1.0036 4.126333,0.26097 4.976877,-1.52264 0.24265,-0.50885 0.628066,-0.98005 0.856479,-1.04713 0.228412,-0.0671 3.489284,-0.79834 7.246382,-1.62503 4.445349,-0.97813 6.921338,-1.41283 7.089502,-1.24466 0.168164,0.16816 -1.426152,2.14394 -4.565006,5.65724 -4.09166,4.57978 -4.926243,5.38992 -5.501176,5.34008 -1.186074,-0.10282 -2.603714,0.44015 -3.295397,1.26217 -1.538555,1.82846 -0.945972,4.45956 1.243064,5.51925 1.033633,0.50037 1.353213,0.54346 2.246635,0.30288 2.15963,-0.58152 3.367051,-2.44239 2.744148,-4.22925 -0.304968,-0.87483 -0.167932,-1.04529 8.48482,-10.55472 1.599604,-1.75798 1.749555,-1.48097 1.356646,2.50614 -0.18429,1.87011 -0.478313,5.09454 -0.653385,7.16539 -0.262837,3.10899 -0.39544,3.78967 -0.760853,3.90565 -1.728642,0.54865 -2.664242,3.42236 -1.642772,5.04579 0.967643,1.53789 2.993039,2.08857 4.700927,1.27812 z"
       id="path14" /><path
       style="fill:#000000"
       d="m 95.388924,209.6385 c -1.755161,-0.53844 -3.998568,-2.05913 -4.925527,-3.33876 -0.860901,-1.18844 -1.827981,-3.60345 -1.827981,-4.56487 0,-0.78171 0.444866,-0.82334 2.778125,-0.25995 0.873125,0.21082 1.661131,0.38756 1.751124,0.39274 0.08999,0.005 0.163624,-0.94725 0.163624,-2.11653 0,-1.16927 0.07254,-2.19849 0.161207,-2.28715 0.08866,-0.0887 0.726054,0.0545 1.416424,0.31816 1.777064,0.67867 3.566429,2.45361 4.465827,4.42982 0.642233,1.41116 0.752313,1.99357 0.761873,4.03075 0.006,1.30969 -0.0804,2.70867 -0.192307,3.10885 -0.192554,0.68854 -0.284886,0.72662 -1.719792,0.70918 -0.833972,-0.0101 -2.108641,-0.20014 -2.832597,-0.42224 z"
       id="path13" /><path
       style="fill:#000000"
       d="m 160.53757,220.08684 c -0.36613,-0.92032 -0.75352,-2.09002 -0.86087,-2.59934 -0.28577,-1.35584 -0.3269,-1.37414 -1.46867,-0.65338 -1.0414,0.65741 -3.8513,1.9763 -4.21052,1.9763 -0.22649,0 -1.38714,-2.35728 -1.88896,-3.83646 -0.57236,-1.68714 -0.44488,-6.03024 0.2309,-7.86688 0.57235,-1.5555 1.96045,-3.7979 2.69182,-4.34847 0.68128,-0.51285 0.1951,-0.61725 -0.98351,-0.21118 -5.03346,1.73417 -10.90293,-0.3226 -14.5442,-5.09656 l -0.67331,-0.88275 0.63332,-0.69047 c 0.59727,-0.65118 3.35975,-2.5823 3.99864,-2.79526 0.16175,-0.0539 -0.3321,-0.68377 -1.09746,-1.39967 -0.76535,-0.7159 -1.76122,-1.76838 -2.21304,-2.33885 l -0.82148,-1.03721 1.76746,-1.6745 c 2.73484,-2.59101 5.65012,-3.80508 9.1369,-3.80508 1.76887,0 4.39709,0.56599 5.65941,1.21877 0.40663,0.21028 0.73933,0.32205 0.73933,0.24837 0,-0.0737 -0.42633,-0.80042 -0.94741,-1.61499 -1.62287,-2.53696 -2.05616,-4.08949 -2.0632,-7.39277 -0.005,-2.43907 0.0943,-3.16498 0.61407,-4.48227 0.72042,-1.82565 2.32265,-4.64586 2.63944,-4.64586 0.11965,0 1.35852,0.76285 2.75304,1.69521 l 2.5355,1.69521 0.31354,-0.9676 c 0.48933,-1.51014 2.06956,-4.53948 2.36798,-4.53948 0.14784,0 1.00955,0.37269 1.9149,0.8282 3.08321,1.55127 5.41293,3.98305 6.52932,6.81535 0.77809,1.97404 1.15578,4.98135 0.8419,6.70356 -0.1399,0.76758 -0.20703,1.44354 -0.14917,1.50213 0.0579,0.0586 0.36739,-0.2268 0.68787,-0.63422 0.7954,-1.0112 2.14727,-2.21823 3.47591,-3.10351 3.38867,-2.25789 8.35164,-2.65748 12.25029,-0.98633 1.16823,0.50076 1.18376,0.52392 1.00968,1.50472 -0.0973,0.54788 -0.50587,1.85654 -0.90805,2.90814 l -0.73125,1.91201 0.96147,0.15362 c 1.85148,0.29582 4.53922,0.97721 4.66642,1.18301 0.26936,0.43584 -0.4432,3.12057 -1.31849,4.9677 -1.64128,3.46357 -5.44155,6.37533 -8.9236,6.83724 -0.69744,0.0925 -1.26763,0.24217 -1.26709,0.33257 5.3e-4,0.0904 0.80421,0.57655 1.78593,1.08035 4.3683,2.24172 6.94434,6.56593 6.94434,11.65696 0,1.81789 -0.0382,1.83783 -3.53056,1.84322 l -2.33993,0.004 0.21802,1.38906 c 0.11992,0.76399 0.22039,2.04391 0.22327,2.84427 l 0.005,1.45521 -1.97784,0.24207 c -2.38296,0.29166 -4.85878,-0.0697 -7.01691,-1.02411 -1.7918,-0.79242 -4.6419,-3.43642 -5.71676,-5.30337 l -0.76165,-1.32292 -0.006,1.19062 c -0.0254,4.72719 -2.96936,9.426 -7.19165,11.47842 -3.18695,1.54915 -3.20429,1.54735 -3.98394,-0.41241 z m 10.99597,-14.81339 c 1.4568,-0.7759 1.61051,-2.00761 0.40142,-3.2167 -0.65205,-0.65205 -0.97372,-1.3666 -1.4499,-3.22079 -0.68442,-2.66501 -0.73109,-3.04429 -0.37462,-3.04429 0.13636,0 1.27876,0.64721 2.53866,1.43825 1.57559,0.98925 2.42743,1.71189 2.72862,2.3148 0.61621,1.23346 1.64012,1.68303 2.64713,1.16229 1.30436,-0.67452 1.49793,-2.15828 0.42194,-3.23427 -0.5603,-0.56031 -0.83213,-0.64686 -1.58684,-0.50528 -0.78287,0.14687 -1.24418,-0.0258 -3.28631,-1.23007 -1.377,-0.81204 -2.37825,-1.57644 -2.38191,-1.81846 -0.005,-0.30068 0.74704,-0.64758 2.68578,-1.23964 2.49521,-0.76199 2.74774,-0.79334 3.45281,-0.42874 1.99934,1.0339 3.80865,-1.61064 2.2015,-3.21778 -0.92282,-0.92282 -1.88162,-0.8399 -2.88676,0.24966 -0.63176,0.68482 -1.44342,1.10602 -3.40568,1.76733 -1.41694,0.47752 -2.6506,0.79388 -2.74146,0.70302 -0.0909,-0.0909 0.46548,-1.19361 1.2363,-2.45057 1.12499,-1.83447 1.59354,-2.36221 2.3748,-2.67481 2.19367,-0.87774 1.81194,-3.80032 -0.49638,-3.80032 -1.31687,0 -1.89806,0.62308 -1.89806,2.03489 0,0.91991 -0.2862,1.64877 -1.38675,3.53164 -0.76271,1.30488 -1.5014,2.3343 -1.64154,2.28758 -0.14014,-0.0467 -0.58402,-1.38651 -0.98639,-2.97733 -0.67928,-2.68558 -0.7031,-2.95348 -0.33311,-3.74663 0.35649,-0.76419 0.35513,-0.93809 -0.0129,-1.64981 -0.69097,-1.33619 -2.63501,-1.41435 -3.47031,-0.13952 -0.54758,0.8357 -0.31723,1.81437 0.63183,2.68445 0.54857,0.50292 0.87902,1.28971 1.40735,3.35088 0.37974,1.48151 0.60724,2.78762 0.50554,2.90247 -0.32216,0.36387 -4.77205,-2.43728 -5.10093,-3.21097 -0.48345,-1.13731 -1.02461,-1.62806 -1.79529,-1.62806 -0.96755,0 -1.80242,0.73765 -2.00145,1.7684 -0.13247,0.68601 -0.0308,0.97421 0.54781,1.55281 0.59868,0.59869 0.8635,0.68556 1.68321,0.55215 0.84537,-0.13759 1.26722,0.0201 3.2217,1.20432 1.23693,0.74945 2.29857,1.40185 2.35921,1.44977 0.31396,0.24814 -0.52409,0.49048 -3.17867,0.91918 l -2.93005,0.47318 -0.77228,-0.57097 c -0.94774,-0.7007 -1.99713,-0.44277 -2.60503,0.64028 -0.82952,1.4779 0.6622,3.19106 2.2522,2.58654 0.40175,-0.15274 0.85922,-0.44226 1.0166,-0.64338 0.16636,-0.21258 1.5045,-0.54944 3.19657,-0.80468 1.60073,-0.24147 3.02948,-0.4592 3.175,-0.48384 0.661,-0.11194 0.26908,1.20624 -1.00403,3.37693 -1.10957,1.89186 -1.54355,2.40551 -2.17512,2.57442 -1.58478,0.42383 -2.02151,2.38027 -0.75392,3.37735 0.93377,0.7345 1.82999,0.69112 2.64935,-0.12824 0.54878,-0.54877 0.65316,-0.86121 0.55246,-1.65365 -0.10364,-0.81561 0.11289,-1.40322 1.31064,-3.55672 0.78913,-1.41883 1.53245,-2.57969 1.65181,-2.57969 0.11937,0 0.53134,1.25434 0.91549,2.78741 0.51492,2.05493 0.62779,2.91945 0.42953,3.2899 -0.49856,0.93157 -0.31702,2.04853 0.42822,2.63474 0.7964,0.62645 1.21473,0.67597 2.03223,0.24057 z m -10.00541,-6.03941 c 0.7276,-0.66277 1.66851,-1.47198 2.09091,-1.79824 0.4224,-0.32627 0.69436,-0.66684 0.60437,-0.75683 -0.20843,-0.20844 -3.72754,1.81289 -4.93164,2.83266 -0.8824,0.74731 -0.89592,0.78642 -0.39763,1.15078 0.58842,0.43026 0.60105,0.42341 2.63399,-1.42837 z m 18.00724,-3.82144 c 0.70512,-0.52042 0.27001,-0.8967 -1.28304,-1.10956 -1.01155,-0.13865 -1.24608,-0.0954 -1.24608,0.22977 0,0.45728 0.9876,1.22427 1.60308,1.24498 0.22685,0.008 0.64356,-0.1567 0.92604,-0.36519 z"
       id="path12" /><path
       style="fill:#000000"
       d="m 90.749348,236.47175 c -1.178429,-3.23195 -2.070419,-4.15358 -5.099617,-5.26905 -0.841762,-0.30998 -1.493885,-0.67336 -1.449161,-0.80754 0.04472,-0.13417 0.912032,-0.58997 1.927352,-1.01289 2.304474,-0.95991 3.545778,-2.27513 4.497213,-4.765 0.386307,-1.01096 0.787609,-1.8381 0.891782,-1.8381 0.104174,0 0.568831,0.92799 1.032571,2.06221 1.027782,2.51375 2.004899,3.51452 4.430679,4.53794 1.006287,0.42454 1.868161,0.88754 1.915276,1.02888 0.04711,0.14135 -0.498448,0.451 -1.21236,0.68813 -2.269754,0.75389 -3.551772,1.75443 -4.457501,3.47882 -0.45224,0.86101 -0.964894,2.01196 -1.139229,2.55766 -0.174336,0.54571 -0.41085,0.99219 -0.525587,0.99219 -0.114737,0 -0.479875,-0.74396 -0.811418,-1.65325 z"
       id="path11" /><path
       style="fill:#000000"
       d="m 121.84754,243.33104 c -0.20714,-0.31671 -0.56293,-1.02231 -0.79063,-1.56802 -0.22771,-0.5457 -0.44218,-0.9909 -0.47661,-0.98932 -0.0344,0.002 -0.64706,0.18017 -1.36141,0.39687 -2.06471,0.62635 -2.2208,0.568 -3.0153,-1.12734 -0.93922,-2.00414 -1.00118,-5.333 -0.13486,-7.2451 l 0.55539,-1.22583 -1.49279,-0.16892 c -1.65045,-0.18676 -3.77227,-1.0732 -5.22967,-2.18481 -1.17716,-0.89787 -2.74541,-2.91843 -2.74541,-3.53725 0,-0.25373 0.63076,-0.97716 1.4017,-1.60762 l 1.40169,-1.14628 -1.06279,-1.54015 c -1.23148,-1.78461 -1.20328,-1.90638 0.79701,-3.44111 2.16547,-1.66148 5.86285,-2.48366 8.17976,-1.81893 l 0.79201,0.22723 v -2.93921 c 0,-2.73878 0.056,-3.05734 0.8209,-4.67153 0.87559,-1.84772 2.31756,-3.69164 2.88691,-3.69164 0.19014,0 0.96462,0.48922 1.72106,1.08716 l 1.37535,1.08715 1.18247,-1.35174 c 0.65036,-0.74345 1.38159,-1.34875 1.62497,-1.34511 0.70183,0.0105 2.58972,1.58614 3.74265,3.1236 1.22084,1.62803 1.85923,3.51716 1.85923,5.50188 v 1.39231 l 1.25677,-0.5787 c 1.0257,-0.4723 1.74323,-0.57901 3.9026,-0.58043 2.32576,-0.002 2.83082,0.0849 4.17501,0.7148 1.68601,0.79004 1.66892,0.72557 0.846,3.19205 l -0.33303,0.99818 1.45683,0.71334 c 0.80126,0.39234 1.5147,0.86411 1.58541,1.04839 0.22845,0.59534 -1.44285,3.73074 -2.71175,5.0873 -0.67851,0.72538 -1.76347,1.57535 -2.41102,1.88882 -1.13335,0.54865 -1.16183,0.5911 -0.76182,1.13558 1.70198,2.31671 2.25541,3.92682 2.25541,6.56174 0,2.0155 0.0225,1.99533 -2.38125,2.1362 -1.18773,0.0696 -1.19079,0.0724 -1.26114,1.12811 -0.15426,2.31499 -0.0795,2.24896 -2.54709,2.24896 -2.56272,0 -3.9245,-0.40692 -5.74945,-1.71801 l -1.28402,-0.92249 -0.64089,1.26473 c -1.08316,2.13751 -3.54582,4.07675 -6.05272,4.76624 -0.89653,0.24658 -1.03744,0.21573 -1.37548,-0.3011 z m 2.45102,-2.2697 c 2.18466,-1.11996 3.75779,-3.35735 4.34345,-6.17748 0.17377,-0.83675 0.38142,-1.52115 0.46145,-1.52089 0.08,2.6e-4 0.48198,0.53309 0.89324,1.18405 1.42233,2.25138 3.58481,3.57255 6.18979,3.78165 l 1.66143,0.13336 v -1.6027 c 0,-1.56415 0.019,-1.60688 0.79041,-1.77631 0.43473,-0.0955 1.17887,-0.13512 1.65365,-0.0881 l 0.86323,0.0855 -0.0329,-1.34091 c -0.0599,-2.4415 -1.89709,-5.27924 -4.02883,-6.22284 -1.11765,-0.49472 -0.91833,-0.86339 0.58288,-1.07813 2.50617,-0.35849 5.11084,-2.20655 6.24601,-4.43166 0.29706,-0.58229 0.54011,-1.12954 0.54011,-1.21611 0,-0.0866 -0.68461,-0.4595 -1.52135,-0.82876 -0.83675,-0.36925 -1.55267,-0.70158 -1.59093,-0.73852 -0.0383,-0.0369 0.23168,-0.74834 0.59988,-1.5809 0.3682,-0.83256 0.61135,-1.60776 0.54034,-1.72267 -0.26987,-0.43665 -3.29994,-0.8771 -4.77024,-0.6934 -1.58765,0.19837 -4.06904,1.35503 -5.18377,2.41634 l -0.68129,0.64863 0.0198,-3.37855 c 0.0179,-3.05651 -0.0396,-3.49206 -0.60316,-4.56919 -0.58882,-1.12533 -2.58834,-3.43958 -2.97181,-3.43958 -0.0975,0 -0.6805,0.65222 -1.2955,1.44937 l -1.11819,1.44938 -1.57041,-1.2084 c -1.839,-1.41508 -1.92186,-1.3871 -3.03618,1.02547 -0.65781,1.42419 -0.75964,1.95735 -0.74467,3.89876 0.014,1.81522 0.15424,2.57647 0.72717,3.94714 0.3904,0.934 0.64903,1.75898 0.57472,1.83328 -0.0743,0.0743 -0.76358,-0.12539 -1.53173,-0.44377 -2.30064,-0.95357 -4.0706,-1.2218 -5.74063,-0.86999 -1.47066,0.30981 -4.23333,1.6977 -4.23333,2.12671 0,0.12796 0.48055,0.8697 1.06789,1.64829 l 1.06789,1.41563 -0.61454,0.52917 c -0.338,0.29104 -1.01323,0.86244 -1.50051,1.26977 l -0.88598,0.7406 0.78675,0.97919 c 0.43638,0.54312 1.55549,1.3744 2.51297,1.86665 1.87317,0.963 3.52045,1.16167 6.25279,0.75413 l 1.41121,-0.21049 -0.80312,1.00424 c -0.44172,0.55234 -1.13007,1.71862 -1.52967,2.59174 -0.8586,1.87607 -0.97679,4.40606 -0.28131,6.0217 l 0.42816,0.99461 1.67974,-0.63225 1.67975,-0.63225 0.6033,1.55587 c 0.33181,0.85572 0.71738,1.55586 0.85682,1.55586 0.13944,0 0.69527,-0.22645 1.23517,-0.50324 z"
       id="path10" /><path
       style="fill:#000000"
       d="m 123.88806,230.67389 c -0.52409,-0.52409 -0.38109,-1.23292 0.34466,-1.70845 0.36976,-0.24228 0.97267,-0.95304 1.33978,-1.57948 0.54057,-0.92241 0.6122,-1.24227 0.37672,-1.68226 -0.23947,-0.44745 -0.54887,-0.54328 -1.75405,-0.54328 -0.80481,0 -1.69809,0.12566 -1.98506,0.27924 -0.28697,0.15358 -0.76218,0.20294 -1.05601,0.10968 -0.41397,-0.13139 -0.51597,-0.35807 -0.45303,-1.00685 0.0962,-0.99152 0.91248,-1.25129 1.8558,-0.59056 0.62354,0.43674 3.3848,0.59296 3.3848,0.19149 0,-0.12279 -0.71821,-0.79931 -1.59603,-1.50338 -1.43161,-1.14826 -1.55438,-1.32177 -1.19179,-1.68437 0.3626,-0.3626 0.53548,-0.26224 1.67816,0.97421 1.26957,1.37375 2.33172,1.84217 2.07577,0.91543 -0.0703,-0.25466 -0.20472,-1.02856 -0.29863,-1.71979 -0.0939,-0.69122 -0.26977,-1.25677 -0.3908,-1.25677 -0.33271,0 -0.57301,-0.8061 -0.40144,-1.34666 0.19709,-0.62097 1.10195,-0.90214 1.59266,-0.49489 0.43394,0.36014 0.517,1.46365 0.12826,1.7039 -0.14075,0.087 -0.20527,0.48097 -0.14337,0.87551 0.47053,2.99895 0.38864,2.79338 0.92082,2.31176 0.26833,-0.24283 0.75082,-1.05811 1.07219,-1.81171 0.32138,-0.75361 0.61985,-1.40961 0.66327,-1.45778 0.13966,-0.15495 1.18259,0.49479 1.18259,0.73674 0,0.12852 -0.53578,0.86136 -1.19062,1.62853 -1.25857,1.47445 -1.41689,1.82335 -0.82738,1.82335 0.64135,0 2.83826,-1.08412 2.98808,-1.47454 0.19189,-0.50007 1.25899,-0.48284 1.68226,0.0272 0.26273,0.31657 0.26791,0.55388 0.0238,1.08968 -0.26951,0.59152 -0.42636,0.66212 -1.14962,0.51747 -0.50034,-0.10007 -1.34904,0.002 -2.10805,0.2545 -1.01666,0.33768 -1.27053,0.54107 -1.27053,1.01791 0,0.70317 1.80982,2.27198 2.62101,2.27198 1.04977,0 1.37564,1.84628 0.39246,2.22356 -0.58904,0.22604 -1.42597,-0.30594 -1.42597,-0.90639 0,-0.56079 -1.76785,-2.35672 -2.33132,-2.36835 -0.2635,-0.005 -0.30309,0.29509 -0.16461,1.24962 0.10027,0.69122 0.28616,1.4573 0.41308,1.70239 0.12692,0.2451 0.23077,0.69986 0.23077,1.01059 0,0.43455 -0.13742,0.54545 -0.59532,0.48042 -0.47891,-0.068 -0.58644,-0.23975 -0.54995,-0.8783 0.067,-1.17249 -0.4577,-3.34623 -0.78165,-3.23825 -0.33026,0.11009 -1.37225,2.1008 -1.69498,3.23825 -0.24475,0.86262 -1.05195,1.17344 -1.60671,0.61868 z"
       id="path9" /><path
       style="fill:#000000"
       d="M 43.523957,250.36311 C 37.828292,245.0282 34.165865,241.61645 9.6572898,218.81442 4.4185397,213.94045 -4.4526807,205.66511 -10.056533,200.42477 -24.091853,187.29989 -30.626285,181.227 -37.51017,174.91022 c -3.238632,-2.97183 -6.493581,-6.18652 -7.233219,-7.14375 -3.587566,-4.643 -5.499542,-11.43773 -4.747833,-16.87273 0.859529,-6.21457 2.921278,-10.43957 7.142139,-14.63592 4.135095,-4.11107 32.468135,-29.96187 64.970956,-59.278879 6.497513,-5.86065 19.940153,-17.767929 44.31771,-39.255926 C 73.706301,31.75838 83.231476,23.360701 88.106636,19.061506 98.292154,10.079336 98.50353,9.9059537 100.80625,8.6445713 c 7.13718,-3.909597 15.72399,-3.7437852 22.61698,0.4367351 2.35176,1.4263176 6.30386,4.8034476 23.28262,19.8953746 5.24184,4.659311 13.16202,11.678509 17.6004,15.598216 11.70955,10.341151 21.93454,19.51192 32.00304,28.703474 23.40032,21.362176 30.45151,27.837569 38.9053,35.728279 1.96453,1.83368 9.72011,9.06891 17.23461,16.07828 7.80885,7.28392 14.19831,13.45678 14.91274,14.40717 1.63262,2.17187 2.87086,4.66368 3.74679,7.53995 0.63198,2.07527 0.71006,2.76612 0.72623,6.42628 0.0211,4.77925 -0.3996,6.7005 -2.34967,10.7302 -1.53554,3.17308 -3.35668,5.43781 -7.32849,9.11355 -4.52922,4.19161 -31.91735,29.78426 -51.54846,48.16912 -26.94105,25.23074 -37.26244,34.77931 -37.41918,34.61742 -0.0555,-0.0573 0.096,-1.5839 0.33673,-3.39237 l 0.43765,-3.28812 9.525,-8.88184 c 5.23875,-4.88501 14.2875,-13.35145 20.10834,-18.81431 5.82083,-5.46286 17.90567,-16.76872 26.85521,-25.12413 29.68764,-27.7168 32.41055,-30.32026 33.56016,-32.08798 2.11527,-3.25258 3.09853,-6.11567 3.38726,-9.86314 0.37494,-4.86643 -1.75096,-10.59261 -5.27624,-14.21175 -1.15526,-1.18601 -14.76392,-13.86633 -21.22273,-19.77498 -1.03396,-0.94589 -5.68308,-5.2442 -10.33138,-9.55181 C 214.95747,96.630713 210.47937,92.497773 204.77498,87.292106 186.42782,70.549025 173.3326,58.805774 149.75417,37.951732 131.19793,21.539588 128.04049,18.758018 125.03538,16.175497 c -4.79469,-4.120429 -8.26985,-5.585025 -13.24892,-5.583722 -3.78714,9.92e-4 -7.73624,1.274366 -10.74992,3.466273 -0.67371,0.489999 -5.608463,4.760439 -10.966124,9.489866 C 84.712754,28.277341 76.270393,35.718747 71.309614,40.084373 39.01272,68.506546 18.81128,86.534869 -2.3948175,105.86024 c -37.9010045,34.53964 -38.3888535,35.00059 -40.0146345,37.80851 -1.59173,2.74911 -2.353671,5.46683 -2.505994,8.9385 -0.28296,6.4491 1.759377,10.77918 7.646791,16.21241 7.868468,7.26147 22.154279,20.53409 27.7436528,25.77599 3.4197396,3.20715 8.71802097,8.1458 11.7739585,10.97477 3.0559376,2.82897 6.5087502,6.04397 7.6729168,7.14445 1.1641669,1.10047 4.5536259,4.26162 7.5321309,7.02477 2.978505,2.76315 10.241317,9.54145 16.139583,15.0629 5.898266,5.52145 11.752521,11.00098 13.009455,12.17674 l 2.285334,2.13775 0.455528,3.38274 c 0.25054,1.86051 0.412765,3.42337 0.360499,3.47303 -0.05227,0.0497 -2.833467,-2.47471 -6.180446,-5.60969 z"
       id="path8" /><path
       style="fill:#000000"
       d="m 107.59148,278.99829 c -5.25156,-1.3302 -9.72774,-5.83989 -11.156443,-11.23995 -0.505461,-1.9105 -0.498663,-6.09117 0.0131,-8.05596 1.860538,-7.14309 8.900563,-12.24617 16.101443,-11.67141 3.93914,0.31441 7.17338,1.81811 9.95279,4.62736 3.06514,3.09804 4.54771,6.72514 4.53221,11.08804 -0.024,6.74805 -4.19284,12.68962 -10.42668,14.86031 -2.1708,0.7559 -6.78673,0.95638 -9.01642,0.39161 z m 7.65817,-6.58652 c 2.79671,-1.28038 4.77244,-3.79462 5.39974,-6.87151 0.86364,-4.23614 -1.39165,-8.50957 -5.5093,-10.43927 -1.23355,-0.5781 -1.87934,-0.70369 -3.61821,-0.70369 -1.73888,0 -2.38467,0.12559 -3.61822,0.70369 -2.10211,0.98513 -3.76283,2.61096 -4.78232,4.68185 -0.76859,1.56121 -0.85927,1.98602 -0.85415,4.00118 0.005,1.87305 0.12386,2.50859 0.7039,3.75607 2.2452,4.82875 7.67052,6.98131 12.27856,4.87168 z"
       id="path7" /><path
       style="fill:#000000"
       d="m 110.77222,270.75695 c -0.27872,-0.27872 -0.20519,-1.6757 0.0882,-1.6757 0.15119,0 0.26458,-0.79375 0.26458,-1.85208 0,-1.01865 -0.0943,-1.85209 -0.20949,-1.85209 -0.37225,0 -2.3846,2.233 -2.47806,2.74977 -0.13368,0.73916 -0.90676,1.15317 -1.47964,0.7924 -0.90467,-0.56973 -0.59269,-1.95466 0.44033,-1.95466 0.6056,0 2.84721,-2.31526 2.5241,-2.60702 -0.14131,-0.1276 -1.0096,-0.12567 -1.97224,0.004 -2.82583,0.38176 -2.96055,0.37726 -3.27241,-0.10933 -0.58543,-0.91344 0.99259,-2.05493 1.76834,-1.27918 0.32695,0.32696 3.62074,0.39745 3.62074,0.0775 0,-0.37224 -2.233,-2.38459 -2.74977,-2.47805 -0.73916,-0.13368 -1.15317,-0.90676 -0.7924,-1.47964 0.56299,-0.89398 1.95467,-0.59548 1.95467,0.41926 0,0.42594 2.0505,2.68959 2.43634,2.68959 0.4148,0 0.23174,-3.50562 -0.20847,-3.99205 -0.32884,-0.36336 -0.35506,-0.57938 -0.12299,-1.01302 0.35266,-0.65894 1.38733,-0.72849 1.88668,-0.12682 0.2959,0.35655 0.27994,0.55025 -0.0999,1.21207 -0.50939,0.88756 -0.6226,3.51862 -0.16361,3.80229 0.41635,0.25732 2.35736,-1.73305 2.35736,-2.41731 0,-0.87945 0.6668,-1.31211 1.46305,-0.94931 0.97114,0.44248 0.72527,1.89665 -0.32069,1.89665 -0.34996,0 -2.72986,2.15178 -2.72986,2.46819 0,0.28649 3.65689,0.20363 3.83646,-0.0869 0.0899,-0.14552 0.45188,-0.26458 0.80433,-0.26458 0.76166,0 1.17219,1.09166 0.64803,1.72323 -0.37236,0.44866 -1.20884,0.52287 -1.45236,0.12885 -0.1921,-0.31082 -3.83646,-0.36315 -3.83646,-0.0551 0,0.37224 2.233,2.38459 2.74977,2.47805 0.73916,0.13368 1.15317,0.90676 0.7924,1.47964 -0.61095,0.97013 -1.95467,0.57553 -1.95467,-0.57401 0,-0.60249 -1.77334,-2.53485 -2.32626,-2.53485 -0.50846,0 -0.40777,2.97844 0.13251,3.91983 0.37984,0.66182 0.3958,0.85552 0.0999,1.21207 -0.35457,0.42723 -1.37087,0.5756 -1.69851,0.24797 z"
       id="path6" /><path
       style="fill:#000000"
       d="m 56.766313,280.31686 c -2.847127,-0.72245 -4.937627,-2.36081 -5.956891,-4.66852 -1.253714,-2.83852 -1.223558,-6.83972 0.109944,-14.58753 0.830216,-4.82365 0.830226,-4.95751 8.01e-4,-10.42224 -0.39263,-2.58686 -0.654562,-5.378 -0.627981,-6.69173 l 0.0456,-2.25379 -2.216291,-2.13496 c -1.218959,-1.17423 -4.002227,-3.7894 -6.18504,-5.81148 -2.182812,-2.02208 -5.87375,-5.47102 -8.202083,-7.66432 C 27.337121,220.05605 17.360177,210.73022 9.2544765,203.2 5.2601061,199.48922 0.08527226,194.66302 -2.2451544,192.47512 c -2.3304267,-2.18791 -8.2773016,-7.72431 -13.2152776,-12.30313 -4.937976,-4.57881 -11.121694,-10.31465 -13.741596,-12.7463 -2.619902,-2.43164 -5.16023,-5.01315 -5.645173,-5.73668 -1.523224,-2.27263 -2.24832,-4.58007 -2.39627,-7.62554 -0.116113,-2.39012 -0.05188,-2.9568 0.556237,-4.90724 1.311853,-4.20757 1.352999,-4.25289 16.182023,-17.82203 C 12.609246,101.03317 38.745363,77.584642 72.628124,47.777797 82.523541,39.072746 93.34108,29.553849 96.6671,26.624693 c 6.65678,-5.862487 7.6468,-6.580292 10.33779,-7.495298 3.71345,-1.262665 7.57972,-1.023191 11.14302,0.69019 2.09454,1.007142 1.73317,0.706636 15.76989,13.113836 6.74547,5.962393 13.75277,12.148383 15.57178,13.746645 4.82469,4.239173 21.5819,19.178029 29.23646,26.063949 18.70272,16.824665 19.72376,17.758514 52.5233,48.038275 1.89021,1.745 15.49312,14.33358 22.22773,20.57028 3.35473,3.1067 4.65344,4.9403 5.57592,7.87243 1.18345,3.76161 0.87373,7.53042 -0.92778,11.28953 -1.05931,2.21041 -1.76842,2.96285 -10.21062,10.8346 -3.56526,3.32435 -9.34597,8.72536 -12.84602,12.00226 -3.50004,3.27689 -9.80757,9.17267 -14.01671,13.10174 -4.20915,3.92906 -10.45376,9.76621 -13.87691,12.97145 -3.42315,3.20524 -10.92688,10.22011 -16.67495,15.5886 -5.74807,5.36849 -12.12094,11.33405 -14.16193,13.2568 l -3.71088,3.49592 -0.0288,2.87591 c -0.0159,1.58174 -0.28071,4.47084 -0.58859,6.42022 -0.72571,4.59484 -0.71242,5.16566 0.25756,11.06435 0.69821,4.24606 0.80296,5.49108 0.71869,8.54237 -0.11928,4.31931 -0.60293,5.6999 -2.63764,7.52928 -2.10859,1.8958 -3.97924,2.39801 -8.82027,2.36796 -3.34848,-0.0208 -4.61686,-0.15607 -8.11559,-0.86562 -6.89349,-1.39802 -17.05367,-4.67268 -24.58858,-7.925 l -1.21874,-0.52605 0.65641,-1.94393 c 0.40877,-1.21054 0.70762,-2.8155 0.79215,-4.25413 l 0.13573,-2.3102 2.14639,-0.6544 c 4.93977,-1.50606 8.77451,-2.31854 11.6011,-2.45795 3.55213,-0.17521 4.50408,0.11893 4.38371,1.35448 -0.13719,1.40822 -2.35784,2.2421 -9.3405,3.50746 -0.9369,0.16978 -0.78511,0.21589 1.32292,0.4018 2.99401,0.26406 6.56868,-0.10393 8.31742,-0.85622 3.8609,-1.66091 4.26445,-5.73668 0.74804,-7.55509 -2.52472,-1.30558 -8.9263,-0.3224 -16.63876,2.55545 -1.54593,0.57686 -2.88539,1.04883 -2.97656,1.04883 -0.0912,0 -0.16899,-0.26789 -0.17293,-0.59531 -0.0108,-0.89584 -1.40876,-3.99747 -2.4635,-5.46558 l -0.93215,-1.29748 2.95818,-2.1063 c 13.27493,-9.4521 27.60686,-15.13866 36.63429,-14.53559 2.59067,0.17307 4.22638,0.66715 5.54938,1.67625 0.89598,0.6834 0.89806,0.68363 1.47337,0.16287 0.31688,-0.28682 6.46973,-6.03556 13.67301,-12.77498 15.88346,-14.86063 39.0923,-36.55102 44.70829,-41.78324 23.23326,-21.64559 24.00698,-22.40331 25.06723,-24.54857 0.98307,-1.98911 1.00052,-2.07774 1.00052,-5.08085 0,-2.89612 -0.0449,-3.15115 -0.85531,-4.86229 -1.0585,-2.23482 -0.70351,-1.8825 -18.04783,-17.91296 -41.13061,-38.014922 -62.44,-57.325352 -90.89894,-82.372014 -2.32834,-2.049162 -7.68615,-6.78246 -11.90625,-10.518439 -13.99931,-12.39333 -16.57032,-14.55358 -18.2824,-15.361496 -2.84759,-1.343758 -6.76999,-1.27329 -9.62233,0.172871 -0.65969,0.33447 -3.27824,2.436763 -5.81899,4.671761 -10.474416,9.213938 -16.549434,14.550049 -25.694518,22.569284 -5.30091,4.648316 -11.126299,9.774682 -12.94531,11.391924 -1.81901,1.617242 -9.200885,8.167673 -16.404167,14.556515 -7.203281,6.388842 -16.60398,14.77607 -20.890442,18.638285 -4.286463,3.862215 -9.108494,8.206229 -10.715626,9.653359 -1.607131,1.44713 -6.910651,6.2643 -11.785599,10.70482 -4.874948,4.44052 -10.8280731,9.86267 -13.229167,12.04922 -11.621286,10.58289 -19.805172,18.15726 -20.615187,19.07982 -2.80308,3.19253 -3.416205,8.27243 -1.473848,12.21122 0.798408,1.61904 1.44097,2.3792 4.249388,5.02708 l 3.308743,3.11961 27.7045147,0.13229 27.7045153,0.13229 1.058333,0.56939 c 3.476662,1.87046 4.984574,5.37791 3.874552,9.01234 -0.66511,2.17771 -1.639186,3.4106 -3.515895,4.45008 l -1.41699,0.78486 -8.069792,0.13229 c -7.360671,0.12067 -8.134917,0.17643 -8.810919,0.6346 -2.096284,1.42079 -1.960951,4.71232 0.253439,6.16405 0.675687,0.44297 1.883396,0.48693 16.747528,0.60968 l 16.019327,0.1323 1.322917,0.65514 c 2.961723,1.46673 4.64705,3.97967 4.840396,7.21737 0.144503,2.4198 -0.236045,4.02166 -1.306452,5.49932 -0.415701,0.57386 -0.755813,1.1337 -0.755805,1.2441 8e-6,0.1104 4.970867,0.21009 11.046354,0.22153 12.719721,0.0239 12.932556,0.0547 15.239115,2.20082 1.833478,1.70597 2.54831,3.34452 2.551308,5.84817 0.0041,3.39791 -1.707102,6.10645 -4.746265,7.51267 -1.133867,0.52464 -1.756926,0.56484 -10.686706,0.68942 l -9.482638,0.13229 -0.505383,0.62462 c -0.748078,0.92459 -0.660789,2.25744 0.191758,2.92805 0.610541,0.48025 1.063356,0.54837 3.645295,0.54837 3.333581,0 4.124232,0.29707 4.124232,1.54959 0,1.24578 -0.351898,1.36083 -4.162457,1.36083 -4.011188,0 -4.802276,-0.21808 -6.083148,-1.67691 -1.806757,-2.05778 -1.70156,-5.16643 0.236055,-6.97557 1.433588,-1.33853 1.94743,-1.40169 11.404311,-1.40169 h 8.82009 l 1.344953,-0.67022 c 3.895564,-1.94124 3.927927,-7.15725 0.05666,-9.13222 -0.993106,-0.50664 -1.647767,-0.51724 -27.899295,-0.45142 l -26.882324,0.0674 5.376847,5.03768 c 15.928143,14.92339 25.835813,24.17698 26.837379,25.06565 l 1.126093,0.99916 1.142105,-0.79443 c 5.307805,-3.69198 18.760092,-0.77596 32.627522,7.07261 2.539694,1.43739 9.952449,6.32585 11.22612,7.40324 l 0.90737,0.76754 -0.679337,0.90449 c -0.838429,1.1163 -1.883278,3.20086 -2.310004,4.60865 -0.17644,0.58208 -0.367067,1.2059 -0.423616,1.38625 -0.07297,0.23274 -1.084801,-0.0206 -3.485632,-0.87276 -6.975891,-2.47599 -12.508192,-3.48719 -15.147184,-2.7686 -1.348131,0.36708 -3.053473,1.90515 -3.328843,3.00231 -0.479779,1.91159 0.783853,3.93923 3.067054,4.92144 1.801036,0.77478 5.325559,1.14569 8.794455,0.92549 1.569544,-0.0996 2.8197,-0.21264 2.778125,-0.25114 -0.04157,-0.0385 -1.427863,-0.26702 -3.080639,-0.50783 -5.406432,-0.78771 -8.685494,-2.17481 -8.332469,-3.52478 0.46182,-1.76601 6.232432,-1.44332 13.851058,0.77452 1.527969,0.44481 3.148624,0.91599 3.601455,1.04707 l 0.823331,0.23833 0.134153,2.31277 c 0.08695,1.49904 0.371558,2.99283 0.80891,4.24568 l 0.674756,1.93291 -0.573906,0.22643 c -0.315649,0.12453 -2.419376,0.96275 -4.674949,1.86271 -7.921005,3.16042 -15.540438,5.47932 -21.779706,6.62844 -3.945961,0.72675 -9.572429,0.90599 -11.676897,0.37199 z m 2.178083,-4.23503 c 1.077776,-0.53767 5.180479,-1.06011 11.477225,-1.46152 2.814306,-0.17941 5.207811,-0.40531 5.3189,-0.50201 0.350376,-0.30496 -12.070016,-1.16013 -14.10405,-0.97109 -2.116247,0.19668 -4.141705,0.95691 -5.008922,1.88002 l -0.574515,0.61154 0.607354,0.42541 c 0.75857,0.53132 1.246767,0.53509 2.284008,0.0177 z m 107.069194,0.1007 c 0.83049,-0.37839 0.85089,-0.76052 0.0786,-1.47226 -0.79251,-0.73037 -2.83164,-1.38971 -4.89337,-1.58224 -1.93976,-0.18113 -14.66769,0.72354 -13.92483,0.98975 0.27269,0.0977 1.84328,0.25724 3.4902,0.35448 5.96496,0.3522 11.1572,0.95842 12.54875,1.46515 1.69544,0.61738 1.85238,0.63162 2.70065,0.24512 z M 45.640624,203.64729 c 2.40878,-1.07908 4.025197,-3.70936 3.743134,-6.09095 -0.08486,-0.71653 -0.376957,-1.73413 -0.649099,-2.26133 -0.601824,-1.16587 -2.359511,-2.55968 -3.69603,-2.93086 -0.624665,-0.17348 -6.417221,-0.27424 -15.820296,-0.27517 -16.928255,-0.002 -16.781593,0.0138 -18.774256,-1.97889 -0.7930432,-0.79305 -1.2769044,-1.5806 -1.5630162,-2.54404 -0.5197867,-1.75032 -0.5193967,-2.43726 0.00238,-4.19428 0.5217848,-1.75704 2.3819562,-3.7156 3.9795452,-4.19003 0.739883,-0.21972 3.411916,-0.32527 8.334375,-0.32922 6.477835,-0.005 7.357456,-0.0575 8.303678,-0.49426 1.864762,-0.86064 2.778125,-2.27198 2.778125,-4.29279 0,-1.89983 -1.406175,-3.64268 -3.381654,-4.19133 -1.199947,-0.33325 -50.682014,-0.38771 -50.54925,-0.0556 0.08691,0.21739 2.379764,2.36649 15.4340286,14.46638 3.6380209,3.37205 9.9038739,9.21578 13.9241178,12.98607 l 7.3095346,6.85507 14.783174,-0.002 c 13.637795,-0.002 14.865173,-0.0391 15.841508,-0.47643 z"
       id="path5" /><path
       style="fill:#000000"
       d="m 160.86667,320.75609 c -3.82205,-2.97186 -7.11785,-5.94888 -11.11645,-10.04125 -8.84262,-9.04999 -15.30188,-18.03649 -22.57757,-31.41125 l -2.19916,-4.04268 0.58464,-0.85323 c 0.32155,-0.46927 0.64493,-0.91352 0.71863,-0.98721 0.0737,-0.0737 1.69471,0.5231 3.60227,1.32621 14.15632,5.96006 27.51828,9.14322 34.16264,8.13842 l 1.71979,-0.26008 3.57187,1.98085 c 1.96454,1.08946 7.53634,3.94857 12.3818,6.35358 4.84545,2.405 8.76759,4.49968 8.71587,4.65485 -0.10783,0.32348 0.16554,0.22464 -12.60338,4.55682 -5.29632,1.79691 -9.72207,3.41662 -9.83501,3.59936 -0.19354,0.31316 -1.68312,7.78531 -2.89522,14.52327 -0.80121,4.45391 -0.72897,4.2347 -1.39149,4.22218 -0.32465,-0.006 -1.60231,-0.79806 -2.83923,-1.75984 z m -0.014,-8.05484 c 0.26036,-1.32338 0.25449,-1.68445 -0.0317,-1.95192 -0.19315,-0.18049 -1.6236,-1.41148 -3.17879,-2.73552 -7.51338,-6.39669 -15.69679,-15.17097 -22.81398,-24.46121 -1.42755,-1.86342 -2.64924,-3.33434 -2.71486,-3.26871 -0.13775,0.13774 2.96822,5.28383 5.29526,8.7734 3.65348,5.47866 8.28971,11.14796 13.39014,16.37379 3.37861,3.46167 9.2107,8.87855 9.57048,8.88911 0.0902,0.003 0.30777,-0.72587 0.48347,-1.61894 z m 10.85076,-15.14827 c 0.93976,-0.34301 1.74007,-0.72799 1.77848,-0.8555 0.0384,-0.12752 -0.3733,-0.43772 -0.9149,-0.68933 -2.23806,-1.03974 -8.29013,-4.46267 -14.95221,-8.45666 -3.89857,-2.33724 -7.14006,-4.19777 -7.20332,-4.13452 -0.27029,0.27029 7.84069,6.93978 12.04267,9.90243 1.75713,1.23888 7.39152,4.88354 7.51574,4.86163 0.0137,-0.002 0.79378,-0.28504 1.73354,-0.62805 z"
       id="path4" /><path
       style="fill:#000000"
       d="m 58.741682,322.19114 c -0.134367,-0.32455 -0.96797,-4.45963 -1.852451,-9.18905 -0.884481,-4.72943 -1.69477,-8.81259 -1.800643,-9.07369 -0.14053,-0.34657 -3.013179,-1.4269 -10.641064,-4.00185 -12.207535,-4.1209 -11.977132,-4.0346 -11.843388,-4.43584 0.126468,-0.3794 -0.672006,0.0411 8.670863,-4.56607 4.292864,-2.11689 9.650677,-4.85284 11.90625,-6.07989 l 4.101042,-2.231 2.240489,0.2868 c 6.439211,0.82425 18.191046,-1.93123 31.90001,-7.47968 4.862318,-1.96793 5.243306,-2.08061 5.566914,-1.64638 1.074681,1.44205 1.090358,1.36435 -1.08905,5.3977 -9.797428,18.1317 -20.69614,31.47684 -34.252738,41.94144 -2.190768,1.69109 -2.590805,1.83941 -2.906234,1.07751 z m 6.618138,-10.12183 c 5.679033,-4.94588 13.342378,-13.43283 18.337759,-20.3086 2.576248,-3.54601 7.443289,-11.26637 7.234273,-11.47538 -0.06695,-0.067 -1.109097,1.15329 -2.315878,2.71165 -7.823047,10.10221 -16.856823,19.68801 -25.049829,26.58056 -0.909505,0.76514 -1.653646,1.54516 -1.653646,1.73337 0,0.61446 0.569343,3.01409 0.715131,3.01409 0.07816,0 1.307649,-1.01506 2.73219,-2.25569 z m -8.932149,-16.0431 c 3.848142,-2.47001 5.985913,-4.00939 9.718162,-6.99791 3.212455,-2.57231 7.206116,-6.24228 6.085416,-5.59219 -0.363802,0.21103 -3.376026,2.01393 -6.693832,4.00644 -3.317806,1.99252 -8.349714,4.88592 -11.182018,6.42979 -2.832304,1.54386 -5.111661,2.84501 -5.065238,2.89144 0.280722,0.28072 3.552875,1.37696 3.830218,1.2832 0.184803,-0.0625 1.673085,-0.97182 3.307292,-2.02077 z"
       id="path3" /><path
       style="fill:#000000"
       d="m 118.02056,327.24212 c -0.30979,-0.74924 -1.221,-9.79247 -1.61752,-16.05286 -0.33183,-5.23895 -0.022,-10.19629 0.78354,-12.5377 l 0.48283,-1.40336 -0.84707,-0.97991 c -2.45148,-2.83594 -1.65697,-7.64533 1.47749,-8.94366 0.95619,-0.39607 0.95576,-0.68425 -0.006,-4.23971 l -0.75692,-2.79738 1.45584,-0.70454 c 0.80071,-0.38749 1.5507,-0.64591 1.66664,-0.57425 0.11594,0.0716 0.58828,1.73681 1.04966,3.70035 l 0.83886,3.57007 h 1.04406 c 3.83066,0 6.38304,4.6628 4.54182,8.29718 -0.35832,0.70728 -0.34038,0.80206 0.27535,1.45521 1.61964,1.71808 3.66195,6.23008 5.16653,11.41428 1.66903,5.75079 4.22955,15.94374 4.09392,16.29717 -0.12866,0.33529 -2.37566,1.16533 -3.15465,1.16533 -0.19482,0 -0.55647,-0.98844 -0.89545,-2.4474 -1.84039,-7.92101 -3.54823,-14.46836 -4.46873,-17.13177 -1.20808,-3.49555 -2.62367,-6.75875 -2.83869,-6.54373 -0.0808,0.0809 0.15818,0.99307 0.53119,2.02713 1.42915,3.96194 6.3572,24.08278 5.98917,24.45334 -0.28046,0.28239 -3.74685,1.02216 -3.93025,0.83877 -0.0743,-0.0743 -1.23581,-5.62129 -2.58109,-12.32658 -2.23276,-11.12879 -2.76038,-13.425 -2.76038,-12.01313 0,1.11905 2.16225,14.82035 3.55756,22.54285 0.25526,1.41273 0.26773,1.97369 0.0477,2.14498 -0.56432,0.4393 -3.7093,0.81245 -4.04447,0.47987 -0.47411,-0.47042 -2.33148,-16.98309 -2.64203,-23.48852 -0.2482,-5.19939 -0.68248,-3.91006 -0.67948,2.01731 0.002,4.62525 0.42094,9.43763 1.48444,17.06563 0.44308,3.17803 0.52958,4.44773 0.31799,4.66747 -0.15986,0.16601 -0.97399,0.38278 -1.80918,0.4817 -1.42038,0.16824 -1.53491,0.14018 -1.77238,-0.43414 z m 4.60455,-32.36667 c 2.14278,-0.4539 2.77313,-0.97083 2.96955,-2.4352 0.28887,-2.15373 -1.54225,-4.15498 -3.2186,-3.51763 -0.69534,0.26437 -0.70192,0.79613 -0.01,0.79613 0.63503,0 1.49102,1.36107 1.40554,2.23487 -0.0838,0.85663 -0.0198,0.82355 -3.32018,1.71573 -1.13643,0.30721 -1.38736,0.70777 -0.80698,1.28815 0.40384,0.40384 0.72901,0.39489 2.98053,-0.082 z"
       id="path2" /><path
       style="fill:#000000"
       d="m 102.46481,327.57006 c -0.61576,-0.10035 -1.20276,-0.26565 -1.30445,-0.36734 -0.10169,-0.10169 -0.0422,-1.22507 0.13215,-2.49641 1.39587,-10.17712 1.7132,-13.60869 1.73072,-18.71568 0.0126,-3.65739 -0.0794,-5.4551 -0.29761,-5.82084 -0.25829,-0.43282 -0.31724,-0.0164 -0.32382,2.28707 -0.009,3.28418 -0.21273,5.48612 -1.49912,16.23377 -0.52252,4.36562 -1.046652,8.04163 -1.164736,8.1689 -0.248398,0.26771 -3.398956,-0.0177 -3.949202,-0.35778 -0.310141,-0.19167 -0.169374,-1.40472 0.865643,-7.45959 1.602456,-9.3744 2.873005,-17.72588 2.719998,-17.87889 -0.163099,-0.16309 -0.445712,1.01419 -1.698704,7.07632 -0.586521,2.83765 -1.610364,7.75387 -2.275207,10.92494 -0.664843,3.17106 -1.208806,5.99176 -1.208806,6.26823 0,0.27648 -0.112436,0.57217 -0.249858,0.6571 -0.383262,0.23687 -4.002882,-0.65965 -4.143577,-1.0263 -0.19279,-0.5024 4.804596,-20.16451 5.955591,-23.43214 1.540196,-4.37256 0.543778,-3.16382 -1.432031,1.73717 -1.085219,2.69188 -2.298385,7.01512 -4.24567,15.12989 -0.7894,3.2896 -1.543654,6.08947 -1.67612,6.22194 -0.329065,0.32906 -3.107023,-0.50022 -3.292206,-0.98279 -0.152059,-0.39626 2.082996,-9.37811 3.691955,-14.83659 1.895193,-6.42954 3.715429,-10.53076 5.599335,-12.61602 0.858159,-0.94988 0.871141,-0.99777 0.446285,-1.64618 -0.240671,-0.36731 -0.502347,-1.38205 -0.581501,-2.25497 -0.123893,-1.36632 -0.04328,-1.79283 0.57946,-3.06566 0.920491,-1.88141 2.254212,-2.81895 4.245035,-2.98405 l 1.425266,-0.11819 0.42433,-1.88663 c 0.54282,-2.41343 1.4399,-5.4585 1.60808,-5.4585 0.0714,0 0.73354,0.30589 1.47135,0.67977 1.10349,0.55918 1.32012,0.78213 1.22118,1.25677 -0.0662,0.31735 -0.4024,1.80772 -0.7472,3.31193 -0.62049,2.70694 -0.62157,2.73784 -0.10549,3.01926 0.28678,0.15638 1.01372,0.77153 1.61543,1.36698 2.15294,2.13058 2.21692,5.16894 0.15944,7.57264 l -0.91054,1.06376 0.61889,2.17538 c 0.56765,1.99528 0.61731,2.65729 0.59989,7.99621 -0.0135,4.12223 -0.19187,7.40363 -0.6114,11.2448 -0.32583,2.98317 -0.659,6.13833 -0.74039,7.01145 -0.21587,2.31594 -0.30464,2.38289 -2.65239,2.00027 z m 0.61323,-32.73122 c 1.34055,-0.87837 1.78224,-2.61773 1.03276,-4.06705 -0.43824,-0.84746 -1.13128,-1.31762 -1.94226,-1.31762 -0.51588,0 -0.51518,0.0172 0.0421,1.03449 0.45888,0.83775 0.51577,1.1774 0.29914,1.78594 -0.29665,0.83334 -0.67877,0.89411 -3.224854,0.51289 l -1.389063,-0.20798 v 0.81354 c 0,0.67086 0.127608,0.84265 0.727604,0.97956 0.400183,0.0913 1.322917,0.32089 2.050523,0.51017 1.74397,0.45367 1.64177,0.45554 2.40408,-0.0439 z"
       id="path1" /></g></svg>
