<?xml version="1.0" encoding="UTF-8" standalone="no"?>
<!-- Created with Inkscape (http://www.inkscape.org/) -->

<svg
   width="324.35776mm"
   height="328.00906mm"
   viewBox="0 0 324.35776 328.00906"
   version="1.1"
   id="svg1"
   xml:space="preserve"
   sodipodi:docname="stamp_goal_star_2.svg"
   inkscape:version="1.4.4 (dcaf3e7, 2026-05-05)"
   xmlns:inkscape="http://www.inkscape.org/namespaces/inkscape"
   xmlns:sodipodi="http://sodipodi.sourceforge.net/DTD/sodipodi-0.dtd"
   xmlns="http://www.w3.org/2000/svg"
   xmlns:svg="http://www.w3.org/2000/svg"><sodipodi:namedview
     id="namedview1"
     pagecolor="#ffffff"
     bordercolor="#000000"
     borderopacity="0.25"
     inkscape:showpageshadow="2"
     inkscape:pageopacity="0.0"
     inkscape:pagecheckerboard="0"
     inkscape:deskcolor="#d1d1d1"
     inkscape:document-units="mm"
     inkscape:zoom="0.02097249"
     inkscape:cx="619.85963"
     inkscape:cy="643.70038"
     inkscape:window-width="944"
     inkscape:window-height="250"
     inkscape:window-x="0"
     inkscape:window-y="33"
     inkscape:window-maximized="0"
     inkscape:current-layer="layer1"><inkscape:page
       x="0"
       y="0"
       width="324.35776"
       height="328.00906"
       id="page2"
       margin="0"
       bleed="0" /></sodipodi:namedview><defs
     id="defs1" /><g
     inkscape:label="Layer 1"
     inkscape:groupmode="layer"
     id="layer1"
     transform="translate(51.057185,-2.9155614)"><path
       style="fill:#000000"
       d="m 107.55312,330.69074 c -2.83089,-0.36083 -6.52228,-1.42668 -8.935597,-2.58006 -5.320449,-2.54276 -1.22696,1.41353 -74.011275,-71.53081 -37.180573,-37.26232 -68.119252,-68.41576 -68.752619,-69.22988 -2.658769,-3.4175 -4.803122,-7.88177 -5.98519,-12.46041 -0.950237,-3.68066 -1.218557,-10.21867 -0.571543,-13.92652 0.838444,-4.80489 2.621526,-9.31447 5.331365,-13.48353 1.34852,-2.07468 6.093106,-6.9304 39.7881401,-40.72016 C 75.115669,25.833259 90.820319,10.200434 92.86875,8.7572982 101.99516,2.327668 113.60059,1.1260477 123.86772,5.547681 c 5.25254,2.2620517 4.27788,1.3619288 37.79633,34.90619 73.16861,73.224959 104.18026,104.467169 105.35714,106.140429 2.56299,3.64402 4.32248,7.46933 5.40858,11.75882 0.91326,3.60691 1.14687,9.89156 0.51579,13.87604 -0.90855,5.73637 -3.66975,11.78821 -7.37047,16.15417 -0.83911,0.98995 -18.30552,18.54348 -90.06732,90.51657 -49.29168,49.43681 -46.92471,47.19594 -52.30151,49.51524 -5.02575,2.16788 -10.38537,2.94704 -15.65314,2.2756 z m 6.89226,-6.33013 c 3.77153,-0.52458 7.37542,-1.94254 10.65081,-4.19059 1.65864,-1.1384 79.53889,-79.06042 127.35276,-127.42106 10.52262,-10.64295 11.03518,-11.28304 13.03394,-16.2769 3.31842,-8.29103 1.9819,-18.55081 -3.39053,-26.02732 C 261.45345,149.5556 230.92919,118.75951 194.26069,82.008992 126.91813,14.515811 126.11734,13.73343 122.50716,11.904587 120.67978,10.978878 117.8333,10.076692 115.38982,9.6487621 108.98066,8.5263169 102.04426,10.103991 96.684334,13.9033 95.769031,14.5521 66.137794,44.039242 27.920617,82.332624 -22.681061,133.0352 -39.523821,150.06499 -40.407535,151.4195 c -2.835099,4.3455 -4.267299,8.83822 -4.487618,14.07737 -0.252551,6.00562 1.239608,11.51027 4.381244,16.16266 1.224869,1.81388 13.411395,14.15917 68.943821,69.84203 38.958984,39.06452 68.076118,68.05947 68.923959,68.63474 5.318359,3.60856 11.152079,5.0504 17.091509,4.22431 z"
       id="path27" /><path
       style="fill:#000000"
       d="m 107.28854,316.98645 c -3.65676,-0.93704 -6.40008,-2.62052 -9.42728,-5.78519 -1.070961,-1.1196 -31.076367,-31.23851 -66.67868,-66.93092 -70.290924,-70.46881 -66.104755,-66.09309 -67.72385,-70.7904 -2.184307,-6.33711 -1.289857,-13.16755 2.43733,-18.61261 0.480654,-0.70219 30.7641872,-31.1727 67.296741,-67.712243 65.580536,-65.593089 66.449665,-66.449144 68.539489,-67.508485 3.07061,-1.556506 5.39241,-2.205293 8.49928,-2.374976 4.43389,-0.242159 8.85581,0.927051 12.38868,3.275724 1.91118,1.270558 25.50408,24.748645 95.54051,95.07557 40.24378,40.41069 38.05466,38.13599 39.60498,41.15337 1.73871,3.38407 2.40604,6.12387 2.41406,9.91121 0.008,3.78297 -0.6596,6.51852 -2.42144,9.92188 -1.19114,2.30091 -1.58538,2.73829 -11.68592,12.96458 -22.32854,22.60651 -38.56863,38.95601 -75.16248,75.6688 -20.88822,20.95612 -40.05728,40.22651 -42.59792,42.8231 -2.54063,2.59659 -5.352,5.24799 -6.24749,5.89202 -4.36332,3.13804 -9.91122,4.27517 -14.77601,3.02857 z m 8.5399,-3.58466 c 1.14671,-0.36224 2.78997,-1.12293 3.65168,-1.69041 1.46532,-0.96499 31.75349,-31.17114 85.45947,-85.22805 37.37239,-37.61658 48.37854,-48.86533 49.28935,-50.37579 0.48971,-0.81213 1.25582,-2.51974 1.70245,-3.79468 0.72595,-2.07223 0.81391,-2.65478 0.8294,-5.49307 0.0197,-3.61249 -0.48763,-5.71326 -2.17257,-8.99583 -1.15281,-2.24586 -3.87781,-5.00961 -80.49239,-81.636813 -40.25134,-40.257981 -52.6052,-52.466619 -53.77879,-53.146636 -2.90352,-1.682388 -4.75832,-2.203804 -8.32995,-2.341698 -2.94934,-0.113869 -3.43667,-0.06341 -5.45018,0.564377 -1.36814,0.426562 -2.95784,1.184234 -4.16939,1.987179 -1.54194,1.021913 -15.965961,15.321132 -67.861378,67.274212 -64.323747,64.395219 -65.926558,66.024019 -66.876479,67.960839 -0.535286,1.0914 -1.225736,2.99534 -1.534333,4.23096 -1.009649,4.04264 -0.33714,8.74961 1.814855,12.70237 0.814592,1.49623 7.562929,8.35772 51.91393,52.78438 28.037695,28.08552 58.162597,58.29194 66.944227,67.12537 14.123818,14.20714 16.172078,16.16877 17.746978,16.99636 2.3878,1.25475 4.17197,1.6973 6.92675,1.71815 1.75364,0.0133 2.79772,-0.13936 4.38637,-0.64122 z"
       id="path26" /><path
       style="fill:#000000"
       d="m 110.49046,62.749796 c -0.0751,-0.12157 -0.32845,-1.163367 -0.56291,-2.315105 -0.54732,-2.68854 -1.38914,-4.530731 -2.64368,-5.785264 -1.14737,-1.147377 -3.1905,-2.173016 -4.81363,-2.41642 -0.61478,-0.09219 -1.25399,-0.331753 -1.42048,-0.532361 -0.34558,-0.416393 -0.15387,-1.1268 0.3458,-1.281457 0.1852,-0.05732 1.18624,-0.351547 2.22454,-0.653832 3.51063,-1.022073 5.35224,-3.403689 6.37235,-8.240869 0.44389,-2.104856 0.51311,-2.2387 1.1987,-2.317586 0.40018,-0.04605 0.73175,-0.04605 0.73683,0 0.36631,3.322286 1.50309,6.602994 2.82181,8.143619 1.04369,1.219322 3.38964,2.497963 5.11916,2.790164 2.15434,0.363973 2.03122,1.571203 -0.21897,2.147069 -4.21975,1.079912 -6.4419,3.58453 -7.22796,8.146754 -0.17767,1.031176 -0.4377,2.023693 -0.57784,2.205594 -0.28846,0.374412 -1.14712,0.443989 -1.35372,0.109694 z m 1.89301,-8.715075 c 0.56128,-0.853063 1.38569,-1.669463 2.12093,-2.100346 l 1.20276,-0.704862 -0.63743,-0.413195 c -1.33394,-0.864682 -2.81911,-2.42658 -3.28069,-3.450184 -0.4665,-1.03451 -0.92862,-1.400584 -0.92862,-0.735615 0,0.695012 -1.89304,3.031506 -3.04722,3.761059 l -1.20972,0.764657 1.1775,0.732892 c 1.22811,0.764398 2.16021,1.838342 2.95856,3.408787 0.32064,0.63073 0.51142,0.79948 0.59826,0.529167 0.0701,-0.218281 0.54067,-1.024843 1.04567,-1.79236 z"
       id="path25" /><path
       style="fill:#000000"
       d="m 71.968555,91.918105 c -2.73478,-1.185953 -3.935077,-4.37054 -2.683266,-7.119148 0.599964,-1.317345 2.295802,-2.874419 3.599007,-3.304516 0.979813,-0.323367 3.830478,-0.259126 4.668792,0.105214 0.327139,0.142178 0.465631,-0.0073 0.591966,-0.638994 0.09071,-0.453527 0.162211,-5.559022 0.158902,-11.345546 -0.0033,-5.786523 0.06628,-10.709362 0.15465,-10.939643 0.08837,-0.23028 0.491234,-0.555617 0.895261,-0.722971 0.642846,-0.266275 1.028755,-0.177256 3.089842,0.712748 8.631379,3.72714 13.237409,10.79199 12.722639,19.514315 -0.268465,4.548907 -1.310795,6.722689 -3.67763,7.669708 -1.395629,0.55842 -2.561754,0.36038 -3.602475,-0.6118 -2.16183,-2.019451 -1.432326,-5.666474 1.389836,-6.948236 0.593521,-0.269564 1.423208,-0.492731 1.843749,-0.495927 l 0.76462,-0.0058 -0.150272,-1.455995 C 91.272475,71.858048 87.50645,68.247425 82.086979,67.08239 l -0.859896,-0.184854 v 10.110639 c 0,6.810484 -0.09857,10.439653 -0.302004,11.118636 -0.744869,2.486153 -3.343572,4.220062 -6.298383,4.202415 -0.953694,-0.0057 -2.149857,-0.190701 -2.658141,-0.411121 z"
       id="path24" /><path
       style="fill:#000000"
       d="m 143.13958,93.087043 c -3.71187,-1.054779 -4.77792,-5.299583 -2.02286,-8.054642 1.90858,-1.908578 3.70463,-2.116566 6.80469,-0.788004 0.34233,0.146706 0.51422,-0.257907 0.96837,-2.279369 0.99957,-4.449161 1.73218,-8.160699 1.62815,-8.248506 -0.17178,-0.145003 -14.07289,-3.081013 -14.16265,-2.991251 -0.0728,0.07286 -1.51352,6.353528 -2.98575,13.016574 -0.59438,2.690064 -1.10112,3.657105 -2.41516,4.608985 -2.633,1.907339 -6.18263,1.516923 -7.95912,-0.875406 -0.45643,-0.614665 -0.63604,-1.26189 -0.706,-2.544176 -0.0854,-1.565905 -0.0197,-1.830728 0.73464,-2.959587 1.125,-1.683514 2.67302,-2.432789 4.71845,-2.283825 0.82864,0.06035 1.89965,0.30621 2.38002,0.546358 0.63949,0.319699 0.90012,0.351688 0.9732,0.119448 0.0549,-0.174452 0.94248,-4.118569 1.9724,-8.764705 1.88099,-8.48541 2.20071,-9.411856 3.24802,-9.411856 0.27649,0 2.60952,0.479388 5.18451,1.065307 2.57499,0.585919 6.45521,1.449122 8.62271,1.918229 3.44489,0.745568 4.00651,0.9409 4.46206,1.551894 l 0.52114,0.698972 -1.46848,6.841653 c -2.24209,10.445872 -3.36452,15.221523 -3.75505,15.976713 -0.62703,1.212554 -2.05428,2.375642 -3.40881,2.777893 -1.48571,0.441209 -2.01647,0.453832 -3.33448,0.0793 z"
       id="path23" /><path
       style="fill:#000000"
       d="m 57.033007,108.8885 c -2.385903,-0.87367 -3.719501,-2.74367 -3.688327,-5.17183 0.03421,-2.66473 1.571533,-4.643968 4.14084,-5.331153 2.301421,-0.615536 4.930075,0.559707 6.016921,2.690103 0.786654,1.54197 0.723324,3.97888 -0.141766,5.45504 -1.216237,2.07535 -4.132021,3.16184 -6.327668,2.35784 z"
       id="path22" /><path
       style="fill:#000000"
       d="m 177.27083,126.29352 c -3.37818,-1.73813 -3.59793,-5.85189 -0.4481,-8.38869 0.85677,-0.69002 1.27146,-0.82465 2.77812,-0.90189 1.39475,-0.0715 1.99205,0.0244 2.81131,0.45121 0.57216,0.29811 1.09613,0.48617 1.16439,0.41791 0.16756,-0.16755 2.62845,-10.29615 2.84169,-11.69587 0.16124,-1.05843 0.13282,-1.12164 -0.58637,-1.30373 -5.44551,-1.37877 -13.92128,-3.13295 -14.00434,-2.89838 -0.056,0.15806 -0.94215,3.91192 -1.9693,8.34191 -1.15173,4.96726 -2.08086,8.39967 -2.42406,8.95498 -1.32803,2.1488 -4.27885,3.31446 -6.83693,2.70078 -1.59609,-0.38289 -3.30881,-1.75375 -3.87206,-3.09919 -0.75874,-1.81239 -0.17568,-4.49142 1.26592,-5.8167 1.66161,-1.52754 4.54853,-1.84882 6.72261,-0.74816 1.47357,0.74601 1.49835,0.72826 1.95848,-1.40252 0.17815,-0.82498 0.98068,-4.35747 1.78342,-7.84997 1.72603,-7.509559 1.89811,-7.828187 3.98004,-7.369442 18.09632,3.98746 18.06602,3.978267 18.06334,5.480522 -5.5e-4,0.3113 -0.4223,2.35194 -0.93721,4.53475 -0.51492,2.18281 -1.65254,7.06438 -2.52805,10.84792 -1.12737,4.87199 -1.77857,7.16439 -2.23185,7.85673 -0.89334,1.36446 -2.68363,2.35042 -4.55438,2.50822 -1.30055,0.1097 -1.73274,0.0196 -2.97667,-0.62039 z"
       id="path21" /><path
       style="fill:#000000"
       d="m 34.200009,131.96094 c -0.143339,-0.1819 -0.330615,-0.92604 -0.416168,-1.65365 -0.387668,-3.29701 -1.932013,-6.31677 -3.929435,-7.68349 -0.678774,-0.46445 -2.047993,-1.05725 -3.042709,-1.31734 -0.994715,-0.26009 -1.969025,-0.61937 -2.165132,-0.79839 -0.552027,-0.50395 0.04451,-1.34661 1.074068,-1.51724 1.789669,-0.29659 3.844315,-1.27643 5.001393,-2.38511 1.779367,-1.70493 2.288806,-2.98847 3.310837,-8.34168 0.09321,-0.4882 0.262155,-0.59524 0.835218,-0.52916 0.680552,0.0785 0.74251,0.20642 1.176737,2.43012 1.01702,5.20821 3.046715,7.59855 7.341085,8.64548 1.612045,0.393 1.725554,0.46928 1.725554,1.15963 0,0.69186 -0.126457,0.77576 -1.984375,1.31648 -4.203809,1.22347 -6.098768,3.46821 -7.037769,8.33685 -0.208121,1.0791 -0.51028,2.12089 -0.671464,2.31511 -0.367862,0.44325 -0.878798,0.45264 -1.21784,0.0224 z m 1.359295,-8.08236 c 0.710589,-1.40228 2.007238,-2.79955 3.15572,-3.40061 l 0.747318,-0.39111 -1.148955,-0.76104 c -1.266021,-0.83858 -1.956218,-1.66829 -2.857701,-3.43534 l -0.597609,-1.17141 -0.657604,1.31182 c -0.815492,1.62678 -1.474978,2.37489 -2.904669,3.29503 -1.114001,0.71695 -1.114708,0.71845 -0.477226,1.0089 1.160556,0.52879 2.667254,2.11219 3.304492,3.47272 0.34529,0.73721 0.664973,1.34038 0.710407,1.34038 0.04543,0 0.372056,-0.5712 0.725827,-1.26934 z"
       id="path20" /><path
       style="fill:#000000"
       d="m 6.384181,143.50394 c -1.8927765,-0.94321 -2.757066,-2.2719 -2.8958776,-4.4519 -0.081678,-1.28273 0.014448,-1.8782 0.4368576,-2.70619 1.8520382,-3.63029 6.365027,-4.2816 8.985711,-1.29681 3.129362,3.56415 0.493017,9.1386 -4.326112,9.1474 -0.4443705,8.1e-4 -1.4346311,-0.31081 -2.200579,-0.6925 z"
       id="path19" /><path
       style="fill:#000000"
       d="m 204.3612,150.87459 c -0.1617,-0.10691 -0.37628,-0.78969 -0.47683,-1.5173 -0.26425,-1.91198 -1.11623,-4.37318 -1.99176,-5.75375 -1.16574,-1.83818 -3.23685,-3.04979 -6.40249,-3.74548 -0.7952,-0.17476 -1.16739,-0.85394 -0.74612,-1.36154 0.15641,-0.18846 0.74121,-0.41984 1.29955,-0.51417 1.66503,-0.2813 4.04532,-1.56341 5.12444,-2.7602 1.30754,-1.45011 1.97538,-3.02909 2.52642,-5.97319 0.4404,-2.35305 0.45483,-2.38125 1.21809,-2.38125 0.7597,0 0.77988,0.0379 1.22637,2.3064 1.02619,5.21373 3.08919,7.64352 7.37412,8.68517 1.3909,0.33813 1.7415,0.52817 1.80776,0.97991 0.0952,0.64902 -0.32807,0.91541 -2.16829,1.36462 -3.82246,0.93309 -6.02196,3.50074 -6.94911,8.11226 -0.52608,2.61666 -0.92217,3.16678 -1.84215,2.55852 z m 1.03649,-7.67708 c 0.17847,-0.89234 2.07132,-3.10097 3.12427,-3.64547 0.88705,-0.45871 0.97286,-0.80825 0.2544,-1.03628 -0.86079,-0.27321 -2.52646,-2.08258 -3.16217,-3.43499 l -0.60389,-1.28472 -0.86257,1.56291 c -0.75204,1.36263 -2.29416,2.9046 -3.38031,3.37997 -0.25503,0.11161 -0.21148,0.23997 0.16625,0.49 1.30135,0.8614 2.81996,2.47119 3.3351,3.53534 0.65616,1.35543 0.92393,1.45819 1.12892,0.43324 z"
       id="path18" /><path
       style="fill:#000000"
       d="m 186.29386,222.24656 c -2.74129,-2.16686 -4.67229,-5.32103 -5.4799,-8.95105 -1.06061,-4.76727 0.685,-9.76834 4.42376,-12.67379 l 1.4846,-1.15371 -0.24543,-1.24286 c -0.50591,-2.56192 0.1814,-6.41851 1.66927,-9.36661 1.47621,-2.92499 5.4112,-6.42349 8.45673,-7.51864 l 1.23688,-0.44478 0.17097,-1.87829 c 0.57998,-6.37153 4.6856,-10.98463 10.74551,-12.07371 1.97586,-0.35511 4.01061,-0.20374 7.80521,0.58061 5.87663,1.21471 9.89792,-0.23357 11.37301,-4.09604 0.93239,-2.44142 0.1747,-5.16143 -2.12394,-7.6247 -1.24754,-1.33689 -1.33065,-2.10806 -0.28633,-2.65693 0.30924,-0.16253 0.89882,-0.57548 1.31016,-0.91766 0.99684,-0.82923 1.31429,-0.7895 2.54001,0.31786 3.2853,2.96807 4.58495,8.03986 3.10501,12.11706 -1.43888,3.96408 -4.5981,6.68052 -8.96754,7.7107 -2.23706,0.52743 -4.15193,0.49754 -7.39997,-0.11551 -4.33918,-0.81901 -5.0821,-0.87848 -6.72875,-0.53861 -2.04477,0.42203 -3.32128,1.09594 -4.64652,2.45303 -1.27656,1.30724 -2.08043,2.96531 -2.14903,4.43262 l -0.049,1.04873 2.24896,0.12513 c 5.41179,0.3011 9.50941,2.56871 11.37002,6.29212 2.66169,5.32652 -1.50053,10.20284 -7.51761,8.80738 -3.84685,-0.89214 -6.87012,-3.36711 -8.76114,-7.17219 -0.57442,-1.15583 -1.07749,-2.15445 -1.11793,-2.21915 -0.19103,-0.30557 -3.02486,1.39813 -4.36915,2.62674 -2.20283,2.01326 -3.37093,4.49231 -3.56234,7.56031 l -0.14442,2.31495 1.71094,-0.17529 c 5.34186,-0.54729 10.2522,2.71513 10.93447,7.26483 0.37567,2.50519 -1.10172,5.04807 -3.45505,5.94682 -3.61395,1.38017 -8.66582,-1.19262 -11.00687,-5.60554 -0.33906,-0.63913 -0.69596,-1.16206 -0.79313,-1.16206 -0.26184,0 -1.66549,1.84692 -2.21191,2.91042 -0.26927,0.52409 -0.52887,1.7442 -0.59807,2.81096 -0.21487,3.31196 1.07453,6.15974 4.07041,8.98993 1.64859,1.55742 1.7991,2.27059 0.74389,3.52464 -0.99366,1.1809 -2.06728,1.11065 -3.78575,-0.24772 z m 12.26628,-15.8609 c 1.02601,-1.13372 -0.45325,-3.13506 -2.84143,-3.84427 -1.36416,-0.40512 -3.14763,-0.53052 -3.43651,-0.24165 -0.20552,0.20552 1.18907,2.46916 1.97464,3.20516 1.5084,1.41321 3.45997,1.81264 4.3033,0.88076 z m 13.45354,-16.4562 c 0.54319,-0.66483 0.43713,-1.55066 -0.31185,-2.60446 -0.63074,-0.88744 -2.75546,-2.30351 -3.957,-2.63723 -1.00889,-0.28022 -4.54483,-0.38163 -4.54483,-0.13035 0,0.46525 1.25249,2.46087 2.16755,3.45359 2.39587,2.59921 5.38496,3.46203 6.64613,1.91845 z"
       id="path17" /><path
       style="fill:#000000"
       d="m 32.196375,222.56625 c -1.169349,-1.22054 -0.970516,-1.90267 1.245224,-4.27196 2.599948,-2.78013 3.393295,-4.4495 3.546161,-7.46187 0.103839,-2.04626 0.04442,-2.43974 -0.559312,-3.70417 -0.371521,-0.77809 -0.998948,-1.76981 -1.394282,-2.20383 -0.676063,-0.74222 -0.736056,-0.75969 -1.00929,-0.29387 -2.605434,4.44184 -5.226189,6.46695 -8.689783,6.71476 -3.040421,0.21755 -5.247616,-1.08182 -6.14155,-3.6155 -0.509862,-1.4451 -0.510258,-1.97319 -0.0028,-3.68213 1.120147,-3.77195 6.254715,-6.76342 10.74616,-6.26087 l 1.494241,0.16719 0.168305,-1.01502 c 0.407744,-2.45903 -1.073165,-6.31454 -3.268767,-8.51014 -1.312635,-1.31263 -3.76782,-2.94815 -4.43362,-2.95344 -0.171748,-0.001 -0.742192,0.89136 -1.267654,1.98385 -3.097945,6.44089 -10.711914,9.68555 -15.004913,6.39428 -1.5735344,-1.20636 -2.2058114,-2.56415 -2.1776723,-4.67645 0.029596,-2.22162 0.8186387,-3.91564 2.6732609,-5.73929 2.3226834,-2.28389 5.4989954,-3.49571 9.5114074,-3.62877 2.412431,-0.08 2.48324,-0.17026 1.834527,-2.33845 -0.57006,-1.90532 -1.990429,-3.73459 -3.624367,-4.66777 -1.576305,-0.90026 -4.287383,-1.48815 -5.72002,-1.24036 -0.5464536,0.0945 -2.3032394,0.41979 -3.9039686,0.72284 -6.65089332,1.25911 -12.1904816,-0.46121 -15.0792885,-4.68289 -1.5552229,-2.27278 -2.0637209,-4.10246 -1.9284659,-6.93899 0.13418,-2.81397 0.8168897,-4.70437 2.5145854,-6.96281 1.5557907,-2.06966 2.1212516,-2.34354 3.3151314,-1.60568 1.2461177,0.77015 2.3144958,1.7979 2.3144958,2.2265 0,0.19755 -0.5420945,0.99426 -1.2046543,1.77046 -2.243825,2.62871 -2.8304186,4.55943 -2.1237727,6.99021 0.2913792,1.00231 0.7678114,1.80011 1.564566,2.61991 2.1951248,2.25861 5.5009855,2.84137 10.2305278,1.80342 3.5046175,-0.76913 5.3362746,-0.9027 7.4671986,-0.54454 3.659158,0.61502 6.561339,2.3638 8.551684,5.15302 1.457123,2.04197 2.223509,4.15034 2.424652,6.67034 l 0.152475,1.91027 2.498269,1.21534 c 1.962183,0.95455 2.90904,1.62336 4.412547,3.11681 2.03919,2.02555 2.917152,3.39166 3.894242,6.05946 0.509932,1.39228 0.615037,2.22938 0.645965,5.14465 l 0.03694,3.4818 1.428328,1.1589 c 1.666286,1.35198 3.190963,3.49848 3.815231,5.37125 0.680187,2.04052 0.800717,5.4868 0.263727,7.54062 -0.901555,3.44818 -2.944016,6.69453 -5.36847,8.53282 -1.656795,1.25622 -2.811407,1.33128 -3.847242,0.2501 z M 26.669908,206.5291 c 0.812567,-0.42657 2.375455,-2.03392 3.07642,-3.16395 0.554044,-0.89317 0.276734,-1.21278 -1.058051,-1.21943 -2.864379,-0.0143 -6.328984,2.92937 -5.13751,4.36501 0.416321,0.50163 2.178797,0.51202 3.119141,0.0184 z M 13.5883,190.33964 c 0.703972,-0.23987 1.852937,-0.9786 2.638048,-1.69615 1.424803,-1.30219 2.985299,-3.7533 2.691836,-4.22813 -0.406776,-0.65818 -4.555473,0.12392 -6.404077,1.20727 -1.256967,0.73663 -2.330101,2.00859 -2.5969751,3.07812 -0.1392127,0.55791 -0.030506,0.86201 0.4965401,1.38906 0.784284,0.78428 1.451893,0.83682 3.174628,0.24983 z"
       id="path16" /><path
       style="fill:#000000"
       d="m 70.114583,231.03039 c -4.252005,-1.11141 -7.185997,-4.34052 -8.17004,-8.99185 -0.455998,-2.15539 -0.348501,-8.93787 0.223094,-14.07604 0.431793,-3.88147 2.505313,-18.70384 3.078952,-22.00961 l 0.169229,-0.97523 -7.770931,-7.76645 C 45.368797,164.9422 41.441041,160.30125 40.005382,156.36875 c -2.19527,-6.0132 0.363558,-12.31276 6.116608,-15.05844 3.196972,-1.52577 15.695535,-4.29664 29.933902,-6.63619 3.631522,-0.59671 6.754268,-1.21066 6.939436,-1.36433 0.185167,-0.15368 1.426089,-2.43992 2.757604,-5.08054 4.992628,-9.90122 11.267592,-21.35016 13.869962,-25.30633 3.744276,-5.692127 8.164316,-8.190502 13.127856,-7.420382 3.52752,0.547314 6.78058,2.858446 9.41228,6.686952 2.42709,3.53085 7.9954,13.59424 13.94784,25.20738 1.56636,3.05594 2.98493,5.69611 3.15238,5.86705 0.16745,0.17094 3.22149,0.7911 6.78675,1.37814 3.56526,0.58703 9.28026,1.61518 12.7,2.28477 14.84356,2.90639 18.37954,4.1233 21.35237,7.34844 2.59681,2.81721 3.56632,6.80724 2.5875,10.64883 -1.2133,4.76183 -4.20594,8.39397 -18.43557,22.37509 l -7.70351,7.56898 0.58127,3.67581 c 4.08245,25.81635 4.37567,32.27309 1.68987,37.21027 -2.11035,3.87936 -6.39796,6.02703 -11.18443,5.6023 -4.73229,-0.41992 -9.7068,-2.43597 -29.56456,-11.98175 -3.67296,-1.76562 -6.79704,-3.21022 -6.9424,-3.21022 -0.14536,0 -4.46255,2.00994 -9.59377,4.46653 -14.973622,7.16868 -21.203693,9.72466 -25.569866,10.4904 -2.774836,0.48666 -3.696769,0.4723 -5.852321,-0.0911 z M 113.6491,194.32526 c 5.67161,-1.46769 9.91132,-7.7146 9.91132,-14.60363 0,-1.92228 -0.0713,-2.23034 -0.68498,-2.95966 -0.84191,-1.00055 -1.55635,-1.03719 -4.79488,-0.24586 -3.21148,0.78471 -10.45243,0.84559 -13.96702,0.11744 -4.05167,-0.83943 -4.667739,-0.84053 -5.498526,-0.01 -0.665191,0.66519 -0.718887,0.88034 -0.71527,2.86592 0.01771,9.722 7.666676,16.92715 15.749356,14.83553 z M 85.392611,173.4602 c 5.721134,-2.5816 13.657867,-6.53764 13.987719,-6.97213 0.47526,-0.62603 0.457573,-2.20019 -0.03258,-2.89999 -0.220094,-0.31422 -1.261891,-1.04156 -2.315104,-1.61629 -13.531658,-7.38419 -14.259653,-7.75262 -14.998189,-7.59041 -1.779172,0.39078 -2.673017,2.89065 -1.462814,4.09116 0.287734,0.28543 2.844872,1.76851 5.682528,3.29573 2.837657,1.52722 5.159375,2.90545 5.159375,3.06273 0,0.15727 -2.36952,1.38048 -5.265601,2.71824 -5.724078,2.64406 -6.415216,3.18894 -6.122407,4.8268 0.164659,0.92104 1.500514,2.24896 2.262398,2.24896 0.287833,0 1.684939,-0.52416 3.10468,-1.1648 z m 54.786179,0.56792 c 0.21831,-0.18104 0.55868,-0.71611 0.75637,-1.18906 0.30409,-0.72747 0.30274,-0.9956 -0.009,-1.74116 -0.38166,-0.91344 -1.42386,-1.49503 -8.9214,-4.97853 -1.29753,-0.60287 -2.35916,-1.18996 -2.35916,-1.30466 0,-0.1147 1.93477,-1.24566 4.29948,-2.51326 7.43551,-3.98577 7.19787,-3.80676 7.19787,-5.42204 0,-0.69634 -0.19332,-1.21578 -0.62252,-1.67265 -1.30576,-1.38991 -1.51576,-1.32508 -9.21351,2.84419 -9.30056,5.03738 -9.41225,5.10965 -9.70075,6.27691 -0.43097,1.74371 0.0787,2.28525 3.93839,4.18429 12.92294,6.35841 13.40086,6.53855 14.634,5.51597 z"
       id="path15" /><path
       style="fill:#000000"
       d="m 110.31583,243.82108 c -1.05208,-0.57223 -1.26545,-1.39461 -1.46311,-5.63939 -0.16582,-3.56104 -0.13604,-4.03027 0.30303,-4.77354 0.89776,-1.5198 2.79114,-1.64352 3.95653,-0.25853 0.56905,0.67628 0.65793,1.04058 0.65397,2.68058 -0.006,2.49879 -0.45602,6.69939 -0.78314,7.31061 -0.19021,0.35543 -1.69377,1.16627 -1.96374,1.05901 -0.0147,-0.006 -0.33125,-0.17626 -0.70354,-0.37874 z"
       id="path14" /><path
       style="fill:#000000"
       d="m 171.59899,244.16383 c -0.0627,-0.19266 -0.24096,-0.98131 -0.39612,-1.75257 -0.6264,-3.11356 -1.96346,-4.60457 -4.88858,-5.45147 -1.32178,-0.38269 -1.59479,-1.12043 -0.50426,-1.36264 2.67722,-0.59462 3.81816,-1.41495 4.74894,-3.41446 0.34148,-0.73355 0.69671,-1.8972 0.78942,-2.58589 0.32304,-2.39972 1.17969,-2.23218 1.66741,0.32612 0.59734,3.13332 2.07581,4.77861 4.98264,5.54482 0.80887,0.21322 1.12448,0.43325 1.12448,0.78397 0,0.35118 -0.31452,0.56962 -1.12448,0.78095 -2.82147,0.73617 -4.09258,2.16302 -4.94859,5.55492 -0.30458,1.20687 -0.58225,1.78121 -0.8898,1.84043 -0.24589,0.0474 -0.49836,-0.0715 -0.56106,-0.26418 z m 1.0106,-5.34789 c 0.14969,-0.59643 1.54162,-2.02413 2.3205,-2.38014 0.29877,-0.13656 0.29877,-0.18921 0,-0.32577 -0.77409,-0.35382 -2.10979,-1.72979 -2.43031,-2.5036 l -0.33835,-0.81684 -0.31563,0.74948 c -0.1736,0.41221 -0.82051,1.20521 -1.43758,1.76223 -0.61707,0.55701 -1.08159,1.04206 -1.03227,1.07787 0.0493,0.0358 0.4533,0.31571 0.89773,0.62199 0.44443,0.30628 1.03705,0.9821 1.31694,1.50182 0.59752,1.10953 0.80318,1.1727 1.01897,0.31296 z"
       id="path13" /><path
       style="fill:#000000"
       d="m 48.854221,244.16383 c -0.05065,-0.19266 -0.290827,-1.17565 -0.533723,-2.18442 -0.675366,-2.80487 -2.067887,-4.29847 -4.620638,-4.95603 -1.039646,-0.26781 -1.648763,-0.82101 -1.294291,-1.17548 0.07569,-0.0757 0.751961,-0.29967 1.502836,-0.49775 0.750875,-0.19807 1.788034,-0.68263 2.304799,-1.07678 1.089083,-0.83069 2.126557,-2.87915 2.368517,-4.67657 0.172589,-1.28208 0.727634,-2.07081 1.14975,-1.63381 0.127579,0.13207 0.358359,0.93417 0.512843,1.78244 0.578402,3.17597 2.144623,4.97296 4.987456,5.72231 1.618384,0.4266 1.555903,1.17647 -0.132292,1.58773 -2.677756,0.65232 -3.979656,2.14897 -4.796434,5.51392 -0.306022,1.26074 -0.562114,1.79312 -0.892908,1.85623 -0.255101,0.0487 -0.505263,-0.0691 -0.555915,-0.26179 z m 2.190476,-6.90754 c 0.436746,-0.36749 0.947311,-0.73909 1.134589,-0.82577 0.277617,-0.1285 0.277617,-0.18671 0,-0.3152 -0.78956,-0.36544 -1.876197,-1.48899 -2.29631,-2.37431 l -0.451068,-0.95055 -0.522882,1.05683 c -0.287585,0.58126 -0.931451,1.33505 -1.430813,1.67509 -0.499363,0.34003 -0.907271,0.67778 -0.906464,0.75054 8.07e-4,0.0728 0.405272,0.39378 0.898812,0.71337 0.503313,0.32592 1.107064,1.05642 1.374944,1.66358 l 0.477598,1.0825 0.463755,-0.90395 c 0.255065,-0.49717 0.821092,-1.20463 1.257839,-1.57213 z"
       id="path12" /><path
       style="fill:#000000"
       d="m 123.29583,251.88333 c -0.29104,-0.29104 -0.5278,-0.79705 -0.52614,-1.12447 0.004,-0.72048 2.33057,-7.68 3.26196,-9.75612 1.11363,-2.48237 2.61145,-3.2227 4.03782,-1.99579 1.04019,0.89473 0.91131,1.9027 -0.55131,4.31184 -0.67165,1.1063 -1.91565,3.47418 -2.76444,5.26196 -1.34145,2.82544 -2.07129,3.83175 -2.77903,3.83175 -0.0823,0 -0.38781,-0.23812 -0.67886,-0.52917 z"
       id="path11" /><path
       style="fill:#000000"
       d="m 97.973682,252.20163 c -0.175464,-0.11152 -1.083634,-1.80634 -2.018155,-3.76626 -0.934521,-1.95992 -2.189944,-4.39504 -2.789828,-5.41138 -1.309173,-2.21803 -1.41194,-3.28498 -0.39356,-4.08604 0.910994,-0.71658 1.981017,-0.69783 2.678721,0.047 0.780502,0.83316 1.946787,3.53588 3.243755,7.517 1.261281,3.87158 1.396105,5.00558 0.659165,5.54444 -0.563385,0.41196 -0.914167,0.45143 -1.380098,0.15529 z"
       id="path10" /><path
       style="fill:#000000"
       d="m 136.53531,255.80219 c -0.9119,-0.97881 -0.68621,-1.83948 1.10611,-4.21806 0.90507,-1.20112 2.42461,-2.99438 3.37675,-3.98503 1.54531,-1.60782 1.8395,-1.80118 2.74039,-1.80118 1.38699,0 2.55602,1.14824 2.55602,2.51058 0,1.33933 -0.32067,1.8194 -2.05853,3.08172 -0.83234,0.60458 -2.36375,1.97489 -3.40313,3.04514 -1.65251,1.70156 -2.00835,1.94589 -2.83397,1.94589 -0.63056,0 -1.12335,-0.19233 -1.48364,-0.57906 z"
       id="path9" /><path
       style="fill:#000000"
       d="m 84.269791,256.43141 c -0.291041,-0.0602 -1.600729,-1.13797 -2.910417,-2.39495 -1.309687,-1.25698 -2.82719,-2.58307 -3.372229,-2.94688 -1.93523,-1.29172 -2.237554,-3.32008 -0.68906,-4.62305 0.85616,-0.72041 1.877998,-0.84188 2.763493,-0.32851 1.285752,0.74543 6.435782,7.08494 6.48852,7.98715 0.09757,1.66911 -0.829348,2.60657 -2.280307,2.30624 z"
       id="path8" /><path
       style="fill:#000000"
       d="m 141.2875,272.25625 c -0.29104,-0.29104 -0.52917,-0.79252 -0.52917,-1.1144 0,-1.43228 9.45996,-9.20435 11.20328,-9.20435 1.76251,0 3.05266,1.51177 2.6919,3.1543 -0.24115,1.09792 -1.10772,1.71209 -3.57513,2.53381 -2.30913,0.76901 -4.46168,2.05595 -6.56841,3.92703 -1.53147,1.36016 -2.38053,1.54555 -3.22247,0.70361 z"
       id="path7" /><path
       style="fill:#000000"
       d="m 77.601709,271.17975 c -1.792397,-1.60015 -4.871151,-3.30719 -7.172068,-3.97661 -2.34315,-0.6817 -3.185911,-2.96466 -1.658328,-4.49224 1.297457,-1.29746 2.131979,-1.1048 5.477322,1.26446 1.582573,1.12082 3.879515,3.00649 5.104316,4.19036 1.909158,1.84537 2.22691,2.27723 2.22691,3.02667 0,0.97121 -0.61725,1.59303 -1.581326,1.59303 -0.357966,0 -1.320617,-0.6449 -2.396826,-1.60567 z"
       id="path6" /><path
       style="fill:#000000"
       d="m 98.572294,281.98696 c -0.226533,-0.32342 -0.411878,-0.74731 -0.411878,-0.94198 0,-0.65755 -2.405599,-6.25481 -4.004661,-9.31789 -0.873633,-1.67349 -2.57213,-4.53099 -3.774439,-6.35001 -1.202309,-1.81901 -2.252817,-3.49212 -2.334463,-3.71802 -0.253508,-0.70141 0.494734,-2.06918 1.233373,-2.25456 1.357701,-0.34076 1.884625,0.0508 3.538549,2.62969 3.302308,5.1491 5.901345,10.69643 7.730965,16.5008 0.8119,2.57571 0.83208,2.73916 0.41648,3.37344 -0.5694,0.86901 -1.811706,0.90977 -2.393926,0.0785 z"
       id="path5" /><path
       style="fill:#000000"
       d="m 122.31156,282.56969 c -0.93042,-0.37439 -0.98021,-1.31746 -0.20456,-3.8745 1.49497,-4.92834 4.37528,-11.23204 7.32591,-16.0331 2.13456,-3.4732 3.01766,-4.02178 4.54287,-2.82205 1.11752,0.87904 0.91494,1.65669 -1.30728,5.01838 -3.42636,5.18329 -5.96594,10.14481 -7.64633,14.93846 -0.65391,1.86543 -1.43649,3.07726 -1.95409,3.02593 -0.093,-0.009 -0.43345,-0.12313 -0.75652,-0.25312 z"
       id="path4" /><path
       style="fill:#000000"
       d="m 125.29771,295.45281 c -0.63014,-0.46077 -0.59993,-1.26049 0.12663,-3.35281 1.56394,-4.50375 5.39383,-11.2388 8.01176,-14.08906 1.04225,-1.13475 1.9962,-1.29114 2.82432,-0.46302 0.90556,0.90556 0.65244,1.61462 -1.54599,4.33076 -2.55188,3.15283 -5.00196,7.21907 -6.42478,10.66278 -1.32012,3.19514 -1.8709,3.73108 -2.99194,2.91135 z"
       id="path3" /><path
       style="fill:#000000"
       d="m 95.847979,295.58771 c -0.180435,-0.11459 -0.637528,-0.96995 -1.015763,-1.90079 -1.791467,-4.40883 -4.397162,-8.77946 -7.301542,-12.24716 -1.691862,-2.02001 -1.937818,-2.96595 -1.011924,-3.89184 0.787689,-0.78769 1.753958,-0.66816 2.673532,0.33073 3.287167,3.57068 8.703551,14.00652 8.703551,16.76928 0,0.88717 -1.236925,1.45481 -2.047854,0.93978 z"
       id="path2" /><path
       style="fill:#000000"
       d="m 110.2227,307.11511 -0.66722,-0.59532 -0.18212,-28.24989 -0.18212,-28.2499 0.61613,-0.65583 c 0.80369,-0.85549 2.13671,-0.88304 2.92821,-0.0605 l 0.57285,0.59531 -0.15793,28.31042 -0.15794,28.31041 -0.68395,0.59532 c -0.37617,0.32742 -0.84927,0.59531 -1.05132,0.59531 -0.20205,0 -0.66761,-0.26789 -1.03459,-0.59531 z"
       id="path1" /></g></svg>
