<?xml version="1.0" encoding="UTF-8" standalone="no"?>
<!-- Created with Inkscape (http://www.inkscape.org/) -->

<svg
   width="317.73004mm"
   height="325.55673mm"
   viewBox="0 0 317.73004 325.55673"
   version="1.1"
   id="svg1"
   xml:space="preserve"
   sodipodi:docname="stamp_goal_apple_1.svg"
   inkscape:version="1.4.4 (dcaf3e7, 2026-05-05)"
   xmlns:inkscape="http://www.inkscape.org/namespaces/inkscape"
   xmlns:sodipodi="http://sodipodi.sourceforge.net/DTD/sodipodi-0.dtd"
   xmlns="http://www.w3.org/2000/svg"
   xmlns:svg="http://www.w3.org/2000/svg"><sodipodi:namedview
     id="namedview1"
     pagecolor="#ffffff"
     bordercolor="#000000"
     borderopacity="0.25"
     inkscape:showpageshadow="2"
     inkscape:pageopacity="0.0"
     inkscape:pagecheckerboard="0"
     inkscape:deskcolor="#d1d1d1"
     inkscape:document-units="mm"
     inkscape:zoom="0.14486665"
     inkscape:cx="1104.464"
     inkscape:cy="745.51319"
     inkscape:window-width="1512"
     inkscape:window-height="921"
     inkscape:window-x="0"
     inkscape:window-y="33"
     inkscape:window-maximized="1"
     inkscape:current-layer="layer1"><inkscape:page
       x="1.3064792e-20"
       y="0"
       width="317.73004"
       height="325.55673"
       id="page2"
       margin="0"
       bleed="0" /></sodipodi:namedview><defs
     id="defs1" /><g
     inkscape:label="Layer 1"
     inkscape:groupmode="layer"
     id="layer1"
     transform="translate(47.97143,-4.8077399)"><path
       style="fill:#000000"
       d="m 103.45208,330.18849 c -24.408347,-1.15681 -49.019494,-8.47756 -70.310349,-20.9143 -27.2291858,-15.90552 -48.481267,-38.23814 -62.796987,-65.98981 -10.162393,-19.70026 -16.146552,-40.14751 -18.00337,-61.51563 -0.473145,-5.44492 -0.395781,-19.79304 0.139095,-25.79688 2.971305,-33.35204 15.388814,-65.470456 35.188542,-91.016664 C -0.54865729,49.753286 13.839585,36.860239 29.897915,27.114638 54.730086,12.044303 84.611915,4.1614261 114.3,4.8492264 c 10.36337,0.240094 15.77128,0.7802569 25.68216,2.5652347 30.02866,5.4082469 57.61293,19.6648769 79.59263,41.1365779 14.75254,14.411582 25.5787,29.844363 34.42997,49.08021 15.13771,32.897701 19.57875,70.139951 12.39949,103.981251 -5.63928,26.58226 -17.6943,51.25642 -35.45214,72.56325 -3.68393,4.4202 -14.3425,14.99881 -19.02086,18.87819 -4.48956,3.72282 -9.02348,7.16716 -13.09687,9.94946 -28.3348,19.35386 -61.45355,28.7931 -95.3823,27.18509 z m 19.57917,-6.61815 c 26.29868,-2.42587 50.64785,-11.10753 71.83438,-25.61243 15.1157,-10.34864 27.36,-22.16803 38.13763,-36.81416 20.70131,-28.13179 31.89559,-64.35346 30.28528,-97.99503 -0.4563,-9.53272 -1.03643,-14.59389 -2.71811,-23.7133 C 255.88729,114.03979 244.72199,88.958034 229.29959,69.18854 221.84245,59.629454 212.19268,49.946226 202.8804,42.677746 183.10914,27.245742 159.98867,17.266488 134.67292,13.238034 106.8498,8.8105869 77.248313,12.540136 50.799999,23.805347 43.451568,26.935286 33.150931,32.577989 26.722915,36.994805 19.004723,42.298128 12.676945,47.607085 5.4046316,54.880683 -2.600195,62.886924 -7.4829226,68.768412 -13.392624,77.522915 c -14.61632,21.652296 -24.173114,47.681185 -27.346225,74.480205 -3.464711,29.26178 1.71643,58.22359 15.335831,85.72501 5.311754,10.72593 10.814666,19.4434 17.9544814,28.44271 15.1829415,19.13717 35.9169806,35.17363 58.2551946,45.05669 17.266557,7.63922 34.198324,11.61357 54.232922,12.72995 2.93175,0.16336 14.78988,-0.0918 17.99167,-0.38714 z"
       id="path26" /><path
       style="fill:#000000"
       d="M 101.86458,318.6456 C 86.868511,317.5766 72.310609,314.2401 58.208332,308.64009 43.225364,302.69036 29.080695,294.08714 16.271873,283.13307 12.357249,279.78529 4.228446,271.58882 0.63048029,267.36146 -19.182771,244.08229 -31.722155,215.44913 -35.347024,185.20833 c -0.577803,-4.82037 -0.80362,-19.78037 -0.384764,-25.49001 2.406561,-32.80509 15.074785,-65.52196 34.6440341,-89.471447 C 7.7055,59.485401 19.67616,48.465962 30.29479,41.358071 37.481014,36.547762 48.434912,30.777415 56.499481,27.55384 c 17.45652,-6.977732 35.844005,-10.433764 55.286979,-10.3915 22.21956,0.0483 42.6887,4.765218 62.70625,14.450058 20.88073,10.102462 38.62485,24.980459 53.27141,44.666734 7.10048,9.543675 14.32989,22.948631 19.1494,35.507328 5.12093,13.34412 8.4737,27.26894 10.05372,41.7554 0.77509,7.1065 0.85079,23.53407 0.1392,30.21127 -1.34533,12.62401 -4.38896,25.511 -8.82394,37.36138 -11.35219,30.33327 -31.05474,55.5202 -57.14992,73.05812 -10.90829,7.33119 -24.12351,13.76735 -36.48362,17.7685 -10.57771,3.42416 -22.26295,5.76251 -33.04519,6.61275 -3.06521,0.2417 -16.74354,0.30526 -19.73919,0.0917 z m 22.48959,-3.12494 c 10.77357,-1.1842 20.87779,-3.39471 31.05861,-6.7947 6.71098,-2.2412 11.05492,-4.05983 17.94912,-7.51453 14.38711,-7.20943 26.06081,-15.63334 37.53729,-27.08745 5.57769,-5.56682 8.44811,-8.77977 12.42374,-13.90627 18.06988,-23.30077 29.21102,-52.16473 31.19946,-80.83021 0.65403,-9.42843 0.1731,-21.9341 -1.20963,-31.45455 -5.9285,-40.81904 -25.8838,-75.630456 -56.99193,-99.420657 C 176.21868,33.138997 151.75929,23.587 125.14792,20.717506 119.70311,20.130394 104.34616,20.054209 99.21875,20.588872 83.100629,22.269597 70.858669,25.143611 57.740976,30.326505 37.696263,38.246313 19.368549,51.290316 4.6677235,68.099229 -16.012355,91.744815 -29.041943,122.46038 -32.439626,155.575 c -0.563019,5.48732 -0.779702,19.183 -0.385785,24.38397 1.480172,19.54305 6.443999,37.01981 15.768964,55.51976 10.6210841,21.07133 25.187211,38.45468 43.911654,52.40457 22.26278,16.58597 48.961521,26.37427 76.729163,28.13045 3.62598,0.22933 17.10978,-0.0908 20.7698,-0.49309 z"
       id="path25" /><path
       style="fill:#000000"
       d="m 77.511268,86.718208 c -0.1462,-0.327984 -2.43581,-7.02571 -5.088022,-14.883835 l -4.822205,-14.2875 -1.500965,-0.161348 c -3.734195,-0.40141 -6.313637,-3.580829 -5.970971,-7.359814 0.327367,-3.610261 3.014099,-6.085371 6.620538,-6.099069 2.728746,-0.01037 4.872675,1.307603 5.970052,3.670055 1.164287,2.506497 0.823257,5.357853 -0.883398,7.386098 l -0.679127,0.807096 8.408394,6.843154 c 4.624617,3.763735 9.391792,7.63965 10.593722,8.613144 3.557596,2.881448 4.111128,2.776512 6.222895,-1.179708 2.128033,-3.986691 12.890739,-24.794083 12.890739,-24.921489 0,-0.05965 -0.26789,-0.175927 -0.59532,-0.258385 -1.12072,-0.282245 -2.74543,-1.732445 -3.51244,-3.135192 -0.63949,-1.169519 -0.76686,-1.710079 -0.76686,-3.254543 0,-1.553235 0.12645,-2.0836 0.78366,-3.286889 1.35327,-2.477695 3.50172,-3.622209 6.36766,-3.392158 3.08913,0.247965 5.27455,2.221091 5.92376,5.34831 0.64566,3.110133 -0.85115,5.998158 -3.89993,7.524765 l -1.12343,0.56253 1.21754,2.310263 c 0.66964,1.270645 3.66329,6.953701 6.65255,12.629013 6.84443,12.994642 6.58497,12.544718 7.41646,12.860848 1.00846,0.383417 1.66714,0.132519 3.40617,-1.297442 4.63549,-3.811654 19.01327,-15.555455 19.21114,-15.691704 0.12744,-0.08775 -0.12882,-0.728044 -0.56947,-1.422873 -1.64138,-2.588198 -1.65695,-5.787275 -0.039,-8.020754 1.37279,-1.895082 3.03452,-2.69995 5.57431,-2.69995 2.83427,0 5.62916,2.12594 6.36266,4.839772 1.11882,4.139498 -2.11278,8.653978 -6.19478,8.653978 h -1.16275 l -3.23085,9.723438 c -1.77697,5.347891 -4.03663,12.045156 -5.02147,14.882813 l -1.79063,5.159375 -33.25239,0.06717 -33.252394,0.06717 z"
       id="path24" /><path
       style="fill:#000000"
       d="m 78.704679,95.926647 c -0.583916,-0.583916 -0.652596,-0.873212 -0.652596,-2.748892 0,-1.62706 0.09793,-2.177579 0.437484,-2.459422 0.364416,-0.302478 5.76229,-0.374873 32.319213,-0.433461 28.32998,-0.0625 31.95096,-0.02497 32.50314,0.336829 0.56499,0.370192 0.62141,0.596145 0.62141,2.488419 0,1.654916 -0.1036,2.209208 -0.50576,2.705879 l -0.50576,0.624625 -31.78227,0.06931 -31.782265,0.06931 z"
       id="path23" /><path
       style="fill:#000000"
       d="m 35.906256,100.62294 c -0.06985,-0.11746 -0.206994,-0.86841 -0.304755,-1.668775 -0.550643,-4.508084 -1.909772,-9.077492 -3.462706,-11.641667 -2.161979,-3.569816 -5.907082,-6.115664 -10.310672,-7.008995 -2.315217,-0.469674 -2.609497,-0.631722 -2.469295,-1.359734 0.07267,-0.377334 0.571328,-0.586906 2.207625,-0.927798 2.94283,-0.613083 4.600449,-1.296981 6.59729,-2.721896 3.71474,-2.650784 6.292886,-7.991246 7.290292,-15.101369 0.392476,-2.797806 0.477848,-3.042708 1.060678,-3.042708 0.66971,0 0.682615,0.03291 1.194548,3.046543 0.703641,4.142167 1.3683,6.420561 2.623166,8.991999 2.593397,5.314317 5.550719,7.605343 11.393614,8.826588 1.948446,0.407252 2.116666,0.493853 2.116666,1.089676 0,0.698139 0.132139,0.64269 -3.439583,1.443346 -5.384609,1.207041 -9.287455,5.07626 -11.226705,11.129973 -0.419546,1.309688 -0.956848,3.452813 -1.194004,4.762501 -0.76877,4.245516 -0.762798,4.226826 -1.378805,4.314606 -0.31369,0.0447 -0.627499,-0.0148 -0.697354,-0.13229 z m 4.620595,-18.820474 c 0.775284,-0.774945 1.85609,-1.660072 2.401794,-1.96695 0.545703,-0.306877 0.986466,-0.625332 0.979473,-0.707676 -0.007,-0.08234 -0.678631,-0.566436 -1.49253,-1.075758 -1.905493,-1.192423 -3.32681,-2.980495 -4.732068,-5.953126 -0.899855,-1.903519 -1.16365,-2.275087 -1.314884,-1.852083 -1.212808,3.392235 -3.784036,6.88899 -5.968293,8.116611 -0.567377,0.318884 -1.031595,0.664515 -1.031595,0.76807 0,0.103554 0.599016,0.572668 1.331147,1.042475 2.272416,1.458206 4.578939,4.630138 5.656884,7.779352 0.133389,0.389695 0.476399,-0.105125 1.467276,-2.116667 0.906175,-1.83959 1.715047,-3.046929 2.702796,-4.034248 z"
       id="path22" /><path
       style="fill:#000000"
       d="m 185.24348,101.8165 c -0.12901,-0.33736 -0.43021,-1.860847 -0.66933,-3.385534 -1.51114,-9.635171 -5.96448,-15.115931 -13.52626,-16.646855 -2.18324,-0.44201 -2.37601,-0.531615 -2.37601,-1.104443 0,-0.474726 0.1893,-0.668009 0.79375,-0.810421 4.76729,-1.123219 6.81902,-2.013591 8.85203,-3.841437 3.32566,-2.990054 5.32676,-7.508681 6.47706,-14.625649 0.39691,-2.455711 0.6786,-3.014016 1.38409,-2.743292 0.39923,0.153198 0.4119,0.203793 0.99304,3.965688 0.88603,5.735566 2.63451,9.718033 5.56632,12.678226 2.23423,2.255862 3.79977,3.096245 7.52642,4.040178 2.18249,0.552809 2.81962,0.816779 2.89316,1.198674 0.12012,0.623714 -0.2757,0.861275 -1.78746,1.072786 -4.41434,0.617614 -8.23427,3.017206 -10.6194,6.670859 -1.93843,2.969377 -3.13166,6.802371 -3.89785,12.52097 -0.16504,1.23183 -0.28554,1.46813 -0.78499,1.53942 -0.41754,0.0596 -0.65858,-0.0951 -0.82457,-0.52917 z m 1.96181,-14.737072 c 1.3354,-2.667576 3.53348,-5.184091 5.092,-5.829649 0.4667,-0.193314 0.84854,-0.443685 0.84854,-0.556382 0,-0.112696 -0.58902,-0.58288 -1.30895,-1.044854 -2.20057,-1.412101 -4.04252,-3.735864 -5.18033,-6.535377 -0.345,-0.848857 -0.70382,-1.543376 -0.79738,-1.543376 -0.0936,0 -0.43655,0.654844 -0.7622,1.455208 -1.17715,2.893085 -2.99679,5.213427 -5.19427,6.623545 -0.71992,0.461974 -1.30895,0.919527 -1.30895,1.016786 0,0.09726 0.42455,0.405471 0.94345,0.684916 1.60042,0.861885 3.95144,3.630525 5.16845,6.086561 0.6154,1.241939 1.1511,2.225889 1.19043,2.186556 0.0393,-0.03933 0.62848,-1.184103 1.30921,-2.543934 z"
       id="path21" /><path
       style="fill:#000000"
       d="m 54.845683,115.96011 -1.267559,-2.57323 -1.984375,-1.07213 c -1.353545,-0.7313 -2.009462,-1.24537 -2.063289,-1.61711 -0.09677,-0.66827 0.151755,-0.88153 2.328592,-1.99814 1.69575,-0.86983 1.735861,-0.91589 2.956548,-3.39533 1.662534,-3.37692 1.946526,-3.37745 3.610465,-0.007 l 1.237476,2.50681 1.984375,1.07366 c 1.613941,0.87324 1.984375,1.19137 1.984375,1.70418 0,0.50774 -0.32586,0.79695 -1.673516,1.48531 -2.288747,1.16904 -2.825068,1.74426 -3.659162,3.92452 -0.854679,2.23407 -1.060323,2.54143 -1.700389,2.54143 -0.351385,0 -0.837042,-0.71267 -1.753541,-2.57322 z"
       id="path20" /><path
       style="fill:#000000"
       d="m 214.12474,131.16719 c -0.13891,-0.1819 -0.39114,-1.26061 -0.56052,-2.39713 -0.47074,-3.1587 -1.77791,-6.77169 -3.27505,-9.05221 -2.08114,-3.1701 -4.97161,-5.12027 -9.02164,-6.08679 -3.25335,-0.77641 -3.40029,-1.6712 -0.38622,-2.35186 4.64383,-1.04871 8.47363,-3.96056 10.35573,-7.87361 1.00505,-2.08958 2.13167,-5.936521 2.42415,-8.277497 0.39672,-3.17519 1.609,-3.028627 2.16476,0.261716 0.58084,3.438803 1.10286,5.157301 2.35498,7.752571 2.07552,4.30196 4.83011,6.50199 10.00044,7.98712 2.15001,0.61758 2.40301,0.7557 2.40301,1.31195 0,0.56432 -0.22511,0.67693 -2.43849,1.21987 -4.94792,1.21371 -7.88208,3.51251 -9.95054,7.79587 -1.17675,2.4368 -2.06884,5.37967 -2.44217,8.05635 -0.19569,1.40304 -0.50148,1.98438 -1.0438,1.98438 -0.18265,0 -0.44573,-0.14883 -0.58464,-0.33073 z"
       id="path19" /><path
       style="fill:#000000"
       d="m 7.8517037,131.29948 c -0.064363,-0.10914 -0.2636194,-1.09141 -0.4427913,-2.18281 -1.4358611,-8.7464 -5.5369855,-13.84903 -12.4359979,-15.47291 -3.3695536,-0.79313 -3.4962849,-1.62997 -0.3588544,-2.36962 7.1887449,-1.69475 11.252971,-6.76331 12.7842139,-15.943395 0.1746394,-1.046995 0.4849545,-2.042581 0.689589,-2.212413 0.7339535,-0.609127 1.0926899,-0.05402 1.5379689,2.379829 1.2533851,6.850889 3.5365391,11.033719 7.3889161,13.536799 1.422883,0.92452 4.431989,2.08311 6.463987,2.48883 0.98599,0.19687 1.224086,0.46762 1.008513,1.14683 -0.113067,0.35624 -0.703999,0.60093 -2.257565,0.93477 -3.092581,0.66456 -5.982403,2.20615 -7.784575,4.15271 -2.278705,2.46127 -4.2189,6.99131 -4.8081604,11.22627 -0.2625516,1.88694 -0.5487694,2.51355 -1.1481192,2.51355 -0.2860553,0 -0.5727614,-0.0893 -0.6371247,-0.19844 z"
       id="path18" /><path
       style="fill:#000000"
       d="m 128.45521,141.11587 c -2.23849,-0.3508 -7.09426,-1.55336 -9.02752,-2.23572 -1.37326,-0.4847 -2.63832,-0.756 -3.39223,-0.72748 -1.90582,0.0721 -2.84644,-1.19152 -1.90638,-2.56099 0.19704,-0.28704 0.43547,-1.47439 0.52986,-2.63856 0.75284,-9.28583 6.45456,-18.83679 14.42282,-24.1597 10.32546,-6.89756 22.26159,-8.5546 36.52756,-5.07098 3.9937,0.97522 4.25318,1.10658 4.25318,2.1531 0,1.44192 -1.32001,7.41067 -2.27268,10.27654 -3.711,11.16351 -11.49569,19.52544 -21.53982,23.13701 -4.21108,1.51418 -5.83987,1.77851 -11.50937,1.86782 -2.91042,0.0458 -5.64886,0.0274 -6.08542,-0.041 z m -0.26458,-12.59159 c 9.30982,-5.17479 12.11268,-6.83652 14.75052,-8.74513 2.44666,-1.77029 3.1478,-2.50165 2.11666,-2.20791 -0.25466,0.0725 -1.17739,0.27219 -2.05052,0.44365 -6.61525,1.2991 -12.32189,4.48739 -17.79323,9.94107 -3.06531,3.05542 -3.84886,4.09514 -2.77812,3.68641 0.25466,-0.0972 2.84427,-1.50035 5.75469,-3.11809 z"
       id="path17" /><path
       style="fill:#000000"
       d="m 192.06541,145.34163 c -0.29619,-0.7018 -0.73344,-1.73428 -0.97167,-2.29439 -0.48211,-1.13351 -1.37227,-1.8909 -3.43801,-2.92523 -1.11319,-0.55738 -1.38906,-0.82533 -1.38906,-1.34918 0,-0.54316 0.30849,-0.80903 1.82461,-1.57254 2.14354,-1.07947 2.65504,-1.66106 3.61676,-4.11232 1.08803,-2.77321 1.78756,-2.77321 2.87559,0 0.96172,2.45126 1.47322,3.03285 3.61676,4.11232 1.5174,0.76415 1.82461,1.02911 1.82461,1.57367 0,0.5431 -0.30465,0.80836 -1.78594,1.55498 -2.22422,1.12109 -2.46841,1.3942 -3.58045,4.00447 -0.68965,1.61877 -1.03549,2.13345 -1.47754,2.19885 -0.46944,0.0694 -0.67763,-0.15272 -1.11566,-1.19063 z"
       id="path16" /><path
       style="fill:#000000"
       d="m 29.875821,145.34163 c -0.296188,-0.7018 -0.733439,-1.73428 -0.971668,-2.29439 -0.482114,-1.13351 -1.37227,-1.8909 -3.438009,-2.92523 -1.113189,-0.55738 -1.389062,-0.82533 -1.389062,-1.34918 0,-0.54316 0.308489,-0.80903 1.824615,-1.57254 2.143534,-1.07947 2.655041,-1.66106 3.61676,-4.11232 0.393971,-1.00416 0.878644,-1.88805 1.077051,-1.96418 0.637767,-0.24474 1.121116,0.1323 1.442397,1.12513 0.472596,1.46043 1.443362,3.29255 2.021248,3.8147 0.282846,0.25557 1.248215,0.82019 2.145264,1.25473 1.351402,0.65463 1.630998,0.90324 1.630998,1.45024 0,0.54973 -0.298768,0.81076 -1.785937,1.56035 -2.228273,1.12314 -2.527714,1.45784 -3.6098,4.03491 -0.669442,1.59432 -1.009627,2.10306 -1.449989,2.16841 -0.46734,0.0693 -0.676436,-0.15415 -1.113868,-1.19063 z"
       id="path15" /><path
       style="fill:#000000"
       d="m 230.79414,151.55287 c -0.1502,-0.18892 -0.40782,-0.76021 -0.57248,-1.26954 -0.57087,-1.76577 -1.28975,-2.60423 -2.95241,-3.44354 -2.12873,-1.07458 -2.09564,-1.63754 0.16659,-2.83406 1.54473,-0.81702 1.65594,-0.94544 2.59216,-2.99356 0.73138,-1.60001 1.09186,-2.11809 1.42874,-2.0534 0.25825,0.0496 0.90227,0.98851 1.50889,2.19981 0.99695,1.99073 1.15423,2.16401 2.71198,2.98779 0.9095,0.48097 1.65364,1.0384 1.65364,1.23875 0,0.36939 -0.86659,1.04962 -2.17453,1.70688 -1.09813,0.55183 -1.72688,1.34802 -2.42671,3.07293 -0.65147,1.60571 -1.35927,2.11318 -1.93587,1.38794 z"
       id="path14" /><path
       style="fill:#000000"
       d="m -11.020513,149.83533 c -0.919754,-1.86614 -1.171283,-2.15761 -2.605531,-3.01933 -0.927386,-0.55718 -1.5875,-1.13781 -1.5875,-1.39634 0,-0.26889 0.622928,-0.7802 1.5875,-1.30304 1.495554,-0.81065 1.648472,-0.98707 2.640216,-3.0459 1.3555508,-2.81409 1.7460814,-2.82053 2.9001711,-0.0478 0.7990888,1.91982 0.881632,2.01462 2.5375761,2.91427 2.3022825,1.2508 2.3259357,1.82053 0.1241203,2.98966 -1.5880738,0.84325 -2.0808849,1.48969 -3.175,4.16479 -0.1455209,0.35579 -0.5208444,0.68342 -0.8340523,0.72806 -0.4742873,0.0676 -0.7396242,-0.26407 -1.5875002,-1.98437 z"
       id="path13" /><path
       style="fill:#000000"
       d="m 202.28898,217.74091 c -1.39956,-0.25049 -2.25426,-1.26168 -2.29531,-2.71556 -0.0172,-0.61035 -0.0172,-1.19902 0,-1.30816 0.0431,-0.27284 -0.0828,-0.25695 -1.70825,0.21557 -1.71547,0.4987 -2.53165,0.22221 -3.4733,-1.17664 -1.83544,-2.72661 -1.8039,-7.12246 0.0794,-11.06831 0.99288,-2.08022 3.48213,-4.82799 5.21615,-5.75787 0.5366,-0.28776 0.97563,-0.59301 0.97563,-0.67834 0,-0.0853 -0.6846,-0.10594 -1.52135,-0.0458 -2.77033,0.19915 -6.34528,-0.7963 -8.72839,-2.43044 -2.94482,-2.01929 -5.27797,-6.33859 -4.5748,-8.4692 0.33196,-1.00585 1.31451,-1.86127 2.47141,-2.15164 0.39131,-0.0982 0.71147,-0.2199 0.71147,-0.27042 0,-0.0505 -0.30068,-0.53493 -0.66817,-1.07646 -1.19328,-1.7584 -1.18659,-2.86416 0.0261,-4.30533 0.96869,-1.15123 4.10679,-2.60859 6.33063,-2.94 3.60273,-0.5369 8.05209,0.77364 10.78059,3.17536 1.43255,1.26098 1.67137,1.32386 1.1423,0.30075 -0.77795,-1.50439 -1.47185,-4.64046 -1.47185,-6.652 0,-3.72727 1.21411,-6.92722 3.61024,-9.51534 2.65224,-2.86473 4.56088,-3.00568 6.38166,-0.47128 0.51103,0.71132 1.00856,1.19665 1.10562,1.07852 0.0971,-0.11813 0.51302,-0.67391 0.92435,-1.23505 1.53581,-2.09515 3.27768,-2.13544 5.55762,-0.12856 1.6924,1.48971 2.65612,2.98541 3.49069,5.41753 0.59764,1.74167 0.71445,2.53463 0.71584,4.85942 0.002,2.71737 -0.25097,3.85154 -1.55593,6.98626 -0.13889,0.33364 0.26926,0.1253 1.20763,-0.61644 1.47156,-1.16321 3.51141,-2.29788 4.88589,-2.7178 4.07898,-1.24618 8.7582,-0.41973 11.46399,2.02479 1.79005,1.61721 1.94827,2.98073 0.5704,4.91577 -0.28742,0.40364 -0.52258,0.79558 -0.52258,0.87097 0,0.0754 0.41282,0.27332 0.91738,0.43984 0.50456,0.16652 1.23167,0.67627 1.61579,1.13277 1.44373,1.71578 0.40265,4.97226 -2.51622,7.87073 -2.71576,2.69677 -6.48284,4.16078 -10.00497,3.88825 -0.90951,-0.0704 -1.65365,-0.0424 -1.65365,0.0622 0,0.10458 0.67393,0.65429 1.49761,1.22158 2.41957,1.66642 4.48334,4.65531 5.28595,7.65547 0.47582,1.77861 0.45261,5.01671 -0.048,6.70258 -0.45063,1.51745 -1.71185,3.14367 -2.6136,3.36999 -0.3199,0.0803 -1.1103,-0.0381 -1.75646,-0.26309 -0.64616,-0.22499 -1.24939,-0.4108 -1.34051,-0.41292 -0.0911,-0.002 -0.22056,0.65807 -0.28765,1.46708 -0.14946,1.8023 -0.77624,2.52662 -2.37891,2.74912 -2.6151,0.36305 -6.09563,-0.77205 -8.56051,-2.79184 -1.75914,-1.44148 -3.60171,-4.37521 -4.4797,-7.13256 l -0.75076,-2.35776 -0.74149,2.20671 c -0.89801,2.67252 -1.78618,4.2355 -3.3866,5.95962 -2.77222,2.98652 -6.83318,4.67138 -9.92535,4.11794 z m 9.25606,-17.07725 c 1.43946,-0.68306 2.11767,-2.12458 1.69423,-3.60103 -0.20173,-0.70338 -0.1212,-0.97876 0.55515,-1.89845 0.78502,-1.06746 0.80455,-1.0758 2.53938,-1.08402 l 1.74827,-0.008 0.77185,1.12169 c 0.61788,0.89795 0.71691,1.22434 0.49646,1.63626 -0.66271,1.23828 0.10937,3.09784 1.60796,3.87279 1.07402,0.5554 2.58555,0.17599 3.39413,-0.85196 0.67985,-0.86429 0.72659,-2.73964 0.0924,-3.70752 -0.48619,-0.74202 -1.94901,-1.48523 -2.51082,-1.27566 -0.19886,0.0742 -0.70562,-0.39269 -1.19389,-1.09989 -0.71498,-1.03559 -0.80136,-1.31626 -0.54936,-1.78517 0.16445,-0.30601 0.37137,-0.90802 0.45982,-1.3378 0.14076,-0.684 0.36491,-0.8467 1.79802,-1.30512 1.53223,-0.49012 1.66853,-0.49535 2.12571,-0.0816 1.22514,1.10875 3.65067,0.61803 4.43417,-0.89708 0.67906,-1.31317 0.49942,-2.56202 -0.51436,-3.5758 -0.74905,-0.74905 -1.09339,-0.89958 -2.0578,-0.89958 -1.3971,0 -2.1721,0.49693 -2.85128,1.82823 -0.43574,0.85412 -0.72207,1.05986 -1.96851,1.41444 l -1.45859,0.41493 -0.95721,-0.90276 c -0.52646,-0.49652 -1.06779,-0.90276 -1.20295,-0.90276 -0.13516,0 -0.24574,-0.70178 -0.24574,-1.55952 0,-1.36758 0.0977,-1.66409 0.79375,-2.40923 1.64779,-1.76397 0.58956,-4.88267 -1.7198,-5.06837 -1.20006,-0.0965 -1.71951,0.0817 -2.49319,0.85539 -0.69198,0.69199 -0.8141,1.01254 -0.8141,2.13702 0,1.11713 0.12347,1.44639 0.79375,2.11667 0.70327,0.70326 0.79375,0.9724 0.79375,2.36089 0,1.2008 -0.0907,1.56715 -0.38805,1.56715 -0.21343,0 -0.79994,0.41188 -1.30336,0.9153 l -0.9153,0.9153 -1.60706,-0.54272 c -1.18374,-0.39975 -1.60706,-0.67034 -1.60706,-1.02723 0,-0.26649 -0.36635,-0.85087 -0.8141,-1.29863 -2.10185,-2.10184 -5.77557,0.10969 -4.97132,2.99267 0.29883,1.07122 0.94733,1.70559 2.09514,2.04948 0.85564,0.25636 1.14348,0.21683 2.17605,-0.29886 l 1.18996,-0.5943 1.55024,0.51675 c 1.4584,0.48613 1.55972,0.57503 1.71017,1.50065 0.088,0.54115 0.28668,1.11066 0.4416,1.26558 0.4375,0.4375 -1.3884,2.85278 -2.02983,2.68504 -0.27079,-0.0708 -0.85293,0.0577 -1.29364,0.28562 -2.38407,1.23284 -2.55292,3.888 -0.34202,5.37793 1.06153,0.71536 1.37858,0.73821 2.54737,0.18358 z"
       id="path12" /><path
       style="fill:#000000"
       d="m -7.6729189,217.84556 c -2.4190371,-0.35496 -2.4066881,-0.3483 -2.9580571,-1.59476 -0.296137,-0.66947 -0.482999,-1.54373 -0.420692,-1.96826 0.12995,-0.8854 0.104736,-0.89208 -1.383751,-0.36691 -1.604144,0.56597 -2.008507,0.50458 -3.049939,-0.46303 -1.478289,-1.37349 -2.061276,-3.42508 -1.917118,-6.74651 0.109852,-2.53102 0.190401,-2.85835 1.209428,-4.91483 1.132554,-2.28559 2.937086,-4.39074 4.847388,-5.65492 0.564799,-0.37377 1.026466,-0.75305 1.025927,-0.84285 -5.4e-4,-0.0898 -1.161399,-0.17618 -2.579688,-0.19195 -1.999217,-0.0222 -2.935451,-0.16488 -4.166206,-0.63479 -3.395488,-1.29642 -5.86906,-3.40036 -7.279658,-6.19182 -1.435435,-2.84062 -0.865012,-5.17273 1.471917,-6.01777 0.948775,-0.34308 1.12022,-0.59366 0.618384,-0.90381 -0.572632,-0.35391 -1.334774,-2.49595 -1.164271,-3.27225 0.409003,-1.86218 3.827344,-4.02831 7.081232,-4.48722 3.827984,-0.53989 7.5977384,0.61876 11.0301556,3.39016 0.8774308,0.70845 1.1189591,0.81443 0.9550888,0.41909 -1.4549812,-3.51024 -1.5588414,-3.96291 -1.5783636,-6.87917 -0.027663,-4.13237 0.9944606,-6.94317 3.5361051,-9.72413 2.47896162,-2.71238 4.4514169,-2.872 6.2576909,-0.50639 0.5185143,0.67908 0.9829755,1.23468 1.0321359,1.23468 0.04916,0 0.5136216,-0.5556 1.0321359,-1.23468 1.1943202,-1.56416 2.3417721,-2.00839 3.710475,-1.43651 1.4778964,0.6175 3.6804534,2.87529 4.6079794,4.72353 2.207044,4.39786 2.177731,8.69278 -0.09595,14.05907 -0.129829,0.30642 0.374506,0.0231 1.298584,-0.72961 2.504437,-2.0399 4.436765,-2.88549 7.656886,-3.3507 3.475735,-0.50213 7.409995,0.70465 9.596169,2.94349 1.293683,1.32485 1.383309,2.55727 0.299689,4.12094 -0.396875,0.57269 -0.721591,1.11492 -0.721591,1.20495 0,0.09 0.412823,0.29994 0.917383,0.46646 0.504561,0.16652 1.232933,0.67777 1.618606,1.13612 0.620547,0.73748 0.684722,0.99322 0.557807,2.22292 -0.52763,5.11223 -6.855834,9.7825 -13.01095,9.60218 -0.730201,-0.0214 -1.433549,-0.0287 -1.562997,-0.0163 -0.129448,0.0124 0.22774,0.33163 0.79375,0.70938 4.083125,2.72504 6.453068,6.98382 6.453068,11.59615 0,4.02518 -1.31491,6.62614 -3.346361,6.61926 -0.560596,-0.002 -1.399067,-0.19485 -1.863269,-0.4288 -0.464203,-0.23394 -0.910687,-0.35867 -0.992188,-0.27717 -0.0815,0.0815 -0.148182,0.71701 -0.148182,1.41225 0,2.38102 -1.726096,3.34767 -5.120912,2.86781 -2.293916,-0.32424 -4.777078,-1.64204 -6.6681592,-3.53874 -1.9301398,-1.93587 -3.0218309,-3.78708 -3.9960521,-6.77621 -0.4390677,-1.34715 -0.7701662,-2.02864 -0.8309535,-1.71033 -0.6053818,3.17012 -2.7023171,7.04595 -4.86317443,8.98875 -2.10037097,1.88841 -5.96047097,3.42632 -7.88949967,3.14327 z M 1.289461,199.86164 c 0.8507305,-0.9136 0.8846449,-1.02613 0.7232063,-2.39972 -0.1509185,-1.28408 -0.092977,-1.54739 0.5315604,-2.41561 0.6875544,-0.95582 0.7347668,-0.97445 2.4718928,-0.97512 1.7666383,-6.9e-4 1.7729586,0.002 2.5955738,1.09323 0.7535989,0.99969 0.8000797,1.17388 0.5396617,2.0224 -0.3989116,1.29977 0.3412108,2.78927 1.7208126,3.46314 0.9054824,0.44228 1.1079824,0.45485 1.9801674,0.12289 1.106106,-0.42098 2.17106,-1.81379 2.16959,-2.8375 -0.0022,-1.49758 -1.698703,-3.18642 -3.227018,-3.21234 -0.403571,-0.007 -0.8879791,-0.39071 -1.43859,-1.14002 -0.7567963,-1.0299 -0.7985322,-1.18678 -0.4723965,-1.77562 0.1967581,-0.35525 0.3619611,-0.90409 0.3671177,-1.21965 0.00766,-0.46903 0.3261269,-0.67915 1.7448698,-1.15128 1.560616,-0.51934 1.780567,-0.53692 2.182812,-0.17448 1.160504,1.04568 3.333744,0.72016 4.305784,-0.64495 2.086688,-2.93048 -1.961809,-6.45525 -4.499571,-3.91749 -0.447756,0.44776 -0.814102,1.03336 -0.814102,1.30134 0,0.36353 -0.427525,0.62952 -1.683755,1.04756 l -1.683754,0.56032 -0.9356208,-0.93562 c -0.5145914,-0.51459 -1.1261208,-0.93562 -1.3589541,-0.93562 -0.3407411,0 -0.4233334,-0.3079 -0.4233334,-1.57819 0,-1.30467 0.091238,-1.62702 0.5264282,-1.85993 1.3808636,-0.73901 1.7386749,-3.17418 0.6555381,-4.46142 -0.9524563,-1.13193 -2.1990976,-1.49574 -3.402442,-0.99295 -2.0914529,0.87386 -2.6074188,3.52377 -0.9708607,4.98616 0.7336857,0.6556 0.8100864,0.87394 0.8100864,2.3151 0,1.28224 -0.082205,1.59123 -0.4233334,1.59123 -0.2328333,0 -0.8195487,0.39622 -1.3038119,0.88048 l -0.8804786,0.88048 -1.57813704,-0.48446 c -1.21006806,-0.37147 -1.61336386,-0.62482 -1.72917586,-1.08625 -0.2097714,-0.8358 -1.4925334,-1.99417 -2.2871467,-2.06537 -1.3217176,-0.11842 -1.8258604,0.0375 -2.5892278,0.80089 -1.3558596,1.35586 -1.2709809,3.33517 0.199239,4.64611 0.8279408,0.73824 2.7095543,0.72406 3.4596849,-0.0261 l 0.5552284,-0.55522 1.5945492,0.57737 c 1.54925976,0.56097 1.60819241,0.61767 2.07489659,1.99628 l 0.48034731,1.4189 -0.77622802,1.12821 c -0.48536411,0.70545 -0.91592931,1.0746 -1.1490485,0.98515 -0.59035108,-0.22654 -2.10978648,0.62865 -2.60429538,1.46579 -0.9115759,1.54317 -0.3280755,3.58163 1.2548125,4.38369 1.14233531,0.57883 2.23824751,0.30486 3.2874216,-0.82184 z"
       id="path11" /><path
       style="fill:#000000"
       d="m 186.09414,237.80562 c -0.14088,-0.18814 -0.48212,-0.87786 -0.7583,-1.5327 -0.82678,-1.96033 -1.19699,-2.37927 -2.83187,-3.20455 -2.06079,-1.04028 -2.02582,-1.61987 0.16579,-2.74741 1.45303,-0.74756 1.62978,-0.94254 2.52366,-2.78377 1.25126,-2.57737 1.5906,-2.57684 2.86878,0.004 0.90033,1.81824 1.10969,2.05082 2.50075,2.77812 2.29257,1.19865 2.25406,1.66996 -0.24658,3.01846 -1.09881,0.59254 -1.40486,0.95532 -2.25258,2.67008 -0.97934,1.98102 -1.48592,2.44327 -1.96965,1.79729 z"
       id="path10" /><path
       style="fill:#000000"
       d="m 34.49792,237.15318 c -0.934354,-2.26828 -1.296568,-2.82765 -2.303191,-3.55684 -0.579311,-0.41965 -1.195569,-0.76301 -1.369463,-0.76301 -0.485615,0 -1.222227,-0.9362 -1.062823,-1.35079 0.07803,-0.20295 0.82504,-0.72618 1.660025,-1.16275 1.391057,-0.7273 1.600417,-0.95988 2.500749,-2.77812 0.638844,-1.29017 1.137844,-1.98438 1.426372,-1.98438 0.478842,0 0.490128,0.0164 1.636621,2.37836 0.676194,1.39307 0.9579,1.6842 2.330541,2.40857 2.118478,1.11795 2.118919,1.69244 0.0022,2.8368 -1.569121,0.84831 -1.922491,1.2893 -3.004761,3.74981 -0.631791,1.43636 -1.283312,1.51612 -1.816248,0.22235 z"
       id="path9" /><path
       style="fill:#000000"
       d="m 213.20475,253.90663 c -1.11154,-0.63344 -2.34387,-1.38691 -2.73851,-1.67439 l -0.71753,-0.52269 -2.54675,1.53687 c -2.52814,1.52563 -3.60385,1.8396 -4.21362,1.22983 -0.46221,-0.4622 -0.39476,-1.34606 0.3291,-4.31271 l 0.64558,-2.64583 -2.23359,-2.25419 c -1.71444,-1.73026 -2.2336,-2.42341 -2.2336,-2.98224 0,-0.95342 0.51109,-1.16964 4.07724,-1.72496 l 2.87015,-0.44694 1.18148,-2.77813 c 0.64981,-1.52797 1.36729,-2.98648 1.59439,-3.24114 0.9834,-1.10271 1.74249,-0.33799 3.08961,3.11254 0.56733,1.45318 1.1372,2.78062 1.26638,2.94987 0.12918,0.16926 0.85397,0.38749 1.61063,0.48497 2.29368,0.2955 4.78336,0.92643 4.99981,1.26706 0.53221,0.83752 0.16211,1.49141 -1.83812,3.24762 -1.12779,0.9902 -2.20147,1.9339 -2.38596,2.09711 -0.26954,0.23845 -0.23056,0.80644 0.19844,2.8914 0.64273,3.12373 0.66455,3.95543 0.1181,4.50188 -0.5981,0.5981 -0.82958,0.54267 -3.07323,-0.73593 z"
       id="path8" /><path
       style="fill:#000000"
       d="m 5.6151195,254.64646 c -0.7273944,-0.50949 -0.7348924,-1.102 -0.054726,-4.32464 0.2887618,-1.36816 0.5250213,-2.57355 0.5250213,-2.67866 0,-0.10511 -1.0715625,-1.10757 -2.38125,-2.22768 -3.5193815,-3.00996 -3.27883399,-3.75496 1.4647745,-4.53657 1.449947,-0.23891 2.7684102,-0.56933 2.9299183,-0.73425 0.161508,-0.16493 0.7394521,-1.49049 1.2843202,-2.9457 0.8989532,-2.40088 1.6489782,-3.57188 2.2877982,-3.57188 0.537117,0 1.25549,1.10429 2.333276,3.58672 0.628259,1.44704 1.220016,2.71746 1.315014,2.82314 0.095,0.10567 1.538824,0.37046 3.2085,0.58841 2.453641,0.32028 3.122018,0.50155 3.485529,0.94527 0.247366,0.30194 0.380009,0.75153 0.294764,0.99908 -0.08525,0.24755 -1.144691,1.46212 -2.354324,2.69905 l -2.199331,2.24896 0.65864,2.51354 c 0.715894,2.73204 0.741732,4.16364 0.08259,4.57623 -0.621658,0.38913 -1.457379,0.093 -3.927676,-1.39168 -1.219354,-0.73286 -2.334508,-1.33247 -2.47812,-1.33247 -0.143612,0 -0.868749,0.40136 -1.611415,0.8919 -1.1612214,0.767 -3.9456316,2.2831 -4.1930523,2.2831 -0.045219,0 -0.3468331,-0.18534 -0.6702541,-0.41187 z"
       id="path7" /><path
       style="fill:#000000"
       d="M 87.180208,256.47332 C 82.774263,255.53611 78.35182,253.5375 74.249488,250.6296 71.102041,248.39855 65.100937,242.304 62.156278,238.34807 51.914049,224.58839 44.699985,207.2683 42.704445,191.64659 c -0.511078,-4.00088 -0.575238,-11.82253 -0.125518,-15.3018 1.761291,-13.62627 7.63604,-24.90247 16.423155,-31.52317 4.171265,-3.14286 9.421738,-5.43326 14.475369,-6.31454 2.890619,-0.50408 8.51277,-0.5047 11.616658,-0.001 5.442818,0.88278 10.835088,3.25893 16.482961,7.26336 2.84299,2.01572 4.71848,3.08182 4.9733,2.82699 0.25411,-0.2541 -0.93617,-5.52871 -1.94781,-8.63157 -1.13146,-3.47036 -3.78212,-8.91268 -5.863328,-12.03854 -2.771778,-4.16306 -6.106646,-7.88785 -10.477382,-11.70241 -1.171317,-1.02227 -1.267321,-1.19367 -1.109776,-1.9814 0.225068,-1.12534 1.995318,-2.9381 5.272533,-5.39915 3.945364,-2.9628 4.185946,-2.88883 8.017483,2.46509 6.70488,9.36894 11.32955,22.18863 12.38985,34.34495 0.32032,3.67251 0.37156,3.83646 1.19886,3.83646 0.98682,0 4.05478,-0.959 5.65041,-1.76623 0.7041,-0.35621 2.39076,-1.3599 3.74813,-2.23044 l 2.46796,-1.58279 1.80812,0.33888 c 1.06209,0.19905 3.77313,0.33485 6.57062,0.32911 3.92785,-0.008 5.24737,-0.1146 7.52916,-0.608 3.21654,-0.69553 7.09729,-2.07746 9.51457,-3.38813 l 1.6979,-0.92061 1.60939,0.58266 c 8.11646,2.93847 15.17097,9.61899 19.68167,18.63826 3.35718,6.71277 4.99684,13.63342 5.26562,22.225 0.42265,13.51019 -2.92426,27.15042 -10.23682,41.71987 -7.3562,14.65641 -16.84754,25.75444 -26.15911,30.58733 -5.22498,2.71187 -9.07253,3.63093 -14.32634,3.42213 -4.03794,-0.16047 -5.69487,-0.58429 -10.27606,-2.62846 -1.97395,-0.8808 -4.41188,-1.75477 -5.53221,-1.98323 -1.78985,-0.36501 -2.21677,-0.36631 -4.01144,-0.0123 -1.12184,0.22129 -3.29316,0.98196 -4.91883,1.7232 -3.39713,1.54894 -4.914843,2.0906 -7.27604,2.59675 -2.21968,0.47581 -7.288044,0.44471 -9.657292,-0.0593 z"
       id="path6" /><path
       style="fill:#000000"
       d="m 166.71632,285.94844 c -0.12246,-0.32742 -0.36279,-1.40853 -0.53405,-2.40246 -0.44242,-2.56754 -1.9713,-6.67371 -3.08927,-8.29695 -1.95661,-2.8409 -5.00468,-4.84135 -8.57633,-5.62863 -2.38412,-0.52553 -2.4183,-0.54227 -2.33053,-1.14174 0.0667,-0.45556 0.5157,-0.68349 2.46282,-1.25024 3.25661,-0.9479 5.01683,-1.91396 6.79094,-3.72706 2.42541,-2.4787 3.82098,-5.75123 4.98991,-11.70102 0.32885,-1.67382 0.88631,-2.18555 1.48658,-1.36463 0.19723,0.26974 0.35861,0.8096 0.35861,1.19968 0,1.44673 1.34973,6.00716 2.42261,8.18544 1.93268,3.92395 4.90405,6.27091 9.39274,7.41893 2.3471,0.60028 2.47215,0.6672 2.47215,1.3229 0,0.33836 -0.24346,0.56371 -0.7276,0.67347 -4.68907,1.06307 -6.83136,2.12246 -8.97566,4.43855 -0.8217,0.88754 -1.82962,2.33091 -2.23983,3.20751 -0.91869,1.9632 -2.01077,5.55529 -2.24231,7.37552 -0.0952,0.748 -0.2803,1.56836 -0.41145,1.82302 -0.33287,0.64642 -0.98385,0.57748 -1.24933,-0.13229 z"
       id="path5" /><path
       style="fill:#000000"
       d="m 54.018127,286.08073 c -0.132041,-0.25466 -0.324023,-1.04127 -0.426628,-1.74801 -0.635461,-4.37708 -2.309659,-8.32966 -4.555844,-10.75581 -1.652568,-1.78497 -4.579817,-3.38897 -7.23149,-3.96252 -2.374069,-0.51351 -2.418459,-0.53514 -2.330528,-1.13573 0.06679,-0.45621 0.512921,-0.68146 2.46282,-1.24345 6.958416,-2.00556 9.891761,-5.84898 11.780048,-15.43487 0.50741,-2.57586 1.620701,-2.29052 1.969967,0.50492 0.289175,2.31447 1.140329,5.08412 2.306431,7.50511 1.938158,4.02387 5.210257,6.5223 9.91196,7.56833 1.711989,0.38088 1.945136,0.50405 1.945136,1.02758 0,0.52407 -0.271065,0.66643 -2.278973,1.19686 -3.316022,0.876 -5.622905,2.11905 -7.273219,3.91913 -2.147972,2.3429 -4.059993,6.90873 -4.621975,11.03711 -0.09905,0.7276 -0.298706,1.47174 -0.443689,1.65364 -0.374679,0.47009 -0.933245,0.40922 -1.214016,-0.13229 z"
       id="path4" /><path
       style="fill:#000000"
       d="m 143.22021,294.81198 c -0.88418,-2.44642 -1.42336,-3.2654 -2.61079,-3.96564 -2.71934,-1.60361 -2.76153,-1.89985 -0.4432,-3.11196 1.3605,-0.71132 1.61632,-0.98609 2.46344,-2.64584 1.26721,-2.48281 1.6341,-2.50268 2.67551,-0.1449 0.78098,1.76816 0.92694,1.93153 2.44138,2.73254 2.24559,1.18773 2.2759,1.72752 0.16036,2.8551 -1.49766,0.79824 -1.6802,0.99902 -2.5473,2.80179 -0.69042,1.43544 -1.0694,1.94193 -1.45304,1.94193 -0.28546,0 -0.59432,-0.20836 -0.68636,-0.46302 z"
       id="path3" /><path
       style="fill:#000000"
       d="m 76.982018,293.75365 c -0.757,-1.91193 -1.110355,-2.32345 -2.832531,-3.29875 -0.76398,-0.43266 -1.448976,-0.88361 -1.522213,-1.00211 -0.282785,-0.45755 0.196595,-0.95449 1.657695,-1.71841 1.388225,-0.72582 1.59741,-0.95745 2.444197,-2.70645 1.189909,-2.45769 1.614956,-2.50158 2.616182,-0.27012 0.81521,1.81689 1.111235,2.13306 2.910823,3.10886 1.844536,1.00017 1.78718,1.62487 -0.243294,2.64985 -1.549191,0.78203 -1.673609,0.9188 -2.538346,2.79041 -1.157234,2.50468 -1.643209,2.59178 -2.492513,0.44672 z"
       id="path2" /><path
       style="fill:#000000"
       d="m 110.47585,305.81075 c -0.0647,-0.19211 -0.25532,-1.30179 -0.42363,-2.46596 -0.77623,-5.36893 -2.61915,-9.69516 -5.25332,-12.33211 -2.06538,-2.06757 -3.75237,-2.9834 -7.014458,-3.80801 -2.144219,-0.54202 -2.402151,-0.67182 -2.402151,-1.20888 0,-0.53929 0.226423,-0.65037 2.184367,-1.07157 4.683042,-1.00744 7.962202,-3.55329 9.985852,-7.75275 1.37024,-2.84352 1.81418,-4.3223 2.46843,-8.22251 0.46131,-2.74999 0.52285,-2.91042 1.11649,-2.91042 0.59003,0 0.6551,0.16103 1.06909,2.64584 1.01759,6.10768 2.63846,9.89524 5.34808,12.49716 2.01839,1.93815 3.77526,2.85978 6.91781,3.62896 2.03436,0.49793 2.40806,0.67287 2.48,1.16095 0.0934,0.63382 0.14968,0.60615 -2.46512,1.21256 -6.82215,1.58214 -10.65402,6.60138 -12.23671,16.02849 -0.42189,2.51295 -0.52323,2.78621 -1.06176,2.86283 -0.32744,0.0466 -0.64828,-0.0725 -0.71297,-0.26458 z m 3.38214,-16.15313 c 0.6595,-0.91226 1.79708,-2.07538 2.52795,-2.5847 0.73087,-0.50932 1.33443,-0.98967 1.34125,-1.06743 0.007,-0.0778 -0.31503,-0.33644 -0.71521,-0.57482 -2.23798,-1.33313 -3.83476,-3.35085 -5.24417,-6.62662 l -0.54782,-1.27325 -1.09292,2.2056 c -1.25268,2.52802 -2.72092,4.31707 -4.42804,5.39557 -0.65322,0.41268 -1.18217,0.80985 -1.17544,0.88262 0.007,0.0728 0.66923,0.60332 1.47224,1.17903 1.74828,1.25339 2.93414,2.8064 4.23563,5.54696 l 0.96725,2.03675 0.73009,-1.73053 c 0.40155,-0.95179 1.26969,-2.47692 1.92919,-3.38918 z"
       id="path1" /></g></svg>
