<?xml version="1.0" encoding="UTF-8" standalone="no"?>
<!-- Created with Inkscape (http://www.inkscape.org/) -->

<svg
   version="1.1"
   id="svg1"
   width="1226.0237"
   height="1226.2996"
   viewBox="0 0 1226.0237 1226.2996"
   sodipodi:docname="stamp_goal_bear_1.svg"
   inkscape:version="1.4.4 (dcaf3e7, 2026-05-05)"
   xmlns:inkscape="http://www.inkscape.org/namespaces/inkscape"
   xmlns:sodipodi="http://sodipodi.sourceforge.net/DTD/sodipodi-0.dtd"
   xmlns="http://www.w3.org/2000/svg"
   xmlns:svg="http://www.w3.org/2000/svg">
  <defs
     id="defs1" />
  <sodipodi:namedview
     id="namedview1"
     pagecolor="#ffffff"
     bordercolor="#000000"
     borderopacity="0.25"
     inkscape:showpageshadow="2"
     inkscape:pageopacity="0.0"
     inkscape:pagecheckerboard="0"
     inkscape:deskcolor="#d1d1d1"
     inkscape:zoom="0.021201998"
     inkscape:cx="613.14976"
     inkscape:cy="589.56708"
     inkscape:window-width="944"
     inkscape:window-height="250"
     inkscape:window-x="0"
     inkscape:window-y="33"
     inkscape:window-maximized="0"
     inkscape:current-layer="g1">
    <inkscape:page
       x="0"
       y="0"
       width="1226.0237"
       height="1226.2996"
       id="page2"
       margin="0"
       bleed="0" />
  </sodipodi:namedview>
  <g
     inkscape:groupmode="layer"
     inkscape:label="Image"
     id="g1"
     transform="translate(-13.543462,-20.573764)">
    <path
       style="fill:#000000"
       d="m 595.25778,1245.4236 c -53.1906,-6.4438 -106.25191,-32.0599 -142.75778,-68.9184 -8.56679,-8.6495 -21.98898,-25.2728 -26.04384,-32.2552 -2.22583,-3.8328 -2.40746,-3.8544 -10.04961,-1.1932 -8.7154,3.0348 -24.35839,6.5882 -37.40655,8.4969 -14.33567,2.0971 -46.5527,1.5553 -60.5,-1.0174 -29.41439,-5.4258 -55.32441,-15.0693 -80,-29.7752 -58.68391,-34.9738 -96.62449,-91.213 -105.08101,-155.7611 -3.03171,-23.14087 -0.64664,-57.29706 5.56524,-79.69905 1.03283,-3.7247 1.7964,-6.81358 1.69682,-6.86418 C 113.16501,864.45438 82.553267,839.61302 63.078914,815.46281 39.309841,785.9867 22.997595,749.37424 15.868445,709.5 13.836887,698.13724 13.544075,693.28849 13.543463,671 c -6.07e-4,-22.05886 0.298476,-27.11936 2.216306,-37.5 12.235896,-66.22924 48.227967,-119.31538 103.701601,-152.95362 5.77462,-3.50164 11.05609,-6.5522 11.73659,-6.77903 0.88155,-0.29385 -0.24407,-4.84797 -3.91507,-15.83989 -9.50821,-28.47 -12.61799,-46.95265 -12.60683,-74.92746 0.006,-15.62306 0.45008,-22.04802 2.23245,-32.31589 C 121.25461,325.64705 127.06542,307.45853 137.57356,286 173.33882,212.9643 245.41039,164.36615 322.5,161.30335 c 23.66075,-0.94005 43.01523,2.0061 67.30166,10.24469 7.38561,2.50539 13.54501,4.41951 13.68755,4.25361 0.14255,-0.16591 1.95046,-4.57665 4.01759,-9.80165 10.78786,-27.2681 26.09943,-50.5481 47.91371,-72.848897 C 475.20651,72.923816 494.84055,58.62933 519.5,46.498266 604.77114,4.5496595 701.86116,13.98204 775.40141,71.359311 806.39346,95.539806 832.65161,131.20492 846.55234,168 c 1.55837,4.125 2.96016,7.67605 3.1151,7.89123 0.15493,0.21518 4.90564,-1.23935 10.55712,-3.23227 45.9248,-16.19483 92.82569,-15.50538 136.77544,2.0106 23.8848,9.5192 40.4224,19.53842 61,36.95669 33.972,28.75619 59.0712,68.09369 71.8178,112.55884 6.0023,20.93821 7.6281,33.71551 7.6113,59.81491 -0.02,30.27499 -2.5292,45.36909 -12.5085,75.23286 -2.1563,6.45308 -3.9206,11.9181 -3.9206,12.14451 0,0.2264 4.5584,2.99265 10.1299,6.14722 14.8433,8.40437 28.6651,19.18515 43.4978,33.92759 14.8787,14.78823 25.9699,29.20414 35.7264,46.43577 29.2752,51.70493 37.0599,116.344 21.0293,174.61205 -10.5763,38.44236 -28.4209,69.85861 -55.8834,98.38538 -17.7675,18.456 -35.8024,32.39902 -55.8406,43.17116 -6.5866,3.54079 -7.7667,4.55313 -7.3783,6.32921 0.2542,1.16284 1.4022,6.61425 2.551,12.11425 11.5673,55.38009 3.6745,106.40218 -23.7143,153.2984 -11.5403,19.7597 -34.9437,45.5974 -54.5161,60.1867 -32.8367,24.4765 -69.84327,40.1201 -107.6025,45.4862 -13.69218,1.9458 -42.59577,1.9645 -57.19798,0.037 -12.13096,-1.6013 -28.66558,-5.3163 -38.17606,-8.5773 -3.23116,-1.108 -6.00263,-1.8831 -6.15881,-1.7226 -0.15618,0.1605 -2.9125,3.9616 -6.12516,8.447 -37.02616,51.6939 -97.58368,87.1383 -163.68191,95.803 -14.50478,1.9014 -46.56738,1.8836 -62.4015,-0.035 z M 658,1221.3506 c 13.35751,-1.9132 33.90924,-7.1897 45.5,-11.6818 30.66384,-11.8841 53.82683,-26.8995 76.54627,-49.6212 14.32127,-14.3227 22.35032,-24.6517 30.9357,-39.7976 2.88384,-5.0875 5.77468,-9.25 6.4241,-9.25 0.64941,0 6.16379,2.003 12.25418,4.4511 23.16712,9.3122 45.43893,13.5489 71.22467,13.5489 24.58291,0 40.94271,-2.9396 65.11508,-11.7002 50.9014,-18.4478 93.2749,-56.463 113.9069,-102.1909 20.2027,-44.77656 21.9918,-93.68791 5.1661,-141.23532 -1.6135,-4.55954 -2.7575,-8.57499 -2.5423,-8.92324 0.2152,-0.34824 4.3634,-2.27956 9.2181,-4.29182 24.825,-10.28981 53.5737,-31.40776 72.2075,-53.04142 33.479,-38.86898 51.509,-86.4865 51.3503,-135.6171 -0.097,-30.12731 -5.8045,-57.03877 -17.8655,-84.24127 -20.1354,-45.41379 -60.9959,-84.84142 -103.4411,-99.81363 -3.575,-1.26105 -6.6164,-2.36849 -6.7587,-2.46097 -0.1422,-0.0925 2.6332,-6.20174 6.1678,-13.57614 17.0702,-35.615 23.5625,-71.74604 19.5316,-108.6974 -5.5935,-51.27466 -33.098,-101.82825 -72.9423,-134.06878 C 1006.7022,202.19973 970.86114,188.07552 931.27671,186.29685 902.36858,184.9979 875.68662,191.13047 844,206.35648 l -9.5,4.56493 -1.78147,-6.21071 C 822.91058,170.51735 810.68124,145.80397 792.27668,122.98474 784.48597,113.32529 766.67815,96.152696 756.64464,88.623754 727.13913,66.483421 693.81928,52.620812 657.80359,47.50127 c -13.2185,-1.878978 -41.07815,-1.913663 -55.8416,-0.06952 -66.65877,8.326524 -127.10483,46.953435 -159.32788,101.81547 -9.3368,15.89655 -20.68313,43.83079 -23.15342,57.00278 -0.3868,2.0625 -1.11442,3.75 -1.61695,3.75 -0.50252,0 -4.01366,-1.56113 -7.80253,-3.46918 -25.39509,-12.78876 -55.15002,-20.51326 -79.06734,-20.52621 -61.24563,-0.0332 -121.99694,33.55779 -158.24078,87.49539 -40.7908,60.70432 -45.2762,135.51653 -12.09836,201.7893 l 5.4014,10.7893 -3.27807,1.34866 c -1.80293,0.74177 -6.69117,2.76011 -10.86275,4.4852 -9.51782,3.93595 -23.04333,11.62157 -33.34555,18.94797 -10.1868,7.24432 -31.059904,27.34774 -39.080647,37.63957 -22.113033,28.37438 -35.59143,59.95915 -40.981321,96.0341 -1.906059,12.75739 -2.170859,38.53358 -0.533848,51.9659 3.297484,27.05716 14.751772,59.04177 29.83226,83.30271 20.826765,33.50534 51.145116,60.51192 87.943796,78.33741 7.8375,3.79653 14.25,7.26431 14.25,7.70618 0,0.44187 -1.14944,4.14471 -2.55431,8.22855 -15.03078,43.69318 -15.28426,86.94373 -0.73802,125.92515 23.51306,63.011 80.67712,110.9447 149.79233,125.6053 9.15404,1.9418 16.19215,2.6776 29.67623,3.1028 29.66093,0.9353 50.25462,-2.8782 79.24006,-14.6735 5.45397,-2.2194 10.01313,-3.9227 10.13148,-3.785 0.11836,0.1377 1.66013,3.1325 3.42616,6.655 9.79754,19.5423 29.08438,42.5817 48.68522,58.1578 34.44794,27.3745 78.84157,44.6966 122.84085,47.9318 13.76787,1.0123 33.79503,0.3194 47.5,-1.6436 z"
       id="path57" />
    <path
       style="fill:#000000"
       d="m 612.5,1206.406 c -31.47268,-3.1852 -55.42327,-9.8564 -80.5,-22.4227 -37.65733,-18.8704 -67.15133,-47.3085 -86.58319,-83.4833 -2.06808,-3.85 -3.8679,-7.1475 -3.99959,-7.3278 -0.13169,-0.1803 -3.7827,1.2301 -8.11336,3.1342 -15.95908,7.0168 -34.49472,11.9806 -55.00891,14.7311 -11.54655,1.5482 -41.49456,0.7459 -53.14274,-1.4236 -69.46991,-12.9391 -122.85367,-57.5595 -143.7041,-120.1139 -5.53971,-16.61996 -7.52231,-28.09242 -8.15079,-47.16514 -0.83965,-25.48086 2.48426,-47.28196 10.79882,-70.82808 2.13768,-6.05373 3.89056,-11.31905 3.89528,-11.7007 0.005,-0.38166 -2.80392,-1.93611 -6.24142,-3.45434 -3.4375,-1.51823 -10.525,-4.9838 -15.75,-7.70126 C 80.51836,804.19241 36.910011,713.52231 59.395831,627 74.920914,567.26164 116.68839,520.87241 176,497.49308 c 5.225,-2.05958 9.6026,-3.82818 9.728,-3.93021 0.12539,-0.10204 -2.88993,-6.24871 -6.70072,-13.65927 -16.55343,-32.19021 -23.23501,-58.99001 -23.28686,-93.4036 -0.0296,-19.63913 1.73723,-32.67415 6.77691,-49.99791 17.0272,-58.5305 60.38614,-105.00495 115.02821,-123.29343 44.70569,-14.96282 91.40975,-11.12352 136.72817,11.23973 7.22224,3.56394 13.26584,6.34539 13.43024,6.18099 0.1644,-0.1644 1.89129,-6.11077 3.83753,-13.21414 C 448.09704,156.99076 485.80298,110.20027 538.2456,85.002703 569.83513,69.824608 601.04319,63.175856 635.46523,64.290454 659.90957,65.08197 679.25416,69.03135 701,77.669993 751.71185,97.815526 791.39002,137.87187 811.77421,189.5 c 4.05743,10.27645 9.36234,27.21999 11.24336,35.91057 0.58458,2.70081 1.28395,5.26828 1.55415,5.70548 0.27021,0.4372 2.81945,-0.57783 5.66498,-2.25562 14.69898,-8.66682 37.83512,-17.20105 58.2633,-21.49157 11.66266,-2.4495 15.10889,-2.73464 33.5,-2.77174 18.60567,-0.0375 21.67113,0.20929 33.17367,2.67109 69.44903,14.86365 123.03343,70.03082 138.58003,142.67343 2.5037,11.69845 2.6897,14.27018 2.717,37.55836 0.026,22.24018 -0.2231,26.21432 -2.2569,36 -4.7491,22.8497 -11.04,40.81378 -20.738,59.21915 -2.9616,5.62054 -5.0676,10.41123 -4.6802,10.64599 0.3874,0.23475 4.7555,1.98817 9.7069,3.89649 44.6611,17.21297 78.6175,48.19022 100.2948,91.49556 6.785,13.55444 13.0511,31.76339 16.1262,46.86162 14.2634,70.03134 -13.1781,142.2041 -72.0825,189.58113 -12.824,10.31442 -26.4152,18.74845 -43.591,27.0505 -7.8375,3.78831 -14.2461,7.19422 -14.2414,7.5687 0,0.37447 1.7576,5.63391 3.8953,11.68764 23.1154,65.46081 10.1854,133.42052 -34.4946,181.30272 -29.0429,31.1244 -66.11281,50.77 -108.95225,57.7405 -12.91575,2.1016 -39.27772,2.1525 -54.14935,0.1046 -18.24564,-2.5125 -45.87575,-10.3319 -57.50804,-16.275 -1.48519,-0.7588 -2.94203,-1.3796 -3.23743,-1.3796 -0.2954,0 -2.07117,3.0375 -3.94615,6.75 -7.69707,15.2403 -22.30384,35.0021 -35.62712,48.2006 -31.08295,30.7919 -68.56209,49.4937 -113.48896,56.63 -9.01297,1.4316 -37.48039,2.5864 -45,1.8254 z m 32.64405,-12.4504 c 52.51951,-5.2963 98.08843,-29.6042 130.12091,-69.4105 9.80803,-12.1882 15.44364,-20.8458 22.487,-34.5451 2.96916,-5.775 5.97851,-10.9091 6.68743,-11.4092 0.86244,-0.6084 5.18121,0.8212 13.05125,4.3201 29.86746,13.2785 58.01764,19.0005 87.50936,17.7879 69.74364,-2.8678 133.6802,-50.4891 154.9284,-115.39388 5.8154,-17.76384 7.4395,-28.64949 7.431,-49.80492 -0.01,-25.61898 -3.6129,-43.90159 -13.5584,-68.80761 -4.3666,-10.93506 -4.9087,-13.00169 -3.7077,-14.13509 0.7737,-0.73013 5.9067,-3.21962 11.4067,-5.53221 56.1071,-23.5914 98.3673,-67.48012 116.0528,-120.52509 6.4853,-19.45162 7.8282,-28.47135 7.8909,-53 0.061,-23.64348 -0.815,-30.64741 -6.1199,-48.96024 -16.5683,-57.19497 -62.5436,-103.29158 -120.717,-121.03554 -9.2988,-2.83632 -10.0066,-3.71424 -6.7315,-8.34985 7.8199,-11.06842 19.6942,-36.52968 24.6663,-52.89032 13.9911,-46.03732 9.9678,-92.28594 -11.68,-134.26405 C 1047.6672,274.65753 1021.5422,249.18617 987.5,232.57399 937.81786,208.32968 882.40451,212.62719 827.64472,244.97133 822.96217,247.7371 818.30755,250 817.30111,250 c -1.52958,0 -2.20428,-1.84635 -4.11108,-11.25 C 802.80314,187.5255 779.17414,147.11292 742.36601,117.61998 717.73107,97.880946 689.41557,85.135155 657.5,79.418844 c -13.58448,-2.43308 -42.97496,-2.46045 -56.99387,-0.05308 -20.48823,3.518309 -35.58723,8.273705 -53.88307,16.970355 -56.52957,26.870481 -95.55157,79.848331 -108.02669,146.661431 -0.87232,4.6719 -1.68631,6.58867 -2.897,6.82183 -0.92609,0.17835 -5.48308,-1.9706 -10.12664,-4.77545 -54.17626,-32.72401 -111.61111,-36.61716 -162.61493,-11.02268 -29.6157,14.86161 -55.28783,39.50304 -71.95089,69.06214 -32.66893,57.95242 -30.0934,122.59525 7.42436,186.34337 3.05611,5.19276 5.31434,10.03355 5.01831,10.75731 -0.29604,0.72376 -5.92491,3.05615 -12.5086,5.18308 C 152.373,517.82696 116.06447,545.75029 93.583336,580.24074 82.486361,597.26566 73.537556,619.2495 68.850493,641 c -3.064405,14.22049 -3.318882,47.09482 -0.483808,62.5 8.825126,47.95381 39.780165,92.68953 85.066545,122.93682 9.50088,6.34574 44.39621,24.56318 47.05054,24.56318 0.69924,0 1.83638,0.68083 2.52699,1.51297 1.03105,1.24234 0.67166,2.89688 -2.00922,9.25 -17.60798,41.72704 -20.60452,85.42839 -8.38162,122.23703 3.29213,9.9141 12.05178,28.0965 17.86594,37.0842 26.47308,40.9232 70.54663,69.455 119.51414,77.3697 35.20499,5.6902 71.3189,0.1455 106.53279,-16.3563 4.80923,-2.2537 9.30722,-4.0976 9.99552,-4.0976 0.68831,0 3.79684,5.051 6.90785,11.2244 14.99818,29.7621 35.5622,52.89 63.95767,71.9319 37.17476,24.9291 84.72725,37.138 127.75022,32.7993 z"
       id="path56" />
    <path
       style="fill:#000000"
       d="m 586.18538,241.31618 c -3.24948,-1.29998 -3.1136,-5.06404 0.86364,-23.9238 C 589.22206,207.08798 591,198.12697 591,197.47902 591,196.83107 585.84568,191.7225 579.54595,186.12665 562.4626,170.95203 561,169.45405 561,167.13192 c 0,-4.77971 2.51456,-5.65905 23.34694,-8.16443 10.82477,-1.30183 20.02642,-2.61458 20.44812,-2.91723 0.4217,-0.30264 4.35282,-8.8014 8.73583,-18.88612 8.51612,-19.59447 10.48693,-22.27308 15.14185,-20.57993 2.06636,0.7516 4.07567,4.41008 11.20735,20.40588 l 8.68959,19.49009 20.46516,2.53838 c 11.25584,1.3961 21.02766,2.88962 21.71516,3.31892 0.6875,0.42931 1.25,2.30137 1.25,4.16014 0,3.07949 -1.17655,4.42068 -13.25,15.10412 -7.2875,6.44849 -14.01648,12.43862 -14.95328,13.3114 -1.59984,1.49048 -1.46319,2.73433 2.25,20.48035 2.1743,10.39142 3.95328,19.94355 3.95328,21.22695 0,1.40339 -1.02588,3.00564 -2.57384,4.0199 -2.44952,1.60498 -2.79319,1.57987 -7.1151,-0.51987 -2.4977,-1.21348 -10.77128,-5.787 -18.38574,-10.16339 C 634.31085,225.58068 627.51576,222 626.8251,222 c -0.69066,0 -9.22759,4.5 -18.97097,10 -17.19485,9.70625 -18.88131,10.43132 -21.66875,9.31618 z"
       id="path55" />
    <path
       style="fill:#000000"
       d="m 907.357,272.00842 c -5.28569,-2.13304 -7.11581,-10.50273 -3.34481,-15.29678 3.98937,-5.07167 12.59406,-4.30754 15.53497,1.37955 4.44449,8.5947 -3.34429,17.48698 -12.19016,13.91723 z"
       id="path54" />
    <path
       style="fill:#000000"
       d="m 336.30426,271.09551 c -5.91893,-3.70448 -5.36008,-13.46393 0.95808,-16.73117 6.52247,-3.3729 13.73766,1.2042 13.73766,8.71475 0,7.78413 -8.05038,12.17555 -14.69574,8.01642 z"
       id="path53" />
    <path
       style="fill:#000000"
       d="m 747.26554,267.97904 c -1.21621,-4.96153 -3.46099,-11.59903 -4.98841,-14.75 -2.39911,-4.94921 -3.52579,-6.10588 -8.27713,-8.49746 -3.025,-1.52263 -8.39869,-3.58118 -11.94152,-4.57456 -3.54284,-0.99339 -6.58613,-2.23996 -6.76286,-2.77016 -0.17673,-0.5302 3.6615,-2.20555 8.5294,-3.723 4.8679,-1.51746 10.47613,-3.86349 12.46272,-5.21342 4.57915,-3.11161 8.91518,-12.02261 11.30106,-23.22489 0.96927,-4.55094 2.07953,-7.92594 2.46723,-7.5 0.38771,0.42595 1.47791,4.37445 2.42266,8.77445 0.94475,4.4 3.04974,10.81925 4.67776,14.26501 2.65503,5.61945 3.54652,6.5605 8.65179,9.13277 3.13047,1.57727 8.50426,3.65482 11.94176,4.61677 3.4375,0.96195 6.25,2.27796 6.25,2.92446 0,0.6465 -3.08965,1.97681 -6.86589,2.95624 -8.94181,2.31921 -16.3685,6.62989 -19.13536,11.10677 -1.21809,1.97092 -3.40362,8.51355 -4.85673,14.53919 -1.45311,6.02563 -2.87223,10.95639 -3.15361,10.95724 -0.28137,8.5e-4 -1.50666,-4.05788 -2.72287,-9.01941 z"
       id="path52" />
    <path
       style="fill:#000000"
       d="m 501.46286,274.25 c -5.11489,-24.45201 -8.22645,-28.78853 -23.90821,-33.32038 -9.98262,-2.88486 -10.00066,-2.89258 -8.97187,-3.83864 0.50447,-0.4639 4.06722,-1.86115 7.91722,-3.105 16.36707,-5.28784 19.76787,-9.45599 24.05766,-29.48598 1.92198,-8.97416 2.22204,-8.76106 4.92835,3.5 2.27309,10.29835 5.88613,17.50126 10.2746,20.4833 1.97621,1.34287 7.56244,3.69598 12.41386,5.22914 4.85142,1.53316 8.6893,3.18515 8.52864,3.67108 -0.16067,0.48594 -3.87733,2.06094 -8.25924,3.5 -9.31139,3.05795 -14.00656,5.6393 -16.60917,9.13153 -2.41786,3.24432 -6.57427,15.54105 -7.42778,21.97506 -0.73159,5.51499 -2.05126,6.52799 -2.94406,2.25989 z"
       id="path51" />
    <path
       style="fill:#000000"
       d="m 560.14523,298.67499 c -1.71195,-2.06277 -3.50089,-11.1218 -2.77076,-14.03088 0.95494,-3.80475 5.03605,-6.23372 8.11598,-4.83042 4.25481,1.93863 5.83547,14.67882 2.34324,18.8867 -1.40266,1.6901 -6.27809,1.674 -7.68846,-0.0254 z"
       id="path50" />
    <path
       style="fill:#000000"
       d="m 688,299 c -1.56037,-1.56037 -2,-3.33333 -2,-8.06574 0,-7.03691 1.11316,-9.64659 4.69578,-11.0087 1.93215,-0.7346 3.16404,-0.5922 4.9392,0.57092 C 701.08483,284.06737 696.89845,301 690.56574,301 690.25458,301 689.1,300.1 688,299 Z"
       id="path49" />
    <path
       style="fill:#000000"
       d="m 681.3546,360.48169 c -0.69976,-1.82354 2.21306,-45.19146 3.20975,-47.78878 1.46194,-3.80976 8.03432,-3.1401 9.05397,0.9225 0.34264,1.36516 -1.11882,12.69767 -3.24767,25.18335 -3.65485,21.43559 -3.99634,22.71909 -6.12512,23.02138 -1.39382,0.19792 -2.49744,-0.31304 -2.89093,-1.33845 z"
       id="path48" />
    <path
       style="fill:#000000"
       d="m 567.52498,359.75 c -1.08964,-4.778 -6.60078,-40.41565 -6.71995,-43.45437 -0.15361,-3.91711 1.65772,-6.29563 4.79436,-6.29563 4.46155,0 5.2058,2.98029 6.44154,25.79476 0.63438,11.71211 0.87612,22.39961 0.53719,23.75 -0.80232,3.19672 -4.33817,3.34034 -5.05314,0.20524 z"
       id="path47" />
    <path
       style="fill:#000000"
       d="m 989.75288,406.26761 c -2.33908,-2.05281 -8.5867,-7.67781 -13.88358,-12.5 C 970.57241,388.94543 965.60708,385 964.83522,385 c -0.77185,0 -8.7977,2.475 -17.83522,5.5 -9.03752,3.025 -17.22431,5.5 -18.19287,5.5 -0.96856,0 -2.46416,-1.07312 -3.32354,-2.3847 -1.47618,-2.25294 -1.2897,-3.06797 3.37477,-14.75 2.71551,-6.80092 6.10428,-14.99979 7.53061,-18.21971 l 2.59333,-5.85442 -10.43402,-15.24384 c -11.33755,-16.5639 -12.61169,-19.34106 -10.04918,-21.90357 2.08592,-2.08593 3.09402,-2.06726 21.58377,0.39968 8.4236,1.12389 16.16719,1.91139 17.20798,1.75 1.15222,-0.17867 6.25667,-6.55141 13.05076,-16.29344 9.20363,-13.19707 11.62917,-16.05437 13.84577,-16.31038 4.04474,-0.46715 5.12163,2.18447 9.26379,22.81024 2.04337,10.17492 3.79028,18.56528 3.88202,18.64523 0.0918,0.08 8.10511,2.67468 17.80761,5.76605 9.7024,3.09138 18.1901,6.28268 18.8616,7.09178 2.8919,3.48444 0.4185,5.9576 -15.8338,15.83283 l -15.8705,9.6432 -0.6431,8.26053 c -0.3536,4.54328 -0.6457,13.68302 -0.649,20.31052 0,8.03156 -0.4062,12.45018 -1.206,13.25 -2.16159,2.16159 -5.72073,1.26451 -10.04712,-2.53239 z"
       id="path46" />
    <path
       style="fill:#000000"
       d="m 253.67727,408.19588 c -1.37031,-1.51418 -1.67647,-4.92199 -1.90499,-21.20399 L 251.5,367.59202 236.69142,358.36984 c -8.14472,-5.07221 -15.45722,-9.76051 -16.25,-10.41846 -1.92159,-1.59477 -1.83118,-5.38301 0.16806,-7.04224 0.88521,-0.73466 9.06702,-3.70657 18.1818,-6.60424 9.11478,-2.89768 16.89271,-5.61419 17.2843,-6.0367 0.39158,-0.42251 2.16847,-8.4182 3.94864,-17.7682 4.05747,-21.31118 4.88366,-23.5 8.87021,-23.5 2.75482,0 3.92443,1.35886 14.5028,16.8495 l 11.50631,16.8495 9.29823,-1.30055 c 24.2135,-3.38675 28.67624,-3.74458 30.26428,-2.42663 3.15998,2.62256 1.66415,6.34285 -8.93516,22.22265 l -10.46911,15.68474 7.51427,18.04176 c 10.64791,25.56567 10.19437,26.04527 -16.35003,17.28929 l -17.86909,-5.89433 -14.26374,12.84203 c -14.73237,13.26395 -17.19598,14.59591 -20.41592,11.03792 z"
       id="path45" />
    <path
       style="fill:#000000"
       d="m 1033.5,426.79218 c -3.2766,-1.87912 -4.4346,-4.05798 -4.4682,-8.40732 -0.061,-7.87328 7.0297,-12.47288 13.8171,-8.96301 3.8653,1.99885 5.1511,4.35105 5.1511,9.42351 0,3.21313 -0.5909,4.47403 -3.0767,6.56575 -3.3148,2.78916 -7.9838,3.35364 -11.4233,1.38107 z"
       id="path44" />
    <path
       style="fill:#000000"
       d="m 210.357,427.00842 c -3.1034,-1.25238 -5.357,-4.95299 -5.357,-8.79667 0,-4.39242 1.40935,-6.85496 4.97998,-8.7014 4.34853,-2.24871 7.61345,-1.84543 11.23152,1.38731 8.4116,7.51578 -0.25978,20.38626 -10.8545,16.11076 z"
       id="path43" />
    <path
       style="fill:#000000"
       d="m 817,465.35311 c 0,-2.33906 52.32676,-111.62428 56.48642,-117.97273 C 874.50941,345.81911 876.00167,345 877.82305,345 881.26374,345 883,346.64072 883,349.89207 883,353.49358 852.4361,409.22372 827.68681,450.75 819.75039,464.06634 817,467.82465 817,465.35311 Z"
       id="path42" />
    <path
       style="fill:#000000"
       d="M 431.61654,462.25 C 422.38751,447.90044 370,352.23647 370,349.73306 370,347.53727 373.36699,345 376.28081,345 c 2.40274,0 3.30777,1.40849 10.7628,16.75 17.18959,35.37402 45.97626,97.31325 47.40517,102 1.01584,3.33187 -0.10709,2.73714 -2.83224,-1.5 z"
       id="path41" />
    <path
       style="fill:#000000"
       d="m 775.62092,477.19565 c -0.57155,-0.92478 11.10356,-37.49389 34.38306,-107.69565 8.93685,-26.95 19.60604,-59.26663 23.7093,-71.81473 4.10518,-12.55393 8.07794,-23.05166 8.83339,-23.34155 1.59007,-0.61017 22.27026,7.18907 24.35135,9.18377 1.18999,1.14058 0.0884,4.21446 -7.40278,20.65625 -9.9422,21.82143 -42.8434,93.11709 -49.98531,108.31626 -2.58438,5.5 -8.42526,18.1 -12.97974,28 -14.67093,31.88995 -17.51085,37.5 -18.9833,37.5 -0.78587,0 -1.65256,-0.36196 -1.92597,-0.80435 z"
       id="path40" />
    <path
       style="fill:#000000"
       d="M 467.10871,463.84264 C 459.69052,448.27722 442.36424,410.25154 425.71656,373 419.94039,360.075 408.64118,334.99133 400.60721,317.2585 392.57325,299.52568 386,284.57901 386,284.04369 c 0,-1.32891 2.63063,-2.63482 13.3443,-6.62447 12.41348,-4.62265 13.23919,-4.54941 15.00311,1.33078 0.78369,2.6125 8.4954,27.025 17.13713,54.25 30.67537,96.63997 44.77541,141.51811 44.89465,142.89237 0.0664,0.76581 -0.45426,1.59499 -1.15712,1.84264 -0.8281,0.29178 -3.68394,-4.59821 -8.11336,-13.89237 z"
       id="path39" />
    <path
       style="fill:#000000"
       d="m 867.40182,489.27717 c -10.41453,-6.456 -10.17,-5.01863 -2.87959,-16.92633 16.08467,-26.27173 36.92769,-58.34919 37.90313,-58.33302 0.59105,0.01 5.79964,1.9223 11.57464,4.25 8.64466,3.48436 10.48959,4.59604 10.4411,6.29141 -0.0491,1.71674 -39.07622,54.58452 -48.14517,65.2195 L 873.5,493.05745 Z"
       id="path38" />
    <path
       style="fill:#000000"
       d="m 366.25565,475.79384 c -7.12888,-9.51161 -18.7002,-24.83317 -25.71405,-34.0479 -7.33709,-9.6394 -12.52558,-17.34529 -12.21819,-18.14634 0.64532,-1.68169 21.34174,-9.94207 23.16088,-9.244 1.14649,0.43995 7.27262,10.14268 34.68651,54.93743 4.30606,7.03617 7.8292,13.18508 7.8292,13.66423 0,0.47916 -2.3625,2.32401 -5.25,4.09967 -2.8875,1.77566 -6.21362,3.85899 -7.39138,4.62961 -2.05347,1.34362 -2.6735,0.69116 -15.10297,-15.8927 z"
       id="path37" />
    <path
       style="fill:#000000"
       d="m 517.1693,518.25 c -0.54803,-2.6125 -2.87721,-15.775 -5.17594,-29.25 -2.29873,-13.475 -6.37673,-37.1 -9.06221,-52.5 -2.68548,-15.4 -6.45056,-37.35129 -8.36684,-48.78064 -1.91629,-11.42936 -3.71721,-21.15775 -4.00207,-21.61865 -0.28485,-0.4609 -2.29245,-1.12176 -4.46132,-1.46858 -5.0595,-0.80905 -11.8507,-6.02051 -14.48009,-11.11181 -1.17841,-2.28177 -2.21327,-6.54821 -2.42557,-10 -0.31517,-5.12431 0.0586,-6.83659 2.51145,-11.50488 3.85293,-7.33296 9.7306,-11.05431 18.48982,-11.70652 5.49079,-0.40884 7.01177,-0.10446 11.79728,2.36086 7.69778,3.96562 11.28555,9.35379 11.8203,17.75188 0.48806,7.6648 -0.96174,12.53795 -5.14895,17.30692 l -3.12313,3.55705 4.59066,4.10718 c 2.52486,2.25896 16.17461,14.68219 30.33276,27.60719 14.15816,12.925 26.15242,23.65234 26.65392,23.83853 0.50149,0.18619 12.18514,-22.53881 25.96365,-50.5 22.25157,-45.15584 24.85939,-50.95031 23.33008,-51.83853 -9.93087,-5.76786 -14.6636,-16.15942 -12.3767,-27.17532 2.33667,-11.25571 11.19116,-18.34163 22.87088,-18.30272 8.21836,0.0274 13.49578,2.29444 18.23797,7.83463 9.57343,11.1844 7.26964,28.05767 -4.87933,35.73697 -2.34626,1.48305 -4.26592,2.76841 -4.26592,2.85634 0,0.0879 7.78857,16.33518 17.30794,36.10499 9.51937,19.76981 20.39406,42.58261 24.16597,50.69511 3.77191,8.1125 7.20173,14.75 7.62181,14.75 0.61952,0 23.19913,-20.428 57.2327,-51.77901 l 4.82842,-4.44784 -2.46426,-2.63658 c -8.72412,-9.33415 -8.01542,-24.6276 1.51357,-32.66232 8.6191,-7.2675 20.5472,-7.43083 29.07287,-0.39808 14.11678,11.64481 8.83303,34.90373 -8.95515,39.42032 -5.73252,1.45555 -4.70233,-1.86525 -11.32426,36.50351 -2.80022,16.225 -6.38858,36.7 -7.97412,45.5 -1.58555,8.8 -4.95661,27.7 -7.49125,42 -5.85848,33.05252 -5.75724,32.6073 -7.69207,33.82776 -1.17989,0.74425 -6.22706,0.12986 -18.2704,-2.22407 -37.59814,-7.34874 -74.34169,-10.17583 -107.7739,-8.29224 -29.61005,1.66825 -52.77421,4.5471 -74.18165,9.21934 -13.16468,2.87324 -13.2649,2.85395 -14.44692,-2.78079 z m 46.4334,-18.33291 c 8.09964,-7.56672 6.8263,-19.32575 -2.62263,-24.21945 -8.79055,-4.55272 -20.32023,2.55196 -20.30824,12.51407 0.007,5.42459 2.51618,10.30556 6.62672,12.88818 4.46162,2.8032 12.67525,2.20734 16.30415,-1.1828 z m 140.36812,1.598 c 7.05549,-3.64854 9.89051,-14.17573 5.43723,-20.1899 -5.09236,-6.87727 -11.76672,-8.90034 -18.38812,-5.57364 -13.29966,6.68199 -8.9424,27.2193 5.77973,27.24186 2.36481,0.004 5.59184,-0.66162 7.17116,-1.47832 z m -70.21168,-5.50969 c 7.16282,-4.36722 9.50739,-14.29902 4.98279,-21.10752 -2.92377,-4.3996 -10.19777,-8.19653 -14.22557,-7.42554 -4.54179,0.86937 -10.01303,4.9472 -11.86007,8.83955 -4.93143,10.3922 2.01623,21.68063 13.34371,21.68063 2.73019,0 5.78179,-0.78151 7.75914,-1.98712 z M 534.5,464.08889 c 36.06867,-7.12592 76.28657,-10.06689 111.66577,-8.16565 22.78131,1.22424 49.5915,4.14033 65.33423,7.10627 26.85407,5.05933 24.7319,5.11799 25.96049,-0.71755 l 0.67121,-3.18805 -7.21488,-2.14868 c -19.61776,-5.84242 -49.96346,-10.16823 -84.32352,-12.02039 -40.61944,-2.18956 -93.25617,2.80044 -125.69018,11.91554 -5.60242,1.57448 -6.44209,2.12658 -6.71477,4.41511 -0.42756,3.58843 1.50482,6.94306 3.62255,6.28875 0.92901,-0.28703 8.4391,-1.85544 16.6891,-3.48535 z"
       id="path36" />
    <path
       style="fill:#000000"
       d="m 909.3908,560.8233 c -0.40728,-0.65898 -1.27382,-3.4924 -1.92565,-6.2965 l -1.18515,-5.09836 18.61,-20.51919 c 10.2355,-11.28556 29.22107,-32.41946 42.19016,-46.96422 C 980.04924,467.40026 992.98486,453.025 995.82597,450 l 5.16563,-5.5 9.5623,9.82918 c 5.2592,5.40605 9.4236,10.42492 9.2542,11.15304 -0.1695,0.72813 -13.3581,12.6747 -29.3081,26.54793 -15.95,13.87324 -39.77154,34.72937 -52.93676,46.34696 -27.9499,24.66426 -27.18048,24.05123 -28.17244,22.44619 z"
       id="path35" />
    <path
       style="fill:#000000"
       d="M 334.3761,554.76076 C 326.31161,547.26529 302.03678,525.63787 278,504.53303 c -44.13268,-38.74949 -44.01503,-38.63917 -43.04871,-40.36624 1.542,-2.75593 17.46784,-19.17694 18.59358,-19.17168 1.30922,0.006 46.65392,51.12475 84.05905,94.76265 l 8.10392,9.45426 -1.24122,5.94796 c -0.68268,3.27138 -1.4602,6.16693 -1.72782,6.43456 -0.26763,0.26763 -4.03085,-2.80758 -8.3627,-6.83378 z"
       id="path34" />
    <path
       style="fill:#000000"
       d="m 1039.0047,585.75 c -1.4991,-5.94079 -4.8397,-14.82551 -6.5752,-17.48714 -1.7452,-2.67648 -6.5493,-5.21051 -15.6795,-8.2705 -3.7125,-1.24425 -6.75,-2.59974 -6.75,-3.01221 0,-0.41247 2.3625,-1.51276 5.25,-2.44509 2.8875,-0.93233 7.7825,-2.82089 10.8777,-4.1968 4.9523,-2.20141 5.9453,-3.15022 8.2738,-7.90548 1.4553,-2.9721 3.4148,-8.33534 4.3546,-11.9183 0.9397,-3.58296 2.0367,-6.51448 2.4377,-6.51448 0.401,0 1.2218,1.9125 1.8239,4.25 1.9503,7.57099 3.2115,11.16248 5.5802,15.89062 2.0994,4.19047 3.0319,4.93461 9.6135,7.67137 4.0087,1.66691 8.5457,3.34483 10.0822,3.72872 4.2686,1.06653 2.8437,2.47212 -5.4872,5.41265 -4.1821,1.47614 -8.811,3.47488 -10.2865,4.44165 -3.0929,2.02656 -6.6202,9.10187 -9.0944,18.24212 -0.9473,3.49958 -2.0882,6.36287 -2.5354,6.36287 -0.4471,0 -1.2956,-1.9125 -1.8854,-4.25 z"
       id="path33" />
    <path
       style="fill:#000000"
       d="m 209.57449,583.63713 c -2.40936,-8.90091 -5.9801,-16.20156 -8.84098,-18.07608 -1.3361,-0.87545 -5.96752,-2.8817 -10.29204,-4.45834 -4.32452,-1.57663 -8.01564,-3.32523 -8.20249,-3.88576 -0.18684,-0.56054 3.31587,-2.23658 7.7838,-3.72454 11.10296,-3.69762 14.11279,-6.82823 17.54006,-18.2439 1.44459,-4.81168 2.80574,-9.33953 3.02478,-10.06189 0.69969,-2.30747 2.13089,-0.36386 3.34777,4.54638 0.64976,2.62185 2.54485,7.74619 4.21131,11.38743 3.28664,7.18134 5.13315,8.50106 17.79519,12.71839 2.99304,0.99689 5.60385,2.29839 5.80179,2.89221 0.19794,0.59383 -1.35091,1.63472 -3.44189,2.31309 -2.09099,0.67837 -6.79624,2.56196 -10.45611,4.18575 -6.26393,2.77914 -6.80177,3.28434 -9.1676,8.61124 -1.38231,3.11239 -3.02715,7.68389 -3.6552,10.15889 -1.83877,7.24608 -2.11601,8 -2.94185,8 -0.4313,0 -1.55925,-2.86329 -2.50654,-6.36287 z"
       id="path32" />
    <path
       style="fill:#000000"
       d="M 873.50961,650.01555 C 871.94882,647.49014 971.59012,551.5 975.77238,551.5 c 1.94334,0 15.18085,17.05433 15.20958,19.59501 0.01,0.87726 -0.76946,2.2865 -1.73196,3.13165 -2.53408,2.22512 -104.87281,70.97037 -110.41356,74.16945 -3.03785,1.75398 -4.89478,2.31851 -5.32683,1.61944 z"
       id="path31" />
    <path
       style="fill:#000000"
       d="m 345.5,630.17971 c -60.17686,-40.35555 -83.00548,-56.53849 -82.93741,-58.79332 0.0959,-3.17719 12.60982,-20.45937 14.58832,-20.14702 2.60312,0.41096 32.36025,28.26392 68.748,64.3488 29.80281,29.55475 35.04181,35.48088 31.29207,35.39623 C 376.81094,650.9754 362.55,641.61371 345.5,630.17971 Z"
       id="path30" />
    <path
       style="fill:#000000"
       d="m 877.97525,688.4349 c -2.16596,-5.69691 -1.89421,-5.95151 15.27475,-14.31026 8.9375,-4.35125 32.45,-15.88204 52.25,-25.62398 47.20043,-23.22344 63.1416,-30.5754 64.8637,-29.91461 1.2977,0.498 7.6363,21.79217 7.6363,25.65391 0,1.21064 -9.7901,4.84263 -40.75,15.11762 C 936.93978,672.73577 880.50686,691 879.48105,691 c -0.2918,0 -0.96941,-1.15429 -1.5058,-2.5651 z"
       id="path29" />
    <path
       style="fill:#000000"
       d="m 369.68833,690.2988 c -3.14488,-0.81449 -90.23654,-29.70314 -112.54929,-37.33305 l -21.36097,-7.30445 0.47669,-4.08065 c 0.66815,-5.71962 4.67912,-20.10797 6.1761,-22.15521 1.14721,-1.5689 2.04093,-1.34152 11.15812,2.83884 5.45106,2.49939 34.88602,16.98432 65.41102,32.18875 59.43191,29.60288 58.09467,28.76453 55.02647,34.49752 -1.12699,2.10579 -1.25705,2.14621 -4.33814,1.34825 z"
       id="path28" />
    <path
       style="fill:#000000"
       d="m 997.89407,699.7133 c -1.15498,-0.87965 -4.24375,-1.03749 -11,-0.56214 -5.16674,0.36353 -12.09407,0.66119 -15.39407,0.66147 l -6,5.1e-4 9,-2.88112 c 4.95,-1.58462 11.475,-3.38742 14.5,-4.00622 3.86595,-0.79083 6.30028,-1.98679 8.19363,-4.02545 1.97818,-2.12999 3.61897,-2.90035 6.17737,-2.90035 6.9418,0 9.9261,8.75754 4.5152,13.25 -2.4237,2.01231 -7.6407,2.25421 -9.99213,0.4633 z"
       id="path27" />
    <path
       style="fill:#000000"
       d="m 245.18856,698.96104 c -1.43711,-1.33887 -2.18856,-3.22731 -2.18856,-5.5 0,-7.388 7.76011,-10.00252 13.45239,-4.53234 2.16159,2.07724 5.37343,3.52903 11.04761,4.99364 4.4,1.13572 10.7,2.94361 14,4.01753 l 6,1.95258 -7,-1.5e-4 c -3.85,-7e-5 -10.6,-0.38821 -15,-0.86252 -6.32894,-0.68224 -8.46264,-0.56654 -10.21482,0.55392 -3.15993,2.02067 -7.54994,1.74994 -10.09662,-0.62266 z"
       id="path26" />
    <path
       style="fill:#000000"
       d="m 1101.0882,707.5 c -6.875,-6.875 -13.2416,-12.5 -14.148,-12.5 -0.9064,0 -7.832,1.82572 -15.3901,4.05716 -21.9595,6.48325 -23.4424,5.41792 -15.636,-11.2324 2.9203,-6.22862 6.3437,-13.60833 7.6076,-16.39937 l 2.2979,-5.07461 -7.0612,-10.92539 c -9.3794,-14.51214 -11.6866,-18.98405 -11.05,-21.41814 0.8263,-3.16004 4.2124,-3.3705 18.5157,-1.15081 7.3017,1.13313 14.6129,2.19149 16.2471,2.3519 2.7513,0.27008 3.7761,-0.76283 13.8494,-13.95834 11.1872,-14.6546 13.5771,-16.48809 16.656,-12.77824 0.6718,0.80946 2.4214,9.24696 3.888,18.75 l 2.6666,17.27824 15.4875,6.5 c 8.5181,3.575 16.0485,6.86406 16.7344,7.30902 0.6858,0.44496 1.2469,2.09781 1.2469,3.67301 0,2.68515 -0.9884,3.37726 -15.8278,11.0836 l -15.8279,8.2196 -1.0366,18.02167 c -0.8951,15.56327 -1.2857,18.20387 -2.8633,19.35738 -1.0046,0.73465 -2.2833,1.33572 -2.8414,1.33572 -0.5581,0 -6.6398,-5.625 -13.5148,-12.5 z"
       id="path25" />
    <path
       style="fill:#000000"
       d="m 136.11989,718.64446 c -0.61875,-0.74555 -1.60897,-8.50805 -2.20049,-17.25 -0.59152,-8.74195 -1.265,-16.87132 -1.49662,-18.06526 -0.31798,-1.6391 -4.21781,-4.16119 -15.92195,-10.29701 C 102.0645,665.46404 101,664.7116 101,662.07544 c 0,-1.5568 0.5625,-3.29381 1.25,-3.86001 0.6875,-0.56621 7.775,-3.61015 15.75,-6.76432 7.975,-3.15417 15.00909,-6.23351 15.63131,-6.84298 0.62222,-0.60947 2.32281,-8.93478 3.77908,-18.50068 1.45628,-9.56591 2.88625,-17.77841 3.17771,-18.25 0.29146,-0.4716 1.82277,-0.85745 3.40291,-0.85745 2.89554,0 3.3738,0.56095 24.56432,28.81096 0.12829,0.17102 7.18076,-0.84148 15.67217,-2.25 17.46593,-2.89719 19.88373,-3.04973 21.5725,-1.36096 2.26201,2.26201 1.18554,4.88677 -7.8,19.01896 -4.95,7.78521 -8.99493,14.8583 -8.98873,15.71798 0.006,0.85968 3.15619,8.07936 7,16.04373 7.24703,15.01586 7.7987,16.80936 5.78873,18.81933 -1.95468,1.95468 -5.50268,1.41316 -21.16153,-3.22981 l -14.86154,-4.40655 -8.13846,8.66818 C 143.12842,718.2863 141.29331,720 139.25402,720 c -1.10502,0 -2.51538,-0.60999 -3.13413,-1.35554 z"
       id="path24" />
    <path
       style="fill:#000000"
       d="m 209.01559,775.32074 c -4.4239,-13.69347 -6.32373,-15.69381 -18.77335,-19.7666 -5.58175,-1.82602 -5.9863,-2.90713 -1.50169,-4.0131 1.5177,-0.37429 5.28233,-1.80659 8.36584,-3.1829 6.47762,-2.89124 8.4755,-5.77116 11.92298,-17.18684 1.21728,-4.03078 2.52476,-6.95578 2.9055,-6.5 0.38075,0.45579 1.50588,3.5287 2.5003,6.8287 3.53056,11.7162 5.09679,14.01683 11.49809,16.88956 3.19926,1.43574 6.46205,2.61044 7.25066,2.61044 0.7886,0 2.27229,0.61311 3.29709,1.36246 1.70659,1.24788 1.40731,1.51169 -3.55887,3.13708 -10.23949,3.35132 -12.86893,5.18759 -15.47623,10.80781 -1.32491,2.85596 -2.93886,7.55515 -3.58655,10.44265 -0.64769,2.8875 -1.51699,5.25 -1.93177,5.25 -0.41479,0 -1.72518,-3.00567 -2.912,-6.67926 z"
       id="path23" />
    <path
       style="fill:#000000"
       d="m 1039.5863,777.34998 c -3.08,-11.16542 -6.0248,-16.03177 -11.3276,-18.71888 -2.6357,-1.33562 -6.6972,-2.94135 -9.0254,-3.56829 -2.3283,-0.62694 -4.2333,-1.50132 -4.2333,-1.94307 0,-0.44174 1.9125,-1.36856 4.25,-2.05959 10.3578,-3.06207 13.7671,-5.16045 16.2069,-9.9751 1.2872,-2.5402 2.8628,-6.63601 3.5013,-9.1018 1.9689,-7.60376 2.2168,-8.21138 2.9924,-7.33391 0.4136,0.46786 1.5457,3.77566 2.5158,7.35066 3.5285,13.003 6.4842,15.94433 19.2531,19.1596 2.3543,0.59281 4.2805,1.43824 4.2805,1.87875 0,0.4405 -2.3625,1.56772 -5.25,2.50493 -11.9146,3.86714 -15.1326,7.2994 -18.2423,19.45672 -0.9145,3.575 -2.0328,6.88249 -2.4852,7.34998 -0.4523,0.46748 -1.5486,-1.78252 -2.4362,-5 z"
       id="path22" />
    <path
       style="fill:#000000"
       d="m 1089.357,799.04626 c -5.6139,-2.36462 -7.2642,-11.22996 -2.9025,-15.59171 C 1088.2606,781.64848 1089.9899,781 1093,781 c 5.5848,0 9,3.37684 9,8.89878 0,6.88066 -6.6323,11.67926 -12.643,9.14748 z"
       id="path21" />
    <path
       style="fill:#000000"
       d="M 156.32874,798.51799 C 152.50561,796.88419 151,794.34193 151,789.52029 c 0,-10.44716 16.30175,-11.76153 18.35802,-1.48017 1.51569,7.57843 -5.88585,13.53058 -13.02928,10.47787 z"
       id="path20" />
    <path
       style="fill:#000000"
       d="m 1007.6799,832.47665 c -13.65107,-1.80595 -25.10136,-3.56478 -25.4451,-3.90851 -0.54037,-0.54037 5.98241,-13.92304 7.65965,-15.71517 0.33305,-0.35586 13.16145,-0.97139 28.50765,-1.36785 l 27.9021,-0.72082 -0.6494,4.73769 c -0.3572,2.60573 -1.6212,8.28376 -2.809,12.61785 l -2.1596,7.88016 -4.0931,-0.11991 c -2.2512,-0.0659 -15.2622,-1.5975 -28.9132,-3.40344 z"
       id="path19" />
    <path
       style="fill:#000000"
       d="m 211.1234,832.75 c -2.94419,-9.27452 -5.16104,-20.11236 -4.29174,-20.98166 0.58519,-0.58519 11.22056,-0.67006 27.83994,-0.22218 l 26.893,0.72477 4.30507,7.94383 c 2.36779,4.3691 4.07453,8.17437 3.79276,8.45614 -0.60277,0.60277 -50.91992,7.32741 -54.83488,7.32841 -2.13703,5.5e-4 -2.87915,-0.65044 -3.70415,-3.24931 z"
       id="path18" />
    <path
       style="fill:#000000"
       d="m 937.75,912.9199 c -1.85362,-1.07964 -2.32995,-5.45596 -0.84842,-7.7949 1.25216,-1.9768 6.20813,-1.69545 7.77043,0.44113 1.83258,2.5062 1.66151,4.82206 -0.50075,6.77888 -2.08037,1.88271 -3.89668,2.04533 -6.42126,0.57489 z"
       id="path17" />
    <path
       style="fill:#000000"
       d="m 310.44012,911.54896 c -3.17381,-4.84385 1.42888,-10.17527 6.12694,-7.09698 2.80877,1.84038 3.2171,5.621 0.86151,7.97659 -2.28659,2.2866 -5.15002,1.92619 -6.98845,-0.87961 z"
       id="path16" />
    <path
       style="fill:#000000"
       d="m 419.38055,946.62252 c -62.06653,-31.0952 -117.28408,-82.49976 -141.89017,-132.0921 -15.39257,-31.02295 -11.87387,-62.00237 9.49895,-83.63097 15.37264,-15.5566 36.23135,-21.34178 57.41466,-15.92401 18.37453,4.69942 34.8158,18.77402 39.0799,33.45448 0.80996,2.78855 3.06649,11.00417 5.01452,18.25695 12.75412,47.48549 41.72662,84.68368 85.04138,109.18581 13.95171,7.89215 35.912,15.03982 46.41021,15.10568 4.6062,0.0289 3.27653,-0.93697 -7.45,-5.41164 -35.78634,-14.92861 -66.60208,-36.74606 -85.7585,-60.71677 -36.76931,-46.00999 -45.78563,-112.38846 -22.96317,-169.05582 l 3.90899,-9.70588 -7.99102,-4.64309 c -14.44016,-8.39031 -28.088,-24.62067 -34.07242,-40.5198 -19.02492,-50.54456 12.19985,-103.97211 64.86021,-110.9799 31.49735,-4.19151 62.48779,12.28547 77.54627,41.22978 2.23899,4.30362 4.3503,7.82476 4.6918,7.82476 0.34151,0 3.38147,-1.10439 6.75548,-2.45421 23.74688,-9.50025 91.44061,-15.83348 135.02236,-12.63231 30.91014,2.27042 62.64612,7.3944 76.30294,12.3196 4.56661,1.64691 8.45136,2.8307 8.63277,2.63065 0.18141,-0.20005 1.92262,-3.54556 3.86936,-7.43446 9.90068,-19.77813 28.81171,-34.82786 50.37588,-40.09003 10.38906,-2.53518 27.76193,-2.29068 37.81905,0.53225 28.7846,8.07956 49.8805,29.23374 57.68988,57.84927 3.27284,11.99252 3.02163,31.69483 -0.5555,43.56756 -4.69729,15.5906 -11.47249,26.78171 -23.09162,38.14218 C 860.57318,636.28945 848.11423,645 846.13391,645 c -2.33785,0 -2.05374,2.45505 1.24304,10.74155 13.85556,34.82615 15.80922,78.96403 5.1213,115.70259 -7.20669,24.77221 -19.6323,45.55546 -39.4141,65.92456 -19.31497,19.88841 -44.38835,36.18471 -74.08415,48.15054 -5.225,2.1054 -9.9275,4.19987 -10.45,4.65438 -1.65668,1.44111 5.27715,0.89915 15.79292,-1.23439 26.47989,-5.37249 56.9109,-24.63404 80.38168,-50.87823 20.71087,-23.15816 31.92456,-44.76114 40.22842,-77.49935 4.39336,-17.32095 5.11417,-19.00559 11.47088,-26.80912 13.62636,-16.72778 39.48836,-24.65846 61.24876,-18.78216 10.41623,2.81286 19.16709,7.91323 26.79754,15.61876 21.33516,21.54508 24.65392,52.23671 9.07348,83.91087 -10.229,20.79499 -23.95798,39.38241 -45.92479,62.17676 -19.8787,20.62757 -42.61434,38.88319 -68.82523,55.26331 C 847.86689,938.7686 816.78532,955 814.63611,955 c -0.81955,0 -1.69571,-2.68979 -2.44402,-7.50317 -2.0308,-13.06257 -8.80865,-23.19959 -18.98197,-28.38963 -14.58326,-7.43983 -40.50706,-6.1803 -69.75643,3.38917 -16.94582,5.54414 -39.1729,15.57104 -53.0027,23.91015 -5.94129,3.58249 -9.45099,4.52729 -9.45099,2.54419 0,-0.57711 -3.82553,-8.97229 -8.50118,-18.65596 -9.51626,-19.70899 -13.08855,-24.1986 -20.79916,-26.14016 -7.21551,-1.81689 -13.7745,0.0961 -18.87818,5.50613 -1.47319,1.56161 -6.76505,11.14614 -11.75969,21.29897 -4.99464,10.15283 -9.50252,18.88104 -10.01751,19.39603 -0.58179,0.58179 -3.51272,-0.58839 -7.74031,-3.09031 C 543.89435,923.94246 498.98307,910.77795 473,914.93283 c -19.11713,3.05697 -31.83378,15.54509 -33.80661,33.19906 -0.38137,3.41265 -1.19714,6.37198 -1.81284,6.57629 -0.6157,0.2043 -8.7157,-3.43425 -18,-8.08566 z M 650.92608,862.4692 c 23.28836,-4.45825 41.89531,-13.5473 55.46109,-27.09143 C 741.83249,799.98901 733.4806,743.29359 688.52703,714.13721 666.40287,699.78774 636.82679,693.49663 610,697.43377 c -38.11527,5.59387 -69.62158,27.76362 -81.09908,57.06623 -11.07403,28.27254 -5.99,56.45645 14.03092,77.78195 15.99446,17.03666 38.63599,27.73888 67.06816,31.70182 8.92536,1.24404 30.73147,0.43705 40.92608,-1.51457 z M 349.8583,820.78993 c 2.39707,-1.14026 5.8767,-3.59159 7.73252,-5.44741 5.60233,-5.60234 6.87961,-8.90752 6.89521,-17.84252 0.0121,-6.90562 -0.35544,-8.62838 -2.68648,-12.59352 -8.96977,-15.25776 -29.89117,-17.74819 -42.57173,-5.06763 -14.51516,14.51516 -7.08817,38.98361 13.09858,43.15369 5.5891,1.15456 12.22776,0.32052 17.5319,-2.20261 z m 572.34697,1.65579 c 5.75045,-1.95937 12.26183,-7.48083 14.88444,-12.62156 4.85466,-9.51593 2.99891,-21.78817 -4.41596,-29.20304 -6.6479,-6.6479 -12.28533,-8.91692 -20.96134,-8.43677 -8.1396,0.45046 -13.41192,2.58182 -18.17908,7.34898 C 888.31919,784.74748 886.5,789.52393 886.5,798 c 0,6.38042 0.41036,8.19808 2.74901,12.17638 6.77238,11.52059 20.335,16.56984 32.95626,12.26934 z M 471.05917,794.9723 c 5.76951,-1.53449 12.458,-6.62462 16.58624,-12.6226 3.78199,-5.4949 3.85459,-5.77226 3.85459,-14.72504 0,-8.15793 -0.29195,-9.6213 -2.75562,-13.81231 -7.2071,-12.26021 -21.86478,-18.24493 -35.19446,-14.36989 -11.09723,3.22606 -17.87124,9.97527 -21.07583,20.99869 -4.60243,15.8318 5.80109,32.00823 22.86966,35.56002 4.36659,0.90865 9.75761,0.5557 15.71542,-1.02887 z m 330.45694,-0.8714 c 18.49946,-8.1646 23.64628,-30.45698 10.49108,-45.43993 -14.34443,-16.33741 -42.34464,-11.86713 -51.25359,8.18271 -3.69613,8.31825 -2.28988,20.38133 3.28934,28.21662 7.6695,10.77083 24.4047,14.80828 37.47317,9.0406 z M 307.31353,772.58523 c 1.43307,-1.32812 2.89157,-3.55422 3.24111,-4.94689 2.00245,-7.97843 -7.90334,-17.68349 -15.34292,-15.03199 -8.0986,2.88637 -8.62158,15.37034 -0.85241,20.34781 4.37109,2.80043 9.69813,2.64871 12.95422,-0.36893 z m 650.07159,0.32647 c 6.45771,-5.07963 7.37719,-12.34939 2.21488,-17.5117 -4.00106,-4.00106 -7.32024,-4.35406 -12.25621,-1.30346 -4.10953,2.53983 -6.34379,6.56569 -6.34379,11.43072 0,7.93926 9.96841,12.43183 16.38512,7.38444 z m -590.3082,-10.83478 c 2.39744,-2.39743 2.92308,-3.7641 2.92308,-7.6 0,-3.98552 -0.50263,-5.17955 -3.4,-8.07692 -1.87,-1.87 -4.32383,-3.4 -5.45295,-3.4 -7.99802,0 -12.67909,9.20289 -8.64707,16.99996 3.03774,5.87434 9.81405,6.83985 14.57694,2.07696 z m 529.28724,0.46139 c 5.6002,-5.19009 5.82681,-12.51694 0.52511,-16.97803 -5.10352,-4.29433 -11.13788,-2.84777 -14.39498,3.45076 -1.89995,3.67409 -1.89806,7.30747 0.006,10.98892 2.8787,5.5668 9.32328,6.74672 13.86418,2.53835 z m -561.97614,-5.42262 c 6.84321,-5.85616 4.62967,-18.50676 -3.95066,-22.57839 C 323.07874,731.04541 316,736.14045 316,744.92884 c 0,10.95329 11.17489,18.35956 18.38802,12.18685 z m 595.40492,0.10041 C 932.79372,755.24992 936,748.93456 936,744.99018 936,734.66065 924.5739,729.49597 917.79735,736.76245 914.2313,740.58631 913,743.30867 913,747.36916 c 0,10.32812 8.47454,15.29737 16.79294,9.84694 z M 518.97653,714.99239 c 4.8023,-2.47665 9.50125,-7.58765 11.94493,-12.99239 2.27493,-5.03151 2.76031,-15.00501 1.03293,-21.22474 C 529.44126,671.72624 518.44933,663 509.56395,663 c -6.64206,0 -13.14745,2.7414 -17.985,7.57895 -5.31401,5.314 -7.58678,11.43405 -7.55699,20.34919 0.0654,19.5766 18.73456,32.42925 34.95457,24.06425 z m 230.72574,1.50339 c 9.41844,-2.79698 17.05708,-12.75028 18.0314,-23.49527 1.68631,-18.59697 -14.54716,-33.67244 -31.22942,-29.0017 -5.47002,1.53151 -12.77361,7.71756 -15.78889,13.37298 -1.79919,3.37455 -2.20102,5.77128 -2.20102,13.12821 0,10.69386 1.80407,14.9696 8.98205,21.28791 6.7607,5.951 13.32992,7.34374 22.20588,4.70787 z M 434.07401,604.25 c 11.36357,-15.14065 30.65907,-34.24493 44.08744,-43.65053 l 2.33408,-1.63485 -2.88662,-5.51337 C 473.58031,545.75673 465.7306,538.15621 457.51994,534 c -6.5377,-3.30936 -7.46187,-3.5 -16.96713,-3.5 -8.81752,0 -10.75646,0.32979 -15.7791,2.68382 -7.77072,3.64202 -13.13303,8.14395 -17.45365,14.65323 -5.67004,8.54228 -7.54232,15.81436 -7.12215,27.66295 0.30846,8.69819 0.76316,10.86956 3.49288,16.67961 1.72604,3.67378 5.08922,8.80916 7.47373,11.41195 4.34287,4.74041 12.18967,10.40844 14.40942,10.40844 0.6503,0 4.47534,-4.3875 8.50007,-9.75 z m 399.48998,5.70597 c 13.44089,-9.24757 21.30364,-28.07964 18.41588,-44.10785 -2.78241,-15.44348 -13.47327,-28.49889 -27.73941,-33.87469 -4.74898,-1.78952 -7.3125,-2.09671 -14.8422,-1.77855 -7.79361,0.32931 -10.04929,0.85106 -15.69467,3.63028 -3.62612,1.78513 -8.60083,5.19714 -11.05492,7.58224 -4.59718,4.46795 -10.6227,13.89746 -10.63929,16.64973 -0.005,0.85642 3.02812,3.76334 6.74062,6.45981 9.81999,7.13249 30.65368,28.49694 38.75,39.7372 7.89279,10.9577 8.24378,11.08228 16.06399,5.70183 z"
       id="path15" />
    <path
       style="fill:#000000"
       d="m 615.26266,831.54946 c -19.50556,-4.43654 -35.6718,-21.85815 -41.04011,-44.22703 -1.39726,-5.82212 -2.24284,-7.48575 -4.47767,-8.80956 C 566.91141,776.83447 564,772.29206 564,769.54966 c 0,-0.85231 0.92302,-2.47268 2.05115,-3.60081 2.58687,-2.58687 5.23328,-1.89233 9.94885,2.61101 5.08374,4.85495 9.70251,6.44169 18.71788,6.43037 13.59451,-0.0171 23.76271,-6.80899 24.92836,-16.6511 l 0.59351,-5.01124 -7.34548,-2.36189 c -17.62905,-5.66849 -25.23247,-22.10709 -14.84361,-32.09189 5.50717,-5.29298 11.37819,-7.03763 25.63015,-7.61634 15.87862,-0.64475 24.46578,1.62566 31.04951,8.20939 3.97568,3.97568 4.26855,4.64025 4.25323,9.65126 -0.0306,9.99455 -6.86228,17.68149 -19.43183,21.86437 L 633,753.16306 v 5.08989 c 0,4.70547 0.33043,5.40649 4.375,9.28187 5.38733,5.16197 11.81557,7.46518 20.83526,7.46518 8.04919,0 12.9078,-1.76666 17.78974,-6.46862 1.925,-1.85403 4.175,-3.46037 5,-3.56965 3.5076,-0.46462 5.10899,0.18338 6.16142,2.49321 1.53683,3.37296 -0.38888,7.7579 -4.70613,10.71613 -2.81131,1.92634 -3.62576,3.40367 -5.02562,9.11591 -3.73342,15.23456 -13.84634,30.28002 -25.28799,37.6221 -10.51464,6.74723 -24.96766,9.34961 -36.87902,6.64038 z m 20.07476,-10.04913 c 10.70032,-2.78708 22.43754,-12.40576 19.99016,-16.38198 -1.3939,-2.26466 -11.0339,-7.94511 -15.82758,-9.32654 -2.2,-0.63399 -8.5,-1.14816 -14,-1.14259 -11.91377,0.0121 -18.90128,2.26787 -25.66762,8.28639 l -4.33238,3.85356 3.02488,3.74994 c 3.47289,4.30532 11.76712,9.30362 18.4118,11.09538 6.23447,1.68116 11.58094,1.64217 18.40074,-0.13416 z"
       id="path14" />
    <path
       style="fill:#000000"
       d="m 892.85606,959.4836 c -5.43355,-2.9518 -5.71369,-10.74272 -0.54271,-15.09381 8.86701,-7.4611 19.98075,5.46995 11.76357,13.68713 -3.26094,3.26094 -6.95512,3.72406 -11.22086,1.40668 z"
       id="path13" />
    <path
       style="fill:#000000"
       d="m 351.92308,958.07692 c -3.56053,-3.56053 -3.91419,-8.54722 -0.87975,-12.40488 4.18397,-5.31905 13.31572,-4.04785 15.90978,2.21475 4.00011,9.65713 -7.65861,17.56156 -15.03003,10.19013 z"
       id="path12" />
    <path
       style="fill:#000000"
       d="m 997.76987,961.43665 c -0.32797,-0.53066 -1.09949,-3.73971 -1.71449,-7.13123 -1.30788,-7.21255 -4.50231,-17.30098 -7.07504,-22.34395 -2.20519,-4.32253 -8.79229,-8.12884 -19.6602,-11.36051 -4.24499,-1.26228 -7.8623,-2.72745 -8.03846,-3.25592 -0.17616,-0.52848 3.1759,-1.97124 7.44902,-3.20614 4.27311,-1.2349 10.0193,-3.45883 12.7693,-4.94208 4.21336,-2.27254 5.51249,-3.71945 8.25744,-9.19682 1.79159,-3.575 4.26149,-11.1125 5.48868,-16.75 1.22718,-5.6375 2.50265,-10.25 2.83436,-10.25 0.33172,0 1.62457,4.50506 2.87302,10.01124 1.2484,5.50618 3.7848,13.17232 5.6363,17.03587 3.0497,6.36371 3.8456,7.24664 8.4591,9.38408 2.8009,1.29769 8.6694,3.39298 13.0411,4.65621 4.3718,1.26322 7.7924,2.76543 7.6015,3.33824 -0.191,0.5728 -3.6942,2.00035 -7.785,3.17233 -17.7877,5.09598 -21.1055,8.68194 -25.9737,28.07309 -3.69173,14.70457 -3.44057,13.9344 -4.16293,12.76559 z"
       id="path11" />
    <path
       style="fill:#000000"
       d="m 254.43631,959.2909 c -2.57655,-11.55477 -5.86624,-22.31017 -8.05253,-26.3271 -3.11449,-5.72235 -8.14278,-8.75408 -20.37735,-12.28621 -4.63355,-1.33771 -8.56117,-2.84181 -8.72805,-3.34244 -0.16687,-0.50063 2.73972,-1.70998 6.45911,-2.68745 3.71938,-0.97747 9.79862,-3.16406 13.50942,-4.85908 6.44463,-2.94377 6.88303,-3.36995 9.78512,-9.51223 1.67101,-3.53671 3.97722,-10.55823 5.1249,-15.60339 2.77576,-12.20209 3.37716,-13.15592 4.81087,-7.63015 7.58805,29.24564 8.78529,30.86282 27.02484,36.50385 4.67905,1.44711 8.90485,3.0111 9.39067,3.47552 0.4909,0.46928 -1.73032,1.57854 -5,2.49695 -3.23582,0.90889 -9.33591,3.24349 -13.55575,5.18798 -7.38331,3.40221 -7.78459,3.76639 -10.64875,9.66415 C 261.49562,939.89641 257,955.55033 257,959.36817 c 0,2.79965 -1.93519,2.74132 -2.56369,-0.0773 z"
       id="path10" />
    <path
       style="fill:#000000"
       d="m 992.71406,1020.3807 c -1.44501,-1.445 -0.6602,-5.3392 1.28594,-6.3807 3.05849,-1.6369 6.2015,0.4282 5.80993,3.8173 -0.25092,2.1719 -0.88797,2.7393 -3.34587,2.9801 -1.66977,0.1636 -3.35727,-0.024 -3.75,-0.4167 z"
       id="path9" />
    <path
       style="fill:#000000"
       d="m 254.75,1020.9199 c -4.36305,-2.5412 -0.20837,-9.3059 4.25,-6.9199 2.57909,1.3803 2.6189,5.5984 0.0657,6.9648 -2.30203,1.232 -2.12014,1.2339 -4.31574,-0.045 z"
       id="path8" />
    <path
       style="fill:#000000"
       d="m 951.18481,1037.6823 c -1.83233,-2.286 -6.38341,-12.031 -9.83503,-21.0593 C 937.65262,1006.9525 930,980.9068 930,977.9941 c 0,-1.29195 2.64829,-2.6733 10.46309,-5.45757 5.7547,-2.05029 10.96393,-3.56086 11.57607,-3.35681 0.61214,0.20405 2.88703,5.07257 5.05533,10.81895 4.80341,12.72994 13.33189,30.63743 18.26043,38.34203 2.00479,3.134 3.64508,6.2986 3.64508,7.0324 0,1.3439 -15.13813,9.3531 -22.76286,12.0432 -3.13513,1.1062 -4.32851,1.169 -5.05233,0.266 z"
       id="path7" />
    <path
       style="fill:#000000"
       d="m 287.37962,1033.1095 c -6.66622,-3.2346 -12.43331,-6.3874 -12.81577,-7.0062 -0.38246,-0.6188 0.87063,-3.7077 2.78466,-6.8642 5.15182,-8.4961 12.70658,-24.32903 18.17268,-38.08558 3.30653,-8.32152 5.3257,-12.15709 6.40398,-12.16483 3.27252,-0.0235 21.07483,7.36631 21.07483,8.74825 0,8.55383 -17.38681,57.98496 -21.26098,60.44556 -1.76759,1.1226 -1.11805,1.3521 -14.3594,-5.073 z"
       id="path6" />
    <path
       style="fill:#000000"
       d="m 579.17431,1063.6855 c -1.19587,-1.2729 -2.16325,-3.1854 -2.14972,-4.25 0.0135,-1.0645 1.99951,-11.8355 4.41332,-23.9355 l 4.38873,-22 -16.96568,-16.3843 c -16.22024,-15.66441 -16.95239,-16.5388 -16.66332,-19.90066 0.51204,-5.95488 2.75052,-6.80018 27.30236,-10.30997 12.1,-1.72975 22.1303,-3.25882 22.28957,-3.39793 0.15926,-0.13912 4.29613,-9.12501 9.19305,-19.96866 10.29789,-22.80344 11.1588,-24.28489 14.61708,-25.15286 4.91667,-1.234 7.28291,2.00038 17.82828,24.36919 l 9.92799,21.05922 5.57201,0.67165 c 12.36865,1.4909 39.32113,6.47617 40.55664,7.50155 1.86654,1.54909 2.74527,5.77734 1.62114,7.80057 -0.52322,0.94171 -8.18806,8.9122 -17.03297,17.7122 l -16.08166,16 4.48041,22.7481 c 4.84201,24.5841 4.84137,26.7409 -0.009,28.9507 -3.00188,1.3677 -6.4383,-0.1433 -30.25325,-13.3026 -7.85961,-4.3429 -14.73304,-7.8962 -15.27427,-7.8962 -0.54123,0 -10.14712,4.95 -21.34642,11 -11.1993,6.05 -21.23494,11 -22.30142,11 -1.06648,0 -2.91749,-1.0415 -4.11337,-2.3145 z"
       id="path5" />
    <path
       style="fill:#000000"
       d="m 860.08366,1059.5992 c -1.23281,-4.6667 -3.73495,-11.6013 -5.5603,-15.4102 -2.90454,-6.0607 -3.98697,-7.301 -8.6711,-9.9357 -2.94374,-1.6558 -8.50226,-4.025 -12.35226,-5.265 -7.58237,-2.4421 -10.03194,-3.86 -8.79238,-5.0894 0.43581,-0.4323 4.79584,-2.1974 9.68896,-3.9224 16.2897,-5.7429 18.22798,-7.9199 24.68644,-27.7265 1.87293,-5.74385 3.89129,-10.25 4.59109,-10.25 0.68684,0 1.74097,1.9125 2.34251,4.25 2.15392,8.36988 4.25955,14.3463 7.19017,20.408 2.72175,5.6297 3.50555,6.4134 9.1352,9.1345 3.38691,1.6371 9.19062,3.9636 12.89715,5.1699 6.31528,2.0555 8.62953,3.5023 7.46496,4.6668 -0.2729,0.2729 -4.1949,1.8182 -8.71556,3.4339 -14.35439,5.1304 -17.92142,7.5681 -21.1252,14.4369 -1.53922,3.3 -3.86942,10.05 -5.17824,15 -3.17665,12.0142 -4.66129,12.2288 -7.60144,1.0992 z"
       id="path4" />
    <path
       style="fill:#000000"
       d="m 385.08445,1059.75 c -1.22612,-4.5375 -3.60291,-11.2649 -5.28176,-14.9498 -3.61976,-7.9449 -6.30908,-10.0127 -19.30269,-14.842 -13.60709,-5.0573 -14.02535,-5.806 -4.73152,-8.4697 3.15234,-0.9035 9.02739,-3.216 13.05567,-5.1389 7.12849,-3.4027 7.41231,-3.68 10.62394,-10.3816 1.81487,-3.787 4.36031,-10.72903 5.65652,-15.42673 1.2962,-4.6977 2.88619,-8.54127 3.5333,-8.54127 0.6471,0 2.78895,5.0625 4.75965,11.25 6.0191,18.8984 7.67631,20.6882 24.89638,26.8887 6.15578,2.2165 8.70576,3.6063 8.5,4.6326 -0.16946,0.8452 -3.80542,2.6564 -8.58597,4.277 -13.26637,4.4972 -16.95032,7.1068 -20.22378,14.3263 -1.53611,3.3878 -3.54474,8.852 -4.46363,12.1425 -3.05408,10.9369 -3.66606,12.4829 -4.94123,12.4829 -0.73833,0 -2.19428,-3.4369 -3.49488,-8.25 z"
       id="path3" />
    <path
       style="fill:#000000"
       d="m 693.77719,1155.25 c -1.85465,-2.1175 -11.73056,-17.9173 -33.33408,-53.3291 -18.19849,-29.8304 -19.7543,-32.6084 -18.97157,-33.8749 0.3043,-0.4923 5.80089,1.5992 12.21464,4.6479 12.18755,5.7931 16.82583,6.9954 22.72104,5.8895 7.39829,-1.3879 13.52762,-9.7659 13.57082,-18.5494 0.0121,-2.4563 -0.92641,-8.8954 -2.08552,-14.3092 -1.15911,-5.4137 -1.83666,-10.114 -1.50567,-10.445 0.85591,-0.8559 17.4931,1.3138 32.94506,4.2965 18.09071,3.4921 32.60579,7.7471 42.54676,12.4724 6.4807,3.0804 8.68931,3.7248 9.75,2.8445 2.24803,-1.8657 1.57526,-4.507 -1.93247,-7.5868 -11.67673,-10.2523 -37.5833,-17.889 -69.72721,-20.5542 l -15.4396,-1.2801 -0.67444,-3.9861 -0.67444,-3.986 15.28193,-15.5 c 16.46363,-16.69856 18.19589,-19.46695 17.2778,-27.6122 -0.60449,-5.36301 -4.46875,-10.69848 -9.67042,-13.35218 -2.09787,-1.07025 -9.0468,-2.97112 -15.44206,-4.22415 C 684.23249,955.55844 679,954.28179 679,953.97447 c 0,-0.94525 22.874,-12.00254 34.5,-16.6773 39.25554,-15.78446 69.26772,-17.60929 81.85907,-4.97727 5.94678,5.96599 6.84325,9.52396 7.37365,29.26498 0.69428,25.84103 -3.96587,58.47162 -12.24549,85.74342 -3.92123,12.916 -5.4829,15.3654 -11.82317,18.5442 -9.28872,4.657 -22.94593,2.8435 -48.45124,-6.4339 -6.99205,-2.5433 -16.87532,-6.138 -21.96282,-7.9882 -5.0875,-1.8502 -9.25,-2.9977 -9.25,-2.55 0,0.4477 6.4125,5.0083 14.25,10.1348 7.8375,5.1265 15.15,10.304 16.25,11.5055 19.00038,20.7549 34.5,39.7023 34.5,42.1742 0,4.4558 -1.92119,4.7363 -19.29633,2.8172 -8.91202,-0.9844 -18.96405,-2.0059 -22.33785,-2.2701 l -6.13417,-0.4802 -6.22247,19.3591 c -7.60486,23.6599 -8.17793,24.8591 -11.87987,24.8591 -1.55064,0 -3.50909,-0.7875 -4.35212,-1.75 z"
       id="path2" />
    <path
       style="fill:#000000"
       d="m 550.2337,1155.75 c -0.55615,-0.6875 -4.02008,-10.4694 -7.69763,-21.7375 -3.67754,-11.268 -7.10279,-20.7447 -7.61165,-21.0592 -0.50886,-0.3145 -9.58753,0.4482 -20.17481,1.6948 -25.10153,2.9558 -25.51816,2.954 -26.91725,-0.1167 -1.31913,-2.8952 -1.50987,-2.6373 21.31991,-28.8204 14.55966,-16.6982 14.7472,-16.8657 29.67514,-26.5077 8.26258,-5.3368 14.45162,-9.8353 13.75342,-9.9966 -0.6982,-0.1614 -10.63603,3.1265 -22.08406,7.3065 -24.68913,9.0145 -34.73086,11.5683 -45.58074,11.5921 -12.72601,0.028 -18.78482,-3.8227 -22.48324,-14.2892 -4.85708,-13.7456 -10.51856,-41.537 -12.97373,-63.68631 -1.86408,-16.81682 -1.57994,-40.24029 0.58077,-47.87613 1.67705,-5.92661 7.78055,-12.49798 14.17249,-15.2589 6.61237,-2.85613 20.20987,-3.74799 31.64675,-2.07569 10.03925,1.46793 28.83433,6.7764 41.24008,11.64781 11.74271,4.61106 35.39684,15.80859 36.22484,17.14833 0.37289,0.60334 -3.75803,1.82592 -10.4097,3.08084 -13.21399,2.49297 -18.81493,5.01007 -22.28263,10.01396 -4.81996,6.95522 -4.70739,13.75368 0.35263,21.29624 1.62118,2.41656 9.01071,9.98608 16.42118,16.82115 12.6976,11.7117 13.44092,12.6044 12.9067,15.5 -0.31178,1.6899 -1.07206,3.5679 -1.68952,4.1732 -0.61746,0.6053 -8.28315,1.6363 -17.03487,2.2911 -18.40314,1.3769 -32.90974,3.9653 -45.76336,8.1657 -19.73068,6.4477 -32.63148,16.2996 -25.99485,19.8514 1.39503,0.7466 3.35443,0.1877 8.25,-2.353 14.40577,-7.4765 40.61153,-13.636 72.67043,-17.0806 7.43097,-0.7985 7.14588,-1.7646 4.11803,13.9558 -2.52279,13.0981 -1.85139,17.3679 3.69657,23.5088 7.25194,8.0271 14.54339,8.0825 30.33154,0.2305 10.67032,-5.3067 13.10386,-6.0471 13.10386,-3.9873 0,0.6507 -4.35579,8.1882 -9.67954,16.75 -18.14363,29.1792 -42.56263,67.5628 -44.09839,69.317 -1.77497,2.0275 -6.51282,2.324 -7.98837,0.5 z"
       id="path1" />
  </g>
</svg>
