<?xml version="1.0" encoding="UTF-8" standalone="no"?>
<!-- Created with Inkscape (http://www.inkscape.org/) -->

<svg
   width="318.38333mm"
   height="321.9682mm"
   viewBox="0 0 318.38333 321.9682"
   version="1.1"
   id="svg1"
   xml:space="preserve"
   sodipodi:docname="stamp_goal_bear_2.svg"
   inkscape:version="1.4.4 (dcaf3e7, 2026-05-05)"
   xmlns:inkscape="http://www.inkscape.org/namespaces/inkscape"
   xmlns:sodipodi="http://sodipodi.sourceforge.net/DTD/sodipodi-0.dtd"
   xmlns="http://www.w3.org/2000/svg"
   xmlns:svg="http://www.w3.org/2000/svg"><sodipodi:namedview
     id="namedview1"
     pagecolor="#ffffff"
     bordercolor="#000000"
     borderopacity="0.25"
     inkscape:showpageshadow="2"
     inkscape:pageopacity="0.0"
     inkscape:pagecheckerboard="0"
     inkscape:deskcolor="#d1d1d1"
     inkscape:document-units="mm"
     inkscape:zoom="0.021365981"
     inkscape:cx="608.44385"
     inkscape:cy="585.04216"
     inkscape:window-width="944"
     inkscape:window-height="250"
     inkscape:window-x="0"
     inkscape:window-y="33"
     inkscape:window-maximized="0"
     inkscape:current-layer="layer1"><inkscape:page
       x="0"
       y="0"
       width="318.38333"
       height="321.9682"
       id="page2"
       margin="0"
       bleed="0" /></sodipodi:namedview><defs
     id="defs1" /><g
     inkscape:label="Layer 1"
     inkscape:groupmode="layer"
     id="layer1"
     transform="translate(45.07781,-7.5055581)"><path
       style="fill:#000000"
       d="M 107.32171,329.28109 C 92.765889,328.53684 80.08866,325.93862 63.930038,320.38791 50.04231,315.61728 38.188476,309.76413 25.433163,301.37904 5.2076716,288.08321 -12.386746,269.26415 -24.428043,248.04731 -35.52544,228.49362 -42.510875,206.02396 -44.737075,182.72036 c -0.457077,-4.78463 -0.453422,-21.95312 0.0057,-26.85521 1.671477,-17.84588 5.879554,-34.43218 12.900489,-50.8478 C -15.837153,67.622512 14.164713,37.133079 50.724585,21.120269 78.23591,9.0706197 109.19024,4.8192293 137.74879,9.1680176 c 28.85104,4.3933284 54.46903,16.0112214 77.56141,35.1745144 6.34596,5.266217 15.25084,14.284352 21.16283,21.431988 9.12805,11.035881 18.33267,26.368504 23.98438,39.95208 6.55952,15.76543 10.24127,30.21417 12.2614,48.11899 0.56463,5.0045 0.78183,19.40718 0.38238,25.35625 -0.87232,12.99139 -3.80541,28.37151 -7.43237,38.97268 -4.57949,13.38533 -8.17041,21.4075 -14.15287,31.61771 -17.99874,30.71833 -46.20009,54.84459 -80.16508,68.58123 -20.56212,8.31606 -42.2976,12.01878 -64.02916,10.90763 z m -19.44688,-5.47413 c 0.654844,-0.46755 1.669365,-1.21045 2.254491,-1.65089 l 1.063866,-0.8008 3.434051,0.52112 c 13.962662,2.11884 27.696992,2.00428 42.567102,-0.35505 l 3.94347,-0.62569 2.06722,1.53275 c 2.93127,2.17341 3.71381,2.37163 6.55705,1.66096 1.02144,-0.25531 1.14983,-0.44107 1.70226,-2.46275 1.04199,-3.81326 1.02129,-3.77369 2.15945,-4.12822 12.47304,-3.8853 19.46299,-6.64864 28.32038,-11.1959 27.03043,-13.87704 49.67714,-35.34695 64.46867,-61.11867 11.1405,-19.41043 17.79608,-41.23688 19.81356,-64.97701 0.41115,-4.8381 0.41837,-17.25826 0.0127,-21.96041 -2.41333,-27.97716 -11.07028,-53.07549 -26.05486,-75.538546 -23.16281,-34.722857 -58.91654,-58.525495 -98.73133,-65.729247 -10.24465,-1.85358 -17.13939,-2.38037 -28.7073,-2.193371 -8.81719,0.142533 -13.446927,0.512086 -20.5631,1.64138 C 51.975512,22.807231 17.466448,43.49087 -6.7045184,75.696395 -15.933807,87.993549 -22.673527,100.12912 -28.011019,114.06098 c -9.233322,24.10071 -12.360034,49.12284 -9.240766,73.95104 4.136376,32.92401 18.792181,63.54113 41.8754548,87.48108 12.3399032,12.79787 26.1999242,22.79645 42.8977052,30.9463 9.021418,4.40316 17.558052,7.67186 27.388872,10.48727 l 4.894792,1.40179 0.342334,1.58293 c 0.188284,0.87061 0.412128,2.08894 0.49743,2.70741 0.109682,0.79521 0.280601,1.12499 0.583708,1.12622 0.235736,9.6e-4 0.785798,0.2452 1.222361,0.54277 0.64212,0.43768 1.122282,0.52462 2.513542,0.45515 1.43493,-0.0717 1.917003,-0.22669 2.910416,-0.93598 z"
       id="path62" /><path
       style="fill:#000000"
       d="m 113.63128,38.801068 -1.36335,-1.486853 0.97752,-0.917243 c 0.53764,-0.504484 1.17802,-1.2149 1.42308,-1.578702 0.43609,-0.647407 0.45225,-0.650217 0.76071,-0.132292 0.17334,0.291042 0.77154,0.989658 1.32934,1.552482 0.55779,0.562823 1.01417,1.058135 1.01417,1.100693 0,0.04256 -0.62508,0.723442 -1.38906,1.513073 l -1.38907,1.435695 z"
       id="path61" /><path
       style="fill:#000000"
       d="m 141.44698,44.163653 c -0.28776,-0.535352 -1.08874,-1.379958 -1.77996,-1.876903 -0.69123,-0.496944 -1.25677,-0.950404 -1.25677,-1.007689 0,-0.05728 0.48533,-0.410528 1.07851,-0.784986 0.59318,-0.374459 1.39685,-1.205626 1.78594,-1.84704 0.38908,-0.641413 0.78541,-1.169969 0.88072,-1.174569 0.0953,-0.0046 0.48669,0.526412 0.86974,1.180027 0.40468,0.690541 1.13483,1.438719 1.74289,1.785937 0.57555,0.328652 1.04737,0.734616 1.04849,0.902143 0.001,0.167527 -0.41403,0.550084 -0.92257,0.850127 -0.50853,0.300043 -1.30536,1.085709 -1.77072,1.745926 -0.46536,0.660217 -0.91518,1.200394 -0.9996,1.200394 -0.0844,0 -0.38892,-0.438015 -0.67667,-0.973367 z"
       id="path60" /><path
       style="fill:#000000"
       d="m 85.822419,43.95756 c -0.457248,-0.648702 -1.2526,-1.452374 -1.767449,-1.785937 -0.514849,-0.333563 -0.937563,-0.694086 -0.939365,-0.801162 -0.0018,-0.107076 0.449352,-0.494217 1.002562,-0.860314 0.55321,-0.366097 1.344382,-1.201224 1.758159,-1.855838 0.413777,-0.654613 0.839675,-1.190206 0.946439,-1.190206 0.106764,0 0.341536,0.355902 0.521715,0.790893 0.335452,0.809852 2.173658,2.64869 2.647779,2.64869 0.59779,0 0.201142,0.78933 -0.665937,1.325214 -0.511367,0.316042 -1.290993,1.099659 -1.732502,1.741371 -0.44151,0.641712 -0.833636,1.166749 -0.871393,1.166749 -0.03776,0 -0.44276,-0.530757 -0.900008,-1.17946 z"
       id="path59" /><path
       style="fill:#000000"
       d="m 45.548257,64.194257 c -0.425372,-0.455361 -0.849784,-1.068586 -0.943139,-1.36272 -0.252127,-0.794384 0.07435,-1.764356 0.707992,-2.103472 1.326711,-0.710034 2.717755,1.367998 2.177272,3.252552 -0.330612,1.152778 -0.996422,1.226019 -1.942125,0.21364 z"
       id="path58" /><path
       style="fill:#000000"
       d="m 61.606221,67.368919 c -0.14686,-0.561594 0.176586,-2.344742 0.63304,-3.48993 0.15453,-0.387699 0.630976,-0.849887 1.058769,-1.027084 0.665744,-0.27576 0.853071,-0.254063 1.300219,0.150601 0.86389,0.78181 0.67385,1.983528 -0.558426,3.531202 -1.166845,1.465495 -2.178027,1.812532 -2.433602,0.835211 z"
       id="path57" /><path
       style="fill:#000000"
       d="m 198.07379,74.292971 c -0.44489,-0.69636 -1.22951,-1.474977 -1.78522,-1.771572 -0.54531,-0.291041 -0.9918,-0.666681 -0.99219,-0.834754 -3.9e-4,-0.168074 0.51492,-0.607771 1.14514,-0.977105 0.75023,-0.439664 1.3667,-1.087809 1.78549,-1.877225 0.35179,-0.663139 0.71503,-1.205707 0.8072,-1.205707 0.0922,0 0.51175,0.529079 0.93239,1.175732 0.42064,0.646652 1.29224,1.557804 1.93688,2.024781 l 1.17208,0.84905 -0.60145,0.422614 c -1.47235,1.034553 -2.37499,1.933931 -2.68002,2.670355 -0.18111,0.437232 -0.46367,0.788503 -0.62792,0.780602 -0.16425,-0.0079 -0.65582,-0.573448 -1.09238,-1.256771 z"
       id="path56" /><path
       style="fill:#000000"
       d="m 99.436444,80.262548 c -0.07616,-0.328569 -0.948594,-4.73482 -1.93875,-9.791669 L 95.697409,61.276608 H 94.93496 c -2.095394,0 -3.734503,-1.79094 -3.700525,-4.043304 0.03301,-2.187847 1.61637,-3.761905 3.784146,-3.761905 1.387873,0 2.313332,0.512284 3.290943,1.821688 0.772976,1.035318 0.744849,3.02374 -0.05814,4.109836 l -0.603651,0.816482 2.323443,1.501975 c 3.631584,2.34761 6.711864,4.070285 6.980804,3.904072 0.29143,-0.18011 7.20644,-11.769209 7.07485,-11.856962 -0.0498,-0.03321 -0.42365,-0.268932 -0.83078,-0.523837 -3.15781,-1.97712 -1.74701,-7.308975 1.93499,-7.31289 1.95537,-0.0021 3.94963,1.920583 3.96027,3.81808 0.006,1.15075 -0.92952,2.872485 -1.86051,3.422433 -0.56777,0.335389 -0.7672,0.614834 -0.65236,0.91409 0.091,0.237063 1.37164,2.517394 2.84593,5.067403 1.4743,2.550009 2.96221,5.135363 3.30647,5.745232 l 0.62593,1.108851 2.96268,-1.793282 c 2.35892,-1.427837 5.84803,-3.597121 6.19982,-3.854613 0.0342,-0.02502 -0.17418,-0.509025 -0.46302,-1.075571 -0.96041,-1.883778 -0.5446,-4.017747 0.99219,-5.092086 1.65933,-1.159999 3.5927,-1.017164 4.9776,0.36774 2.27071,2.270712 1.02427,6.125194 -2.13389,6.598789 -0.91723,0.137547 -1.22268,0.308586 -1.32782,0.743522 -0.0751,0.310685 -0.95234,4.672538 -1.94941,9.693007 l -1.81285,9.128125 -15.61358,0.06823 -15.613583,0.06823 z"
       id="path55" /><path
       style="fill:#000000"
       d="m 60.09358,80.475416 c 0,-2.344004 9.76729,-16.684056 13.507365,-19.831122 1.015805,-0.854743 2.111206,-0.885792 3.040798,-0.08619 1.095313,0.942149 0.971179,2.237373 -0.382606,3.99213 -1.65032,2.139121 -15.202801,16.158932 -15.715799,16.257727 -0.270472,0.05209 -0.449758,-0.08047 -0.449758,-0.332545 z"
       id="path54" /><path
       style="fill:#000000"
       d="m 53.886063,80.544596 c -0.170378,-0.495278 -0.883449,-6.898334 -1.188149,-10.669034 -0.429863,-5.319633 -0.592299,-13.069308 -0.337011,-16.07856 0.20588,-2.426846 0.333163,-2.946723 0.858322,-3.505729 0.65017,-0.692074 1.54515,-0.836645 2.387738,-0.385705 0.358824,0.192036 0.65763,0.175736 1.028907,-0.05613 0.287775,-0.179719 0.573818,-0.271737 0.635651,-0.204486 0.184016,0.200143 -0.289625,13.600421 -0.612192,17.320193 -0.385543,4.445991 -1.288852,11.984687 -1.555523,12.981847 -0.217183,0.812108 -1.010093,1.201227 -1.217743,0.597604 z"
       id="path53" /><path
       style="fill:#000000"
       d="m 25.539982,80.239516 c -0.672278,-0.578269 -0.717179,-0.714885 -0.437036,-1.329732 0.58371,-1.281103 2.501835,-1.154263 3.23403,0.213857 0.820055,1.532287 -1.320206,2.386154 -2.796994,1.115875 z"
       id="path52" /><path
       style="fill:#000000"
       d="m 46.99585,79.599 c -1.002009,-1.273308 -3.010016,-3.862917 -4.462236,-5.754688 -4.620364,-6.01883 -4.3289,-5.709798 -5.067713,-5.373172 -0.356529,0.162445 -0.831243,0.574661 -1.054919,0.916034 -0.445557,0.680006 -0.916068,0.787014 -1.387519,0.315563 -0.413385,-0.413385 0.0016,-1.192884 1.177121,-2.211161 l 0.919492,-0.796486 -1.650099,-2.510806 c -1.993978,-3.034055 -2.445481,-4.050581 -2.231612,-5.02432 0.290542,-1.322829 1.36511,-1.892249 2.840022,-1.504945 1.414663,0.371482 6.714549,8.692122 10.179215,15.981017 1.951299,4.105106 3.494116,7.833696 3.343191,8.07963 -0.315684,0.514413 -0.922426,0.0214 -2.604943,-2.116666 z"
       id="path51" /><path
       style="fill:#000000"
       d="m 81.194101,81.892911 c -1.166204,-0.679251 0.09985,-2.712835 1.688943,-2.712835 0.835404,0 1.552203,0.619459 1.552203,1.341416 0,0.197082 -0.292244,0.650576 -0.649432,1.007763 -0.683682,0.683682 -1.778511,0.837303 -2.591714,0.363656 z"
       id="path50" /><path
       style="fill:#000000"
       d="m 40.911288,82.545249 c -1.74625,-0.804267 -5.020469,-2.301219 -7.276042,-3.32656 -11.798787,-5.363505 -12.444995,-5.831565 -11.247694,-8.146891 0.831996,-1.608902 2.181192,-1.501521 6.320261,0.50302 3.231199,1.564862 6.93907,3.91275 10.343239,6.549518 2.360911,1.828692 6.225861,5.343479 6.225861,5.661801 0,0.534336 -1.335264,0.154799 -4.365625,-1.240888 z"
       id="path49" /><path
       style="fill:#000000"
       d="m 63.41619,84.055556 c -0.293253,-0.474493 5.184242,-5.010199 9.37739,-7.765063 3.226965,-2.12009 9.235405,-5.167644 10.636635,-5.395033 1.737933,-0.282027 2.824338,1.437622 2.021465,3.199737 -0.326183,0.715893 -2.399054,1.967776 -5.438817,3.284702 -0.987429,0.427787 -4.876177,2.158768 -8.641664,3.846625 -6.644013,2.978138 -7.643236,3.333491 -7.955009,2.829032 z"
       id="path48" /><path
       style="fill:#000000"
       d="m 211.58284,88.134048 c -0.40469,-0.690541 -1.13483,-1.438719 -1.7429,-1.785938 -0.57554,-0.328651 -1.04737,-0.726428 -1.04849,-0.883948 -0.001,-0.15752 0.44445,-0.574378 0.99015,-0.926351 0.54571,-0.351972 1.34938,-1.198893 1.78594,-1.882046 0.43656,-0.683153 0.88063,-1.248561 0.98681,-1.256462 0.10618,-0.0079 0.4298,0.449673 0.71914,1.016833 0.48194,0.944678 0.81423,1.279176 2.60088,2.618179 l 0.60267,0.451664 -1.26413,0.929792 c -0.69526,0.511386 -1.50224,1.374268 -1.79329,1.917515 -0.29104,0.543247 -0.66668,0.988043 -0.83475,0.988437 -0.16807,3.93e-4 -0.61899,-0.534061 -1.00203,-1.187675 z"
       id="path47" /><path
       style="fill:#000000"
       d="m 17.575484,91.0419 c -1.214417,-0.85061 -0.983622,-2.962821 0.402033,-3.679371 1.163759,-0.601804 7.250474,-1.038277 11.61045,-0.832577 4.030801,0.190171 8.687705,0.83299 12.623751,1.742528 2.788655,0.6444 3.203156,0.837974 2.989057,1.395906 -0.176654,0.460353 -0.397342,0.483179 -12.043843,1.245701 -9.908878,0.648755 -14.780644,0.688718 -15.581448,0.127813 z"
       id="path46" /><path
       style="fill:#000000"
       d="M 82.980039,91.804853 C 73.082676,91.235756 64.946484,90.502639 63.834048,90.079692 63.271807,89.865928 63.2313,89.778819 63.553486,89.476351 c 0.865919,-0.812922 7.279271,-1.917039 13.540607,-2.33114 5.336806,-0.352955 11.15551,-0.01024 12.274505,0.722953 1.135574,0.744057 1.148902,2.69078 0.02339,3.415914 -0.63871,0.411501 -3.819479,0.669841 -6.411945,0.520775 z"
       id="path45" /><path
       style="fill:#000000"
       d="m 166.17676,91.532624 c -0.39448,-1.037561 -1.50914,-6.973159 -1.89623,-10.097545 l -0.33799,-2.727982 -2.49161,2.127822 c -2.54379,2.172387 -6.57123,5.157577 -7.61183,5.641982 -0.81825,0.3809 -1.44557,0.08711 -1.20272,-0.563266 0.23106,-0.618815 4.05386,-5.448584 6.51245,-8.22791 0.96305,-1.088682 1.751,-2.070947 1.751,-2.182813 0,-0.111865 -0.31214,-0.203392 -0.69365,-0.203392 -1.8076,0 -10.70027,-1.632086 -12.35733,-2.26796 -0.57225,-0.219591 -0.78708,-0.946697 -0.38634,-1.307619 0.71008,-0.639544 6.57666,-1.761354 11.15293,-2.13267 1.25642,-0.101945 2.28439,-0.225564 2.28439,-0.274708 0,-0.04914 -0.99017,-1.273491 -2.20037,-2.72077 -1.21021,-1.447279 -2.82334,-3.553543 -3.58475,-4.680586 -1.23532,-1.828538 -1.34131,-2.092235 -0.9844,-2.449143 0.30716,-0.307161 0.54038,-0.335984 1.00506,-0.124213 0.8747,0.398633 5.89403,4.348304 7.53763,5.931306 l 1.40183,1.350139 v -0.768374 c 0,-2.824927 0.79026,-10.075187 1.61335,-14.801707 0.47556,-2.730863 1.66689,-3.540686 2.34714,-1.595503 0.56403,1.612866 1.32346,7.166731 1.62997,11.920324 0.16999,2.636348 0.33612,4.828191 0.36917,4.870763 0.0331,0.04257 1.17622,-0.983747 2.54034,-2.280708 3.93615,-3.742334 9.58029,-8.497488 10.09532,-8.505233 0.86216,-0.01296 0.7973,0.766974 -0.18203,2.188918 -1.63879,2.379448 -5.36532,7.083889 -7.3029,9.219322 -1.01747,1.121364 -1.84994,2.166811 -1.84994,2.323216 0,0.156405 0.45528,0.284373 1.01173,0.284373 1.90761,0 9.01305,1.203268 11.09296,1.87853 0.89835,0.291661 1.14901,1.000406 0.52916,1.496232 -0.64318,0.51449 -10.2488,2.446071 -12.16415,2.446071 -0.40385,0 -0.73428,0.08006 -0.73428,0.177912 0,0.09785 0.56682,0.841992 1.25961,1.653646 3.29131,3.855997 6.22459,8.030098 6.0995,8.679654 -0.049,0.254606 -0.27775,0.499241 -0.50826,0.543633 -0.46591,0.08973 -4.52085,-2.901333 -7.77451,-5.734739 -1.16286,-1.012656 -2.13825,-1.817229 -2.16754,-1.787938 -0.0293,0.02929 -0.23868,1.557538 -0.4653,3.396104 -0.81667,6.625476 -1.6803,10.005062 -2.55673,10.005062 -0.3129,0 -0.61876,-0.274346 -0.78068,-0.70023 z m 2.10892,-17.725563 c 0.59445,-0.675331 1.08082,-1.305385 1.08082,-1.40012 0,-0.09473 -0.52345,-0.685968 -1.16322,-1.313852 l -1.16321,-1.141609 -0.84695,0.6235 c -0.46582,0.342924 -1.0104,0.938173 -1.21018,1.322775 -0.34318,0.660677 -0.30401,0.766562 0.70973,1.918229 0.59013,0.670424 1.17179,1.218953 1.29258,1.218953 0.12078,0 0.70598,-0.552544 1.30043,-1.227876 z"
       id="path44" /><path
       style="fill:#000000"
       d="m 52.949965,94.052274 c -2.214331,-0.882974 -3.252242,-3.560399 -2.281156,-5.884536 0.734509,-1.757928 2.900503,-2.774095 4.796939,-2.250464 1.386134,0.38273 2.909371,1.934283 3.144354,3.202806 0.601965,3.249617 -2.688694,6.117069 -5.660137,4.932194 z"
       id="path43" /><path
       style="fill:#000000"
       d="m 139.28053,99.512238 -1.64326,-1.666542 1.01536,-0.671933 c 0.55845,-0.369563 1.27786,-1.096667 1.59869,-1.615786 0.32084,-0.519119 0.66292,-0.94065 0.76019,-0.936736 0.0973,0.0039 0.45123,0.452533 0.78656,0.99693 0.33534,0.544398 1.01996,1.270923 1.52137,1.6145 l 0.91167,0.624686 -1.45522,1.398238 c -0.80037,0.769035 -1.45523,1.527585 -1.45523,1.685675 0,0.52135 -0.37823,0.25642 -2.04013,-1.429032 z"
       id="path42" /><path
       style="fill:#000000"
       d="m 107.6044,102.16178 c -0.42542,-0.72592 -1.1513,-1.4518 -1.87723,-1.87722 -0.65097,-0.381501 -1.18359,-0.84365 -1.18359,-1.027001 0,-0.183352 0.52664,-0.666249 1.1703,-1.073106 0.74227,-0.469188 1.42407,-1.206001 1.86416,-2.014591 0.38162,-0.701169 0.80389,-1.342852 0.93836,-1.425961 0.13447,-0.08311 0.43301,0.300175 0.66342,0.851745 0.48717,1.166243 1.5381,2.34445 2.57366,2.885352 1.01322,0.529234 0.91316,0.910088 -0.4684,1.782922 -0.67962,0.42936 -1.48907,1.2567 -1.87675,1.91823 -0.37493,0.63977 -0.77813,1.16322 -0.896,1.16322 -0.11786,0 -0.52643,-0.53261 -0.90793,-1.18359 z"
       id="path41" /><path
       style="fill:#000000"
       d="m 81.992022,102.22088 c -3.929285,-2.714082 -5.26981,-3.88132 -5.180281,-4.510642 0.07498,-0.527035 0.227155,-0.579718 1.595791,-0.552457 1.230787,0.02452 1.970867,0.25751 3.96875,1.249454 2.99312,1.486075 4.175632,2.494045 4.175632,3.559285 0,0.42221 -0.217735,0.9647 -0.483855,1.20554 -0.8638,0.78172 -1.926133,0.53382 -4.076037,-0.95118 z"
       id="path40" /><path
       style="fill:#000000"
       d="m 20.700448,103.37514 c -0.846868,-0.84687 -0.73233,-2.03677 0.287781,-2.9897 1.452892,-1.3572 7.212932,-3.919253 8.811324,-3.919253 0.838037,0 1.523526,0.964039 1.163642,1.636489 -0.146099,0.272989 -1.963713,1.627684 -4.039141,3.010434 -4.174792,2.78145 -5.296496,3.18914 -6.223606,2.26203 z"
       id="path39" /><path
       style="fill:#000000"
       d="m 190.33473,108.19714 c -0.2549,-0.1028 -0.33073,-2.07055 -0.33073,-8.581591 0,-6.151385 -0.087,-8.587597 -0.32019,-8.960909 -0.53738,-0.860487 0.0191,-1.976285 1.03499,-2.075259 1.09783,-0.106958 1.49624,0.594522 1.25423,2.20834 l -0.17703,1.18055 h 2.23952 c 2.46653,0 3.43489,0.252165 5.25816,1.369258 1.40966,0.863681 3.07103,0.983464 5.11375,0.368696 3.18695,-0.959131 2.4951,1.166919 -0.9474,2.911367 -0.70686,0.358193 -1.2852,0.749863 -1.2852,0.870379 0,0.453771 1.02858,1.121537 2.40821,1.563444 1.0955,0.350899 1.44757,0.593315 1.51119,1.040525 0.0716,0.50306 -0.12806,0.64538 -1.45521,1.03751 -0.84598,0.24995 -2.31205,0.46021 -3.25794,0.46722 -1.4571,0.0108 -1.97503,-0.12283 -3.39084,-0.87494 -1.5161,-0.805389 -1.81308,-0.872859 -3.20268,-0.727617 -0.84239,0.08805 -1.84659,0.279837 -2.23155,0.426197 l -0.69993,0.26611 v 3.71072 c 0,2.07707 -0.10695,3.71071 -0.24294,3.71071 -0.13362,0 -0.40151,0.0501 -0.59531,0.11133 -0.19381,0.0612 -0.5012,0.0513 -0.6831,-0.022 z"
       id="path38" /><path
       style="fill:#000000"
       d="m 2.1011166,109.36463 c -0.3685235,-0.67106 -1.11753294,-1.44454 -1.85754117,-1.91823 -0.68200811,-0.43657 -1.24271605,-0.91282 -1.24601763,-1.05834 -0.0033,-0.14552 0.52214766,-0.58501 1.16766499,-0.97665 0.7789525,-0.4726 1.42125811,-1.16093 1.90986611,-2.04671 0.404909,-0.73405 0.8017701,-1.33635 0.8819134,-1.33845 0.080143,-0.002 0.4046175,0.52909 0.7210538,1.18041 0.4970508,1.02308 1.9979339,2.44063 3.0529892,2.88349 0.3060136,0.12845 0.064979,0.37272 -1.7454115,1.7689 -0.4048385,0.31221 -0.9728052,1.0317 -1.2621482,1.59886 -0.289343,0.56716 -0.6338001,1.03119 -0.7654604,1.03119 -0.1316602,0 -0.5172691,-0.50601 -0.8569086,-1.12447 z"
       id="path37" /><path
       style="fill:#000000"
       d="m 78.672166,113.73025 c -0.291521,-0.25466 -1.757682,-1.9513 -3.258134,-3.77031 -3.87002,-4.69166 -7.722893,-8.99032 -10.66683,-11.901027 -1.395326,-1.379574 -2.536955,-2.674378 -2.536955,-2.877344 0,-0.993602 4.434139,1.220987 8.539695,4.265071 4.02861,2.98703 10.265336,9.52673 11.203237,11.74748 0.418146,0.99007 0.07598,2.32306 -0.703368,2.74015 -0.754152,0.40361 -1.994444,0.30544 -2.577645,-0.20402 z"
       id="path36" /><path
       style="fill:#000000"
       d="m 26.453413,115.11497 c -0.885645,-0.48113 -1.359721,-1.74861 -1.00399,-2.68426 0.424649,-1.11691 4.466364,-5.84453 7.453571,-8.7185 3.125576,-3.00708 6.92634,-5.829151 10.263695,-7.620796 2.279234,-1.223597 3.003447,-1.429349 3.306295,-0.939331 0.09293,0.150367 -1.836541,2.323258 -4.287719,4.828646 -2.451178,2.505391 -6.408577,6.901661 -8.794219,9.769501 -3.010156,3.61857 -4.579694,5.29866 -5.128856,5.4901 -0.97209,0.33887 -0.95163,0.34029 -1.808777,-0.12536 z"
       id="path35" /><path
       style="fill:#000000"
       d="m 61.416497,120.27869 c -0.600373,-0.60038 -0.65589,-1.14502 -0.238701,-2.34177 0.209588,-0.60122 0.456021,-0.83323 0.885035,-0.83323 1.254245,0 2.106668,1.90677 1.361108,3.04463 -0.521701,0.79622 -1.291594,0.84622 -2.007442,0.13037 z"
       id="path34" /><path
       style="fill:#000000"
       d="m 225.10331,119.2865 c -0.79085,-3.03405 -1.58045,-4.38268 -3.01706,-5.15308 -0.69206,-0.37112 -1.9429,-0.86999 -2.77965,-1.1086 -0.88108,-0.25125 -1.52135,-0.58331 -1.52135,-0.78901 0,-0.20447 0.87003,-0.66172 2.05052,-1.07766 2.18424,-0.7696 3.56295,-1.64697 4.08261,-2.59803 0.17567,-0.32151 0.63634,-1.80762 1.02372,-3.30247 0.38738,-1.49485 0.7875,-2.80109 0.88917,-2.90276 0.26523,-0.26523 0.67642,0.48148 0.68118,1.23703 0.002,0.35389 0.25724,1.58178 0.5667,2.72864 0.74835,2.77343 1.50685,3.56013 4.5405,4.70924 1.52013,0.57582 2.29869,1.00564 2.24895,1.2416 -0.0418,0.19849 -1.05164,0.68761 -2.24403,1.08694 -1.19238,0.39933 -2.42544,0.95891 -2.74013,1.24351 -0.91566,0.82812 -1.59572,2.36654 -2.36326,5.34611 -0.15931,0.61846 -0.43877,1.12448 -0.62101,1.12448 -0.1867,0 -0.53455,-0.77962 -0.79686,-1.78594 z"
       id="path33" /><path
       style="fill:#000000"
       d="m 37.146192,121.39728 c -1.374577,-1.06486 -0.951926,-2.81197 1.966775,-8.13005 3.769624,-6.86853 9.338946,-13.985007 9.338946,-11.93331 0,0.75983 -5.683813,14.72469 -7.296288,17.92664 -1.276217,2.53423 -2.5915,3.23517 -4.009433,2.13672 z"
       id="path32" /><path
       style="fill:#000000"
       d="m 69.520713,121.82724 c -0.272108,-0.15809 -1.088545,-1.55345 -1.814304,-3.10081 -1.688868,-3.60074 -7.612829,-17.42715 -7.612829,-17.76819 0,-0.56253 0.845063,-0.20741 1.815332,0.76286 3.981224,3.98123 10.460894,14.71648 10.823282,17.93157 0.105892,0.93947 0.0184,1.22222 -0.555903,1.79653 -0.724803,0.7248 -1.796206,0.87732 -2.655578,0.37804 z"
       id="path31" /><path
       style="fill:#000000"
       d="m 165.00284,125.76879 c -0.0625,-0.1819 -0.36086,-1.32026 -0.66291,-2.52969 -1.12833,-4.51779 -2.06863,-6.23057 -3.9364,-7.17017 -0.5274,-0.26532 -2.1793,-0.85888 -3.67089,-1.31902 -3.81545,-1.17704 -3.74953,-1.48996 0.6207,-2.94635 3.46793,-1.15569 4.77782,-1.97489 5.55215,-3.47228 0.21512,-0.416 0.80568,-2.26894 1.31235,-4.11764 0.50668,-1.8487 1.02552,-3.46557 1.153,-3.59304 0.36018,-0.36018 0.61205,0.24226 1.38951,3.32364 0.8987,3.56184 1.77502,5.50006 2.82465,6.24747 0.44857,0.31941 2.16049,1.02447 3.80427,1.5668 1.64378,0.54233 3.13752,1.08092 3.31942,1.19686 0.80147,0.51084 0.2027,0.92818 -2.51355,1.75192 -3.58572,1.08742 -4.89885,1.83549 -5.7283,3.26333 -0.58147,1.00095 -1.51795,3.87163 -2.285,7.00442 -0.26738,1.09203 -0.92436,1.53434 -1.179,0.79375 z"
       id="path30" /><path
       style="fill:#000000"
       d="m 84.9245,125.2217 -1.23054,-1.34683 1.357383,-1.33737 1.357382,-1.33736 1.26222,1.30953 c 0.69422,0.72024 1.262219,1.33842 1.262219,1.37372 0,0.11651 -2.609667,2.74595 -2.694802,2.71522 -0.04583,-0.0165 -0.637066,-0.63616 -1.313862,-1.37691 z"
       id="path29" /><path
       style="fill:#000000"
       d="m 53.337519,129.81651 c -0.986577,-0.39989 -1.261072,-1.05659 -1.475264,-3.52938 -0.519817,-6.00117 1.171697,-26.553676 2.276337,-27.658316 1.055575,-1.055575 2.250821,10.799456 2.250821,22.324736 0,7.24732 -0.131021,8.10149 -1.338463,8.72589 -0.8431,0.43598 -0.954102,0.44486 -1.713431,0.13707 z"
       id="path28" /><path
       style="fill:#000000"
       d="m 34.219501,135.01919 c -0.612382,-0.62397 -1.113422,-1.19625 -1.113422,-1.27174 0,-0.21676 2.378782,-2.71415 2.471992,-2.59525 0.046,0.0587 0.592584,0.66924 1.214628,1.3568 l 1.130987,1.25011 -1.19729,1.19729 c -0.65851,0.65851 -1.241431,1.19729 -1.295382,1.19729 -0.05395,0 -0.599131,-0.51052 -1.211513,-1.1345 z"
       id="path27" /><path
       style="fill:#000000"
       d="m 210.60242,145.02225 c -0.0834,-0.0834 -0.094,-3.61443 -0.0236,-7.84681 0.0947,-5.69695 0.043,-7.9525 -0.19901,-8.68593 -0.40597,-1.2301 -0.0268,-2.12541 0.90007,-2.12541 0.89078,0 1.26531,0.60165 1.16715,1.87496 l -0.0857,1.11208 2.02681,-0.0549 c 2.42887,-0.0658 3.66901,0.24332 5.2229,1.30183 1.36459,0.92955 3.03092,1.05091 5.27584,0.38424 1.55383,-0.46144 1.89424,-0.36367 1.89424,0.54406 0,0.67369 -1.27856,1.68594 -3.28476,2.6006 l -1.0358,0.47224 0.63893,0.6387 c 0.35141,0.35128 1.29377,0.8606 2.09413,1.13182 1.07588,0.36458 1.47671,0.638 1.5377,1.0489 0.0705,0.47503 -0.17378,0.63493 -1.68151,1.10062 -2.60225,0.80375 -4.23037,0.72582 -6.11317,-0.2926 -1.72298,-0.93197 -3.54094,-1.10243 -5.5755,-0.52279 l -1.11685,0.31819 -0.0738,3.49759 -0.0738,3.49758 -0.67136,0.0783 c -0.36925,0.0431 -0.73957,0.0101 -0.82293,-0.0733 z"
       id="path26" /><path
       style="fill:#000000"
       d="m 108.46113,145.93349 c -1.55612,-0.12964 -3.97416,-0.41994 -5.37341,-0.6451 -4.091187,-0.65834 -5.241806,-1.40423 -3.712227,-2.40645 0.636697,-0.41718 0.648877,-0.48726 0.495216,-2.85037 -0.443699,-6.82367 2.838091,-11.03898 12.808811,-16.45235 2.07367,-1.12585 3.77031,-2.14071 3.77031,-2.25525 0,-0.11454 0.0668,-0.38237 0.14848,-0.59518 0.0953,-0.2484 -0.18214,-0.59127 -0.77498,-0.95766 -1.03264,-0.63821 -2.02248,-2.41331 -2.01352,-3.61087 0.021,-2.8053 2.87474,-4.91657 5.55867,-4.11245 3.3639,1.00785 4.02483,5.97121 1.02014,7.6609 -0.58494,0.32894 -0.76008,0.60203 -0.70491,1.09914 0.0617,0.55582 0.62093,0.94973 3.50164,2.46644 4.7034,2.47637 7.52766,4.3681 9.47551,6.34685 3.04133,3.08958 3.93878,5.57618 3.85789,10.68912 l -0.0511,3.23053 -0.99145,0.3967 c -1.44344,0.57755 -4.06613,1.14779 -7.45262,1.62039 -3.54635,0.49491 -15.39897,0.72249 -19.56244,0.37561 z"
       id="path25" /><path
       style="fill:#000000"
       d="m 239.09103,146.22105 c -0.222,-0.42931 -0.93944,-1.22843 -1.59429,-1.77582 -0.65486,-0.5474 -1.19066,-1.08482 -1.19066,-1.19428 0,-0.10946 0.43793,-0.4966 0.97317,-0.8603 0.53525,-0.36371 1.32693,-1.22965 1.75929,-1.9243 0.70822,-1.13786 0.81498,-1.21432 1.07735,-0.77156 0.91548,1.54487 1.4579,2.19913 2.28191,2.75235 0.50586,0.33963 0.95505,0.71628 0.99821,0.837 0.0431,0.12072 -0.34548,0.4815 -0.86362,0.80173 -0.51814,0.32023 -1.30331,1.10727 -1.74482,1.74899 -0.44151,0.64171 -0.91303,1.16675 -1.04782,1.16675 -0.13479,0 -0.42672,-0.35126 -0.64872,-0.78056 z"
       id="path24" /><path
       style="fill:#000000"
       d="m 6.972429,155.13754 c -0.488869,-0.60043 -1.6476001,-7.45224 -1.6476001,-9.74258 0,-0.57155 -0.074704,-1.03919 -0.1660093,-1.03919 -0.091305,0 -1.133102,0.81376 -2.3151042,1.80835 -4.5317445,3.81323 -5.9855533,4.66318 -5.9855533,3.49937 0,-0.52153 4.2081045,-6.34576 5.2504922,-7.26695 0.3136876,-0.27722 0.5703412,-0.59607 0.5703412,-0.70857 0,-0.1125 -0.6846094,-0.28477 -1.5213542,-0.38284 -1.82602464,-0.21401 -7.5173312,-1.37607 -8.4197072,-1.71915 -1.0273262,-0.39059 -0.8356868,-1.24397 0.3499154,-1.55819 1.8673197,-0.49489 3.3745375,-0.78041 5.6223959,-1.06508 1.23692713,-0.15664 2.6409018,-0.34955 3.1199438,-0.42869 l 0.8709853,-0.14389 -0.8709853,-1.06946 c -2.24170883,-2.75253 -4.7074438,-6.14926 -4.7074438,-6.48486 0,-0.7094 0.8117523,-0.67911 1.89367171,0.0707 0.59711496,0.4138 2.24553409,1.72224 3.66315349,2.90764 l 2.57749,2.15529 0.1830352,-3.07505 c 0.2651476,-4.45455 0.9073678,-9.06656 1.3583589,-9.75486 0.5207253,-0.79473 1.3840066,-0.7695 1.695407,0.0495 0.3784517,0.99541 1.0133652,6.00549 1.2201182,9.62791 l 0.1861937,3.26222 1.8795154,-1.83886 c 3.692327,-3.61246 8.189275,-7.48477 8.600231,-7.40563 0.229327,0.0442 0.455193,0.27884 0.501925,0.5215 0.120437,0.62538 -4.30071,6.54778 -7.316735,9.80122 -1.314204,1.41765 -1.321687,1.4092 1.446412,1.63407 1.664469,0.13521 6.318853,0.97666 7.57737,1.36988 0.714739,0.22332 0.567178,1.14085 -0.232366,1.44483 -1.073809,0.40826 -5.28933,1.27875 -7.615905,1.57265 -1.151471,0.14545 -2.14926,0.32014 -2.217309,0.38819 -0.06805,0.068 0.465743,0.81266 1.186205,1.65468 2.391256,2.79474 4.579895,5.858 4.579895,6.41013 0,1.20061 -1.531311,0.34246 -5.740893,-3.21722 -1.339099,-1.13235 -2.488521,-2.05883 -2.554271,-2.05883 -0.06575,0 -0.1976125,0.74414 -0.2930283,1.65365 -0.2558155,2.43844 -1.2074032,8.1173 -1.4805928,8.83584 -0.2586558,0.68032 -0.8244009,0.8128 -1.2481979,0.29228 z"
       id="path23" /><path
       style="fill:#000000"
       d="m 36.23292,151.69796 c -0.04763,-4.83857 0.01782,-8.94622 0.145464,-9.12813 0.315591,-0.44975 1.353151,-0.41778 1.744488,0.0538 0.175498,0.21146 0.279373,0.83654 0.230835,1.38906 -0.0832,0.94709 -0.05039,0.99702 0.573206,0.8723 0.363802,-0.0728 1.554427,-0.1311 2.645833,-0.12965 1.834612,0.002 2.13819,0.0873 4.022433,1.12448 2.280132,1.25508 3.432378,1.40328 5.658954,0.72782 1.668681,-0.50621 2.129888,-0.4997 2.334281,0.0329 0.232242,0.60521 -1.610036,2.29975 -3.132306,2.88111 -0.665745,0.25425 -1.210445,0.61498 -1.210445,0.80162 0,0.47104 1.521208,1.3596 2.702552,1.5786 1.09807,0.20356 1.66557,0.71686 1.440629,1.30305 -0.216937,0.56533 -2.943343,1.29236 -4.936931,1.3165 -1.462669,0.0177 -1.974481,-0.11246 -3.423306,-0.87067 -1.582727,-0.82828 -1.835989,-0.88215 -3.571875,-0.75972 -1.027598,0.0725 -2.195545,0.26224 -2.595438,0.42172 l -0.727077,0.28995 0.127766,2.58644 c 0.07027,1.42254 0.05678,2.97339 -0.02997,3.44633 -0.140432,0.76555 -0.254001,0.8599 -1.03511,0.8599 h -0.877372 z"
       id="path22" /><path
       style="fill:#000000"
       d="m 19.678475,165.36474 c -0.618464,-0.65514 -1.124479,-1.2558 -1.124479,-1.33479 0,-0.079 0.503607,-0.70785 1.119126,-1.39746 l 1.119127,-1.25383 1.268796,1.30263 1.268796,1.30262 -1.065006,1.03355 c -0.585753,0.56846 -1.065006,1.15275 -1.065006,1.29843 0,0.49061 -0.391205,0.24603 -1.521354,-0.95115 z"
       id="path21" /><path
       style="fill:#000000"
       d="m 162.40608,170.35108 c -0.0619,-0.10914 -0.38126,-1.01711 -0.70975,-2.01772 -0.32849,-1.00061 -1.03725,-2.77217 -1.57503,-3.9368 l -0.97777,-2.11751 1.24076,-1.16058 c 3.46146,-3.23779 3.71852,-8.79355 0.56896,-12.29663 -3.12366,-3.47425 -8.06949,-3.86578 -11.36822,-0.89994 l -1.31205,1.17964 -1.42564,-1.06819 c -0.7841,-0.58751 -2.4079,-1.6633 -3.60845,-2.39065 -1.20054,-0.72734 -2.18281,-1.39333 -2.18281,-1.47996 0,-0.50798 1.86716,-2.9193 3.25654,-4.20562 3.08095,-2.85242 8.09533,-4.58474 12.08929,-4.1765 4.22346,0.43169 7.90064,2.19039 11.00617,5.26396 3.50467,3.46858 5.31123,7.45355 5.58986,12.33025 0.18773,3.28562 -0.3668,5.90151 -1.94885,9.19336 -1.43177,2.97915 -4.0301,5.78079 -6.61442,7.13197 -1.75304,0.91655 -1.85879,0.95048 -2.02859,0.65092 z"
       id="path20" /><path
       style="fill:#000000"
       d="m 72.396705,170.61035 c -1.122934,-0.59494 -2.529525,-1.66454 -3.572826,-2.71684 -5.529424,-5.57714 -6.519657,-14.67527 -2.364839,-21.72782 6.390774,-10.84794 20.678587,-12.402 28.068576,-3.05296 0.561072,0.70981 1.020131,1.44821 1.020131,1.6409 0,0.19269 -0.757342,0.77388 -1.682983,1.29153 -0.925642,0.51764 -2.542857,1.61398 -3.593812,2.43629 l -1.910828,1.49512 -0.970251,-0.92916 c -1.652318,-1.58235 -2.533469,-1.90576 -5.203584,-1.90986 -2.829521,-0.004 -4.274258,0.58689 -5.994495,2.45312 -1.737986,1.8855 -2.472841,3.76342 -2.468525,6.30832 0.0033,1.93012 0.09817,2.3358 0.926041,3.95866 0.631569,1.23805 1.27184,2.0616 2.030707,2.61199 0.609572,0.44211 1.115588,0.95663 1.124479,1.14337 0.0089,0.18673 -0.300889,0.96064 -0.688402,1.71979 -0.387514,0.75914 -1.087534,2.44704 -1.5556,3.75088 -0.468066,1.30384 -0.954681,2.40151 -1.081367,2.43927 -0.126686,0.0378 -1.063776,-0.37291 -2.082422,-0.9126 z"
       id="path19" /><path
       style="fill:#000000"
       d="m -11.589294,171.26151 c -0.127752,-0.33601 -0.386828,-1.12678 -0.575725,-1.75726 -0.463321,-1.54643 -1.669626,-2.75361 -3.34609,-3.34851 -1.880196,-0.66721 -1.802219,-1.12931 0.348683,-2.06634 1.957857,-0.85294 2.362625,-1.33806 3.205055,-3.84134 0.321519,-0.95539 0.676035,-1.73708 0.787815,-1.73708 0.111779,0 0.525532,0.87314 0.919452,1.94031 0.8908364,2.41337 1.2713667,2.84553 3.3379535,3.79083 0.9095052,0.41603 1.6536458,0.86557 1.6536458,0.99897 0,0.13341 -0.6842586,0.55582 -1.5205748,0.9387 -2.0923307,0.9579 -2.5727641,1.48726 -3.3944115,3.74007 -0.391679,1.07392 -0.818206,1.95258 -0.947836,1.95258 -0.129631,0 -0.340216,-0.27492 -0.467967,-0.61093 z"
       id="path18" /><path
       style="fill:#000000"
       d="m 5.4893995,191.76842 c -0.2695893,-0.43621 -0.2400765,-15.42839 0.030905,-15.69937 0.1480747,-0.14808 0.6111531,-0.23016 1.0290631,-0.1824 0.7227298,0.0826 0.758962,0.1492 0.7419329,1.36398 l -0.017904,1.27715 1.4731118,-0.16565 c 1.7462327,-0.19636 3.5456947,0.27651 5.0687427,1.33198 1.192222,0.82621 2.716069,0.90991 4.853647,0.26659 1.43317,-0.43132 1.737181,-0.36417 1.737181,0.38371 0,0.69884 -0.938313,1.53102 -2.599196,2.3052 l -1.408571,0.65657 0.574533,0.61156 c 0.315993,0.33636 1.107942,0.76906 1.759887,0.96155 2.366227,0.69867 2.217096,1.49816 -0.40638,2.1786 -2.23131,0.57873 -3.861868,0.42203 -5.48075,-0.5267 -1.110817,-0.65098 -2.804377,-0.82505 -4.577284,-0.47047 l -0.8268229,0.16536 -0.00361,2.28204 c -0.00483,3.04833 -0.135566,3.47265 -1.0699644,3.47265 -0.411002,0 -0.8063355,-0.0956 -0.8785189,-0.21235 z"
       id="path17" /><path
       style="fill:#000000"
       d="m -12.059588,198.00684 c -0.412854,-0.61472 -1.164864,-1.39578 -1.671134,-1.73569 -0.50627,-0.3399 -0.9558,-0.71678 -0.998955,-0.8375 -0.04315,-0.12072 0.355216,-0.48752 0.885268,-0.81511 0.530052,-0.32759 1.319714,-1.17417 1.754804,-1.88128 0.43509,-0.70711 0.830179,-1.28565 0.877975,-1.28565 0.0478,0 0.442886,0.57854 0.877975,1.28565 0.4350902,0.70711 1.219209,1.55026 1.7424866,1.87367 0.5232775,0.3234 0.9514137,0.68559 0.9514137,0.80487 0,0.11928 -0.4200083,0.46468 -0.9333517,0.76756 -0.5133434,0.30288 -1.2574841,1.08478 -1.6536456,1.73756 -0.396162,0.65278 -0.801722,1.19064 -0.901244,1.19524 -0.09952,0.005 -0.518739,-0.49459 -0.931592,-1.10932 z"
       id="path16" /><path
       style="fill:#000000"
       d="m 191.5915,203.784 c 0,-0.0567 0.48522,-1.08562 1.07827,-2.28658 1.65579,-3.35309 2.85932,-7.24772 3.2103,-10.38861 0.26512,-2.37248 0.2454,-3.07826 -0.14271,-5.10764 -1.23053,-6.43437 -5.78453,-11.31388 -11.48805,-12.3092 l -1.65364,-0.28857 v -13.86236 -13.86235 h -1.13771 c -1.23253,0 -1.77271,-0.3474 -1.77271,-1.14005 0,-0.5601 2.45839,-8.85141 6.21252,-20.95266 1.35433,-4.36563 2.84199,-9.18766 3.30592,-10.71563 1.31484,-4.33053 1.92518,-4.51204 2.97724,-0.88538 0.37344,1.28733 2.10907,7.10309 3.85696,12.92393 4.50555,15.00441 5.87236,19.60941 5.87236,19.78491 0,0.50065 -0.96352,0.98488 -1.95974,0.98488 h -1.12819 l -0.17583,20.68122 c -0.0967,11.37467 -0.17582,24.47154 -0.17582,29.10416 v 8.42295 h -3.43959 c -1.89177,0 -3.43958,-0.0464 -3.43958,-0.10302 z m 1.79328,-51.43759 0.0735,-3.78332 -0.78074,-0.78074 c -1.03664,-1.03664 -2.6477,-1.09521 -3.6116,-0.13131 -0.63211,0.63211 -0.64943,0.75587 -0.64943,4.64013 v 3.99071 l 2.44739,-0.0761 2.4474,-0.0761 z"
       id="path15" /><path
       style="fill:#000000"
       d="m 27.020663,203.35786 v -6.35 h -1.29052 c -2.125998,0 -2.127096,-0.0953 -0.066,-5.72207 6.587981,-17.98527 9.849408,-26.85304 10.818621,-29.41568 0.0737,-0.19486 0.43249,-0.31003 0.824302,-0.26459 0.81628,0.0947 0.846855,0.16712 5.958587,14.1207 6.098934,16.64836 7.336661,20.22937 7.171683,20.74917 -0.126078,0.39723 -0.455667,0.52281 -1.535994,0.58526 l -1.375472,0.0795 -0.07093,6.28385 -0.07093,6.28386 H 43.816916 40.24983 v -4.25866 c 0,-4.66562 -0.167674,-5.31159 -1.59804,-6.15652 -0.914733,-0.54035 -1.903678,-0.55102 -2.908538,-0.0314 -1.3799,0.71358 -1.578839,1.49481 -1.578839,6.20009 v 4.24648 h -3.571875 -3.571875 z"
       id="path14" /><path
       style="fill:#000000"
       d="m 160.52427,239.80421 c -0.20153,-0.70626 -1.2885,-6.17693 -1.31559,-6.62133 -0.0214,-0.35186 0.63546,-0.75555 2.61719,-1.60835 1.45521,-0.62622 3.64259,-1.69475 4.86085,-2.3745 1.21825,-0.67976 2.31958,-1.23592 2.44739,-1.23592 0.12782,0 0.23239,1.0753 0.23239,2.38955 0,2.60653 0.154,2.86767 1.40958,2.39029 l 0.70709,-0.26883 0.004,-3.1154 0.004,-3.11541 2.70439,-1.98437 c 2.25645,-1.6557 10.78169,-9.72108 10.78169,-10.20012 0,-0.0794 0.77696,-1.22642 1.72659,-2.54892 0.94963,-1.32251 2.10993,-3.04546 2.57845,-3.82877 l 0.85185,-1.4242 5.4252,0.0713 5.4252,0.0713 0.073,4.0349 c 0.0796,4.3953 -0.0608,4.04299 1.64676,4.13251 l 0.66146,0.0347 0.0682,-16.33802 0.0682,-16.33802 h -1.27202 c -0.69961,0 -1.4149,-0.14288 -1.58952,-0.3175 -0.64274,-0.64275 -1.1254,1.08757 6.73832,-24.15646 1.81324,-5.82084 3.44342,-10.73333 3.62263,-10.91665 0.81884,-0.83766 1.13984,0.0585 7.84326,21.89686 4.28794,13.96922 4.2277,13.49375 1.70961,13.49375 h -1.4459 v 29.10416 29.10417 H 208.26062 197.4127 l -0.0423,-2.71198 c -0.0233,-1.49159 -0.0664,-3.54542 -0.0958,-4.56406 -0.0954,-3.3053 -1.62844,-6.14597 -3.91378,-7.25229 -2.25774,-1.09295 -4.56125,-0.51163 -6.37661,1.60921 -1.46483,1.71133 -1.74226,3.03885 -1.74226,8.33693 v 4.58219 h -12.31143 c -9.62242,0 -12.33204,-0.0722 -12.4058,-0.33073 z m 52.76306,-15.5563 c 0,-2.75006 -0.0383,-2.96075 -0.64943,-3.57187 -0.82241,-0.82241 -1.76118,-0.82629 -2.70925,-0.0112 -0.70237,0.60386 -0.74731,0.77524 -0.83427,3.18162 -0.0505,1.39886 -0.0245,2.719 0.0578,2.93363 0.11364,0.29615 0.63027,0.39026 2.14243,0.39026 h 1.99268 z m -18.31079,-11.56392 c 0.0708,-1.74707 0.0186,-1.97777 -0.58329,-2.57969 -0.84947,-0.84946 -1.56582,-0.83799 -2.25338,0.0361 -0.44276,0.56288 -0.54837,1.07488 -0.54837,2.65846 v 1.96132 l 1.65364,-0.0788 1.65365,-0.0788 z m 18.78374,-22.42301 c 0.0418,-2.03729 0.009,-3.97508 -0.0729,-4.30621 -0.41616,-1.68213 -2.722,-2.25945 -3.98397,-0.99748 -0.63321,0.63321 -0.64943,0.75104 -0.64943,4.7184 0,2.23793 0.0868,4.15573 0.19281,4.26178 0.10604,0.10604 1.14784,0.15565 2.3151,0.11024 l 2.1223,-0.0826 z"
       id="path13" /><path
       style="fill:#000000"
       d="m 20.141496,231.80056 v -8.33437 h -0.873125 c -0.480219,0 -1.016,-0.14288 -1.190625,-0.3175 -0.228776,-0.22878 -0.3175,-2.04023 -0.3175,-6.48229 v -6.16479 h 2.645833 2.645834 v 2.60987 2.60987 l 1.124479,0.14143 c 2.403693,0.30234 2.43769,0.27528 2.524671,-2.00893 l 0.07728,-2.02933 h 4.222204 4.222204 v 1.98438 1.98437 h 1.852083 1.852084 v -1.98437 -1.98438 h 4.233333 4.233334 v 1.98438 1.98437 h 1.852083 1.852083 v -2.64583 -2.64583 h 2.645834 2.645833 v 6.32169 c 0,6.86022 0.04832,6.64289 -1.476848,6.64289 h -0.639819 l -0.03133,8.13594 c -0.01723,4.47476 -0.01723,8.22523 0,8.33437 0.01723,0.10914 -2.498746,0.1977 -5.591063,0.1968 l -5.622396,-0.002 -0.03753,-4.52222 c -0.03673,-4.42579 -0.05378,-4.55411 -0.799701,-6.01764 -0.901021,-1.76783 -2.651113,-3.0909 -4.444181,-3.35979 -2.37768,-0.35655 -4.964757,1.54452 -5.921418,4.35126 -0.183172,0.5374 -0.306548,2.6405 -0.306548,5.22552 v 4.32614 h -5.688541 -5.688542 z"
       id="path12" /><path
       style="fill:#000000"
       d="m -1.8788192,235.57088 -0.072394,-4.56407 -0.8732205,0.0875 c -1.4599688,0.14627 -1.6403212,-0.21473 -1.6403212,-3.28329 v -2.73414 l 1.9182292,-0.0777 1.91822917,-0.0777 0.0736123,-3.63802 0.0736123,-3.63802 H -1.5551754 c -1.274228,0 -1.5390602,-0.42592 -1.1356588,-1.82644 0.3175629,-1.10251 7.2940441,-20.4025 7.8943943,-21.83934 0.4393467,-1.05151 1.0322787,-1.42757 1.6432156,-1.0422 0.2154283,0.13589 0.8600014,1.55382 1.4323847,3.15096 5.7925076,16.16303 7.3834526,20.85007 7.1548426,21.07868 -0.140534,0.14053 -0.749438,0.32176 -1.35312,0.40273 l -1.097604,0.14722 0.07338,3.60221 0.07338,3.60222 1.91823,0.0777 1.918229,0.0777 v 2.89883 2.89882 h -0.772111 c -1.640741,0 -1.609139,-0.0941 -1.609139,4.79081 v 4.46961 H 6.3894101 -1.8064256 Z m 9.8494815,-2.16781 c 0,-1.73516 -0.069935,-2.01836 -0.5880382,-2.38125 -0.7676641,-0.5377 -2.0231005,-0.52529 -2.6322743,0.026 -0.3850892,0.3485 -0.4838543,0.83457 -0.4838543,2.38125 v 1.94337 h 1.8520834 1.8520834 z m 0,-11.24479 c 0,-2.69211 -0.041291,-2.92434 -0.5880382,-3.3073 -0.3234209,-0.22653 -0.9517725,-0.41187 -1.3963369,-0.41187 -0.4445643,0 -1.0729159,0.18534 -1.3963369,0.41187 -0.5467469,0.38296 -0.5880381,0.61519 -0.5880381,3.3073 v 2.89541 h 1.984375 1.9843751 z"
       id="path11" /><path
       style="fill:#000000"
       d="m 93.827956,247.7014 c -0.727605,-0.19333 -3.168386,-0.83367 -5.423959,-1.42299 -10.593498,-2.76777 -16.123572,-6.17721 -18.814624,-11.59973 -1.726423,-3.47878 -1.618034,-7.34265 0.313433,-11.17336 2.980717,-5.91171 8.964502,-10.28025 16.708505,-12.19827 l 2.308356,-0.57173 2.983242,0.96442 c 2.383236,0.77045 8.142001,2.24145 8.774961,2.24145 0.074,0 -0.038,0.41289 -0.24883,0.91754 -0.491245,1.17571 -0.484626,3.09544 0.0164,4.74691 0.54099,1.7833 0.51289,1.9334 -0.455651,2.43426 l -0.849664,0.43937 2.224555,0.78316 c 4.6935,1.65236 7.39931,4.33003 8.62786,8.53813 0.85739,2.93678 0.44204,7.45587 -0.93298,10.15114 -0.97666,1.9144 -3.09199,3.92521 -5.25342,4.99383 -1.97223,0.97508 -2.077,0.99573 -5.333488,1.05099 -2.09895,0.0356 -3.808728,-0.073 -4.644656,-0.29512 z"
       id="path10" /><path
       style="fill:#000000"
       d="m 108.64308,270.11174 c -2.83523,-1.77282 -8.807115,-4.73811 -12.123924,-6.02003 -3.240329,-1.25236 -8.429585,-2.62928 -11.51938,-3.05657 -1.071958,-0.14823 -2.039329,-0.32534 -2.149715,-0.39356 -0.690832,-0.42696 -1.237864,-9.9791 -0.695286,-12.1409 0.21735,-0.86599 -0.166484,-0.90022 4.794014,0.42747 6.935318,1.85626 9.240313,2.31929 11.54558,2.31929 4.115021,0 7.163291,-1.18023 10.027991,-3.88265 2.06847,-1.95129 3.73383,-4.96336 4.20708,-7.60917 0.60874,-3.40333 0.18619,-7.26719 -1.06238,-9.71458 -0.27989,-0.54864 -0.50864,-1.15109 -0.50832,-1.33879 3.2e-4,-0.1877 0.53416,-0.69846 1.18632,-1.13502 0.79836,-0.53442 1.13511,-0.92341 1.03074,-1.19062 -0.0853,-0.21828 -0.28915,-1.08149 -0.45311,-1.91823 -0.28919,-1.47587 -0.3236,-1.52136 -1.15115,-1.52136 -1.15195,0 -2.20088,-0.5123 -2.20088,-1.07492 0,-0.56784 1.17128,-1.01118 2.25229,-0.85253 0.78917,0.11583 0.79636,0.1053 1.13037,-1.65545 0.38926,-2.05199 0.57379,-1.79386 -2.5822,-3.61209 -2.34161,-1.34905 -5.79981,-2.57985 -7.28275,-2.59198 -1.42062,-0.0116 -8.33929,-2.3573 -11.729586,-3.97675 -8.523029,-4.07122 -13.148629,-9.46356 -15.428823,-17.98628 -0.782444,-2.92455 -0.962819,-9.26543 -0.372559,-13.09687 0.901114,-5.84924 4.093259,-13.52351 7.752214,-18.63718 3.361928,-4.69857 8.463662,-9.46698 12.60895,-11.78516 1.600226,-0.8949 1.645418,-0.90349 2.749338,-0.52316 2.959036,1.01947 10.137536,1.70789 17.781926,1.7053 8.15823,-0.003 14.8598,-0.79295 19.53785,-2.30373 l 2.20764,-0.71296 1.49651,0.78261 c 4.03261,2.10889 9.03067,6.04684 11.88802,9.36652 4.78256,5.55639 8.27111,12.72405 9.47226,19.46192 0.55485,3.11249 0.62802,8.69731 0.14732,11.2448 -1.09532,5.80464 -4.36254,11.62669 -8.84387,15.75939 -1.04872,0.96714 -3.8713,3.04796 -6.2724,4.62404 -2.40109,1.57608 -4.60375,3.05857 -4.89479,3.29442 -0.50443,0.40876 -0.47769,0.42325 0.57201,0.31003 2.47502,-0.26697 7.82699,-3.10674 11.94142,-6.33616 5.27688,-4.14182 8.53958,-7.53783 13.43031,-13.97901 2.6776,-3.52645 2.85358,-3.83647 3.27191,-5.76411 0.80279,-3.69929 2.786,-5.8461 5.40058,-5.8461 0.46606,0 1.26199,-0.27995 1.76871,-0.62211 1.48843,-1.00504 2.7774,-1.30539 5.03998,-1.17442 3.94427,0.22833 6.99348,2.44777 8.92762,6.49818 l 0.97663,2.04522 -0.003,3.70417 c -0.003,3.49869 -0.0518,3.84359 -0.87442,6.21771 -1.09577,3.16231 -3.58192,8.10905 -5.71796,11.37708 -6.84253,10.46874 -17.29385,18.9589 -28.12193,22.84493 l -1.90943,0.68526 -0.39958,-0.57048 c -0.73397,-1.04788 -0.752,-0.24798 -0.0533,2.36472 2.66207,9.95477 3.0781,18.32117 1.32271,26.60005 l -0.43478,2.05052 -2.40912,7.5e-4 c -8.43849,0.003 -18.2339,3.20395 -27.38915,8.95132 l -2.49045,1.56342 -1.21372,-0.56139 c -1.08513,-0.50191 -1.67628,-0.56041 -5.57935,-0.55217 -3.82559,0.008 -4.5131,0.0763 -5.55779,0.55185 l -1.19216,0.54264 z m 12.17797,-13.92218 c 1.60902,-1.60902 1.39445,-4.07375 -0.45269,-5.19992 -2.76756,-1.68733 -6.06853,1.34803 -4.58527,4.21633 0.63581,1.22952 1.64763,1.8623 2.97784,1.8623 0.98528,0 1.32728,-0.14587 2.06012,-0.87871 z M 120.52048,243.022 c 1.49573,-1.17654 1.86913,-2.91621 0.94965,-4.42434 -1.06206,-1.74198 -3.46994,-2.0625 -4.82483,-0.64224 -1.0187,1.06785 -1.31309,2.03508 -0.98748,3.24432 0.57557,2.13748 3.20786,3.12392 4.86266,1.82226 z m 15.49798,-12.31563 c 0.40291,-0.23801 0.9273,-0.76239 1.1653,-1.1653 0.56574,-0.95772 0.5633,-3.46198 -0.006,-5.72667 -0.4081,-1.62466 -0.40807,-1.86545 5.3e-4,-3.49396 0.67767,-2.70098 0.7777,-3.79396 0.45642,-4.98712 -0.40543,-1.50564 -1.33411,-2.18588 -2.98424,-2.18588 -2.87324,0 -10.26357,3.33432 -10.26357,4.63065 0,0.20371 0.12893,0.97156 0.28651,1.70633 l 0.28651,1.33594 h 1.10983 c 1.08995,0 2.2859,0.56862 2.2859,1.08683 0,0.3679 -1.67827,1.02983 -2.61104,1.02983 -0.72721,0 -0.792,0.0872 -1.03158,1.38907 -0.14059,0.76398 -0.3417,1.59206 -0.44691,1.84018 -0.31978,0.75416 3.21181,2.79149 7.52911,4.34345 2.03626,0.73199 3.22299,0.78725 4.2228,0.19665 z m -14.80613,-3.73486 c 1.31619,-0.65751 1.64472,-1.842 1.53951,-5.55053 -0.0806,-2.84084 -0.11642,-3.00333 -0.81615,-3.70239 -0.65403,-0.65341 -0.94943,-0.73944 -2.77812,-0.80904 -3.43519,-0.13075 -4.29519,0.81162 -4.29335,4.70456 0.002,3.35642 0.58622,4.99923 1.98249,5.5707 0.95589,0.39125 3.39391,0.27212 4.36562,-0.2133 z m 2.64583,-18.08941 c 5.37954,-1.3467 9.76765,-4.91637 11.67628,-9.49852 0.51704,-1.24128 0.60504,-1.92512 0.61215,-4.75697 0.007,-2.8133 -0.0793,-3.52465 -0.57814,-4.7625 -0.74432,-1.84699 -3.08572,-4.79641 -4.89159,-6.16182 -1.96626,-1.4867 -5.20562,-2.99795 -7.53865,-3.517 -2.9557,-0.65758 -8.24492,-0.41098 -10.85429,0.50606 -3.27223,1.15 -5.08425,2.26493 -7.36699,4.53288 -3.14237,3.12203 -4.35207,5.9216 -4.33563,10.0338 0.0241,6.03631 4.43969,11.41241 10.98977,13.38046 3.80689,1.14382 8.33262,1.23355 12.28709,0.24361 z M 99.16037,184.59094 c 2.41533,-1.09671 3.39919,-4.81994 1.94851,-7.37376 -0.83785,-1.47497 -1.973874,-2.16974 -3.547753,-2.16974 -1.070138,0 -1.382734,0.13945 -2.386312,1.06451 -2.099102,1.93489 -2.318135,5.25629 -0.489913,7.42901 0.739039,0.8783 1.952972,1.5368 2.84722,1.54448 0.291042,0.002 1.023753,-0.22003 1.628248,-0.4945 z m 42.38641,-0.56106 c 3.8441,-2.84207 1.28353,-10.17264 -3.13748,-8.98219 -1.06593,0.28703 -2.47294,1.61414 -2.89324,2.72895 -0.71175,1.88786 -0.11636,4.84776 1.21783,6.05426 1.27756,1.1553 3.40067,1.24308 4.81289,0.19898 z"
       id="path9" /><path
       style="fill:#000000"
       d="m 113.63394,199.10045 c -1.06561,-0.30876 -3.48824,-2.47919 -3.69738,-3.31247 -0.17877,-0.71224 0.27294,-1.42596 0.90248,-1.42596 0.22541,0 0.91597,0.52824 1.53458,1.17386 1.37978,1.44001 2.85657,1.97717 4.06251,1.47765 l 0.80745,-0.33446 v -3.00705 -3.00706 l -0.87914,-0.36733 c -1.3113,-0.5479 -2.75333,-1.92812 -3.09449,-2.96187 -0.43958,-1.33194 0.2837,-2.69858 1.85696,-3.50871 1.04968,-0.54052 1.48881,-0.60235 3.70938,-0.52226 2.87599,0.10372 4.18236,0.6734 4.76394,2.07744 0.68409,1.65156 -0.72306,3.88971 -3.05921,4.86581 l -0.91619,0.38281 v 2.90892 c 0,2.70605 0.041,2.93764 0.58804,3.32079 0.32342,0.22653 0.86394,0.41188 1.20116,0.41188 0.96236,0 2.61018,-0.96445 3.38625,-1.98193 1.22957,-1.61205 2.96925,-0.9286 2.06829,0.81255 -1.34423,2.59782 -5.07428,4.02387 -7.64061,2.9211 -0.65174,-0.28005 -0.94609,-0.27792 -1.64515,0.0119 -0.95767,0.39708 -2.70244,0.42551 -3.94887,0.0644 z"
       id="path8" /><path
       style="fill:#000000"
       d="m 112.48545,289.67776 c -0.68867,-0.34566 -1.05565,-0.79706 -1.45161,-1.78553 -0.46387,-1.15803 -0.52955,-1.93298 -0.52698,-6.21771 0.003,-5.42706 0.232,-6.55095 1.52959,-7.51535 0.67022,-0.49812 1.17193,-0.56298 4.93944,-0.63849 4.98297,-0.0999 5.54353,0.076 6.44244,2.02107 0.51803,1.12092 0.57179,1.6758 0.5686,5.86819 -0.004,5.4714 -0.39187,7.08459 -1.95383,8.12971 -0.83278,0.55722 -1.18371,0.60151 -4.7625,0.60113 -3.1498,-3.4e-4 -4.03373,-0.0859 -4.78515,-0.46302 z"
       id="path7" /><path
       style="fill:#000000"
       d="m 152.30087,295.55021 c -5.72834,-0.89458 -16.20628,-3.47517 -22.59311,-5.56442 -2.38527,-0.78027 -4.37786,-1.45967 -4.42797,-1.50978 -0.0501,-0.0501 0.0837,-0.91634 0.29737,-1.92494 0.42596,-2.01073 0.5163,-7.78462 0.14875,-9.50675 -0.12423,-0.58209 -0.30611,-1.41553 -0.40418,-1.85209 -0.17257,-0.76825 -0.0991,-0.84337 2.28792,-2.33859 8.79914,-5.51178 19.17559,-8.86713 26.56201,-8.58914 6.60034,0.2484 7.60689,2.30992 6.21471,12.72831 -0.2824,2.11337 -0.58747,6.08515 -0.67792,8.82617 -0.22213,6.73136 -0.67093,8.67019 -2.18653,9.44582 -1.17002,0.59877 -2.68438,0.68155 -5.22105,0.28541 z M 134.4188,283.24217 c 1.60623,-0.34447 2.94257,-1.19967 3.41733,-2.18693 0.30146,-0.62689 0.29162,-0.82386 -0.0686,-1.37368 -1.22248,-1.86575 -5.27461,-2.19778 -8.93717,-0.73231 -1.34843,0.53953 -1.27448,0.87965 0.12107,0.55681 1.82604,-0.42241 4.63925,-0.12447 5.31695,0.56312 l 0.57003,0.57835 -0.73194,0.63683 c -0.83489,0.7264 -2.62585,1.31756 -4.82351,1.59214 -0.99435,0.12423 -1.38782,0.26606 -1.15226,0.41533 0.50789,0.32184 4.71067,0.28865 6.28814,-0.0497 z"
       id="path6" /><path
       style="fill:#000000"
       d="m 76.630039,295.7093 c -1.602539,-0.26216 -2.244081,-0.73022 -2.857809,-2.08501 -0.502714,-1.10972 -0.577652,-1.91431 -0.743339,-7.98102 -0.104809,-3.83767 -0.377267,-8.11591 -0.63187,-9.92187 -0.265438,-1.88282 -0.407597,-4.20062 -0.349298,-5.69504 0.120749,-3.0952 0.582872,-4.03961 2.445793,-4.9983 1.11579,-0.5742 1.715834,-0.67653 4.513313,-0.76966 5.373356,-0.17889 10.549974,0.81569 16.9208,3.25097 3.328702,1.27241 9.646031,4.44246 12.100031,6.07182 l 1.45525,0.96624 -0.51669,1.51303 c -0.69335,2.03031 -0.7491,7.80864 -0.10091,10.45913 0.24242,0.99129 0.44077,1.85053 0.44077,1.90941 0,0.0589 -1.69664,0.64949 -3.77031,1.31246 -7.234586,2.31298 -20.493932,5.38386 -25.201565,5.83672 -0.873125,0.084 -1.825625,0.18681 -2.116666,0.22849 -0.291042,0.0417 -1.005417,-0.002 -1.5875,-0.0974 z m 28.508851,-12.17908 c 1.58707,-0.006 1.14842,-0.42011 -0.81653,-0.77127 -2.36651,-0.42292 -4.541279,-1.42289 -4.541279,-2.08812 0,-0.28597 0.310519,-0.64298 0.727599,-0.83655 1.00604,-0.46692 3.67466,-0.64117 5.02709,-0.32826 1.39031,0.32168 1.47284,-0.0184 0.13229,-0.54514 -4.00623,-1.57415 -8.451633,-1.123 -9.173997,0.93103 -0.39183,1.11416 0.175318,1.98453 1.766923,2.71159 1.40728,0.64286 4.389744,1.2174 5.356554,1.03187 0.29104,-0.0558 0.97565,-0.10316 1.52135,-0.10515 z"
       id="path5" /><path
       style="fill:#000000"
       d="M 60.09358,304.99601 C 50.319655,301.06161 42.905786,297.15666 33.525787,291.00252 20.990009,282.77789 11.155553,274.00606 1.8584041,262.75682 -17.576252,239.24153 -29.500171,209.21387 -31.445558,178.88841 c -0.348161,-5.42726 -0.347976,-15.16591 3.73e-4,-19.72923 1.318371,-17.27043 5.92711,-35.12143 13.214216,-51.18255 C -7.408201,84.122751 9.6843423,63.281196 30.592538,48.444367 48.925258,35.435141 71.361696,26.444819 93.563372,23.211836 c 9.191608,-1.338471 11.454038,-1.490512 21.960418,-1.475788 10.79815,0.01513 14.72025,0.322499 23.5856,1.848345 35.95608,6.18853 68.59306,26.411285 90.93425,56.345336 5.65674,7.579231 10.00134,14.729315 14.46917,23.812501 12.35114,25.11012 17.56682,53.72524 14.66059,80.43333 -1.95681,17.98298 -6.89789,35.01623 -14.69793,50.66771 -14.40044,28.89584 -38.436,52.56683 -68.09751,67.06465 -6.57264,3.21255 -9.43563,4.36711 -9.60232,3.87237 -0.0682,-0.20251 -0.52466,-0.81163 -1.0143,-1.3536 l -0.89025,-0.9854 1.25552,-0.46665 c 2.01632,-0.74943 8.79638,-3.88604 8.7936,-4.06812 -0.004,-0.24179 -4.85825,-2.2319 -8.99329,-3.68677 -3.3495,-1.17849 -3.56792,-1.29746 -3.50835,-1.91087 0.035,-0.35978 0.21354,-2.39855 0.39688,-4.5306 l 0.33334,-3.87646 3.70417,1.12195 c 4.51345,1.36707 7.77441,2.53809 12.9718,4.65819 2.17884,0.88879 4.44066,1.80127 5.02627,2.02774 l 1.06474,0.41177 1.57911,-1.01015 1.57911,-1.01014 -2.48308,-1.14913 c -6.12832,-2.83609 -16.07778,-6.46609 -21.65713,-7.90148 -1.90806,-0.49088 -1.91841,-0.49838 -1.78671,-1.29479 1.07504,-6.50102 1.30474,-11.88542 0.60415,-14.16251 -0.59407,-1.93088 -1.7744,-3.48057 -3.24397,-4.2591 -0.83685,-0.44333 -1.15254,-0.75578 -1.0433,-1.03256 0.98126,-2.48637 1.829,-9.96061 1.628,-14.35365 l -0.14224,-3.10885 h 0.9011 0.90111 v 1.85208 1.85208 h 1.57541 1.57541 l 0.0782,-1.78593 0.0782,-1.78594 h 4.47828 4.47828 l -0.0647,1.78594 -0.0648,1.78593 h 1.72594 1.72593 l 0.0782,-1.78593 0.0782,-1.78594 4.56407,-0.0724 4.56406,-0.0724 v 1.85833 1.85833 h 1.7077 1.7077 l 0.0782,-1.78593 0.0782,-1.78594 4.56407,-0.0724 4.56406,-0.0724 v 1.85833 1.85833 h 1.71979 1.71979 v -1.85208 -1.85208 h 4.36563 4.36562 v 1.86471 1.8647 l 1.65365,-0.0788 c 1.08153,-0.0515 1.66509,-0.19319 1.68672,-0.4095 0.0182,-0.1819 0.048,-0.98838 0.0661,-1.79218 l 0.0331,-1.46146 4.55496,0.0724 4.55495,0.0724 0.009,1.71979 0.009,1.71979 1.64128,0.0785 1.64127,0.0785 0.0785,-1.79824 0.0785,-1.79824 3.75154,-0.0733 3.75154,-0.0733 0.94482,-1.68949 c 0.51965,-0.92922 0.94481,-1.75944 0.94481,-1.84493 0,-0.0855 -3.57187,-0.15545 -7.9375,-0.15545 h -7.9375 v -6.98315 c 0,-5.68136 0.0678,-7.00918 0.36384,-7.12277 0.25381,-0.0974 0.4213,-0.90607 0.55386,-2.67414 0.18067,-2.40982 0.21983,-2.53452 0.79593,-2.53452 0.7098,0 0.92139,0.57023 0.93264,2.51354 0.008,1.43138 0.38186,2.42894 0.64125,1.71237 0.0775,-0.2142 0.17324,-1.28242 0.21267,-2.37383 l 0.0717,-1.98438 3.96875,-0.13229 c 2.43523,-0.0812 3.94843,-0.23452 3.91616,-0.39687 -0.25858,-1.3011 -0.21403,-1.27872 -2.18189,-1.09583 -1.02661,0.0954 -2.7,0.096 -3.71865,0.001 l -1.85208,-0.17213 v -9.48701 -9.48701 h -1.02594 c -1.87886,0 -1.87263,-0.11981 0.36725,-7.06484 4.6889,-14.53854 7.84785,-23.8643 8.17584,-24.13651 0.25949,-0.21535 0.43246,-0.1914 0.6681,0.0925 0.17488,0.21071 1.56942,4.3496 3.09898,9.19753 1.52956,4.84793 3.60892,11.43379 4.6208,14.63525 1.01188,3.20146 1.80603,6.11849 1.76477,6.48229 -0.0668,0.58874 -0.21317,0.67033 -1.33178,0.7421 l -1.25677,0.0806 v 17.31571 c 0,9.52364 0.10235,17.31571 0.22745,17.31571 0.1251,0 1.15207,-2.05383 2.28215,-4.56406 7.57226,-16.82013 11.38646,-31.32159 13.13533,-49.94011 0.50206,-5.34492 0.42887,-18.51261 -0.13088,-23.54791 -2.14684,-19.31208 -6.86359,-35.76571 -14.84336,-51.77869 C 234.06796,89.88486 225.47484,77.927778 213.83372,66.28631 192.25129,44.703229 165.16939,30.87547 135.89671,26.492416 121.716,24.369112 109.64281,24.370367 94.820168,26.496684 77.382434,28.998138 61.260303,34.388825 45.755254,42.902306 8.4019174,63.412201 -18.514899,101.28736 -26.301827,144.29519 c -1.865072,10.30094 -2.356855,16.71705 -2.159771,28.17768 0.173907,10.11278 0.742061,15.40098 2.707062,25.19644 2.556977,12.74646 7.647982,27.11203 13.549119,38.2323 3.1578526,5.95074 8.0692353,13.98907 8.5628666,14.0146 0.08841,0.005 0.2341484,-0.69396 0.3238625,-1.5523 0.1204333,-1.15224 0.054371,-1.7786 -0.2524605,-2.39366 -0.2445198,-0.49015 -0.3472946,-1.1051 -0.2496875,-1.494 0.1589553,-0.63333 0.2402039,-0.65769 1.9437978,-0.5829 l 1.77790854,0.078 0.13229167,0.90161 c 0.11521142,0.78521 0.23477318,0.90628 0.92604169,0.93771 0.4365625,0.0198 1.0545133,0.12589 1.373224,0.23566 0.5306158,0.18275 0.5863864,0.10369 0.6614583,-0.9377 l 0.081984,-1.13728 4.5640626,-0.0724 4.5640633,-0.0724 v 1.87096 1.87095 l 1.653646,-0.0788 1.653645,-0.0788 0.07837,-1.79199 0.07837,-1.79199 4.646804,0.0722 4.646804,0.0722 0.03732,1.71979 0.03732,1.71979 1.785937,0.0782 1.785938,0.0782 v -1.87042 -1.87042 l 4.564062,0.0724 4.564063,0.0724 0.07851,1.79824 0.07852,1.79824 1.641277,-0.0785 1.641276,-0.0785 v -1.71979 -1.71979 l 4.564063,-0.0724 4.564062,-0.0724 v 1.85833 1.85833 h 1.719792 1.719792 v -1.85208 -1.85208 h 4.497917 4.497916 v 1.85208 1.85208 h 1.575412 1.575411 l 0.07823,-1.78593 0.07824,-1.78594 h 3.704167 3.704166 l 0.07823,1.78594 0.07824,1.78593 h 1.575411 1.575411 v -0.91519 -0.91519 l 1.124479,0.48428 c 0.821276,0.3537 1.104664,0.61831 1.050989,0.98134 -0.04042,0.27338 -0.146311,2.23342 -0.235312,4.35564 -0.144604,3.44806 0.105552,7.07488 0.605264,8.77527 0.113298,0.38552 -0.038,0.46302 -0.903977,0.46302 -2.765635,0 -5.912454,1.13266 -7.41948,2.67054 -1.255007,1.28071 -1.839158,2.5575 -2.182488,4.77032 -0.311904,2.01027 -0.245805,3.33126 0.457954,9.15228 0.232483,1.92295 0.35253,3.67912 0.266771,3.90261 -0.08576,0.22348 -0.399303,0.40633 -0.696765,0.40633 -1.093561,0 -11.1118,2.71146 -15.618475,4.22717 -3.90517,1.31341 -13.118402,4.83741 -13.410366,5.12938 -0.138482,0.13848 3.003023,2.02054 3.372658,2.02054 0.181748,0 2.366458,-0.78928 4.854912,-1.75396 2.488453,-0.96468 5.953211,-2.22049 7.699461,-2.79069 3.364617,-1.09865 11.444063,-3.29154 13.107068,-3.55746 l 0.990253,-0.15835 0.115228,4.06408 c 0.06338,2.23525 0.165697,4.22048 0.227382,4.41164 0.07867,0.24378 -1.388782,0.84496 -4.914931,2.01353 -2.764896,0.9163 -5.80099,1.99657 -6.746875,2.40061 -0.945886,0.40403 -2.132005,0.90908 -2.63582,1.12232 l -0.916029,0.3877 2.106654,0.98972 c 1.158659,0.54435 3.654466,1.5682 5.546237,2.27522 1.89177,0.70702 3.487525,1.31939 3.546121,1.36082 0.05859,0.0414 -0.193179,0.31108 -0.559499,0.59923 -0.36632,0.28815 -0.81566,0.88513 -0.998533,1.32662 -0.182873,0.4415 -0.407349,0.80159 -0.498835,0.80021 -0.09149,-10e-4 -1.892744,-0.69746 -4.002796,-1.54684 z m 132.35781,-28.08037 11.84011,-0.004 -0.003,-4.43177 c -0.003,-4.87208 -0.24402,-6.24716 -1.56087,-8.92207 -1.48097,-3.00827 -4.81796,-5.7455 -8.08133,-6.62885 -2.15885,-0.58437 -5.18242,-0.42204 -7.34746,0.39448 -3.25585,1.2279 -6.40266,4.37428 -7.61464,7.6136 -0.86423,2.30985 -1.05714,3.77386 -1.05714,8.02258 0,4.21178 0.0455,4.33896 1.4552,4.06289 0.29105,-0.057 5.85722,-0.10526 12.36927,-0.10724 z M 50.299402,273.274 c -0.0055,-4.36338 -0.430334,-6.627 -1.74513,-9.29868 -1.70244,-3.45937 -5.238427,-6.32105 -8.833609,-7.14906 -6.79246,-1.56438 -13.992335,2.84905 -15.844243,9.71232 -0.458157,1.69795 -0.559924,2.82923 -0.559924,6.22427 v 4.14917 h 13.49375 13.49375 z m -39.212,-15.90453 c 0.04986,-2.38102 -0.02551,-3.6552 -0.230835,-3.90261 -0.215515,-0.25968 -0.9517678,-0.36734 -2.5121175,-0.36734 -1.9114565,0 -2.2439571,0.0686 -2.4811449,0.51178 -0.3038801,0.5678 -0.3819346,6.9649 -0.088562,7.25828 0.1019316,0.10193 1.3223222,0.15154 2.7119792,0.11024 l 2.5266492,-0.0751 z m 209.550758,-0.39596 c 0.0497,-2.08698 -0.0275,-3.26078 -0.23083,-3.50573 -0.21033,-0.25343 -0.91136,-0.36826 -2.24829,-0.36826 -1.64987,0 -1.98395,0.0771 -2.21656,0.51178 -0.30468,0.56928 -0.38093,6.17217 -0.088,6.4651 0.10225,0.10225 1.20358,0.15186 2.4474,0.11025 l 2.26148,-0.0757 z M 65.385247,256.56372 c 0,-1.84771 -0.110146,-2.93934 -0.3175,-3.1467 -0.182803,-0.1828 -1.058334,-0.3175 -2.06375,-0.3175 -1.005417,0 -1.880947,0.1347 -2.06375,0.3175 -0.207594,0.2076 -0.3175,1.30281 -0.3175,3.16387 v 2.84637 l 2.05052,0.0773 c 1.127787,0.0425 2.199349,0.0348 2.38125,-0.0172 0.238075,-0.068 0.33073,-0.88705 0.33073,-2.92364 z m 104.973443,2.74106 c 0.45228,-0.14118 0.46418,-5.4368 0.0132,-5.88776 -0.17755,-0.17754 -1.02894,-0.3175 -1.93146,-0.3175 -0.90253,0 -1.75392,0.13996 -1.93146,0.3175 -0.45102,0.45103 -0.43917,5.93828 0.0132,6.12468 0.33044,0.13615 3.21119,-0.0417 3.83646,-0.23692 z m 64.56937,-29.07641 c 0.0864,-2.64929 -0.19664,-3.64042 -1.16585,-4.08203 -0.96618,-0.44021 -1.37609,-0.37174 -2.09836,0.35053 -0.60775,0.60775 -0.64943,0.82926 -0.64943,3.45118 v 2.80174 l 1.91823,-0.0777 1.91822,-0.0777 z m 0.58427,-23.31899 v -3.59223 l -0.80435,-0.80435 c -0.67255,-0.67255 -0.94351,-0.77765 -1.65364,-0.64139 -0.46712,0.0896 -1.11719,0.46739 -1.44461,0.83946 -0.5543,0.62988 -0.59531,0.92158 -0.59531,4.23362 v 3.55712 h 2.24895 2.24896 z"
       id="path4" /><path
       style="fill:#000000"
       d="m 103.86879,316.73322 c -2.04462,-0.1773 -4.295455,-0.40902 -5.001855,-0.51496 l -1.284364,-0.1926 1.438456,-1.43845 1.438453,-1.43846 4.20121,0.40247 c 7.1192,0.68201 16.66765,0.51908 24.96821,-0.42604 l 2.72802,-0.31062 1.3065,1.28686 c 0.94843,0.93417 1.21032,1.34069 0.95555,1.48326 -0.44524,0.24917 -6.11415,0.92077 -10.74755,1.27328 -4.6231,0.35172 -15.27386,0.2853 -20.00263,-0.12474 z"
       id="path3" /><path
       style="fill:#000000"
       d="m 144.43611,319.18842 c -9.03271,-6.87767 -15.20877,-14.02986 -19.22571,-22.26435 -0.86152,-1.76605 -1.7547,-3.71535 -1.98485,-4.33176 -0.41313,-1.10649 -0.41019,-1.12618 0.23086,-1.54621 0.62228,-0.40774 0.81941,-0.35816 4.73643,1.19112 2.24791,0.88912 6.38917,2.2764 9.20278,3.08285 4.88698,1.40073 13.35398,3.2818 14.79024,3.28587 1.24478,0.004 11.62439,7.72301 11.62439,8.64524 0,0.65853 -1.24037,1.07568 -6.48229,2.18008 -2.91042,0.61319 -5.5439,1.21705 -5.85219,1.34192 -0.58006,0.23496 -0.73796,0.70428 -2.49437,7.41384 -0.94625,3.61472 -1.07567,3.64323 -4.54529,1.0014 z"
       id="path2" /><path
       style="fill:#000000"
       d="m 84.016066,321.26701 c -0.07589,-0.19777 -0.707461,-2.54926 -1.403483,-5.22552 l -1.265493,-4.86592 -2.887693,-0.57854 c -10.908078,-2.18541 -11.335289,-2.32219 -10.738058,-3.43813 0.397852,-0.74339 4.97948,-4.21809 8.689633,-6.59021 2.424623,-1.5502 3.276059,-1.96083 4.06573,-1.96083 1.508432,0 8.971268,-1.4553 13.631844,-2.65829 4.752432,-1.2267 9.071594,-2.61564 13.161914,-4.23257 2.57211,-1.01676 2.9,-1.08941 3.26584,-0.72356 0.36585,0.36584 0.26276,0.70873 -1.02676,3.41523 -4.55219,9.55428 -11.572659,17.72646 -21.719733,25.28283 -2.547797,1.8973 -3.498025,2.29402 -3.773741,1.57551 z"
       id="path1" /></g></svg>
