<?xml version="1.0" encoding="UTF-8" standalone="no"?>
<!-- Created with Inkscape (http://www.inkscape.org/) -->

<svg
   width="323.37088mm"
   height="320.1871mm"
   viewBox="0 0 323.37088 320.1871"
   version="1.1"
   id="svg1"
   xml:space="preserve"
   sodipodi:docname="stamp_goal_bear_5.svg"
   inkscape:version="1.4.4 (dcaf3e7, 2026-05-05)"
   xmlns:inkscape="http://www.inkscape.org/namespaces/inkscape"
   xmlns:sodipodi="http://sodipodi.sourceforge.net/DTD/sodipodi-0.dtd"
   xmlns="http://www.w3.org/2000/svg"
   xmlns:svg="http://www.w3.org/2000/svg"><sodipodi:namedview
     id="namedview1"
     pagecolor="#ffffff"
     bordercolor="#000000"
     borderopacity="0.25"
     inkscape:showpageshadow="2"
     inkscape:pageopacity="0.0"
     inkscape:pagecheckerboard="0"
     inkscape:deskcolor="#d1d1d1"
     inkscape:document-units="mm"
     inkscape:zoom="0.021484833"
     inkscape:cx="605.07801"
     inkscape:cy="581.80578"
     inkscape:window-width="944"
     inkscape:window-height="250"
     inkscape:window-x="0"
     inkscape:window-y="33"
     inkscape:window-maximized="0"
     inkscape:current-layer="layer1"><inkscape:page
       x="0"
       y="0"
       width="323.37088"
       height="320.1871"
       id="page2"
       margin="0"
       bleed="0" /></sodipodi:namedview><defs
     id="defs1" /><g
     inkscape:label="Layer 1"
     inkscape:groupmode="layer"
     id="layer1"
     transform="translate(-86.997868,126.85)"><path
       style="fill:#000000"
       d="m 244.32968,192.64245 c -7.11836,-1.90488 -13.61039,-4.80767 -29.12825,-13.02413 -17.70031,-9.37203 -25.87223,-12.10205 -41.23789,-13.77648 -1.8795,-0.20481 -8.25201,-0.32676 -17.99045,-0.34429 l -15.08003,-0.0271 -0.32805,-0.64823 c -0.18042,-0.35653 -0.3298,-0.89193 -0.33194,-1.18978 -0.002,-0.29786 -0.24583,-1.66708 -0.54152,-3.04271 -2.2093,-10.27834 -6.03263,-17.54045 -12.66948,-24.0647 -5.51778,-5.42415 -12.57777,-9.53193 -19.73353,-11.48172 -1.45521,-0.39652 -2.91372,-0.83029 -3.24114,-0.96393 l -0.59532,-0.243 v -19.60141 c 0,-10.824687 -0.12257,-21.341412 -0.27374,-23.48744 C 102.01343,64.210865 97.296661,49.383591 88.892031,35.838201 L 86.99786,32.785444 88.854216,29.688036 C 96.61302,16.742144 101.37498,1.9603142 103.10615,-14.552082 c 0.38915,-3.711844 0.45923,-7.293348 0.46796,-23.915493 0.009,-17.102452 0.06,-19.575727 0.40714,-19.75643 0.21828,-0.113609 1.94469,-0.695863 3.83646,-1.293898 7.86432,-2.486101 16.1398,-7.895264 21.45687,-14.025011 5.52542,-6.369933 8.812,-13.291027 10.68485,-22.500836 0.31071,-1.527969 0.66944,-3.03478 0.79716,-3.348469 l 0.23223,-0.570344 17.81028,-0.126407 c 18.74427,-0.13304 19.43886,-0.17212 26.78247,-1.50673 5.74789,-1.04462 12.86677,-3.26023 18.94135,-5.89512 3.78921,-1.64361 9.09602,-4.29395 17.31745,-8.64875 15.53098,-8.22658 24.0655,-11.36525 28.81948,-10.59867 5.85171,0.94359 14.73942,4.68397 26.3589,11.09311 17.27351,9.52782 26.69785,12.92857 41.62096,15.01884 2.32306,0.32539 6.71898,0.45049 20.39525,0.58044 15.11261,0.143586 17.46187,0.218485 17.64387,0.562516 0.11548,0.218282 0.52555,1.885157 0.91128,3.704167 2.0699,9.761306 5.61783,16.775649 11.61838,22.969824 6.28824,6.491158 13.01996,10.784178 20.78828,13.25731 1.96402,0.625268 3.74954,1.226316 3.96782,1.335663 0.34751,0.174081 0.39787,2.729372 0.40489,20.542487 0.007,17.569433 0.0708,20.894585 0.46836,24.383524 1.88385,16.5321133 6.45159,30.696744 13.78557,42.749263 0.95994,1.577552 1.74535,3.102132 1.74535,3.387955 0,0.285823 -0.45371,1.197755 -1.00824,2.026515 -1.75991,2.630233 -3.40547,5.620133 -5.56394,10.109424 -4.77305,9.927231 -7.43547,19.217253 -8.94652,31.217205 -0.3779,3.001046 -0.47402,7.102556 -0.60148,25.664587 l -0.1517,22.09271 -1.19062,0.34492 c -7.55182,2.1878 -11.34449,3.83174 -15.89496,6.88969 -10.61561,7.13378 -16.90553,16.83914 -19.5521,30.1689 -0.41759,2.10324 -0.91226,3.9091 -1.1031,4.02705 -0.19031,0.11762 -5.23055,0.14399 -11.20053,0.0586 -27.79548,-0.39754 -39.981,2.14678 -58.61182,12.23808 -11.89524,6.443 -14.68102,7.89934 -18.424,9.63164 -8.14285,3.7686 -14.29149,5.75825 -18.48537,5.98171 -2.05432,0.10946 -2.78263,0.0195 -5.3047,-0.65544 z m 6.94105,-5.16807 c 6.12108,-1.28922 13.39765,-4.50638 28.26156,-12.49518 18.35087,-9.86291 28.25115,-13.18981 43.65626,-14.67031 1.74625,-0.16783 8.99647,-0.37887 16.1116,-0.46899 l 12.9366,-0.16385 0.60663,-2.70615 c 3.91163,-17.44938 16.09372,-30.85244 33.13966,-36.46114 l 2.95447,-0.97212 2.2e-4,-19.08863 c 1.2e-4,-10.629405 0.11765,-20.378398 0.2652,-21.999049 1.3756,-15.108508 5.64836,-29.183223 12.69148,-41.806468 l 2.14622,-3.846626 -1.67977,-3.10262 C 396.24678,18.400208 391.99851,5.6547949 390.25881,-6.614582 c -1.1382,-8.027281 -1.17114,-8.816941 -1.18021,-28.297584 l -0.009,-18.904875 -2.94457,-1.092376 c -6.04163,-2.241324 -11.62735,-5.456993 -16.37002,-9.424126 -8.42465,-7.047035 -13.81778,-15.686671 -16.65645,-26.683124 l -0.85375,-3.307292 -15.58657,-0.156538 c -12.25957,-0.123125 -16.32075,-0.250604 -19.02614,-0.597225 -15.05086,-1.928343 -25.38297,-5.600898 -43.2254,-15.364478 -11.35256,-6.21226 -17.18178,-8.83833 -22.42195,-10.10114 -2.56956,-0.61923 -2.99764,-0.65545 -4.42589,-0.37446 -4.73101,0.93077 -12.2575,4.22923 -23.834,10.44516 -18.0217,9.67665 -28.01467,13.300917 -42.0886,15.264776 -3.56968,0.498109 -5.59496,0.566275 -20.14146,0.677913 l -16.17271,0.124118 -0.8579,3.348229 c -3.38642,13.216435 -10.37538,23.054322 -21.69772,30.542402 -3.0055,1.987697 -7.95784,4.48873 -11.08386,5.597573 -1.07565,0.381548 -2.14721,0.800982 -2.38125,0.932074 -0.38472,0.215497 -0.42552,2.03489 -0.42552,18.976016 0,19.677286 -0.0641,21.054432 -1.33988,28.791832 -2.12147,12.8663245 -6.81737,26.379449 -12.749507,36.68857 l -1.314287,2.284024 1.30902,2.209536 c 4.964808,8.380264 9.047394,18.777944 11.412104,29.064746 2.25619,9.814721 2.54423,13.961842 2.54753,36.677521 l 0.003,18.81815 2.57969,0.85242 c 3.09093,1.02135 7.69,3.16773 10.75688,5.02021 5.94994,3.59394 10.94566,8.38852 14.99028,14.38676 3.45046,5.11707 5.50996,9.84251 7.2281,16.58452 l 0.84283,3.3073 13.74955,0.15529 c 14.64187,0.16537 17.59762,0.36899 24.99434,1.72186 10.60237,1.93919 20.04534,5.59531 34.925,13.52222 14.08812,7.50524 22.40623,11.2126 27.71373,12.35194 2.31278,0.49647 2.59913,0.49931 4.74658,0.047 z"
       id="path30" /><path
       style="fill:#000000"
       d="m 246.45645,180.98844 c -3.94331,-1.03438 -10.44156,-3.77615 -16.66582,-7.03172 -1.45521,-0.76114 -5.26521,-2.75526 -8.46667,-4.43138 -24.51521,-12.83494 -38.70806,-16.32788 -65.04555,-16.00809 l -6.04347,0.0734 -0.86259,-2.91042 c -4.40717,-14.86999 -14.40684,-26.90706 -27.45791,-33.05238 -1.64133,-0.77284 -3.81767,-1.68793 -4.83631,-2.03351 -1.01865,-0.34559 -1.8957,-0.65313 -1.949,-0.68342 -0.0533,-0.0303 -0.0786,-6.22256 -0.0563,-13.76059 0.0618,-20.847424 -0.58814,-28.192053 -3.56003,-40.231362 -2.17402,-8.807105 -4.67343,-15.577676 -8.75835,-23.725219 l -2.2452,-4.478149 1.44156,-2.797893 c 5.80014,-11.257377 9.83965,-23.9433825 11.8012,-37.0614357 1.05577,-7.0605773 1.14047,-8.7637093 1.26783,-25.4917583 l 0.1266,-16.628217 1.36272,-0.556723 c 2.7096,-1.106978 7.53576,-3.634177 9.84825,-5.156995 10.5913,-6.974563 18.74984,-17.627549 22.86693,-29.85842 l 1.17023,-3.476487 12.97511,-0.132104 c 13.85441,-0.141057 17.13527,-0.367301 24.17908,-1.667361 12.37434,-2.283903 22.49227,-6.205938 39.19916,-15.194866 11.73588,-6.31433 19.26278,-9.52249 22.34147,-9.52249 2.9693,0 10.33216,3.0626 19.97106,8.30701 16.83886,9.161818 24.10486,12.27473 34.94503,14.971202 9.95067,2.47521 17.22038,3.169362 33.26193,3.176031 l 9.84553,0.0041 0.28303,1.12448 c 1.12121,4.454678 4.38742,11.607747 7.2667,15.914247 6.79863,10.168615 15.06173,16.796491 27.17373,21.7962 l 0.7041,0.290646 0.11764,16.751277 c 0.12364,17.605955 0.21484,19.220323 1.5366,27.2023186 2.09434,12.6475386 6.28152,25.4089554 11.65076,35.5083994 0.71175,1.338783 1.29409,2.530239 1.29409,2.647681 0,0.117442 -0.53042,1.194666 -1.17872,2.39383 -5.18742,9.59531 -9.75967,23.256999 -11.62189,34.725664 -1.51583,9.335439 -1.55695,10.002877 -1.72555,28.007305 l -0.15822,16.896419 -2.77812,0.985 c -7.24004,2.567 -13.52999,6.65266 -19.08688,12.39795 -5.68228,5.87492 -9.60503,12.47978 -12.20954,20.55755 -0.51612,1.60073 -1.01921,3.34652 -1.11798,3.87953 l -0.17959,0.96912 -9.03686,-0.0318 c -5.39705,-0.019 -10.5288,0.10227 -12.74103,0.30102 -10.5321,0.94627 -20.175,3.03324 -28.31174,6.12739 -6.78047,2.57841 -10.62021,4.40525 -23.01743,10.95103 -12.56277,6.63319 -18.10965,9.07188 -22.9699,10.09874 -2.21241,0.46743 -2.25934,0.46604 -4.54969,-0.13475 z m 18.26974,-11.002 c 1.81132,-0.46547 5.4134,-2.09828 5.4134,-2.45388 0,-0.3228 -2.90591,-0.5763 -6.63248,-0.57859 -3.43836,-0.002 -4.99305,-0.34012 -9.50711,-2.06696 -5.19378,-1.98686 -8.47065,-2.00017 -13.64804,-0.0555 -4.47526,1.68099 -5.65955,1.91996 -9.10612,1.83748 -4.24985,-0.1017 -6.35,-0.0203 -6.35,0.24624 0,0.31015 3.73826,1.99592 5.66985,2.55682 2.65201,0.7701 6.1882,0.44785 9.90139,-0.90229 5.45322,-1.98284 8.21537,-2.01014 13.01995,-0.12866 5.12125,2.00549 7.94012,2.39306 11.23916,1.5453 z m 30.35028,-12.84454 c 1.70982,-0.64351 3.10881,-1.24863 3.10886,-1.34471 5e-5,-0.0961 -1.04171,-0.24564 -2.31501,-0.33237 -3.16934,-0.21588 -5.56991,-0.78416 -8.39313,-1.98689 -3.86383,-1.64604 -4.89734,-1.92871 -7.54802,-2.0644 -2.88908,-0.1479 -4.43936,0.17111 -8.59896,1.76948 -2.21898,0.85266 -4.89174,1.61244 -8.01447,2.27827 -0.92704,0.19766 -0.51162,0.51489 1.5368,1.17354 2.42576,0.77999 5.35303,0.64628 8.02091,-0.36638 5.22696,-1.98401 7.93711,-1.84208 14.0989,0.73836 1.78417,0.74717 4.31735,1.48325 4.73078,1.37464 0.14552,-0.0382 1.66352,-0.59602 3.37334,-1.23954 z m -70.80382,-0.53331 c 0.9976,-0.30466 1.9059,-0.64082 2.01845,-0.74704 0.11255,-0.10621 -0.93055,-0.44864 -2.31801,-0.76095 -1.38745,-0.3123 -3.91523,-1.11862 -5.61729,-1.7918 -6.30066,-2.49198 -10.00769,-2.58233 -15.55398,-0.37911 -2.39644,0.95197 -4.87907,1.57754 -6.28255,1.58307 -0.5457,0.002 -0.99031,0.0932 -0.98803,0.20235 0.002,0.10914 1.41389,0.65618 3.1369,1.21564 l 3.13274,1.0172 2.35321,-0.80545 c 4.65436,-1.59307 7.29506,-1.61 11.74591,-0.0753 2.92019,1.00691 3.02018,1.02849 4.93307,1.0646 0.97926,0.0185 2.34707,-0.18958 3.43958,-0.52322 z m 14.26824,-1.21242 c 1.89255,-0.64359 4.16355,-2.97791 4.71997,-4.85158 0.53729,-1.80927 0.52416,-2.7675 -0.0771,-5.62582 -0.26864,-1.27702 -0.41542,-2.36434 -0.32618,-2.41628 0.0892,-0.0519 0.57896,-0.17622 1.08829,-0.2762 1.78506,-0.3504 6.49975,-2.00747 8.3192,-2.92394 1.0103,-0.50889 2.04969,-0.92526 2.30975,-0.92526 1.09788,0 2.49508,0.82198 3.00423,1.76741 0.82134,1.52513 2.65991,3.2381 4.26354,3.97226 2.65281,1.2145 5.97691,0.61141 8.41136,-1.52606 2.39315,-2.10122 3.1192,-6.05472 1.65828,-9.02972 -0.89576,-1.82412 -2.89952,-3.70265 -4.62432,-4.33533 -2.02292,-0.74203 -2.03341,-0.78952 -0.66737,-3.0194 0.6686,-1.0914 1.37833,-2.37132 1.57716,-2.84427 0.44956,-1.0693 0.75519,-1.08002 4.20283,-0.14741 3.90882,1.05736 7.06858,1.02248 10.43909,-0.11523 5.17227,-1.7459 7.47392,-1.70915 13.09687,0.20915 5.58355,1.90485 9.51042,1.75763 14.68438,-0.55053 3.40299,-1.51811 4.78425,-1.84409 7.78708,-1.83774 2.82548,0.006 2.88722,0.022 9.27854,2.40748 2.25209,0.84057 2.56782,0.88884 5.82084,0.88998 l 3.43958,0.001 3.83646,-1.57162 c 3.70038,-1.51587 3.93549,-1.57544 6.62843,-1.67962 2.7468,-0.10626 2.85036,-0.0883 6.40119,1.11009 4.70508,1.58795 5.57223,1.59919 7.49548,0.0971 0.78942,-0.61654 1.43531,-1.19464 1.43531,-1.28465 0,-0.09 -0.7683,-0.23541 -1.70733,-0.3231 -1.05171,-0.0982 -2.80433,-0.5843 -4.56406,-1.26583 -4.18126,-1.61939 -5.99268,-2.0587 -8.54527,-2.07245 -2.65567,-0.0143 -3.98816,0.30846 -8.0351,1.94631 -1.87403,0.75844 -3.80705,1.33493 -5.09844,1.52052 -1.85463,0.26653 -2.31498,0.23902 -4.24862,-0.25391 -1.19273,-0.30405 -3.34139,-1.02566 -4.77479,-1.60357 -3.44605,-1.38937 -5.3036,-1.73067 -8.47245,-1.55671 -2.72287,0.14948 -4.09415,0.54328 -8.66123,2.48726 -2.3516,1.00096 -2.42408,1.01359 -5.82083,1.01359 -3.25209,0 -3.59824,-0.0528 -6.35,-0.96755 -1.60073,-0.53215 -3.46916,-1.0977 -4.15206,-1.25677 -2.76329,-0.64367 -6.93384,-0.15578 -10.80601,1.26414 -3.35842,1.23152 -7.3197,1.39161 -10.17735,0.4113 -0.7276,-0.2496 -1.3655,-0.48907 -1.41754,-0.53217 -0.052,-0.0431 0.17845,-1.21108 0.51222,-2.59555 0.70334,-2.91749 0.89694,-3.05124 3.02199,-2.08775 1.80845,0.81994 4.91995,0.84459 6.6054,0.0523 1.36706,-0.6426 3.18723,-2.51301 3.74532,-3.84871 0.54684,-1.30876 0.74517,-3.99309 0.39142,-5.29758 -0.6782,-2.50091 -2.90881,-4.77249 -5.27812,-5.37505 -0.99821,-0.25387 -1.1318,-0.37007 -1.00891,-0.877552 0.0779,-0.321715 0.29009,-1.792139 0.47152,-3.267608 l 0.32986,-2.682672 1.18605,-0.162566 c 0.65233,-0.08941 2.44618,-0.569746 3.98634,-1.067411 5.186,-1.675732 7.12904,-1.552081 13.11904,0.834864 3.39678,1.35358 3.91274,1.485123 6.2177,1.585179 2.73014,0.118512 3.71519,-0.09533 8.33438,-1.809276 2.21682,-0.82255 2.60049,-0.88313 5.55625,-0.877306 2.85146,0.0056 3.36373,0.08173 5.02708,0.746928 5.61958,2.247339 7.04658,2.642538 9.525,2.637883 1.88937,-0.0035 2.76383,-0.144507 4.23334,-0.68239 1.01864,-0.372854 3.0427,-1.114025 4.49791,-1.647047 2.53287,-0.927753 2.7588,-0.964023 5.29167,-0.84949 2.32998,0.105358 3.10382,0.28003 6.48229,1.463178 5.93473,2.078356 8.35129,2.061681 13.24832,-0.09142 5.33752,-2.346771 8.96059,-2.418138 14.06991,-0.277149 0.42172,0.176714 0.46324,-0.02683 0.46542,-2.281681 0.0183,-18.849358 4.22687,-37.557528 12.17358,-54.114126 l 2.05332,-4.278004 -1.27891,-2.480326 C 387.22244,19.375258 382.71094,4.4778901 381.01033,-8.8635404 380.20202,-15.204831 379.95237,-21.321958 379.94671,-34.924999 l -0.005,-12.303125 -3.51884,-1.665589 c -6.1206,-2.897091 -10.86842,-6.129402 -15.58502,-10.61028 -6.81519,-6.474578 -12.31423,-15.272686 -15.14849,-24.236632 l -0.5856,-1.852083 -7.65026,0.09404 c -24.17589,0.297188 -38.86288,-2.688139 -56.86275,-11.55812 -2.91042,-1.434195 -8.08964,-4.135242 -11.50938,-6.002322 -7.03618,-3.84155 -10.48591,-5.51631 -14.68437,-7.12888 -4.78463,-1.83771 -5.07912,-1.88678 -7.18899,-1.19776 -4.60266,1.50308 -10.54998,4.25955 -19.21539,8.90597 -20.60429,11.048085 -31.69217,14.759121 -49.39875,16.533407 -2.11482,0.211916 -7.41392,0.326786 -14.69697,0.318592 l -11.38968,-0.01281 -1.04437,3.066651 c -1.33953,3.933362 -4.32556,9.971259 -6.68514,13.517693 -6.20397,9.324512 -14.69726,16.321064 -25.48396,20.993027 l -1.48867,0.644774 -0.14207,15.440996 c -0.10191,11.076147 -0.25596,16.525483 -0.54496,19.277454 -1.62415,15.4657858 -5.50355,29.122003 -11.96956,42.13511 l -1.67632,3.373651 1.83881,3.698668 c 4.52081,9.093405 7.06969,16.340632 9.35381,26.595698 0.51859,2.328333 1.07575,5.005561 1.23812,5.949396 0.16237,0.943835 0.34471,1.796146 0.4052,1.894025 0.0605,0.09788 0.68619,-0.100006 1.39043,-0.439744 4.56425,-2.201867 8.29594,-2.125987 13.60745,0.276693 3.3311,1.506836 5.08574,1.978825 7.32524,1.970453 2.37161,-0.0089 3.5773,-0.328715 7.0555,-1.871702 5.92775,-2.629652 9.05745,-2.674175 14.60805,-0.207813 3.93502,1.748489 5.21151,2.080556 7.98034,2.076012 2.41037,-0.004 3.43046,-0.287501 8.06868,-2.242782 4.17607,-1.760459 7.83425,-1.798567 11.73105,-0.122207 l 1.36467,0.587064 -0.1973,1.886136 c -0.10852,1.037374 -0.19731,3.038554 -0.19731,4.447065 0,2.99455 0.17872,3.345707 2.66894,5.244279 1.22864,0.936725 1.44911,1.206022 1.03386,1.262829 -0.70226,0.09607 -2.62588,-0.471541 -5.68717,-1.67814 -2.25242,-0.887785 -2.81589,-1.001227 -5.42396,-1.091997 -3.20072,-0.111396 -3.97469,0.0888 -9.525,2.463715 -2.25819,0.966257 -2.52482,1.018914 -5.15938,1.01896 -2.63323,4.7e-5 -2.90232,-0.05301 -5.15937,-1.017228 -5.05762,-2.16063 -6.6803,-2.618382 -9.26042,-2.612327 -2.53027,0.0059 -4.91708,0.594269 -7.29888,1.799124 -2.41543,1.221861 -4.74576,1.821754 -6.98862,1.799067 -2.16354,-0.02188 -2.48418,-0.106872 -8.46666,-2.244108 -2.00247,-0.715377 -2.76004,-0.851568 -4.7625,-0.856164 -2.30942,-0.0053 -2.94786,0.126009 -5.88698,1.21078 l -1.38907,0.512676 v 1.700781 c 0,0.93543 0.0454,1.700782 0.10079,1.700782 0.0554,0 0.8767,-0.292051 1.82504,-0.649003 4.12682,-1.553333 6.70056,-1.461952 11.43563,0.406022 5.9821,2.359926 8.45541,2.335093 14.67265,-0.147318 5.84658,-2.334415 8.14697,-2.318732 13.83778,0.09434 3.6099,1.530702 5.038,1.88416 7.58707,1.877824 2.44754,-0.0061 4.0021,-0.450356 8.88167,-2.538272 2.26666,-0.969878 2.51494,-1.018467 5.15937,-1.009686 2.57753,0.0086 3.00738,0.09004 5.95313,1.128479 1.74625,0.61559 3.90189,1.190554 4.7903,1.277697 l 1.61531,0.158443 0.17739,2.941883 c 0.0976,1.618035 0.39223,4.517629 0.6548,6.443542 l 0.47739,3.501653 -1.07947,-0.194361 c -2.43694,-0.43879 -4.42636,-0.158771 -8.24743,1.160851 -3.4953,1.20713 -3.81936,1.27061 -6.45808,1.26508 -2.47697,-0.005 -3.03626,-0.10043 -5.15938,-0.87866 -7.50339,-2.750379 -10.42636,-2.781386 -16.74406,-0.17763 -5.42037,2.23394 -7.64728,2.21931 -13.91527,-0.0914 -6.29777,-2.321712 -8.4361,-2.324674 -14.97175,-0.0207 -3.95432,1.39397 -7.50071,2.01492 -9.60069,1.681 l -0.99219,-0.15777 v 1.46512 1.46512 l 1.91823,0.32861 c 2.73689,0.46886 5.69676,0.053 9.3077,-1.30773 6.09626,-2.29729 8.317,-2.20095 15.49699,0.67231 2.4596,0.98427 2.58735,1.00586 5.95313,1.00586 3.36612,0 3.49326,-0.0215 5.95312,-1.0062 4.99203,-1.99836 6.29995,-2.34524 8.86354,-2.35073 2.17213,-0.005 2.75302,0.11782 6.61459,1.39453 6.38068,2.10957 8.73227,2.06979 14.90686,-0.25218 1.21377,-0.45645 2.16019,-0.7379 2.10316,-0.62547 -1.183,2.33222 -1.36051,2.95032 -1.33857,4.66121 0.0432,3.36526 2.01036,6.23614 4.95766,7.23509 1.77236,0.60072 3.99691,0.53825 5.56712,-0.15633 0.69047,-0.30543 1.59287,-0.55532 2.00533,-0.55532 0.65982,0 0.78518,0.1351 1.04347,1.12448 0.16145,0.61846 0.46369,1.71163 0.67165,2.42927 0.20796,0.71763 0.37811,1.32989 0.37811,1.36056 0,0.0307 -0.8632,0.27695 -1.91823,0.54729 -1.32496,0.33951 -2.81836,0.48732 -4.82865,0.47794 -2.84277,-0.0133 -2.99343,-0.045 -6.48229,-1.36384 -6.73695,-2.54673 -9.15922,-2.54374 -15.63962,0.0193 -5.35806,2.11917 -8.0808,2.11929 -13.00455,5.9e-4 -4.7894,-2.06089 -8.52469,-2.46026 -12.27012,-1.3119 -1.14428,0.35083 -3.33066,1.08724 -4.85863,1.63645 -2.71727,0.97669 -2.85565,0.9979 -6.31782,0.96855 -1.94684,-0.0165 -3.43512,0.0583 -3.3073,0.16631 1.38495,1.16987 2.99392,2.395 3.48216,2.65143 0.77591,0.40753 4.36073,0.43345 5.81431,0.042 0.6168,-0.16609 2.22299,-0.73274 3.56932,-1.25924 2.15721,-0.84359 2.79347,-0.97072 5.35829,-1.07066 3.21424,-0.12525 3.5025,-0.0595 8.99584,2.05239 5.01642,1.92854 7.95064,1.79964 13.87057,-0.60931 3.10449,-1.26329 3.50455,-1.36026 5.97318,-1.44787 2.80302,-0.0995 3.74492,0.0945 8.06887,1.66205 2.91425,1.05648 6.49807,1.20105 9.529,0.38441 1.23523,-0.33282 2.86358,-0.65672 3.61855,-0.71978 l 1.37268,-0.11465 0.70771,1.4126 c 0.38924,0.77693 1.11098,2.08302 1.60388,2.90242 0.4929,0.8194 0.89618,1.60712 0.89618,1.75048 0,0.14337 -0.70468,0.51761 -1.56595,0.83165 -2.03565,0.74223 -4.00949,2.51915 -4.96916,4.4734 -0.99105,2.01816 -1.04929,4.8517 -0.13773,6.70187 1.30979,2.65846 3.56034,4.19796 6.43901,4.40461 3.49285,0.25074 6.35535,-1.55937 8.29095,-5.24283 0.54218,-1.03178 1.14053,-1.93534 1.32965,-2.00792 0.18912,-0.0726 1.64801,0.52211 3.24197,1.32151 2.82926,1.41893 7.38514,3.10416 9.42279,3.48551 0.96105,0.17987 1.01002,0.23591 0.88794,1.01613 -0.0711,0.45417 -0.33289,1.36155 -0.58183,2.01639 -0.64768,1.70376 -0.42108,4.74004 0.48758,6.5332 1.67801,3.31141 5.65907,4.85191 9.32067,3.60672 z m -79.68591,-14.69375 c 5.65419,-2.15134 6.27008,-2.31406 8.75856,-2.31406 1.97678,0 2.76326,0.13576 4.63021,0.79926 6.65085,2.36366 6.91847,2.43345 9.39271,2.44929 2.60685,0.0167 4.3932,-0.40427 7.27151,-1.71352 1.52283,-0.69269 1.66478,-0.81798 1.21476,-1.07222 -0.28025,-0.15834 -2.78057,-0.37845 -5.55625,-0.48915 -4.42134,-0.17633 -5.27618,-0.28399 -6.89877,-0.86888 -7.44193,-2.68258 -7.28582,-2.64065 -9.92188,-2.66485 -2.93646,-0.027 -4.03662,0.24134 -8.31553,2.02796 -1.74193,0.72732 -4.28403,1.54823 -5.67327,1.83203 -1.38441,0.28282 -2.61328,0.57365 -2.73082,0.64629 -0.37104,0.22932 -0.23537,0.68397 0.48656,1.63047 l 0.70028,0.9181 2.24898,-0.18248 c 1.51694,-0.12308 2.94684,-0.44801 4.39295,-0.99824 z m 159.19231,0.4234 c 0.7904,-0.23445 2.58204,-0.88765 3.98142,-1.45156 4.92276,-1.98372 7.61064,-1.95435 12.995,0.142 3.83592,1.49347 5.33919,1.6823 7.61171,0.95613 1.60706,-0.51353 2.88492,-1.20801 2.62652,-1.42744 -0.0621,-0.0528 -1.5063,-0.40232 -3.20925,-0.77677 -1.77329,-0.38992 -4.09085,-1.12841 -5.42396,-1.72835 -3.64594,-1.64076 -5.63803,-2.16691 -8.20434,-2.16691 -2.62528,0 -4.27952,0.38544 -7.79412,1.81605 -5.55819,2.26244 -7.92973,2.20132 -13.67349,-0.35241 -5.81849,-2.58696 -9.34086,-2.64928 -14.85678,-0.26285 -3.14377,1.36014 -5.63471,2.19089 -7.59024,2.53143 -0.92004,0.16022 -1.73315,0.38896 -1.80692,0.50832 -0.0738,0.11935 0.55191,0.48909 1.39038,0.82162 2.37759,0.94296 5.34943,0.8401 8.27137,-0.28629 3.30809,-1.27525 4.67386,-1.59423 6.84097,-1.59773 2.3412,-0.004 4.3497,0.48594 7.257,1.76943 1.19565,0.52784 2.82875,1.16752 3.62911,1.42152 1.93589,0.61435 6.02188,0.6574 7.95562,0.0838 z m 11.88846,-31.43177 c 1.09159,-0.19479 3.5919,-1.00867 5.55625,-1.80862 4.62972,-1.88539 5.81491,-2.1492 8.96055,-1.99452 2.56078,0.12593 3.39104,0.35491 9.42766,2.60011 1.99979,0.74378 6.36706,1.00958 8.56048,0.52101 0.82153,-0.18299 2.98197,-0.93565 4.80098,-1.67258 4.43137,-1.79526 6.34378,-1.92455 11.98707,-0.81042 l 0.74227,0.14654 -0.0808,-1.4133 c -0.0761,-1.33109 -0.13652,-1.44055 -1.03845,-1.88161 -0.5267,-0.25757 -1.87526,-0.66744 -2.99679,-0.91082 -2.82197,-0.61239 -5.20016,-0.24494 -9.47526,1.46401 -3.90433,1.56073 -5.21565,1.89949 -7.35293,1.89949 -1.98655,0 -4.01611,-0.50646 -7.36616,-1.83814 -6.7525,-2.68421 -9.91476,-2.52547 -18.1189,0.90951 -1.29076,0.54043 -3.31097,1.15092 -4.48934,1.35663 -2.70435,0.47212 -5.22444,0.092 -8.90652,-1.34329 -6.97615,-2.7194 -6.65954,-2.64112 -10.71563,-2.64921 -3.59617,-0.007 -3.78516,0.021 -6.48229,0.96547 -4.60351,1.61207 -5.55721,1.78125 -10.25167,1.81859 -2.3642,0.0188 -4.36138,0.13586 -4.43817,0.26012 -0.21997,0.35592 2.08034,1.57905 4.31597,2.29491 2.94081,0.94167 5.98617,0.78051 9.977,-0.52798 6.29441,-2.06377 9.32834,-1.9184 15.60658,0.7478 4.74528,2.0152 8.02838,2.53542 11.77812,1.8663 z"
       id="path29" /><path
       style="fill:#000000"
       d="m 305.13617,-69.6483 c -0.14476,-0.183695 -0.33656,-0.642068 -0.42623,-1.018606 -0.2583,-1.084737 -1.21536,-2.104818 -2.48564,-2.649324 -0.64489,-0.276433 -1.12615,-0.641753 -1.06946,-0.811822 0.0567,-0.17007 0.57262,-0.471505 1.14651,-0.669856 1.34999,-0.466585 1.83186,-0.979005 2.41717,-2.570408 0.2631,-0.715335 0.59369,-1.310648 0.73466,-1.322917 0.14096,-0.01227 0.47716,0.573004 0.74709,1.300608 0.62295,1.679131 1.03442,2.124554 2.46859,2.67227 0.63703,0.243282 1.15823,0.541729 1.15823,0.663216 0,0.121488 -0.6317,0.519725 -1.40376,0.884972 -1.35268,0.639919 -2.30041,1.834618 -2.30041,2.899872 0,0.588043 -0.67713,1.014875 -0.98675,0.621995 z"
       id="path28" /><path
       style="fill:#000000"
       d="m 166.25849,-57.892739 c -0.15343,-0.100816 -0.42307,-0.764851 -0.5992,-1.475632 -0.70564,-2.847674 -1.7221,-4.0455 -4.07999,-4.807969 -1.54539,-0.499735 -2.28106,-1.046419 -1.89192,-1.405914 0.13929,-0.128673 0.84856,-0.427476 1.57616,-0.664007 2.69675,-0.876667 3.6309,-1.961749 4.39183,-5.101428 0.17068,-0.70424 0.40816,-1.388499 0.52772,-1.520577 0.30547,-0.337425 1.03358,0.32519 1.03358,0.940606 0,0.996963 1.07823,3.542592 1.81079,4.275154 0.41142,0.411421 1.51176,1.024258 2.44519,1.361862 2.17965,0.788338 2.29747,1.273082 0.45476,1.871133 -2.80339,0.909838 -3.86412,2.059036 -4.45845,4.830313 -0.30069,1.402068 -0.73409,2.009474 -1.21047,1.696459 z"
       id="path27" /><path
       style="fill:#000000"
       d="m 330.254,-52.733956 c -0.13711,-0.173251 -0.39582,-0.940103 -0.57492,-1.704115 -0.57285,-2.443709 -1.77481,-3.72893 -4.28076,-4.577277 -1.96263,-0.664416 -1.89273,-1.195798 0.25981,-1.975216 0.92171,-0.333743 1.95389,-0.868018 2.29372,-1.187278 0.70411,-0.661477 1.58627,-2.574331 1.8561,-4.02471 0.19542,-1.050443 0.80348,-1.775555 1.15224,-1.374047 0.11473,0.132078 0.41607,1.014047 0.66966,1.959933 0.79964,2.982713 1.68686,3.90777 4.5756,4.770759 1.83972,0.549603 1.70367,1.270297 -0.34309,1.817392 -2.35648,0.629884 -3.69778,2.157317 -4.31453,4.913275 -0.31841,1.422795 -0.82933,1.968252 -1.29383,1.381284 z"
       id="path26" /><path
       style="fill:#000000"
       d="m 194.86563,-40.439272 c -2.36284,-1.505264 -4.68925,-4.146481 -5.95425,-6.759976 -2.54653,-5.261126 -2.4863,-10.880113 0.17466,-16.295002 1.01392,-2.063255 1.61282,-2.884016 3.37861,-4.630208 3.72516,-3.683827 7.0256,-5.167609 11.94799,-5.371471 2.20182,-0.09119 3.29616,-0.01571 4.39234,0.302962 l 1.45992,0.424409 0.15045,2.319175 c 0.15667,2.415016 0.80715,4.600213 1.96599,6.604534 0.52644,0.910519 0.5881,1.211031 0.34261,1.669723 -0.16465,0.30765 -0.38059,0.521682 -0.47988,0.475625 -0.0993,-0.04606 -0.83537,-0.438574 -1.63573,-0.872261 -1.28747,-0.697627 -1.71446,-0.78895 -3.70417,-0.792234 -2.05944,-0.0034 -2.38872,0.07208 -3.90746,0.895634 -3.14439,1.705091 -4.84133,4.348921 -5.0269,7.831904 -0.1467,2.753399 0.50331,4.576712 2.35316,6.600736 l 1.31893,1.443129 -1.43861,1.888242 c -0.79124,1.038533 -1.88511,2.65171 -2.43083,3.584839 -0.54571,0.933128 -1.06581,1.695465 -1.15577,1.694082 -0.09,-0.0014 -0.87794,-0.457611 -1.75106,-1.013842 z"
       id="path25" /><path
       style="fill:#000000"
       d="m 144.46424,-29.699478 c 0.002,-0.701395 0.79899,-1.986222 1.61267,-2.599989 l 0.57581,-0.434334 -1.02896,-0.964575 c -4.35972,-4.086891 -9.47871,-5.109213 -14.46207,-2.888241 -0.83977,0.374266 -1.59524,0.612096 -1.67882,0.528512 -0.3505,-0.350498 0.26748,-1.821544 1.21964,-2.903258 1.27247,-1.445598 3.58395,-2.694895 5.77752,-3.122594 3.79639,-0.740215 8.13355,0.971539 11.83161,4.669598 l 1.42327,1.423275 1.36478,-2.656941 c 1.71448,-3.337732 3.82497,-5.582982 6.47351,-6.886853 1.70942,-0.841546 1.99795,-0.899496 4.47853,-0.899496 2.96603,0 4.32263,0.441429 5.89254,1.917406 1.45822,1.370967 1.23912,1.527943 -2.12845,1.524888 -2.92062,-0.0026 -3.03378,0.01972 -4.99259,0.98688 -2.35793,1.164228 -5.00162,3.768103 -6.1351,6.042709 l -0.71215,1.429091 1.17329,0.399513 c 2.22996,0.759311 3.17334,2.383888 1.38431,2.383888 -0.49142,0 -2.05388,0.357187 -3.47212,0.79375 -1.41824,0.436562 -3.09848,0.79375 -3.73387,0.79375 -0.63539,0 -1.7816,0.238065 -2.54715,0.529033 -1.83135,0.69606 -2.31839,0.682179 -2.3162,-0.06601 z"
       id="path24" /><path
       style="fill:#000000"
       d="m 353.21875,-27.014498 c -0.50932,-0.130579 -1.9976,-0.304227 -3.30729,-0.385886 -1.30968,-0.08166 -2.84096,-0.26844 -3.40282,-0.41507 -0.56186,-0.14663 -1.51436,-0.231019 -2.11667,-0.187532 -1.00619,0.07265 -1.09509,0.02665 -1.09509,-0.566662 0,-0.592258 1.03939,-1.567717 2.0632,-1.93629 0.55763,-0.200747 -0.82562,-2.44164 -2.48299,-4.022505 -2.64335,-2.521323 -6.04339,-3.641074 -9.32215,-3.070102 -0.92317,0.160763 -1.81757,0.292296 -1.98755,0.292296 -1.10378,0 0.87845,-2.257803 2.82803,-3.221172 1.01778,-0.502928 1.65975,-0.607779 3.74208,-0.611181 2.29335,-0.0037 2.66449,0.06978 4.23661,0.839299 2.12869,1.041951 4.4333,3.27797 5.8686,5.693928 0.58718,0.988373 1.09913,1.797042 1.13767,1.797042 0.0385,0 1.02069,-0.950624 2.18256,-2.112498 1.63585,-1.635842 2.58335,-2.337063 4.19926,-3.107751 1.94173,-0.92608 2.25227,-0.994641 4.46801,-0.986444 2.73526,0.01012 4.15561,0.513175 5.90096,2.089995 1.02495,0.925983 1.86676,2.390298 1.55397,2.703094 -0.0863,0.08631 -0.61858,-0.02779 -1.18282,-0.25355 -4.33315,-1.733782 -8.81621,-0.672035 -12.43276,2.944519 l -1.46656,1.466562 0.63809,0.413974 c 1.07239,0.695739 1.82975,1.649685 1.82975,2.304693 0,0.681824 -0.28548,0.732882 -1.85209,0.331241 z"
       id="path23" /><path
       style="fill:#000000"
       d="m 296.32819,-13.919078 c -0.003,-0.857475 -0.17764,-2.749671 -0.38848,-4.204879 -0.21084,-1.455209 -0.38712,-2.716284 -0.39173,-2.802391 -0.005,-0.08611 0.44325,-0.291874 0.99527,-0.457261 1.45244,-0.435163 3.41323,-1.919745 4.43655,-3.359073 1.34528,-1.892157 1.78697,-3.507107 1.65364,-6.046108 -0.19039,-3.625518 -1.98621,-6.312241 -5.20375,-7.785275 -2.31344,-1.05913 -5.15509,-0.810609 -7.07081,0.61839 l -0.81509,0.607999 -0.43338,-0.733659 c -0.23836,-0.403512 -1.08955,-1.648213 -1.89152,-2.766002 -1.41909,-1.977916 -1.44235,-2.038477 -0.8682,-2.26136 4.0567,-1.574815 5.55994,-2.482429 7.41356,-4.476095 1.14132,-1.227545 1.37816,-1.362667 2.38125,-1.35853 4.20411,0.01734 9.8001,2.713562 12.75554,6.145795 3.12066,3.624089 4.93631,9.238188 4.49855,13.909738 -0.44096,4.705755 -2.0978,8.386383 -5.14836,11.436936 -2.88863,2.888637 -6.2637,4.49984 -10.31248,4.923022 l -1.60541,0.167799 z"
       id="path22" /><path
       style="fill:#000000"
       d="m 364.11666,-0.19843609 c -0.12827,-0.25466147 -0.38851,-1.03733811 -0.57832,-1.73928151 -0.45192,-1.6712747 -1.52793,-2.7155229 -3.34135,-3.2426972 -1.84566,-0.5365486 -1.81062,-1.0749157 0.11836,-1.8184136 1.93621,-0.7462874 2.57295,-1.4588971 3.2774,-3.6679336 0.77318,-2.424534 1.20449,-2.466229 1.87733,-0.181485 0.70022,2.3777006 1.22405,3.0061102 3.14725,3.7755713 0.90509,0.3621227 1.6907,0.7936225 1.74579,0.9588884 0.0551,0.1652659 -0.35681,0.4794653 -0.91533,0.698221 -2.7717,1.0855927 -3.4021,1.774306 -4.07685,4.45396758 -0.31941,1.26850729 -0.84016,1.58535361 -1.25428,0.76316263 z"
       id="path21" /><path
       style="fill:#000000"
       d="m 134.2883,3.6575768 c -0.0651,-0.192656 -0.25579,-0.8853954 -0.42368,-1.5394209 -0.71071,-2.76859838 -1.68313,-3.837826 -4.22417,-4.6446928 -0.7974,-0.2532018 -1.56378,-0.56307 -1.70307,-0.6885959 -0.391,-0.3523755 0.35192,-0.9022035 1.89192,-1.4001921 2.3968,-0.7750509 3.21478,-1.7376663 4.0596,-4.7773822 0.33286,-1.1976339 0.55955,-1.5874999 0.92306,-1.5874999 0.37096,0 0.62526,0.471596 1.10503,2.0492872 0.80018,2.6313336 1.79538,3.6891509 4.11282,4.3716257 1.27436,0.3752889 1.65457,0.6021933 1.65457,0.9874204 0,0.3852272 -0.38021,0.6121316 -1.65457,0.9874205 -2.31748,0.6824854 -3.31266,1.74029666 -4.11276,4.3716257 -0.41956,1.3798072 -0.76805,2.0772847 -1.06672,2.1349876 -0.24398,0.047135 -0.49689,-0.071927 -0.56203,-0.2645833 z"
       id="path20" /><path
       style="fill:#000000"
       d="m 375.05328,24.672398 c -0.63947,-1.595872 -0.77357,-1.755232 -2.00754,-2.38567 -0.64562,-0.329853 -1.21065,-0.708126 -1.25562,-0.840606 -0.045,-0.132481 0.43127,-0.46833 1.05833,-0.746331 1.2871,-0.570633 1.56551,-0.86452 2.0642,-2.178956 0.56685,-1.494105 0.73194,-1.482152 1.43331,0.103777 0.57209,1.293588 0.83389,1.57921 1.866,2.03576 0.6603,0.292082 1.20054,0.633928 1.20054,0.759658 0,0.12573 -0.55009,0.494896 -1.22243,0.82037 -1.0187,0.493145 -1.32681,0.827794 -1.84874,2.007977 -0.34448,0.778915 -0.68575,1.416208 -0.7584,1.416208 -0.0726,0 -0.31098,-0.446484 -0.52965,-0.992187 z"
       id="path19" /><path
       style="fill:#000000"
       d="m 140.89721,24.198888 c -0.55363,-1.251858 -0.82336,-1.543177 -1.84875,-1.996756 -0.6603,-0.292083 -1.20054,-0.642254 -1.20054,-0.778158 0,-0.135905 0.56554,-0.517286 1.25677,-0.847515 1.09063,-0.521043 1.32672,-0.784419 1.78594,-1.992313 0.61566,-1.619423 1.08962,-1.697058 1.58265,-0.259241 0.46445,1.354455 0.86413,1.781186 2.23922,2.390784 1.1553,0.512164 1.16631,0.528898 0.62429,0.949188 -0.30347,0.235308 -0.93241,0.636643 -1.39766,0.891854 -0.57376,0.314734 -1.0256,0.889315 -1.40441,1.785938 -0.30717,0.727054 -0.65543,1.321916 -0.7739,1.321916 -0.11848,0 -0.5071,-0.659564 -0.86361,-1.465697 z"
       id="path18" /><path
       style="fill:#000000"
       d="m 225.47523,55.026553 c -0.4817,-0.293684 -1.04725,-0.944258 -1.25677,-1.445721 -1.20318,-2.8796 0.61986,-5.95583 3.52954,-5.95583 4.06553,0 5.49724,5.685766 1.90011,7.545912 -1.09693,0.567247 -3.12053,0.497241 -4.17288,-0.144361 z"
       id="path17" /><path
       style="fill:#000000"
       d="m 243.84858,59.674155 c -1.82672,-0.751042 -2.66745,-1.473219 -3.40055,-2.921028 -0.29473,-0.582083 -0.77116,-1.28229 -1.05872,-1.556014 -0.60255,-0.573554 -0.4923,-1.790096 0.23505,-2.593812 0.57192,-0.631961 1.17912,-0.606691 2.05936,0.0857 0.61636,0.484829 0.69528,0.696023 0.54983,1.471324 -0.15149,0.807521 -0.0547,1.020369 0.89671,1.971776 0.5866,0.586595 1.21635,1.016601 1.39944,0.955569 0.43909,-0.146363 1.27939,-5.247516 0.88595,-5.378319 -0.15355,-0.05105 -0.69591,-0.194812 -1.20523,-0.319467 -0.79664,-0.194975 -0.92604,-0.335216 -0.92604,-1.003578 0,-0.763853 0.0237,-0.776722 1.40963,-0.764525 1.38123,0.01215 1.40617,-0.0012 1.2379,-0.661459 -0.49535,-1.943625 -0.46539,-2.350896 0.22368,-3.039962 0.93779,-0.937791 2.31616,-0.928552 3.06271,0.02053 0.74255,0.944002 0.69096,2.003214 -0.14601,2.997901 -0.38191,0.453874 -0.6498,0.863952 -0.59531,0.911284 0.0545,0.04733 0.56337,0.192775 1.13086,0.323206 2.13207,0.490028 1.97818,2.144012 -0.18652,2.004773 -1.36955,-0.08809 -1.37891,-0.07403 -1.63722,2.458405 -0.0891,0.873125 -0.21746,1.85539 -0.28534,2.182812 -0.10905,0.525971 -0.0173,0.595313 0.78736,0.595313 1.17641,0 2.55025,-1.089999 2.34811,-1.862978 -0.30628,-1.17124 1.88183,-2.160961 2.78369,-1.259106 0.57984,0.579845 0.33593,2.857012 -0.30612,2.857935 -0.16633,2.4e-4 -0.7387,0.464115 -1.27192,1.030835 -1.1518,1.224156 -3.39227,2.146515 -5.19199,2.137451 -0.69895,-0.0035 -1.92904,-0.28676 -2.79931,-0.644568 z"
       id="path16" /><path
       style="fill:#000000"
       d="m 351.6974,60.977477 c -0.49975,-0.350812 -0.59466,-0.659711 -0.59126,-1.924248 0.005,-2.025999 0.22993,-2.354279 1.30528,-1.908853 l 0.82904,0.343399 -0.077,1.878829 c -0.0843,2.058095 -0.37462,2.377042 -1.46606,1.610873 z"
       id="path15" /><path
       style="fill:#000000"
       d="m 356.85678,63.219634 c -0.35654,-0.211828 -0.46303,-0.629705 -0.46303,-1.817048 0,-1.807188 0.34907,-2.274121 1.33326,-1.783451 0.59124,0.294767 0.65112,0.482063 0.65112,2.036598 0,1.51442 -0.0611,1.719307 -0.52917,1.775485 -0.29104,0.03493 -0.73752,-0.06028 -0.99218,-0.211584 z"
       id="path14" /><path
       style="fill:#000000"
       d="m 361.61928,65.334449 c -0.35892,-0.211805 -0.46303,-0.629086 -0.46303,-1.855897 0,-1.727313 0.31603,-2.10492 1.31446,-1.570578 0.49492,0.264873 0.5527,0.496119 0.4837,1.935946 -0.0825,1.722227 -0.37992,2.054224 -1.33513,1.490529 z"
       id="path13" /><path
       style="fill:#000000"
       d="m 365.57329,66.82454 c -0.37731,-0.285667 -0.46075,-0.659267 -0.39688,-1.776981 0.075,-1.311658 0.12931,-1.415265 0.74234,-1.415265 0.63684,0 0.66146,0.06321 0.66146,1.697743 0,1.778488 -0.21343,2.095267 -1.00692,1.494503 z"
       id="path12" /><path
       style="fill:#000000"
       d="m 224.09796,70.944559 c -1.1866,-0.634469 -1.86017,-1.799237 -1.88965,-3.267636 -0.0628,-3.130893 2.77522,-4.980006 5.53475,-3.606114 3.75619,1.870097 2.5853,7.366694 -1.56926,7.366694 -0.63466,0 -1.56879,-0.221825 -2.07584,-0.492944 z"
       id="path11" /><path
       style="fill:#000000"
       d="m 371.80573,71.7922 -1.38906,-0.608964 v -4.181704 -4.181704 l -1.78594,-0.891422 C 363.61837,59.426568 345.83124,50.842268 345.33004,50.683195 l -0.57795,-0.183435 v 5.257939 5.257939 l -8.7974,-2.937819 c -11.84329,-3.95497 -25.65309,-7.806983 -27.98871,-7.806983 -0.56388,0 -1.83433,0.305464 -2.82321,0.67881 -2.70165,1.019988 -2.72402,1.024344 -2.72402,0.530647 0,-0.241868 -0.28453,-0.724291 -0.63229,-1.07205 -0.75837,-0.758377 -1.58169,-0.638653 -2.2108,0.321486 -0.35242,0.537864 -0.37353,0.796523 -0.11985,1.468593 0.16935,0.448659 0.28021,0.837875 0.24636,0.864925 -0.0511,0.04087 -6.73387,3.01581 -7.8006,3.472586 -0.25492,0.109154 -0.33073,-0.649254 -0.33073,-3.308444 0,-3.218298 -0.0356,-3.461349 -0.52945,-3.618101 -0.99317,-0.315219 -1.07915,-0.942643 -0.69067,-5.039993 0.41997,-4.429418 0.64109,-4.865937 2.59714,-5.126989 l 1.13652,-0.151679 0.0788,-3.439583 c 0.0434,-1.891771 0.13402,-3.601724 0.20148,-3.799896 0.0804,-0.236262 0.39974,-0.319644 0.92747,-0.24219 1.04365,0.153176 1.11043,0.0121 1.97493,-4.172448 0.73523,-3.558879 1.07746,-4.401103 1.98588,-4.887272 0.96213,-0.514919 32.50394,-2.620972 39.49825,-2.637307 1.44458,-0.0034 1.53453,-0.04039 1.45521,-0.598908 l -0.0846,-0.595313 -6.54883,0.05173 c -5.71606,0.04515 -15.15967,0.535407 -19.84336,1.030152 -1.68899,0.17841 -1.94023,-0.109088 -1.05292,-1.204876 0.42035,-0.519111 0.91404,-0.617461 4.80935,-0.9581 2.3875,-0.208783 4.37245,-0.411148 4.411,-0.449701 0.18492,-0.184918 0.62625,-3.66248 0.62838,-4.951495 0.003,-1.757578 0.62927,-3.1191538 1.72138,-3.7419197 0.82437,-0.4700899 4.09698,-1.0205801 6.06725,-1.0205801 h 1.13418 l 0.19863,-3.5057292 c 0.10924,-1.9281511 0.23255,-6.3359224 0.27402,-9.7950473 0.0538,-4.4844467 0.16862,-6.4016427 0.40025,-6.6807297 0.34702,-0.418142 1.24845,-0.511887 1.76485,-0.183537 0.42444,0.269883 0.89379,1.555738 0.72674,1.99104 -0.0935,0.243756 0.28888,0.449235 1.24817,0.6706661 0.76066,0.1755819 2.50751,0.8519116 3.88187,1.502955 2.13772,1.012647 2.74001,1.1837152 4.1676,1.1837152 0.91781,0 1.7391,0.1138215 1.82507,0.2529368 0.24663,0.3990422 -0.51506,1.9265113 -1.35302,2.7133478 -1.04037,0.9768863 -2.75104,1.532913 -4.69231,1.5251641 -1.43085,-0.00571 -2.18394,-0.1141916 -4.59695,-0.6621716 l -0.59531,-0.1351921 v 5.5037889 5.5037889 l 2.4474,0.2941455 c 2.96899,0.3568348 4.5181,0.9440471 5.26773,1.9968133 0.47427,0.6660461 0.59936,1.3613691 0.78214,4.3475191 0.11966,1.955067 0.2808,3.656972 0.35807,3.782011 0.0773,0.12504 0.79355,0.595896 1.5917,1.046347 1.13209,0.638912 1.76941,0.819002 2.89838,0.819002 1.93556,0 4.82319,1.055566 5.77073,2.109478 0.53658,0.596826 0.7276,1.086034 0.7276,1.863446 0,0.579788 -0.0955,1.054159 -0.21231,1.054159 -0.11678,0 -1.93248,-0.910747 -4.0349,-2.023882 -3.47657,-1.840683 -6.42028,-3.267785 -6.74054,-3.267785 -0.0686,0 -0.12475,0.288811 -0.12475,0.641803 0,0.579657 1.11481,1.209715 11.51327,6.506955 6.87893,3.504305 11.62535,6.074586 11.79172,6.385456 0.15315,0.286166 0.35976,1.257333 0.45913,2.158149 l 0.18067,1.637846 1.76211,0.90081 c 1.04739,0.535438 1.87909,1.157555 2.05052,1.533804 0.36167,0.793762 0.38006,4.224393 0.0238,4.444553 -0.147,0.09085 -0.26458,1.305307 -0.26458,2.732668 v 2.569146 l 1.58687,0.872384 c 1.81763,0.999248 1.91137,1.208426 1.79943,4.015376 -0.0776,1.944973 -0.0947,1.988528 -0.93318,2.378134 -0.83154,0.386362 -0.85432,0.441881 -0.8599,2.095834 -0.004,1.155429 0.12293,1.841119 0.39642,2.143323 0.33849,0.374021 0.39084,1.343643 0.33073,6.125061 l -0.0714,5.680695 z m -1.44562,-15.592371 -0.0757,-2.537674 -13.49375,-6.831207 c -12.67041,-6.414393 -13.60676,-6.843166 -15.34583,-7.027202 -1.88646,-0.199633 -20.9431,0.242989 -29.10417,0.675992 -11.97448,0.635331 -18.45062,1.159723 -18.81435,1.523452 -0.20826,0.208264 -0.36921,0.905153 -0.37086,1.605815 -0.002,0.68083 -0.0784,1.695088 -0.17078,2.253907 l -0.16786,1.016035 1.42755,-0.156187 c 8.79185,-0.961907 46.00303,-1.882063 48.46477,-1.198434 0.54984,0.152693 6.86015,3.178038 14.02291,6.722989 7.16276,3.544951 13.17634,6.45545 13.36351,6.467776 0.26015,0.01713 0.32247,-0.575378 0.26459,-2.515262 z m -46.46479,-3.721042 c 1.06641,-0.96509 0.31176,-3.001701 -1.11226,-3.001701 -0.82355,0 -1.19403,0.354681 -1.45449,1.39247 -0.39738,1.583263 1.37062,2.691713 2.56675,1.609231 z m 8.93131,-0.259258 c 0.30161,-0.383426 0.54837,-0.903151 0.54837,-1.154943 0,-0.251792 -0.24676,-0.771517 -0.54837,-1.154944 -1.05797,-1.345 -3.15579,-0.57725 -3.15579,1.154944 0,1.732193 2.09782,2.499943 3.15579,1.154943 z m 36.00254,-6.435457 v -2.105513 l -1.14772,-0.672612 c -0.63125,-0.369936 -1.23138,-0.672611 -1.33362,-0.672611 -0.10224,0 -0.15131,0.978876 -0.10905,2.17528 l 0.0768,2.17528 1.05833,0.598492 c 0.58209,0.329171 1.14763,0.600451 1.25677,0.602845 0.10914,0.0024 0.19844,-0.943128 0.19844,-2.101161 z m -3.97097,-2.193966 -0.002,-2.182812 -1.31066,-0.693534 c -0.72087,-0.381443 -1.37471,-0.62949 -1.45299,-0.551215 -0.0783,0.07827 -0.14232,1.072692 -0.14232,2.209817 v 2.067498 l 1.25678,0.65421 c 0.69122,0.359816 1.34606,0.659754 1.4552,0.66653 0.10914,0.0068 0.19744,-0.969947 0.19622,-2.170494 z m -4.23111,-2.178355 V 39.16725 l -1.38906,-0.730546 c -0.76399,-0.401799 -1.47836,-0.770915 -1.5875,-0.820255 -0.10915,-0.04934 -0.19516,0.962008 -0.19114,2.247442 l 0.007,2.337153 1.38176,0.715008 c 0.75997,0.393255 1.47106,0.720677 1.5802,0.727604 0.10914,0.0069 0.19844,-0.997429 0.19844,-2.231905 z m -4.6481,-2.427482 0.1823,-2.158442 -1.66729,-0.939597 c -0.91701,-0.516778 -1.76302,-0.843873 -1.88001,-0.726877 -0.117,0.116995 -0.17762,1.153925 -0.13471,2.304288 l 0.078,2.091569 1.58416,0.84118 c 0.8713,0.462649 1.60016,0.819836 1.61971,0.79375 0.0195,-0.02609 0.11756,-1.018728 0.21782,-2.205871 z m -4.9314,-3.054107 -0.0778,-1.910625 -1.45521,-0.813528 c -0.80037,-0.447441 -2.38232,-1.320754 -3.51546,-1.940697 l -2.06025,-1.127168 0.0759,2.551637 0.0759,2.551637 3.30093,1.686439 c 3.80827,1.945631 3.77622,1.954375 3.65603,-0.997695 z m -45.85071,-0.471344 c 8.86569,-0.571024 15.25142,-0.843526 24.25882,-1.035212 5.21014,-0.110877 9.52106,-0.251781 9.57981,-0.31312 0.0588,-0.06134 0.14863,-1.183088 0.19972,-2.492776 l 0.0929,-2.38125 -8.33438,0.04337 c -10.62855,0.05531 -31.72321,1.279223 -32.31915,1.875166 -0.28622,0.286216 -1.24108,4.517413 -1.06026,4.698232 0.0832,0.08325 0.93041,0.08608 1.88258,0.0063 0.95216,-0.07979 3.51715,-0.260106 5.69996,-0.400697 z m 29.56724,-18.657775 h 5.49016 l -5e-5,-0.959114 c -1e-4,-1.737482 -0.28131,-2.534493 -1.01929,-2.888936 -1.36876,-0.657399 -11.92268,-0.656506 -12.98671,0.0011 -0.33943,0.209779 -0.84889,3.852886 -0.57684,4.124936 0.0682,0.06823 0.90673,0.0336 1.86332,-0.07696 0.95659,-0.110563 4.20982,-0.201024 7.22941,-0.201024 z"
       id="path10" /><path
       style="fill:#000000"
       d="m 301.625,91.374694 c -0.5769,-0.106386 -0.75751,-0.432992 -1.41295,-2.555105 -1.90111,-6.155274 -5.77057,-14.814722 -9.1836,-20.551898 l -1.17741,-1.979187 v -2.971016 -2.971017 l 1.32292,-0.647236 c 3.77647,-1.847637 14.62317,-6.414746 14.7856,-6.225621 0.13709,0.159631 1.41658,8.588966 2.00383,13.201389 0.94035,7.385735 1.16346,10.625681 1.18298,17.179064 l 0.0193,6.46344 -1.45521,0.517606 c -1.40847,0.500981 -4.70816,0.793558 -6.08542,0.539581 z"
       id="path9" /><path
       style="fill:#000000"
       d="m 329.00938,91.96388 c -0.87313,-0.199994 -2.6838,-0.847557 -4.02373,-1.439029 -3.76286,-1.661011 -5.26546,-1.973157 -8.67627,-1.802387 -1.60073,0.08014 -3.1619,0.222003 -3.46926,0.315242 -0.54731,0.166025 -0.5626,0.08302 -0.74025,-4.018984 -0.34937,-8.067153 -1.20033,-15.655181 -2.94398,-26.251728 -0.51215,-3.112477 -0.88074,-5.709503 -0.81907,-5.771168 0.26113,-0.261133 11.43635,2.695791 19.22471,5.086792 11.21217,3.4421 25.71301,8.676539 39.54785,14.275785 10.94596,4.430057 9.99772,3.948574 9.77962,4.965721 -0.27974,1.304582 -2.04177,5.901342 -3.30093,8.611437 l -1.12103,2.412794 -1.22362,0.167706 c -2.04739,0.280607 -3.21303,0.624807 -6.32222,1.866877 -5.34145,2.133822 -7.05159,2.121122 -12.83156,-0.09529 l -3.23651,-1.241086 -3.57188,-0.0071 c -3.52868,-0.007 -3.60226,0.0051 -6.08541,1.000928 -4.41986,1.772592 -5.18004,2.009189 -6.9064,2.149543 -1.00153,0.08143 -2.3407,-0.01085 -3.28006,-0.226018 z m -5.23993,-20.25013 c 1.70284,-1.038287 1.7513,-3.849068 0.0868,-5.034295 -0.90217,-0.642398 -2.55936,-0.701419 -3.38848,-0.120683 -0.70481,0.493667 -1.38028,1.722237 -1.38028,2.510501 0,0.920583 0.80948,2.358522 1.55614,2.764288 0.97239,0.528435 2.13579,0.483843 3.12581,-0.119811 z"
       id="path8" /><path
       style="fill:#000000"
       d="m 198.92365,101.13061 c -0.63604,-0.39133 -0.74548,-0.70442 -1.1266,-3.223165 -0.6662,-4.402797 -1.15569,-9.098492 -1.35956,-13.042338 -0.10343,-2.000911 -0.28468,-3.638021 -0.40277,-3.638021 -0.49942,0 -3.45877,-1.932846 -3.83238,-2.503053 -0.35112,-0.535871 -0.36689,-1.016483 -0.11456,-3.490957 1.0287,-10.087703 2.3233,-17.784545 4.34626,-25.839995 l 1.3832,-5.507963 -1.07893,-0.547449 c -4.34177,-2.203007 -12.72941,-7.852167 -13.2035,-8.892689 -0.21291,-0.467281 -0.17151,-0.905308 0.17358,-1.836391 l 0.45318,-1.222738 -2.66571,-2.498651 c -6.93825,-6.503437 -13.69568,-16.22949 -16.76127,-24.1246985 -1.93293,-4.97814179 -2.37828,-7.0184221 -2.39671,-10.9802085 -0.0198,-4.256525 0.52894,-6.26633 2.52624,-9.252546 2.11067,-3.155715 4.98295,-4.980166 8.40322,-5.337654 1.92187,-0.200876 4.54895,0.444285 6.04089,1.483529 0.92914,0.647212 1.24191,0.736694 1.90762,0.545768 1.56843,-0.449818 3.88654,0.840855 5.15811,2.871921 1.08381,1.731152 1.48021,3.389029 1.48021,6.1907788 V -7.09067 l 1.47899,2.6351239 c 2.74202,4.8854834 8.25528,12.8746501 9.99922,14.4896891 0.38094,0.352788 0.69262,0.734912 0.69262,0.849164 0,0.114253 -0.9306,1.611545 -2.06801,3.327317 -2.95822,4.462457 -9.00413,14.600824 -10.74518,18.018551 -0.44197,0.867605 -0.43933,0.88163 0.27364,1.455208 0.39594,0.318539 1.04344,0.790246 1.43888,1.048239 l 0.71898,0.469079 0.79014,-1.262829 c 0.43458,-0.694555 1.47947,-2.453453 2.32199,-3.908662 4.71337,-8.140983 9.76933,-16.276575 10.10789,-16.264716 0.11241,0.0039 0.66844,0.438368 1.23563,0.965402 0.81662,0.758802 0.97465,1.04642 0.75928,1.381903 -2.28141,3.553813 -4.37263,6.993317 -8.05742,13.25229 -3.48188,5.914315 -4.3672,7.604771 -4.11222,7.851921 0.37232,0.360879 5.79521,3.528825 6.04064,3.528825 0.0891,0 0.61383,-1.089937 1.166,-2.422082 0.55217,-1.332146 1.32932,-2.786252 1.72702,-3.231348 0.65508,-0.733162 0.78814,-0.779618 1.41499,-0.494006 0.38056,0.173392 0.69192,0.490498 0.69192,0.704679 0,0.214181 -0.40843,1.517729 -0.90763,2.896773 -3.06094,8.455989 -6.03492,22.045724 -7.15792,32.708485 -0.22223,2.110052 -0.45653,4.230093 -0.52065,4.711203 -0.10592,0.794621 -0.01,0.942367 1.04753,1.613015 0.64027,0.406048 1.68178,0.935962 2.31446,1.177585 1.10577,0.422296 1.1627,0.49919 1.46955,1.984831 0.47399,2.294831 1.98691,4.272699 4.06115,5.309207 0.89656,0.448017 1.7855,0.814576 1.97542,0.814576 0.18992,0 0.45702,0.20875 0.59357,0.463888 0.19182,0.358419 -0.10453,1.025481 -1.30346,2.933974 -1.73274,2.758235 -2.92533,5.618627 -3.8232,9.169847 -0.53625,2.120988 -0.67024,2.386518 -1.22596,2.429408 -0.34315,0.0265 -0.94092,-0.14688 -1.32838,-0.38526 z"
       id="path7" /><path
       style="fill:#000000"
       d="m 271.57956,101.65562 c -0.42766,-0.0623 -0.63002,-0.51182 -1.08176,-2.402863 -0.71389,-2.988424 -2.36491,-6.841878 -4.17295,-9.739598 -0.78491,-1.25796 -1.37646,-2.419204 -1.31455,-2.580541 0.0619,-0.161338 0.68376,-0.496211 1.38189,-0.744163 1.88063,-0.667941 3.23773,-1.786705 4.27656,-3.525512 0.85562,-1.432131 0.9255,-1.711677 0.91886,-3.675747 -0.008,-2.445997 -0.51845,-3.695449 -2.17341,-5.322622 -2.02402,-1.990046 -5.04116,-2.601474 -7.4767,-1.515165 -2.18234,0.973379 -4.49791,3.802399 -4.49791,5.495262 0,0.639574 -0.80732,1.730332 -1.28069,1.730332 -0.12229,0 -1.18431,-0.578156 -2.36005,-1.284791 -1.17573,-0.706635 -2.91467,-1.623282 -3.86432,-2.036992 -1.59598,-0.695284 -1.7391,-0.826048 -1.89151,-1.72812 -0.42757,-2.530765 1.6815,-6.896723 4.16201,-8.615714 1.17345,-0.813207 1.27588,-1.130173 0.30523,-0.944623 -1.86068,0.355692 0.7877,-1.824611 2.8784,-2.369671 0.95017,-0.247714 1.52528,-0.255766 2.35973,-0.03304 1.00371,0.267906 1.20088,0.232932 2.18321,-0.387248 0.59392,-0.374963 1.72053,-0.94243 2.50358,-1.261037 0.81203,-0.330401 1.29515,-0.658742 1.12448,-0.764223 -0.16458,-0.101716 -0.29924,-0.416036 -0.29924,-0.69849 0,-0.645809 -0.14826,-0.643461 -0.98614,0.01561 -0.86065,0.676993 -1.20748,0.665826 -2.05442,-0.06615 -0.95428,-0.824728 -1.9798,-5.810753 -1.98374,-9.644842 -0.003,-3.176119 0.28668,-4.047345 1.34699,-4.047345 0.91711,0 1.03493,0.192201 1.2206,1.991177 0.0822,0.796623 0.18865,1.448406 0.23652,1.448406 0.0479,0 0.89441,-0.520702 1.88121,-1.157116 2.44415,-1.576295 5.09669,-2.874215 7.5483,-3.693485 2.1765,-0.727336 5.83622,-1.499399 7.10741,-1.499399 0.42048,0 0.76452,-0.09746 0.76452,-0.216588 0,-0.312932 -4.6384,-6.069656 -6.33708,-7.86496 l -1.44228,-1.524324 -0.80667,0.475085 c -0.44368,0.261297 -2.59262,1.390767 -4.77543,2.509933 -9.90892,5.080481 -18.8029,7.656348 -30.55937,8.850593 -6.6538,0.675905 -6.07308,0.758088 -9.26042,-1.310524 -9.08001,-5.893002 -14.68133,-11.323422 -18.96021,-18.381715 -1.45212,-2.395356 -1.15532,-3.29686 1.96244,-5.960748 l 1.65536,-1.414378 -2.47109,-1.987503 c -10.79606,-8.6833173 -16.01517,-20.2831528 -14.97268,-33.277882 1.23116,-15.346697 9.77711,-29.833614 22.1159,-37.490415 1.95698,-1.2144 2.07619,-1.343243 2.26293,-2.445816 0.10841,-0.640137 0.39514,-1.53324 0.63717,-1.984674 l 0.44006,-0.820789 -1.56046,-1.563898 c -4.58622,-4.596323 -5.23422,-10.845565 -1.65751,-15.984981 2.27758,-3.272674 7.1322,-6.215041 14.38455,-8.718405 7.35938,-2.540312 13.64996,-3.58234 20.33341,-3.36821 6.27214,0.200952 9.91606,1.150604 16.02561,4.176472 8.75767,4.337399 18.06708,12.093272 23.99869,19.993837 3.88902,5.17994 5.27937,8.354605 5.06829,11.572675 -0.15725,2.397357 -0.98319,4.069134 -2.91128,5.892632 -2.2599,2.137326 -5.20102,3.376108 -8.8173,3.713801 -0.93874,0.08766 -1.7068,0.210133 -1.7068,0.27216 0,0.06203 0.73722,0.93619 1.63827,1.942584 5.33825,5.962375 8.83386,13.056569 10.63286,21.578939 3.04682,14.4336549 -0.47067,28.5534248 -9.43239,37.86314 -3.88483,4.035678 -7.37203,6.426764 -12.63387,8.662709 l -2.5903,1.100711 3.27733,3.221355 c 4.44894,4.372954 9.29821,10.540238 12.60982,16.037144 1.50133,2.492026 1.59187,3.338786 0.46916,4.387557 l -0.79163,0.73949 0.67392,1.523857 c 1.81275,4.098937 2.37645,10.231328 1.32436,14.407386 -1.38462,5.495972 -4.53363,10.278951 -8.90998,13.533235 -1.64929,1.226429 -1.79914,1.415067 -1.62432,2.044853 0.51829,1.867155 -0.0655,13.436299 -0.86433,17.128466 -0.13935,0.644066 -2.36789,1.864266 -3.18684,1.744896 z m -2.89518,-50.1626 c 3.87237,-1.891491 9.2792,-3.338851 12.47278,-3.338851 h 1.15867 l -0.98521,-1.483831 -0.98521,-1.483832 -1.86177,0.175268 c -5.35135,0.503779 -11.1586,2.76724 -15.84388,6.175378 l -1.28212,0.93263 0.18408,1.480215 c 0.10124,0.814117 0.23423,1.562218 0.29553,1.662445 0.0613,0.100227 1.0912,-0.523935 2.28866,-1.387025 1.19747,-0.863091 3.24878,-2.092669 4.55847,-2.732397 z M 238.79563,41.153679 c 7.19927,-1.182713 11.66302,-2.345024 16.85503,-4.388868 2.93858,-1.156777 12.37226,-5.771152 12.37226,-6.051749 0,-0.09447 -0.62508,-0.785576 -1.38906,-1.535793 l -1.38907,-1.364032 -1.5875,0.365247 c -3.18672,0.733191 -7.25004,1.201159 -11.891,1.369471 l -4.74725,0.172167 -4.38087,3.822772 c -7.68456,6.705584 -8.97201,7.860028 -8.99176,8.062837 -0.0314,0.322685 0.96673,0.235057 5.14922,-0.452052 z m -5.20649,-3.507471 3.97725,-3.761085 -0.97746,-0.166774 c -1.965,-0.335267 -8.09152,-1.763432 -9.11732,-2.125358 -1.41693,-0.499922 -1.58208,-0.473265 -1.38247,0.223157 1.06329,3.709814 3.117,9.74018 3.29487,9.674845 0.12533,-0.04604 2.01764,-1.776188 4.20513,-3.844785 z m -7.89955,2.149568 c 0,-0.08597 -0.83216,-2.735112 -1.84924,-5.88698 -1.01708,-3.151868 -2.09606,-6.742725 -2.39775,-7.979681 l -0.54851,-2.249013 -2.24164,-1.031409 c -1.23291,-0.567275 -3.14675,-1.547205 -4.25299,-2.177622 l -2.01134,-1.146213 -1.4852,1.288131 c -2.7182,2.357516 -2.64514,2.164471 -1.48555,3.924856 3.04915,4.628944 6.906,8.675554 11.65263,12.225963 1.44937,1.084103 2.9924,2.239372 3.42896,2.567263 0.79948,0.600467 1.19063,0.753133 1.19063,0.464705 z m 15.875,-9.500982 c 0.49365,-0.509323 0.80035,-0.926042 0.68156,-0.926042 -0.1188,0 -1.89833,-0.246045 -3.95451,-0.546767 -4.32847,-0.63305 -6.84357,-1.221602 -10.83278,-2.53495 -1.57352,-0.51804 -2.90975,-0.893088 -2.9694,-0.833439 -0.17774,0.177744 0.42788,2.170419 0.76037,2.501832 0.46793,0.466414 4.21889,1.568525 7.87794,2.314707 4.17013,0.850404 4.31028,0.871525 6.06981,0.914669 1.35329,0.03318 1.54041,-0.03718 2.36701,-0.89001 z m 3.43958,-10.747828 c 3.34099,-0.836044 5.66784,-2.15601 8.07176,-4.578904 2.89362,-2.916456 4.29834,-5.9233077 4.76778,-10.2055605 0.37041,-3.3788892 -1.20826,-8.1622804 -3.77142,-11.4274416 -2.39619,-3.0524715 -7.31333,-6.1824089 -11.44937,-7.2879339 -2.41917,-0.646622 -8.4641,-0.634848 -10.84792,0.02113 -8.82381,2.428134 -14.46374,10.6489654 -12.84724,18.7263071 0.25648,1.2815752 0.89904,3.1634368 1.52301,4.4603836 0.88758,1.8449063 1.50946,2.6736073 3.50036,4.6645033 2.12197,2.121969 2.76287,2.586569 5.18859,3.761298 5.41559,2.622664 10.46695,3.216882 15.86445,1.866218 z m 20.81871,-22.7377173 c 0.40966,-0.1541849 1.19648,-0.7191727 1.7485,-1.2555285 3.30685,-3.213044 1.33896,-9.0599232 -3.04365,-9.0431162 -2.40462,0.0092 -4.55343,2.193521 -4.8813,4.961933 -0.13597,1.1480348 -0.0483,1.5963176 0.55267,2.8245805 1.13848,2.3269503 3.41451,3.3436502 5.62378,2.5121312 z M 223.8375,-14.816666 c 0.69892,-0.698915 0.70447,-2.587876 0.0116,-3.946008 -1.45708,-2.856128 -4.79851,-3.711114 -7.6394,-1.954727 -2.0283,1.254 -2.81009,4.070636 -1.34716,4.853569 0.4216,0.225635 0.68842,0.196256 1.1875,-0.130754 0.35404,-0.231978 0.64371,-0.588492 0.64371,-0.792254 0,-0.203761 0.30824,-0.736798 0.68498,-1.184525 0.77483,-0.920835 1.77106,-1.062606 3.00027,-0.426961 0.86633,0.448 1.07725,0.877454 1.07725,2.193404 0,1.698301 1.30841,2.461097 2.38125,1.388256 z m 48.02081,-26.222558 c 4.04629,-0.496228 6.16256,-1.634247 6.73212,-3.620189 0.38204,-1.332094 -0.32116,-1.926007 -4.14623,-3.501857 -13.06706,-5.383357 -28.6235,-9.326505 -42.14003,-10.681382 -5.26369,-0.527625 -10.57797,-0.780718 -11.85671,-0.564676 -1.01428,0.171361 -1.07911,0.240779 -1.37436,1.471491 -0.45743,1.906788 -0.14877,2.794163 1.56959,4.512528 2.7683,2.768301 7.89245,4.793556 19.61094,7.750976 10.27367,2.59279 18.39112,4.141209 24.32971,4.640939 3.73011,0.313888 4.65981,0.312888 7.27497,-0.0078 z m 12.77228,-6.190923 c 4.20945,-0.992461 6.68132,-3.194426 7.11182,-6.335263 0.86939,-6.342912 -13.99294,-21.474232 -27.55595,-28.054664 -5.95465,-2.889048 -10.48262,-4.092448 -16.19049,-4.302952 -8.59174,-0.316859 -18.23798,1.739113 -25.89513,5.519213 -5.49959,2.714983 -7.59338,5.326592 -7.59338,9.471315 0,2.765597 0.95446,4.894459 3.28035,7.316639 0.89961,0.936847 1.72627,1.703359 1.83703,1.703359 0.11076,0 0.39344,-0.578211 0.62816,-1.284914 0.48702,-1.46627 1.17986,-2.215378 2.59635,-2.807227 2.8524,-1.19181 9.48707,-1.821764 15.1895,-1.442225 4.88272,0.324982 5.35705,0.429428 6.43615,1.417252 0.50933,0.466239 1.23293,1.036832 1.60801,1.267983 1.99158,1.227351 5.96217,1.625129 8.2933,0.830834 1.47964,-0.504163 1.76924,-0.441948 6.50286,1.397016 4.59289,1.784291 9.21234,4.161704 13.13039,6.757589 3.5358,2.342633 6.82268,5.128519 7.10674,6.023517 0.0837,0.263621 0.0434,0.963386 -0.0896,1.555034 -0.13294,0.591648 -0.1763,1.141124 -0.0964,1.221058 0.26378,0.263771 2.01499,0.143767 3.70023,-0.253564 z"
       id="path6" /><path
       style="fill:#000000"
       d="m 249.0486,-65.719366 c -2.59631,-0.849977 -4.46223,-2.444045 -5.14141,-4.392358 -0.16798,-0.481843 -0.52565,-1.096323 -0.79484,-1.36551 -0.59449,-0.594489 -0.61439,-1.067807 -0.0877,-2.086239 0.45684,-0.88344 1.45881,-1.241266 2.47502,-0.883884 0.86798,0.305252 1.33721,1.49818 0.87833,2.23297 -0.43521,0.696885 0.19476,1.939594 1.26338,2.4922 0.96764,0.500383 0.97236,0.500138 1.18859,-0.06167 0.2328,-0.604844 0.9923,-4.60667 0.88619,-4.669324 -0.045,-0.02655 -0.43893,-0.164947 -0.87549,-0.307556 -0.53294,-0.174092 -0.82285,-0.463177 -0.8823,-0.879794 -0.12086,-0.846925 0.31826,-1.208051 1.38186,-1.136422 1.2147,0.08181 1.48594,-0.617241 0.5693,-1.4672 -1.11384,-1.032811 -0.80953,-2.624577 0.64563,-3.37707 1.09274,-0.565075 2.16455,-0.496376 3.20732,0.205576 1.90174,1.280182 1.97928,3.095398 0.17005,3.980664 -1.25543,0.614285 -1.31163,1.331007 -0.13092,1.669629 0.72114,0.20682 0.85989,0.373098 0.85989,1.030462 0,0.729046 -0.0762,0.789419 -1.09036,0.863539 l -1.09037,0.07969 -0.31959,2.036975 c -0.17577,1.120336 -0.38263,2.304865 -0.45967,2.632287 -0.12115,0.51485 -0.0342,0.595313 0.64322,0.595313 0.43082,0 1.18787,-0.275208 1.68233,-0.611573 0.73182,-0.497833 0.88495,-0.758226 0.82333,-1.400118 -0.1558,-1.623047 2.14005,-2.685028 3.37957,-1.563274 0.97194,0.879593 0.47645,3.298133 -0.67888,3.313657 -0.13406,0.0018 -0.49405,0.390028 -0.79999,0.862726 -1.25652,1.941467 -5.12588,3.049811 -7.70245,2.206299 z"
       id="path5" /><path
       style="fill:#000000"
       d="m 263.78959,-43.675376 c -10.72058,-1.193166 -32.76419,-6.684606 -38.57032,-9.608527 -2.22005,-1.118002 -4.0276,-2.638315 -4.0276,-3.387581 0,-0.489186 0.13721,-0.508956 2.44739,-0.352621 11.80194,0.798666 22.83936,2.673614 33.66823,5.719287 8.54035,2.402015 19.14981,6.199385 18.66763,6.681571 -0.90076,0.900759 -7.79211,1.436822 -12.18533,0.947871 z"
       id="path4" /><path
       style="fill:#000000"
       d="m 239.40686,8.602851 c -0.53191,-0.1956338 -1.26388,-0.5501479 -1.62659,-0.787809 -0.48991,-0.3209958 -0.98962,-0.3905596 -1.94332,-0.2705232 -2.45906,0.3095083 -5.2361,-1.0400666 -6.70575,-3.2588296 -0.86872,-1.3115326 -1.04125,-2.6942531 -0.40234,-3.2245029 0.67179,-0.55754167 1.62397,-0.086425 2.35848,1.1669348 1.21581,2.0746193 3.1952,3.1472144 4.58275,2.4833033 0.66994,-0.3205512 0.78838,-0.6080243 1.33583,-3.2422055 l 0.60071,-2.890467 -1.33528,-1.1680713 c -1.60866,-1.4072147 -2.12707,-2.3365612 -2.15781,-3.8682822 -0.0654,-3.2583771 3.16502,-4.5356924 7.78625,-3.0786924 2.90017,0.9143761 4.42016,2.657051 4.04797,4.6409959 -0.231,1.2313407 -1.6308,2.6023484 -3.23756,3.1709556 -0.70285,0.2487277 -1.53015,0.5501824 -1.83845,0.6698992 -0.47167,0.18315417 -0.65035,0.69303663 -1.12696,3.2157434 l -0.56642,2.9980764 0.71595,0.6273616 c 0.63602,0.5573134 0.9016,0.61246 2.3786,0.4939009 1.27686,-0.1024941 1.97129,-0.3315238 2.99289,-0.9870815 1.27624,-0.8189653 1.35702,-0.8360839 1.98951,-0.4216557 0.97683,0.6400428 0.85574,1.5429344 -0.33292,2.4823872 -1.93041,1.5256877 -5.25871,2.0786194 -7.51554,1.248562 z"
       id="path3" /><path
       style="fill:#000000"
       d="m 234.54485,152.11899 c -1.36995,-0.39849 -2.44188,-1.70427 -2.87254,-3.49921 -0.24788,-1.03314 0.27255,-2.79524 1.15486,-3.91019 0.67681,-0.85527 0.72547,-1.05328 0.52023,-2.11666 -0.12454,-0.64523 -0.23162,-1.59281 -0.23796,-2.10575 l -0.0115,-0.93262 -2.57969,-0.44293 c -4.64857,-0.79818 -9.96369,-2.91399 -13.46,-5.35808 l -1.71956,-1.20206 -1.836,1.64381 c -1.45361,1.30145 -1.836,1.80009 -1.836,2.39417 0,1.77754 -2.07628,4.25299 -3.84559,4.58491 -4.10361,0.76984 -6.87982,-3.29406 -4.65109,-6.80841 0.84119,-1.32641 2.5371,-2.33888 3.91769,-2.33888 0.66725,0 1.08095,-0.30839 2.34478,-1.74791 1.06214,-1.2098 1.459,-1.84723 1.28908,-2.07055 -3.50316,-4.60403 -6.01908,-10.16728 -6.74429,-14.91311 -0.1713,-1.12102 -0.34619,-2.16932 -0.38863,-2.32954 -0.044,-0.16592 -1.0104,-0.35528 -2.24525,-0.43992 -2.1407,-0.14673 -2.18244,-0.13763 -3.30644,0.72034 -1.35371,1.03331 -2.64321,1.3285 -4.09531,0.93748 -1.37138,-0.36927 -2.83405,-1.82712 -3.06424,-3.05414 -0.38321,-2.04267 0.28952,-3.64837 2.0282,-4.84094 0.76224,-0.52282 1.15554,-0.60286 2.54276,-0.51743 1.37343,0.0846 1.81604,0.2417 2.71419,0.96347 0.59023,0.47432 1.20094,0.78343 1.35712,0.6869 0.15618,-0.0965 1.13407,-0.25176 2.17309,-0.34497 l 1.88911,-0.16947 0.3181,-1.90329 c 0.84062,-5.029853 2.75265,-9.623612 5.70431,-13.704921 l 1.72055,-2.379039 -1.35042,-1.638075 c -0.79857,-0.96866 -1.56668,-1.645945 -1.8796,-1.657333 -3.01777,-0.109822 -5.48063,-2.842704 -4.89638,-5.433207 0.47916,-2.12453 1.95889,-3.311769 4.12965,-3.31336 2.22337,-0.0016 3.8762,1.449806 4.43669,3.896093 0.24893,1.086462 0.56893,1.553842 1.91758,2.800766 l 1.61879,1.496685 2.17135,-1.453373 c 4.02029,-2.690934 8.46255,-4.462663 13.36896,-5.332014 l 2.4517,-0.434408 0.145,-2.273307 c 0.1242,-1.947235 0.0767,-2.349207 -0.33124,-2.802473 -1.35979,-1.510904 -1.73408,-3.96034 -0.86846,-5.683267 1.03274,-2.055533 4.03232,-2.820527 6.08502,-1.551886 2.21914,1.3715 2.5315,4.972919 0.60383,6.961776 l -0.79407,0.819266 0.30142,2.252761 0.30141,2.25276 3.00735,0.578477 c 5.11473,0.983841 8.65196,2.397556 12.84759,5.134759 l 2.04619,1.334919 1.52568,-1.390218 c 1.24491,-1.134364 1.59033,-1.639088 1.8769,-2.74249 0.6946,-2.674493 2.32817,-4.005355 4.67725,-3.81055 2.38435,0.197728 3.83509,1.795123 3.83509,4.222782 0,2.068738 -1.8156,3.96499 -4.15444,4.338985 -0.91329,0.14604 -1.29243,0.422109 -2.36904,1.724974 -0.70495,0.85311 -1.24967,1.643361 -1.21049,1.756114 0.0392,0.112753 0.71052,1.097974 1.49186,2.18938 2.68284,3.747489 4.51923,8.080555 5.43437,12.822714 0.29873,1.54801 0.54315,2.86805 0.54315,2.93343 0,0.0654 0.63708,0.11886 1.41573,0.11886 0.77865,0 1.78544,0.12888 2.23732,0.2864 0.74467,0.2596 0.9243,0.20387 1.91877,-0.59531 1.00284,-0.8059 1.25242,-0.88172 2.90265,-0.88172 1.40929,0 1.9694,0.12025 2.55249,0.54798 1.22459,0.89831 1.71515,2.12234 1.60878,4.0142 -0.0815,1.44892 -0.20043,1.76274 -0.96873,2.55543 -1.69517,1.74897 -4.33598,1.79737 -6.25255,0.1146 -0.89941,-0.78969 -0.96503,-0.80511 -2.0884,-0.49059 -0.67612,0.18931 -1.60716,0.24915 -2.2325,0.1435 -1.20923,-0.2043 -1.06038,-0.46807 -1.60794,2.84946 -0.72088,4.36766 -3.06428,9.8497 -5.72144,13.38452 l -1.21191,1.61218 1.54106,1.72328 c 1.15623,1.29295 1.71467,1.72331 2.23634,1.72342 2.52063,5.3e-4 5.04544,2.97271 4.64122,5.4636 -0.21993,1.35528 -1.16094,2.68985 -2.30993,3.27602 -2.93264,1.49612 -6.49122,-0.46503 -6.807,-3.75137 -0.10981,-1.14284 -0.27538,-1.4991 -0.95435,-2.05345 -0.45181,-0.36889 -1.20312,-1.06388 -1.66957,-1.54442 l -0.84809,-0.87371 -1.79775,1.23841 c -3.84521,2.64885 -9.24148,4.75078 -13.94115,5.43028 l -2.20779,0.31921 -0.14531,2.26706 c -0.1359,2.12018 -0.10493,2.30991 0.47804,2.92852 0.83662,0.88777 1.18618,1.89493 1.18618,3.41768 0,1.62901 -0.80232,2.86628 -2.3733,3.65992 -1.24019,0.62652 -2.00234,0.6986 -3.32352,0.3143 z m 5.43318,-17.28416 c 9.58868,-1.55661 16.95791,-6.85025 21.03571,-15.11087 1.6673,-3.37754 2.37779,-5.77521 2.77146,-9.35287 0.4936,-4.48573 -0.28674,-9.80712 -2.101,-14.327337 -2.29256,-5.711898 -7.80182,-11.377476 -13.88501,-14.278978 -4.30334,-2.052565 -8.18862,-2.790121 -13.59632,-2.581031 -3.87427,0.149799 -7.34509,0.918898 -10.80759,2.394848 -8.15907,3.477951 -13.99236,10.822829 -16.00602,20.153698 -0.20094,0.93112 -0.33497,3.22846 -0.32417,5.55626 0.0157,3.38788 0.11796,4.34123 0.69846,6.51374 1.31406,4.91781 3.62335,8.93842 7.20358,12.54191 6.43601,6.47783 16.45607,9.87941 25.0109,8.49063 z"
       id="path2" /><path
       style="fill:#000000"
       d="m 231.64271,132.79172 c -3.28477,-0.47419 -8.10353,-2.43062 -11.37708,-4.61912 -3.12342,-2.08813 -6.29264,-5.54583 -8.18551,-8.93061 -1.22028,-2.18205 -2.65976,-6.6402 -3.01988,-9.35268 -0.42984,-3.23774 0.003,-7.3484 1.14614,-10.880651 3.16181,-9.771206 10.72445,-16.074135 21.17175,-17.645165 3.37764,-0.507918 5.11459,-0.50302 8.43509,0.02379 9.41897,1.494342 16.97983,7.491211 20.30361,16.103734 2.50068,6.479702 2.36589,14.345572 -0.34892,20.363152 -4.86239,10.7778 -15.9924,16.68905 -28.1252,14.93755 z m 1.45521,-10.24716 v -6.04295 l -0.70878,-0.32294 c -0.69174,-0.31518 -0.81272,-0.21924 -5.03465,3.99243 l -4.32589,4.31536 0.60289,0.50336 c 0.96044,0.80189 5.26516,2.76124 6.97565,3.17505 2.74821,0.66486 2.49078,1.24574 2.49078,-5.62031 z m 10.1272,5.16192 c 1.98223,-0.63073 6.0984,-2.75996 5.95154,-3.07864 -0.0393,-0.0853 -2.0564,-2.09463 -4.48246,-4.46523 l -4.41101,-4.31016 -0.81451,0.42119 -0.81451,0.4212 v 5.98319 5.98318 l 1.25677,-0.15004 c 0.69122,-0.0825 2.1826,-0.44463 3.31418,-0.80469 z m 12.37235,-10.54501 c 0.92034,-1.80462 2.1067,-5.31272 2.1067,-6.22959 0,-0.26247 -1.41039,-0.33604 -6.44186,-0.33604 -6.4182,0 -6.44292,0.002 -6.73164,0.59531 -0.26752,0.54958 0.0596,0.93497 4.25905,5.01708 l 4.54882,4.42178 0.61098,-0.71761 c 0.33603,-0.39468 1.07761,-1.6326 1.64795,-2.75093 z m -32.29223,-1.05004 c 3.88821,-3.73933 4.28984,-4.20843 4.13418,-4.82864 l -0.17242,-0.68695 h -6.47725 -6.47725 v 0.75233 c 0,1.55784 1.77468,5.66216 3.42891,7.93009 0.45806,0.62798 0.92832,1.10423 1.04504,1.05833 0.11671,-0.0459 2.15017,-1.94723 4.51879,-4.22516 z m 14.55787,-5.05257 c 1.41886,-0.96567 1.98168,-1.92377 1.98168,-3.37344 0,-2.2459 -1.65183,-3.83646 -3.98426,-3.83646 -1.32653,0 -1.51276,0.0808 -2.53049,1.09858 -0.93347,0.93347 -1.11808,1.30158 -1.22836,2.44937 -0.10887,1.13303 -0.022,1.51368 0.53885,2.36119 1.22533,1.85159 3.55916,2.43287 5.22258,1.30076 z m -10.45478,-6.811 0.38946,-0.75313 -4.68827,-4.545504 -4.68827,-4.545502 -0.71169,0.852481 c -1.64768,1.973657 -4.01228,8.223425 -3.55862,9.405635 0.12459,0.32469 1.16161,0.38248 6.50807,0.3627 l 6.35986,-0.0235 z m 30.08688,-0.51587 c -0.11702,-1.79406 -1.27984,-4.959713 -2.60541,-7.092924 -0.65558,-1.055026 -1.25673,-1.91823 -1.33587,-1.91823 -0.0791,0 -2.20693,1.972723 -4.72842,4.383828 -4.62037,4.418116 -4.76938,4.626616 -4.00855,5.608896 0.19961,0.25771 1.70735,0.31902 6.50736,0.26458 l 6.24756,-0.0708 z m -25.0712,-4.555706 0.67391,-0.307053 v -6.439822 c 0,-5.081713 -0.072,-6.439823 -0.34129,-6.439823 -1.52819,0 -6.61888,1.904423 -8.76132,3.277603 l -1.56199,1.001142 4.60186,4.607503 c 2.53102,2.534126 4.6273,4.607503 4.65839,4.607503 0.0311,0 0.35979,-0.138174 0.73044,-0.307053 z m 12.45079,-4.194085 4.49499,-4.501137 -0.79375,-0.66139 c -1.8079,-1.50643 -6.44243,-3.371638 -8.99583,-3.620449 l -0.79375,-0.07735 -0.0709,6.272909 -0.0709,6.272908 0.73237,0.397228 c 0.4028,0.218475 0.79321,0.401994 0.86758,0.40782 0.0744,0.0058 2.15796,-2.014918 4.63021,-4.490544 z"
       id="path1" /></g></svg>
