<?xml version="1.0" encoding="UTF-8" standalone="no"?>
<!-- Created with Inkscape (http://www.inkscape.org/) -->

<svg
   width="298.77939mm"
   height="346.6188mm"
   viewBox="0 0 298.77939 346.6188"
   version="1.1"
   id="svg1"
   xml:space="preserve"
   sodipodi:docname="stamp_goal_heart_2.svg"
   inkscape:version="1.4.4 (dcaf3e7, 2026-05-05)"
   xmlns:inkscape="http://www.inkscape.org/namespaces/inkscape"
   xmlns:sodipodi="http://sodipodi.sourceforge.net/DTD/sodipodi-0.dtd"
   xmlns="http://www.w3.org/2000/svg"
   xmlns:svg="http://www.w3.org/2000/svg"><sodipodi:namedview
     id="namedview1"
     pagecolor="#ffffff"
     bordercolor="#000000"
     borderopacity="0.25"
     inkscape:showpageshadow="2"
     inkscape:pageopacity="0.0"
     inkscape:pagecheckerboard="0"
     inkscape:deskcolor="#d1d1d1"
     inkscape:document-units="mm"
     inkscape:zoom="0.01984649"
     inkscape:cx="554.25417"
     inkscape:cy="730.60777"
     inkscape:window-width="944"
     inkscape:window-height="250"
     inkscape:window-x="0"
     inkscape:window-y="33"
     inkscape:window-maximized="0"
     inkscape:current-layer="layer1"><inkscape:page
       x="-3.1147069e-20"
       y="0"
       width="298.77939"
       height="346.6188"
       id="page2"
       margin="0"
       bleed="0" /></sodipodi:namedview><defs
     id="defs1" /><g
     inkscape:label="Layer 1"
     inkscape:groupmode="layer"
     id="layer1"
     transform="translate(38.12002,5.1593804)"><path
       style="fill:#000000"
       d="M 102.50371,335.84983 C 85.715728,325.06454 76.739038,319.45952 40.348955,297.04059 32.199788,292.02011 23.567756,286.70464 21.166663,285.22845 c -2.401094,-1.4762 -10.080626,-6.19863 -17.0656261,-10.4943 -6.9850004,-4.29566 -18.2959379,-11.17766 -25.1354179,-15.29333 -16.108715,-9.69345 -16.337833,-9.83876 -16.727088,-10.60803 -0.483796,-0.95611 -0.475168,-167.326036 0.0087,-168.196997 0.185347,-0.333608 4.072771,-2.855923 8.920313,-5.787853 C 12.659293,49.752576 34.635224,36.874811 89.335293,5.6023543 L 108.15913,-5.15938 h 3.05065 3.05065 l 13.44739,7.7138355 c 7.39606,4.2426095 18.20989,10.4198415 24.03072,13.7271825 20.05563,11.395411 43.33003,24.915153 61.38334,35.656642 3.05594,1.818244 7.87797,4.674707 10.71563,6.347697 2.83765,1.672989 12.10623,7.204636 20.59684,12.292549 13.71394,8.21794 15.47894,9.349987 15.80886,10.139592 0.5455,1.305568 0.55939,167.424942 0.0141,168.729982 -0.28614,0.68485 -1.14203,1.33586 -4.29948,3.27033 -26.70902,16.36374 -32.91897,20.20173 -60.29846,37.26679 -46.17852,28.78211 -54.79444,34.174 -64.69063,40.48372 -18.59136,11.85369 -17.11067,10.97586 -18.51365,10.97586 -1.1665,0 -1.77493,-0.34208 -9.95139,-5.59497 z m 12.22536,-2.11955 c 8.53274,-5.58562 23.06054,-14.7343 49.3126,-31.0539 3.56526,-2.21634 16.48354,-10.25619 28.70729,-17.86632 27.06348,-16.84888 35.96968,-22.36492 57.74532,-35.76445 l 4.29948,-2.64566 V 165.11078 83.82161 L 236.86823,73.09553 C 218.6242,62.178862 213.63673,59.221922 196.05625,48.899182 180.5155,39.774105 162.43886,29.366973 142.74271,18.205361 140.41438,16.885918 132.97297,12.657371 126.20625,8.8085899 119.43953,4.9598093 113.29274,1.4708145 112.54672,1.0552683 l -1.35641,-0.75553851 -3.2738,1.81937721 c -2.96922,1.6501109 -8.309733,4.6887992 -38.72797,22.035765 -29.304867,16.71203 -48.527955,27.970026 -77.258337,45.246319 -8.58573,5.162813 -17.540567,10.531011 -19.899639,11.929328 l -4.289222,2.542395 -0.0032,80.962506 -0.0032,80.9625 8.922617,5.33877 c 10.489841,6.27651 28.396737,17.2282 62.500744,38.22488 13.606199,8.37687 26.584012,16.35884 28.839585,17.73771 8.596745,5.25532 28.24817,17.59485 36.115622,22.67773 4.51115,2.91448 8.27611,5.30328 8.36658,5.30843 0.0905,0.005 1.1025,-0.60468 2.24895,-1.35516 z"
       id="path22" /><path
       style="fill:#000000"
       d="m 110.46354,324.91431 c -1.55156,-1.04009 -17.641382,-11.23846 -21.298958,-13.50012 -1.382448,-0.85484 -5.668698,-3.5106 -9.525,-5.90169 -9.814388,-6.08539 -24.582421,-15.17027 -34.925002,-21.48488 -2.546614,-1.55483 -10.107083,-6.21853 -16.801042,-10.36378 -15.912635,-9.85396 -31.8550095,-19.5858 -43.559389,-26.59033 -6.981339,-4.178 -9.469505,-5.79666 -9.587534,-6.23707 -0.267191,-0.997 -0.191233,-151.440385 0.07682,-152.145411 0.159148,-0.418591 1.235591,-1.233401 3.108854,-2.353235 C -6.0943725,76.800906 6.8527253,69.114143 19.976038,61.388064 41.382253,48.785596 56.498017,40.023902 72.628123,30.868837 103.52028,13.335181 110.32454,9.5716932 111.125,9.5759141 c 0.3638,0.00192 3.16177,1.4070249 6.21771,3.1224599 3.05594,1.715434 8.11609,4.548003 11.24479,6.294597 26.63342,14.86809 53.24304,30.237684 92.075,53.182093 19.74129,11.664415 26.11304,15.491386 26.59507,15.973417 0.34505,0.345058 0.39244,9.649136 0.39244,77.061699 0,72.68952 -0.024,76.69004 -0.46302,77.06942 -0.25467,0.22008 -3.73724,2.42716 -7.73907,4.90461 -4.00182,2.47745 -11.80041,7.30705 -17.33021,10.73245 -5.52979,3.42539 -12.61401,7.80833 -15.74271,9.73986 -3.12869,1.93153 -9.49854,5.88811 -14.1552,8.79241 -4.65667,2.90429 -14.89605,9.26831 -22.75417,14.14226 -13.41792,8.32238 -44.01048,27.44545 -52.5088,32.82267 -2.34703,1.48506 -4.08534,2.41409 -4.49792,2.40389 -0.36985,-0.009 -1.26776,-0.41569 -1.99537,-0.90344 z m 4.10104,-3.62063 c 5.76723,-3.67568 24.93378,-15.66042 40.87813,-25.56086 10.18646,-6.32516 27.80771,-17.30401 39.15834,-24.39746 11.35062,-7.09344 23.97125,-14.95752 28.04583,-17.47573 4.07458,-2.51821 10.3574,-6.40219 13.96182,-8.63106 3.60442,-2.22887 6.90862,-4.23614 7.34265,-4.46058 l 0.78916,-0.40809 -0.0666,-75.19232 -0.0666,-75.192319 -8.64455,-5.16784 c -4.7545,-2.842312 -10.29091,-6.137729 -12.30313,-7.323148 -2.01221,-1.185419 -5.6231,-3.317526 -8.0242,-4.738015 -31.78606,-18.804654 -61.48309,-35.881614 -89.69375,-51.577437 -5.16599,-2.874248 -10.54163,-5.866266 -11.94586,-6.648928 -1.40423,-0.782662 -2.70281,-1.423022 -2.88573,-1.423022 -0.36256,0 -2.51518,1.174101 -13.346539,7.2796 -3.929063,2.214762 -12.3825,6.977337 -18.785417,10.5835 -23.819018,13.415018 -40.989226,23.35049 -66.576233,38.524067 -4.0202605,2.38409 -13.4523952,7.966116 -20.9602997,12.404501 l -13.6507353,8.069792 0.0036,74.877089 0.0036,74.87708 4.482776,2.57637 c 6.31617,3.63007 28.014361,16.86776 48.675376,29.69599 3.565261,2.21364 11.780574,7.2748 18.256251,11.24702 25.74315,15.79102 31.974324,19.63079 40.745835,25.1084 5.020469,3.13517 12.045156,7.57143 15.610416,9.85835 3.56526,2.28693 6.66089,4.1655 6.87917,4.1746 0.21828,0.009 1.17078,-0.4767 2.11666,-1.07955 z"
       id="path21" /><path
       style="fill:#000000"
       d="m 109.98101,59.540089 c -0.22476,-0.224761 -0.46616,-1.198884 -0.57372,-2.315104 -0.62372,-6.472898 -2.27633,-9.605469 -6.03564,-11.440738 -1.17237,-0.572339 -2.66642,-1.047485 -3.888317,-1.236581 -1.905496,-0.294887 -2.914978,-0.779574 -2.906365,-1.395448 0.01,-0.712108 0.609061,-1.024357 2.931207,-1.527723 6.416765,-1.39095 8.885315,-4.389936 9.795575,-11.90043 0.23479,-1.937268 0.46292,-2.833451 0.8095,-3.180032 0.57403,-0.574024 0.76009,-0.59264 1.38155,-0.13822 0.34526,0.252463 0.53623,0.940876 0.71561,2.579688 0.33347,3.04658 1.14863,6.170968 1.98023,7.590002 1.51268,2.58119 3.96872,4.222268 7.25311,4.846395 3.34414,0.635482 3.30026,0.617096 3.39412,1.421975 0.0478,0.4095 -0.0301,0.861502 -0.17307,1.004448 -0.14295,0.142947 -1.31311,0.474982 -2.60037,0.737856 -2.72299,0.556068 -3.77016,0.968118 -5.31607,2.091798 -1.41936,1.031693 -2.53804,2.569379 -3.25967,4.480579 -0.59537,1.5768 -1.30265,5.341445 -1.30435,6.942623 -0.002,1.500639 -1.29616,2.346077 -2.20333,1.438912 z"
       id="path20" /><path
       style="fill:#000000"
       d="m 70.560443,68.209467 c -0.07328,-0.118571 -0.213423,-0.690927 -0.311426,-1.271902 -0.660216,-3.913825 -2.244111,-6.209257 -4.99461,-7.238351 -0.830322,-0.310663 -1.720579,-0.564842 -1.978348,-0.564842 -0.257769,0 -0.699788,-0.17162 -0.982262,-0.381379 -0.807358,-0.599522 -0.192881,-1.249225 1.557462,-1.646749 2.005401,-0.455451 2.802102,-0.898216 3.997913,-2.221836 1.221161,-1.351679 1.837863,-2.731183 2.261373,-5.058476 0.47408,-2.60519 1.615035,-2.762921 1.983299,-0.274181 0.640497,4.328494 2.636626,6.69962 6.350049,7.542984 2.56844,0.583323 2.624676,1.743501 0.104048,2.146566 -2.069328,0.330898 -4.104329,1.697611 -5.12762,3.443726 -0.371145,0.63331 -0.888491,2.147323 -1.149658,3.364472 -0.397644,1.853184 -0.564449,2.226213 -1.025916,2.294274 -0.303087,0.0447 -0.611024,-0.01574 -0.684304,-0.134306 z m 1.2436,-7.062834 c 0.636671,-1.086398 1.598481,-2.052668 2.661758,-2.674103 0.393685,-0.23009 0.302208,-0.371508 -0.694958,-1.074376 -0.655335,-0.461922 -1.430891,-1.342065 -1.806523,-2.050137 -0.362013,-0.682401 -0.733261,-1.240729 -0.824997,-1.240729 -0.09174,0 -0.313506,0.354197 -0.492821,0.787103 -0.337969,0.815929 -2.432042,2.917064 -2.907259,2.917064 -0.553584,0 -0.2378,0.450348 0.856783,1.221881 0.635428,0.447891 1.414465,1.335931 1.785484,2.035308 0.362012,0.6824 0.676861,1.240728 0.699664,1.240728 0.0228,0 0.348093,-0.523232 0.722869,-1.162739 z"
       id="path19" /><path
       style="fill:#000000"
       d="m 148.07937,69.254685 c -0.0652,-0.109141 -0.26458,-0.912813 -0.44311,-1.785938 -0.69219,-3.385373 -2.47382,-5.298456 -5.43186,-5.832649 -1.4026,-0.253297 -1.77387,-0.566299 -1.4312,-1.206592 0.1615,-0.301766 0.55431,-0.502413 0.98663,-0.503969 1.15644,-0.0042 3.33365,-1.169604 4.2407,-2.270005 0.86992,-1.055371 1.47506,-2.603916 1.77431,-4.540431 0.14709,-0.951882 0.26849,-1.124479 0.79094,-1.124479 0.48588,0 0.65248,0.182936 0.78311,0.859896 0.475,2.46159 0.7641,3.334341 1.42302,4.295924 0.945,1.379067 2.12148,2.147344 3.8966,2.5446 2.31065,0.517102 2.57735,1.570071 0.48373,1.90982 -2.71857,0.441163 -4.86827,2.49187 -5.40798,5.15895 -0.16724,0.826477 -0.40947,1.770576 -0.53829,2.097998 -0.22592,0.574252 -0.8825,0.80555 -1.1266,0.396875 z m 1.25643,-6.271053 c 0.37964,-0.647802 1.0458,-1.387848 1.48035,-1.644546 0.43456,-0.256698 0.7901,-0.534444 0.7901,-0.617214 0,-0.08277 -0.35554,-0.360516 -0.7901,-0.617214 -0.43455,-0.256698 -1.10238,-0.999587 -1.48405,-1.650865 l -0.69395,-1.184141 -0.76802,1.211033 c -0.42241,0.666068 -1.12305,1.413052 -1.55698,1.659964 -0.43393,0.246912 -0.78897,0.508463 -0.78897,0.581223 0,0.07276 0.3582,0.336126 0.796,0.585256 0.43779,0.24913 1.12165,0.989507 1.51968,1.645283 0.39803,0.655775 0.74214,1.196082 0.76469,1.200681 0.0226,0.0046 0.35162,-0.521657 0.73125,-1.16946 z"
       id="path18" /><path
       style="fill:#000000"
       d="m 177.15091,89.51387 c -0.0647,-0.192107 -0.30766,-1.420848 -0.53999,-2.730536 -0.5212,-2.938116 -1.41974,-4.859984 -2.84095,-6.076486 -1.05058,-0.899264 -3.44962,-1.99175 -4.38041,-1.994781 -0.24921,-8.12e-4 -0.90676,-0.127453 -1.46124,-0.281424 -0.87959,-0.244253 -0.99767,-0.369375 -0.92604,-0.981312 0.0727,-0.620755 0.24935,-0.735131 1.53731,-0.995168 5.48368,-1.107147 7.34602,-3.234287 8.20433,-9.370881 0.2867,-2.049862 0.58544,-2.521553 1.34092,-2.117236 0.31548,0.168841 0.50159,0.761036 0.63723,2.027621 0.41012,3.829634 1.7216,6.512644 3.88241,7.942603 0.60741,0.401966 2.11826,0.977513 3.35744,1.278992 3.4099,0.829595 3.62068,1.880779 0.49861,2.486692 -5.08075,0.986043 -6.83144,3.153247 -7.81061,9.66888 -0.16439,1.093885 -0.30118,1.337581 -0.79013,1.40762 -0.32523,0.04659 -0.64422,-0.07248 -0.70888,-0.264584 z"
       id="path17" /><path
       style="fill:#000000"
       d="m 40.551366,89.49531 c -0.142592,-0.181901 -0.408444,-1.283229 -0.590783,-2.447396 -0.795954,-5.081882 -2.762248,-7.411291 -7.024242,-8.321406 -2.668426,-0.569821 -2.548796,-0.50859 -2.459799,-1.259023 0.07627,-0.643091 0.262777,-0.742086 2.353918,-1.2494 4.649428,-1.12796 6.335989,-3.231432 7.191289,-8.968949 0.303502,-2.035946 0.755121,-2.776639 1.427742,-2.341615 0.15305,0.09899 0.475376,1.356414 0.71628,2.794282 0.518991,3.097671 1.077921,4.468146 2.434804,5.970053 1.25773,1.392157 2.473602,2.017472 5.076765,2.610948 1.842088,0.419964 2.048699,0.529823 2.048699,1.089336 0,0.758909 -0.290823,0.920007 -2.622865,1.452912 -4.291318,0.980627 -6.376829,3.584692 -6.950198,8.678338 -0.238921,2.122502 -0.877083,2.916183 -1.60161,1.99192 z"
       id="path16" /><path
       style="fill:#000000"
       d="M 7.04871,104.96757 C 6.968978,104.83856 6.7747199,103.92536 6.6170254,102.93823 6.2862872,100.86789 5.5848435,99.325915 4.4032442,98.071695 3.3445688,96.947954 2.409679,96.461226 0.2649744,95.917203 -0.99870507,95.59666 -1.4796834,95.349888 -1.5497341,94.986144 c -0.1061904,-0.551402 0.60597568,-1.191354 1.32579026,-1.191354 1.0228958,0 3.37238514,-1.119765 4.31082094,-2.054534 1.3219512,-1.316785 1.8698976,-2.453429 2.3850625,-4.947502 0.502318,-2.431877 0.5456774,-2.522965 1.2009724,-2.522965 0.6573431,0 0.775279,0.231894 1.0798893,2.123351 0.5717296,3.550116 2.5606877,6.175651 5.2930067,6.987063 0.767836,0.228022 1.604076,0.414587 1.858311,0.414587 0.254235,0 0.649108,0.186862 0.877495,0.415249 0.712602,0.712602 0.09863,1.326376 -1.676053,1.675524 -3.092379,0.608389 -5.5198743,3.015667 -6.0985912,6.047797 -0.5284299,2.76866 -0.6592303,3.10173 -1.251776,3.1875 -0.308834,0.0447 -0.6267518,-0.0243 -0.7064838,-0.15329 z m 1.1506154,-6.9328 C 8.5187995,97.263491 10.386096,95.350924 11.131911,95.031086 11.436738,94.900363 11.413454,94.804027 11.010905,94.53044 9.7106904,93.646767 9.0323468,92.931264 8.4448453,91.823813 7.8160011,90.63843 7.4083287,90.296814 7.4083287,90.955246 c 0,0.594525 -1.3267697,2.309849 -2.3726218,3.06746 l -1.0165761,0.736404 1.2173598,0.906902 c 0.6805625,0.507002 1.4569665,1.397299 1.7607448,2.019033 0.2988617,0.611672 0.6182371,1.117688 0.7097231,1.12448 0.091486,0.0068 0.3130511,-0.341848 0.4923669,-0.774755 z"
       id="path15" /><path
       style="fill:#000000"
       d="m 212.26088,105.37031 c -0.14538,-0.1819 -0.34507,-0.9989 -0.44375,-1.81556 -0.25113,-2.07842 -1.42919,-4.427347 -2.81562,-5.614083 -1.04373,-0.893394 -3.12302,-1.764627 -4.21146,-1.764627 -0.77309,0 -1.40554,-0.65379 -1.21456,-1.25554 0.12713,-0.400544 0.48383,-0.603564 1.2892,-0.733759 3.68465,-0.595657 6.01344,-3.006168 6.81245,-7.051534 0.54994,-2.78432 0.47973,-2.640885 1.24883,-2.551372 0.66228,0.07708 0.73321,0.212055 1.02203,1.944763 0.73425,4.404967 2.47239,6.457827 6.31524,7.458712 1.32227,0.34439 1.87547,0.615583 1.94008,0.95108 0.12537,0.651022 -0.42749,1.23765 -1.16641,1.23765 -1.00466,0 -3.34194,0.985582 -4.39274,1.852325 -1.18148,0.974528 -2.16795,2.975125 -2.60914,5.291425 -0.34424,1.80728 -0.62811,2.38125 -1.17773,2.38125 -0.18265,0 -0.45103,-0.14883 -0.59642,-0.33073 z m 2.34461,-8.576927 c 0.34818,-0.378258 0.9597,-0.8904 1.35894,-1.138093 l 0.72588,-0.450351 -1.12276,-0.809769 c -0.61751,-0.445373 -1.47801,-1.403073 -1.91222,-2.128223 l -0.78947,-1.318454 -0.74606,1.306298 c -0.41033,0.718463 -1.26994,1.675567 -1.91025,2.126897 l -1.16419,0.820599 1.01996,0.661357 c 0.56098,0.363747 1.41867,1.281722 1.90597,2.039945 l 0.88601,1.378588 0.55756,-0.900526 c 0.30667,-0.495289 0.84245,-1.21001 1.19063,-1.588268 z"
       id="path14" /><path
       style="fill:#000000"
       d="m 174.70483,118.70729 c -0.14798,-0.0957 -0.47059,-1.08709 -0.71691,-2.20314 -0.72404,-3.28058 -2.21739,-4.90033 -5.11597,-5.54901 -2.50199,-0.55992 -2.48309,-1.48584 0.0418,-2.0509 2.80781,-0.62836 4.53917,-2.62482 5.15222,-5.94113 0.32452,-1.75545 0.45158,-2.02457 0.95587,-2.02457 0.50429,0 0.63135,0.26912 0.95586,2.02457 0.59536,3.22056 2.0171,4.95566 4.73268,5.77578 1.84073,0.55591 2.24896,0.77292 2.24896,1.19548 0,0.44346 -0.46631,0.68159 -2.33534,1.19258 -2.6895,0.73531 -4.25895,2.82144 -4.80995,6.39347 -0.16761,1.08656 -0.58073,1.52859 -1.10926,1.18687 z m 0.88113,-6.29559 c 0.25114,-0.52924 0.90705,-1.27338 1.45758,-1.65364 0.55053,-0.38027 1.00548,-0.75502 1.01101,-0.83279 0.006,-0.0778 -0.34551,-0.35141 -0.78006,-0.60811 -0.43456,-0.2567 -1.11239,-1.01667 -1.50631,-1.68884 -0.64844,-1.10648 -0.74266,-1.17411 -0.99584,-0.7148 -0.15379,0.27902 -0.84872,1.09341 -1.54427,1.80975 -1.29688,1.33564 -1.29788,1.35085 -0.13272,2.01858 0.25009,0.14332 0.76742,0.79418 1.14962,1.44635 0.38219,0.65217 0.73753,1.18576 0.78964,1.18576 0.0521,0 0.30021,-0.43302 0.55135,-0.96226 z"
       id="path13" /><path
       style="fill:#000000"
       d="m 46.889546,118.70165 c -0.159824,-0.0988 -0.474375,-1.06103 -0.699003,-2.13835 -0.675168,-3.23812 -2.190227,-4.94746 -5.043985,-5.69076 -0.859657,-0.22392 -1.685775,-0.52988 -1.835819,-0.67992 -0.49685,-0.49685 0.229308,-1.14087 1.646187,-1.45998 2.802566,-0.63119 4.557384,-2.54509 5.11766,-5.5816 0.360341,-1.95292 0.557943,-2.34479 1.182372,-2.34479 0.395172,0 0.560847,0.30585 0.788258,1.45521 0.821521,4.15204 2.035343,5.51621 5.927505,6.66171 0.737712,0.21712 1.221439,0.52422 1.27561,0.80985 0.09538,0.50292 -0.383327,0.75741 -2.386737,1.26884 -1.475835,0.37675 -3.20155,1.76996 -3.908261,3.15522 -0.278022,0.54497 -0.641824,1.77371 -0.808447,2.73054 -0.292648,1.6805 -0.645763,2.19077 -1.25534,1.81403 z m 1.094254,-6.64054 c 0.381537,-0.57654 1.03607,-1.30138 1.454517,-1.61075 l 0.760812,-0.56249 -1.287066,-1.28707 c -0.707886,-0.70788 -1.287066,-1.4643 -1.287066,-1.68092 0,-0.85303 -0.512534,-0.63225 -1.181247,0.50882 -0.386335,0.65923 -1.093081,1.45468 -1.570546,1.76767 l -0.868117,0.56906 1.060289,0.81208 c 0.583159,0.44664 1.248811,1.19632 1.479226,1.66596 0.230415,0.46964 0.492412,0.85659 0.582215,0.8599 0.0898,0.003 0.475445,-0.46571 0.856983,-1.04226 z"
       id="path12" /><path
       style="fill:#000000"
       d="m 79.155761,123.75885 c -0.403991,-0.34484 -0.98971,-2.18509 -2.294773,-7.20989 -3.52799,-13.5836 -4.95373,-18.925551 -5.143222,-19.270586 -0.106589,-0.194081 -0.963474,-0.611894 -1.90419,-0.928474 -3.401456,-1.144693 -5.216285,-3.594025 -5.243631,-7.076913 -0.01387,-1.766273 1.127853,-4.31458 2.42032,-5.402118 3.085281,-2.596094 7.411747,-2.61292 10.203381,-0.03968 0.642191,0.591951 1.405881,1.543304 1.697088,2.114117 1.088747,2.134119 0.871073,5.492845 -0.485539,7.491924 -0.35804,0.527602 -0.554196,1.046511 -0.435902,1.153132 1.415912,1.276191 18.136831,13.517748 18.275152,13.379428 0.10329,-0.10329 2.704116,-5.32922 5.779615,-11.61317 l 5.59181,-11.425371 -1.38236,-1.243996 c -4.53484,-4.080943 -3.04391,-11.137212 2.70642,-12.808877 4.00427,-1.164074 8.05231,1.081905 9.22587,5.118806 0.91255,3.139052 -0.23291,6.245762 -3.10161,8.412211 l -0.69101,0.521856 5.7181,11.581325 c 3.14495,6.369726 5.83716,11.548946 5.98268,11.509376 0.51699,-0.14059 18.12396,-13.503435 18.12396,-13.755218 0,-0.140901 -0.24026,-0.561617 -0.5339,-0.934924 -0.83901,-1.066634 -1.40441,-3.36966 -1.20195,-4.895878 0.79978,-6.029093 7.75296,-8.587269 12.49501,-4.597099 0.4266,0.358966 1.11738,1.346923 1.53506,2.195459 2.05338,4.171589 -0.15569,9.147101 -4.62738,10.422319 -0.6515,0.185792 -1.26574,0.40703 -1.36497,0.491639 -0.15503,0.132187 -4.35711,15.809072 -6.03396,22.511122 -0.30947,1.23693 -0.67432,2.67605 -0.81076,3.19804 -0.1618,0.619 -0.48295,1.05609 -0.9234,1.25677 -0.50109,0.22831 -8.71945,0.30769 -31.85439,0.30769 -29.311323,0 -31.21157,-0.0277 -31.721519,-0.46302 z m 11.860905,-4.00565 1.190625,-0.18829 -1.564246,-0.20945 c -0.860335,-0.11521 -2.798957,-0.29759 -4.308049,-0.4053 -1.509092,-0.10772 -2.843934,-0.3051 -2.966314,-0.43863 -0.122381,-0.13353 -1.181003,-3.10028 -2.352494,-6.59278 -1.981793,-5.90821 -3.849472,-11.41295 -4.164678,-12.27485 -0.07414,-0.20273 -0.200692,-0.302707 -0.281226,-0.222174 -0.147858,0.147859 4.791661,20.142874 5.098823,20.639864 0.17323,0.2803 7.062286,0.053 9.347559,-0.30839 z M 70.389569,90.222914 c 0.246794,-1.207051 0.705732,-1.90861 1.590421,-2.431208 0.60769,-0.358972 0.784377,-0.636119 0.725698,-1.138312 -0.06538,-0.559512 -0.233878,-0.67674 -1.072402,-0.746088 -2.300238,-0.190236 -4.221159,2.851499 -2.948366,4.668666 0.597741,0.853395 1.496017,0.667349 1.704649,-0.353058 z m 77.179051,0.595313 c 0.14328,-0.181901 0.34538,-0.684682 0.44911,-1.117291 0.10374,-0.432608 0.68165,-1.241733 1.28426,-1.798054 0.89677,-0.827899 1.04439,-1.093337 0.81326,-1.462397 -0.15585,-0.248852 -0.69166,-0.486311 -1.19573,-0.529919 -2.11224,-0.182732 -3.93111,2.924424 -2.72222,4.650352 0.4602,0.657026 0.97971,0.754505 1.37132,0.257309 z M 108.63944,80.09855 c 0.16091,-0.106912 0.3789,-0.663424 0.48441,-1.236693 0.13738,-0.746362 0.5048,-1.328367 1.29404,-2.049804 0.91729,-0.838488 1.05347,-1.08529 0.81182,-1.471235 -0.1597,-0.255055 -0.66603,-0.5011 -1.12517,-0.546766 -1.84123,-0.183125 -3.49335,2.159885 -2.94884,4.182018 0.23782,0.883204 0.52164,1.231654 1.05888,1.30003 0.0728,0.0093 0.26395,-0.07064 0.42486,-0.17755 z"
       id="path11" /><path
       style="fill:#000000"
       d="m 109.10135,260.46444 c -2.2136,-1.16041 -11.395576,-7.31785 -16.364866,-10.9743 -22.175372,-16.31685 -38.202237,-33.3017 -46.175876,-48.93597 -3.284216,-6.43952 -5.906897,-14.04786 -7.159577,-20.76979 -0.520601,-2.79357 -0.617881,-4.19091 -0.626274,-8.99584 -0.0086,-4.91395 0.07302,-6.09925 0.599275,-8.70478 1.995537,-9.88002 6.778875,-18.59109 13.341278,-24.29616 9.361495,-8.13849 22.092502,-10.69417 33.955802,-6.81644 8.431495,2.75598 16.124218,8.75523 21.245968,16.56889 1.10951,1.69266 2.22579,3.45871 2.48061,3.92456 0.25482,0.46585 0.61165,0.79755 0.79296,0.73712 0.1813,-0.0604 0.74672,-0.84391 1.25647,-1.74105 2.89782,-5.09995 8.24259,-11.05311 12.83309,-14.29385 4.15173,-2.93098 9.33874,-5.1529 14.71751,-6.30444 2.79846,-0.59912 10.28547,-0.66461 13.06374,-0.11427 4.36543,0.86473 9.16496,2.86151 13.15636,5.47351 2.64196,1.72892 7.668,6.83487 9.52514,9.67658 3.06009,4.68242 5.10746,9.59444 6.39295,15.33791 3.63325,16.233 -1.57638,35.1098 -14.47375,52.44475 -10.7517,14.45103 -27.219,29.86432 -44.63091,41.77423 -5.68493,3.88855 -10.81929,6.8202 -11.94553,6.82074 -0.23988,1.1e-4 -1.13285,-0.36502 -1.98437,-0.8114 z m 7.5799,-44.65465 c 3.55955,-1.15335 7.43699,-4.14397 9.13961,-7.04927 0.96078,-1.63944 1.97289,-4.44079 1.97289,-5.46062 0,-1.21991 -1.2548,-2.34886 -2.61073,-2.34886 -1.40135,0 -2.22591,0.77476 -2.80723,2.63766 -2.33041,7.46809 -12.33815,10.30615 -18.66689,5.29369 -1.32362,-1.04832 -3.05535,-3.65486 -3.56224,-5.36176 -0.564401,-1.90054 -1.268924,-2.56959 -2.705849,-2.56959 -1.295331,0 -2.303329,0.75721 -2.604292,1.95634 -0.287739,1.14644 0.82745,4.20231 2.351012,6.4423 2.221927,3.26676 5.584289,5.63707 9.492919,6.69207 2.60129,0.70213 7.46619,0.58929 10.0008,-0.23196 z M 75.638434,207.8772 c 2.030993,-0.78647 3.403047,-1.81951 4.181987,-3.14867 0.860856,-1.46894 0.78044,-3.51099 -0.19428,-4.9335 -1.576413,-2.30063 -5.600244,-3.82064 -9.352136,-3.53279 -4.952244,0.37993 -8.362069,3.15922 -8.03624,6.55019 0.22798,2.37263 1.914585,4.06661 5.192939,5.21563 1.491327,0.52269 2.138918,0.59972 4.271378,0.5081 1.696599,-0.0729 2.975978,-0.28707 3.936352,-0.65896 z m 79.315046,0.0901 c 3.76571,-1.12344 5.96707,-4.02686 5.14174,-6.78156 -1.36085,-4.54212 -9.0271,-6.45764 -14.61292,-3.65125 -3.88739,1.95308 -4.74688,6.06711 -1.78772,8.55708 2.73552,2.30179 7.28833,3.06028 11.2589,1.87573 z M 89.226975,195.87401 c 2.289751,-0.68603 4.459302,-3.50492 5.229186,-6.79426 0.472339,-2.01808 0.217878,-6.12277 -0.494234,-7.97246 -0.768627,-1.99648 -2.313726,-3.93753 -3.739011,-4.69717 -1.00651,-0.53645 -1.484678,-0.62058 -3.092181,-0.54409 -1.601253,0.0762 -2.078073,0.21516 -3.019297,0.87994 -2.344872,1.65616 -3.645176,4.45871 -3.870888,8.34295 -0.416847,7.17343 3.869799,12.31806 8.986425,10.78509 z m 48.490575,-0.30758 c 2.22874,-1.03788 3.75471,-3.18251 4.49321,-6.31487 1.7853,-7.57238 -2.90377,-14.99023 -8.42537,-13.32847 -3.96204,1.19239 -6.34065,6.04935 -5.71122,11.66192 0.30956,2.76032 1.13077,4.68705 2.72021,6.38212 2.11241,2.25281 4.38999,2.77894 6.92317,1.5993 z"
       id="path10" /><path
       style="fill:#000000"
       d="m 134.13426,267.6083 c -0.22502,-0.42044 -0.20314,-0.68047 0.0946,-1.12448 0.94345,-1.40689 6.73352,-8.24956 7.40149,-8.74703 0.68245,-0.50827 0.79512,-0.51998 1.4552,-0.15123 0.50189,0.28038 0.74,0.65085 0.79762,1.24098 0.0745,0.76293 -0.29253,1.23643 -3.94149,5.08497 -3.34308,3.52593 -4.14973,4.2437 -4.76918,4.2437 -0.48283,0 -0.8487,-0.19273 -1.03825,-0.54691 z"
       id="path9" /><path
       style="fill:#000000"
       d="m 81.858363,264.04627 c -2.166215,-2.27541 -4.024608,-4.3669 -4.129763,-4.64775 -0.45134,-1.20546 1.00517,-2.45302 2.149112,-1.8408 0.270521,0.14478 2.083781,2.18492 4.029467,4.53364 2.882244,3.47928 3.537612,4.42428 3.537612,5.10098 0,0.73606 -0.09376,0.83971 -0.823928,0.91081 -0.754448,0.0735 -1.156055,-0.26865 -4.7625,-4.05688 z"
       id="path8" /><path
       style="fill:#000000"
       d="m 135.32235,275.97245 c -1.42751,-1.42751 -0.63548,-2.19746 3.84848,-3.74123 5.13347,-1.76738 9.63776,-3.59706 13.96445,-5.67248 4.23177,-2.0299 10.45057,-5.51067 10.31405,-5.77297 -2.52519,-4.85149 -3.37986,-7.62406 -3.37294,-10.9418 0.004,-2.11711 0.79393,-5.9434 1.66884,-8.08785 1.34205,-3.28945 4.87283,-7.73216 6.14503,-7.73216 1.19335,0 3.35891,3.5391 4.61409,7.54063 1.12933,3.60032 0.94375,9.54178 -0.39837,12.75392 -0.20041,0.47966 -0.26152,0.87212 -0.13579,0.87212 0.5257,0 7.2784,-5.66468 10.51966,-8.82469 l 3.49922,-3.41151 -1.51485,-1.65477 c -6.4163,-7.00893 -6.96916,-17.54438 -1.34931,-25.71256 1.03885,-1.50992 1.63611,-1.48847 3.18697,0.11446 2.56538,2.65151 4.5863,6.33861 5.53886,10.10547 0.47997,1.89806 0.53975,2.71128 0.41744,5.67912 -0.0785,1.90512 -0.22813,3.82104 -0.33249,4.2576 l -0.18975,0.79375 0.59913,-0.52916 c 0.86794,-0.76659 5.22864,-6.01701 6.92205,-8.33438 1.75698,-2.40436 4.46504,-6.67444 4.45419,-7.02336 -0.004,-0.13898 -0.90914,-0.84799 -2.01069,-1.5756 -3.84473,-2.53952 -6.34338,-6.1732 -7.54135,-10.96703 -1.2534,-5.01564 0.10819,-14.50065 2.12265,-14.78665 1.50631,-0.21386 7.0672,4.72469 9.00445,7.99672 1.41882,2.3964 2.43149,5.53185 2.59711,8.04126 0.0795,1.2048 0.23079,2.24383 0.33617,2.30895 0.54388,0.33614 4.7466,-10.08178 5.97733,-14.81689 1.18408,-4.55568 1.19266,-4.45634 -0.42026,-4.86972 -3.41975,-0.87645 -7.74493,-3.60966 -9.90144,-6.257 -3.13871,-3.8531 -4.91208,-9.27003 -4.91705,-15.01964 -0.003,-3.11893 0.43169,-3.33913 4.01051,-2.03302 5.92172,2.16116 10.78653,6.82122 12.83974,12.29932 0.40864,1.09029 0.81465,1.98363 0.90223,1.98521 0.55184,0.01 1.25423,-13.68366 0.91238,-17.78748 l -0.19095,-2.29237 -1.23409,-0.14942 c -8.08038,-0.97836 -13.77575,-4.85597 -17.21676,-11.72179 -0.98792,-1.97119 -2.13968,-6.09164 -2.14062,-7.65812 -9.8e-4,-1.63166 0.45686,-1.78896 3.64157,-1.25117 3.18124,0.5372 6.23067,1.6753 8.66089,3.2324 2.27101,1.45509 5.36944,4.54906 6.45986,6.45056 0.92939,1.6207 0.99261,1.36292 0.43827,-1.78691 -0.5613,-3.1894 -1.37027,-6.48542 -2.43162,-9.9073 l -0.94746,-3.05468 -1.36265,-0.71736 c -7.97611,-4.19893 -12.06026,-12.74946 -11.43814,-23.9467 0.0998,-1.79524 0.29123,-3.55306 0.42552,-3.90627 0.35226,-0.92651 1.39977,-0.82939 3.2795,0.30406 6.15636,3.71219 10.42408,8.6436 12.38841,14.31499 0.67371,1.94511 0.82921,2.8626 0.93418,5.51182 0.10675,2.69411 0.0394,3.49389 -0.44249,5.25018 l -0.56842,2.07191 1.03995,3.21649 c 0.878,2.71558 1.42332,4.75555 2.59264,9.69877 0.12614,0.53325 0.29384,0.22554 0.86514,-1.5875 1.50935,-4.78993 4.00762,-8.49149 7.79521,-11.54973 2.64131,-2.1327 4.22269,-2.96962 4.86156,-2.5729 1.13178,0.7028 2.01578,8.00989 1.40538,11.61678 -1.23796,7.31521 -5.68944,13.46326 -12.36195,17.07337 l -0.76206,0.41231 0.23313,4.94186 c 0.14075,2.98375 0.13449,6.3848 -0.0158,8.58353 -0.13691,2.00291 -0.22272,3.6806 -0.19069,3.7282 0.032,0.0476 0.56969,-0.66678 1.19478,-1.5875 1.61352,-2.37659 4.29547,-4.90385 6.78699,-6.39555 2.26752,-1.35759 5.80293,-2.70957 7.80198,-2.98358 1.73692,-0.23807 1.92464,0.21635 1.52792,3.69877 -0.5233,4.59371 -1.5353,7.62052 -3.63103,10.86019 -2.97288,4.59561 -7.60996,7.7658 -13.22064,9.03846 -1.14077,0.25876 -2.21435,0.63959 -2.38573,0.84629 -0.17138,0.2067 -0.39513,0.87025 -0.49723,1.47455 -0.30123,1.78297 -1.90417,7.20342 -3.17199,10.72628 -0.64821,1.80118 -1.17856,3.33998 -1.17856,3.41956 0,0.0796 0.26789,-0.0931 0.59531,-0.38371 1.86044,-1.65134 5.83342,-3.56625 9.00221,-4.33892 2.76757,-0.67484 9.06145,-1.00906 9.95875,-0.52884 0.87862,0.47022 0.64739,1.68828 -0.91953,4.8438 -2.67785,5.39275 -6.10162,9.01521 -10.56695,11.18017 -3.6304,1.76016 -5.128,2.07667 -10.15318,2.14584 l -4.33236,0.0596 -1.70737,2.73151 c -0.93905,1.50233 -2.82926,4.2944 -4.20046,6.20459 -1.3712,1.91019 -2.49309,3.54122 -2.49309,3.62452 0,0.0833 0.41024,-0.02 0.91165,-0.22947 1.82052,-0.76066 5.68717,-1.24634 8.74564,-1.09852 4.45825,0.21548 9.74801,1.78029 10.44957,3.09118 0.41236,0.77051 -0.41921,1.96469 -3.27168,4.69831 -3.77816,3.62074 -7.29181,5.46661 -11.95305,6.27946 -4.03021,0.70281 -7.34481,0.39598 -11.71506,-1.08445 l -2.73189,-0.92543 -2.83056,2.72733 c -1.55681,1.50003 -4.05218,3.79889 -5.54528,5.10858 l -2.71472,2.38125 2.58863,0.16257 c 4.48619,0.28174 9.01118,1.93566 12.20684,4.46168 1.86935,1.47764 1.78252,1.84773 -0.88696,3.78056 -4.50484,3.2617 -8.60539,4.70467 -13.38935,4.71168 -4.397,0.006 -8.22561,-1.11523 -11.93814,-3.49756 l -1.2673,-0.81323 -1.78386,1.05365 c -3.10709,1.83523 -11.46998,6.08153 -14.48758,7.35615 -5.06626,2.13995 -12.00007,4.33955 -13.70049,4.34618 -0.26128,0.001 -0.76729,-0.29039 -1.12448,-0.64757 z m 48.56307,-12.46366 c 1.80636,-0.52898 4.49792,-1.70885 4.49792,-1.97171 0,-0.31353 -2.45332,-1.28189 -4.41388,-1.74222 -2.85468,-0.67027 -9.34446,-0.16201 -9.34446,0.73183 0,0.1211 0.32742,0.22925 0.72761,0.24032 0.40018,0.0111 1.14117,0.16946 1.64663,0.35197 l 0.91903,0.33185 -0.88595,0.17719 c -0.48728,0.0974 -1.82358,0.17719 -2.96956,0.17719 -1.14597,0 -2.08359,0.10524 -2.08359,0.23385 0,0.30368 2.34451,1.23998 4.36562,1.74345 1.91346,0.47666 5.41184,0.34967 7.54063,-0.27372 z m -16.12658,-9.31035 c 1.68417,-5.16823 1.70168,-9.5686 0.0531,-13.3429 l -0.49926,-1.14304 -0.97425,1.98438 c -1.88993,3.84948 -2.47612,8.00576 -1.63328,11.58059 0.35178,1.49205 1.55284,4.29441 1.84054,4.29441 0.0626,0 0.60854,-1.51805 1.21315,-3.37344 z m 37.4944,-11.84158 c 0.911,-0.21479 2.39928,-0.76136 3.30729,-1.21461 1.60718,-0.80225 4.93842,-3.11905 4.95164,-3.44374 0.0137,-0.33684 -3.09064,-0.76413 -5.55147,-0.76413 -1.6623,0 -3.25915,0.17897 -4.55583,0.5106 -1.93587,0.49511 -5.07947,1.91517 -6.15799,2.78174 -0.49209,0.39539 -0.35769,0.41305 1.91823,0.25208 1.34607,-0.0952 2.44739,-0.10798 2.44739,-0.0284 0,0.0796 -0.98226,0.46148 -2.18281,0.84867 -3.13195,1.01008 -3.0846,0.98401 -2.18281,1.20182 1.43998,0.3478 6.29043,0.26054 8.00636,-0.14403 z m -17.94744,-9.01564 c 0.30109,1.03767 0.41804,1.19864 0.57672,0.79375 0.36627,-0.93461 0.25382,-6.01691 -0.16954,-7.66219 -0.4478,-1.74026 -2.21352,-5.44865 -2.66617,-5.59954 -0.50091,-0.16697 -1.46273,3.3526 -1.61875,5.92347 -0.22729,3.74501 0.45015,6.42193 2.36808,9.35747 l 0.86741,1.32763 0.13229,-2.72111 0.13229,-2.72111 z m 32.56295,-17.62703 c 2.0949,-0.82546 3.33982,-1.66007 5.31579,-3.56373 1.64018,-1.58015 3.88187,-4.47121 3.64815,-4.70493 -0.21755,-0.21755 -4.13245,0.61867 -5.85285,1.25015 -2.84164,1.04306 -4.65678,2.26682 -7.29398,4.91761 -1.3547,1.36168 -2.4141,2.52479 -2.35421,2.58467 0.0599,0.0599 0.97145,-0.31741 2.02571,-0.83843 3.13901,-1.55134 3.49771,-1.63004 2.13861,-0.46922 -0.65019,0.55533 -1.48362,1.27144 -1.85208,1.59136 l -0.66993,0.58166 1.71979,-0.38787 c 0.94589,-0.21333 2.37464,-0.6459 3.175,-0.96127 z m -17.55521,-2.12929 c -0.28912,-0.69894 -1.19395,-3.8133 -1.36445,-4.69636 l -0.17881,-0.92604 0.81446,1.2604 c 0.44795,0.69322 1.05874,1.73922 1.3573,2.32445 0.29856,0.58523 0.63631,1.00628 0.75055,0.93568 0.30581,-0.18901 0.0583,-3.79526 -0.35923,-5.23322 -0.58476,-2.01405 -2.01376,-4.64264 -3.51019,-6.45683 -0.76852,-0.93171 -1.50306,-1.69402 -1.63232,-1.69402 -0.40973,0 -0.61973,4.29246 -0.30822,6.30021 0.3275,2.1108 0.92411,4.07752 1.54007,5.07687 1.2982,2.10625 3.41999,4.38805 2.89084,3.10886 z m 24.13465,-29.96407 c -0.61249,1.01865 -1.27187,2.04006 -1.46528,2.2698 -0.65229,0.7748 -0.35844,0.74936 1.16232,-0.10066 2.18377,-1.22059 5.04298,-4.1701 6.20647,-6.40247 1.0818,-2.07564 2.21881,-5.36249 1.94853,-5.63277 -0.36861,-0.3686 -3.68017,1.67202 -5.55545,3.42332 -2.08497,1.94713 -4.06318,4.77944 -5.40481,7.73835 -0.45396,1.00118 -0.82538,1.88935 -0.82538,1.97369 0,0.0844 1.13562,-1.03345 2.52361,-2.48399 l 2.52361,-2.63735 z m -13.85087,0.51782 c -1.3674,-4.07342 -3.58195,-7.1145 -6.85912,-9.41915 -2.74892,-1.93315 -2.93617,-1.7846 -2.0016,1.58792 1.04523,3.77185 2.98834,6.72467 5.69721,8.65767 0.90123,0.64311 1.7137,1.16929 1.80548,1.16929 0.0918,0 -0.29057,-0.68461 -0.84967,-1.52136 -0.5591,-0.83674 -1.34055,-2.11667 -1.73655,-2.84427 l -0.71999,-1.32292 1.09366,1.19063 c 0.60151,0.65484 1.75551,1.99785 2.56445,2.98447 0.80893,0.98661 1.52122,1.7434 1.58286,1.68176 0.0617,-0.0617 -0.19788,-1.03546 -0.57673,-2.16404 z m 0.39227,-26.46407 c 0,-0.0821 -0.35233,-0.44583 -0.78295,-0.80817 -0.43061,-0.36234 -1.17475,-1.15627 -1.65364,-1.76427 l -0.8707,-1.10547 0.92604,0.63903 c 0.50932,0.35147 1.39634,1.00335 1.97115,1.44863 1.2174,0.94305 1.18452,0.66386 -0.19806,-1.68192 -1.21025,-2.05339 -3.71378,-4.50861 -5.93637,-5.8218 -1.81843,-1.07441 -4.45482,-2.0705 -4.73596,-1.78936 -0.14633,0.14633 1.43626,3.3263 2.26462,4.55042 1.36422,2.01595 3.86411,4.14422 6.23774,5.31047 2.35605,1.1576 2.77813,1.31294 2.77813,1.02244 z m 13.54415,-5.13481 c 1.52771,-2.00977 2.97903,-4.84018 3.53121,-6.88665 0.51946,-1.92523 0.83118,-6.35 0.44734,-6.35 -0.86572,0 -3.77152,3.47655 -5.08489,6.08366 -0.982,1.94933 -2.02492,5.32628 -2.24764,7.2778 l -0.18117,1.5875 0.68843,-0.79375 0.68842,-0.79375 -0.66584,1.55428 c -0.36622,0.85485 -0.66584,1.6046 -0.66584,1.66611 0,0.38729 2.40524,-1.91817 3.48998,-3.3452 z M 212.91559,129.3151 c -0.28821,-4.38053 -2.34998,-8.94774 -5.52756,-12.2446 -1.59328,-1.65309 -3.33845,-3.04681 -3.5501,-2.83516 -0.23619,0.23619 0.41816,5.39518 0.94614,7.45958 0.27251,1.0655 0.93315,2.80638 1.46808,3.86861 1.24915,2.48047 4.94404,6.45856 4.09887,4.41303 -1.11914,-2.70863 -2.39411,-6.10187 -2.3204,-6.17557 0.17316,-0.17317 3.36027,4.79795 4.04413,6.30786 0.37898,0.83675 0.75747,1.52136 0.84111,1.52136 0.0836,0 0.0835,-1.0418 -2.7e-4,-2.31511 z"
       id="path7" /><path
       style="fill:#000000"
       d="m 84.26979,276.44638 c -0.291041,-0.0683 -2.129598,-0.59876 -4.085681,-1.17885 -6.936198,-2.05697 -13.406157,-4.92055 -21.248143,-9.40434 l -3.902574,-2.23136 -1.210591,0.83291 c -1.801453,1.23943 -4.752072,2.51461 -6.991554,3.02156 -2.55231,0.57777 -6.948951,0.59015 -9.364245,0.0264 -2.353768,-0.54941 -5.706864,-2.12798 -8.240371,-3.87939 -2.22608,-1.53889 -2.772673,-2.15109 -2.579633,-2.88927 0.339472,-1.29815 5.718835,-4.31557 9.20404,-5.16278 1.018646,-0.24762 2.88135,-0.52611 4.139342,-0.61885 l 2.287257,-0.16864 -2.272184,-1.98437 c -1.249701,-1.09141 -3.774896,-3.43614 -5.611543,-5.21053 l -3.339359,-3.22614 -1.821408,0.66113 c -6.964407,2.52795 -13.811638,2.04331 -19.9727309,-1.41363 -1.6571742,-0.92983 -2.9594534,-1.96832 -4.9490532,-3.94659 -3.74091803,-3.7196 -3.85067156,-4.45641 -0.8453902,-5.67539 2.7944054,-1.13344 4.9656544,-1.59468 8.2417483,-1.75082 3.383278,-0.16125 6.356109,0.1868 8.488478,0.99379 1.562353,0.59127 1.558181,0.57522 -0.700712,-2.69634 -1.907956,-2.7633 -4.346411,-6.73043 -5.329834,-8.67112 l -0.647886,-1.27854 -4.0469048,-0.13636 C 4.6426172,220.29619 2.9621929,219.91017 -0.66146336,218.13136 -5.2901779,215.85917 -8.2228258,212.7838 -10.87497,207.4208 c -0.86698,-1.75315 -1.647702,-3.62738 -1.734937,-4.16495 -0.259213,-1.59734 0.0774,-1.77562 3.3526538,-1.77562 5.8376209,0 10.9581569,1.6001 15.0044274,4.68869 0.9227948,0.70438 1.1754668,0.80632 1.0703327,0.43178 -0.075692,-0.26964 -0.6855891,-2.24124 -1.3553259,-4.38132 -0.6697368,-2.14008 -1.5498442,-5.34319 -1.9557944,-7.11801 -0.4538666,-1.98432 -0.8890283,-3.30333 -1.1300538,-3.4253 -0.2155795,-0.10908 -1.61415093,-0.58119 -3.10793654,-1.04913 -7.41006746,-2.32125 -12.60533526,-7.79421 -14.50936826,-15.28491 -0.836765,-3.29194 -1.001506,-7.37474 -0.315408,-7.81682 0.94448,-0.60857 5.6850345,0.97416 9.1161685,3.04361 1.8372151,1.1081 4.9613733,4.21202 6.17562315,6.13562 0.50932294,0.80687 0.98557296,1.47219 1.05833338,1.47849 0.0727604,0.006 0.14611118,-2.96938 0.16300169,-6.61263 0.0168905,-3.64324 0.10985488,-7.39658 0.20658758,-8.34075 0.1757091,-1.71502 0.1750933,-1.7171 -0.64260666,-2.17205 -6.77101194,-3.76729 -10.89250064,-9.13182 -12.33977164,-16.06144 -0.509918,-2.44152 -0.487201,-6.6414 0.05015,-9.27208 0.476532,-2.33291 0.962483,-3.3 1.658204,-3.3 0.8459562,0 3.3373289,1.90163 6.0343545,4.60594 2.3730488,2.37946 2.8222753,2.98682 4.03255319,5.45206 0.74910292,1.52586 1.64926151,3.78632 2.00035251,5.02325 0.5742101,2.023 0.6571382,2.16921 0.8253723,1.45521 1.1112447,-4.71622 2.1406499,-8.62586 2.7946684,-10.61407 l 0.7934199,-2.41197 -0.7141161,-2.08594 c -1.3400393,-3.91427 -0.894922,-8.74218 1.2226082,-13.26087 1.3349822,-2.84878 2.904952,-5.03553 5.2025271,-7.2464 1.778263,-1.71117 5.138576,-4.07302 7.47037,-5.25068 1.589037,-0.80253 2.316637,-0.48354 2.514193,1.10226 0.566819,4.54992 0.343733,9.17981 -0.629978,13.07444 -0.72531,2.90108 -2.845453,7.00832 -4.673736,9.05418 -1.622095,1.81513 -4.096012,3.80106 -5.980332,4.80069 l -1.1855676,0.62894 -0.9484867,3.32659 c -1.5605816,5.47335 -2.9621132,11.92616 -2.5900884,11.92506 0.088152,-2.6e-4 0.5132,-0.55907 0.9445511,-1.2418 1.9029701,-3.01196 6.0023796,-6.22368 9.7028086,-7.60176 3.410846,-1.27023 7.675601,-1.85932 8.377709,-1.15722 0.454554,0.45456 0.393243,1.68295 -0.199714,4.00139 -1.137637,4.44812 -2.924289,7.63197 -5.965192,10.63007 -3.13304,3.08895 -6.204478,4.60287 -10.8986049,5.37195 l -2.8596149,0.46852 -0.1675118,1.70997 c -0.3083258,3.14742 -0.2331237,8.31825 0.1847309,12.70193 0.2277517,2.38932 0.445567,4.3757 0.4840339,4.41416 0.038467,0.0385 0.6418885,-1.09045 1.340937,-2.50871 1.0967127,-2.22505 1.620966,-2.92697 3.8232028,-5.11886 2.235112,-2.2246 2.896403,-2.70964 5.322573,-3.90397 1.523702,-0.75007 3.584318,-1.57151 4.579146,-1.82542 l 1.808778,-0.46165 0.525648,0.64849 c 0.468328,0.57777 0.506794,0.89514 0.352745,2.91041 -0.263428,3.44617 -0.625797,5.50637 -1.351862,7.6858 -2.121532,6.36821 -7.154352,10.91242 -14.060474,12.69541 -0.967479,0.24978 -1.1085908,0.37356 -0.997997,0.8754 0.749347,3.40034 1.6753894,6.83366 2.4355602,9.0299 1.0122308,2.92447 3.4525798,8.89225 3.7740098,9.22918 0.111281,0.11665 0.278006,-0.60216 0.3705,-1.59735 0.515936,-5.55128 4.299033,-11.55095 9.391473,-14.89408 2.030319,-1.33289 2.92737,-1.58863 3.433436,-0.97886 0.497813,0.59983 1.348725,4.15486 1.663013,6.94792 0.499129,4.43572 -0.407712,8.87658 -2.569857,12.58474 -1.252611,2.14827 -4.020185,5.03858 -5.988438,6.25401 -0.836745,0.5167 -1.521355,1.08323 -1.521355,1.25897 0,0.61121 2.998904,5.31542 5.567479,8.7334 2.914757,3.87863 6.190398,7.49268 5.934818,6.54794 -0.419729,-1.55149 -0.590881,-5.12358 -0.345431,-7.2094 0.540525,-4.59337 2.477255,-8.74478 5.656575,-12.12498 2.306264,-2.45198 2.754962,-2.45911 4.208179,-0.0669 3.855541,6.34691 4.42974,14.20184 1.47369,20.15979 -1.014248,2.04423 -2.902648,4.7156 -3.965928,5.6103 -0.441264,0.37129 -0.802297,0.77922 -0.802297,0.90651 0,0.28483 4.798443,4.97725 7.14375,6.9859 2.568587,2.19988 6.109057,4.98767 6.334307,4.98767 0.108981,0 -0.03716,-0.68461 -0.324753,-1.52135 -0.747306,-2.17426 -0.926571,-7.18254 -0.355854,-9.94178 0.529931,-2.56205 1.643112,-5.25292 3.09488,-7.48118 1.19653,-1.8365 1.964949,-2.26723 2.889482,-1.61966 1.102456,0.77219 3.481727,4.0787 4.611568,6.40876 1.704982,3.51618 2.11492,5.25342 2.122748,8.99584 0.0078,3.70726 -0.525218,5.83306 -2.304029,9.18979 -0.596335,1.12532 -1.032622,2.09034 -0.969527,2.14449 0.544009,0.46681 5.601326,3.24548 8.948108,4.9164 4.492338,2.24286 8.630842,3.97518 14.560577,6.09486 4.073932,1.45629 4.804756,1.77577 5.110839,2.23417 0.311152,0.46599 0.232226,1.65686 -0.12972,1.95724 -0.435516,0.36145 -1.516482,0.56331 -2.181333,0.40734 z M 45.50833,263.54399 c 0.945886,-0.20279 2.315105,-0.62985 3.042709,-0.94902 1.177384,-0.51647 1.260465,-0.60432 0.755222,-0.79858 -0.312233,-0.12005 -1.41762,-0.30203 -2.456418,-0.40439 -1.038797,-0.10236 -1.83521,-0.23962 -1.769806,-0.30502 0.0654,-0.0654 0.694541,-0.27232 1.398084,-0.45982 l 1.279168,-0.3409 -0.79375,-0.31849 c -2.771835,-1.11218 -5.397809,-1.32154 -8.454383,-0.67406 -2.074132,0.43937 -5.436243,1.65733 -5.436243,1.96933 0,0.32854 2.974071,1.572 5.078414,2.12329 2.307228,0.60444 5.003511,0.66222 7.357003,0.15766 z m 10.310427,-7.84997 c 1.482686,-3.13513 1.665519,-6.85206 0.54146,-11.00763 -0.584238,-2.15989 -1.803854,-4.7093 -2.252887,-4.7093 -0.417945,0 -1.376107,2.97868 -1.720586,5.34886 -0.33625,2.31357 -0.216193,4.02269 0.457197,6.50867 0.432361,1.59616 0.823848,1.6175 0.893726,0.0487 l 0.03535,-0.79375 0.201975,0.79375 c 0.111087,0.43656 0.216726,1.38906 0.234755,2.11666 0.03254,1.31323 0.46361,3.30729 0.714959,3.30729 0.0721,0 0.47442,-0.72597 0.894046,-1.61327 z m -32.998448,-13.6378 c 0.91722,-0.15161 1.416171,-0.62287 0.661458,-0.62475 -0.181901,-4.5e-4 -1.045104,-0.34851 -1.918229,-0.77347 -1.775289,-0.86403 -1.445357,-0.97209 1.322916,-0.43326 1.018646,0.19827 1.890217,0.32444 1.936823,0.28036 0.168492,-0.15933 -2.381906,-1.76893 -3.992752,-2.5199 -0.906531,-0.42261 -2.422144,-0.97302 -3.368029,-1.22313 -2.035548,-0.53823 -6.033739,-0.59237 -8.2825852,-0.11215 -1.8102098,0.38655 -1.7786169,0.48004 0.7789382,2.30508 1.718251,1.22611 3.92777,2.23691 6.268724,2.86777 1.439006,0.3878 4.914413,0.51086 6.592736,0.23345 z m 13.659173,-7.32694 c 1.187664,-2.37066 1.622924,-4.3896 1.604336,-7.44164 -0.01675,-2.75056 -0.880888,-6.69249 -1.43903,-6.56443 -0.436597,0.10017 -2.17197,3.16635 -2.783382,4.91788 -0.642443,1.84042 -0.97201,5.74367 -0.655024,7.75785 l 0.202465,1.28648 0.349266,-0.79375 c 0.321849,-0.73144 0.351047,-0.59644 0.371953,1.71979 l 0.02269,2.51354 0.754722,-0.88218 c 0.415097,-0.48519 1.122501,-1.61629 1.572008,-2.51354 z M 6.0854119,215.57759 c 0,-0.10456 -0.6250781,-0.83403 -1.3890625,-1.62104 l -1.3890626,-1.43093 2.3688855,1.21448 c 1.302887,0.66797 2.4185684,1.16481 2.4792921,1.10409 0.200859,-0.20086 -1.5314361,-2.19318 -3.4572036,-3.97615 -2.7058908,-2.50524 -6.3641102,-4.20754 -10.7175369,-4.98726 -1.189824,-0.2131 -1.1182984,0.17557 0.4408821,2.39576 2.3183574,3.30123 6.20799308,6.09554 9.8477121,7.07459 1.6978628,0.45671 1.8160938,0.47145 1.8160938,0.22646 z m 14.7771831,-3.59838 c 2.261328,-2.8218 3.309988,-6.22189 3.170282,-10.27907 -0.04845,-1.40701 -0.189796,-2.65717 -0.314103,-2.77813 -0.124308,-0.12096 -0.991768,0.6019 -1.927689,1.60635 -1.809514,1.94201 -3.244834,4.56465 -3.778958,6.90497 -0.376019,1.64757 -0.589922,5.15938 -0.314256,5.15938 0.11257,0 0.588511,-0.59237 1.057648,-1.31637 1.271954,-1.96296 1.391879,-1.83247 0.537178,0.5845 -0.424527,1.2005 -0.771868,2.22211 -0.771868,2.27025 0,0.25296 1.572761,-1.19227 2.341766,-2.15188 z m -6.79722,-28.46842 c 2.474206,-2.22244 4.463062,-5.97742 5.103987,-9.6364 0.169962,-0.97029 0.150775,-1.00663 -0.433791,-0.82157 -2.281231,0.72215 -6.289956,4.31569 -7.668735,6.87447 -0.830406,1.5411 -2.3796263,5.68363 -2.118671,5.66522 0.098975,-0.007 0.6299547,-0.64109 1.179954,-1.40914 0.549999,-0.76804 1.489431,-1.86365 2.087626,-2.4347 l 1.087627,-1.03825 -0.764709,1.43378 c -0.42059,0.78859 -1.270725,1.9967 -1.889188,2.68471 -0.618464,0.68801 -1.1244796,1.32444 -1.1244796,1.4143 0,0.40148 3.1860066,-1.51587 4.5403796,-2.73242 z m -16.1820468,1.58087 c 0,-0.13694 -0.1102652,-0.31712 -0.2450338,-0.40041 -0.2193951,-0.13559 -2.7392963,-3.64488 -3.3334743,-4.64229 -0.4111831,-0.69023 2.7666517,2.14995 3.6416125,3.25467 1.77759987,2.24441 0.8216924,-0.38861 -1.443293,-3.9755 -0.571964,-0.90577 -1.8485338,-2.39405 -2.8368219,-3.30729 -1.8112987,-1.67374 -4.9522397,-3.73237 -5.3343367,-3.49622 -0.32459,0.2006 0.477625,2.68816 1.636411,5.07428 1.2557331,2.58574 3.2387709,4.83592 5.7472609,6.52149 1.8478113,1.24163 2.1676753,1.38495 2.1676753,0.97127 z M 10.133424,155.82079 c 2.417119,-2.23788 3.271697,-2.73739 2.193462,-1.28211 -0.4223,0.56998 -1.069166,1.36374 -1.43748,1.76392 -0.856734,0.93087 -0.680425,0.91504 1.473591,-0.13229 3.061472,-1.48855 6.071269,-4.75663 7.633042,-8.28808 0.584887,-1.32253 0.597395,-1.43536 0.159122,-1.43536 -0.75541,0 -3.607257,1.19689 -5.270014,2.21176 -1.707865,1.04241 -3.541715,2.84933 -4.811732,4.74108 -0.897717,1.33719 -2.2368254,4.15966 -1.9735334,4.15966 0.085642,0 1.0007365,-0.78236 2.0335424,-1.73858 z m -11.8394745,-6.33121 c -0.3669652,-1.45521 -1.1372412,-3.60028 -1.7117245,-4.76683 -0.9925663,-2.0155 -3.7458198,-5.65357 -4.4535845,-5.88483 -0.5262999,-0.17196 -0.4119767,3.50247 0.1811245,5.82147 0.8356004,3.26717 2.3908094,5.97606 5.0304336,8.76211 l 1.4691713,1.55067 0.075894,-1.41837 c 0.046864,-0.87584 -0.1793179,-2.43043 -0.5913144,-4.06422 z M 10.082922,130.24114 c 1.081511,-2.15441 2.129253,-3.94945 2.240381,-3.83832 0.0485,0.0485 -0.132686,0.94685 -0.402637,1.99633 -0.269952,1.04948 -0.394179,1.90814 -0.276061,1.90814 0.118119,0 0.947699,-0.79987 1.843512,-1.77749 1.759064,-1.91971 3.141146,-4.48406 3.819096,-7.08605 0.49958,-1.9174 1.122845,-7.19043 0.878751,-7.43452 -0.09601,-0.096 -0.968578,0.46591 -1.939029,1.24872 -4.543998,3.66541 -7.2511063,9.01193 -7.2511063,14.32089 0,1.27377 0.057817,2.31595 0.128483,2.31595 0.070666,0 0.5020402,-0.74414 0.9586103,-1.65365 z"
       id="path6" /><path
       style="fill:#000000"
       d="m 143.53646,282.74103 c -2.03729,-0.23684 -3.853,-0.52693 -4.0349,-0.64466 -0.1819,-0.11773 -0.33073,-0.43057 -0.33073,-0.69521 0,-0.26463 0.14883,-0.60075 0.33073,-0.74692 0.1819,-0.14618 2.70043,-0.40853 5.59672,-0.58301 5.05734,-0.30467 5.29322,-0.29701 5.95313,0.19339 0.84008,0.62429 1.02728,1.77446 0.40138,2.46607 -0.57159,0.6316 -2.54998,0.63418 -7.91633,0.0103 z"
       id="path5" /><path
       style="fill:#000000"
       d="m 70.908332,283.06085 c -1.192393,-0.45019 -1.386444,-1.90914 -0.361194,-2.7156 0.820461,-0.64538 1.943134,-0.68738 7.268622,-0.27193 3.965435,0.30935 4.734239,0.52225 4.734239,1.31106 0,0.79328 -0.753645,0.9903 -5.027084,1.31424 -2.110052,0.15995 -4.37224,0.34059 -5.027083,0.40144 -0.654844,0.0608 -1.369219,0.0432 -1.5875,-0.0392 z"
       id="path4" /><path
       style="fill:#000000"
       d="m 136.23963,294.08808 c -1.90174,-1.28434 -4.47713,-3.84193 -4.47713,-4.44619 0,-0.8907 0.76273,-1.45262 1.75349,-1.29184 1.19,0.19311 5.31094,2.52322 6.083,3.43952 0.80245,0.95237 0.79716,1.62272 -0.0192,2.43913 -0.87106,0.87105 -1.90666,0.82745 -3.34011,-0.14062 z"
       id="path3" /><path
       style="fill:#000000"
       d="m 82.285415,294.34896 c -0.70154,-0.70154 -0.672156,-1.92627 0.06615,-2.75697 0.764968,-0.86069 4.791018,-3.06956 5.932429,-3.25478 1.063484,-0.17258 1.674342,0.26753 1.674342,1.20632 0,0.49971 -0.449099,1.10719 -1.653646,2.23683 -3.261943,3.05909 -4.850779,3.73709 -6.019271,2.5686 z"
       id="path2" /><path
       style="fill:#000000"
       d="m 110.53291,304.46927 c -0.22524,-0.25466 -0.49082,-1.23692 -0.59019,-2.18281 -0.28536,-2.71647 -1.14247,-6.04222 -1.93056,-7.49094 -1.5464,-2.8427 -4.52457,-4.88247 -7.99966,-5.47903 -2.803328,-0.48125 -2.883258,-0.50782 -3.176673,-1.05607 -0.433652,-0.81029 0.09738,-1.53374 1.261659,-1.71881 0.543934,-0.0865 1.746167,-0.33433 2.671624,-0.5508 5.58641,-1.3067 8.44136,-5.20315 9.16442,-12.50764 0.21107,-2.13223 0.74665,-3.01349 1.6827,-2.76871 0.66891,0.17492 0.73702,0.36401 1.09718,3.04568 0.53446,3.97942 1.6239,7.09121 3.09822,8.84949 1.51457,1.80628 4.34621,3.16782 7.88108,3.78944 1.3901,0.24446 2.24896,0.7544 2.24896,1.33531 0,0.63725 -0.92925,1.08715 -3.18606,1.54252 -6.47339,1.30617 -9.04168,4.52741 -10.05607,12.61269 -0.36163,2.88236 -1.11041,3.77389 -2.16663,2.57968 z"
       id="path1" /></g></svg>
