<?xml version="1.0" encoding="UTF-8" standalone="no"?>
<!-- Created with Inkscape (http://www.inkscape.org/) -->

<svg
   width="308.19775mm"
   height="328.48795mm"
   viewBox="0 0 308.19775 328.48795"
   version="1.1"
   id="svg1"
   xml:space="preserve"
   sodipodi:docname="stamp_goal_bear_4.svg"
   inkscape:version="1.4.4 (dcaf3e7, 2026-05-05)"
   xmlns:inkscape="http://www.inkscape.org/namespaces/inkscape"
   xmlns:sodipodi="http://sodipodi.sourceforge.net/DTD/sodipodi-0.dtd"
   xmlns="http://www.w3.org/2000/svg"
   xmlns:svg="http://www.w3.org/2000/svg"><sodipodi:namedview
     id="namedview1"
     pagecolor="#ffffff"
     bordercolor="#000000"
     borderopacity="0.25"
     inkscape:showpageshadow="2"
     inkscape:pageopacity="0.0"
     inkscape:pagecheckerboard="0"
     inkscape:deskcolor="#d1d1d1"
     inkscape:document-units="mm"
     inkscape:zoom="0.020941914"
     inkscape:cx="573.01351"
     inkscape:cy="596.88908"
     inkscape:window-width="944"
     inkscape:window-height="250"
     inkscape:window-x="0"
     inkscape:window-y="33"
     inkscape:window-maximized="0"
     inkscape:current-layer="layer1"><inkscape:page
       x="0"
       y="0"
       width="308.19775"
       height="328.48795"
       id="page2"
       margin="0"
       bleed="0" /></sodipodi:namedview><defs
     id="defs1" /><g
     inkscape:label="Layer 1"
     inkscape:groupmode="layer"
     id="layer1"
     transform="translate(11.352449,30.920423)"><path
       style="fill:#000000"
       d="m 141.15521,297.49385 c -4.59469,-0.51193 -9.09701,-2.12729 -12.59546,-4.51905 -0.59734,-0.40838 -11.29855,-10.87711 -23.78046,-23.26384 L 82.084911,247.18964 68.559123,243.84873 c -7.439183,-1.8375 -18.585944,-4.5775 -24.770579,-6.08888 -6.184636,-1.51138 -17.674167,-4.31884 -25.532291,-6.23878 -8.038521,-1.96402 -15.1230187,-3.83846 -16.1978075,-4.28567 -5.2381054,-2.17951 -9.5192314,-6.39071 -11.689112,-11.49819 -1.4601855,-3.43699 -1.7279925,-4.89329 -1.7216735,-9.36221 0.0056,-3.98211 0.04119,-4.243 1.22611,-8.99584 4.403015,-17.66092 10.36390702,-40.06355 14.4753494,-54.40225 L 5.929643,137.46482 2.1218154,122.50897 C 0.02751023,114.28326 -2.951261,102.43344 -4.4976761,96.176042 -6.0440913,89.918646 -8.1643441,81.405677 -9.2093491,77.258334 l -1.9000089,-7.540625 0.01362,-4.365625 c 0.01266,-4.054765 0.06655,-4.525765 0.756881,-6.614583 0.4087903,-1.236927 1.0412577,-2.844271 1.405483,-3.571875 2.4271145,-4.84859 6.895505,-8.786598 12.1235819,-10.684555 2.1176147,-0.768762 11.6911571,-2.647537 46.0222901,-9.03172 3.055937,-0.568279 9.36625,-1.741933 14.022916,-2.608119 4.656667,-0.866186 10.847917,-2.014087 13.758334,-2.550889 2.910416,-0.536803 5.537069,-1.130366 5.837006,-1.31903 0.478122,-0.300743 9.676437,-11.301146 32.632326,-39.025477 9.8303,-11.872277 10.31474,-12.444851 12.0435,-14.234504 4.95969,-5.134384 12.63825,-7.595792 19.60175,-6.283455 4.23969,0.799008 8.09751,2.681898 11.01955,5.378318 1.49089,1.375776 14.66784,17.0291038 27.33308,32.4698488 2.74535,3.3469792 5.78477,7.0379162 6.75426,8.2020832 0.96949,1.164167 3.80412,4.576729 6.29918,7.583471 3.48221,4.196352 4.73825,5.531864 5.40478,5.746755 0.47758,0.153973 5.15457,1.062183 10.39332,2.018245 25.94947,4.735727 54.37856,10.044225 62.86017,11.737735 5.9582,1.189665 8.57701,2.439274 12.18407,5.813841 4.38569,4.103004 6.61771,8.885754 7.25435,15.544507 0.3636,3.803007 0.13266,4.792401 -12.9941,55.668989 -1.70835,6.62119 -3.39917,13.24295 -3.75738,14.715 l -0.65129,2.67646 2.65801,9.36208 c 4.28098,15.07849 6.72652,24.1373 10.88444,40.31833 4.32652,16.83716 4.11654,15.80976 4.08283,19.97604 -0.0338,4.17563 -0.55384,6.52235 -2.21597,9.99932 -2.52101,5.27361 -7.26742,9.49617 -12.69245,11.29162 -1.91517,0.63384 -9.30198,2.4799 -43.5356,10.88014 -8.58573,2.10676 -19.71807,4.84234 -24.73854,6.07906 l -9.12812,2.24858 -4.8948,4.80862 c -2.69213,2.64474 -10.96697,10.83109 -18.38854,18.19189 -24.67234,24.47035 -23.90506,23.78567 -28.76445,25.66759 -3.18239,1.23246 -8.40975,2.0117 -11.31992,1.68745 z m 7.62397,-5.1213 c 2.09141,-0.59273 5.44001,-2.1897 6.92811,-3.30406 0.50932,-0.38141 5.9862,-5.71563 12.17083,-11.85382 27.52075,-27.31411 33.5214,-33.2188 34.30234,-33.75385 0.55726,-0.3818 4.05674,-1.35293 10.58334,-2.93695 12.37542,-3.00355 37.07838,-9.07689 54.33307,-13.35803 16.08652,-3.99131 16.51851,-4.16053 20.24063,-7.92894 3.76946,-3.81633 5.24981,-7.39581 5.26456,-12.72961 0.009,-3.39079 0.005,-3.41007 -3.58838,-17.33021 -4.83287,-18.71975 -6.82409,-26.10023 -11.35408,-42.08393 l -2.89128,-10.20164 1.47156,-5.80565 c 0.80936,-3.19311 3.30226,-12.9494 5.53977,-21.68065 10.42728,-40.689381 10.45264,-40.796019 10.45264,-43.9503 0,-3.275835 -0.45593,-5.453711 -1.71092,-8.172617 -1.79355,-3.885708 -4.65759,-6.800508 -8.50198,-8.652652 -2.40504,-1.158701 -5.02124,-1.68339 -47.86314,-9.599121 -11.49615,-2.124098 -23.46066,-4.339193 -26.58782,-4.922434 -3.12715,-0.58324 -6.04418,-1.269698 -6.48229,-1.525462 -0.7213,-0.421091 -6.6099,-7.354931 -18.25444,-21.494655 -2.32579,-2.8241629 -7.43859,-9.004373 -11.36176,-13.7337999 -3.92318,-4.729427 -8.90334,-10.7420831 -11.06703,-13.3614581 -4.52094,-5.473082 -6.36237,-7.169809 -9.32583,-8.59301 -5.20137,-2.497959 -10.64965,-2.446955 -15.90321,0.148877 -2.58449,1.277024 -4.51724,3.098706 -8.94487,8.430848 -2.06027,2.481161 -8.08745,9.7398045 -13.39372,16.13031915 C 89.660468,28.019894 85.732473,32.64189 84.79896,33.09954 c -0.735754,0.3607 -20.970731,4.256348 -45.376041,8.735819 -18.047039,3.312442 -33.6015634,6.41075 -35.1111082,6.993787 -5.06206397,1.955138 -8.6967682,5.814604 -10.4526135,11.09898 -0.6185701,1.861642 -0.7046418,2.54702 -0.7143844,5.688541 l -0.011077,3.571875 8.5666204,34.232658 8.5666197,34.23266 -0.9873903,3.47047 C 3.3277,162.04391 -5.7677102,196.5939 -6.8947889,202.5646 c -1.6383727,8.67928 2.519456,16.95492 10.2882299,20.47745 0.931891,0.42254 5.8677902,1.77686 11.426678,3.13526 5.382374,1.31527 14.727227,3.59683 20.766342,5.07013 6.039114,1.4733 14.849739,3.63116 19.579166,4.79525 4.729427,1.16408 12.944739,3.18191 18.25625,4.48406 5.31151,1.30214 10.014479,2.5028 10.451041,2.66813 0.474615,0.17974 9.889098,9.36575 23.415622,22.84737 12.44203,12.40073 23.19639,22.93192 23.89858,23.40265 2.45968,1.6489 6.07226,3.0642 9.04205,3.54242 1.73868,0.27997 6.63526,-0.0721 8.55001,-0.61477 z"
       id="path36" /><path
       style="fill:#000000"
       d="m 140.89063,286.90779 c -1.71497,-0.33189 -4.86446,-1.54297 -6.31255,-2.42738 -1.16774,-0.71318 -7.71033,-7.05011 -24.07123,-23.31456 C 98.149655,248.8815 87.571128,238.55422 86.999014,238.21635 85.662659,237.42715 83.174777,236.80349 25.49486,222.79839 5.8661614,218.0324 5.5690972,217.93084 2.6791071,214.99785 c -1.95298679,-1.98204 -3.13146065,-4.2301 -3.7168952,-7.09034 -0.5218397,-2.54955 -0.5220797,-3.4227 -0.00164,-5.97544 1.29544883,-6.35415 12.4285331,-48.04358 16.0155901,-59.97267 0.567124,-1.88602 1.031135,-3.84429 1.031135,-4.35171 0,-0.50741 -3.81,-16.17879 -8.4666665,-34.82529 -7.81308688,-31.285615 -8.46666649,-34.077569 -8.46666649,-36.167813 0,-6.590635 4.34761019,-11.879505 10.91311509,-13.27581 4.3429029,-0.923617 44.3232349,-8.486544 68.0650089,-12.875598 3.929062,-0.726351 7.560468,-1.447328 8.069791,-1.602172 1.58373,-0.481483 3.566172,-2.017766 5.346683,-4.143384 0.940564,-1.122869 7.882505,-9.482986 15.426528,-18.578038 22.02196,-26.549581 26.58471,-31.971216 27.73507,-32.955877 5.12746,-4.388914 13.60677,-3.929151 18.33303,0.994049 1.67507,1.744871 20.67013,24.5694563 35.95738,43.20662 6.92257,8.439513 8.2321,9.843647 9.95493,10.674059 0.83324,0.401631 4.04319,1.097359 9.92187,2.150482 8.24898,1.477745 24.78071,4.530437 35.14846,6.490395 2.61938,0.495176 7.38188,1.39176 10.58333,1.99241 3.20146,0.600649 8.61881,1.626039 12.03855,2.278645 3.41974,0.652606 6.87255,1.30275 7.67291,1.444766 5.59973,0.993608 9.69824,4.387168 11.25668,9.320507 0.81939,2.593823 1.06203,4.871179 0.70951,6.659151 -0.21697,1.100485 -3.57139,14.279207 -6.90288,27.119791 -1.72749,6.658307 -8.11172,31.911117 -9.24157,36.555027 l -1.20123,4.93733 0.9441,3.26476 c 0.51925,1.79561 1.72057,5.94366 2.66961,9.21788 2.45406,8.46666 9.29659,33.68285 10.60461,39.08029 0.20436,0.84329 1.0972,4.381 1.98408,7.86157 1.35699,5.32553 1.61251,6.68827 1.61251,8.5998 0,4.52231 -1.68252,8.19171 -5.06077,11.03703 -1.84778,1.55628 -4.4678,2.58205 -10.02048,3.92313 -2.83766,0.68535 -9.86234,2.41453 -15.61042,3.84262 -5.74807,1.42808 -16.88041,4.16451 -24.73854,6.08096 -29.94052,7.30189 -30.3671,7.41234 -31.52189,8.16136 -0.60214,0.39056 -11.22083,10.73878 -23.59707,22.99605 -15.24182,15.09529 -23.0346,22.63 -24.15215,23.35231 -2.22541,1.43835 -5.34015,2.39731 -8.17368,2.5165 -1.23693,0.052 -2.54661,0.037 -2.91041,-0.0334 z m 4.79253,-3.00823 c 0.78384,-0.14461 2.38223,-0.7332 3.55197,-1.30798 2.08746,-1.02571 2.54673,-1.46263 24.82337,-23.61571 19.3121,-19.20496 22.9601,-22.71739 24.46383,-23.55461 1.92503,-1.07178 1.10788,-0.85932 36.42767,-9.4714 31.88866,-7.77547 41.6758,-10.28356 43.05233,-11.03276 1.92046,-1.04524 3.76475,-3.00295 4.74701,-5.03891 0.75796,-1.57105 0.87213,-2.09844 0.95891,-4.42923 0.0925,-2.48461 0.0158,-2.96828 -1.2596,-7.9375 -0.74697,-2.91042 -2.13312,-8.32776 -3.08035,-12.03855 -3.45446,-13.53291 -7.95414,-29.97859 -10.83427,-39.5977 -1.63036,-5.44513 -2.23091,-7.84449 -2.23091,-8.91321 0,-0.99424 1.05145,-5.63904 3.28454,-14.50958 6.00712,-23.862172 10.22567,-40.492392 11.9341,-47.046169 1.96057,-7.52102 2.13151,-8.57272 1.7418,-10.71665 -0.66188,-3.641222 -2.98763,-6.839303 -5.98452,-8.229156 -1.4565,-0.675478 -8.6022,-2.093035 -36.50821,-7.242463 -4.80219,-0.886136 -9.92187,-1.840709 -11.37708,-2.121273 -1.45521,-0.280564 -7.28927,-1.352633 -12.96458,-2.382374 -14.3277,-2.599649 -17.02816,-3.14776 -18.34865,-3.724208 -2.72941,-1.191502 -3.74067,-2.248372 -13.62763,-14.242184 -1.8707,-2.269336 -10.33462,-12.460441 -18.80871,-22.6468991 -14.22249,-17.0964559 -15.53496,-18.5956749 -17.06574,-19.4939869 -3.99443,-2.344079 -8.97508,-1.809484 -12.35352,1.32596 -0.57492,0.533561 -6.47578,7.518548 -13.11304,15.5221936 -6.63725,8.0036457 -14.71729,17.7072394 -17.95563,21.5635414 -3.23835,3.856302 -7.319356,8.730521 -9.068911,10.831598 -3.586054,4.306565 -5.119813,5.86597 -6.66684,6.778313 -2.205482,1.30066 -0.655699,0.97343 -34.387164,7.260696 -9.458854,1.763053 -22.449657,4.207873 -28.868451,5.432933 -6.418795,1.225061 -12.788639,2.418809 -14.155209,2.652773 -3.2548474,0.557246 -5.3235224,1.55454 -7.0825412,3.414443 -1.9555176,2.067672 -2.7545894,3.939587 -2.8926474,6.77635 -0.1047278,2.151907 0.00672,2.732121 2.1598994,11.244792 1.2486787,4.936695 3.397028,13.559715 4.7741095,19.162267 1.3770817,5.602553 4.1790067,16.926903 6.2264997,25.165233 2.047494,8.23833 3.722716,15.39086 3.722716,15.89452 0,0.50366 -0.303066,1.91899 -0.67348,3.14518 -3.864072,12.79135 -15.9463365,58.26719 -16.6077191,62.50899 -0.74380662,4.77042 1.7953415,9.76225 6.0127382,11.82071 0.9170449,0.4476 3.8909269,1.34455 6.9028359,2.08197 2.910417,0.71256 8.32776,2.03406 12.038541,2.93666 57.114685,13.89249 59.584115,14.5208 61.710344,15.70113 1.651282,0.91667 2.733027,1.96503 30.496949,29.55565 13.83306,13.74673 16.65854,16.43362 18.02714,17.14295 2.82549,1.46442 5.83581,1.93124 8.8581,1.37365 z"
       id="path35" /><path
       style="fill:#000000"
       d="m 82.425952,57.560213 c -0.310245,-0.501988 -0.9748,-1.166542 -1.476787,-1.476788 -1.149682,-0.710542 -1.147838,-1.108399 0.0092,-1.990938 0.507064,-0.386756 1.171619,-1.10719 1.476788,-1.600965 0.713394,-1.154296 1.142829,-1.132154 1.958893,0.101003 0.363527,0.549325 1.02006,1.2109 1.458963,1.470166 0.438903,0.259267 0.798005,0.643256 0.798005,0.85331 0,0.414245 -3.019937,3.556917 -3.418004,3.556917 -0.133652,0 -0.496841,-0.410718 -0.807087,-0.912705 z"
       id="path34" /><path
       style="fill:#000000"
       d="m 139.10469,61.6288 c -0.55454,-0.212768 -0.59549,-0.387579 -0.59789,-2.552044 -0.001,-1.277996 -0.11757,-6.431286 -0.25813,-11.451755 -0.14056,-5.020468 -0.43864,-17.819687 -0.66241,-28.442707 -0.22377,-10.623021 -0.44255,-20.6670731 -0.48617,-22.3201162 l -0.0793,-3.0055328 0.94273,-0.6221978 c 3.12464,-2.0622305 7.5431,-2.0143573 11.02095,0.1194099 l 0.81779,0.5017391 -0.0966,2.7414739 c -0.0531,1.5078107 -0.33298,10.5400675 -0.62188,20.0716819 -0.48283,15.929898 -0.76978,24.239677 -1.20189,34.805897 l -0.16284,3.981939 -1.27511,0.584968 c -1.78491,0.818845 -4.31895,2.781519 -5.47565,4.241025 -0.53748,0.678175 -1.04271,1.309902 -1.12275,1.403839 -0.08,0.09394 -0.41342,0.06801 -0.74084,-0.05762 z"
       id="path33" /><path
       style="fill:#000000"
       d="m 106.36769,48.141499 -4.92711,-14.829335 3.6319,-4.419102 c 5.30052,-6.449391 5.48669,-6.66806 5.67706,-6.66806 0.0957,0 0.2411,0.386953 0.3232,0.859896 0.0821,0.472942 1.21577,5.146145 2.51926,10.384895 2.18528,8.782627 3.49623,14.21726 5.7271,23.742143 l 0.8511,3.633811 -0.95073,0.166446 c -1.85188,0.324215 -5.19977,1.140868 -6.3418,1.54696 -0.63676,0.226424 -1.25339,0.411681 -1.3703,0.411681 -0.11691,0 -2.42977,-6.673201 -5.13968,-14.829335 z"
       id="path32" /><path
       style="fill:#000000"
       d="m 173.36986,66.721611 c -0.64751,-1.823113 -2.39136,-4.399216 -4.35446,-6.432631 l -1.70744,-1.7686 3.21271,-11.46696 c 4.46908,-15.951242 6.67543,-23.508053 6.85856,-23.490711 0.3443,0.0326 8.31803,10.138584 8.4146,10.664758 0.0571,0.310884 -0.86268,3.244149 -2.04387,6.518368 -1.18118,3.274218 -3.82163,10.596562 -5.86765,16.271874 -2.04602,5.675313 -3.79747,10.464393 -3.89211,10.642402 -0.0988,0.185877 -0.36289,-0.213629 -0.62034,-0.9385 z"
       id="path31" /><path
       style="fill:#000000"
       d="m 31.972498,73.025001 c -0.257884,-0.436563 -0.532506,-0.798032 -0.610271,-0.803266 -0.07776,-0.0052 -0.486004,-0.291304 -0.907198,-0.635712 l -0.765806,-0.626198 1.516886,-1.480954 c 0.834287,-0.814524 1.595618,-1.480611 1.691847,-1.480193 0.09623,4.19e-4 0.413088,0.363246 0.70413,0.806283 0.291041,0.443038 0.921262,1.050897 1.400489,1.350798 l 0.871323,0.545275 -1.334344,1.279356 c -0.733889,0.703646 -1.334343,1.405133 -1.334343,1.558859 0,0.576205 -0.781034,0.250383 -1.232713,-0.514248 z"
       id="path30" /><path
       style="fill:#000000"
       d="m 208.17628,77.985938 c -0.13634,-0.181901 -0.89191,-1.966384 -1.67905,-3.965517 l -1.43116,-3.634788 -3.57887,-1.582595 c -3.28806,-1.453999 -3.57887,-1.639182 -3.57887,-2.278972 0,-0.64296 0.2619,-0.805027 3.41444,-2.112884 1.87794,-0.77908 3.51292,-1.514996 3.63329,-1.635369 0.12037,-0.120373 0.90959,-1.881908 1.75381,-3.914523 1.37649,-3.314131 1.60124,-3.695664 2.17699,-3.695664 0.68163,0 0.60521,-0.142354 2.98172,5.554231 l 0.8822,2.114648 3.55898,1.510957 c 3.03834,1.289918 3.57063,1.603286 3.63858,2.14209 0.0725,0.574471 -0.25246,0.780861 -3.61905,2.298861 l -3.69865,1.667727 -1.49551,3.778853 c -0.82253,2.078369 -1.67425,3.847437 -1.89269,3.931263 -0.5842,0.224178 -0.79032,0.189704 -1.06616,-0.178318 z"
       id="path29" /><path
       style="fill:#000000"
       d="m 48.645391,80.032984 c -0.0845,-0.220192 0.03914,-1.738239 0.27474,-3.373437 0.654992,-4.545963 0.892972,-4.009486 -2.772813,-6.25075 -1.758436,-1.07511 -3.265594,-2.13309 -3.34924,-2.351067 -0.292351,-0.761855 0.360712,-1.177429 3.893013,-2.477296 1.957151,-0.720221 3.600002,-1.351038 3.650779,-1.401815 0.05078,-0.05078 0.771736,-1.920879 1.602131,-4.155782 1.375101,-3.700909 1.570491,-4.070556 2.189927,-4.142984 0.374065,-0.04374 0.806076,0.07532 0.960023,0.264584 0.153948,0.189258 1.04182,2.10835 1.97305,4.264649 l 1.693145,3.920542 3.99799,1.312078 c 4.024568,1.320799 4.674482,1.735033 3.999059,2.548868 -0.178097,0.214593 -1.483236,1.212219 -2.900309,2.216947 -1.417073,1.004728 -2.638656,1.927354 -2.714629,2.05028 -0.07597,0.122926 0.166697,1.793263 0.539265,3.711859 0.372568,1.918596 0.610455,3.662803 0.528638,3.876015 -0.273054,0.711566 -1.207268,0.401351 -4.01172,-1.332133 -1.530265,-0.945885 -2.84132,-1.719791 -2.913456,-1.719791 -0.07214,0 -1.288452,0.773906 -2.702924,1.719791 -2.565128,1.715351 -3.645759,2.077543 -3.936669,1.319442 z"
       id="path28" /><path
       style="fill:#000000"
       d="m 227.75723,84.285413 c -0.92028,-0.406813 -1.67077,-1.592273 -1.67077,-2.639109 0,-0.780534 0.39625,-1.262728 5.78014,-7.033803 5.16181,-5.533016 5.76208,-6.106968 6.20805,-5.935833 0.22466,0.08621 0.77576,-0.404345 1.43463,-1.277022 0.98938,-1.310425 1.04294,-1.465591 0.71206,-2.063011 -0.95575,-1.725631 -0.002,-4.084916 1.89662,-4.690407 3.4482,-1.099819 5.81541,3.009884 3.14391,5.458132 -0.94158,0.862888 -1.05374,0.896517 -2.54041,0.761709 l -1.55535,-0.141033 -1.04754,1.225516 c -0.71472,0.836149 -1.00507,1.395624 -0.91386,1.76092 0.0902,0.361302 -0.45078,1.439943 -1.66364,3.317067 -5.03487,7.792344 -6.60603,10.171742 -7.08899,10.7357 -0.68641,0.801545 -1.64238,0.986425 -2.69485,0.521174 z"
       id="path27" /><path
       style="fill:#000000"
       d="m 218.39585,91.733021 c -0.44029,-0.624651 -1.27128,-1.426664 -1.84663,-1.782251 -0.57535,-0.355587 -1.0461,-0.855047 -1.0461,-1.10991 0,-0.254864 0.47505,-0.763272 1.05566,-1.129796 0.58061,-0.366524 1.37034,-1.141924 1.75495,-1.723111 0.38461,-0.581186 0.90578,-1.056703 1.15814,-1.056703 0.25237,0 0.77335,0.475234 1.15773,1.056075 0.38438,0.58084 1.17411,1.370568 1.75495,1.754951 0.58084,0.384382 1.05607,0.859959 1.05607,1.056838 0,0.196879 -0.45944,0.662004 -1.02097,1.033613 -0.56154,0.371608 -1.40238,1.206734 -1.86853,1.855837 -0.46615,0.649102 -0.96166,1.180186 -1.10114,1.180186 -0.13948,0 -0.61384,-0.511078 -1.05413,-1.135729 z"
       id="path26" /><path
       style="fill:#000000"
       d="M 30.294794,96.710597 C 27.74818,94.911713 22.043765,90.840844 17.618317,87.664221 L 9.5720479,81.888542 9.0886874,80.16875 C 6.8312678,72.136874 6.4343027,70.261387 6.586314,68.346127 c 0.1418678,-1.787456 0.8050822,-4.059119 1.1814797,-4.04684 0.173942,0.0057 1.5734003,1.189761 10.7315243,9.079985 15.050614,12.966924 24.495476,21.297717 24.495476,21.60611 0,0.122415 -0.386953,0.306234 -0.859896,0.408487 -1.545956,0.334243 -3.46015,1.482916 -5.107872,3.06514 -0.88979,0.85442 -1.72675,1.546471 -1.859912,1.537888 -0.133161,-0.0086 -2.325705,-1.487416 -4.87232,-3.2863 z"
       id="path25" /><path
       style="fill:#000000"
       d="m 239.7125,104.28857 c -0.65479,-0.36265 -1.88729,-0.46277 -7.04004,-0.5719 l -6.24629,-0.1323 7.43691,-6.082501 c 16.04897,-13.126133 43.30054,-34.795618 43.75902,-34.795618 0.14164,0 0.53388,0.625078 0.87166,1.389062 0.52403,1.185292 0.61533,1.835419 0.62237,4.431771 0.008,2.891832 -0.0597,3.27707 -1.3612,7.769057 -0.75319,2.599492 -1.40555,4.75386 -1.44968,4.787485 -0.0441,0.03362 -3.05681,2.005123 -6.69484,4.381109 -6.54219,4.272701 -28.3285,18.672665 -28.83958,19.061925 -0.14552,0.11084 -0.62177,0.004 -1.05833,-0.23809 z"
       id="path24" /><path
       style="fill:#000000"
       d="m 257.49255,112.74509 c -0.37334,-0.56416 -1.10354,-1.28825 -1.62266,-1.60908 -0.51912,-0.32084 -0.94385,-0.63636 -0.94385,-0.70118 0,-0.0648 0.8019,-0.93042 1.78199,-1.92357 l 1.78199,-1.80573 1.6576,1.7157 c 0.91167,0.94363 1.65759,1.75588 1.65759,1.805 0,0.13375 -3.38646,3.5446 -3.51925,3.5446 -0.063,0 -0.42006,-0.46158 -0.79341,-1.02574 z"
       id="path23" /><path
       style="fill:#000000"
       d="m 41.118617,126.77722 c -1.825996,-0.60198 -3.605128,-1.80256 -4.796344,-3.23662 l -0.904828,-1.0893 -1.795445,0.55456 c -6.370515,1.96765 -12.31787,-1.27764 -12.31787,-6.72149 0,-3.57914 2.377065,-6.23347 5.992167,-6.69111 1.467942,-0.18582 1.489438,-0.20124 1.813857,-1.30109 0.460532,-1.56131 1.770663,-3.10462 3.240901,-3.81772 0.972717,-0.47178 1.715521,-0.60885 3.338932,-0.61613 l 2.087901,-0.009 0.593707,-0.93811 c 0.836929,-1.32243 2.368925,-2.59774 4.081959,-3.398034 1.254119,-0.585897 1.833249,-0.685878 3.986387,-0.688211 2.314042,-0.0025 2.662346,0.06779 4.278761,0.863546 2.141493,1.054249 4.13318,3.129029 4.991394,5.199629 l 0.604704,1.45896 2.325503,-0.0219 c 2.06092,-0.0194 2.520225,0.0692 4.036997,0.77901 2.214359,1.03623 3.937052,2.64312 4.83769,4.51251 0.938845,1.94869 1.013217,4.82965 0.171731,6.65238 -2.067885,4.47921 -7.268077,6.33073 -12.217953,4.35018 l -1.105211,-0.44222 -0.590396,0.758 c -1.101756,1.41452 -2.439072,2.49153 -4.148466,3.34098 -1.527806,0.75921 -1.980298,0.85437 -4.365625,0.91811 -2.023565,0.0541 -3.015578,-0.0457 -4.140453,-0.41658 z"
       id="path22" /><path
       style="fill:#000000"
       d="m 74.48021,135.69757 c -2.837656,-2.4891 -6.260703,-5.4897 -7.606771,-6.66801 -1.346067,-1.17831 -2.440991,-2.20629 -2.433163,-2.28441 0.0078,-0.0781 0.721919,-0.48815 1.586869,-0.91119 1.484214,-0.72592 3.734915,-2.78566 4.797244,-4.39021 l 0.437932,-0.66146 3.26259,3.17423 c 7.062577,6.87131 12.655299,12.43873 12.655299,12.59805 0,0.0921 -0.491881,0.24604 -1.093068,0.34217 -1.430509,0.22875 -3.581125,1.25898 -5.026285,2.40779 -0.636179,0.50573 -1.21622,0.91932 -1.288981,0.91909 -0.07276,-2.3e-4 -2.45401,-2.03695 -5.291666,-4.52605 z"
       id="path21" /><path
       style="fill:#000000"
       d="m 28.548544,148.06083 c -0.734009,-0.73401 -0.899583,-1.10166 -0.899583,-1.99751 0,-0.60386 0.173349,-1.43315 0.38522,-1.84287 0.483974,-0.9359 2.063975,-1.71551 3.069277,-1.51445 0.646155,0.12923 0.857069,3.7e-4 1.556872,-0.95122 0.445205,-0.60538 0.809464,-1.25983 0.809464,-1.45432 0,-0.1945 0.695288,-1.5105 1.545084,-2.92444 0.849796,-1.41395 1.998658,-3.40425 2.553026,-4.4229 0.554368,-1.01864 1.191524,-2.00091 1.415902,-2.18281 0.603893,-0.48957 1.558655,-0.40181 2.158905,0.19844 1.008721,1.00872 0.709504,1.75477 -2.390621,5.96065 -1.605882,2.17868 -3.126933,4.13982 -3.380111,4.3581 -0.253179,0.21828 -0.80226,0.8478 -1.220181,1.39892 -0.715258,0.94324 -0.741142,1.06451 -0.441015,2.06625 0.652168,2.17674 -0.827673,4.20775 -3.065873,4.20775 -1.008269,0 -1.338482,-0.1417 -2.096366,-0.89959 z"
       id="path20" /><path
       style="fill:#000000"
       d="m 22.688023,178.93553 c -0.228348,-0.0838 -0.330729,-0.80246 -0.330729,-2.32172 v -2.20043 l -2.124824,-1.34902 c -3.177413,-2.01729 -3.128833,-2.41036 0.442384,-3.57937 l 2.154017,-0.7051 1.002977,-2.30297 c 1.683115,-3.86465 1.862153,-3.86256 3.907249,0.0455 l 1.365072,2.60861 2.101043,0.69644 c 1.155574,0.38304 2.151196,0.85557 2.212493,1.05006 0.0613,0.19449 -0.559907,0.97347 -1.380454,1.73105 l -1.491902,1.37744 0.499529,2.1054 c 0.75788,3.19429 0.581484,3.32047 -2.396464,1.71418 l -1.951596,-1.05267 -0.912991,0.60649 c -1.827486,1.21397 -2.771991,1.69482 -3.095804,1.57606 z"
       id="path19" /><path
       style="fill:#000000"
       d="m 272.40708,179.70825 c -0.80008,-2.42427 -3.40731,-4.80122 -6.3065,-5.7495 -2.13197,-0.69733 -4.86091,-0.46997 -6.8843,0.57357 l -1.60302,0.82675 -0.4419,-1.35105 c -1.26577,-3.86985 -5.23591,-7.3149 -9.79978,-8.50363 -3.19883,-0.83319 -7.49288,-0.39173 -10.63405,1.09327 -2.87699,1.3601 -5.65775,4.27891 -6.04546,6.34558 -0.0916,0.4884 -0.21806,0.88801 -0.28098,0.88801 -0.0629,0 -0.43662,-0.29969 -0.83045,-0.66597 -2.72928,-2.53836 -8.42407,-2.0478 -10.98703,0.94645 -0.49076,0.57334 -0.97155,1.04243 -1.06842,1.04243 -0.51406,0 -2.82206,-1.82858 -3.61831,-2.86672 -0.50452,-0.65776 -2.18421,-2.46924 -3.73265,-4.0255 -5.11349,-5.13928 -9.95037,-8.34043 -16.05213,-10.62364 l -1.40498,-0.52573 0.21436,-1.49639 c 0.37549,-2.6213 0.21406,-4.60078 -0.5021,-6.15678 -0.63396,-1.3774 -1.81593,-2.77011 -3.05741,-3.60254 l -0.59887,-0.40154 1.41073,-1.62089 c 8.4534,-9.71271 16.19559,-20.78954 21.8005,-31.19021 1.24352,-2.30752 2.5142,-4.36127 2.82373,-4.56388 0.52042,-0.34066 4.02027,-0.45788 12.20444,-0.40875 0.7276,0.004 3.34317,0.0126 5.81237,0.0183 3.53398,0.008 4.61849,0.0949 5.0958,0.4076 0.36296,0.23782 1.62765,2.43856 3.15075,5.48274 6.52726,13.04587 13.19141,23.21906 22.71774,34.67984 l 2.82665,3.40065 1.28005,4.80143 c 2.09857,7.87167 6.01037,22.73852 6.18884,23.52071 0.15122,0.6628 0.0986,0.7276 -0.59044,0.7276 -0.64084,0 -0.80698,-0.15314 -1.08718,-1.00216 z M 252.92424,158.9698 c -2.03986,-4.05535 -10.94206,-15.56563 -12.03865,-15.56563 -0.43323,0 -0.099,0.83196 2.01979,5.02708 2.66853,5.28365 5.01082,9.11418 6.14464,10.04877 0.52431,0.43218 1.73348,1.19891 2.68705,1.70385 2.04693,1.08392 2.24248,0.88394 1.18717,-1.21407 z m -50.13542,-3.77196 c 0.35594,-0.19713 1.11079,-1.11564 1.67745,-2.04115 1.34321,-2.19384 4.77646,-9.22195 4.59405,-9.40436 -0.63119,-0.63118 -9.16761,9.0426 -9.16761,10.38907 0,0.44049 1.2736,1.43625 1.82162,1.42422 0.23503,-0.005 0.71856,-0.17066 1.07449,-0.36778 z m 25.13564,-19.13586 c 1.64312,-3.01956 3.08525,-5.59608 3.20473,-5.72561 0.12086,-0.13102 2.2485,1.71781 4.79561,4.16718 2.5181,2.42149 4.70051,4.4027 4.84978,4.4027 0.18405,0 0.1726,-1.3841 -0.0355,-4.29948 -0.16883,-2.36471 -0.27081,-4.33879 -0.22663,-4.38683 0.0442,-0.048 1.66823,0.91048 3.60897,2.13006 4.29728,2.70044 5.55092,3.43152 5.67375,3.30869 0.0517,-0.0517 -0.75797,-1.45556 -1.79933,-3.1196 -3.21944,-5.14452 -6.47926,-11.00145 -9.14833,-16.43684 l -2.558,-5.2092 -3.58015,-0.0121 c -1.96909,-0.007 -4.41359,-0.0373 -5.43224,-0.0682 -1.01864,-0.0309 -2.77236,0.044 -3.89714,0.16641 -1.39961,0.15229 -2.66051,0.11725 -3.99508,-0.11104 -1.43384,-0.24526 -2.0938,-0.25662 -2.49316,-0.0429 -0.29872,0.15988 -1.25864,1.64131 -2.13316,3.29209 -2.95312,5.57439 -8.33375,14.14011 -12.37201,19.69566 -0.6611,0.90951 -1.10034,1.65365 -0.97609,1.65365 0.12426,0 2.17455,-1.13172 4.5562,-2.51492 2.38165,-1.3832 4.38885,-2.45633 4.46045,-2.38473 0.11496,0.11496 -0.82857,6.45325 -1.19216,8.0085 -0.0765,0.32742 -0.0205,0.59531 0.12461,0.59531 0.14509,0 2.2292,-1.905 4.63136,-4.23333 2.40217,-2.32833 4.55893,-4.23333 4.79282,-4.23333 0.2887,0 1.29479,1.74157 3.13339,5.42395 1.48948,2.98318 2.77828,5.42396 2.864,5.42396 0.0857,0 1.50023,-2.47054 3.14335,-5.4901 z"
       id="path18" /><path
       style="fill:#000000"
       d="m 259.18358,196.05473 c -0.52231,-0.84887 -1.29049,-1.61704 -2.13936,-2.13936 -1.67377,-1.02988 -1.69868,-1.55827 -0.11713,-2.48511 0.77034,-0.45146 1.53935,-1.22662 2.12479,-2.14181 1.19565,-1.8691 1.6745,-1.86466 2.75596,0.0255 0.51047,0.89221 1.161,1.62475 1.67307,1.88399 1.08796,0.5508 1.76388,1.15216 1.76388,1.5693 0,0.18324 -0.60217,0.70369 -1.33815,1.15655 -0.85181,0.52412 -1.63548,1.30166 -2.15622,2.13936 -0.47995,0.77208 -1.01104,1.31598 -1.28498,1.31598 -0.27546,0 -0.8011,-0.54309 -1.28186,-1.32443 z"
       id="path17" /><path
       style="fill:#000000"
       d="m 19.57237,202.3401 c -0.723865,-0.76398 -1.581532,-1.59413 -1.905928,-1.84478 -0.729359,-0.56354 -0.560916,-1.08205 0.580736,-1.78763 0.475453,-0.29385 1.179703,-1.01063 1.565001,-1.59285 0.385297,-0.58223 0.876698,-1.05859 1.092001,-1.05859 0.215304,0 0.750704,0.49592 1.189778,1.10204 0.439074,0.60613 1.213727,1.38432 1.721451,1.72933 1.164032,0.79098 1.162594,1.21081 -0.0066,1.93342 -0.511367,0.31605 -1.290993,1.09966 -1.732502,1.74138 -0.44151,0.64171 -0.889382,1.16674 -0.995271,1.16674 -0.10589,0 -0.784779,-0.62507 -1.508643,-1.38906 z"
       id="path16" /><path
       style="fill:#000000"
       d="m 235.14518,212.65885 c -0.16724,-0.20754 -0.18622,-0.87273 -0.051,-1.78594 0.11853,-0.80036 0.32343,-2.2008 0.45533,-3.11208 l 0.23981,-1.65687 -2.61336,-1.72327 c -1.43735,-0.9478 -2.68428,-1.90808 -2.77095,-2.13395 -0.26799,-0.69836 0.4967,-1.14238 3.61738,-2.1005 1.65495,-0.50811 3.05248,-0.96732 3.10563,-1.02047 0.0531,-0.0531 0.72302,-1.5692 1.4886,-3.36901 1.30291,-3.06305 1.43879,-3.27239 2.1241,-3.27239 0.68441,0 0.8223,0.21078 2.11511,3.2333 0.76064,1.77832 1.47389,3.32613 1.58502,3.43959 0.11113,0.11345 1.65255,0.623 3.42538,1.13232 2.9978,0.86125 3.22333,0.97162 3.22333,1.57744 0,0.51978 -0.46874,0.97783 -2.31985,2.26694 -1.27592,0.88854 -2.4253,1.7265 -2.55419,1.86214 -0.13679,0.14395 -0.0287,1.40305 0.25977,3.02473 0.27176,1.52797 0.49841,2.97375 0.50367,3.21284 0.0214,0.97322 -0.89219,0.76005 -3.44983,-0.80494 l -2.57843,-1.57771 -2.4712,1.56116 c -2.62637,1.6592 -2.91499,1.76711 -3.33434,1.24667 z"
       id="path15" /><path
       style="fill:#000000"
       d="m 206.52912,223.74053 c -0.30277,-0.48989 -1.02685,-1.20595 -1.60907,-1.59125 -0.58223,-0.3853 -1.05859,-0.81209 -1.05859,-0.94842 0,-0.13633 0.80408,-1.06321 1.78686,-2.05973 l 1.78686,-1.81185 1.78501,1.8128 c 0.98176,0.99704 1.78502,1.91589 1.78502,2.0419 0,0.12601 -0.42474,0.49161 -0.94386,0.81244 -0.51911,0.32083 -1.24931,1.04492 -1.62265,1.60908 -0.37335,0.56416 -0.83187,1.02575 -1.01895,1.02575 -0.18707,0 -0.58786,-0.40082 -0.89063,-0.89072 z"
       id="path14" /><path
       style="fill:#000000"
       d="m 125.24917,233.35003 c -6.63125,-0.59028 -13.31869,-3.05303 -17.42739,-6.4179 l -1.62713,-1.33255 -1.23899,0.55092 c -12.667344,5.63261 -12.578218,5.60556 -16.336668,4.95724 -2.767853,-0.47745 -9.924165,-2.31594 -11.822602,-3.03729 -1.732652,-0.65836 -2.316478,-1.21913 -2.314866,-2.22344 0.0017,-1.04286 0.274451,-1.35039 5.554936,-6.26266 7.392988,-6.87748 7.662955,-7.14476 7.332004,-7.25915 -0.1763,-0.0609 -1.749296,-0.46694 -3.495546,-0.90223 -3.768442,-0.93936 -8.839581,-2.53513 -13.240602,-4.1665 l -3.186436,-1.18115 -5.015648,2.92459 c -2.758606,1.60853 -6.589137,3.72541 -8.512292,4.70419 l -3.496645,1.77959 -2.666337,0.10709 c -1.466485,0.0589 -3.805093,-0.0362 -5.196908,-0.21143 -4.830567,-0.60802 -6.442423,-1.45027 -6.442423,-3.36637 0,-0.94022 0.243688,-1.24084 4.034896,-4.97755 2.219193,-2.18729 5.724516,-5.60376 7.789607,-7.59215 l 3.754711,-3.61525 -0.805565,-1.48732 c -0.597786,-1.1037 -0.855978,-2.01261 -1.00102,-3.52391 -0.190583,-1.98584 -0.379137,-2.40917 -7.565412,-16.98555 -5.550052,-11.25753 -7.371916,-15.19028 -7.377887,-15.92623 -0.0094,-1.15267 0.820482,-2.18249 2.069473,-2.56821 1.287524,-0.39762 7.105709,-0.89989 10.742864,-0.92741 3.182293,-0.0241 3.365037,0.005 4.835153,0.76872 1.420699,0.73808 4.39286,3.18674 19.978196,16.45931 l 5.89564,5.02077 5.079999,-1.82783 c 2.794,-1.00531 5.12983,-1.87766 5.190733,-1.93857 0.0609,-0.0609 -0.415086,-0.67811 -1.057755,-1.37158 -1.554397,-1.67726 -2.883167,-3.53369 -4.027221,-5.62647 -1.047614,-1.91636 -2.557246,-6.19099 -2.557246,-7.24101 0,-0.37437 -0.353867,-1.37703 -0.786372,-2.22814 -2.309158,-4.54413 -1.400357,-9.53118 2.396931,-13.15318 2.113349,-2.01579 3.97218,-2.83831 6.417259,-2.83958 1.041731,-5.4e-4 2.247262,0.13909 2.678957,0.31028 1.23171,0.48845 3.244061,2.13046 4.548013,3.71101 1.028573,1.24676 1.167784,1.55642 1.011034,2.24896 -0.09998,0.44171 -0.318112,1.48612 -0.484739,2.3209 l -0.302958,1.51778 -1.902631,-2.48461 c -2.237095,-2.92137 -3.357098,-3.85108 -4.886443,-4.05621 l -1.120342,-0.15027 0.58127,0.73897 c 0.850107,1.08073 0.760584,2.29704 -0.254129,3.45274 -0.75387,0.85861 -0.930265,0.93544 -1.807451,0.78724 -1.251606,-0.21146 -2.959806,0.45757 -3.840426,1.50412 -0.90993,1.0814 -0.90361,1.70959 0.01117,1.1102 0.594783,-0.38971 3.200069,-1.14443 3.988766,-1.15548 0.162131,-0.002 0.505168,0.56141 0.762304,1.25263 0.257137,0.69123 0.779328,1.59466 1.160425,2.00763 l 0.692905,0.75086 -1.255005,-0.18532 c -1.680082,-0.24809 -2.927672,0.019 -3.896582,0.83432 -0.996434,0.83844 -1.062251,2.0965 -0.249377,4.76673 1.118815,3.67522 3.501541,7.50637 6.511213,10.46928 l 1.535584,1.51172 4.167187,-1.23848 4.167184,-1.23848 v -1.49694 c 0,-0.82332 0.0723,-1.85827 0.16059,-2.29989 l 0.16059,-0.80295 1.55658,1.25431 c 3.37386,2.71869 9.69459,5.37396 14.79099,6.21354 1.38245,0.22774 3.88276,0.48471 5.55625,0.57104 1.67349,0.0863 3.91066,0.33922 4.9715,0.56199 2.4722,0.51913 7.04496,0.3657 8.90293,-0.29873 4.05317,-1.44946 7.52988,-4.97702 8.75335,-8.88139 0.2504,-0.79908 0.67168,-1.64469 0.93617,-1.87911 0.26449,-0.23443 0.38587,-0.53208 0.26975,-0.66146 -0.11612,-0.12938 -0.34877,-1.1282 -0.51699,-2.2196 -0.86849,-5.63487 -5.41431,-10.29673 -11.20087,-11.48683 -2.46675,-0.50732 -3.42283,-0.51204 -6.12646,-0.0302 -1.95311,0.34809 -2.18013,0.33748 -3.71006,-0.17334 -1.53331,-0.51196 -1.68927,-0.64326 -2.6383,-2.22114 -1.25938,-2.09388 -4.03693,-4.73695 -6.1646,-5.86612 -0.89115,-0.47294 -1.75827,-0.85989 -1.92693,-0.85989 -0.16865,0 0.50687,0.80367 1.50116,1.78593 1.84598,1.82366 3.04841,3.58664 4.59234,6.7332 0.80386,1.63829 0.98339,1.82333 2.37475,2.44774 3.23215,1.4505 3.63311,1.53111 5.89361,1.18489 1.14119,-0.17478 3.01155,-0.25359 4.15634,-0.17512 3.93441,0.26967 7.27968,2.4759 9.15365,6.0369 0.68434,1.3004 0.75403,1.6787 0.75145,4.07916 -0.002,2.26324 -0.0962,2.83714 -0.6483,3.96875 -0.98068,2.01003 -3.51761,4.41744 -5.43386,5.15646 -2.13806,0.82456 -5.7272,1.00524 -8.81553,0.44378 -1.26333,-0.22968 -3.96385,-0.53589 -6.00114,-0.68047 -8.24528,-0.58516 -15.95589,-3.68416 -20.54814,-8.25858 -2.298811,-2.2899 -3.807005,-5.27894 -4.190737,-8.30552 -0.695545,-5.4859 1.412554,-12.12527 5.326217,-16.7747 1.44152,-1.71253 1.68893,-1.89883 2.31141,-1.74057 3.97581,1.01087 5.70454,1.25822 8.89917,1.27328 3.75685,0.0177 6.48229,-0.24875 6.48229,-0.63376 0,-0.13505 -0.71516,-0.24554 -1.58924,-0.24554 -3.07154,0 -8.72464,-1.03267 -12.56597,-2.29546 -10.502541,-3.45258 -16.871572,-10.15857 -19.626527,-20.66489 -0.916047,-3.49344 -1.158484,-10.13831 -0.497954,-13.648249 0.242722,-1.289782 0.405182,-2.362893 0.361023,-2.384692 -0.04416,-0.0218 -0.735133,-0.258018 -1.535498,-0.52493 -6.66882,-2.223976 -10.648009,-10.269612 -8.749812,-17.691492 1.885511,-7.372276 8.024434,-12.396644 15.204204,-12.443796 4.198421,-0.02757 7.564266,1.363904 10.481374,4.333113 l 1.72222,1.752984 0.92361,-0.635193 c 1.74073,-1.197148 5.95118,-3.216837 8.68686,-4.166955 4.54445,-1.578311 7.22243,-2.035146 12.8748,-2.196301 6.0911,-0.173664 9.34641,0.244433 14.97635,1.923489 0.30301,0.09037 0.72023,-0.378731 1.4552,-1.636155 3.71029,-6.347734 12.31616,-8.396202 19.55123,-4.653809 2.67346,1.382864 5.66095,4.412164 6.87738,6.973635 2.32564,4.897132 2.13692,9.847632 -0.54408,14.272078 -0.86372,1.425401 -2.87987,3.540744 -3.94036,4.134225 -0.49527,0.277165 -0.48549,0.344181 0.30627,2.09904 2.01236,4.460182 2.85006,8.376889 2.82104,13.189818 -0.0186,3.08814 -0.13547,4.13124 -0.70257,6.27216 -1.3388,5.05424 -3.79769,9.30388 -7.64169,13.20689 -1.27245,1.29199 -2.20391,2.34907 -2.06991,2.34907 0.44624,0 4.87625,-3.84948 6.56874,-5.70795 3.39838,-3.73165 6.9829,-8.9898 9.3893,-13.7732 0.89274,-1.77457 0.93988,-1.9949 0.79542,-3.717982 -0.35245,-4.204103 1.64909,-7.227948 4.78432,-7.227948 0.82647,0 1.48296,-0.19744 2.14075,-0.64383 4.49095,-3.047635 10.8763,-1.143694 13.2511,3.951122 1.87531,4.023229 1.19052,9.160868 -2.15122,16.139578 -5.01185,10.46649 -14.62572,20.45648 -24.85859,25.83113 -2.80077,1.47106 -3.15133,1.59371 -3.43732,1.20259 -0.65793,-0.89977 -2.83745,-3.11887 -2.95136,-3.00496 -0.0652,0.0652 0.19602,0.57902 0.58054,1.14179 3.00601,4.39952 6.14973,13.64384 6.90414,20.30212 l 0.17583,1.55183 1.18755,-0.16277 c 0.65314,-0.0895 1.36678,-0.16277 1.58586,-0.16277 0.33198,0 0.3703,-0.29744 0.23007,-1.78594 -0.0925,-0.98226 -0.24477,-2.29362 -0.33829,-2.91413 -0.16837,-1.11707 -0.15338,-1.14385 1.51893,-2.713 2.94561,-2.76391 5.97951,-3.88789 9.79111,-3.62736 5.96841,0.40794 8.12327,3.95179 6.0697,9.9821 -0.42123,1.23693 -0.68658,2.31865 -0.58968,2.40384 0.0969,0.0852 1.12869,0.42245 2.29286,0.74949 4.71076,1.32335 9.24746,3.60196 12.96458,6.51161 2.18207,1.70806 7.13555,6.62944 8.46129,8.40644 0.41269,0.55317 1.41078,1.44414 2.21798,1.97993 1.98755,1.31926 5.53004,4.86541 6.78214,6.78916 3.14435,4.83101 3.55274,9.91847 1.17719,14.66467 -5.4094,10.80766 -24.17084,17.0005 -56.20943,18.5538 -8.56721,0.41536 -20.25729,0.2377 -27.9074,-0.42412 l -1.99052,-0.1722 0.6985,0.76192 c 1.52661,1.66523 1.93327,2.90607 1.94059,5.92129 0.006,2.57255 -0.0547,2.9078 -0.82357,4.53056 -2.20865,4.66149 -5.46228,6.11959 -12.2976,5.51114 z m 2.88385,-3.36097 c -1.20151,-2.34441 -1.36049,-2.92814 -1.35111,-4.96094 0.0132,-2.86634 0.75919,-4.78517 2.5676,-6.60448 0.74506,-0.74956 1.64274,-1.54288 1.99484,-1.76294 0.61355,-0.38347 0.52875,-0.41862 -2.03857,-0.84499 -1.47331,-0.24468 -2.9334,-0.44488 -3.24465,-0.44488 -0.31124,0 -2.13233,0.87605 -4.04685,1.94678 -1.91452,1.07073 -5.47524,2.98605 -7.91272,4.25625 -2.43747,1.27021 -4.43177,2.36637 -4.43177,2.43592 0,0.27948 1.7743,1.59939 3.28816,2.44609 3.53996,1.97987 9.51048,3.56963 13.86566,3.69198 0.77611,0.0218 1.36535,-0.0497 1.30941,-0.15879 z m 42.9201,-16.19995 c 11.51767,-0.82904 22.4984,-2.6161 30.24963,-4.92298 11.16186,-3.32192 17.74939,-8.43076 19.00012,-14.73517 0.67721,-3.41353 -0.81364,-7.43387 -4.03635,-10.88472 -1.03252,-1.10561 -2.22843,-2.26022 -2.65757,-2.5658 l -0.78027,-0.5556 -1.63934,1.56473 c -1.95736,1.86827 -3.38714,2.86847 -5.87267,4.10824 -4.74551,2.36701 -11.79218,3.89332 -18.02214,3.90359 -4.15065,0.007 -4.36238,-0.19425 -5.24881,-4.98532 -0.6658,-3.59862 -0.51108,-4.97227 0.62876,-5.5823 0.2732,-0.14621 2.05827,-0.57031 3.96681,-0.94245 6.96266,-1.35761 12.48266,-3.7997 15.41237,-6.81857 0.97404,-1.00368 1.00377,-1.08308 0.58066,-1.55061 -0.62776,-0.69367 -4.09228,-2.87867 -6.44578,-4.06521 -10.34227,-5.21419 -24.94705,-5.75541 -44.13363,-1.6355 l -2.72633,0.58542 -0.64277,1.58149 c -1.51016,3.71567 -4.47531,6.96842 -8.05977,8.8415 -2.79068,1.45829 -4.83869,1.94029 -8.68656,2.04438 -1.79443,0.0485 -5.60443,0.33755 -8.46666,0.64225 -2.86224,0.3047 -7.52579,0.61742 -10.36344,0.69493 -4.89632,0.13375 -5.23952,0.11052 -6.73124,-0.45544 -1.9862,-0.75357 -3.84593,-2.55276 -4.36688,-4.22472 -0.20404,-0.65485 -0.44034,-1.27474 -0.52512,-1.37755 -0.28199,-0.34195 -8.596111,2.23532 -17.875792,5.54127 -4.202325,1.49711 -5.695935,1.9235 -6.136395,1.75178 -0.320187,-0.12483 -3.642627,-2.84634 -7.383199,-6.04779 -13.775085,-11.78974 -17.495844,-14.87486 -19.0344,-15.78263 -0.881099,-0.51986 -1.211882,-0.55258 -4.178474,-0.4133 -4.122857,0.19356 -8.645586,0.72677 -8.645586,1.01928 0,0.42347 13.938168,28.4545 14.242151,28.64237 0.166184,0.10271 2.357732,-0.34893 4.870105,-1.00363 5.101645,-1.32945 6.846765,-1.60828 7.996853,-1.27772 0.744551,0.214 0.666466,0.27125 -1.5875,1.16396 -2.010472,0.79627 -7.458941,2.42318 -9.977339,2.97922 -0.674221,0.14887 -0.727604,0.25682 -0.727604,1.47145 0,1.5027 0.936098,3.70647 1.574077,3.70572 0.225664,-2.7e-4 2.077173,-0.17759 4.114465,-0.39405 6.144879,-0.65287 14.693652,-0.45198 17.955935,0.42195 1.428155,0.38259 2.284689,1.31013 2.284689,2.4741 0,1.20883 -1.070113,2.3003 -4.936697,5.0352 -1.577681,1.11592 -2.901367,2.11837 -2.941525,2.22766 -0.164475,0.44762 12.516402,4.31349 17.74187,5.40875 l 1.793857,0.37599 4.820726,-4.22981 c 2.6514,-2.32639 5.164143,-4.4463 5.583873,-4.71089 2.89385,-1.82428 20.50463,-2.90534 28.7379,-1.76411 3.8698,0.5364 7.40799,1.36676 8.77238,2.05874 1.17638,0.59663 2.07553,1.68525 2.07553,2.51289 0,1.58825 -0.91726,2.45028 -7.0881,6.66124 -1.93392,1.3197 -3.41307,2.46321 -3.287,2.54112 0.3487,0.21551 9.12962,0.96276 14.34385,1.22064 5.59879,0.27691 21.15772,0.12755 26.45833,-0.25399 z M 132.84774,127.3707 c 5.11703,-1.06028 10.02208,-4.95864 11.76845,-9.35317 0.87504,-2.20194 0.99962,-5.78482 0.28315,-8.14363 -1.40618,-4.62956 -5.27256,-8.25014 -10.28756,-9.63355 -8.51297,-2.348329 -17.89554,2.27967 -20.64396,10.18273 -0.56631,1.62842 -0.63656,2.22293 -0.55259,4.67616 0.0902,2.63593 0.15975,2.93915 1.11916,4.88038 3.12698,6.32701 10.02091,9.10933 18.31335,7.39108 z m -22.40055,-19.90312 c 1.89728,-1.40085 2.35081,-3.57574 1.24798,-5.98465 -0.57428,-1.25439 -0.86695,-1.572945 -1.84096,-2.003798 -1.25299,-0.554258 -2.15165,-0.452637 -3.43534,0.388472 -1.33843,0.876976 -1.95613,3.699646 -1.22937,5.617776 0.88725,2.34172 3.45807,3.31094 5.25769,1.9822 z m 38.01783,-6.1603 c 1.52748,-1.4269 1.86756,-3.645736 0.8735,-5.699184 -0.97455,-2.013148 -3.49868,-2.913467 -5.14461,-1.835008 -2.45575,1.609069 -2.29331,6.103594 0.28392,7.855462 1.0643,0.72346 3.03916,0.56434 3.98719,-0.32127 z M 90.325672,86.584896 c 0.982329,-2.04035 3.821158,-6.151594 5.54431,-8.029372 l 1.601783,-1.745518 -0.97859,-0.937308 c -1.527061,-1.462641 -2.59101,-1.905301 -4.550465,-1.893238 -5.003263,0.0308 -8.544091,4.850618 -7.101269,9.666327 0.545384,1.820332 2.997618,4.19245 4.336567,4.194891 0.386424,7.04e-4 0.716741,-0.360731 1.147664,-1.255782 z m 70.358348,-8.905707 c 3.51415,-3.812401 0.80331,-10.095902 -4.79542,-11.115388 -2.22995,-0.406057 -5.1473,0.813379 -6.50395,2.718613 l -0.57135,0.802385 1.66106,1.119727 c 2.33245,1.572314 5.07027,3.853808 7.07737,5.897739 0.94168,0.958963 1.78972,1.743569 1.88453,1.743569 0.0948,0 0.65631,-0.52499 1.24776,-1.166645 z"
       id="path13" /><path
       style="fill:#000000"
       d="m 126.33854,118.60915 c -1.94042,-0.30893 -4.28113,-1.5105 -4.60951,-2.36624 -0.23622,-0.61558 0.33171,-1.41374 1.00594,-1.41374 0.33613,0 0.82772,0.23931 1.09242,0.5318 0.86371,0.95439 4.63904,1.76312 4.61944,0.98955 -0.0169,-0.66736 -0.74263,-5.79934 -0.82875,-5.8606 -0.0489,-0.0348 -0.61875,-0.21569 -1.26633,-0.40202 -0.64758,-0.18633 -1.57032,-0.73168 -2.05052,-1.21188 -0.7234,-0.7234 -0.8731,-1.07288 -0.8731,-2.03828 0,-0.97455 0.14514,-1.30586 0.88712,-2.02502 1.5757,-1.52723 5.06605,-2.09731 7.31977,-1.19555 2.55665,1.02297 2.38783,4.0544 -0.31951,5.73738 -1.45645,0.90538 -1.47466,0.99216 -0.96846,4.61472 0.35212,2.51989 0.42184,2.56025 2.57189,1.48883 0.87361,-0.43533 1.64074,-1.06889 2.05834,-1.69993 0.77029,-1.16398 1.25046,-1.41716 1.96376,-1.03541 1.14589,0.61326 0.10319,2.59389 -2.10437,3.99731 -2.03746,1.29528 -6.29007,2.24061 -8.49813,1.88908 z"
       id="path12" /><path
       style="fill:#000000"
       d="m 54.277222,182.09423 c -0.06924,-0.11203 -0.209315,-1.05037 -0.311285,-2.08521 -0.10197,-1.03483 -0.260708,-1.99511 -0.352751,-2.13394 -0.09204,-0.13883 -0.881726,-0.66612 -1.754851,-1.17174 -2.170635,-1.25702 -2.182575,-1.70568 -0.07578,-2.84751 0.914806,-0.49581 1.695567,-0.92496 1.735024,-0.95369 0.03946,-0.0287 0.24606,-1.0437 0.459117,-2.25551 0.361163,-2.0542 0.730642,-2.78716 1.244794,-2.4694 0.117379,0.0725 0.868129,0.95246 1.668332,1.95537 l 1.454916,1.82347 1.916175,0.0777 c 1.728728,0.0701 1.924088,0.1332 1.997063,0.64508 0.04449,0.31205 -0.304728,1.19408 -0.776036,1.96005 l -0.856923,1.39268 0.764491,2.20545 c 0.978963,2.82416 0.842429,2.9992 -1.70063,2.18015 l -1.88372,-0.60669 -1.262707,1.24372 c -1.177864,1.16015 -1.96705,1.52249 -2.265226,1.04003 z"
       id="path11" /><path
       style="fill:#000000"
       d="m 165.60759,192.62491 c -0.8346,-0.33763 -1.91491,-1.75822 -2.23168,-2.93461 -1.01314,-3.76252 2.81479,-6.8901 5.81673,-4.75253 1.13237,0.80632 1.67813,2.00368 1.69109,3.71014 0.0133,1.74928 -0.57602,2.99194 -1.76168,3.71488 -0.87859,0.53571 -2.53313,0.65911 -3.51446,0.26212 z"
       id="path10" /><path
       style="fill:#000000"
       d="m 152.96073,194.19506 c -2.53418,-0.75877 -3.57109,-4.4756 -1.92855,-6.91297 0.73799,-1.0951 1.59085,-1.53569 2.98234,-1.54069 2.15544,-0.008 3.80944,1.88604 3.80944,4.36172 0,1.81543 -0.68594,3.03181 -2.12616,3.77032 -1.24578,0.6388 -1.55598,0.67525 -2.73707,0.32162 z"
       id="path9" /><path
       style="fill:#000000"
       d="m 140.26688,195.5131 c -1.03676,-0.30175 -1.74326,-0.98287 -2.31823,-2.23498 -0.62117,-1.35273 -0.61636,-2.62326 0.0152,-4.01427 1.31065,-2.88669 5.06835,-2.89562 6.37593,-0.0152 1.54584,3.40534 -0.91129,7.18458 -4.0729,6.26441 z"
       id="path8" /><path
       style="fill:#000000"
       d="m 101.36581,196.03289 c -1.428237,-1.12346 -1.899319,-3.2495 -1.12524,-5.07837 0.52074,-1.23033 1.30995,-1.82195 2.62872,-1.9706 1.01758,-0.11469 1.27398,-0.0292 2.10823,0.70333 1.44837,1.27168 1.77068,3.61862 0.75706,5.51259 -0.72457,1.35386 -3.12481,1.81154 -4.36877,0.83305 z"
       id="path7" /><path
       style="fill:#000000"
       d="m 90.650033,197.21182 c -0.807033,-0.56527 -1.604617,-2.35223 -1.611929,-3.61147 -0.01271,-2.18887 1.375082,-3.8941 3.169189,-3.8941 3.088082,0 4.501254,4.79987 2.115563,7.18556 -0.595953,0.59595 -0.990942,0.75194 -1.904047,0.75194 -0.637435,0 -1.427587,-0.19296 -1.768776,-0.43193 z"
       id="path6" /><path
       style="fill:#000000"
       d="m 155.61237,201.5497 c -0.27123,-0.20354 -0.44803,-0.59853 -0.39421,-0.88073 0.0841,-0.44087 0.48168,-0.55704 2.87304,-0.83944 1.52651,-0.18026 3.43031,-0.35885 4.23067,-0.39687 1.39427,-0.0662 1.45521,-0.0414 1.45521,0.59234 0,1.10718 -1.57965,1.68807 -4.89479,1.79998 -2.0827,0.0703 -2.90123,10e-4 -3.26992,-0.27528 z"
       id="path5" /><path
       style="fill:#000000"
       d="m 179.19583,235.01614 c -0.22329,-0.25466 -0.59567,-0.83775 -0.82751,-1.29576 -0.23184,-0.45801 -1.02011,-1.20105 -1.7517,-1.6512 -1.73492,-1.06751 -1.74513,-1.63124 -0.0485,-2.67522 0.7996,-0.492 1.59168,-1.28727 2.10574,-2.11422 1.09249,-1.75745 1.62217,-1.74106 2.79114,0.0863 0.57589,0.90027 1.34587,1.67134 2.1248,2.12782 1.61524,0.9466 1.60163,1.523 -0.0601,2.54548 -0.7996,0.492 -1.59167,1.28727 -2.10574,2.11422 -0.88009,1.41578 -1.52441,1.6652 -2.22817,0.86255 z"
       id="path4" /><path
       style="fill:#000000"
       d="m 158.55059,256.01175 c -0.20264,-0.20265 -0.99531,-1.89905 -1.76148,-3.76979 -0.76617,-1.87074 -1.53137,-3.54041 -1.70045,-3.71039 -0.16907,-0.16997 -1.73616,-0.93337 -3.48241,-1.69643 -1.74625,-0.76306 -3.35158,-1.54895 -3.56739,-1.74643 -0.70847,-0.64829 0.0557,-1.2103 3.70248,-2.7229 l 3.52643,-1.46269 1.50248,-3.6917 c 0.82636,-2.03043 1.69693,-3.81435 1.93459,-3.96426 0.68729,-0.43354 1.10735,0.2113 2.66379,4.08924 l 1.42813,3.55825 3.40058,1.41601 c 3.73083,1.55353 4.33079,1.94777 3.92526,2.57933 -0.14306,0.22278 -1.73452,1.05261 -3.53659,1.84405 -1.80207,0.79145 -3.4249,1.56217 -3.60629,1.71271 -0.1814,0.15054 -0.96226,1.88637 -1.73527,3.85741 -1.42322,3.629 -1.991,4.41044 -2.69386,3.70759 z"
       id="path3" /><path
       style="fill:#000000"
       d="m 136.34893,263.45885 c -0.22523,-0.1819 -1.01483,-1.40229 -1.75467,-2.71198 -0.73984,-1.30969 -2.42379,-4.16383 -3.74211,-6.34255 -1.58452,-2.61865 -2.40031,-4.23286 -2.40688,-4.7625 -0.006,-0.51764 -0.32613,-1.17069 -0.90335,-1.84519 -0.84386,-0.98608 -0.96709,-1.04008 -2.2215,-0.9735 -0.73045,0.0388 -1.58047,-0.0646 -1.88893,-0.22967 -0.8849,-0.47358 -1.58878,-1.86247 -1.58988,-3.13711 -8.2e-4,-0.95682 0.15074,-1.30266 0.8986,-2.05052 0.77766,-0.77766 1.07486,-0.89958 2.19281,-0.89958 1.82335,0 2.9895,0.97953 3.18018,2.67126 0.0938,0.83259 5e-5,1.47339 -0.30081,2.0552 -0.43071,0.83289 -0.42453,0.86302 0.4177,2.0358 0.47019,0.65472 1.13084,1.25966 1.46813,1.34432 0.37987,0.0953 2.42283,2.3327 5.36853,5.87939 4.47355,5.38626 4.7556,5.79071 4.76042,6.82644 0.004,0.90789 -0.13764,1.22109 -0.80893,1.78594 -0.87561,0.73678 -2.00937,0.88724 -2.66931,0.35425 z"
       id="path2" /><path
       style="fill:#000000"
       d="m 142.03389,270.77106 c -1.86901,-0.92171 -2.11052,-3.42131 -0.4874,-5.04443 0.74595,-0.74595 1.0666,-0.87872 2.12226,-0.87872 1.06145,0 1.37527,0.13173 2.14313,0.89959 0.72578,0.72578 0.89958,1.10583 0.89958,1.96715 0,1.5186 -0.38753,2.34637 -1.38247,2.95299 -1.03676,0.63211 -2.15207,0.66712 -3.2951,0.10342 z"
       id="path1" /></g></svg>
