<?xml version="1.0" encoding="UTF-8" standalone="no"?>
<!-- Created with Inkscape (http://www.inkscape.org/) -->

<svg
   width="324.91354mm"
   height="325.34259mm"
   viewBox="0 0 324.91354 325.34259"
   version="1.1"
   id="svg1"
   xml:space="preserve"
   sodipodi:docname="stamp_goal_clover_3.svg"
   inkscape:version="1.4.4 (dcaf3e7, 2026-05-05)"
   xmlns:inkscape="http://www.inkscape.org/namespaces/inkscape"
   xmlns:sodipodi="http://sodipodi.sourceforge.net/DTD/sodipodi-0.dtd"
   xmlns="http://www.w3.org/2000/svg"
   xmlns:svg="http://www.w3.org/2000/svg"><sodipodi:namedview
     id="namedview1"
     pagecolor="#ffffff"
     bordercolor="#000000"
     borderopacity="0.25"
     inkscape:showpageshadow="2"
     inkscape:pageopacity="0.0"
     inkscape:pagecheckerboard="0"
     inkscape:deskcolor="#d1d1d1"
     inkscape:document-units="mm"
     inkscape:zoom="0.021144379"
     inkscape:cx="614.82062"
     inkscape:cy="591.17367"
     inkscape:window-width="944"
     inkscape:window-height="250"
     inkscape:window-x="0"
     inkscape:window-y="33"
     inkscape:window-maximized="0"
     inkscape:current-layer="layer1"><inkscape:page
       x="0"
       y="0"
       width="324.91354"
       height="325.34259"
       id="page2"
       margin="0"
       bleed="0" /></sodipodi:namedview><defs
     id="defs1" /><g
     inkscape:label="Layer 1"
     inkscape:groupmode="layer"
     id="layer1"
     transform="translate(51.434631,-6.1345007)"><path
       style="fill:#000000"
       d="m 103.98125,331.34286 c -7.44,-0.76625 -12.278864,-2.08457 -20.610779,-5.61528 -9.940998,-4.21257 -18.114971,-5.89719 -26.617347,-5.48572 -6.639239,0.3213 -11.361136,1.31147 -19.711459,4.13346 -2.983177,1.00817 -6.793177,2.18466 -8.466667,2.61444 -22.6264682,5.81079 -44.440299,0.28867 -59.940403,-15.17377 -11.901407,-11.87248 -18.393666,-27.47504 -18.37168,-44.15183 0.0083,-6.31136 0.814551,-11.73024 3.176428,-21.3496 2.503658,-10.19681 2.567235,-12.07868 0.647623,-19.16977 -2.631844,-9.72209 -3.202103,-14.44144 -2.493715,-20.6375 0.498638,-4.36143 1.934389,-10.01028 3.432715,-13.50573 l 0.491595,-1.14684 -0.678884,-1.40497 c -2.316675,-4.79439 -4.50041,-11.73307 -5.56324,-17.67683 -0.593695,-3.32018 -0.689015,-4.61978 -0.708322,-9.6573 -0.01717,-4.47916 0.08899,-6.49166 0.460551,-8.73125 1.194178,-7.19784 2.933365,-12.62181 6.046011,-18.85557 l 1.620374,-3.24516 -1.101194,-2.75552 c -0.605656,-1.51553 -1.101193,-3.04361 -1.101193,-3.39572 0,-0.35211 0.463936,-2.47383 1.03097,-4.71495 3.450648,-13.63814 2.781876,-25.259436 -2.487937,-43.233077 -2.335821,-7.966733 -3.057963,-12.216359 -3.056629,-17.987489 0.0013,-5.767113 0.770812,-10.316592 2.708111,-16.01147 5.012932,-14.735996 16.569195,-26.838179 30.645069,-32.092745 C -10.916133,9.9451987 -5.3053104,8.9491104 1.0583313,8.9455829 9.7533303,8.9407632 15.0327,9.9839436 27.91354,14.252055 37.716941,17.500446 42.476774,18.56091 49.696935,19.105272 59.927147,19.876576 70.163433,17.764264 82.081489,12.422546 93.31943,7.3856593 99.73936,5.8937376 109.00833,6.1650421 c 7.34483,0.2149843 11.78168,1.3273877 19.42196,4.8694549 9.5949,4.448235 13.0827,5.730985 18.54145,6.819204 11.91769,2.375829 22.26364,1.186149 37.74932,-4.340791 15.74862,-5.6207842 26.8486,-6.7924085 39.91019,-4.2125979 6.78526,1.3401649 15.00421,4.8076429 20.16862,8.5089019 12.11465,8.682402 20.75908,22.512213 23.3499,37.356409 1.40482,8.048941 0.97046,16.134461 -1.46555,27.280623 -1.93665,8.861329 -2.62385,14.357826 -2.6275,21.015894 -0.004,6.6523 0.55665,10.69821 2.51788,18.18137 0.50554,1.92888 0.91915,3.78072 0.91915,4.1152 0,0.33448 -0.39761,1.7924 -0.88357,3.23982 l -0.88358,2.63168 0.50093,0.79375 c 2.64369,4.18905 5.25951,11.46067 6.29889,17.51 2.26388,13.17614 0.48809,26.69617 -5.28339,40.22514 l -0.74816,1.75378 0.5106,1.47637 c 1.72688,4.99325 2.60485,10.39566 2.60485,16.02846 0,5.18206 -0.52941,8.68745 -2.4575,16.27187 l -1.37886,5.42396 0.009,4.63021 c 0.008,4.48393 0.0479,4.81829 1.25539,10.58333 2.8476,13.59601 3.39011,21.2391 2.15035,30.2948 -2.47117,18.05025 -12.25726,34.10101 -26.56532,43.57139 -10.26711,6.79571 -24.23564,10.26944 -37.20586,9.25244 -7.30267,-0.5726 -11.86544,-1.58888 -21.53164,-4.79581 -9.84597,-3.26657 -15.79409,-4.33441 -24.07709,-4.32246 -9.25558,0.0134 -15.9003,1.45307 -26.16233,5.66862 -7.76225,3.18867 -12.84407,4.5837 -19.13713,5.25343 -2.40019,0.25544 -8.43439,0.30895 -10.52762,0.0934 z m 14.39805,-6.68184 c 4.25853,-0.85898 8.26053,-2.14486 13.24312,-4.25515 6.96142,-2.94839 12.18463,-4.51704 18.26404,-5.48512 4.17193,-0.66434 15.98353,-0.65995 20.10833,0.007 5.10518,0.82604 8.83433,1.77257 15.34584,3.89504 7.51673,2.45014 8.5487,2.74799 11.95593,3.45077 18.66297,3.84943 36.57542,-0.84177 48.97358,-12.82598 5.17661,-5.00378 8.3312,-9.26223 11.38114,-15.36367 4.18281,-8.36779 6.13831,-16.78384 6.13831,-26.41809 0,-6.77686 -0.54823,-10.72457 -3.18389,-22.92671 -0.63846,-2.95581 -0.86193,-4.75542 -0.97353,-7.8399 -0.16956,-4.68674 0.18641,-7.31926 1.78064,-13.16812 2.46603,-9.04728 2.88598,-14.34619 1.68914,-21.31363 -0.44014,-2.5623 -1.71307,-6.79393 -2.75514,-9.15904 l -0.59136,-1.34216 1.52031,-3.42034 c 2.00316,-4.50666 4.18955,-11.15639 5.00639,-15.22659 1.01366,-5.05087 1.29733,-8.53063 1.12974,-13.85834 -0.26057,-8.28376 -1.85654,-14.89424 -5.20265,-21.54932 -1.01397,-2.01669 -1.09382,-2.10153 -2.05244,-2.18075 l -0.99742,-0.0824 -0.0777,-1.7611 c -0.0679,-1.53938 0.0708,-2.16264 1.10174,-4.95077 l 1.1794,-3.18968 -1.01216,-4.08528 c -1.73744,-7.01264 -2.38194,-11.96212 -2.38194,-18.29234 0,-6.396464 0.60257,-11.065248 2.91965,-22.621929 1.94374,-9.694582 2.34778,-13.869611 1.89076,-19.537628 -0.54342,-6.739688 -2.03321,-12.385322 -4.79355,-18.165444 -6.69638,-14.022173 -17.79204,-23.462802 -31.89649,-27.138799 -12.15333,-3.167485 -24.42481,-2.127734 -39.55787,3.351701 -15.43096,5.5873 -26.52983,6.960134 -39.15833,4.843546 -6.26391,-1.049857 -10.71764,-2.569176 -19.71146,-6.724258 -2.91042,-1.344591 -6.05923,-2.705538 -6.99735,-3.024325 -3.25595,-1.106412 -7.19805,-1.904705 -10.39098,-2.10422 -8.07945,-0.504857 -15.101263,0.973587 -24.479229,5.154103 -7.227883,3.22205 -11.134872,4.647713 -16.208485,5.914487 C 61.152075,25.372652 53.73012,25.809036 44.979165,24.713783 38.719662,23.930356 35.615754,23.151859 25.523038,19.833954 13.090088,15.746716 8.5454885,14.914365 0.00692615,15.160639 -7.3663332,15.373303 -11.962872,16.454146 -18.178399,19.436791 c -14.259919,6.842906 -24.299611,21.505962 -25.755988,37.616842 -0.511321,5.656379 0.261742,11.200983 2.746391,19.697809 3.838564,13.12685 4.85669,19.868238 4.602702,30.476208 -0.152947,6.38795 -0.588307,9.68444 -2.039179,15.44042 l -0.808794,3.20869 1.460382,3.4687 c 1.636846,3.88783 1.864951,5.45205 0.931216,6.38579 -0.291042,0.29104 -0.74903,0.52917 -1.017752,0.52917 -0.652495,0 -3.314286,5.5778 -4.783136,10.02309 -1.920659,5.81264 -2.668459,10.57818 -2.660932,16.95747 0.01031,8.73685 1.980236,16.65522 6.450511,25.92864 0.524137,1.0873 0.952975,2.25423 0.952975,2.59318 0,0.33894 -0.463836,1.71152 -1.030746,3.05017 -2.59669,6.13158 -3.32929,9.69462 -3.32929,16.19224 0,5.66667 0.108273,6.33856 2.293418,14.23174 1.273562,4.60036 1.339847,5.00392 1.465706,8.92359 0.150124,4.67537 0.02617,5.49972 -2.048214,13.62175 -1.506509,5.89857 -1.96174,8.14809 -2.505899,12.38283 -0.513352,3.995 -0.513885,11.62716 -0.0011,15.23519 1.192559,8.3904 4.084659,16.03724 8.667553,22.9174 13.395955,20.11093 36.41417,28.92559 60.44669,23.1476 1.779953,-0.42794 6.304328,-1.78252 10.054167,-3.01017 10.244413,-3.35389 15.079482,-4.23787 23.089764,-4.22144 5.598032,0.0115 9.362012,0.47764 14.699083,1.82044 3.479202,0.87535 5.639852,1.65431 14.156618,5.10371 4.83649,1.95884 9.057337,3.18831 13.259933,3.8624 3.80787,0.61078 13.44708,0.41018 17.26158,-0.35923 z"
       id="path31" /><path
       style="fill:#000000"
       d="m 182.57883,61.842452 c -0.46416,-0.23515 -0.93026,-1.03529 -1.66161,-2.852441 l -1.01649,-2.525613 -1.96528,-0.972445 c -2.16018,-1.068887 -2.93442,-1.929127 -2.67315,-2.970095 0.12757,-0.508294 0.70616,-0.9349 2.47656,-1.82603 l 2.3101,-1.162786 1.01598,-2.677238 c 1.00496,-2.648214 1.43909,-3.199556 2.5193,-3.199556 0.76206,0 1.42541,0.982613 2.39166,3.54272 0.84917,2.24991 0.85375,2.255666 2.35673,2.957985 2.28474,1.06762 3.2257,1.863128 3.2257,2.727056 0,0.943188 -0.72118,1.593607 -3.06344,2.762842 l -1.87282,0.934895 -0.88289,2.283696 c -0.52721,1.363694 -1.14612,2.490753 -1.5363,2.797668 -0.76596,0.602505 -0.78468,0.604573 -1.62405,0.179342 z"
       id="path30" /><path
       style="fill:#000000"
       d="m 126.88301,75.555569 c -1.54199,-0.571401 -2.32457,-1.233196 -3.01074,-2.54606 -1.15882,-2.217181 -0.24163,-5.39443 2.00711,-6.952807 1.40267,-0.972048 3.61639,-1.417824 5.21935,-1.051016 0.90517,0.207132 1.25662,0.20278 1.31857,-0.01633 0.0465,-0.164303 0.43453,-4.382745 0.86237,-9.374316 0.58774,-6.857091 0.87355,-9.17124 1.16922,-9.466906 0.30384,-0.303844 2.22096,-0.505766 8.5759,-0.903268 12.42181,-0.776984 11.97607,-0.775604 12.57271,-0.03892 0.42215,0.521243 0.48235,0.912265 0.36656,2.38125 -0.0762,0.966679 -0.44207,6.401035 -0.81306,12.076348 -0.71784,10.981512 -0.85355,11.766958 -2.3009,13.317195 -1.60597,1.720123 -4.61006,2.575465 -6.66431,1.8975 -1.4649,-0.483458 -2.98637,-1.971341 -3.33328,-3.259694 -1.09393,-4.062525 2.94263,-8.063991 7.15907,-7.096833 0.65089,0.149302 1.23257,0.222336 1.29261,0.162299 0.16183,-0.161832 0.8579,-11.299699 0.7151,-11.442493 -0.13792,-0.137929 -15.03551,0.744426 -15.20939,0.900823 -0.0616,0.0554 -0.43326,3.886283 -0.82592,8.513083 -0.73222,8.627756 -0.81489,9.053084 -2.1209,10.912243 -1.20583,1.716556 -4.88482,2.764323 -6.98007,1.987906 z"
       id="path29" /><path
       style="fill:#000000"
       d="m 249.84807,132.38343 c -0.44845,-0.68443 -0.43465,-0.77414 0.55119,-3.5849 0.62978,-1.79558 0.96036,-3.15242 0.8765,-3.59749 -0.074,-0.39302 -0.61181,-2.56005 -1.19501,-4.81562 -1.68471,-6.51577 -2.00785,-9.19759 -2.00846,-16.66875 -6.4e-4,-7.720694 0.21554,-9.509929 2.62137,-21.695838 2.06696,-10.469537 2.25911,-11.861625 2.26377,-16.400642 0.006,-5.411491 -0.74695,-9.712451 -2.48813,-14.220942 -5.35775,-13.87299 -16.06464,-22.995589 -30.60055,-26.072622 -2.41138,-0.510452 -3.56401,-0.586769 -8.73125,-0.5781 -8.31499,0.01395 -10.69792,0.494584 -22.91034,4.621 -8.06543,2.7252 -13.65852,4.193051 -19.3459,5.077137 -3.39342,0.527497 -4.86299,0.60626 -11.0573,0.592624 -9.31694,-0.02051 -14.65721,-0.825282 -22.19687,-3.34505 -7.79119,-2.603827 -19.46557,-8.491936 -18.59238,-9.377285 0.12164,-0.123335 1.07414,-0.218512 2.11666,-0.211503 1.80576,0.01214 2.10103,0.110297 6.23617,2.073104 9.27218,4.401179 15.10643,6.260904 23.44059,7.471922 4.83217,0.702152 13.88117,0.637396 18.9177,-0.135377 6.94796,-1.066049 11.98737,-2.381664 19.84375,-5.180514 9.5887,-3.415991 14.80347,-4.565097 21.85781,-4.816499 8.71251,-0.310497 15.87191,1.230252 23.1524,4.982546 8.40163,4.33012 15.30984,11.700808 19.30295,20.5952 3.21132,7.152997 4.50907,14.415313 3.91428,21.90461 -0.30383,3.82582 -0.72057,6.307974 -2.56364,15.269349 -2.11824,10.299297 -2.7288,17.05088 -2.17736,24.07708 0.37681,4.80111 1.25426,9.71317 2.53397,14.18535 l 0.95315,3.33097 -1.19906,2.98305 c -0.65949,1.64068 -1.38425,3.26568 -1.61059,3.61112 -0.54213,0.8274 -1.335,0.79663 -1.90542,-0.0739 z"
       id="path28" /><path
       style="fill:#000000"
       d="m -29.405397,132.75469 c -0.289174,-0.32743 -1.126828,-1.96453 -1.861455,-3.63802 -1.257458,-2.86451 -1.318356,-3.10469 -1.039817,-4.10105 2.256591,-8.07195 2.797519,-12.00078 2.786765,-20.24062 -0.01273,-9.756621 -0.847468,-15.042073 -4.451886,-28.188848 -2.50838,-9.14908 -2.913564,-11.675905 -2.734803,-17.054904 0.150522,-4.529296 0.897314,-8.121266 2.562918,-12.327301 3.550732,-8.966419 10.695996,-16.745161 19.194714,-20.896459 5.8545542,-2.859725 10.4872935,-3.928431 16.933334,-3.906276 6.6125012,0.02273 10.557934,0.828532 21.166667,4.323026 10.55952,3.478283 16.981963,4.92838 24.554516,5.544062 4.380979,0.356193 6.647894,0.350913 12.619443,-0.02939 3.211446,-0.204526 5.531733,-0.227606 6.746875,-0.06711 l 1.852084,0.244621 -2.958069,0.992198 c -1.626938,0.545709 -4.424907,1.243374 -6.217709,1.550367 -2.863787,0.490384 -3.918328,0.539622 -8.683598,0.405451 C 41.128706,35.084676 35.019393,33.866939 21.828123,29.536884 11.654376,26.197334 8.4138726,25.539943 2.1166647,25.538076 c -4.799065,-0.0014 -7.0187285,0.343041 -11.2447919,1.74505 -7.7327228,2.565352 -14.6341348,8.021424 -19.2347198,15.206455 -2.115858,3.304471 -4.24946,8.728687 -4.98609,12.676042 -0.190093,1.018646 -0.354583,3.280833 -0.365532,5.027083 l -0.01991,3.175 3.96875,-0.07244 C -19.985964,63.116763 -4.8903617,61.302009 8.4666648,58.699078 35.673206,53.397244 61.499244,44.673645 86.100062,32.475828 c 9.06899,-4.496675 16.807988,-8.825861 21.298768,-11.914496 1.52604,-1.049571 3.37692,-1.277458 4.07855,-0.502165 1.00349,1.108843 0.58352,1.585808 -4.21714,4.789469 l -4.52621,3.020514 -0.17121,8.621153 c -0.46399,23.365083 -0.39215,22.511778 -1.89544,22.511778 -0.756788,0 -2.327449,-1.177309 -22.698046,-17.013605 l -1.00879,-0.784243 -1.849303,0.744471 c -1.017117,0.409459 -1.893406,0.815831 -1.947309,0.903048 -0.0539,0.08722 -0.406989,2.476799 -0.784636,5.310182 -1.49097,11.186367 -3.679397,24.468321 -4.118806,24.997776 -0.96668,1.164779 -1.340563,0.861046 -21.76153,-17.678516 l -2.263406,-2.054877 -1.79434,0.60507 -1.794341,0.605069 -1.908449,7.672917 c -2.252532,9.056298 -5.763416,21.402045 -6.333926,22.272754 -0.752954,1.149153 -1.40728,0.798057 -4.650128,-2.49515 C 25.428878,79.725373 12.83929,66.466696 9.5229757,62.886654 9.1106383,62.441525 8.9326855,62.431646 7.1400644,62.754362 L 5.2027685,63.103123 4.816587,64.293748 c -1.8013255,5.553614 -5.76270866,16.398706 -8.5856578,23.504985 -2.1041584,5.296849 -2.8542057,5.834601 -4.7450218,3.401979 -0.4745642,-0.610549 -5.0195894,-6.319073 -10.1000564,-12.68561 l -9.237213,-11.575521 h -1.916247 c -1.053937,0 -2.273914,0.07153 -2.711062,0.158963 l -0.794814,0.158963 0.496056,2.288433 c 0.27283,1.258638 0.965298,3.895777 1.538818,5.860308 1.553863,5.322595 2.831361,10.589626 3.433289,14.155209 2.069988,12.261783 1.76377,23.366433 -0.91184,33.066813 l -0.877428,3.1811 1.171252,2.74416 c 1.294811,3.03366 1.401803,3.71206 0.687398,4.35859 -0.650426,0.58862 -1.043269,0.55158 -1.669457,-0.15743 z"
       id="path27" /><path
       style="fill:#000000"
       d="m -5.8845787,134.04698 c -1.4424819,-0.53688 -2.277072,-1.14687 -2.8434782,-2.07825 -1.2742341,-2.09531 -0.788321,-4.97138 1.1402599,-6.74909 1.4717029,-1.35656 2.7083591,-1.7623 4.8479473,-1.59055 l 1.6815143,0.13497 v -8.80067 c 0,-7.75392 0.050481,-8.84258 0.42442258,-9.15292 0.64864682,-0.53833 15.18744082,-3.38673 15.91685082,-3.11839 0.32921,0.12112 0.713514,0.49049 0.854009,0.82084 0.255148,0.59992 2.035041,9.06408 3.325497,15.81416 1.193951,6.24529 0.890018,8.56054 -1.393806,10.61755 -1.353672,1.21923 -2.641732,1.64189 -4.577059,1.5019 -2.689543,-0.19454 -4.2311642,-1.86114 -4.2311642,-4.57418 0,-1.89215 0.4513836,-2.94371 1.7770532,-4.1399 1.282291,-1.15704 2.611819,-1.63628 4.191022,-1.51068 0.646621,0.0514 1.175675,0.002 1.175675,-0.11013 0,-0.41207 -2.128852,-10.08702 -2.245103,-10.20327 -0.06615,-0.0662 -2.743224,0.39857 -5.9490463,1.03273 l -5.8287677,1.15301 v 7.70464 c 0,8.34299 -0.1273164,9.33157 -1.42006817,11.02645 -1.46955741,1.92669 -4.76500633,2.99622 -6.84575853,2.22178 z"
       id="path26" /><path
       style="fill:#000000"
       d="m 229.85934,134.81851 c -0.47435,-0.64753 -1.36848,-1.54124 -1.98694,-1.98604 -1.26749,-0.91155 -1.43283,-1.62653 -0.53869,-2.32933 0.89714,-0.70515 2.40245,-2.27758 2.93229,-3.06302 0.6943,-1.02925 1.35073,-0.8808 2.4413,0.55207 0.5261,0.69122 1.38213,1.51559 1.90229,1.83194 1.78738,1.08703 1.84391,1.87125 0.21565,2.99152 -0.6507,0.4477 -1.54939,1.34639 -1.99709,1.99709 -1.0935,1.58936 -1.80771,1.59075 -2.96881,0.006 z"
       id="path25" /><path
       style="fill:#000000"
       d="m 197.55247,152.44531 c -0.76617,-0.8466 -0.5237,-1.6883 1.00746,-3.49718 3.19407,-3.77342 3.66957,-6.21963 2.0034,-10.30646 -0.81972,-2.01063 -0.91786,-2.51534 -0.92605,-4.7625 -0.0116,-3.19316 0.52038,-4.36614 3.17066,-6.99075 2.59746,-2.5723 2.76875,-2.96783 2.90555,-6.70947 l 0.1136,-3.10712 -2.66158,-0.91847 c -2.15126,-0.74237 -2.7327,-1.05598 -3.03245,-1.63563 -0.51258,-0.99123 -0.26887,-1.47728 2.27679,-4.54088 l 2.16324,-2.60335 -0.61501,-0.43077 c -2.82984,-1.98209 -6.13703,-5.76665 -8.25258,-9.443773 -4.61067,-8.013973 -5.56385,-18.135763 -2.52337,-26.795647 3.87751,-11.043887 12.09331,-18.174848 22.81852,-19.805475 4.92172,-0.748283 9.8647,0.01998 14.58373,2.266663 9.85573,4.692234 15.44047,14.741985 14.85948,26.739667 -0.58024,11.981958 -7.88036,23.193355 -18.27317,28.063585 -2.91535,1.36618 -6.84064,2.39005 -9.94777,2.59477 -2.91148,0.19182 -2.69015,-0.31599 -1.83655,4.21372 0.46554,2.47042 0.476,2.79781 0.1119,3.50189 -0.54985,1.06331 -1.48093,1.23747 -3.56476,0.6668 -3.25583,-0.89163 -2.91267,-1.11888 -2.91267,1.92888 0,3.83576 -0.5363,5.13794 -3.17683,7.71369 -1.11885,1.09141 -2.25243,2.40109 -2.51905,2.91042 -0.73567,1.40531 -0.58515,3.21762 0.50078,6.02946 1.58547,4.1053 1.54465,6.54384 -0.16704,9.97783 -0.87271,1.75084 -3.14795,4.75781 -3.90767,5.16439 -0.75614,0.40468 -1.71817,0.30654 -2.19856,-0.22429 z m 14.27831,-38.34375 c -0.0928,-0.69122 -0.31645,-1.83686 -0.49711,-2.54585 -0.32426,-1.27259 -0.34878,-1.29539 -1.91596,-1.78204 -0.87312,-0.27113 -1.66329,-0.49471 -1.75592,-0.49686 -0.21281,-0.005 -3.24778,3.69092 -3.10908,3.78609 0.17994,0.12348 6.97213,2.27539 7.21419,2.28561 0.12789,0.005 0.15663,-0.55572 0.0639,-1.24695 z m -9.02026,-35.571822 c 0.77887,-0.354876 1.44782,-1.460677 1.44782,-2.393304 0,-0.340455 0.18038,-1.328633 0.40085,-2.195951 1.12791,-4.437175 4.51964,-8.765964 8.38377,-10.700024 1.16851,-0.584858 2.33285,-1.063378 2.58741,-1.063378 0.73896,0 1.80113,-0.994767 1.99249,-1.86606 0.22824,-1.039146 -0.40271,-2.0203 -1.62858,-2.532497 -0.81479,-0.340442 -1.11222,-0.337104 -2.5393,0.0285 -5.78488,1.482018 -11.23935,7.060592 -13.27245,13.57443 -1.28497,4.116924 -1.18227,6.239166 0.34202,7.0676 0.8585,0.466589 1.39727,0.485606 2.28597,0.08069 z"
       id="path24" /><path
       style="fill:#000000"
       d="m 222.052,171.15777 c -1.27196,-0.62961 -2.34632,-1.78763 -2.91273,-3.13954 -0.49946,-1.19214 -0.32099,-3.39486 0.35042,-4.32495 0.77916,-1.07936 3.01535,-2.0933 4.39469,-1.99266 l 1.14375,0.0835 1.37072,-5.54207 c 0.94501,-3.82082 1.51539,-5.64786 1.83651,-5.88266 0.77126,-0.56396 1.70524,-0.38902 2.85093,0.53401 0.59707,0.48102 2.05991,1.55519 3.25075,2.38703 3.28499,2.29468 4.56222,4.19918 4.55532,6.79254 -0.004,1.43166 -0.54227,2.79882 -1.95798,4.97138 -1.30796,2.0072 -2.00255,2.44498 -2.99737,1.88913 -1.07247,-0.59923 -1.05544,-1.60477 0.0577,-3.40823 1.29189,-2.09302 1.53148,-2.79507 1.20115,-3.51948 -0.26251,-0.57565 -4.33901,-3.79912 -5.00307,-3.95614 -0.21753,-0.0514 -0.66616,1.20753 -1.32699,3.72392 l -0.99836,3.80162 0.78732,1.49005 c 0.62389,1.18074 0.76162,1.7231 0.66354,2.61283 -0.34818,3.15849 -4.19434,5.00038 -7.26632,3.47977 z"
       id="path23" /><path
       style="fill:#000000"
       d="m -32.203322,187.75152 c -1.199022,-1.82389 -3.363112,-7.06958 -4.416554,-10.70559 -1.307899,-4.51429 -1.774592,-7.56238 -1.930316,-12.60739 -0.153726,-4.9803 0.217551,-8.45061 1.414457,-13.22086 1.546242,-6.16253 6.248472,-16.0156 7.643208,-16.0156 0.482273,0 1.182108,1.0387 1.182108,1.7545 0,0.31813 -0.882905,2.3813 -1.96201,4.58483 -2.214996,4.523 -3.811297,9.12081 -4.701819,13.5426 -0.867425,4.3071 -0.864563,11.96487 0.0061,16.32965 0.734322,3.68128 2.071375,8.15348 3.329371,11.13617 1.184998,2.8096 1.400073,3.84952 0.858928,4.15305 -0.226218,0.12688 -0.439081,0.68742 -0.487437,1.28358 l -0.08585,1.05833 z"
       id="path22" /><path
       style="fill:#000000"
       d="m 252.68297,188.29242 c -0.005,-1.05628 -0.0989,-1.30587 -0.53505,-1.41992 -0.29104,-0.0761 -0.52917,-0.21403 -0.52917,-0.30649 0,-0.0925 0.58611,-1.55115 1.30247,-3.24152 5.00901,-11.81961 5.98082,-22.36246 3.05783,-33.17345 -0.86769,-3.20923 -1.94796,-5.93727 -3.83825,-9.69279 -0.86921,-1.7269 -1.58038,-3.3857 -1.58038,-3.68622 0,-1.58133 1.39587,-2.1011 2.35795,-0.87802 0.29935,0.38056 1.32366,2.22468 2.27624,4.09804 6.53213,12.84608 7.1416,26.68243 1.80397,40.95419 -1.08624,2.90441 -3.03173,6.98974 -3.79364,7.96626 l -0.51609,0.66146 z"
       id="path21" /><path
       style="fill:#000000"
       d="m 232.10573,195.0705 c -0.9095,-0.95877 -1.65364,-1.91211 -1.65364,-2.11854 0,-0.20644 0.3071,-0.63422 0.68244,-0.95063 0.37534,-0.31641 1.19659,-1.08225 1.82499,-1.70186 0.75279,-0.74228 1.28674,-1.07124 1.56526,-0.96436 0.70973,0.27235 3.60022,3.19602 3.60022,3.64154 0,0.59451 -3.30797,3.877 -3.88513,3.85521 -0.26427,-0.01 -1.22463,-0.80259 -2.13414,-1.76136 z"
       id="path20" /><path
       style="fill:#000000"
       d="m 184.57379,216.93223 c -1.01906,-0.80159 -2.0124,-2.9139 -2.00548,-4.26458 0.0215,-4.1954 4.68089,-6.13062 6.2419,-2.5925 0.25779,0.58429 0.54294,1.06235 0.63366,1.06235 0.0907,0 0.43381,-0.47839 0.76244,-1.0631 0.82206,-1.46267 0.97344,-3.42302 0.45712,-5.91969 -1.31094,-6.33905 0.36979,-11.41048 4.80199,-14.48951 1.76319,-1.22489 3.79652,-1.81103 6.28241,-1.81103 h 2.16915 l 1.18996,-1.92823 c 1.53103,-2.48089 1.90209,-3.62957 1.70635,-5.28225 -0.25872,-2.18454 0.78224,-3.43589 2.35939,-2.83625 0.82938,0.31533 2.17395,2.20602 2.39079,3.36186 0.35162,1.8743 -0.94016,5.51113 -2.73593,7.70263 -1.44732,1.76627 -3.15962,2.44677 -6.35686,2.52636 -2.02636,0.0504 -2.8108,0.18484 -3.66609,0.6281 -1.56698,0.81211 -3.36527,2.93582 -4.0608,4.79566 -0.71939,1.92363 -0.75171,3.64606 -0.14145,7.53781 0.51644,3.29339 0.31053,5.12506 -0.82891,7.37363 -1.21253,2.39282 -3.58186,4.43109 -5.15078,4.43109 -0.31653,0 -0.85137,0.29766 -1.18853,0.66146 -0.76102,0.82115 -1.89776,0.86335 -2.86033,0.10619 z m 3.00276,-4.23663 0.91301,-0.55659 -0.64408,-0.3447 c -0.83498,-0.44687 -1.57881,-0.0663 -1.57881,0.80771 0,0.79405 0.14399,0.80433 1.30988,0.0936 z"
       id="path19" /><path
       style="fill:#000000"
       d="m 202.59002,224.07268 c -1.00145,-0.58259 -1.04838,-1.48915 -0.17302,-3.34187 0.86447,-1.82966 1.12872,-2.99834 1.54093,-6.81518 0.35528,-3.28972 1.0932,-5.10698 2.83978,-6.9935 1.57232,-1.69829 2.99178,-2.50544 7.51376,-4.27252 4.04599,-1.58107 5.27355,-1.24483 6.68576,1.83131 0.9933,2.16366 1.31368,5.52426 0.64915,6.80932 -0.82641,1.59809 -2.7132,2.5844 -4.27157,2.23293 -2.77448,-0.62575 -7.55019,2.80554 -9.76137,7.01342 -1.71962,3.27246 -3.4196,4.46911 -5.02342,3.53609 z m 9.79788,-12.73689 c 0.906,-0.42425 2.27824,-0.85699 3.04941,-0.96164 1.68653,-0.22887 2.0043,-0.40442 2.34258,-1.29415 0.20072,-0.52795 0.12991,-1.00306 -0.31164,-2.09096 -0.31425,-0.77429 -0.65575,-1.40779 -0.75889,-1.40779 -0.36701,0 -3.89719,1.26425 -4.72387,1.69175 -2.20159,1.13848 -3.67359,3.18942 -4.25466,5.92804 -0.16362,0.77115 -0.29749,1.4601 -0.29749,1.531 0,0.0709 0.74414,-0.49069 1.65364,-1.24798 0.90951,-0.75729 2.39492,-1.72401 3.30092,-2.14827 z"
       id="path18" /><path
       style="fill:#000000"
       d="m 250.65681,233.07712 c -0.38298,-0.70284 -0.48487,-1.40809 -0.45571,-3.1542 0.0378,-2.26025 0.13244,-2.68517 2.06368,-9.26042 1.36914,-4.6615 1.81545,-7.87536 1.6534,-11.90625 -0.15285,-3.80236 -0.64809,-6.42267 -1.93076,-10.21572 -0.89947,-2.65987 -0.94139,-3.36775 -0.21592,-3.64614 0.20703,-0.0794 0.37642,-0.37928 0.37642,-0.6663 0,-1.61625 1.10303,-0.39356 2.24597,2.48962 1.42816,3.60267 2.26853,7.62066 2.43741,11.65373 0.22679,5.41591 -0.21852,7.76737 -3.72741,19.68297 -0.83297,2.82862 -1.61334,5.31958 -1.73415,5.53546 -0.17187,0.30712 -0.32697,0.19557 -0.71293,-0.51275 z"
       id="path17" /><path
       style="fill:#000000"
       d="m -11.276591,233.40488 c -2.601415,-1.88445 -2.862188,-3.23647 -1.019536,-5.28594 1.910082,-2.12448 2.6727192,-2.1026 5.086229,0.14592 1.6107871,1.50067 1.5591203,2.31792 -0.2645833,4.18511 -1.7731394,1.81542 -2.3976797,1.97228 -3.8021097,0.95491 z"
       id="path16" /><path
       style="fill:#000000"
       d="m -30.552874,233.84229 c -0.06713,-0.19112 -0.552189,-1.89531 -1.077915,-3.78708 -0.525726,-1.89177 -1.47721,-5.19117 -2.11441,-7.332 -2.676393,-8.99201 -2.591875,-16.01004 0.289288,-24.02113 1.137436,-3.16264 2.162177,-5.02708 2.76301,-5.02708 0.334345,0 0.579654,0.23642 0.686332,0.66146 0.09131,0.3638 0.272171,0.66146 0.401916,0.66146 0.470562,0 0.216275,1.32056 -0.7209,3.74376 -1.591432,4.11488 -2.246123,7.09074 -2.40694,10.94061 -0.186311,4.46015 0.331026,7.79956 2.08398,13.4521 1.569183,5.05995 1.886746,7.66771 1.164154,9.55978 -0.491956,1.28817 -0.874831,1.69957 -1.068515,1.14812 z"
       id="path15" /><path
       style="fill:#000000"
       d="m 25.079909,249.22226 c -0.24881,-0.14505 -0.532372,-0.70698 -0.630138,-1.24872 -0.265033,-1.46861 -0.514154,-1.80423 -1.801964,-2.42765 -2.254769,-1.09152 -3.240861,-2.00896 -4.154911,-3.86566 -1.123972,-2.28311 -1.143452,-4.24739 -0.07461,-7.52398 0.907236,-2.78119 0.964848,-4.94967 0.17222,-6.48229 -0.640113,-1.23772 -1.241149,-1.81195 -3.303062,-3.15575 -2.806171,-1.82885 -3.832194,-3.93662 -4.098597,-8.41977 -0.08431,-1.41883 -0.18611,-2.57969 -0.22622,-2.57969 -0.04011,0 -1.1189784,0.24844 -2.3974857,0.55208 -2.1485126,0.51027 -2.3900213,0.52087 -3.188944,0.13989 -1.1268497,-0.53736 -1.2672194,-1.19396 -0.9074306,-4.24466 0.1615544,-1.36985 0.2937353,-2.90143 0.2937353,-3.40353 v -0.91291 l -1.9182292,-0.18266 c -6.3199996,-0.60184 -11.7614801,-3.12009 -16.5303528,-7.65005 -9.17424,-8.71463 -12.599872,-22.58247 -8.310481,-33.64295 3.60483,-9.2953 11.56836,-15.4472 21.39601681,-16.52861 7.24501829,-0.79722 14.27198619,1.63271 19.68963119,6.8087 11.546976,11.03192 12.043107,32.02451 1.034969,43.79224 -0.851294,0.91004 -2.209405,2.12902 -3.018025,2.70885 -0.808619,0.57983 -1.475931,1.14629 -1.482915,1.25881 -0.007,0.11251 0.939803,1.59019 2.10397,3.28372 2.975339,4.32828 2.856724,5.08234 -0.992188,6.30756 l -2.182812,0.69485 v 2.06072 c 0,4.33759 0.817043,6.2608 3.240959,7.62877 1.881973,1.06212 3.741812,3.15872 4.343951,4.89695 0.726106,2.09609 0.587089,4.78254 -0.411793,7.95773 -1.249631,3.97225 -0.754606,5.58765 2.224266,7.25838 2.746309,1.54029 3.5672,2.66694 3.5672,4.89588 0,1.72455 -1.216695,2.73503 -2.436756,2.02375 z M 11.754335,209.64332 c 2.048083,-0.53076 3.768735,-1.00235 3.82367,-1.04797 0.1028,-0.0854 -2.863343,-4.29672 -3.151874,-4.47505 -0.08862,-0.0548 -1.045521,0.18051 -2.126444,0.52284 l -1.9653139,0.62242 -0.1810837,1.6792 c -0.099596,0.92356 -0.2370946,2.12568 -0.3055523,2.67139 -0.068458,0.5457 -0.055331,0.99218 0.02917,0.99218 0.084501,0 1.8293438,-0.43425 3.8774279,-0.96501 z M -12.39078,178.8544 c 0.761039,-0.76104 0.787453,-0.86132 0.57496,-2.18281 -0.390405,-2.42795 -0.246553,-6.5289 0.285254,-8.13201 1.146506,-3.45609 3.120892,-6.10883 6.1066055,-8.20467 1.1332358,-0.79548 1.334659,-1.06999 1.4048122,-1.91451 0.063752,-0.76745 -0.065476,-1.13324 -0.583286,-1.65105 -0.9825648,-0.98257 -2.3190474,-0.8962 -4.2766746,0.27636 -5.6825651,3.40369 -9.0837011,11.09733 -8.0794161,18.27628 0.476596,3.40686 1.077436,4.30548 2.889813,4.32205 0.632962,0.006 1.10434,-0.21605 1.677932,-0.78964 z"
       id="path14" /><path
       style="fill:#000000"
       d="m 220.53021,250.50969 c -0.89412,-0.50559 -1.05833,-1.05192 -1.05833,-3.52115 0,-2.03166 -0.10441,-2.60403 -0.71121,-3.89876 -0.39116,-0.83462 -1.01572,-1.91675 -1.38792,-2.40472 -0.84732,-1.1109 -2.81114,-2.1792 -4.43069,-2.41025 -1.7036,-0.24305 -2.59831,-0.99111 -2.59831,-2.17242 0,-1.17871 1.09562,-3.06146 2.3841,-4.09691 0.54657,-0.43923 1.36695,-1.31827 1.82308,-1.95342 0.95887,-1.33519 1.66914,-1.65544 2.47899,-1.11772 0.5072,0.33677 0.70599,0.31804 1.77122,-0.16689 2.5762,-1.17278 6.00852,-0.52593 7.97983,1.50386 1.09297,1.12539 4.26372,7.40277 4.90591,9.71261 0.5236,1.8833 0.27499,3.36687 -0.85149,5.08124 -0.72345,1.10099 -3.06635,2.57854 -4.09475,2.58236 -0.78472,0.003 -1.51862,0.46576 -3.22253,2.03239 -1.276,1.17319 -2.01677,1.37891 -2.9879,0.82978 z m 6.19566,-7.24914 c 0.20615,-0.41877 0.371,-1.23957 0.36633,-1.82399 -0.01,-1.19988 -1.57999,-5.29907 -2.71678,-7.0916 -0.90077,-1.42037 -2.42308,-2.6361 -3.30085,-2.6361 -0.80739,0 -4.05269,1.50316 -4.83965,2.24164 l -0.59112,0.5547 1.4934,0.60697 c 1.82653,0.74236 3.23881,2.0785 4.27225,4.04193 0.77465,1.47177 1.72327,4.00129 2.01445,5.37156 l 0.15133,0.71212 1.38791,-0.60791 c 0.9255,-0.40538 1.51278,-0.86159 1.76273,-1.36932 z"
       id="path13" /><path
       style="fill:#000000"
       d="m 119.61054,251.31049 c -1.34783,-0.38709 -3.07831,-1.67693 -3.94492,-2.94041 -3.96582,-5.78201 -6.59733,-16.42684 -7.47098,-30.22112 -0.29462,-4.65192 -0.20105,-20.84207 0.15139,-26.19375 0.15395,-2.33761 -0.077,-1.65816 -1.21401,3.57187 -2.89168,13.30098 -7.344707,22.55208 -13.197754,27.41815 -3.692318,3.0697 -7.877463,4.59644 -12.599918,4.59644 -10.102981,0 -17.570665,-6.02149 -18.883691,-15.22668 -0.286838,-2.01092 -0.04577,-4.52971 0.659564,-6.89151 0.163375,-0.54705 0.142743,-0.54984 -1.508228,-0.20395 -3.422784,0.71711 -6.938786,0.19613 -10.537411,-1.56136 -1.771514,-0.86516 -2.699114,-1.54996 -4.369377,-3.22565 -3.073007,-3.083 -4.789914,-6.66567 -5.433,-11.33707 -1.004239,-7.29483 2.489987,-15.64009 8.557511,-20.43791 7.030265,-5.5591 18.217236,-8.1845 39.477159,-9.26466 2.174455,-0.11048 3.485636,-0.271 3.175,-0.3887 -0.291042,-0.11027 -3.267605,-0.45698 -6.614584,-0.77045 -22.188392,-2.07812 -34.008883,-6.36959 -40.072009,-14.5483 -2.572313,-3.46986 -3.887006,-7.11991 -4.151513,-11.52606 -0.545113,-9.08048 4.585548,-17.10347 12.797557,-20.01197 2.156897,-0.76392 6.733233,-0.95828 9.151237,-0.38866 0.991296,0.23353 1.849217,0.42459 1.906493,0.42459 0.05727,0 -0.0845,-0.50601 -0.315063,-1.12448 -0.640179,-1.71724 -0.781338,-6.80527 -0.24793,-8.93651 1.792712,-7.162814 8.030245,-12.765856 15.771853,-14.167515 9.276014,-1.679471 17.909429,2.398835 22.850364,10.794197 4.47413,7.602198 6.40877,16.825398 7.61181,36.288438 0.1788,2.89263 0.40534,5.03576 0.50344,4.7625 0.0981,-0.27326 0.26074,-1.8048 0.36145,-3.40343 0.26931,-4.27488 1.162,-12.73968 1.75395,-16.63144 1.46754,-9.64844 3.85503,-16.74778 7.39788,-21.998053 4.31918,-6.400747 10.69885,-9.937217 17.99402,-9.974707 8.77612,-0.0451 15.9981,4.667927 18.84913,12.30084 0.69694,1.86588 0.82503,2.6111 0.91844,5.34329 0.0885,2.59029 0.0132,3.50896 -0.4089,4.98843 l -0.51744,1.81343 0.83199,-0.16905 c 4.07477,-0.82794 6.7196,-0.72406 10.13123,0.39792 10.3261,3.39593 15.21631,16.61261 10.14827,27.42753 -2.59059,5.52818 -6.29768,9.02986 -12.8637,12.15091 -6.0191,2.8611 -15.26096,4.74645 -30.39631,6.20092 -3.34698,0.32163 -6.19852,0.68555 -6.33677,0.8087 -0.14556,0.12967 0.0215,0.22468 0.39688,0.22572 1.49252,0.004 13.29844,1.10366 17.13438,1.59576 14.87592,1.90838 24.5439,6.14114 29.28712,12.82223 2.68789,3.78605 3.8741,7.46488 3.9244,12.17083 0.11259,10.53554 -5.89773,18.30561 -15.2431,19.7061 -1.79449,0.26893 -4.63444,0.11173 -5.95919,-0.32986 -0.36554,-0.12184 -0.38473,0.22508 -0.0888,1.60501 0.73856,3.44378 0.11865,7.82778 -1.60718,11.3659 -1.34009,2.74733 -4.70488,6.02868 -7.61712,7.42823 -2.94983,1.41762 -5.06296,1.88883 -8.46667,1.88799 -5.91899,-0.001 -10.25337,-1.71745 -14.59297,-5.77741 -5.06527,-4.73886 -9.02763,-13.34288 -11.32123,-24.58335 -0.43704,-2.14185 -0.87411,-4.58223 -0.97126,-5.42307 -0.0972,-0.84083 -0.2978,-1.60367 -0.44587,-1.69518 -0.33367,-0.20622 -0.0554,17.5149 0.33938,21.61252 0.74824,7.76647 2.24051,13.8156 4.89528,19.84375 1.29522,2.94103 2.65999,5.24701 5.18401,8.7591 2.15398,2.9972 2.62516,4.02044 2.62516,5.70095 0,2.45868 -1.62617,4.51982 -4.17001,5.2854 -1.37292,0.41319 -1.93758,0.42277 -3.21945,0.0546 z"
       id="path12" /><path
       style="fill:#000000"
       d="m 82.18352,262.17872 c -2.668625,-2.09914 -1.39126,-6.06205 1.95398,-6.06205 1.914968,0 3.439583,1.50145 3.439583,3.38731 0,0.93327 -0.968723,2.43778 -1.860025,2.88879 -1.030116,0.52124 -2.729648,0.41829 -3.533538,-0.21405 z"
       id="path11" /><path
       style="fill:#000000"
       d="m 139.36927,271.22523 c -0.69122,-0.70511 -1.25677,-1.5102 -1.25677,-1.78909 0,-0.66307 2.38086,-3.00163 3.0518,-2.99759 0.68836,0.004 3.03362,2.28096 3.03362,2.94508 0,0.67266 -2.4218,3.1393 -3.0735,3.13041 -0.27411,-0.004 -1.06392,-0.5837 -1.75515,-1.28881 z"
       id="path10" /><path
       style="fill:#000000"
       d="m 36.246202,273.87654 c -3.684186,-1.2063 -5.177168,-4.47327 -3.596049,-7.86896 0.702718,-1.50919 1.875132,-2.53626 3.583051,-3.13885 1.427605,-0.50368 3.723378,-0.51783 4.890601,-0.0301 l 0.890143,0.37193 0.289888,-1.09953 c 0.159439,-0.60474 0.585289,-2.40922 0.946335,-4.00995 3.330147,-14.76451 3.736621,-16.00084 5.264035,-16.01109 0.617773,-0.004 6.467053,5.84779 7.89331,7.89689 2.977455,4.2777 2.540649,9.80243 -1.071296,13.54976 -1.407746,1.46051 -2.314282,1.68117 -3.213304,0.78215 -0.70509,-0.70509 -0.669648,-1.04959 0.236697,-2.30076 1.894376,-2.61511 2.137805,-4.44479 0.859526,-6.46042 -0.636619,-1.00385 -3.87999,-4.1804 -4.498095,-4.40543 -0.105353,-0.0384 -0.329155,0.55696 -0.497339,1.32292 -2.186348,9.95726 -3.781046,16.67398 -4.136736,17.42354 -0.705511,1.48675 -1.863646,2.71582 -3.177281,3.37188 -1.322267,0.66038 -3.595374,0.95578 -4.663486,0.60606 z"
       id="path9" /><path
       style="fill:#000000"
       d="m 232.10573,272.62467 c -0.9095,-0.9352 -1.65364,-1.85967 -1.65364,-2.05438 0,-0.61415 3.09039,-3.6057 3.72484,-3.6057 0.36646,0 1.20992,0.63692 2.27536,1.7182 1.88123,1.90921 1.88864,1.99259 0.3097,3.48455 -0.48727,0.46043 -1.14483,1.14504 -1.46124,1.52136 -0.31641,0.37632 -0.79266,0.67344 -1.05833,0.66027 -0.26567,-0.0132 -1.22718,-0.78911 -2.13669,-1.7243 z"
       id="path8" /><path
       style="fill:#000000"
       d="m -8.1822155,274.72747 c -0.6768171,-0.47406 -2.8428865,-4.85857 -4.9080115,-9.93468 -1.01778,-2.50172 -1.226657,-3.27717 -1.085468,-4.02977 0.211503,-1.12741 0.641183,-1.43646 6.9805584,-5.02079 4.6556509,-2.63233 5.8723111,-3.03986 6.79333632,-2.27548 0.61850425,0.51331 6.26686108,12.22262 6.41873348,13.30634 0.126534,0.90291 0.038694,1.09401 -0.912099,1.98437 -0.5786647,0.54189 -3.2531234,2.20564 -5.9432416,3.69723 -5.1690543,2.86608 -6.089886,3.15106 -7.3438081,2.27278 z m 7.38846344,-6.58493 c 1.52796878,-0.84635 2.82608666,-1.57504 2.88470626,-1.61931 0.05862,-0.0443 -0.9178095,-2.16281 -2.16984274,-4.70787 l -2.27642406,-4.62738 -3.915574,2.20823 c -3.3127343,1.86826 -3.9055124,2.297 -3.8502234,2.78475 0.06325,0.55801 2.0174144,5.20549 3.2594521,7.75178 l 0.6089294,1.24836 1.3404257,-0.74988 c 0.7372341,-0.41243 2.590582,-1.44234 4.11855074,-2.28868 z"
       id="path7" /><path
       style="fill:#000000"
       d="m 159.62987,288.53894 c -3.19486,-1.38969 -1.95383,-6.2241 1.59865,-6.22753 0.83661,-8.1e-4 1.21074,0.18643 2.05053,1.02621 0.84178,0.84179 1.0265,1.21193 1.0233,2.05053 -0.005,1.33731 -0.45958,2.19173 -1.56044,2.9336 -1.01597,0.68466 -1.89612,0.74609 -3.11204,0.21719 z"
       id="path6" /><path
       style="fill:#000000"
       d="m 63.339813,290.57865 c -0.240332,-0.40018 -1.150245,-1.39276 -2.022029,-2.20572 -1.813432,-1.69107 -1.86274,-2.20563 -0.303689,-3.16918 0.509497,-0.31488 1.400074,-1.21376 1.97906,-1.99751 1.431817,-1.93818 1.430346,-1.93845 3.833652,0.71859 0.447297,0.49452 1.131906,1.15801 1.521355,1.47442 1.062285,0.86307 0.943676,1.77484 -0.341521,2.62534 -0.577285,0.38203 -1.423134,1.27669 -1.879665,1.98813 -0.677312,1.0555 -0.969923,1.29353 -1.590126,1.29353 -0.546845,0 -0.882652,-0.20411 -1.197037,-0.7276 z"
       id="path5" /><path
       style="fill:#000000"
       d="m 108.41569,294.33366 c -0.83527,-0.20245 -2.0256,-0.62671 -2.64517,-0.94279 -1.65076,-0.84215 -3.90551,-3.29793 -4.91736,-5.35577 -1.763697,-3.58694 -1.49279,-4.47744 2.29539,-7.54522 1.89355,-1.53346 3.1454,-2.81686 4.3281,-4.43719 3.73367,-5.11525 4.06851,-5.39954 5.59099,-4.74677 0.78446,0.33634 9.34313,7.95824 9.71355,8.65039 0.65496,1.22379 -0.10181,3.08129 -2.98132,7.31767 -2.50926,3.69165 -5.51815,6.80013 -6.95508,7.18525 -1.36252,0.36518 -2.54234,0.33173 -4.4291,-0.12557 z m 4.89711,-4.72531 c 1.28882,-1.54184 5.7497,-7.82575 5.7497,-8.09944 0,-0.20226 -6.19414,-5.61385 -6.57017,-5.74012 -0.0972,-0.0326 -0.71249,0.72662 -1.36733,1.68723 -1.69429,2.48541 -3.92698,4.81676 -5.78917,6.04502 -0.88251,0.58209 -1.60669,1.1774 -1.60928,1.32292 -0.011,0.6161 1.31616,2.97853 2.13457,3.79973 1.10399,1.10777 1.75435,1.35965 3.51074,1.35965 0.81031,0 1.60105,0.16158 1.90101,0.38846 0.77244,0.58425 0.97757,0.50748 2.03993,-0.76345 z"
       id="path4" /><path
       style="fill:#000000"
       d="m 13.069215,294.45325 c -1.881008,-0.53074 -2.88643,-2.54785 -2.186551,-4.38671 0.527408,-1.38572 1.576121,-2.06758 3.179983,-2.06758 1.190814,0 1.414859,0.0993 2.229557,0.9883 0.720554,0.78626 0.905711,1.20814 0.905711,2.06366 0,2.43186 -1.930371,4.02261 -4.1287,3.40233 z"
       id="path3" /><path
       style="fill:#000000"
       d="m 213.51875,296.24069 c -1.65943,-0.59853 -12.46106,-7.58507 -42.91282,-27.75619 -11.19038,-7.41246 -12.67969,-8.47899 -13.16302,-9.4264 -0.74159,-1.45363 -0.68669,-2.57274 0.26568,-5.41538 1.68472,-5.02855 4.901,-10.1386 9.4052,-14.94305 l 2.56185,-2.73262 -1.0027,-2.02786 c -0.76573,-1.54862 -1.0027,-2.34785 -1.0027,-3.38181 0,-1.67804 0.86732,-3.33695 2.16345,-4.138 1.21363,-0.75006 3.1959,-0.76738 4.19704,-0.0367 0.62883,0.45896 2.74159,3.28188 3.01357,4.02652 0.0518,0.14191 1.60428,-0.48957 3.44989,-1.40328 6.41919,-3.17798 10.41074,-3.60361 12.06095,-1.2861 0.30047,0.42197 1.85071,3.73942 3.44497,7.37212 1.59427,3.6327 5.0699,11.48647 7.72364,17.45282 15.71065,35.32204 16.67417,37.57091 16.67417,38.91781 0,3.51465 -3.54855,5.97938 -6.87917,4.77809 z m 0.52917,-6.03378 c 0,-1.27678 -0.0296,-1.33806 -0.46302,-0.95916 -0.25466,0.22263 -0.8046,0.57925 -1.22209,0.7925 l -0.75907,0.38772 1.02365,0.55371 c 0.56301,0.30455 1.11295,0.56169 1.22209,0.57144 0.10914,0.01 0.19844,-0.59605 0.19844,-1.34621 z M 198.69325,280.443 c 3.49983,-0.96985 6.84147,-2.90897 9.22053,-5.35058 l 1.14191,-1.17192 -1.17771,-2.75035 c -1.13795,-2.6575 -2.07272,-4.75221 -2.2198,-4.97433 -0.0391,-0.059 -0.69745,0.48243 -1.46305,1.20321 -0.7656,0.72078 -1.96668,1.7038 -2.66907,2.1845 -3.2095,2.19649 -8.67063,4.08901 -12.812,4.43992 -1.05502,0.0894 -1.91134,0.23436 -1.90293,0.32215 0.0153,0.15967 9.51989,6.60105 9.77961,6.62775 0.0757,0.008 1.02181,-0.23087 2.10251,-0.53035 z m -11.1193,-10.58027 c 2.40989,-0.65769 6.73411,-2.67984 9.04591,-4.23018 1.72864,-1.15926 6.05098,-5.33879 6.05098,-5.85106 0,-0.1572 -0.80226,-2.11223 -1.7828,-4.3445 l -1.7828,-4.05867 -2.11981,2.10391 c -2.65072,2.63086 -5.39823,4.62603 -8.4698,6.15054 -4.33487,2.15153 -10.2376,3.75481 -15.01511,4.07836 -1.27331,0.0862 -2.31294,0.22846 -2.31029,0.31606 0.003,0.0876 2.25566,1.6544 5.0067,3.48179 l 5.0019,3.32252 2.18756,-0.21148 c 1.20315,-0.11631 3.08756,-0.45709 4.18756,-0.75729 z m -14.61535,-9.91598 c 4.24956,-0.80313 10.47017,-3.3284 14.07702,-5.7146 3.37586,-2.23338 6.38535,-5.54713 8.05114,-8.86509 l 0.68123,-1.35691 -1.90639,-4.25846 c -1.04851,-2.34215 -1.96592,-4.25883 -2.03868,-4.2593 -0.0728,-4.6e-4 -0.8901,1.17749 -1.81632,2.61767 -3.57918,5.56529 -9.09916,10.9166 -15.64618,15.16809 -2.47468,1.607 -7.99488,4.44201 -9.65729,4.95969 -1.5943,0.49647 -1.59716,0.5159 -0.22163,1.50384 l 1.27996,0.9193 2.64583,-0.17706 c 1.45521,-0.0974 3.5033,-0.33911 4.55131,-0.53717 z m 7.11405,-15.86764 c 0.42429,-0.64756 0.37945,-0.75496 -2.29223,-5.49011 -1.49874,-2.65629 -3.22162,-5.71771 -3.82861,-6.80314 -1.241,-2.21921 -1.73412,-2.67104 -2.43566,-2.23178 -0.86105,0.53913 -0.70626,1.77795 0.49867,3.99094 3.16025,5.80417 5.61983,10.06645 6.11637,10.59925 0.72427,0.77715 1.40451,0.75432 1.94146,-0.0652 z"
       id="path2" /><path
       style="fill:#000000"
       d="m 101.89017,317.88613 c -4.928501,-0.76908 -8.658118,-1.94245 -15.900587,-5.00246 -6.419913,-2.71247 -12.139987,-4.40738 -18.068156,-5.35376 -4.262448,-0.68046 -15.280614,-0.67953 -19.324713,0.002 -4.376292,0.73712 -8.790346,1.87937 -14.465465,3.7433 -9.209299,3.0247 -13.97132,4.00384 -20.769792,4.27056 -13.9989543,0.54923 -26.623648,-4.63772 -36.518524,-15.00389 -6.474236,-6.78261 -11.05302,-15.40071 -12.824607,-24.13821 -1.706554,-8.41677 -1.197503,-15.76176 1.87358,-27.03351 0.753319,-2.76489 1.767483,-6.50623 2.253697,-8.31408 0.486214,-1.80785 0.993618,-3.3966 1.127564,-3.53055 0.133947,-0.13394 0.464545,-0.20134 0.734664,-0.14976 0.367283,0.0701 0.552614,0.45575 0.734974,1.52926 0.312802,1.8414 -0.03158,3.86772 -1.590416,9.3578 -2.449112,8.62558 -3.135219,12.8138 -3.107093,18.96671 0.0285,6.23451 0.996165,10.94523 3.438594,16.73953 4.643631,11.01631 14.671603,21.05456 25.2244412,25.25029 6.5581205,2.60746 11.0982149,3.39005 18.3885418,3.16966 6.885936,-0.20817 10.651732,-0.97499 20.372917,-4.14848 8.763291,-2.86079 12.742957,-3.70412 20.086951,-4.25658 11.148158,-0.83865 21.613283,1.08753 33.88805,6.23733 9.039491,3.79245 13.931139,4.9678 20.769789,4.99049 7.72319,0.0256 11.06479,-0.79938 22.87886,-5.64852 9.47992,-3.89108 18.00467,-5.60395 28.05344,-5.63676 9.46182,-0.0309 16.65542,1.11147 26.44256,4.19912 12.30551,3.88214 15.58821,4.58561 22.37306,4.79439 3.48044,0.1071 5.38577,0.0363 7.67292,-0.28509 14.97575,-2.10447 26.68434,-10.50003 33.48962,-24.0135 3.75518,-7.4568 5.45781,-16.27232 4.86119,-25.16916 -0.32744,-4.88267 -0.9464,-8.53051 -2.63182,-15.51064 -1.44904,-6.00116 -1.72803,-9.12047 -0.91904,-10.27546 0.41947,-0.59888 1.039,-0.56326 1.28346,0.0738 0.44495,1.15952 3.93178,16.11626 4.39146,18.83712 2.10768,12.4756 0.51025,23.88832 -4.78701,34.20039 -2.5071,4.88052 -4.78606,8.0025 -8.69508,11.91152 -3.85892,3.85892 -7.08122,6.22104 -11.51466,8.44088 -10.55594,5.2854 -22.80814,6.38004 -35.65004,3.18507 -1.70846,-0.42506 -5.45893,-1.54057 -8.33437,-2.47892 -11.72326,-3.82568 -19.98063,-5.16456 -29.81551,-4.83441 -9.8559,0.33087 -17.32268,2.08091 -27.77188,6.50911 -8.44257,3.57782 -13.90482,4.80468 -21.16188,4.75308 -2.34647,-0.0167 -5.26684,-0.18646 -6.48969,-0.37729 z"
       id="path1" /></g></svg>
