<?xml version="1.0" encoding="UTF-8" standalone="no"?>
<!-- Created with Inkscape (http://www.inkscape.org/) -->

<svg
   width="305.83105mm"
   height="325.5686mm"
   viewBox="0 0 305.83106 325.5686"
   version="1.1"
   id="svg1"
   xml:space="preserve"
   sodipodi:docname="stamp_goal_clover_1.svg"
   inkscape:version="1.4.4 (dcaf3e7, 2026-05-05)"
   xmlns:inkscape="http://www.inkscape.org/namespaces/inkscape"
   xmlns:sodipodi="http://sodipodi.sourceforge.net/DTD/sodipodi-0.dtd"
   xmlns="http://www.w3.org/2000/svg"
   xmlns:svg="http://www.w3.org/2000/svg"><sodipodi:namedview
     id="namedview1"
     pagecolor="#ffffff"
     bordercolor="#000000"
     borderopacity="0.25"
     inkscape:showpageshadow="2"
     inkscape:pageopacity="0.0"
     inkscape:pagecheckerboard="0"
     inkscape:deskcolor="#d1d1d1"
     inkscape:document-units="mm"
     inkscape:zoom="0.021129699"
     inkscape:cx="567.921"
     inkscape:cy="591.58437"
     inkscape:window-width="944"
     inkscape:window-height="250"
     inkscape:window-x="0"
     inkscape:window-y="33"
     inkscape:window-maximized="0"
     inkscape:current-layer="layer1"><inkscape:page
       x="-2.5139293e-21"
       y="0"
       width="305.83109"
       height="325.5686"
       id="page2"
       margin="0"
       bleed="0" /></sodipodi:namedview><defs
     id="defs1" /><g
     inkscape:label="Layer 1"
     inkscape:groupmode="layer"
     id="layer1"
     transform="translate(42.090284,-4.8959884)"><path
       style="fill:#000000"
       d="m 115.97384,24.705548 c -0.42533,-0.649144 -0.42637,-0.744355 -0.016,-1.459388 0.75114,-1.308781 0.18316,-2.068961 -1.55069,-2.075445 -1.4594,-0.0055 -2.18651,-0.749997 -1.72392,-1.765258 l 0.31927,-0.700724 4.88966,0.182062 c 5.61974,0.209247 6.19742,0.344142 6.19742,1.447173 0,1.113629 -0.56704,1.462421 -2.0852,1.282618 -0.8013,-0.0949 -1.39482,-0.03907 -1.5828,0.14891 -0.37144,0.371446 -0.39461,1.428593 -0.0362,1.650126 0.45639,0.28207 0.29164,1.422107 -0.24719,1.710483 -0.28148,0.150641 -1.23123,0.273892 -2.11057,0.273892 -1.43367,0 -1.64579,-0.07172 -2.05382,-0.694449 z"
       id="path96" /><path
       style="fill:#000000"
       d="m 99.614641,25.134327 c -0.428731,-0.473743 -0.442989,-0.642011 -0.133781,-1.57892 0.483516,-1.465067 0.129544,-1.814568 -1.938157,-1.913679 -1.620973,-0.0777 -1.631759,-0.08349 -1.712843,-0.920506 -0.05908,-0.609861 0.05604,-0.915977 0.417133,-1.10923 0.631707,-0.338079 9.315807,-0.951844 10.228047,-0.722886 0.5276,0.132419 0.68121,0.336891 0.68121,0.906765 0,1.019932 -0.4489,1.370793 -1.75381,1.370793 -1.07618,0 -1.95036,0.494178 -1.95036,1.102555 0,0.149054 0.20595,0.619653 0.45767,1.045776 0.34664,0.58681 0.38848,0.885559 0.17247,1.231448 -0.73857,1.182633 -3.5898,1.557824 -4.467579,0.587884 z"
       id="path95" /><path
       style="fill:#000000"
       d="m 130.96875,26.751497 c -0.3638,-0.100789 -0.81743,-0.506992 -1.00806,-0.902672 -0.30642,-0.635993 -0.28189,-0.810308 0.21148,-1.503184 0.94524,-1.327471 0.3867,-1.847154 -2.37177,-2.206752 -0.61253,-0.07985 -1.08365,-1.236724 -0.75427,-1.852169 0.25166,-0.470233 0.4697,-0.501564 2.43027,-0.349211 3.11765,0.242269 8.33983,1.13806 8.78412,1.506793 0.20963,0.173977 0.38115,0.584821 0.38115,0.912987 0,0.993611 -0.60123,1.264927 -2.35261,1.061657 -1.39534,-0.161946 -1.60361,-0.124247 -1.84924,0.334726 -0.19613,0.366458 -0.18705,0.75505 0.0311,1.333104 0.2631,0.69703 0.23646,0.89489 -0.18292,1.358299 -0.5091,0.562545 -1.9235,0.693116 -3.31929,0.306422 z"
       id="path94" /><path
       style="fill:#000000"
       d="m 85.746872,26.881561 c -0.241123,-0.290536 -0.298356,-0.771756 -0.179896,-1.512568 0.247923,-1.550421 -0.09714,-1.857905 -1.853362,-1.651496 -0.970779,0.114096 -1.546526,0.06159 -1.820818,-0.166052 -0.48566,-0.403062 -0.525993,-1.427413 -0.0704,-1.787998 0.395043,-0.312663 5.898617,-1.308665 8.592894,-1.555088 2.02747,-0.185435 2.718044,0.05585 2.718044,0.949695 0,0.649495 -0.848875,1.331527 -1.657255,1.331527 -1.230069,0 -2.046912,0.45959 -2.046912,1.151679 0,0.349586 0.178594,0.78383 0.396875,0.964987 0.560461,0.465141 0.49241,1.419028 -0.142206,1.993348 -0.7532,0.681636 -3.445252,0.874441 -3.936964,0.281966 z"
       id="path93" /><path
       style="fill:#000000"
       d="m 145.39204,29.763651 c -1.70064,-0.60559 -2.20717,-1.72707 -1.19412,-2.643862 0.6527,-0.590684 0.68776,-1.619286 0.0661,-1.94024 -0.25466,-0.131487 -0.89754,-0.31742 -1.42862,-0.413186 -1.13215,-0.204151 -1.62245,-0.696246 -1.5021,-1.507594 0.18563,-1.251502 0.71712,-1.243563 5.94855,0.08886 2.70993,0.690209 5.08918,1.389397 5.28721,1.553751 0.51448,0.426978 0.45897,1.800186 -0.0811,2.007448 -0.24267,0.09312 -1.09617,0.03193 -1.89668,-0.135981 -1.89144,-0.396733 -2.27171,-0.129396 -2.0375,1.432405 0.1446,0.964245 0.0857,1.17293 -0.43335,1.536516 -0.72842,0.510208 -1.3432,0.515139 -2.72839,0.02188 z"
       id="path92" /><path
       style="fill:#000000"
       d="m 72.117258,30.010709 c -0.346261,-0.346262 -0.429691,-0.714589 -0.3179,-1.403474 0.103967,-0.640673 0.02475,-1.074132 -0.25222,-1.380185 -0.368252,-0.406915 -0.533024,-0.412432 -1.872304,-0.0627 -1.34233,0.350531 -1.511572,0.344518 -1.969592,-0.06999 -0.275592,-0.249407 -0.501076,-0.605103 -0.501076,-0.790436 0,-0.922621 1.178421,-1.396251 7.600225,-3.054676 3.4852,-0.90005 4.041442,-0.840736 4.041442,0.430951 0,0.719706 -0.400808,1.086515 -1.456689,1.333122 -1.835499,0.428692 -2.601055,1.624722 -1.438275,2.247023 0.839243,0.449149 0.604053,1.820897 -0.413677,2.41277 -1.27387,0.740835 -2.860106,0.897415 -3.419934,0.337588 z"
       id="path91" /><path
       style="fill:#000000"
       d="m 159.2793,34.363167 c -0.98335,-0.392117 -1.85222,-1.306904 -1.85222,-1.950118 0,-0.312193 0.29766,-0.826433 0.66146,-1.142755 1.11355,-0.968216 0.87704,-1.583558 -0.90402,-2.352047 -0.90483,-0.390413 -1.61827,-0.877293 -1.69055,-1.153703 -0.15678,-0.599517 0.5006,-1.570797 1.06314,-1.570797 0.45645,0 6.99525,2.342109 8.93784,3.201405 1.27244,0.562861 1.82177,1.257085 1.55167,1.960944 -0.30186,0.786647 -1.19236,0.888365 -2.7077,0.309288 -1.40501,-0.536916 -1.42722,-0.537299 -1.80237,-0.03106 -0.23258,0.31385 -0.32139,0.81133 -0.2291,1.283253 0.2859,1.461864 -1.20384,2.173043 -3.02815,1.445593 z"
       id="path90" /><path
       style="fill:#000000"
       d="m 58.935937,34.639221 c -0.328106,-0.191104 -0.463021,-0.603338 -0.463021,-1.414766 0,-1.629948 -0.389298,-1.849691 -2.183389,-1.232434 -1.323262,0.455269 -1.5257,0.465809 -2.039164,0.106165 -0.896305,-0.627797 -0.594817,-1.445838 0.785594,-2.131582 0.656287,-0.326023 2.918474,-1.240478 5.027083,-2.032122 3.339753,-1.253858 3.90203,-1.394943 4.363001,-1.094751 0.291041,0.189531 0.529166,0.627735 0.529166,0.973788 0,0.504083 -0.302496,0.775804 -1.521354,1.366574 -1.741434,0.844058 -2.027888,1.647985 -0.859896,2.413282 1.270761,0.832635 0.727813,2.09495 -1.257956,2.924657 -1.123995,0.469635 -1.728935,0.500438 -2.380064,0.121189 z"
       id="path89" /><path
       style="fill:#000000"
       d="m 172.06143,40.076486 c -0.60959,-0.365386 -1.18316,-0.90004 -1.2746,-1.188121 -0.23572,-0.742695 0.0729,-1.527052 0.67609,-1.71851 0.54499,-0.172974 0.95044,-1.227212 0.6555,-1.704434 -0.0963,-0.155871 -0.62153,-0.511124 -1.16709,-0.78945 -1.30862,-0.667608 -1.71253,-1.190376 -1.51814,-1.964881 0.32438,-1.292457 1.08519,-1.120976 5.95577,1.342389 5.01841,2.538138 5.66577,3.084754 4.94891,4.17881 -0.54405,0.830337 -0.90413,0.827877 -2.57255,-0.01758 -1.27356,-0.645358 -1.36498,-0.656446 -1.84329,-0.223576 -0.29142,0.263729 -0.50328,0.805747 -0.50328,1.287577 0,0.457665 -0.14287,0.974993 -0.3175,1.149618 -0.51521,0.515209 -1.85125,0.360568 -3.03982,-0.351845 z"
       id="path88" /><path
       style="fill:#000000"
       d="m 45.971353,40.724638 c -0.291097,-0.169548 -0.463021,-0.589874 -0.463021,-1.13201 0,-0.474278 -0.168858,-1.093252 -0.375241,-1.375497 -0.367543,-0.502645 -0.406062,-0.498056 -1.877713,0.223709 -1.686517,0.827145 -2.422819,0.758285 -2.675947,-0.250257 -0.245316,-0.977414 0.262964,-1.355614 5.280488,-3.929098 4.128908,-2.117714 4.494394,-2.256019 5.027084,-1.902326 0.880566,0.584674 0.73245,1.517222 -0.351587,2.213608 -1.908379,1.225944 -1.945157,1.268296 -1.75596,2.022117 0.0982,0.39125 0.357419,0.711363 0.576048,0.711363 0.218628,0 0.530905,0.292779 0.693949,0.65062 0.405253,0.889435 -0.265291,1.881401 -1.717476,2.54074 -1.251896,0.568402 -1.700459,0.611542 -2.360624,0.227031 z"
       id="path87" /><path
       style="fill:#000000"
       d="m 185.60521,47.979844 c -1.20738,-0.635389 -2.24943,-1.713496 -2.24491,-2.322577 0.005,-0.687421 0.20993,-0.970816 1.12043,-1.550209 1.08483,-0.690329 0.91921,-1.331031 -0.59531,-2.302894 -0.96457,-0.618964 -1.32292,-1.015495 -1.32292,-1.463891 0,-0.670978 0.6298,-1.446526 1.17468,-1.446526 0.18872,0 1.72161,0.881341 3.40642,1.958535 6.21032,3.97062 6.60339,4.326535 6.00758,5.439805 -0.39687,0.741566 -1.51075,0.691261 -2.70801,-0.122298 -0.53539,-0.363802 -1.13453,-0.661458 -1.33142,-0.661458 -0.56614,0 -0.993,0.573801 -0.993,1.334826 0,0.744396 -0.71969,1.582578 -1.34375,1.564997 -0.20682,-0.0058 -0.73323,-0.198565 -1.16979,-0.42831 z"
       id="path86" /><path
       style="fill:#000000"
       d="m 33.390415,48.101248 c -0.174625,-0.174625 -0.3175,-0.632422 -0.3175,-1.017327 0,-0.384904 -0.234219,-0.911791 -0.520486,-1.17086 -0.502381,-0.454648 -0.565312,-0.442269 -1.809101,0.355868 -1.395447,0.895456 -1.888427,1.000971 -2.379996,0.509402 -0.541034,-0.541034 -0.351665,-1.458796 0.43813,-2.123364 0.800038,-0.673188 6.187368,-4.278314 7.651232,-5.120098 1.070516,-0.615591 1.742001,-0.300218 1.86002,0.873588 0.07003,0.696468 -0.07495,0.898179 -1.121299,1.560151 -0.660947,0.418147 -1.262258,0.918019 -1.336246,1.110828 -0.184702,0.481327 0.327612,1.370562 0.789621,1.370562 0.438509,0 0.926042,0.800552 0.926042,1.520604 0,0.526222 -1.066394,1.654564 -2.033127,2.151234 -0.754905,0.38784 -1.748387,0.378315 -2.14729,-0.02059 z"
       id="path85" /><path
       style="fill:#000000"
       d="m 196.61521,56.34741 c -1.81005,-1.311188 -2.06033,-2.94701 -0.5324,-3.479649 1.2307,-0.429026 1.27739,-1.339111 0.12079,-2.35462 -1.15895,-1.017569 -1.52468,-1.644734 -1.30022,-2.229659 0.23468,-0.611569 1.178,-0.916166 1.81433,-0.585844 1.49504,0.776088 7.99069,6.405083 8.21813,7.121656 0.19384,0.610736 -0.54069,1.536954 -1.21887,1.536954 -0.25264,0 -1.03276,-0.473836 -1.73359,-1.052969 l -1.27424,-1.052968 -0.60665,0.569922 c -0.33366,0.313458 -0.60666,0.842636 -0.60666,1.175951 0,0.59913 -0.67213,1.153814 -1.39811,1.153814 -0.20602,0 -0.87315,-0.361164 -1.48251,-0.802588 z"
       id="path84" /><path
       style="fill:#000000"
       d="m 21.748748,56.832498 c -0.174625,-0.174625 -0.3175,-0.567531 -0.3175,-0.873125 0,-0.637597 -0.4659,-1.190625 -1.003045,-1.190625 -0.202424,0 -0.854887,0.416719 -1.449916,0.926041 -1.483792,1.270071 -2.838705,1.167132 -2.838705,-0.215669 0,-0.583918 0.783646,-1.345416 5.129263,-4.984301 3.372455,-2.823988 4.220415,-3.155333 4.704017,-1.838117 0.201185,0.547981 0.06607,0.794848 -0.987669,1.804504 -0.992442,0.950926 -1.190565,1.289906 -1.059385,1.812567 0.102138,0.406952 0.351469,0.642891 0.679382,0.642891 0.666545,0 1.418521,1.137381 1.202327,1.818548 -0.09104,0.286847 -0.637039,0.947521 -1.213328,1.468163 -1.088036,0.982975 -2.237454,1.23711 -2.845441,0.629123 z"
       id="path83" /><path
       style="fill:#000000"
       d="m 207.00165,66.048353 c -0.76275,-0.762743 -1.15581,-1.386172 -1.15581,-1.833184 0,-0.779694 0.62289,-1.508921 1.28889,-1.508921 0.57284,0 1.09236,-0.502969 1.09236,-1.057553 0,-0.232405 -0.47625,-0.8876 -1.05834,-1.455989 -1.49659,-1.461382 -1.354,-2.778125 0.30084,-2.778125 0.59439,0 1.39096,0.721371 4.445,4.02541 3.65772,3.95713 4.1327,4.717298 3.40333,5.446674 -0.59424,0.594241 -1.4218,0.320153 -2.57205,-0.851862 -1.02319,-1.042555 -1.21566,-1.13837 -1.77488,-0.883572 -0.37543,0.171057 -0.62724,0.513044 -0.62724,0.851862 0,0.781372 -0.49293,1.201072 -1.41065,1.201072 -0.56304,0 -1.09244,-0.316802 -1.93145,-1.155812 z"
       id="path82" /><path
       style="fill:#000000"
       d="m 6.0410597,66.551018 c -0.2624555,-0.576027 -0.187588,-0.786901 0.6340682,-1.785938 1.8874479,-2.294913 6.5940071,-7.062942 7.1442861,-7.237594 0.405989,-0.128856 0.697017,-0.02022 1.022455,0.381685 0.588731,0.727052 0.405177,1.357575 -0.709817,2.438269 -1.252744,1.214208 -1.145874,2.134063 0.278643,2.398354 0.28604,0.05307 0.699901,0.416878 0.919693,0.808464 0.377874,0.67323 0.356282,0.773637 -0.396784,1.845119 -0.986563,1.403708 -1.895717,1.946958 -2.855278,1.706124 -0.507605,-0.127401 -0.760419,-0.395647 -0.864809,-0.917599 -0.08113,-0.405662 -0.401061,-0.895911 -0.710951,-1.08944 -0.517649,-0.323277 -0.6513066,-0.252015 -1.6447138,0.876915 -1.2743363,1.448185 -2.321711,1.662226 -2.8167925,0.575641 z"
       id="path81" /><path
       style="fill:#000000"
       d="m 177.75184,70.368036 c -0.24477,-0.142791 -0.74042,-0.904821 -1.10144,-1.693398 -0.45527,-0.994428 -1.00804,-1.681198 -1.80392,-2.241208 -1.71069,-1.203696 -1.80898,-1.312349 -1.80898,-1.999806 0,-0.416802 0.2937,-0.834443 0.8599,-1.222761 1.51933,-1.042018 2.34939,-1.930327 3.00569,-3.216595 0.54423,-1.066638 0.7583,-1.256771 1.41502,-1.256771 0.67422,0 0.88126,0.201664 1.60919,1.567404 0.62712,1.176585 1.19175,1.80399 2.26448,2.516245 1.65338,1.097785 1.88183,1.924182 0.75107,2.71702 -1.72512,1.209583 -2.31423,1.843126 -3.0272,3.255518 -0.4217,0.835389 -0.96092,1.593403 -1.19825,1.684476 -0.51434,0.19737 -0.42002,0.208127 -0.96556,-0.110124 z"
       id="path80" /><path
       style="fill:#000000"
       d="m 44.759418,70.300896 c -0.156498,-0.188568 -0.622733,-0.99224 -1.036078,-1.785937 -0.58355,-1.120521 -1.072025,-1.635532 -2.18533,-2.304047 -2.266718,-1.361114 -2.379355,-2.195653 -0.449026,-3.326901 1.362803,-0.798655 1.967282,-1.449401 2.829782,-3.046372 0.594713,-1.101146 0.76314,-1.232433 1.581088,-1.232433 0.833921,0 0.987336,0.128667 1.72224,1.444414 0.716271,1.282384 1.405387,1.942251 3.685259,3.528837 0.803529,0.559184 0.369178,1.599132 -1.004022,2.40388 -1.357736,0.795687 -2.400674,1.956726 -2.959848,3.295017 -0.564348,1.350676 -1.535033,1.805578 -2.184065,1.023542 z"
       id="path79" /><path
       style="fill:#000000"
       d="m 222.06284,77.893382 c -0.40638,-0.523847 -0.93445,-1.205654 -1.17348,-1.515127 -0.39532,-0.511817 -0.49696,-0.529305 -1.12448,-0.193466 -0.37943,0.203066 -0.68988,0.572638 -0.68988,0.821272 0,0.658933 -0.65475,1.096715 -1.4941,0.998993 -1.00595,-0.117119 -2.47465,-2.055011 -2.47465,-3.265218 0,-0.97151 0.21242,-1.187722 1.40686,-1.432012 1.37778,-0.281786 1.47131,-0.869223 0.36457,-2.28977 C 216.33996,70.32786 215.9,69.547316 215.9,69.28351 c 0,-0.596777 1.1046,-1.352763 1.66331,-1.138366 0.22823,0.08758 1.35328,1.370202 2.50011,2.850273 4.9224,6.352702 5.08804,6.662292 3.97979,7.438537 -0.85807,0.601015 -1.15834,0.519051 -1.98037,-0.540572 z"
       id="path78" /><path
       style="fill:#000000"
       d="M -2.4473979,78.560055 C -3.4062282,78.001588 -2.9594908,77.059206 0.33318846,72.694473 3.6236647,68.332661 4.2634126,67.7835 5.1739363,68.539168 c 0.6094618,0.505808 0.4503854,1.253422 -0.5437299,2.555375 -0.509323,0.66704 -0.9260417,1.300163 -0.9260417,1.406939 0,0.40588 0.8923795,0.910664 1.4749493,0.834322 0.4201378,-0.05506 0.7507545,0.138807 1.0714648,0.628273 0.4490615,0.685354 0.4439386,0.7454 -0.1608624,1.885461 -0.7206914,1.358516 -1.6789384,2.202544 -2.5006081,2.202544 -0.6720798,0 -1.2078603,-0.464695 -1.2078603,-1.047606 0,-0.226933 -0.2550476,-0.571885 -0.5667725,-0.76656 -0.5244437,-0.327521 -0.6688881,-0.243354 -1.93407827,1.12698 -1.43562093,1.554928 -1.58150893,1.629831 -2.32779513,1.195159 z"
       id="path77" /><path
       style="fill:#000000"
       d="m 86.430727,80.898529 c -0.899084,-0.899084 -1.186942,-2.433114 -0.582004,-3.101563 0.660402,-0.729737 5.106857,-1.366125 13.195929,-1.888637 5.325788,-0.344018 24.186818,-0.162426 28.087638,0.270426 5.48921,0.609106 6.39345,0.644125 5.85031,0.22657 -0.45818,-0.352237 -0.47205,-0.499414 -0.16692,-1.771344 0.18686,-0.778925 0.23195,-1.477726 0.10282,-1.593666 -0.2843,-0.255274 -4.93593,-0.729508 -10.54871,-1.075443 -5.5296,-0.340809 -16.73041,-0.334237 -22.841107,0.0134 -4.681102,0.266308 -10.800936,0.8662 -11.014416,1.07968 -0.05704,0.05704 0.05671,0.793788 0.252778,1.637227 l 0.35648,1.533526 -0.67145,0.255285 c -0.369298,0.140406 -1.223263,0.282775 -1.8977,0.316375 l -1.22625,0.06109 -2.945813,-11.701449 C 80.762115,58.72421 79.366867,53.2771 79.281761,53.055319 c -0.09204,-0.23984 -0.483188,-0.40324 -0.965289,-0.40324 -1.264887,0 -2.505859,-0.645795 -3.338366,-1.737268 -0.661659,-0.86748 -0.762482,-1.229796 -0.762482,-2.740053 0,-1.413588 0.11929,-1.907643 0.635283,-2.631115 0.710965,-0.99684 2.39068,-1.872786 3.608134,-1.881587 1.051034,-0.0076 2.999386,0.99997 3.642742,1.8838 1.039835,1.428509 1.019041,3.822909 -0.04571,5.263059 l -0.548261,0.741562 6.672655,4.615572 c 9.634072,6.664025 10.796248,7.418387 11.038303,7.164898 0.119652,-0.125304 2.03163,-3.621107 4.24884,-7.768451 2.2172,-4.147344 4.55663,-8.490747 5.19873,-9.652007 0.6421,-1.16126 1.07102,-2.143998 0.95316,-2.183863 -1.63858,-0.554221 -2.99242,-2.477716 -2.99242,-4.251559 0,-2.350676 2.17419,-4.550072 4.49792,-4.550072 1.50817,0 3.17259,1.019451 3.91058,2.395204 1.08297,2.018887 0.41628,4.682918 -1.46318,5.846734 -0.47295,0.292859 -0.85618,0.671589 -0.85163,0.841621 0.005,0.170032 1.04635,2.221595 2.3151,4.559028 1.26876,2.337433 3.61257,6.653449 5.20846,9.591146 1.5959,2.937697 2.98176,5.341268 3.0797,5.341268 0.14712,0 13.22017,-9.201569 16.01436,-11.271841 l 0.82902,-0.614234 -0.63058,-1.245554 c -0.75263,-1.486629 -0.78705,-2.505617 -0.13325,-3.944942 0.65748,-1.447447 1.89285,-2.431836 3.32055,-2.645931 1.5841,-0.237551 2.83401,0.224501 3.95057,1.460408 2.45897,2.721785 0.85484,7.008837 -2.75226,7.355434 -1.57841,0.151665 -1.03586,-1.389276 -4.7571,13.511115 l -2.73188,10.938831 -1.47558,-0.144106 c -1.34306,-0.131163 -1.3824,-0.121029 -0.43797,0.112827 1.43169,0.354515 1.74051,0.6818 1.74051,1.844584 0,1.381999 -0.20288,1.795828 -1.1105,2.265178 -0.69335,0.358545 -1.92441,0.368167 -10.882,0.08505 -9.60887,-0.303696 -25.403537,-0.213677 -33.687542,0.191997 -3.472779,0.170064 -3.480194,0.16917 -4.149653,-0.500289 z"
       id="path76" /><path
       style="fill:#000000"
       d="m 153.69621,84.052257 c -0.26621,-0.584265 0.17679,-1.511644 4.52627,-9.475476 2.65175,-4.855304 4.94139,-8.976653 5.08809,-9.158554 0.1467,-0.181901 0.47182,-0.330729 0.72249,-0.330729 0.4867,0 1.33152,0.787556 1.33152,1.241268 0,0.150458 -2.19236,4.30827 -4.87193,9.239583 -4.66108,8.578001 -4.90718,8.969606 -5.68664,9.048792 -0.65035,0.06607 -0.87424,-0.04789 -1.1098,-0.564884 z"
       id="path75" /><path
       style="fill:#000000"
       d="m 65.831088,84.203644 c -0.218218,-0.254661 -0.93118,-1.475052 -1.58436,-2.711979 -0.65318,-1.236927 -2.457623,-4.59095 -4.009873,-7.453384 -1.55225,-2.862434 -2.822273,-5.447855 -2.822273,-5.745379 0,-0.639385 0.877158,-1.181899 1.56035,-0.965063 0.287629,0.09129 1.527955,2.097925 3.075476,4.975596 1.426396,2.652432 3.34811,6.161262 4.270477,7.797399 0.922367,1.636137 1.677031,3.189903 1.677031,3.452813 0,1.081023 -1.429927,1.509967 -2.166828,0.649997 z"
       id="path74" /><path
       style="fill:#000000"
       d="m 230.3994,90.738419 c -0.24726,-0.144184 -0.7722,-0.854939 -1.16653,-1.579454 -0.39433,-0.724515 -0.84687,-1.315477 -1.00565,-1.313248 -0.48203,0.0068 -0.98121,0.419795 -1.31092,1.084685 -0.40316,0.813 -1.60894,0.978215 -2.3366,0.320158 -0.71555,-0.647106 -1.53595,-2.295305 -1.53595,-3.085749 0,-0.814206 0.43199,-1.1677 1.56188,-1.278091 1.4335,-0.140053 1.57541,-0.718854 0.57491,-2.344878 -0.72271,-1.174554 -0.81537,-1.497899 -0.57832,-2.018159 0.2042,-0.448175 0.50064,-0.619518 1.07183,-0.619518 0.66673,0 0.95332,0.241138 1.84211,1.549936 1.44754,2.131604 4.78801,7.99515 4.78801,8.404434 0,0.305924 -0.98733,1.169011 -1.31564,1.150084 -0.0768,-0.0044 -0.34187,-0.126015 -0.58913,-0.2702 z"
       id="path73" /><path
       style="fill:#000000"
       d="m -10.333357,90.472894 -0.543771,-0.543771 0.9885343,-1.771333 c 1.5139576,-2.712829 3.7828022,-6.434258 4.5169788,-7.408888 0.495165,-0.657339 0.8273311,-0.854827 1.335058,-0.79375 1.2562455,0.151117 1.356882,0.846018 0.3793454,2.6194 -0.9994952,1.813217 -0.8625169,2.356696 0.5939812,2.356696 1.0415836,0 1.4757282,0.409874 1.4757282,1.393228 0,1.405405 -1.4903805,3.369272 -2.5569435,3.369272 -0.3723022,0 -0.7843456,-0.280488 -1.0688666,-0.727604 -0.9700983,-1.524479 -1.4486157,-1.48549 -2.4873492,0.202667 -0.711764,1.156764 -1.4370314,1.847854 -1.9392384,1.847854 -0.082327,0 -0.3943832,-0.244697 -0.6934572,-0.543771 z"
       id="path72" /><path
       style="fill:#000000"
       d="m 168.20886,99.467547 c -1.21801,-0.723647 -0.84719,-1.14675 12.95186,-14.778149 11.32513,-11.187537 13.53109,-13.2519 14.16088,-13.2519 0.98009,0 1.52933,1.035307 0.97141,1.831095 -0.74815,1.067128 -26.77896,26.349214 -27.19268,26.410538 -0.23565,0.03493 -0.63681,-0.06028 -0.89147,-0.211584 z"
       id="path71" /><path
       style="fill:#000000"
       d="M 44.053124,91.894888 C 39.687499,87.590053 33.585545,81.622321 30.493228,78.633263 c -5.6865,-5.496614 -6.175853,-6.142476 -5.241521,-6.917903 0.850685,-0.706005 1.692315,-0.14222 5.879522,3.938531 15.970685,15.564644 22.579187,22.265192 22.579187,22.893681 0,0.64065 -0.662216,1.213864 -1.371669,1.187317 -0.191468,-0.0072 -3.919998,-3.535165 -8.285623,-7.840001 z"
       id="path70" /><path
       style="fill:#000000"
       d="m 236.61394,103.50494 c -0.17625,-0.112 -0.56182,-0.7493 -0.85682,-1.4162 -0.29501,-0.66691 -0.68659,-1.33364 -0.87018,-1.48163 -0.46926,-0.37825 -1.44065,0.0475 -1.65594,0.72582 -0.14581,0.45943 -0.35351,0.54632 -1.14774,0.48016 -0.89255,-0.0743 -1.03151,-0.20446 -1.74634,-1.6351 -0.71958,-1.440158 -0.74808,-1.605333 -0.38803,-2.248956 0.22591,-0.403839 0.6618,-0.725649 1.0412,-0.768712 2.04789,-0.232433 2.18732,-0.463198 1.31408,-2.174887 -0.88258,-1.729988 -0.59736,-2.910417 0.70322,-2.910417 0.42661,0 0.79321,0.334147 1.28237,1.168824 0.84588,1.4434 4.36441,8.997238 4.36441,9.369858 0,0.78324 -1.30983,1.35542 -2.04023,0.89124 z"
       id="path69" /><path
       style="fill:#000000"
       d="m -16.604465,103.41054 c -0.180879,-0.18088 -0.328871,-0.54741 -0.328871,-0.81451 0,-0.62165 4.06673,-9.369228 4.661034,-10.025926 0.814716,-0.900252 1.95355,-0.457801 1.95355,0.758977 0,0.340495 -0.238125,1.085845 -0.529167,1.656334 -0.871068,1.707435 -0.646922,2.116667 1.159348,2.116667 0.468317,0 0.9943605,0.142875 1.1689855,0.3175 1.1160074,1.116007 -0.9895899,5.105168 -2.4074715,4.561078 -0.230055,-0.0883 -0.606764,-0.44817 -0.83713,-0.79975 -0.257581,-0.39312 -0.672932,-0.63924 -1.078765,-0.63924 -0.542616,0 -0.789271,0.27042 -1.387636,1.52135 -0.565066,1.18132 -0.874931,1.53868 -1.386362,1.59887 -0.362254,0.0426 -0.806636,-0.0705 -0.987515,-0.25135 z"
       id="path68" /><path
       style="fill:#000000"
       d="m 200.70146,112.91821 c -0.22653,-0.32342 -0.41188,-0.89372 -0.41188,-1.26733 0,-1.14236 -0.76226,-3.74494 -1.60294,-5.47289 -1.3564,-2.78797 -3.93232,-4.59511 -7.78428,-5.46107 -2.18627,-0.4915 -2.9362,-1.22453 -2.29195,-2.240299 0.12044,-0.189889 1.15991,-0.580387 2.30994,-0.867774 5.60908,-1.401684 8.06209,-4.123403 9.25965,-10.273961 0.40949,-2.103146 0.70902,-2.668221 1.41433,-2.668221 0.89666,0 1.32252,0.672588 1.74847,2.761473 1.22609,6.012775 3.88024,8.913938 9.28153,10.14534 1.83637,0.418659 2.10882,0.558486 2.3336,1.197639 0.35487,1.009052 -0.36028,1.620033 -2.34006,1.999223 -3.0172,0.57788 -5.6659,2.14468 -7.06616,4.17989 -1.00729,1.46404 -2.01269,4.13746 -2.23699,5.94827 -0.0965,0.77942 -0.34319,1.68501 -0.5481,2.01244 -0.48254,0.77102 -1.52763,0.7747 -2.06516,0.007 z m 2.0593,-10.09404 c 0.87142,-1.76319 1.10426,-2.02403 2.42086,-2.71197 0.80119,-0.41864 1.45699,-0.832374 1.45734,-0.919414 3.4e-4,-0.08704 -0.46691,-0.369082 -1.03834,-0.62676 -1.39002,-0.626813 -2.23007,-1.553335 -3.06651,-3.382173 -0.3827,-0.836745 -0.73789,-1.521354 -0.78932,-1.521354 -0.0514,0 -0.40544,0.681379 -0.78671,1.514177 -0.85529,1.868193 -1.23631,2.297208 -2.84025,3.19803 -0.69701,0.391463 -1.26707,0.771282 -1.26681,0.844043 2.7e-4,0.07276 0.67544,0.489479 1.50038,0.926041 1.5149,0.8017 1.94073,1.34099 2.84667,3.60515 0.22558,0.56378 0.45254,1.02506 0.50434,1.02506 0.0518,0 0.52807,-0.87787 1.05835,-1.95083 z"
       id="path67" /><path
       style="fill:#000000"
       d="m 18.56129,113.27227 c -0.196029,-0.12423 -0.569833,-1.28327 -0.830674,-2.57564 -0.260842,-1.29236 -0.776915,-3.03075 -1.146829,-3.86309 -1.347142,-3.03115 -4.308431,-5.27293 -7.9848306,-6.04472 -2.1800159,-0.45766 -2.5135417,-0.66293 -2.5135417,-1.546984 0,-0.993255 0.3076812,-1.196548 2.569463,-1.697707 5.1002113,-1.130091 7.8942083,-4.159075 9.0352673,-9.795173 0.474187,-2.34218 0.862175,-3.082291 1.615826,-3.082291 0.757237,0 1.22698,0.829651 1.570209,2.773278 1.00684,5.701489 3.840678,8.827346 9.154027,10.097323 2.136707,0.510708 2.515077,0.739199 2.50949,1.515442 -0.007,0.966132 -0.38803,1.245742 -2.271069,1.666402 -5.337489,1.19235 -8.182641,4.11481 -9.240962,9.49204 -0.551596,2.8026 -0.777812,3.29598 -1.508975,3.29105 -0.330541,-0.002 -0.761372,-0.1057 -0.957401,-0.22993 z m 1.661257,-10.24738 c 0.7949,-1.7789 1.64416,-2.63013 3.259222,-3.266788 0.472943,-0.186433 0.858051,-0.413821 0.855796,-0.505307 -0.0023,-0.09149 -0.686865,-0.530081 -1.521355,-0.974656 -1.375292,-0.732688 -1.603898,-0.98561 -2.443295,-2.703187 -0.509323,-1.042179 -0.99142,-1.898826 -1.071327,-1.903662 -0.07991,-0.0048 -0.306212,0.437693 -0.5029,0.983396 -0.669177,1.85661 -1.498794,2.85835 -3.029726,3.658313 -0.814113,0.425402 -1.480489,0.842403 -1.480835,0.926668 -3.46e-4,0.08427 0.60548,0.437097 1.34628,0.784073 1.625458,0.76132 2.396537,1.62667 3.037328,3.40865 0.265539,0.73843 0.548574,1.33941 0.628968,1.3355 0.08039,-0.004 0.495223,-0.78826 0.921844,-1.743 z"
       id="path66" /><path
       style="fill:#000000"
       d="m 179.91667,114.56458 c -0.19664,-0.36741 -0.19947,-0.68563 -0.009,-1.04102 0.32509,-0.60743 6.71124,-4.51523 7.37882,-4.51523 0.64049,0 1.09711,0.51979 1.09711,1.24888 0,0.64708 -1.60121,1.81256 -5.31709,3.87016 -1.97661,1.09451 -2.74101,1.20062 -3.14957,0.43721 z"
       id="path65" /><path
       style="fill:#000000"
       d="m 36.445584,113.01783 c -3.351584,-2.01155 -3.823246,-2.4775 -3.509256,-3.4668 0.346138,-1.09058 1.10708,-0.9127 4.446269,1.03941 3.493595,2.04237 4.503626,2.91261 4.232773,3.64694 -0.483326,1.31038 -1.259595,1.12726 -5.169786,-1.21955 z"
       id="path64" /><path
       style="fill:#000000"
       d="m 241.58082,116.69684 c -0.20935,-0.13246 -0.63011,-0.93431 -0.93503,-1.78188 -0.48073,-1.33627 -0.63753,-1.53174 -1.1801,-1.47104 -0.34413,0.0385 -0.89995,0.36593 -1.23514,0.72761 -0.719,0.7758 -0.85161,0.79385 -1.66213,0.22614 -0.79276,-0.55527 -1.35383,-1.91041 -1.35383,-3.26989 0,-0.89547 0.11241,-1.12372 0.68106,-1.38281 0.50718,-0.23109 0.80277,-0.2343 1.15781,-0.0126 0.36588,0.2285 0.60443,0.2083 1.02584,-0.0869 l 0.5491,-0.3846 -0.57341,-1.59367 c -0.66578,-1.8504 -0.48055,-2.44811 0.79844,-2.5764 0.79543,-0.0798 0.82317,-0.0405 1.8801,2.66279 1.32719,3.39451 2.68314,7.4149 2.68314,7.95551 0,0.48135 -0.70219,1.23832 -1.14338,1.23259 -0.17151,-0.002 -0.48312,-0.11243 -0.69247,-0.2449 z"
       id="path63" /><path
       style="fill:#000000"
       d="m -21.544645,116.53002 c -0.228676,-0.22868 -0.415774,-0.51683 -0.415774,-0.64034 0,-0.32544 1.903126,-5.84953 2.895289,-8.40398 0.843152,-2.17081 1.446878,-2.85543 2.247203,-2.54832 0.67026,0.25721 0.757457,1.25988 0.249656,2.87081 -0.557395,1.76826 -0.329584,2.09926 1.26937,1.84436 0.840951,-0.13407 1.033462,-0.0628 1.418728,0.52519 0.494802,0.75516 0.374423,2.07255 -0.310393,3.39684 -0.65139,1.25965 -2.266083,1.54589 -2.609887,0.46266 -0.154416,-0.48653 -1.289585,-0.92957 -1.712321,-0.66831 -0.127702,0.0789 -0.433301,0.76718 -0.67911,1.52945 -0.625702,1.94035 -1.463225,2.52117 -2.352761,1.63164 z"
       id="path62" /><path
       style="fill:#000000"
       d="m 26.495664,126.22744 c -3.98129,-1.28271 -7.342983,-2.49684 -7.470428,-2.69807 -0.400421,-0.63224 -0.261918,-1.26523 0.367007,-1.67732 0.565302,-0.3704 1.122054,-0.23294 8.135938,2.00869 4.14101,1.32347 7.684017,2.5313 7.873349,2.68408 0.189333,0.15278 0.308395,0.6451 0.264584,1.09406 -0.07118,0.72941 -0.178214,0.82185 -1.005699,0.86853 -0.56247,0.0317 -3.768016,-0.86341 -8.164751,-2.27997 z"
       id="path61" /><path
       style="fill:#000000"
       d="m 185.79042,128.53454 c -0.41457,-0.41456 -0.407,-1.40107 0.0132,-1.72372 0.47541,-0.36503 14.78338,-4.83794 15.47561,-4.83794 0.75717,0 1.26899,0.9332 0.9253,1.68711 -0.20868,0.45775 -1.64761,0.99284 -7.76628,2.88805 -4.13059,1.27941 -7.6947,2.32121 -7.92026,2.3151 -0.22556,-0.006 -0.55298,-0.15397 -0.7276,-0.3286 z"
       id="path60" /><path
       style="fill:#000000"
       d="m 245.19699,130.3734 c -0.24062,-0.1819 -0.5931,-1.04511 -0.78329,-1.91823 -0.29537,-1.35601 -0.43864,-1.60072 -0.98252,-1.67815 -0.40397,-0.0575 -0.78898,0.10451 -1.05323,0.44322 -0.96096,1.23177 -2.25463,0.73226 -2.79227,-1.07815 -0.50418,-1.69777 -0.50296,-2.05574 0.01,-2.78743 0.4183,-0.5972 1.54148,-0.80174 1.83092,-0.33343 0.0983,0.15912 0.4085,0.14018 0.82701,-0.0505 0.50276,-0.22907 0.6306,-0.4409 0.51294,-0.84992 -0.3957,-1.3756 -0.46767,-3.06421 -0.14706,-3.45052 0.45396,-0.54698 1.39887,-0.50604 1.7626,0.0764 0.29132,0.46648 2.27395,8.22377 2.59302,10.14551 0.24117,1.45257 -0.73719,2.26778 -1.77765,1.48122 z"
       id="path59" /><path
       style="fill:#000000"
       d="m -25.108771,130.4616 c -0.280726,-0.17774 -0.328772,-0.58713 -0.198745,-1.69346 0.233412,-1.98597 2.178695,-9.65114 2.568478,-10.1208 0.434519,-0.52356 1.139978,-0.47344 1.67621,0.11909 0.413178,0.45655 0.418351,0.63662 0.06254,2.17677 -0.213344,0.92348 -0.322358,1.78509 -0.242254,1.91471 0.0801,0.12961 0.685621,0.16164 1.345593,0.0712 2.069217,-0.28362 2.73054,1.07138 1.736014,3.55694 -0.597886,1.49427 -1.511741,1.83516 -2.466783,0.92017 -1.243253,-1.19111 -1.842157,-0.86041 -2.372427,1.31002 -0.465532,1.90545 -1.068088,2.40421 -2.108627,1.74538 z"
       id="path58" /><path
       style="fill:#000000"
       d="m -27.658628,144.18222 c -0.389872,-0.63082 1.143512,-11.05229 1.730218,-11.75923 0.421876,-0.50833 1.16521,-0.507 1.588341,0.003 0.23668,0.28518 0.279285,0.9234 0.149539,2.24011 -0.177516,1.80151 -0.167345,1.84485 0.470526,2.00495 0.358581,0.09 0.905676,0.0279 1.215769,-0.13811 0.83717,-0.44804 1.553321,-0.0946 1.828628,0.90248 0.478185,1.73185 -0.419711,4.11676 -1.549919,4.11676 -0.246221,0 -0.728139,-0.24324 -1.070928,-0.54054 -1.100026,-0.95405 -1.669822,-0.60661 -1.971257,1.202 -0.145521,0.87313 -0.360907,1.73633 -0.478636,1.91823 -0.260486,0.40247 -1.671717,0.43974 -1.912281,0.0505 z"
       id="path57" /><path
       style="fill:#000000"
       d="m 247.38542,144.19792 c -0.35563,-0.35563 -0.52917,-0.88195 -0.52917,-1.6049 0,-1.96035 -0.95055,-2.71246 -1.98437,-1.5701 -0.26339,0.29104 -0.73964,0.52916 -1.05834,0.52916 -0.97416,0 -1.50134,-0.87401 -1.65089,-2.737 -0.12738,-1.58687 -0.0925,-1.73327 0.50689,-2.12599 0.52625,-0.34481 0.79081,-0.36622 1.45014,-0.11735 1.47656,0.55734 1.75776,0.21033 1.54516,-1.90671 -0.13237,-1.31807 -0.0924,-1.96943 0.13802,-2.24703 0.43549,-0.52472 1.14552,-0.49358 1.64385,0.0721 0.44736,0.50782 1.39705,5.73197 1.69061,9.29989 0.16298,1.98079 0.12973,2.26113 -0.30593,2.57969 -0.64817,0.47395 -0.82075,0.45345 -1.44597,-0.17176 z"
       id="path56" /><path
       style="fill:#000000"
       d="m 215.26982,156.56719 c -0.20778,-0.32742 -0.45626,-1.25016 -0.55215,-2.05052 -0.4213,-3.51611 -2.09803,-7.20795 -4.29664,-9.4604 -1.63003,-1.66993 -4.36929,-3.04228 -7.06339,-3.53868 -1.3672,-0.25192 -1.89554,-0.47826 -2.19959,-0.94228 -0.35931,-0.54838 -0.3562,-0.67782 0.0305,-1.26798 0.23686,-0.3615 0.75657,-0.73112 1.15491,-0.82138 5.41722,-1.22755 7.71715,-2.53836 9.62037,-5.48301 1.29148,-1.99818 2.01306,-3.93316 2.61129,-7.00241 0.51798,-2.65758 0.82032,-3.23606 1.68802,-3.22981 0.99917,0.007 1.25025,0.40383 1.77276,2.8005 1.05838,4.8546 2.40288,7.63329 4.68649,9.68555 1.50987,1.35691 2.88959,2.00624 5.84993,2.75308 2.50114,0.631 3.20269,1.06317 3.20269,1.97291 0,0.70817 -0.58157,1.02154 -3.19254,1.72028 -1.34538,0.36005 -3.02976,0.97228 -3.74306,1.36051 -3.33415,1.81466 -5.62691,5.45354 -6.64187,10.54141 -0.31776,1.59284 -0.67406,3.04491 -0.79179,3.22681 -0.36498,0.56393 -1.71636,0.39653 -2.13592,-0.26458 z m 2.10415,-11.6434 c 0.80121,-2.11749 2.01671,-3.48561 3.81867,-4.29819 0.58155,-0.26224 1.05736,-0.5708 1.05736,-0.68569 0,-0.11488 -0.73423,-0.60022 -1.63162,-1.07852 -1.79066,-0.95441 -2.78442,-2.21508 -3.5405,-4.49142 -0.23466,-0.70651 -0.51463,-1.28455 -0.62216,-1.28455 -0.10753,0 -0.58773,0.89251 -1.06712,1.98335 -0.94282,2.14537 -1.95954,3.23771 -3.8836,4.1725 -0.63869,0.31029 -1.16125,0.63916 -1.16125,0.73081 0,0.0916 0.60317,0.44914 1.34038,0.79443 1.79899,0.8426 2.93147,2.1671 3.80295,4.44776 0.39852,1.04291 0.82294,1.83541 0.94316,1.76111 0.12021,-0.0743 0.54489,-0.99751 0.94373,-2.05159 z"
       id="path55" /><path
       style="fill:#000000"
       d="m 3.5868759,156.57446 c -0.2265328,-0.32342 -0.4118779,-0.84016 -0.4118779,-1.1483 0,-1.22824 -1.1131335,-4.86377 -2.1109892,-6.89456 -1.88702511,-3.84039 -4.9538013,-6.10018 -9.4896435,-6.99255 -1.2498385,-0.24589 -1.7701693,-0.48633 -2.0818313,-0.96199 -0.553984,-0.84548 -0.11316,-1.85794 0.9073198,-2.08388 4.5563595,-1.00878 6.1765319,-1.71745 8.1125511,-3.54845 2.06083957,-1.94906 4.0029389,-5.9444 4.5157856,-9.29001 0.364105,-2.37528 1.0031046,-3.15579 2.2576406,-2.75761 0.5487196,0.17415 0.6379948,0.42808 1.5534711,4.41861 0.9588991,4.1798 3.0431162,7.48932 5.6953698,9.04364 1.374561,0.80555 4.879646,2.01772 5.834373,2.01772 1.223645,0 2.116093,1.37741 1.510843,2.33184 -0.121188,0.1911 -1.14875,0.58529 -2.283471,0.87598 -2.690139,0.68915 -5.035045,1.84999 -6.727288,3.33032 -1.884955,1.64891 -3.7771197,5.5307 -4.422252,9.07228 -0.2518262,1.38245 -0.5698161,2.66237 -0.7066442,2.84427 -0.4126003,0.54852 -1.6963817,0.39511 -2.1533569,-0.25731 z m 4.9018457,-15.28047 c 0.9061158,-0.58566 1.8076184,-1.06482 2.0033384,-1.06482 0.713579,0 0.316477,-0.41194 -1.0202163,-1.05834 C 7.5278529,138.23076 6.5250758,137.11664 5.6767063,134.95429 5.2703348,133.91851 4.8307,133.10678 4.69974,133.15043 c -0.13096,0.0437 -0.5838862,0.89896 -1.0065028,1.90068 -0.9405926,2.22946 -1.538152,2.89382 -3.49480174,3.88547 -1.33942266,0.67883 -1.95564726,1.29259 -1.29779086,1.29259 0.12295982,0 0.96529443,0.4794 1.87185469,1.06534 1.66261861,1.0746 2.13519771,1.783 3.51698871,5.27197 0.2507874,0.63323 0.3363233,0.526 1.4093709,-1.76676 1.0709042,-2.28819 1.2454577,-2.50754 2.7898627,-3.50573 z"
       id="path54" /><path
       style="fill:#000000"
       d="m 185.79042,157.37417 c -0.42694,-0.42694 -0.40225,-1.39946 0.0449,-1.77059 0.25777,-0.21393 2.75178,-0.2806 8.63638,-0.23084 7.39871,0.0626 8.30346,0.11677 8.55293,0.51244 0.1984,0.31465 0.18922,0.6395 -0.0317,1.12448 l -0.31074,0.68201 h -8.28713 c -6.09277,0 -8.3712,-0.0841 -8.60463,-0.3175 z"
       id="path53" /><path
       style="fill:#000000"
       d="m 18.044582,157.37417 c -0.174625,-0.17463 -0.3175,-0.64861 -0.3175,-1.0533 0,-0.54362 0.155481,-0.77372 0.595312,-0.88103 0.327422,-0.0799 4.213124,-0.11191 8.634894,-0.0712 7.934223,0.0731 8.042318,0.0814 8.248399,0.6388 0.13604,0.36793 0.07218,0.75983 -0.18323,1.12448 -0.384726,0.54927 -0.543951,0.55973 -8.526211,0.55973 -5.973795,0 -8.21849,-0.0843 -8.451664,-0.3175 z"
       id="path52" /><path
       style="fill:#000000"
       d="m 248.23209,158.4325 c -0.17463,-0.17463 -0.3175,-1.01062 -0.3175,-1.85776 0,-1.38551 -0.0663,-1.57048 -0.66039,-1.84114 -0.53744,-0.24488 -0.75066,-0.2192 -1.14531,0.13796 -0.5129,0.46417 -1.29298,0.5634 -1.81577,0.23098 -0.77792,-0.49464 -1.12546,-2.8069 -0.62123,-4.13313 0.32468,-0.85397 1.44132,-1.17344 2.0803,-0.59517 0.27715,0.25082 0.69649,0.35692 1.04767,0.26509 0.53206,-0.13914 0.58556,-0.31779 0.58556,-1.95546 0,-1.79457 0.36753,-2.6399 1.14338,-2.62982 1.13665,0.0148 1.35829,1.03188 1.65457,7.59281 0.14997,3.32101 0.11748,4.38142 -0.14389,4.69635 -0.40273,0.48526 -1.36394,0.53275 -1.80739,0.0893 z"
       id="path51" /><path
       style="fill:#000000"
       d="m -28.522086,158.4325 c -0.394983,-0.39498 -0.402186,-2.11185 -0.03086,-7.35542 0.249563,-3.52413 0.363308,-4.16431 0.808568,-4.55079 0.519553,-0.45098 1.24116,-0.37676 1.612719,0.16587 0.106912,0.15613 0.196209,1.07367 0.198437,2.03897 0.0038,1.63378 0.0473,1.76337 0.629728,1.8747 0.344121,0.0658 0.843128,-0.0394 1.108903,-0.23374 0.665697,-0.48677 1.085726,-0.44345 1.705004,0.17583 0.984026,0.98402 0.580101,4.27814 -0.569319,4.64295 -0.58439,0.18548 -1.547347,-0.0805 -1.547347,-0.42745 0,-0.39868 -0.984462,-0.28283 -1.43631,0.16902 -0.27195,0.27195 -0.415774,0.89431 -0.415774,1.79917 0,1.48865 -0.312488,2.01839 -1.190625,2.01839 -0.305594,0 -0.6985,-0.14288 -0.873125,-0.3175 z"
       id="path50" /><path
       style="fill:#000000"
       d="m 198.24852,171.49638 c -0.23593,-0.41107 -0.8257,-1.00748 -1.31061,-1.32535 -0.48491,-0.31787 -0.88166,-0.74487 -0.88166,-0.94891 0,-0.5046 2.78818,-3.32833 3.28643,-3.32833 0.21952,0 0.53324,0.26789 0.69716,0.59531 0.16392,0.32742 0.77074,1.01297 1.3485,1.52345 1.18185,1.04421 1.17178,1.48871 -0.0501,2.21048 -0.43275,0.25563 -0.96785,0.81487 -1.18913,1.24277 -0.51831,1.0023 -1.33538,1.01545 -1.90062,0.0306 z"
       id="path49" /><path
       style="fill:#000000"
       d="m 20.764374,171.51208 c -0.237714,-0.40242 -0.839758,-0.99883 -1.337875,-1.32535 -0.498117,-0.32652 -0.905667,-0.72117 -0.905667,-0.877 0,-0.36933 3.046651,-3.41598 3.415984,-3.41598 0.155825,0 0.550473,0.40755 0.876997,0.90567 0.326524,0.49811 0.922931,1.10016 1.325349,1.33787 0.934095,0.55179 0.934095,1.31113 0,1.86292 -0.402418,0.23771 -0.998825,0.83976 -1.325349,1.33787 -0.721098,1.10005 -1.465096,1.16321 -2.049439,0.174 z"
       id="path48" /><path
       style="fill:#000000"
       d="m 247.8016,172.79425 c -0.37188,-0.41092 -0.42563,-0.77965 -0.28164,-1.9321 0.2352,-1.8825 -0.17576,-2.30372 -1.74299,-1.78649 -0.98941,0.32654 -1.10202,0.31055 -1.64506,-0.23358 -0.4797,-0.48065 -0.57774,-0.86462 -0.55356,-2.1678 0.0208,-1.12049 0.16821,-1.73707 0.50403,-2.10815 0.56266,-0.62173 1.51889,-0.68334 1.98012,-0.12759 0.45893,0.55297 1.25165,0.49526 1.57819,-0.1149 0.15064,-0.28147 0.2739,-1.0911 0.2739,-1.79916 0,-1.40644 0.32506,-1.9224 1.21114,-1.9224 1.188,0 1.26541,0.44293 1.07473,6.14962 -0.13604,4.07134 -0.27256,5.47808 -0.57669,5.94225 -0.48561,0.74113 -1.20633,0.7808 -1.82217,0.1003 z"
       id="path47" /><path
       style="fill:#000000"
       d="m -27.872173,172.96818 c -0.369148,-0.26993 -0.503787,-1.01769 -0.70269,-3.90261 -0.345898,-5.01694 -0.328093,-7.76512 0.05278,-8.14599 0.418427,-0.41842 1.396858,-0.40537 1.752691,0.0234 0.155596,0.18748 0.319003,1.11021 0.363126,2.05052 0.07784,1.65873 0.102563,1.7122 0.830366,1.79554 0.472321,0.0541 0.869114,-0.0768 1.071381,-0.35343 0.479677,-0.656 1.791718,-0.41791 2.203343,0.39983 0.428367,0.85099 0.428101,2.85398 -4.93e-4,3.70416 -0.358946,0.71203 -1.391883,1.01853 -1.858846,0.55157 -0.405463,-0.40546 -1.38181,-0.35622 -1.750725,0.0883 -0.17751,0.21389 -0.285137,1.02567 -0.250265,1.88762 0.04923,1.21676 -0.0354,1.58297 -0.432974,1.87368 -0.607362,0.44412 -0.704979,0.44621 -1.277691,0.0274 z"
       id="path46" /><path
       style="fill:#000000"
       d="m 192.2415,182.28875 c -3.62608,-1.14828 -6.69012,-2.24104 -6.80897,-2.42837 -0.3866,-0.60932 -0.23696,-1.24607 0.38926,-1.65638 0.57316,-0.37555 1.06399,-0.26062 7.47447,1.7502 3.77357,1.18368 7.00986,2.26936 7.19176,2.41262 0.42018,0.33093 0.42771,1.31578 0.0132,1.73026 -0.54411,0.54412 -1.47402,0.34053 -8.25975,-1.80833 z"
       id="path45" /><path
       style="fill:#000000"
       d="m 20.425832,184.36167 c -0.51306,-0.51306 -0.36916,-1.49071 0.277812,-1.88744 0.959469,-0.58835 13.639764,-4.48638 14.064288,-4.32347 0.577341,0.22154 0.915343,1.03295 0.684455,1.6431 -0.159491,0.42147 -1.174318,0.84452 -4.665089,1.9447 -2.453692,0.77333 -5.533115,1.75133 -6.843162,2.17333 -2.656458,0.85572 -3.060687,0.90739 -3.518304,0.44978 z"
       id="path44" /><path
       style="fill:#000000"
       d="m 245.91725,187.03944 c -0.0971,-0.15705 -0.0968,-1.02941 5.4e-4,-1.93857 0.14532,-1.35697 0.0993,-1.71755 -0.25722,-2.0134 -0.33348,-0.27677 -0.60852,-0.2946 -1.18536,-0.0769 -0.54643,0.20625 -0.91918,0.20007 -1.36785,-0.0227 -0.52047,-0.25841 -0.62906,-0.54082 -0.69573,-1.8093 -0.13532,-2.57464 1.04121,-3.91839 2.45623,-2.80533 0.36505,0.28715 0.93201,0.48399 1.25991,0.43742 0.49069,-0.0697 0.6357,-0.31876 0.81947,-1.40757 0.35821,-2.12234 0.58747,-2.51355 1.47301,-2.51355 1.00191,0 1.19198,0.56825 0.96163,2.87488 -0.28178,2.82166 -1.23611,8.59379 -1.50413,9.09752 -0.27401,0.51497 -1.67361,0.64166 -1.9605,0.17746 z"
       id="path43" /><path
       style="fill:#000000"
       d="m -26.286597,187.12424 c -0.182958,-0.29603 -1.102899,-5.81678 -1.500345,-9.00387 -0.33617,-2.69572 -0.18186,-3.23079 0.931731,-3.23079 0.829834,0 1.101528,0.43471 1.322917,2.11667 0.105348,0.80036 0.29803,1.58738 0.428181,1.74893 0.295889,0.36726 1.438181,0.16728 1.845094,-0.32302 0.427921,-0.51562 1.399842,-0.45744 1.917697,0.11478 0.50459,0.55757 0.848387,2.60979 0.601796,3.59229 -0.238683,0.95098 -0.957696,1.2704 -1.985991,0.88226 -1.403386,-0.52972 -1.748444,-0.0924 -1.748444,2.21587 v 1.95535 l -0.835065,0.0811 c -0.459286,0.0446 -0.899193,-0.0227 -0.977571,-0.14953 z"
       id="path42" /><path
       style="fill:#000000"
       d="m 242.88564,200.68422 c -0.31712,-0.38211 -0.292,-0.89214 0.14529,-2.94993 0.2279,-1.07249 -0.51652,-1.59378 -1.58244,-1.10811 -0.56822,0.2589 -0.76446,0.22757 -1.23557,-0.19722 -1.17494,-1.05943 -0.11852,-4.87063 1.35007,-4.87063 0.23944,0 0.70069,0.30519 1.02501,0.67819 0.9942,1.14343 1.68301,0.79926 2.15159,-1.07506 0.49571,-1.98287 0.66863,-2.24896 1.46151,-2.24896 1.15167,0 1.28973,0.796 0.65755,3.79137 -0.76846,3.64111 -1.85307,7.64484 -2.1804,8.04873 -0.36845,0.45462 -1.39093,0.41562 -1.79261,-0.0684 z"
       id="path41" /><path
       style="fill:#000000"
       d="m -23.272364,200.45073 c -0.601357,-1.58169 -2.195676,-8.56539 -2.226092,-9.7511 -0.03859,-1.50434 0.50675,-2.15866 1.355224,-1.62608 0.474322,0.29773 0.653037,0.72063 1.133929,2.68322 0.229895,0.93824 0.381854,1.12448 0.917481,1.12448 0.363662,0 0.760564,-0.22163 0.915563,-0.51125 0.782155,-1.46147 2.432206,-0.72838 2.917942,1.29639 0.537999,2.24263 -0.218568,3.55395 -1.669139,2.89302 -0.473408,-0.2157 -0.791577,-0.21356 -1.205745,0.008 -0.664756,0.35576 -0.65945,0.292 -0.175587,2.11005 0.466457,1.75266 0.213421,2.40577 -0.932072,2.40577 -0.590648,0 -0.851907,-0.16022 -1.031504,-0.6326 z"
       id="path40" /><path
       style="fill:#000000"
       d="m 183.09167,203.8912 c -3.68897,-2.3849 -3.83646,-2.51452 -3.83646,-3.37166 0,-0.79876 0.0825,-0.89858 0.79375,-0.96031 1.11275,-0.0966 8.42534,4.56372 8.55312,5.4509 0.10953,0.76039 -0.3836,1.36539 -1.11104,1.36309 -0.3096,-9.8e-4 -2.28932,-1.11789 -4.39937,-2.48202 z"
       id="path39" /><path
       style="fill:#000000"
       d="m 32.596665,206.0575 c -0.900883,-0.90088 -0.398129,-1.42085 4.252583,-4.39818 3.614425,-2.31391 4.568269,-2.60966 4.846119,-1.50262 0.09123,0.36348 0.10509,0.81925 0.03081,1.01283 -0.200386,0.5222 -7.638324,5.20322 -8.269612,5.20443 -0.298318,5.7e-4 -0.685271,-0.14183 -0.859896,-0.31646 z"
       id="path38" /><path
       style="fill:#000000"
       d="m 238.54078,214.16135 c -0.52071,-0.52071 -0.51841,-0.66735 0.0382,-2.43317 0.43552,-1.38162 0.43419,-1.45473 -0.0326,-1.79606 -0.28744,-0.21018 -0.79785,-0.29356 -1.24709,-0.20371 -1.02675,0.20535 -1.55683,-0.29661 -1.54974,-1.46754 0.008,-1.27537 0.86679,-3.11414 1.55731,-3.3333 0.77668,-0.24651 1.55458,0.0564 1.75335,0.68264 0.12295,0.38737 0.3574,0.50896 0.86669,0.44948 0.56915,-0.0665 0.78823,-0.32491 1.18568,-1.39874 0.6162,-1.66485 0.89133,-1.99008 1.68354,-1.99008 1.42526,0 1.19287,1.50905 -1.28347,8.33438 -1.26562,3.48832 -1.93199,4.196 -2.97188,3.1561 z"
       id="path37" /><path
       style="fill:#000000"
       d="m -18.465322,214.24635 c -0.378892,-0.45756 -1.6435,-3.72245 -2.822779,-7.28769 -1.170306,-3.53811 -1.131879,-4.36617 0.196656,-4.23777 0.76797,0.0742 0.902345,0.22397 1.379984,1.53785 0.291042,0.80059 0.618582,1.59308 0.727868,1.7611 0.291783,0.44859 1.170211,0.1294 1.64716,-0.59852 0.892888,-1.36272 2.486667,-0.43398 3.08278,1.79642 0.262392,0.98176 0.263812,1.38775 0.0068,1.95178 -0.291211,0.63913 -0.430624,0.69792 -1.359567,0.57333 -0.629575,-0.0845 -1.215067,-0.007 -1.494501,0.1971 -0.433379,0.31689 -0.434152,0.40209 -0.01364,1.50319 0.524487,1.37335 0.570093,2.37463 0.128281,2.81644 -0.41222,0.41222 -1.132105,0.40578 -1.47907,-0.0132 z"
       id="path36" /><path
       style="fill:#000000"
       d="m 42.121665,225.63667 c -0.855725,-0.85573 -0.356328,-1.5996 4.671624,-6.95854 3.089637,-3.29304 5.189116,-5.32433 5.558665,-5.37813 0.754779,-0.10988 1.359438,0.38588 1.355073,1.11104 -0.0043,0.7133 -10.141797,11.54313 -10.8052,11.54313 -0.254464,0 -0.605537,-0.14288 -0.780162,-0.3175 z"
       id="path35" /><path
       style="fill:#000000"
       d="m 233.13883,226.85257 c -0.71371,-0.4999 -0.7203,-1.15424 -0.0254,-2.51645 0.77409,-1.51735 0.61638,-1.92699 -0.80319,-2.08617 -0.92422,-0.10364 -1.26386,-0.28276 -1.568,-0.82693 -0.35963,-0.64345 -0.33101,-0.80919 0.38838,-2.24896 0.64557,-1.29203 0.90527,-1.56901 1.53897,-1.64139 0.58174,-0.0664 0.94312,0.11084 1.52536,0.74832 0.41966,0.45946 0.91004,0.79021 1.08974,0.735 0.17969,-0.0552 0.63034,-0.73109 1.00142,-1.50194 0.93377,-1.93972 1.95244,-2.35581 2.63681,-1.07705 0.28362,0.52996 -0.97833,3.81081 -3.06038,7.95641 -1.30277,2.59397 -1.83948,3.07854 -2.72376,2.45916 z"
       id="path34" /><path
       style="fill:#000000"
       d="m -12.814056,226.91837 c -0.438558,-0.32927 -4.648446,-9.4124 -4.648446,-10.02936 0,-0.61008 0.960257,-1.32038 1.537401,-1.1372 0.307872,0.0977 0.794079,0.803 1.202022,1.74364 0.784853,1.80972 1.209015,1.95864 2.23816,0.7858 1.099999,-1.25358 2.159478,-1.03982 2.9985992,0.60499 0.6506203,1.27532 0.7528312,2.77123 0.2126972,3.11294 -0.2110192,0.13349 -0.8155774,0.24454 -1.3434624,0.24677 -1.491426,0.006 -1.675483,0.46796 -0.879631,2.20633 0.519645,1.13505 0.614916,1.59998 0.407338,1.98785 -0.340981,0.63712 -1.196926,0.87447 -1.724678,0.47824 z"
       id="path33" /><path
       style="fill:#000000"
       d="m 226.10536,238.76756 c -0.56628,-0.56628 -0.53312,-0.78872 0.35117,-2.3556 0.91244,-1.61676 0.74393,-2.25571 -0.59488,-2.25571 -0.47299,0 -1.00286,-0.14287 -1.17748,-0.3175 -1.02745,-1.02745 0.65295,-4.31271 2.20594,-4.31271 0.58227,0 0.86215,0.17824 1.11796,0.71198 0.40182,0.83837 1.35855,1.24061 1.68212,0.70722 0.1204,-0.19848 0.49313,-0.83711 0.82829,-1.4192 0.64415,-1.11874 1.51426,-1.48068 2.19713,-0.91395 0.66637,0.55304 0.42733,1.32361 -1.38511,4.46509 -3.46863,6.01213 -4.15543,6.76009 -5.22514,5.69038 z"
       id="path32" /><path
       style="fill:#000000"
       d="m 55.1659,238.12544 c -0.367301,-0.58184 -1.080555,-1.32598 -1.58501,-1.65365 -1.309541,-0.85059 -1.334274,-1.18671 -0.167599,-2.27764 0.566975,-0.53017 1.343516,-1.46996 1.725646,-2.08842 0.909604,-1.47216 1.500735,-1.45801 2.388695,0.0572 0.380874,0.64991 1.106563,1.49748 1.612641,1.88349 1.164835,0.88846 1.16103,1.45081 -0.01589,2.34849 -0.514819,0.39267 -1.230687,1.18071 -1.590819,1.7512 -0.853757,1.35244 -1.504453,1.34676 -2.367663,-0.0206 z"
       id="path31" /><path
       style="fill:#000000"
       d="m -6.1290376,238.72031 c -0.4785217,-0.5678 -1.5005314,-2.2338 -3.6458623,-5.94321 -1.9467681,-3.36608 -2.0660451,-4.30939 -0.5448991,-4.30939 0.8305345,0 0.9936149,0.12705 1.5969572,1.24418 0.3695795,0.6843 0.7480312,1.32025 0.8410037,1.41322 0.3284386,0.32844 1.3007708,-0.19757 1.5430215,-0.83474 0.5314274,-1.39776 2.0518424,-1.13698 3.0219098,0.51832 1.114668,1.90203 0.8185023,3.34756 -0.6858632,3.34756 -0.397064,0 -0.9114958,0.18956 -1.1431818,0.42125 -0.3852742,0.38527 -0.3529963,0.54054 0.3779762,1.81814 0.9319867,1.62895 0.9901648,2.13772 0.2874509,2.5138 -0.7346514,0.39318 -1.2030601,0.33944 -1.6485129,-0.18913 z"
       id="path30" /><path
       style="fill:#000000"
       d="m 86.721361,242.11545 c -0.760112,-0.67916 -0.86407,-0.93309 -0.86407,-2.11065 0,-1.73989 0.835371,-2.66869 2.576788,-2.86497 1.030394,-0.11614 1.292865,-0.0352 2.024706,0.6243 1.499716,1.3515 1.359823,3.90133 -0.259997,4.73897 -1.220654,0.63123 -2.496258,0.48903 -3.477427,-0.38765 z"
       id="path29" /><path
       style="fill:#000000"
       d="m 118.13646,242.54273 c -0.72761,-0.34836 -1.81034,-1.16437 -2.40607,-1.81335 -4.10371,-4.47052 -7.45475,-15.79039 -8.32933,-28.13667 -0.31359,-4.42681 -0.19188,-20.95586 0.18801,-25.53229 0.0906,-1.09141 0.0896,-1.91471 -0.002,-1.82956 -0.0918,0.0851 -0.41136,1.5139 -0.71008,3.175 -3.5522,19.75274 -10.861665,30.55221 -22.265075,32.89584 -2.720375,0.5591 -4.909125,0.52566 -7.585151,-0.11585 -5.726791,-1.37287 -10.119954,-5.33452 -11.986282,-10.80894 -0.467777,-1.37211 -0.599414,-2.35652 -0.605907,-4.53108 -0.0046,-1.52796 0.07406,-3.14523 0.174708,-3.59391 l 0.183002,-0.8158 -2.69822,0.12001 c -5.951092,0.26467 -11.003756,-2.35433 -14.432722,-7.48106 -4.21906,-6.30801 -4.607288,-14.13893 -1.0335,-20.84667 1.775231,-3.33198 5.732166,-7.10713 9.728646,-9.28172 5.116807,-2.78418 12.233549,-4.58982 21.960417,-5.57174 4.240586,-0.42809 13.933652,-1.20729 15.059202,-1.21057 1.867977,-0.005 -0.379021,-0.36215 -6.674492,-1.05953 -8.627783,-0.95573 -13.374719,-1.65104 -17.33344,-2.53891 -9.587731,-2.15035 -16.815362,-6.28275 -20.852143,-11.92221 -4.422597,-6.17846 -5.018134,-14.49919 -1.502578,-20.99372 3.386078,-6.25534 9.487895,-9.88766 15.825326,-9.42057 1.164166,0.0858 2.509544,0.26938 2.989728,0.40797 0.760232,0.2194 0.856698,0.19402 0.746436,-0.19637 -0.962505,-3.4078 -0.89405,-7.84321 0.165123,-10.69869 2.406997,-6.489167 7.741195,-10.642201 14.891017,-11.593664 6.129502,-0.815685 13.187281,1.700699 17.851288,6.364706 6.432097,6.432098 9.510567,17.872748 10.855027,40.340988 0.15644,2.61433 0.32923,4.79813 0.38399,4.8529 0.12396,0.12395 0.25204,-0.88384 0.93508,-7.35727 1.93794,-18.36677 3.85695,-26.5252 7.71818,-32.81283 1.80185,-2.934136 5.7506,-6.923931 8.38559,-8.472747 4.35261,-2.558415 9.17063,-3.560257 13.55352,-2.818271 10.45464,1.769882 17.03289,10.769308 14.95329,20.456968 l -0.34793,1.62083 3.2015,-0.0307 c 2.61915,-0.0251 3.53838,0.0751 5.05358,0.55089 3.2819,1.03054 6.42568,3.24567 8.51067,5.99671 3.3868,4.46869 4.69443,10.17628 3.57217,15.59191 -0.57195,2.76002 -1.95421,6.03928 -3.40957,8.08878 -2.42485,3.41481 -6.59195,6.70728 -11.22097,8.86581 -6.3653,2.96816 -13.43507,4.41257 -28.63141,5.84962 -3.61507,0.34186 -6.62671,0.67543 -6.69254,0.74126 -0.0658,0.0658 0.92742,0.19996 2.20723,0.29806 18.67398,1.43148 23.35477,2.08665 29.71129,4.15871 2.73906,0.89286 6.95119,2.88652 8.93353,4.22837 1.82654,1.23638 5.34771,4.90918 6.37384,6.64832 2.19848,3.72609 3.07094,7.17986 2.85682,11.30912 -0.17713,3.416 -0.64965,5.22839 -2.20273,8.44881 -2.20231,4.56665 -6.33011,7.94937 -11.19896,9.17753 -1.30207,0.32844 -2.3841,0.39665 -4.45488,0.2808 -2.50383,-0.14007 -2.71933,-0.115 -2.54854,0.29649 0.43893,1.05755 0.45315,5.47728 0.0232,7.19656 -1.16346,4.65194 -4.48308,8.79722 -8.65057,10.80211 -9.20903,4.4303 -19.80016,0.65722 -26.2375,-9.34709 -3.3701,-5.2375 -5.85733,-12.4396 -7.67536,-22.225 l -0.63903,-3.43958 -0.21367,4.7625 c -0.44613,9.94427 0.2459,18.36889 2.0823,25.34935 1.90249,7.23173 4.3875,12.62043 8.17652,17.73069 2.5591,3.45146 3.05426,5.11494 2.15977,7.25575 -0.52612,1.25919 -1.08204,1.85794 -2.30416,2.48168 -1.63241,0.83315 -3.04312,0.87991 -4.56491,0.1513 z"
       id="path28" /><path
       style="fill:#000000"
       d="m 180.44293,248.90677 c -0.56536,-0.92726 -0.62624,-1.23915 -0.32377,-1.65868 0.10691,-0.14829 1.7422,-1.59714 3.63397,-3.21966 1.89177,-1.62252 4.49904,-4.0216 5.79393,-5.33129 l 2.35435,-2.38126 -0.80441,-1.01565 c -1.12293,-1.41782 -2.35253,-3.92246 -2.835,-5.7748 -0.52172,-2.00304 -0.52302,-5.66369 -0.003,-7.66131 0.86315,-3.31388 3.39037,-6.7281 4.70327,-6.35401 1.3375,0.3811 3.24318,3.55345 4.04876,6.73989 0.53968,2.13472 0.36739,5.2686 -0.41333,7.51789 -0.29871,0.86062 -0.5003,1.60759 -0.44796,1.65992 0.24421,0.24422 5.80704,-6.64177 8.21245,-10.16585 l 1.29479,-1.89694 -1.84119,-1.97153 c -3.10008,-3.31953 -4.4957,-6.93774 -4.25008,-11.01849 0.24131,-4.00916 2.1165,-7.4435 3.83421,-7.0222 1.76012,0.4317 4.35618,4.13097 5.21623,7.43291 0.45132,1.73275 0.51813,4.46819 0.14811,6.06415 -0.13401,0.578 -0.20517,1.08939 -0.15813,1.13643 0.28141,0.28141 5.35494,-9.59106 6.58786,-12.81918 l 0.42274,-1.10685 -1.67636,-0.93748 c -3.06905,-1.7163 -5.49285,-4.97173 -6.24823,-8.39204 -0.48122,-2.17897 -0.23826,-5.86261 0.44755,-6.78527 0.83787,-1.12725 1.81649,-1.07214 3.73717,0.21044 3.31762,2.21541 5.05521,5.13713 5.32939,8.96121 l 0.1633,2.27767 0.43847,-1.45521 c 0.59774,-1.98377 1.41097,-5.27285 1.90782,-7.7161 l 0.41232,-2.02755 -0.9032,-1.34214 c -1.77651,-2.63989 -2.74663,-6.57777 -2.41585,-9.80638 0.46366,-4.52552 3.46291,-9.79949 5.57288,-9.79949 1.48843,0 3.4237,2.97354 4.2647,6.55271 0.62183,2.64642 0.38337,6.4862 -0.56228,9.05408 -0.79653,2.16294 -1.13187,2.77637 -2.3885,4.36925 -0.8262,1.04729 -0.98019,1.60505 -2.44703,8.86354 -0.1141,0.56461 0.1026,0.43763 1.48002,-0.86729 2.33069,-2.20801 5.01544,-3.4299 7.86482,-3.57945 4.67353,-0.2453 5.4437,1.00851 3.26065,5.30825 -0.81705,1.60926 -3.75903,4.52896 -5.49685,5.4552 -2.11124,1.12528 -5.20456,1.88537 -7.67284,1.88537 h -2.00955 l -0.63046,1.65365 c -0.34675,0.9095 -1.62607,3.66123 -2.84292,6.11494 -1.21686,2.45371 -2.21246,4.48579 -2.21246,4.51572 0,0.0299 0.82035,-0.35279 1.82301,-0.85048 3.40552,-1.69043 7.35102,-1.77674 10.7197,-0.23451 2.48319,1.13684 2.28999,2.50817 -0.78744,5.58916 -1.80218,1.80426 -4.0278,3.10563 -6.34231,3.70848 -2.15251,0.56066 -5.67266,0.51971 -7.87734,-0.0916 l -1.79147,-0.49676 -0.61404,0.82749 c -0.33773,0.45512 -1.60411,2.1967 -2.81418,3.87019 -1.21008,1.67349 -2.83876,3.84638 -3.61931,4.82865 -0.78054,0.98227 -1.35305,1.78594 -1.27225,1.78594 0.0808,0 1.00621,-0.23813 2.05647,-0.52917 2.24583,-0.62235 5.03521,-0.67969 7.0448,-0.14482 2.88462,0.76777 5.85561,2.68753 5.85561,3.78372 0,0.94998 -1.17933,2.30261 -3.178,3.64502 -4.75823,3.19585 -10.07663,3.54652 -15.58687,1.02772 l -2.15674,-0.98587 -2.83451,2.76353 c -4.54178,4.42804 -9.58281,8.69612 -10.27099,8.69612 -0.20708,0 -0.61244,-0.38696 -0.9008,-0.8599 z"
       id="path27" /><path
       style="fill:#000000"
       d="m 37.266409,248.01554 c -2.697691,-2.17493 -5.760293,-4.92137 -8.506086,-7.62798 l -2.063633,-2.03418 -2.1697,0.92545 c -5.296887,2.25932 -9.814142,2.20381 -14.308551,-0.1758 -2.1126666,-1.11858 -4.3976076,-3.29959 -4.3976076,-4.19759 0,-1.35181 3.1127338,-3.48108 6.0927736,-4.16776 2.263911,-0.52167 5.957235,-0.22336 8.327018,0.67257 0.385872,0.14589 0.242577,-0.15136 -0.529166,-1.0977 -1.17663,-1.44281 -5.363864,-7.05309 -6.647291,-8.90638 l -0.826457,-1.19343 -1.819376,0.47421 c -4.9431145,1.2884 -10.18494932,0.12879 -13.5009262,-2.98669 -2.0572563,-1.93287 -3.0028256,-3.29085 -3.0028256,-4.31249 0,-1.07625 0.5616377,-1.57769 2.5319882,-2.26062 3.3090151,-1.14693 6.5378032,-0.93922 9.7121013,0.62478 0.9861763,0.48589 1.7600825,0.81431 1.7197917,0.72982 -0.040291,-0.0845 -1.0369331,-2.11816 -2.2147607,-4.51925 -1.1778276,-2.40109 -2.4273777,-5.10977 -2.7767779,-6.01927 L 2.2516506,200.28958 H 0.12831875 c -5.48900195,0 -10.70531875,-2.92065 -13.00123175,-7.27948 -1.769417,-3.35926 -1.742299,-4.6285 0.109878,-5.14288 3.327314,-0.92406 7.8000763,0.45658 10.9615997,3.38359 1.01577978,0.94044 1.5525,1.2983 1.44965047,0.96657 -0.38658403,-1.24688 -1.22676137,-5.14158 -1.39786137,-6.47988 -0.144985,-1.13404 -0.4040831,-1.71798 -1.1739575,-2.64583 -2.0896776,-2.51847 -3.1618151,-5.7389 -3.1618151,-9.49728 0,-2.95378 0.4440273,-4.92608 1.6589634,-7.36885 0.95194,-1.91398 2.0226635,-2.97762 2.9974568,-2.97762 0.97065332,0 2.8227871,1.87074 3.7828032,3.82081 2.8150016,5.71808 2.3398117,11.70097 -1.3379091,16.84497 -0.23582692,0.32985 -0.14133539,1.15769 0.4215026,3.69276 0.39901,1.79718 0.9872043,4.1033 1.3070984,5.12472 l 0.5816256,1.85712 0.317927,-2.04499 c 0.5676973,-3.65157 2.9150597,-7.15041 5.8797418,-8.76399 2.6068631,-1.41883 3.6824681,-0.45471 3.9006301,3.49635 0.28563,5.17295 -1.947657,9.33597 -6.3201159,11.78119 l -1.7578068,0.98302 1.1222839,2.70454 c 1.7346881,4.18034 5.5685708,11.52517 5.8625198,11.23122 0.04937,-0.0494 -0.03864,-0.55481 -0.195573,-1.1232 -0.156939,-0.56838 -0.236355,-2.22856 -0.17648,-3.68929 0.09793,-2.38903 0.207234,-2.86599 1.087996,-4.74739 1.176067,-2.5122 2.472195,-4.16174 3.74448,-4.76548 1.294292,-0.61418 2.168296,-0.1669 3.113247,1.59326 2.833371,5.27769 1.624257,11.8306 -3.051129,16.53589 l -1.534697,1.54451 1.373981,2.05834 c 2.074438,3.10769 8.178313,10.64231 8.177571,10.09439 -7.3e-5,-0.0542 -0.252124,-0.75339 -0.560114,-1.55375 -0.699878,-1.81876 -0.944334,-5.3936 -0.511349,-7.47781 0.586396,-2.82267 2.824155,-6.55315 4.158774,-6.93294 1.323898,-0.37673 3.785612,3.13447 4.723901,6.73783 0.623529,2.39457 0.423013,6.12 -0.457406,8.4983 -0.656094,1.77233 -1.578542,3.44589 -2.659904,4.82576 l -0.592727,0.75635 3.027052,2.90056 c 1.664878,1.59531 4.422829,4.02964 6.128779,5.40961 1.705951,1.37998 3.173602,2.69635 3.261449,2.92527 0.226831,0.59111 -0.696778,2.05311 -1.358017,2.14963 -0.366427,0.0535 -1.307802,-0.52534 -2.764727,-1.69994 z"
       id="path26" /><path
       style="fill:#000000"
       d="m 218.33417,249.97833 c -0.52117,-0.52116 -0.36659,-1.24742 0.53172,-2.4983 0.97372,-1.35588 0.82791,-2.01595 -0.47903,-2.16854 -0.42189,-0.0493 -0.91589,-0.21267 -1.0978,-0.36313 -0.55508,-0.45915 -0.37094,-1.78769 0.39688,-2.86326 1.27777,-1.78993 2.53568,-1.91203 3.29635,-0.31995 0.54231,1.13504 1.27137,1.02698 2.26828,-0.33619 0.89119,-1.21862 1.73111,-1.52478 2.3861,-0.86979 0.74718,0.74717 0.44617,1.32808 -3.33147,6.42937 -1.07762,1.45521 -2.14895,2.79466 -2.38074,2.97657 -0.53222,0.41767 -1.18046,0.42306 -1.59029,0.0132 z"
       id="path25" /><path
       style="fill:#000000"
       d="m 1.6555973,249.70052 c -1.13936496,-1.22586 -5.6369319,-7.49763 -5.7894107,-8.07323 -0.2007097,-0.75766 0.3086597,-1.38562 1.1239398,-1.38562 0.4522901,0 0.8970552,0.37241 1.5799225,1.32291 0.52273156,0.72761 1.02854919,1.31913 1.1240392,1.31451 0.36348807,-0.0176 0.98632657,-0.68132 1.29565199,-1.38065 0.24032161,-0.54333 0.50754321,-0.72658 1.05510641,-0.72355 0.9223505,0.005 1.2349453,0.20572 2.0573761,1.32046 1.0799374,1.46378 0.7942189,3.1734 -0.5303496,3.1734 -1.3533549,0 -1.5259083,1.09284 -0.396875,2.51354 0.9011401,1.13394 0.9684174,1.50733 0.3779762,2.09777 -0.5812869,0.58129 -1.2489536,0.51811 -1.8973769,-0.17954 z"
       id="path24" /><path
       style="fill:#000000"
       d="m 129.82222,250.64861 c -0.097,-0.097 -0.17639,-0.53743 -0.17639,-0.9787 0,-0.85503 0.7576,-1.67699 4.61776,-5.0101 5.60425,-4.83906 13.51392,-9.66634 19.56393,-11.93987 1.89516,-0.71218 5.5885,-3.20734 8.62665,-5.82802 2.53139,-2.18355 5.85451,-6.01044 5.63915,-6.494 -0.0972,-0.21828 -0.22599,-0.95237 -0.28615,-1.63131 -0.0985,-1.11101 -0.0183,-1.33386 0.80188,-2.22881 0.81628,-0.89072 1.05138,-0.99648 2.25525,-1.01453 1.13987,-0.0171 1.4667,0.0974 2.15216,0.7538 1.97774,1.89393 0.92931,5.15265 -1.80469,5.60932 -0.76942,0.12852 -1.15421,0.43723 -2.00289,1.60688 -0.57777,0.79629 -2.27608,2.62825 -3.77401,4.07102 -1.49793,1.44276 -2.60284,2.62321 -2.45535,2.62321 0.14749,0 1.31001,-0.17328 2.58338,-0.38507 1.27338,-0.21179 3.19035,-0.42015 4.25995,-0.46302 1.86129,-0.0746 1.98909,-0.12195 2.97888,-1.10358 0.9887,-0.98055 1.0944,-1.01984 2.40518,-0.89389 1.11414,0.10706 1.51032,0.28762 2.11436,0.96366 1.02618,1.1485 1.05438,3.05912 0.0625,4.23785 -1.35662,1.61226 -3.76848,1.57659 -5.06757,-0.0749 -0.44095,-0.56058 -0.76645,-0.69261 -1.69807,-0.68877 -2.36292,0.01 -10.01609,1.43659 -10.01609,1.8674 0,0.38323 0.77436,0.46552 1.70185,0.18087 1.22693,-0.37656 2.56952,0.20846 3.32606,1.44929 1.0221,1.67638 0.32703,3.83952 -1.47576,4.59278 -2.10721,0.88045 -4.3459,-0.5707 -4.3459,-2.81707 0,-0.87959 -0.0985,-1.00035 -1.25879,-1.54382 l -1.25879,-0.58958 -2.37923,0.82335 c -6.92736,2.39726 -15.62662,7.79633 -21.61719,13.41638 -1.32811,1.24596 -1.96699,1.66565 -2.53559,1.66565 -0.41807,0 -0.8395,-0.0794 -0.93652,-0.17639 z"
       id="path23" /><path
       style="fill:#000000"
       d="m 191.5301,259.42478 c -1.66304,-0.90391 -2.11916,-3.39586 -0.88915,-4.85765 1.84277,-2.19001 5.0472,-1.34314 5.57561,1.47352 0.47078,2.50947 -2.43509,4.60782 -4.68646,3.38413 z"
       id="path22" /><path
       style="fill:#000000"
       d="m 26.256009,258.91512 c -0.911614,-0.83543 -0.988302,-1.01855 -0.988302,-2.35993 0,-1.17037 0.123795,-1.586 0.634219,-2.12932 1.873928,-1.9947 4.965771,-1.12209 5.465666,1.54258 0.350833,1.8701 -1.324092,3.84918 -3.2595,3.8514 -0.615485,7e-4 -1.147871,-0.25936 -1.852083,-0.90473 z"
       id="path21" /><path
       style="fill:#000000"
       d="m 209.30816,259.75469 c -0.25816,-0.68367 0.006,-1.33114 0.96134,-2.35642 0.80422,-0.86309 0.62564,-1.7327 -0.4064,-1.97893 -1.77792,-0.42419 -1.85346,-1.5361 -0.21562,-3.17394 1.6336,-1.6336 2.75011,-1.56175 3.17105,0.20406 0.29511,1.23799 0.98321,1.18926 2.15543,-0.15265 1.06469,-1.21881 1.84823,-1.50213 2.46063,-0.88973 0.17462,0.17463 0.3175,0.54833 0.3175,0.83045 0,0.6043 -2.07306,3.18691 -4.86592,6.06195 -2.16146,2.22506 -3.13743,2.622 -3.57801,1.45521 z"
       id="path20" /><path
       style="fill:#000000"
       d="m 9.2259762,258.56406 c -2.8025622,-2.87649 -5.2572282,-5.84694 -5.2572282,-6.3619 0,-0.26267 0.142875,-0.62045 0.3175,-0.79508 0.6389141,-0.63891 1.4765477,-0.33722 2.5497715,0.91834 1.0512954,1.22991 1.0596401,1.23369 1.7403779,0.78765 0.3762096,-0.2465 0.6840174,-0.65975 0.6840174,-0.91833 0,-0.64044 0.5143735,-1.10516 1.2232412,-1.10516 1.296554,0 3.333993,2.64321 2.788622,3.61774 -0.135833,0.24272 -0.64603,0.62973 -1.13377,0.86003 -1.167249,0.55115 -1.227873,1.09475 -0.246716,2.21222 0.85268,0.97115 1.01719,1.72645 0.490706,2.25293 -0.661254,0.66126 -1.429998,0.30363 -3.1565218,-1.46844 z"
       id="path19" /><path
       style="fill:#000000"
       d="m 199.24056,269.36323 c -0.44243,-0.82669 -0.33863,-1.07367 0.94765,-2.25467 1.08717,-0.99819 1.18801,-1.18422 0.91673,-1.6911 -0.16764,-0.31325 -0.51493,-0.56954 -0.77175,-0.56954 -0.68668,0 -1.10194,-0.53163 -1.10194,-1.41074 0,-0.88805 1.45865,-2.44918 2.54259,-2.72124 0.81111,-0.20357 1.69075,0.51729 1.69075,1.38555 0,0.33613 0.22474,0.73142 0.49942,0.87843 0.40737,0.21802 0.71965,0.0734 1.69425,-0.78444 1.22575,-1.07895 1.9576,-1.29253 2.51591,-0.73423 0.69359,0.6936 0.31604,1.46869 -1.60105,3.28689 -5.17228,4.90544 -6.672,5.84935 -7.33256,4.61509 z"
       id="path18" /><path
       style="fill:#000000"
       d="m 17.214761,266.58433 c -1.955265,-1.81571 -3.661405,-3.49138 -3.791421,-3.7237 -0.317879,-0.56802 0.445461,-1.71688 1.140753,-1.71688 0.290938,0 1.041313,0.47226 1.6675,1.04945 1.071958,0.9881 1.172159,1.0259 1.71388,0.64646 0.319906,-0.22407 0.575359,-0.68588 0.575359,-1.04014 0,-0.7338 0.832835,-1.29216 1.575676,-1.0564 0.802651,0.25476 1.84321,1.18064 2.283288,2.03165 0.36998,0.71547 0.368898,0.85146 -0.01139,1.43185 -0.231107,0.35271 -0.626935,0.6413 -0.879617,0.6413 -0.252683,0 -0.614253,0.24792 -0.803491,0.55094 -0.310972,0.49794 -0.225779,0.6774 0.885673,1.86563 1.152215,1.23181 1.205531,1.35137 0.845724,1.89646 -0.813787,1.23284 -1.426494,0.92935 -5.201939,-2.57662 z"
       id="path17" /><path
       style="fill:#000000"
       d="m 187.7889,277.90721 c -0.30135,-0.66139 -0.24239,-0.76616 1.09441,-1.94476 1.58751,-1.39964 1.64586,-1.935 0.29446,-2.7017 -1.07988,-0.61266 -1.06384,-1.58202 0.0429,-2.59287 1.30605,-1.19289 2.19666,-1.4753 2.99756,-0.95052 0.45133,0.29572 0.66302,0.67556 0.66302,1.18968 0,1.32779 0.6029,1.50594 1.95293,0.5771 1.37586,-0.94662 2.40028,-1.05098 2.80957,-0.28622 0.5288,0.98806 -0.20293,1.71807 -5.39095,5.37828 -3.13723,2.21336 -3.95128,2.45609 -4.4639,1.33101 z"
       id="path16" /><path
       style="fill:#000000"
       d="m 29.027572,276.31199 c -1.715616,-1.25542 -3.617446,-2.72466 -4.226288,-3.26496 -1.031613,-0.91547 -1.085333,-1.02988 -0.788975,-1.68032 0.42163,-0.92538 1.212323,-0.8998 2.700337,0.0874 1.09657,0.72748 1.213951,0.75266 1.653646,0.35474 0.260309,-0.23558 0.47329,-0.68371 0.47329,-0.99586 0,-1.25334 1.358488,-1.58218 2.829895,-0.68501 1.815118,1.10675 2.073468,2.56199 0.590938,3.32863 -1.08625,0.56172 -0.969815,1.22213 0.415625,2.3574 0.654844,0.53659 1.190625,1.19728 1.190625,1.46818 0,0.61557 -0.687464,1.32599 -1.275669,1.31827 -0.244268,-0.003 -1.847808,-1.033 -3.563424,-2.28843 z"
       id="path15" /><path
       style="fill:#000000"
       d="m 180.10035,279.08756 c -0.62881,-0.22926 -0.72998,-0.39806 -0.66146,-1.10359 0.062,-0.63838 0.22335,-0.85312 0.69078,-0.91938 0.86882,-0.12317 1.3745,0.40726 1.3745,1.44177 0,0.95746 -0.17413,1.02955 -1.40382,0.5812 z"
       id="path14" /><path
       style="fill:#000000"
       d="m 40.004999,278.68819 c 0,-0.55954 0.199799,-1.1284 0.502708,-1.43131 0.592627,-0.59263 0.864376,-0.62646 1.254652,-0.15621 0.492959,0.59398 -0.01898,1.78518 -0.932232,2.16918 l -0.825128,0.34694 z"
       id="path13" /><path
       style="fill:#000000"
       d="m 183.68698,280.65955 c -0.61846,-0.31353 -1.12155,-0.6359 -1.11797,-0.71637 0.0125,-0.28161 1.8734,-1.07235 2.52358,-1.07235 0.81462,0 1.4329,1.11641 1.00045,1.80648 -0.39965,0.63773 -1.12362,0.63238 -2.40606,-0.0178 z"
       id="path12" /><path
       style="fill:#000000"
       d="m 35.738384,280.74255 c -0.550343,-0.55034 -0.486453,-1.3745 0.147328,-1.90049 0.291019,-0.24152 0.608961,-0.2049 1.428138,0.16449 1.683354,0.75909 1.784819,1.0719 0.551731,1.70098 -1.314632,0.67067 -1.488681,0.67354 -2.127197,0.035 z"
       id="path11" /><path
       style="fill:#000000"
       d="M 21.837191,286.21814 C 14.832911,281.33728 7.6341855,275.1207 0.26458129,267.58877 -4.9541113,262.25513 -7.4646512,259.33693 -11.767312,253.60313 c -6.09863,-8.12714 -9.740333,-14.14047 -14.569449,-24.05765 -14.023129,-28.79822 -18.674848,-59.28263 -13.99244,-91.69756 3.44727,-23.86445 12.110698,-46.430797 25.580104,-66.630619 C -5.8469496,57.866913 5.9828176,45.365686 19.091283,35.456135 27.078407,29.418143 34.185651,25.010244 43.176389,20.5186 59.850696,12.188356 77.750227,7.2800106 98.160416,5.4410775 120.92047,3.3904249 147.14368,7.2007864 168.11778,15.606224 c 25.0951,10.056942 47.42215,27.170876 63.69092,48.819816 14.01808,18.653929 24.29515,41.85636 28.77065,64.95521 4.99371,25.77343 4.07129,50.6781 -2.7657,74.67185 -4.95301,17.3821 -13.05268,34.1462 -23.23726,48.09482 -9.08009,12.43591 -21.05305,24.21752 -34.2493,33.70193 -2.12992,1.53082 -3.66021,2.46252 -3.85105,2.34467 -3.39334,-2.09544 -5.71146,-3.62572 -5.71146,-3.77038 0,-0.10021 1.0418,-0.87352 2.31511,-1.71845 8.87856,-5.8916 20.6202,-16.39377 28.10013,-25.13381 7.67106,-8.96337 14.13051,-18.83577 19.73513,-30.1625 8.1757,-16.52278 13.01114,-33.46396 14.99048,-52.5198 0.46749,-4.50068 0.46309,-22.98966 -0.007,-27.78125 C 253.31865,120.78685 245.43154,97.994814 231.63591,76.993748 225.81293,68.12945 220.92668,62.158445 213.00025,54.220966 205.21075,46.420603 199.29477,41.585626 190.5,35.832089 172.73851,24.212525 152.6386,16.816686 130.94439,13.918366 123.03846,12.862143 118.24072,12.61757 108.47917,12.773163 95.513313,12.979829 86.682399,14.119041 74.215624,17.19325 53.302103,22.350361 33.054777,32.752046 16.750519,46.714871 8.6149638,53.682091 0.85193362,62.001599 -5.3309107,70.379165 -25.159156,97.245835 -35.560389,130.16617 -34.840133,163.77708 c 0.264003,12.31975 1.544432,21.84773 4.541386,33.79356 2.534777,10.10359 6.073338,19.63014 10.985092,29.57415 8.992362,18.20535 20.29686928,32.81282 35.742422,46.1857 3.5995,3.11648 10.918843,8.69426 14.262898,10.86919 0.257581,0.16752 0.29398,0.3025 0.103708,0.38458 -0.161242,0.0696 -1.55283,0.94643 -3.092418,1.94861 l -2.799251,1.82214 z"
       id="path10" /><path
       style="fill:#000000"
       d="m 101.76861,288.81111 c -1.3495,-0.49308 -2.490303,-1.61837 -2.819838,-2.78148 -1.537886,-5.42807 -1.507541,-16.10428 0.05776,-20.32326 0.581111,-1.56628 1.610478,-2.49847 3.254928,-2.94766 1.42796,-0.39006 14.99129,-0.38752 16.3982,0.003 1.50706,0.41839 2.91225,1.93199 3.42151,3.68548 1.34297,4.62417 0.80772,17.62396 -0.84229,20.45678 -0.266,0.45668 -1.01333,1.12799 -1.66074,1.4918 -1.17333,0.65933 -1.2021,0.66166 -8.98231,0.72508 -6.18525,0.0504 -8.01732,-0.0139 -8.82722,-0.30981 z"
       id="path9" /><path
       style="fill:#000000"
       d="m 162.18958,295.66877 c -7.80656,-1.07293 -21.78934,-5.09597 -32.69739,-9.4075 l -3.9901,-1.57713 0.18566,-1.3853 c 0.10212,-0.76191 0.27124,-2.54045 0.37582,-3.9523 l 0.19016,-2.567 0.83616,-0.25937 c 3.9341,-1.22033 13.15564,-3.47843 15.78511,-3.86535 1.40018,-0.20603 2.0019,-0.59142 2.34907,-1.50455 0.3353,-0.88191 -0.15176,-1.8491 -1.09892,-2.1822 -1.25568,-0.4416 -7.89787,0.97632 -14.85405,3.17091 -1.58855,0.50117 -2.94574,0.85374 -3.01599,0.7835 -0.0702,-0.0702 -0.23428,-1.39974 -0.36452,-2.95443 -0.13024,-1.55468 -0.46075,-3.49005 -0.73446,-4.30081 -0.27371,-0.81075 -0.40938,-1.53513 -0.30149,-1.60973 0.10789,-0.0746 0.90675,-0.68841 1.77524,-1.36403 8.42595,-6.55468 21.62104,-12.88211 31.13054,-14.92799 3.7771,-0.8126 9.48597,-1.138 11.92582,-0.67974 2.37018,0.44516 4.56017,1.54416 5.73364,2.87728 1.56913,1.78264 1.98444,3.29786 1.97673,7.21197 -0.006,2.9308 -0.13223,3.84945 -1.11085,8.06979 -0.60739,2.61938 -1.1844,5.38045 -1.28224,6.13571 -0.0985,0.7604 0.0316,3.84685 0.29162,6.91628 0.38885,4.59074 0.41761,5.99947 0.16744,8.19954 -0.66764,5.87132 -2.63992,8.46923 -7.04837,9.28418 -1.90725,0.35257 -2.98744,0.33318 -6.22463,-0.11173 z"
       id="path8" /><path
       style="fill:#000000"
       d="m 52.144444,295.64847 c -2.584481,-0.69486 -3.92188,-1.86572 -5.053701,-4.42439 -1.334408,-3.01665 -1.621923,-7.40449 -0.892629,-13.62267 0.537215,-4.58046 0.409001,-6.17925 -0.980325,-12.22433 -1.00131,-4.35678 -1.127141,-5.27285 -1.144812,-8.33437 -0.01868,-3.23695 0.02389,-3.53311 0.72271,-5.02708 0.908021,-1.94123 1.782748,-2.89556 3.419556,-3.73073 3.868156,-1.97371 10.298329,-1.92583 18.084465,0.13465 9.043227,2.39316 20.073602,7.92415 27.789478,13.93456 l 2.146477,1.67204 -0.501671,1.486 c -0.275919,0.8173 -0.624414,2.46071 -0.774433,3.65203 -0.481668,3.82498 -0.509064,3.94023 -0.900866,3.78988 -3.105292,-1.19161 -15.150488,-4.13739 -16.91766,-4.13739 -1.648113,0 -2.505206,1.95357 -1.367991,3.11806 0.182583,0.18696 2.169045,0.75462 4.41436,1.26147 2.245314,0.50684 6.344577,1.4927 9.109473,2.19079 l 5.027083,1.26925 0.200212,2.09949 c 0.110116,1.15471 0.294685,2.95781 0.410152,4.00688 l 0.20994,1.90741 -2.620334,1.08746 c -10.906617,4.52636 -25.049881,8.70236 -33.579645,9.91488 -3.362486,0.47798 -4.953962,0.47239 -6.799839,-0.0239 z"
       id="path7" /><path
       style="fill:#000000"
       d="m 118.73177,306.24169 c -0.10914,-0.11385 -0.19844,-0.54016 -0.19844,-0.94735 0,-0.86945 0.62213,-1.28813 1.91407,-1.28813 1.38904,0 2.05114,-1.08648 1.12864,-1.85208 -0.54828,-0.45503 -0.49685,-1.41501 0.10499,-1.95967 0.74755,-0.67652 3.24112,-0.87413 3.81308,-0.30218 0.48902,0.48902 0.57786,1.38162 0.19738,1.98301 -0.14975,0.23671 -0.13787,0.5773 0.0312,0.89314 0.23823,0.44515 0.46013,0.48855 1.73308,0.33894 0.94892,-0.11153 1.58765,-0.0655 1.82498,0.13145 0.45534,0.37789 0.4756,1.41069 0.0344,1.75278 -0.77002,0.59703 -10.14754,1.7047 -10.58333,1.25009 z"
       id="path6" /><path
       style="fill:#000000"
       d="m 98.821875,306.20949 c -2.429149,-0.30214 -6.482329,-0.94939 -7.342188,-1.17247 -0.790366,-0.20505 -0.992187,-0.3833 -0.992187,-0.87628 0,-0.96787 0.64364,-1.30507 2.371996,-1.2427 1.326115,0.0478 1.576299,-0.018 1.713804,-0.45127 0.08855,-0.27901 0.04433,-0.81417 -0.09827,-1.18925 -0.204173,-0.53702 -0.1556,-0.81001 0.228535,-1.28439 0.399108,-0.49288 0.717004,-0.59246 1.748139,-0.54758 1.632144,0.071 2.502464,0.63583 2.502464,1.62399 0,0.41539 -0.184339,0.90824 -0.409643,1.09523 -0.747151,0.62008 -0.360317,1.42142 0.806518,1.67074 1.805337,0.38575 2.248957,0.64273 2.248957,1.30278 0,1.14895 -0.52513,1.35143 -2.778123,1.0712 z"
       id="path5" /><path
       style="fill:#000000"
       d="m 105.0888,306.63758 c -0.4939,-0.19809 -0.59619,-0.41221 -0.52917,-1.10771 l 0.0831,-0.86216 1.65176,-0.0787 c 1.51672,-0.0723 1.66547,-0.13336 1.81948,-0.74698 0.0934,-0.37227 0.0357,-0.8003 -0.13041,-0.96638 -0.4281,-0.4281 -0.36719,-1.40835 0.11765,-1.89319 0.29143,-0.29143 0.92262,-0.41577 2.11057,-0.41577 1.53336,0 1.73774,0.0656 2.1457,0.68818 0.35832,0.54685 0.38639,0.77777 0.13671,1.12448 -1.01498,1.40938 -0.64323,1.979 1.40714,2.15609 1.28926,0.11135 1.56671,0.22751 1.75273,0.73383 0.16541,0.45019 0.0894,0.7331 -0.30193,1.12448 -0.48189,0.48188 -0.88126,0.52162 -5.08701,0.50617 -2.51023,-0.009 -4.83957,-0.12727 -5.1763,-0.26232 z"
       id="path4" /><path
       style="fill:#000000"
       d="m 101.6,318.39027 c -2.875571,-0.20056 -8.925984,-0.92283 -12.170834,-1.4529 -3.697785,-0.60406 -10.537787,-2.04022 -11.045912,-2.31924 -0.212527,-0.11671 0.777986,-1.10333 2.778125,-2.76721 2.722476,-2.26478 3.206963,-2.56988 3.902162,-2.45733 0.436563,0.0707 2.520156,0.42623 4.630209,0.79012 15.12475,2.60837 27.89006,2.53702 43.63765,-0.24391 3.69882,-0.65319 3.83627,-0.65927 4.40842,-0.19502 4.56105,3.70079 5.63698,4.70679 5.25975,4.9179 -1.00754,0.56385 -12.40327,2.60906 -18.11624,3.25134 -3.65744,0.4112 -19.55405,0.73635 -23.28333,0.47625 z"
       id="path3" /><path
       style="fill:#000000"
       d="m 172.16482,328.00455 c -10.15773,-5.18878 -21.40903,-12.61378 -30.34815,-20.02747 -5.47523,-4.5409 -14.6942,-14.09824 -17.08731,-17.71447 -0.67072,-1.01352 -0.70797,-2.13136 -0.071,-2.13136 0.14768,0 2.00493,0.72676 4.12723,1.61503 10.51929,4.40273 22.50897,8.03423 31.46609,9.53064 9.11582,1.52291 14.39111,-0.0967 17.08932,-5.24685 1.26218,-2.40913 1.76444,-4.4109 1.96137,-7.81705 0.12472,-2.15736 0.25231,-2.84427 0.52828,-2.84427 0.47758,0 3.50144,1.52547 6.96521,3.5138 7.16039,4.11031 18.00623,12.33215 18.80188,14.25302 0.28577,0.6899 0.25358,0.8464 -0.29393,1.4292 -1.0957,1.16631 -8.05131,3.07446 -16.92045,4.64181 -2.69213,0.47576 -5.03801,0.99211 -5.21306,1.14745 -0.17569,0.15591 -0.44682,1.64544 -0.60525,3.32514 -0.36369,3.85601 -1.66134,11.76948 -2.4935,15.20605 -0.67991,2.80787 -1.20711,3.57937 -2.44591,3.57937 -0.35471,0 -2.81207,-1.10702 -5.46079,-2.46004 z"
       id="path2" /><path
       style="fill:#000000"
       d="m 42.817798,330.19081 c -0.242866,-0.14172 -0.628797,-0.76318 -0.857624,-1.38102 -0.886649,-2.39395 -2.624668,-12.77985 -2.966333,-17.72595 -0.09801,-1.41883 -0.309453,-2.67858 -0.469875,-2.79944 -0.160422,-0.12085 -2.20507,-0.54045 -4.543663,-0.93245 -7.632277,-1.27931 -16.52068,-3.59731 -17.642284,-4.60091 -0.843185,-0.75447 -0.570133,-1.6538 0.948804,-3.12501 3.00192,-2.90759 9.601454,-7.85102 15.089827,-11.30316 3.396827,-2.13657 8.63649,-4.95412 9.212956,-4.95412 0.325,0 0.432712,0.5257 0.555664,2.71198 0.557838,9.91919 5.877544,14.68659 15.269312,13.684 9.222631,-0.98453 23.17858,-5.02454 35.179281,-10.1838 1.918487,-0.82478 3.515583,-1.4586 3.549101,-1.40849 1.043017,1.55927 1.039214,1.52257 0.264976,2.55634 -3.654021,4.87891 -10.76796,12.20648 -16.510148,17.00594 -7.932181,6.62992 -18.040623,13.45427 -28.262349,19.08032 -6.27449,3.45349 -7.729745,4.01062 -8.817645,3.37577 z"
       id="path1" /></g></svg>
