<?xml version="1.0" encoding="UTF-8" standalone="no"?>
<!-- Created with Inkscape (http://www.inkscape.org/) -->

<svg
   width="311.05658mm"
   height="313.39914mm"
   viewBox="0 0 311.05658 313.39914"
   version="1.1"
   id="svg1"
   xml:space="preserve"
   sodipodi:docname="stamp_goal_cherry_blossom_1.svg"
   inkscape:version="1.4.4 (dcaf3e7, 2026-05-05)"
   xmlns:inkscape="http://www.inkscape.org/namespaces/inkscape"
   xmlns:sodipodi="http://sodipodi.sourceforge.net/DTD/sodipodi-0.dtd"
   xmlns="http://www.w3.org/2000/svg"
   xmlns:svg="http://www.w3.org/2000/svg"><sodipodi:namedview
     id="namedview1"
     pagecolor="#ffffff"
     bordercolor="#000000"
     borderopacity="0.25"
     inkscape:showpageshadow="2"
     inkscape:pageopacity="0.0"
     inkscape:pagecheckerboard="0"
     inkscape:deskcolor="#d1d1d1"
     inkscape:document-units="mm"
     inkscape:zoom="0.021950176"
     inkscape:cx="592.25037"
     inkscape:cy="569.4715"
     inkscape:window-width="944"
     inkscape:window-height="250"
     inkscape:window-x="0"
     inkscape:window-y="33"
     inkscape:window-maximized="0"
     inkscape:current-layer="layer1"><inkscape:page
       x="0"
       y="0"
       width="311.05658"
       height="313.39914"
       id="page2"
       margin="0"
       bleed="0" /></sodipodi:namedview><defs
     id="defs1" /><g
     inkscape:label="Layer 1"
     inkscape:groupmode="layer"
     id="layer1"
     transform="translate(43.827189,-5.8559639)"><path
       style="fill:#000000"
       d="M 104.775,319.07788 C 91.220081,318.30014 78.609529,316.09612 66.278124,312.34955 49.60473,307.28379 32.957996,298.91306 18.512678,288.33091 -1.6345497,273.57174 -17.852915,253.69217 -28.72782,230.42614 c -6.702106,-14.33865 -11.263098,-29.44645 -13.471178,-44.62184 -3.3172,-22.798 -1.576495,-45.31182 5.3215,-68.82687 C -33.6753,106.06124 -28.03488,93.527656 -21.205701,82.153123 -6.7480505,58.07277 10.515089,40.712796 33.072915,27.570039 55.072167,14.752722 79.406088,7.6236992 106.49479,6.0598906 c 19.54902,-1.1285489 42.86857,2.4835416 60.89838,9.4328774 7.67967,2.960023 17.15336,7.492178 23.81967,11.39519 11.74743,6.877925 20.35033,13.823441 31.26763,25.243794 6.15118,6.434609 8.11771,8.720232 12.52044,14.551961 8.64602,11.452296 13.59395,20.270561 20.10876,35.838097 4.7496,11.34946 8.79839,25.71363 10.36747,36.78131 3.19878,22.56309 2.02379,43.66654 -3.57237,64.16146 -3.66481,13.42168 -9.61069,28.15731 -15.9073,39.42292 -3.84918,6.8868 -9.76793,15.22825 -15.76993,22.225 -4.04961,4.72079 -12.51796,13.16557 -16.97337,16.92613 -23.05126,19.45627 -50.9672,31.89347 -80.43334,35.83491 -8.97007,1.19985 -19.92514,1.67028 -28.04583,1.20434 z m 21.43125,-4.87759 c 18.67948,-1.88703 35.29627,-6.53986 51.50376,-14.42147 26.99932,-13.12962 48.63235,-32.73587 63.64823,-57.68507 6.25081,-10.38584 12.85455,-26.60294 16.59206,-40.74583 6.32259,-23.92499 6.51938,-50.51062 0.55039,-74.35582 C 255.68344,115.73763 252.9586,107.97492 248.05522,97.234374 242.26212,84.544949 236.50206,75.329227 227.35338,64.112807 222.4291,58.075566 213.21161,48.726103 207.30104,43.773378 198.17685,36.127809 190.33959,31.062423 179.25521,25.646765 161.48526,16.96464 145.97493,12.670198 125.67708,10.812256 120.1889,10.309901 106.13019,10.379219 100.54167,10.936189 75.827464,13.399284 54.67384,20.045022 35.05729,31.509119 18.705142,41.065469 4.0584845,54.120641 -7.3475547,69.306315 -17.16469,82.376567 -25.678422,98.055061 -30.774296,112.44792 c -4.382533,12.37808 -7.45244,27.6458 -8.405637,41.80416 -0.383099,5.69039 -0.168515,18.10779 0.409215,23.68021 1.66817,16.09012 5.346596,30.53431 11.383048,44.69818 8.536673,20.03037 19.9337816,36.50106 35.3235128,51.04827 16.9166972,15.99059 38.7873862,28.42106 61.7052762,35.07095 10.924835,3.16996 21.186133,4.87534 35.795341,5.94901 3.02267,0.22215 16.94399,-0.11192 20.76979,-0.49841 z"
       id="path62" /><path
       style="fill:#000000"
       d="M 103.71667,309.27011 C 70.698108,307.28462 39.238631,294.42179 14.873446,272.9448 8.4314917,267.26646 1.0680739,259.30722 -4.0897186,252.44719 -24.124249,225.80062 -34.896864,192.63043 -34.046964,160.20521 c 0.319488,-12.18906 1.696849,-21.90295 4.927934,-34.75446 C -23.961555,104.93712 -12.926074,83.677047 1.7969242,65.890557 7.20825,59.353268 16.897095,50.27894 24.73854,44.404017 39.30263,33.492393 58.123645,24.637322 76.067708,20.254234 c 7.282716,-1.778905 16.438084,-3.337505 24.473962,-4.16642 4.44742,-0.45876 21.19655,-0.45776 25.92916,0.0015 18.17369,1.763788 34.02728,6.211611 50.23525,14.093811 2.96361,1.441249 6.89267,3.480511 8.73125,4.531693 22.48795,12.85714 43.22108,35.027328 55.28299,59.114762 9.74144,19.45348 15.016,38.48763 16.45043,59.36412 0.34493,5.02003 0.33956,16.09025 -0.0101,20.76979 -1.82733,24.45747 -10.74508,51.29946 -23.43018,70.5237 -14.18658,21.49972 -33.76944,38.65061 -57.38571,50.25905 -22.39341,11.00735 -47.52612,16.03327 -72.62812,14.52382 z m 21.96041,-3.28486 c 21.17992,-2.25703 39.1203,-7.88993 56.88542,-17.86083 25.05267,-14.06111 45.9345,-36.27429 57.54073,-61.2093 8.14131,-17.4909 12.87207,-35.59456 14.17896,-54.25993 0.44757,-6.39243 0.18487,-19.31881 -0.51381,-25.28227 -1.63702,-13.97251 -4.81832,-26.79786 -9.68033,-39.02605 -2.02883,-5.1026 -6.57605,-14.590122 -9.25717,-19.31458 C 225.71269,72.964976 211.93796,57.316394 196.81045,45.839741 186.24202,37.821879 173.20591,30.976816 159.08776,26.032134 142.81328,20.332229 122.94839,17.664299 105.17187,18.791027 73.337312,20.808796 45.121772,31.586374 21.298957,50.828227 15.617221,55.417404 8.4490209,62.518693 3.5562472,68.405318 -6.5475219,80.561428 -15.394779,95.626858 -21.298054,110.72812 c -4.371439,11.18265 -7.62137,24.59923 -8.972696,37.04167 -1.530493,14.09213 -0.97596,28.70124 1.596848,42.06875 4.711151,24.47768 15.346581,46.95396 31.4243899,66.41042 3.0950762,3.74549 12.0765671,12.79841 16.0642451,16.19201 5.679875,4.8337 13.623534,10.44214 20.343599,14.36314 4.309883,2.51472 13.178394,6.89827 17.859375,8.82758 14.847289,6.11946 32.010521,9.92592 48.947913,10.85569 3.75447,0.20609 15.99046,-0.10561 19.71146,-0.50213 z"
       id="path61" /><path
       style="fill:#000000"
       d="M 84.29363,59.200519 C 83.471466,56.253722 82.226674,51.699581 81.527427,49.080206 l -1.271358,-4.7625 -1.323834,-0.164332 c -1.659879,-0.206047 -2.618679,-0.824785 -3.276644,-2.114502 -1.471527,-2.884431 0.39388,-6.056872 3.560098,-6.054552 3.523299,0.0026 5.451754,3.806186 3.362499,6.632054 -0.632513,0.855519 -0.775277,0.701036 2.485353,2.68937 4.393364,2.679075 15.063039,8.162505 15.290059,7.857969 0.79676,-1.068793 11.36029,-18.544009 11.2493,-18.609669 -1.51339,-0.895287 -2.33318,-1.614917 -2.68551,-2.357401 -1.75936,-3.707576 2.03904,-7.558914 5.69523,-5.774606 3.4057,1.662063 3.2979,5.806478 -0.20462,7.866296 -0.46028,0.270689 -0.40884,0.433014 0.79654,2.513541 1.35904,2.345756 9.64361,15.841581 9.93273,16.180734 0.18315,0.214848 16.53905,-8.403661 18.47578,-9.735555 0.0421,-0.02897 -0.22576,-0.62133 -0.59531,-1.316354 -0.83029,-1.561565 -0.8484,-2.619972 -0.07,-4.091946 1.37967,-2.608994 4.91278,-2.89195 6.8824,-0.55119 1.02084,1.2132 1.1644,2.675826 0.41155,4.192886 -0.77683,1.565399 -2.04094,2.440382 -3.52566,2.440382 h -1.10781 l -1.36254,5.225521 c -2.05619,7.885721 -4.0203,15.239462 -4.08827,15.306685 -0.0333,0.03293 -1.25116,-0.157978 -2.70637,-0.424229 -15.21188,-2.783236 -35.18407,-2.721242 -48.899067,0.151781 -2.944838,0.616886 -2.576635,1.047493 -4.258343,-4.98007 z m 5.743022,2.724847 c 0.208231,-0.193751 -4.070721,-8.894583 -4.625536,-9.405577 -0.347949,-0.320467 -0.398977,-0.517348 1.391586,5.369149 l 1.391751,4.575399 0.815794,-0.171502 c 0.448687,-0.09433 0.910569,-0.259688 1.026405,-0.367469 z M 138.3504,60.391144 c 0.28869,-0.982266 0.96471,-3.33375 1.50227,-5.225521 0.53755,-1.891771 1.04306,-3.618177 1.12335,-3.836459 0.12533,-0.340748 0.0828,-0.345521 -0.30044,-0.03375 -0.24553,0.19972 -0.44641,0.461699 -0.44641,0.582176 0,0.120477 -1.02575,2.382351 -2.27943,5.026386 -2.41735,5.098219 -2.44316,5.25999 -0.84063,5.269053 0.65711,0.0037 0.75984,-0.143754 1.24129,-1.781885 z"
       id="path60" /><path
       style="fill:#000000"
       d="m 86.578677,68.260966 c -0.147962,-0.582926 -0.184804,-1.111915 -0.08187,-1.175532 0.272461,-0.16839 7.627998,-1.1527 10.869859,-1.454593 9.430364,-0.878188 19.947534,-0.976913 29.088194,-0.273053 4.83705,0.372468 12.80892,1.352026 13.09113,1.608595 0.14644,0.133136 0.11231,0.656518 -0.0859,1.318272 -0.32329,1.079057 -0.34541,1.094822 -1.31747,0.939383 -1.94546,-0.311092 -9.25221,-0.935863 -14.58215,-1.246861 -9.30126,-0.542722 -26.390228,0.0046 -33.86667,1.08472 -2.782824,0.402025 -2.811608,0.394624 -3.115073,-0.800931 z"
       id="path59" /><path
       style="fill:#000000"
       d="m 158.68386,75.391341 c -0.25467,-0.151784 -0.46303,-0.556657 -0.46303,-0.899718 0,-0.343062 0.87882,-2.867224 1.95292,-5.609249 1.07411,-2.742026 3.0445,-7.962064 4.37866,-11.600084 3.74648,-10.215999 3.94742,-10.68148 4.8019,-11.123346 1.01555,-0.525165 1.92294,-0.484917 3.14708,0.139595 1.16841,0.596079 1.85903,1.44235 1.85903,2.278029 0,0.630226 -4.36429,9.327862 -8.68312,17.30468 -1.53637,2.837656 -3.33657,6.171406 -4.00045,7.408333 -0.97789,1.821978 -1.33264,2.261183 -1.86852,2.313345 -0.3638,0.03541 -0.86981,-0.0598 -1.12447,-0.211585 z"
       id="path58" /><path
       style="fill:#000000"
       d="M 66.744946,75.604686 C 66.435851,75.210642 60.070415,63.377983 55.70552,55.083581 c -2.755736,-5.236592 -3.086991,-6.006147 -2.934725,-6.817794 0.191532,-1.020953 1.524718,-2.093955 2.957827,-2.380576 0.945163,-0.189033 2.315723,0.409828 2.736253,1.195596 0.268913,0.502468 9.222797,23.363159 10.277465,26.240003 0.490185,1.337089 0.50524,1.543112 0.149837,2.05052 -0.441412,0.630204 -1.726393,0.769852 -2.147231,0.233356 z"
       id="path57" /><path
       style="fill:#000000"
       d="m 157.08345,79.207756 c -0.10204,-0.102045 -0.18553,-0.412098 -0.18553,-0.689007 0,-0.370781 0.15689,-0.481189 0.59531,-0.418924 0.38918,0.05527 0.59531,0.266524 0.59531,0.610091 0,0.524828 -0.65411,0.84882 -1.00509,0.49784 z"
       id="path56" /><path
       style="fill:#000000"
       d="m 69.056249,78.874139 c 0,-0.640295 0.661952,-0.902793 1.061767,-0.421045 0.388617,0.468254 0.118852,0.921904 -0.548215,0.921904 -0.327488,0 -0.513552,-0.181465 -0.513552,-0.500859 z"
       id="path55" /><path
       style="fill:#000000"
       d="m 176.79458,86.730415 c -0.17462,-0.174625 -0.3175,-0.471769 -0.3175,-0.66032 0,-0.33003 8.65982,-12.780545 14.059,-20.213105 3.28848,-4.526951 3.99851,-4.917353 6.19491,-3.406191 1.2881,0.88624 1.79258,2.037477 1.38729,3.165866 -0.13067,0.363802 -1.1607,1.613958 -2.28896,2.778125 -1.12826,1.164166 -3.58722,3.783541 -5.46435,5.820833 -3.75514,4.075535 -6.51459,7.012719 -9.88723,10.524062 -2.21114,2.302077 -2.96458,2.709306 -3.68316,1.99073 z"
       id="path54" /><path
       style="fill:#000000"
       d="m 43.858938,82.748436 c -2.390939,-2.510235 -6.530362,-6.945313 -9.198717,-9.85573 -2.668355,-2.910416 -5.200568,-5.666806 -5.627139,-6.12531 -1.463011,-1.572533 -0.739724,-3.760715 1.569847,-4.749304 1.846053,-0.790186 2.065865,-0.551625 11.2389,12.197531 6.731001,9.355092 8.16442,11.460708 8.16442,11.993103 0,0.560693 -0.694659,1.103772 -1.411847,1.103772 -0.213566,0 -2.344525,-2.053828 -4.735464,-4.564062 z"
       id="path53" /><path
       style="fill:#000000"
       d="m 211.26979,92.428165 c -1.87115,-0.988669 -2.77812,-2.505518 -2.77812,-4.646233 0,-3.411681 2.83844,-5.536106 6.48321,-4.852342 1.26808,0.237892 2.90205,1.750364 3.45491,3.198004 1.24682,3.264753 -1.35805,6.738073 -5.04333,6.72475 -0.7276,-0.0026 -1.6801,-0.193511 -2.11667,-0.424179 z"
       id="path52" /><path
       style="fill:#000000"
       d="M 27.683765,101.59856 C 22.145033,98.287995 9.3142926,90.012542 8.2682273,89.0761 7.8147457,88.670142 7.6732159,88.254741 7.6741788,87.332524 c 0.00105,-1.007893 0.1522061,-1.374988 0.9025279,-2.191896 1.0274532,-1.118633 2.0193153,-1.467422 2.9574353,-1.039986 0.855352,0.389724 6.090267,4.684097 13.072106,10.723477 1.67349,1.44759 4.084506,3.528599 5.357813,4.624465 2.481373,2.135586 2.815074,2.829546 1.727066,3.591616 -0.323421,0.22654 -0.659651,0.41188 -0.747178,0.41188 -0.08753,0 -1.55461,-0.83409 -3.260184,-1.85352 z"
       id="path51" /><path
       style="fill:#000000"
       d="m 183.49177,114.06822 c -0.43478,-0.093 -0.82596,-0.35323 -0.86928,-0.57819 -0.0433,-0.22496 0.64933,-1.27618 1.53923,-2.33605 0.88991,-1.05987 1.57858,-1.96646 1.53039,-2.01465 -0.0482,-0.0482 -0.73848,0.0812 -1.53398,0.28757 -0.7955,0.20635 -1.77761,0.37518 -2.18246,0.37518 -0.67958,0 -0.73609,-0.0794 -0.73609,-1.03476 0,-1.45484 0.85065,-4.01922 1.84969,-5.57609 1.74473,-2.71892 4.90029,-4.93282 7.96899,-5.590938 1.52111,-0.326219 4.37026,-0.173443 4.80114,0.257443 0.26233,0.262322 -0.59092,2.879195 -1.19659,3.669935 -0.19394,0.25319 0.23017,0.28763 1.92882,0.15664 l 2.17742,-0.16791 -0.10882,1.69545 c -0.30205,4.7056 -4.6682,9.47761 -9.77235,10.68075 -1.72688,0.40705 -3.97304,0.48016 -5.39611,0.17562 z"
       id="path50" /><path
       style="fill:#000000"
       d="m 38.563019,116.66836 c -2.45361,-2.52487 -2.572862,-3.04499 -0.965155,-4.20961 0.596951,-0.43243 1.420735,-1.31506 1.830631,-1.9614 1.045365,-1.64837 1.730445,-1.80436 2.75645,-0.62765 1.530809,1.75567 1.953842,2.1828 2.769936,2.79678 1.303454,0.98063 1.107561,1.60179 -1.265796,4.01373 -1.168719,1.18772 -2.301585,2.11343 -2.579687,2.10796 -0.272722,-0.005 -1.418592,-0.95927 -2.546379,-2.11981 z"
       id="path49" /><path
       style="fill:#000000"
       d="m 217.16044,139.50156 c -0.22499,-0.25466 -0.49667,-0.9988 -0.60373,-1.65364 -0.10706,-0.65485 -0.4811,-2.06943 -0.8312,-3.14352 -1.88662,-5.78803 -3.88692,-7.69876 -9.61509,-9.18451 -2.70783,-0.70234 -3.47558,-1.40523 -2.87326,-2.63051 0.30234,-0.61504 0.78177,-0.86482 3.00555,-1.56586 3.34679,-1.05508 5.76021,-2.33817 6.75102,-3.58918 1.24789,-1.57559 2.57734,-4.64046 3.19841,-7.37353 0.31784,-1.39871 0.69437,-2.69193 0.83674,-2.87383 0.35578,-0.4546 1.90988,-0.41682 2.30227,0.056 0.17651,0.21269 0.54514,1.41267 0.81916,2.66663 0.71513,3.27249 2.47669,6.8536 4.05447,8.24242 1.38461,1.21878 4.19544,2.49111 6.64418,3.0075 1.94112,0.40935 2.51354,0.85963 2.51354,1.97722 0,1.0991 -0.24129,1.27242 -2.74185,1.96944 -4.12071,1.14864 -6.15568,2.35859 -7.65655,4.55242 -1.1536,1.68621 -2.18448,4.34692 -2.7421,7.07735 -0.46053,2.25498 -0.90694,2.92864 -1.94075,2.92864 -0.39145,0 -0.89582,-0.20836 -1.12081,-0.46302 z m 1.62335,-8.20208 c 0.55127,-1.58884 2.32692,-4.4489 3.23803,-5.21555 0.46133,-0.38818 1.65389,-1.11627 2.65015,-1.61798 0.99625,-0.5017 1.81137,-0.96419 1.81137,-1.02776 0,-0.0636 -0.94898,-0.60928 -2.10884,-1.21271 -2.57772,-1.34107 -3.70492,-2.546 -5.09829,-5.44986 -0.58747,-1.22433 -1.09755,-2.19291 -1.1335,-2.1524 -0.036,0.0405 -0.45916,1.02615 -0.94045,2.19032 -1.10928,2.68316 -2.7888,4.43569 -5.33004,5.56177 -0.97835,0.43353 -1.78203,0.87603 -1.78594,0.98334 -0.004,0.10731 0.808,0.6056 1.80426,1.1073 0.99625,0.50171 2.17466,1.21789 2.61868,1.59151 1.04676,0.88079 2.2681,2.79986 2.99934,4.71285 0.31985,0.83675 0.66017,1.52136 0.75626,1.52136 0.0961,0 0.32963,-0.44649 0.51897,-0.99219 z"
       id="path48" /><path
       style="fill:#000000"
       d="m -0.48986898,140.53305 c -0.27601802,-0.27602 -0.56846842,-1.08239 -0.66992052,-1.84718 -0.2380666,-1.79463 -1.3469518,-5.09341 -2.3558371,-7.00828 -1.4872246,-2.82277 -4.2217052,-4.6195 -8.9197924,-5.86087 -2.548949,-0.67351 -3.175,-1.09232 -3.175,-2.12401 0,-1.0402 0.61971,-1.43544 3.307292,-2.10937 3.3919652,-0.85056 6.1782883,-2.21385 7.3698667,-3.60595 1.6589524,-1.93811 3.3739816,-6.15632 3.99492494,-9.82574 0.17792361,-1.05142 0.73839933,-1.52457 1.80597378,-1.52457 0.97685548,0 1.38809748,0.70265 2.01310738,3.43959 0.7650964,3.35038 2.5024698,6.96197 3.9947663,8.30418 1.3767348,1.23827 4.2254399,2.58458 6.7505279,3.19032 1.018646,0.24437 2.042374,0.49879 2.274952,0.5654 0.232577,0.0666 0.56635,0.43601 0.741717,0.8209 0.515245,1.13084 -0.04819,2.13197 -1.394398,2.47759 -7.3531419,1.88783 -9.2946373,3.34381 -11.2581191,8.44276 -0.4226778,1.09765 -0.9644047,2.94636 -1.2038374,4.10825 -0.2394328,1.1619 -0.6255785,2.32276 -0.8581016,2.57969 -0.5511452,0.60901 -1.79811314,0.5973 -2.41812188,-0.0227 z M 1.1819168,132.6224 c 0.3756425,-1.51046 1.7728596,-4.02705 2.9849671,-5.37637 0.9470458,-1.05425 1.805745,-1.65665 3.4817882,-2.44256 l 2.2247157,-1.0432 -2.3483834,-1.21578 c -1.2916109,-0.66868 -2.813283,-1.68068 -3.3814936,-2.24889 -0.9164364,-0.91644 -3.0851795,-4.926 -3.0851795,-5.70386 0,-0.81401 -0.54629773,-0.0437 -1.57025248,2.21406 -1.41116912,3.11157 -2.79743102,4.50379 -5.90940742,5.93478 l -2.1776319,1.00135 2.0380471,0.9446 c 1.1209259,0.51953 2.4602012,1.26659 2.9761674,1.66013 1.1740747,0.89551 2.83555257,3.41252 3.59748289,5.4499 0.31952057,0.85439 0.67258494,1.55344 0.7845875,1.55344 0.11200255,0 0.28506911,-0.32742 0.38459241,-0.7276 z"
       id="path47" /><path
       style="fill:#000000"
       d="m 238.69668,147.15085 c -0.31442,-0.31443 -0.57168,-0.80641 -0.57168,-1.09331 0,-0.28689 -0.27966,-1.15399 -0.62147,-1.92688 -0.59604,-1.34774 -0.69887,-1.43563 -2.51201,-2.14699 -1.03979,-0.40795 -1.95114,-0.83979 -2.02521,-0.95966 -0.31993,-0.51764 0.275,-1.03974 1.80235,-1.58171 2.00787,-0.71247 2.41775,-1.16767 3.11326,-3.45748 0.8377,-2.75795 1.63905,-2.6623 2.6056,0.311 0.65483,2.01435 0.97413,2.35838 2.79686,3.01345 2.57632,0.9259 2.53602,1.61945 -0.15941,2.74328 -1.83075,0.76331 -2.42051,1.51682 -2.77847,3.54994 -0.0976,0.55424 -0.38008,1.25798 -0.62778,1.56387 l -0.45036,0.55617 z"
       id="path46" /><path
       style="fill:#000000"
       d="m 25.003123,148.23634 c -0.291041,-0.0734 -0.799991,-0.23639 -1.130998,-0.36212 l -0.601832,-0.22858 0.667978,-1.31819 c 0.367387,-0.72501 0.667977,-1.39051 0.667977,-1.4789 0,-0.0884 -0.625078,-0.1269 -1.389062,-0.0856 -1.359161,0.0735 -1.390984,0.0584 -1.478327,-0.6993 -0.138047,-1.19764 0.457941,-3.78393 1.29985,-5.64072 0.540741,-1.19258 1.322377,-2.23913 2.686441,-3.59693 2.114932,-2.10523 4.016132,-3.17038 6.467766,-3.62359 1.793491,-0.33155 4.562545,-0.0687 4.762372,0.45202 0.07698,0.2006 -0.21738,1.12833 -0.654126,2.06164 l -0.794082,1.69691 2.09021,-0.14327 2.090209,-0.14326 v 0.85951 c 0,1.36498 -0.76681,3.97635 -1.662747,5.66247 -2.095086,3.94288 -6.667589,6.80647 -10.77267,6.74653 -0.945886,-0.0138 -1.957917,-0.0852 -2.248959,-0.15864 z m 3.30581,-6.32488 c 1.205816,-1.67907 0.474954,-1.41101 -1.478225,0.54217 -1.101565,1.10156 -1.695293,1.90849 -1.695293,2.30404 0,0.55374 0.10599,0.50474 1.172702,-0.54216 0.644987,-0.63301 1.545354,-1.66983 2.000816,-2.30405 z"
       id="path45" /><path
       style="fill:#000000"
       d="m 195.81141,151.36141 c -0.41739,-0.41739 -0.93649,-1.77434 -1.48854,-3.89109 -0.043,-0.16471 -0.66278,-0.43973 -1.37738,-0.61116 -1.9689,-0.47233 -2.97466,-1.17802 -2.97466,-2.08718 0,-0.97925 0.57235,-1.46761 2.46529,-2.10356 0.84659,-0.28442 1.63553,-0.62218 1.7532,-0.75058 0.11767,-0.12841 0.47711,-1.03894 0.79876,-2.02341 1.12616,-3.44684 2.30334,-3.49224 3.43057,-0.13229 0.30587,0.91171 0.6436,1.78878 0.75051,1.94905 0.10691,0.16027 0.90876,0.55631 1.78188,0.88009 1.95945,0.72662 2.51355,1.20734 2.51355,2.1807 0,0.88516 -1.12879,1.7166 -2.6755,1.97072 -0.52563,0.0864 -1.06975,0.23372 -1.20914,0.32747 -0.13939,0.0937 -0.52947,1.03844 -0.86683,2.09931 -0.80796,2.54068 -1.80204,3.2916 -2.90171,2.19193 z"
       id="path44" /><path
       style="fill:#000000"
       d="m -15.715075,156.83177 c -0.20979,-0.32742 -0.521318,-1.13109 -0.692284,-1.78594 -0.170966,-0.65484 -0.552375,-1.75586 -0.847575,-2.44671 -0.470181,-1.10035 -0.737749,-1.35282 -2.158085,-2.03631 -0.891747,-0.42913 -2.050469,-0.95189 -2.574938,-1.16168 -0.524469,-0.2098 -1.012716,-0.60758 -1.084992,-0.88397 -0.183338,-0.70108 0.215815,-1.65342 0.775444,-1.85012 0.258158,-0.0907 1.324243,-0.55276 2.369079,-1.0267 2.1486,-0.97461 2.503296,-1.46094 3.529473,-4.83941 0.606867,-1.99798 1.102859,-2.49968 2.19013,-2.21535 0.541762,0.14167 0.542013,0.14219 1.817544,3.72133 0.972563,2.72902 1.059304,2.80986 4.3265318,4.03228 1.6182847,0.60548 2.2450948,1.39956 1.7720181,2.2449 -0.1462619,0.26136 -1.2563626,0.89943 -2.4668904,1.41795 -2.5531825,1.09362 -3.0843595,1.70795 -3.9880855,4.61235 -0.322875,1.03766 -0.760336,2.09501 -0.972137,2.34967 -0.538309,0.64725 -1.538236,0.58095 -1.995233,-0.13229 z m 4.209203,-7.89633 c 0.798437,-0.45061 1.446298,-0.89722 1.439692,-0.99247 -0.0066,-0.0952 -0.631684,-0.47084 -1.389062,-0.83464 -1.213094,-0.5827 -1.491465,-0.87918 -2.337991,-2.49005 l -0.960939,-1.82859 -0.573339,1.29613 c -0.732443,1.65581 -1.422555,2.38512 -3.032084,3.2043 l -1.293968,0.65858 1.558551,0.85206 c 1.363447,0.74539 1.674391,1.073 2.48391,2.617 l 0.92536,1.76495 0.864083,-1.71399 c 0.736966,-1.46184 1.077648,-1.83451 2.315787,-2.53328 z"
       id="path43" /><path
       style="fill:#000000"
       d="m 195.77786,183.10834 c -1.67079,-1.04476 -3.61446,-3.22654 -4.39682,-4.93542 -0.80492,-1.75818 -1.07401,-4.14589 -0.6217,-5.51641 0.4112,-1.24594 1.61345,-2.62879 2.66366,-3.0638 0.57954,-0.24006 0.76092,-0.45552 0.63996,-0.76021 -0.0928,-0.23387 -0.30485,-1.0628 -0.47112,-1.84208 -0.29488,-1.38199 -0.28454,-1.43216 0.42008,-2.03826 0.39733,-0.34176 1.88304,-0.99614 3.3016,-1.45419 2.16888,-0.70031 2.85283,-0.81082 4.29931,-0.69463 1.9248,0.15461 4.23882,0.93328 5.68011,1.91137 0.5267,0.35743 0.99537,0.64987 1.04149,0.64987 0.0461,0 0.14567,-1.04179 0.22123,-2.3151 0.1762,-2.96901 1.06641,-5.22986 2.9661,-7.53294 0.77733,-0.9424 2.12949,-2.19168 3.00479,-2.77619 1.78478,-1.19182 4.88269,-2.1804 5.5378,-1.76716 0.22196,0.14001 0.83742,0.97208 1.36769,1.84906 l 0.96413,1.59451 0.78681,-0.48084 c 1.54342,-0.94323 3.53891,-1.55719 4.03392,-1.24115 0.69852,0.44597 2.28854,2.58676 3.06936,4.13256 1.79702,3.5576 1.94907,6.95133 0.51558,11.50795 -0.12635,0.40161 0.0928,0.37304 1.80373,-0.23519 3.62277,-1.28785 6.90101,-0.86715 10.0645,1.29161 1.58695,1.08292 2.08399,2.10515 1.39422,2.86734 -0.56421,0.62344 -1.86034,1.43853 -2.68342,1.68749 -0.84377,0.25522 -1.60166,-0.92575 -1.18332,-1.84389 0.27434,-0.60212 0.21772,-0.6883 -0.78998,-1.20239 -2.8552,-1.45661 -6.61532,-0.60653 -11.76626,2.6601 -1.46521,0.92921 -1.96435,0.98785 -2.58362,0.30356 -0.42798,-0.4729 -0.38024,-0.58834 1.00428,-2.42876 3.2363,-4.30196 3.86835,-9.12824 1.74776,-13.34573 -1.41522,-2.81464 -1.20316,-2.74084 -3.86828,-1.34628 -1.2751,0.66721 -2.4141,1.21311 -2.53112,1.21311 -0.11701,0 -0.6921,-0.95336 -1.27796,-2.11858 l -1.0652,-2.11858 -0.98827,0.40735 c -1.48641,0.61269 -3.65059,2.17282 -4.42807,3.19214 -0.37974,0.49787 -1.07082,1.70822 -1.53573,2.68967 -0.81043,1.71084 -0.84531,1.92091 -0.84531,5.09175 0,1.81901 0.0595,3.82746 0.1323,4.46321 0.10265,0.89699 0.0316,1.22074 -0.31713,1.44528 -0.37584,0.24198 -0.7537,-0.0198 -2.30786,-1.59879 -3.39419,-3.44846 -6.67558,-4.4628 -10.59043,-3.2737 -1.02621,0.3117 -1.86584,0.68111 -1.86584,0.82092 0,0.1398 0.30883,1.0256 0.68628,1.96846 0.37745,0.94285 0.63928,1.85526 0.58184,2.02758 -0.0574,0.17231 -0.87228,0.50347 -1.81075,0.7359 -1.55812,0.38589 -1.74963,0.51129 -2.20497,1.44374 -0.43976,0.90056 -0.46162,1.18658 -0.18511,2.42215 0.52464,2.34435 1.77546,3.87244 5.18167,6.33033 0.66746,0.48163 0.31883,1.17001 -0.82992,1.63875 -0.70207,0.28648 -0.90977,0.24249 -1.96201,-0.41549 z"
       id="path42" /><path
       style="fill:#000000"
       d="m 237.02463,193.88949 c -0.18833,-0.33625 -0.46428,-0.83738 -0.61321,-1.11363 -0.15684,-0.2909 -0.80977,-0.63812 -1.55155,-0.82509 -0.70441,-0.17755 -1.52683,-0.56889 -1.82759,-0.86965 -0.51771,-0.51771 -0.52355,-0.58239 -0.10965,-1.21408 0.25792,-0.39364 0.99225,-0.86176 1.79084,-1.14162 0.95926,-0.33617 1.42753,-0.66695 1.60725,-1.13535 0.37613,-0.98027 1.018,-1.58799 1.67726,-1.58799 0.42904,0 0.75412,0.3292 1.22102,1.23648 0.51948,1.00945 0.84237,1.30516 1.75856,1.61056 2.08326,0.69442 2.04948,2.04444 -0.0714,2.85442 -0.90677,0.3463 -1.33768,0.71747 -1.79293,1.54439 -0.71351,1.296 -1.57398,1.56032 -2.08858,0.64156 z"
       id="path41" /><path
       style="fill:#000000"
       d="m 1.5734137,209.97666 c -0.2849246,-0.64412 -0.59449671,-1.90258 -0.687938,-2.79658 -0.14191786,-1.3578 -0.23970083,-1.59498 -0.59383133,-1.44042 -1.1399575,0.49753 -4.60400247,1.69367 -4.90489967,1.69367 -0.3979857,0 -1.561069,-2.48195 -2.0150398,-4.29998 -0.1790427,-0.71702 -0.2677882,-2.31268 -0.2065261,-3.71339 0.094499,-2.16065 0.2247203,-2.70311 1.0824749,-4.5093 0.619386,-1.30425 1.5187083,-2.62315 2.4654727,-3.61574 l 1.4904199,-1.56255 -1.8413271,0.15437 c -3.6068765,0.30239 -8.0059512,-1.21569 -10.3682442,-3.57798 -1.185986,-1.18599 -3.191905,-4.57537 -3.191886,-5.3933 10e-6,-0.46352 1.454313,-1.5833 3.187093,-2.45399 0.793709,-0.39882 1.48318,-0.7608 1.532158,-0.8044 0.04898,-0.0436 -0.367741,-0.65955 -0.926042,-1.36879 -1.544654,-1.96225 -2.122452,-3.16618 -1.784255,-3.71776 0.51497,-0.83988 3.487686,-2.91228 4.976496,-3.46932 0.8076673,-0.30219 2.245255,-0.67352 3.1946391,-0.82518 2.8144769,-0.44962 6.46161118,0.35822 8.8987941,1.97107 1.3262416,0.87766 1.4455831,0.8502 0.8089479,-0.18615 -1.6593061,-2.70112 -2.13470076,-7.24506 -1.1063269,-10.57455 0.6620015,-2.14331 2.1846473,-4.51536 3.8257242,-5.9599 l 1.2701852,-1.11806 0.8029422,0.45881 c 0.4416183,0.25234 1.5042791,1.10199 2.3614685,1.8881 0.8571897,0.78612 1.6461637,1.3219 1.7532757,1.19063 0.107113,-0.13127 0.63777,-0.90308 1.179238,-1.71513 0.541468,-0.81204 1.277537,-1.75175 1.635709,-2.08823 l 0.651222,-0.61179 1.493203,0.89761 c 3.929844,2.36235 6.487476,7.40288 6.094091,12.01011 -0.08698,1.01865 -0.326615,2.47716 -0.532531,3.24115 -0.205916,0.76398 -0.330209,1.38906 -0.276205,1.38906 0.054,0 0.643247,-0.52974 1.30943,-1.17719 4.044441,-3.93075 10.420275,-4.79936 15.213236,-2.07257 2.132661,1.21331 2.144444,1.2341 1.598504,2.8209 -0.261202,0.7592 -0.72772,1.8759 -1.036708,2.48157 -0.308988,0.60566 -0.561796,1.15196 -0.561796,1.214 0,0.062 0.514137,0.18989 1.142526,0.28412 0.628389,0.0942 1.870097,0.51542 2.759352,0.93597 l 1.616826,0.76464 -0.375665,1.61033 c -1.169969,5.01521 -4.794064,8.57243 -10.057372,9.87179 l -2.283528,0.56373 0.75466,0.5396 c 4.382308,3.13345 6.709438,8.18723 5.910166,12.83498 -0.160792,0.935 -0.459692,2.10051 -0.664222,2.59002 -0.371016,0.88797 -0.375105,0.88963 -1.770121,0.71897 -0.769036,-0.0941 -1.874497,-0.27441 -2.45658,-0.40074 -1.791119,-0.38872 -1.719792,-0.48866 -1.719792,2.40976 0,2.60371 -0.01246,2.65712 -0.678683,2.91042 -1.78401,0.67828 -5.499987,0.0926 -8.263386,-1.30233 -2.780891,-1.40379 -5.567696,-4.44652 -6.388214,-6.97489 -0.359616,-1.10812 -0.809301,-1.08753 -0.809301,0.0371 0,1.85596 -2.07274,5.80477 -4.000384,7.62119 -1.9930248,1.87803 -4.8876542,3.21883 -7.8523232,3.63722 l -1.1370823,0.16047 z M 15.920311,193.5017 c 0.622861,-0.56368 0.620831,-1.80639 -0.004,-2.43119 -0.379963,-0.37997 -0.521497,-1.0522 -0.640108,-3.04029 -0.08376,-1.40386 -0.0644,-2.60678 0.04302,-2.67317 0.107416,-0.0664 1.109731,0.61714 2.227365,1.51894 1.887895,1.52331 2.03208,1.71088 2.032306,2.64385 5.27e-4,2.17663 2.416144,3.10288 3.989346,1.52968 1.617119,-1.61712 0.561425,-4.10978 -1.672274,-3.9485 -0.908763,0.0656 -1.207692,-0.0993 -2.967494,-1.63747 -1.076312,-0.94073 -1.926159,-1.82949 -1.888548,-1.97501 0.03761,-0.14552 1.29306,-0.35277 2.789888,-0.46055 2.650383,-0.19085 2.741972,-0.17875 3.504674,0.46302 1.036786,0.8724 1.9282,0.83698 2.879587,-0.11441 1.02452,-1.02452 1.05422,-2.3132 0.07586,-3.29156 -0.940233,-0.94023 -2.031191,-0.91993 -3.007079,0.0559 -0.702319,0.70232 -0.943532,0.76579 -3.551523,0.9344 -2.256262,0.14587 -2.798027,0.11203 -2.798027,-0.17474 0,-0.1956 0.843378,-1.27092 1.874173,-2.3896 1.362898,-1.4791 2.052177,-2.03397 2.526681,-2.03397 1.880898,0 3.166189,-1.85355 2.362704,-3.40732 -0.903603,-1.74737 -2.512078,-2.10133 -3.902703,-0.8588 -0.719835,0.64317 -0.85358,0.94932 -0.86407,1.97792 -0.01148,1.12559 -0.147786,1.36645 -1.815339,3.20779 -1.935637,2.13737 -2.551113,2.43854 -2.581521,1.26323 -0.01035,-0.40019 -0.108253,-1.68011 -0.217554,-2.84427 -0.187877,-2.00108 -0.165175,-2.14849 0.4157,-2.69935 1.407431,-1.3347 0.349599,-3.78295 -1.63453,-3.78295 -2.116924,0 -3.045085,2.48359 -1.475953,3.94937 0.730275,0.68218 0.78346,0.87818 0.962149,3.54574 0.138973,2.07467 0.107719,2.82364 -0.117829,2.82364 -0.168835,0 -1.192957,-0.74414 -2.275828,-1.65364 -1.7129632,-1.43872 -1.9700553,-1.76805 -1.9780926,-2.5339 -0.011483,-1.09415 -1.238172,-2.42704 -2.2336696,-2.42704 -0.3727001,0 -1.0607217,0.34229 -1.5289368,0.76064 -0.6889585,0.61558 -0.8459266,0.9502 -0.8231217,1.75472 0.038589,1.36137 1.026029,2.34042 2.3831118,2.36285 0.5515143,0.009 1.2753899,0.20971 1.6086123,0.44575 1.1388424,0.80673 3.2364146,2.91924 3.1068096,3.12895 -0.07117,0.11515 -1.3237256,0.29404 -2.7834644,0.39753 -2.5952595,0.18399 -2.6720529,0.17303 -3.4655835,-0.49468 -0.9259093,-0.7791 -1.5362894,-0.84793 -2.6074496,-0.29401 -1.40830771,0.72827 -1.59948821,2.86348 -0.3447573,3.85045 1.1613711,0.91354 3.0785503,0.51254 3.5372841,-0.73985 0.1506913,-0.4114 5.9200517,-0.54352 5.9200517,-0.13556 0,0.47578 -3.3170925,4.33422 -3.5842042,4.16913 -0.3790328,-0.23425 -2.0412431,0.58598 -2.3476237,1.15845 -0.7425301,1.38743 -0.094333,2.97501 1.4185315,3.4743 1.6979692,0.56038 3.2580065,-0.77713 2.9707905,-2.54703 -0.1311093,-0.80794 0.020184,-1.07892 1.6046389,-2.87413 0.962169,-1.09015 1.834911,-1.98209 1.939429,-1.98209 0.485503,0 1.00014,5.65142 0.540505,5.93549 -0.439535,0.27165 -0.352854,1.49745 0.144774,2.04732 0.545219,0.60246 1.614251,0.62427 2.253264,0.046 z"
       id="path40" /><path
       style="fill:#000000"
       d="m -1.4891578,228.75425 c -0.4552336,-0.20141 -1.0505461,-0.67979 -1.3229167,-1.06306 -0.2723706,-0.38326 -0.8226412,-1.12585 -1.2228235,-1.65019 -0.4001823,-0.52434 -0.7276041,-1.15142 -0.7276041,-1.39352 0,-0.86922 2.0128978,-3.5729 3.0162506,-4.05137 1.68246363,-0.80231 2.72339677,-0.49632 4.4269463,1.30135 1.88326,1.98731 1.9357991,2.50567 0.4803824,4.73953 -1.3652684,2.0955 -3.00847867,2.84365 -4.650235,2.11726 z"
       id="path39" /><path
       style="fill:#000000"
       d="m 15.017774,250.42549 c -3.017071,-0.75643 -4.98975,-2.08777 -6.5454606,-4.41746 -1.0913075,-1.63425 -2.5186801,-5.57048 -2.2622816,-6.23864 0.113308,-0.29528 0.5833198,-0.35692 2.1270815,-0.27897 1.0898992,0.055 1.9816347,0.0825 1.9816347,0.0611 0,-0.0214 -0.178594,-0.46641 -0.3968749,-0.98883 -0.5563646,-1.33157 -0.520494,-1.43682 0.5953129,-1.74669 2.174353,-0.60385 5.484795,-0.0804 7.699859,1.21741 2.319007,1.35876 4.180566,3.76296 4.845072,6.25741 0.414516,1.55603 0.201668,1.76171 -1.829306,1.76763 -0.763985,0.002 -1.389063,0.0583 -1.389063,0.12459 0,0.0663 0.481635,0.8081 1.0703,1.64845 0.994252,1.41934 1.037131,1.55216 0.603487,1.86924 -1.20323,0.87983 -4.441192,1.24088 -6.499761,0.72476 z m 4.414743,-4.07518 c 0.218588,-0.35368 -4.359363,-3.72739 -5.057881,-3.72739 -0.407596,0 2.979212,3.24312 3.749321,3.59025 0.95904,0.43229 1.115983,0.44874 1.30856,0.13714 z"
       id="path38" /><path
       style="fill:#000000"
       d="m 35.018328,269.09598 c -2.915683,-1.47466 -5.16192,-4.72073 -5.544841,-8.01294 -0.214419,-1.8435 0.05527,-2.03354 2.236553,-1.57601 0.80238,0.1683 1.496035,0.26884 1.541456,0.22342 0.04542,-0.0454 -0.214651,-0.84104 -0.577939,-1.76803 -0.463299,-1.1822 -0.577146,-1.76864 -0.381285,-1.96404 0.523777,-0.52256 4.737399,-0.3052 6.336893,0.32688 3.029619,1.19723 5.372934,4.11849 5.73137,7.14493 0.234431,1.9794 -0.09396,2.27998 -2.249709,2.05911 -1.328104,-0.13607 -1.666149,-0.0998 -1.563731,0.16783 0.75936,1.98415 1.063164,3.41928 0.783114,3.69933 -0.169517,0.16952 -1.293085,0.35634 -2.496816,0.41517 -2.03224,0.0993 -2.304804,0.0482 -3.815065,-0.71565 z"
       id="path37" /><path
       style="fill:#000000"
       d="m 183.72373,272.52618 c -0.41624,-0.16818 -0.81911,-0.98684 -1.58109,-3.21292 -0.56239,-1.64298 -1.26354,-3.2659 -1.55811,-3.6065 -0.29456,-0.3406 -1.66666,-1.07216 -3.04911,-1.62569 -2.00805,-0.80402 -2.56227,-1.14324 -2.75585,-1.68678 -0.39379,-1.10575 0.31807,-1.8652 2.40291,-2.5635 3.51176,-1.17624 3.6342,-1.303 4.94711,-5.12196 0.98369,-2.86133 1.30225,-3.35466 2.1662,-3.35466 0.82985,0 1.37023,0.6039 1.72711,1.93013 0.57572,2.13948 1.63442,4.55687 2.24232,5.12003 0.33715,0.31234 1.57789,0.88922 2.75721,1.28197 1.51829,0.50563 2.27175,0.90873 2.58109,1.38084 0.73666,1.12429 0.0798,1.86098 -2.70932,3.03876 -1.30821,0.55242 -2.62825,1.28802 -2.9334,1.63465 -0.30516,0.34664 -0.94861,1.86518 -1.42989,3.37454 -0.48128,1.50936 -1.108,2.95265 -1.39271,3.20731 -0.5767,0.51583 -0.62497,0.52279 -1.41447,0.20378 z m 1.34821,-6.553 c 0.87414,-1.90939 1.40395,-2.47245 3.0533,-3.24497 0.72403,-0.33912 1.31643,-0.71358 1.31643,-0.83213 0,-0.11855 -0.70868,-0.57328 -1.57483,-1.01052 -1.61494,-0.81521 -2.65128,-2.0918 -3.06596,-3.7767 -0.0985,-0.40019 -0.27856,-0.72761 -0.40014,-0.72761 -0.12159,0 -0.53741,0.7049 -0.92405,1.56645 -0.82976,1.84896 -1.41135,2.44841 -3.1003,3.19551 -0.68941,0.30496 -1.25347,0.65503 -1.25347,0.77794 0,0.12291 0.45665,0.40619 1.01477,0.62951 1.55448,0.62198 2.49008,1.55464 3.33693,3.32646 0.42497,0.88915 0.80159,1.61663 0.83693,1.61663 0.0353,0 0.37751,-0.68426 0.76039,-1.52057 z"
       id="path36" /><path
       style="fill:#000000"
       d="m 81.944741,272.31331 c -0.685754,-0.69622 -1.246825,-1.42593 -1.246825,-1.62158 0,-0.37635 1.683767,-2.37893 2.323729,-2.7637 0.445326,-0.26776 2.967938,2.06174 2.967938,2.74072 0,0.36943 -2.326604,2.91042 -2.664868,2.91042 -0.07323,0 -0.694221,-0.56964 -1.379974,-1.26586 z"
       id="path35" /><path
       style="fill:#000000"
       d="m 63.936691,284.9433 c -1.81655,-0.30481 -3.991151,-1.44147 -4.942727,-2.58355 -0.446968,-0.53646 -1.300924,-1.95486 -1.89768,-3.15202 -0.903896,-1.8133 -1.089344,-2.45371 -1.110961,-3.83646 l -0.02595,-1.65981 1.455208,-0.29872 c 0.800365,-0.1643 1.723099,-0.24069 2.050521,-0.16976 0.735674,0.15938 0.735923,0.0665 0.0053,-1.97092 -0.766654,-2.1379 -0.629212,-2.26947 2.5093,-2.40216 2.044441,-0.0864 2.700364,-0.008 3.992488,0.47912 2.82624,1.06486 5.657186,3.9054 6.653497,6.67605 0.483859,1.34556 0.669676,4.51569 0.287111,4.89826 -0.169813,0.16981 -2.624044,-0.4053 -3.704034,-0.86799 -0.570894,-0.24458 -0.592365,-0.33645 0.479906,2.05364 l 0.681182,1.51836 -0.995919,0.50808 c -0.764154,0.38984 -4.040377,1.22486 -4.136579,1.0543 -0.0097,-0.0171 -0.594947,-0.12801 -1.300652,-0.24642 z"
       id="path34" /><path
       style="fill:#000000"
       d="m 160.24701,286.68005 c -0.21608,-0.21608 -0.65702,-1.19834 -0.97988,-2.18281 -0.32286,-0.98447 -0.99866,-2.69973 -1.50178,-3.81168 l -0.91475,-2.02173 -2.55603,-1.19087 c -1.40582,-0.65498 -2.85368,-1.27734 -3.21749,-1.383 -1.00056,-0.29063 -1.5875,-0.92545 -1.5875,-1.71704 0,-0.93637 0.56717,-1.40825 2.64584,-2.20129 0.94588,-0.36086 2.38716,-0.96654 3.20283,-1.34594 1.38235,-0.64298 1.53753,-0.81095 2.28549,-2.4739 0.44135,-0.98124 1.13008,-2.67705 1.53051,-3.76846 0.86526,-2.35835 1.29046,-2.91041 2.24158,-2.91041 0.96185,0 1.41046,0.589 2.11599,2.77812 0.3283,1.01865 0.98224,2.69678 1.4532,3.72918 0.95371,2.09065 1.10368,2.19776 5.44866,3.89103 2.69626,1.05076 3.34774,1.82949 2.4861,2.97168 -0.32821,0.43507 -1.42015,1.06291 -2.92482,1.68172 -4.36688,1.79589 -4.55513,2.01875 -6.49326,7.68706 -0.42004,1.22847 -0.91237,2.32797 -1.09406,2.44334 -0.54017,0.343 -1.719,0.24663 -2.14063,-0.175 z m 2.20452,-6.91656 c 1.16622,-2.65372 1.6928,-3.23078 3.93951,-4.31721 1.03618,-0.50105 1.88396,-0.98096 1.88396,-1.06646 0,-0.0855 -0.88204,-0.59189 -1.96009,-1.12533 -2.21894,-1.09796 -2.89058,-1.85584 -3.99144,-4.50397 -0.40834,-0.98226 -0.8231,-1.78593 -0.92168,-1.78593 -0.0986,0 -0.73546,1.12044 -1.41528,2.48987 l -1.23604,2.48988 -2.248,1.14814 c -1.23639,0.63148 -2.24853,1.21134 -2.24919,1.28857 -6.6e-4,0.0772 0.88951,0.58115 1.97815,1.11982 2.17522,1.07633 2.90778,1.88276 4.22087,4.64653 0.42693,0.89862 0.8519,1.63385 0.94437,1.63385 0.0925,0 0.56715,-0.90799 1.05486,-2.01776 z"
       id="path33" /><path
       style="fill:#000000"
       d="m 100.06542,295.22209 c -0.50356,-0.50356 -0.372004,-1.61926 0.33983,-2.88204 1.32268,-2.34641 2.08834,-3.93257 1.96017,-4.06074 -0.0722,-0.0722 -0.89907,0.10434 -1.83743,0.39237 -4.381357,1.34484 -11.710244,2.13947 -16.841443,1.826 -2.774985,-0.16952 -3.517798,-0.4504 -3.517798,-1.33018 0,-0.76636 0.995006,-1.5012 2.883771,-2.12974 7.879804,-2.62223 12.24123,-7.0991 14.142568,-14.51692 0.749341,-2.92346 1.229912,-6.96116 1.229912,-10.33358 v -2.37533 l -1.256771,-1.21112 c -0.691224,-0.66612 -2.051272,-1.9184 -3.022328,-2.78285 l -1.765557,-1.57173 -0.477851,0.80894 c -0.936922,1.58608 -3.218351,2.71911 -5.251972,2.6083 -0.826636,-0.045 -1.314294,0.12734 -2.22359,0.78603 -1.52515,1.10482 -2.917914,1.45678 -5.184223,1.31012 -2.920152,-0.18898 -5.691995,-1.80497 -6.949146,-4.05138 -0.260089,-0.46475 -0.285285,-0.46473 -0.750538,5.2e-4 -0.605869,0.60587 -2.011052,1.20166 -2.834145,1.20166 -0.345922,0 -0.834485,0.22711 -1.085697,0.5047 -1.540598,1.70234 -6.020994,2.25415 -8.966405,1.10431 -0.844761,-0.32978 -2.025,-1.06485 -2.622752,-1.63348 -0.597753,-0.56862 -1.335335,-1.03648 -1.639071,-1.03968 -1.037135,-0.0109 -2.66768,-0.97366 -3.910179,-2.30876 -1.370428,-1.47256 -2.168117,-3.56023 -2.023637,-5.29617 0.07717,-0.92718 0.04163,-0.98004 -0.575383,-0.85592 -0.361697,0.0728 -1.622235,0.13229 -2.801194,0.13229 -1.92757,0 -2.32651,-0.0933 -3.959159,-0.92604 -1.154273,-0.58874 -2.036386,-1.25419 -2.421755,-1.82693 -0.414168,-0.61555 -1.080755,-1.09378 -2.104552,-1.50988 -2.743165,-1.11491 -4.884785,-3.86779 -5.277264,-6.7835 -0.09836,-0.7307 -0.306153,-1.25678 -0.496412,-1.25678 -0.696685,0 -4.03206,-1.88441 -5.248425,-2.96525 -0.703017,-0.62468 -1.781384,-1.96483 -2.39637,-2.9781 l -1.118158,-1.84231 -1.227507,0.0755 -1.227508,0.0755 -0.672684,-1.32748 c -0.369977,-0.73012 -0.983419,-1.54239 -1.363205,-1.80505 -1.357958,-0.93919 -2.754897,-2.26505 -2.754897,-2.61472 0,-0.52035 1.083777,-1.44943 1.878418,-1.6103 0.670651,-0.13577 0.679184,-0.16334 0.342343,-1.10631 -0.189998,-0.5319 -0.350677,-1.45229 -0.357064,-2.04533 -0.0064,-0.59304 -0.36207,-2.25991 -0.790406,-3.70417 -0.937104,-3.15971 -1.67602,-6.73975 -1.556898,-7.54316 0.11087,-0.74776 0.883332,-1.27115 1.284292,-0.87019 0.157346,0.15734 0.519727,1.40482 0.805291,2.77217 0.823117,3.94129 1.868463,7.36 2.527445,8.26577 0.334084,0.4592 0.879706,1.27596 1.212492,1.81501 0.482593,0.78171 0.790107,0.99593 1.519242,1.05833 1.360256,0.11642 1.987338,1.33611 2.022807,3.93442 0.02357,1.7265 0.147224,2.229 0.892684,3.62762 0.475929,0.89294 1.56189,2.28793 2.413246,3.09999 1.650022,1.57385 4.49434,3.1161 4.686078,2.54088 0.05921,-0.17764 0.49015,-0.82407 0.957635,-1.43651 l 0.849974,-1.11352 -0.742287,-1.02367 c -0.918613,-1.26684 -1.273155,-2.4971 -1.275066,-4.42448 -0.003,-3.03867 1.792779,-5.99794 4.422004,-7.28697 0.939677,-0.46069 1.839678,-1.15813 2.333485,-1.80827 0.516938,-0.6806 1.451188,-1.38856 2.617584,-1.98358 1.549515,-0.79045 2.077992,-0.92535 3.627592,-0.92604 0.997615,-4.4e-4 1.813999,-0.0123 1.814186,-0.0263 1.87e-4,-0.014 -0.20318,-0.43074 -0.451928,-0.92605 -0.248747,-0.4953 -0.501072,-1.64986 -0.560721,-2.56568 -0.133799,-2.05428 0.408586,-3.61908 1.683906,-4.85814 0.71798,-0.69757 0.911545,-1.09584 0.913766,-1.88013 0.0078,-2.75935 3.140974,-6.12078 6.617401,-7.09952 0.654843,-0.18436 1.232414,-0.36545 1.28349,-0.40241 0.05108,-0.037 -0.203215,-0.46197 -0.565091,-0.94447 -1.332843,-1.77712 -1.859755,-3.18077 -1.985743,-5.28987 -0.133413,-2.2334 0.316651,-3.59561 1.666354,-5.04355 0.666456,-0.71496 0.669409,-0.73671 0.215548,-1.5875 -0.418849,-0.78516 -0.452863,-1.79054 -0.378834,-11.19771 l 0.08133,-10.3351 -2.200322,-0.33683 c -5.79961,-0.88782 -11.415837,-3.69852 -12.821422,-6.41662 -0.857457,-1.65814 -0.03742,-2.76324 1.694346,-2.28333 1.425767,0.3951 5.468566,0.0862 7.278258,-0.55605 3.638029,-1.2912 7.231994,-3.51726 10.047781,-6.22347 1.479523,-1.42195 1.521975,-1.50001 1.124479,-2.06751 -0.598233,-0.8541 -0.521877,-1.95332 0.169314,-2.43745 0.433909,-0.30393 0.939864,-0.36592 1.984375,-0.24316 l 1.40197,0.16477 v -4.25777 -4.25777 l -0.992187,-0.14998 c -4.96698,-0.7508 -8.030438,-1.85822 -10.725359,-3.87715 -1.996405,-1.49562 -3.099121,-2.90585 -3.099121,-3.96337 0,-1.14658 0.556388,-1.40451 2.177198,-1.0093 4.208593,1.02621 10.399796,-0.33164 16.13256,-3.53818 2.922175,-1.63448 6.557435,-4.79339 6.073321,-5.27751 -0.401533,-0.40153 -0.393699,-2.12329 0.0115,-2.52849 0.179749,-0.17975 1.040694,-0.3175 1.984375,-0.3175 h 1.666875 v -4.08905 -4.08906 l -0.992187,-0.15229 c -4.985929,-0.76528 -8.987861,-2.474786 -11.153195,-4.764308 -1.392108,-1.471949 -1.871418,-2.579497 -1.421322,-3.284266 0.289594,-0.45345 0.663245,-0.467138 4.173996,-0.1529 3.732141,0.334054 8.586299,-0.933515 12.423132,-3.244061 2.110647,-1.271035 4.889779,-3.963903 6.25769,-6.063453 1.029524,-1.580173 1.073013,-1.721079 0.668995,-2.167514 -0.576389,-0.636903 -0.546556,-1.691057 0.06938,-2.451711 0.49584,-0.612337 0.494348,-0.62781 -0.132368,-1.37262 -0.850025,-1.010197 -1.03046,-1.873863 -0.653995,-3.130391 0.741674,-2.475489 4.380871,-2.853535 5.54557,-0.576084 0.542922,1.061628 0.232076,2.768916 -0.603955,3.317154 -0.211562,0.138734 -0.210939,0.319499 0.0023,0.661458 0.276812,0.443949 1.529055,0.474379 22.148728,0.538225 l 21.85533,0.06767 0.30202,-0.564341 c 0.18676,-0.348961 0.20574,-0.627233 0.0497,-0.729131 -0.13876,-0.09063 -0.38918,-0.424852 -0.55648,-0.742708 -0.80578,-1.530857 0.0802,-3.564546 1.77397,-4.072015 2.95471,-0.885251 5.22154,2.966606 3.03353,5.154624 l -0.69629,0.696289 0.57042,0.607188 c 0.74269,0.790559 0.75519,2.10545 0.0246,2.591332 -0.53828,0.357999 -0.53107,0.385773 0.52265,2.015482 2.63825,4.080389 5.95653,6.563434 11.09021,8.298743 3.8208,1.291524 6.47539,1.485631 9.90679,0.724397 1.53436,-0.340389 2.0449,-0.0322 2.0449,1.23441 0,1.837519 -3.77741,4.901627 -7.65166,6.206771 -0.92589,0.31191 -2.61913,0.70349 -3.76276,0.87017 l -2.07933,0.30307 v 4.04717 4.04717 h 1.56861 c 1.07322,0 1.6999,0.1313 1.98437,0.41577 0.49733,0.49733 0.54873,1.98721 0.085,2.46505 -0.26682,0.27497 0.0205,0.66887 1.48677,2.03859 3.02627,2.82692 7.744,5.30542 12.6023,6.62071 1.61619,0.43755 4.76148,0.54305 8.96414,0.30067 2.21156,-0.12754 2.16086,1.514 -0.11352,3.67602 -2.42133,2.30171 -7.47951,4.46201 -11.69489,4.99478 l -1.38907,0.17556 -0.0421,1.49653 c -0.0232,0.82309 -0.0745,2.2109 -0.11404,3.08402 -0.0396,0.87313 -0.0136,2.12329 0.0576,2.77813 l 0.12953,1.19062 1.32333,-0.0927 c 2.04562,-0.14338 2.97573,1.06582 1.94822,2.5328 -0.37484,0.53516 -0.34395,0.63931 0.46302,1.56127 1.28478,1.46785 4.40223,3.86659 6.59973,5.0782 4.04031,2.22765 7.61145,2.94295 11.6535,2.3342 1.47844,-0.22266 1.52108,-0.2115 1.83652,0.48082 0.27286,0.59886 0.24484,0.8538 -0.18071,1.64399 -1.52112,2.82456 -6.91569,5.59007 -12.64038,6.48007 l -2.03838,0.3169 v 4.86287 4.86287 l 0.78168,0.97668 c 2.49654,3.11928 2.64939,7.32323 0.3747,10.3055 -0.66469,0.87145 -0.66885,0.90314 -0.19308,1.46945 0.26745,0.31834 0.5034,0.61451 0.52435,0.65816 0.0209,0.0437 0.79612,-0.1772 1.72261,-0.49078 4.00909,-1.35691 8.63196,0.17218 10.07134,3.33126 0.15328,0.33641 0.68485,0.66871 1.35751,0.84862 1.60729,0.42989 3.22592,1.71709 4.11356,3.2713 0.94422,1.65327 1.20428,3.18072 0.82767,4.86126 -0.15606,0.69634 -0.22081,1.329 -0.1439,1.40591 0.3424,0.3424 4.054,-1.47253 5.2068,-2.54607 1.1357,-1.05762 1.21957,-1.22286 1.09438,-2.15622 -0.11722,-0.87397 -0.042,-1.07212 0.55522,-1.46347 0.91459,-0.59925 1.89814,-0.33439 2.40614,0.64796 l 0.39818,0.77001 1.06343,-0.41772 c 0.87219,-0.34261 1.11923,-0.60398 1.37373,-1.45344 0.30583,-1.02078 1.05649,-1.79319 1.74269,-1.79319 0.19302,0 0.58063,0.50602 0.86136,1.12448 0.54836,1.20806 0.64434,3.11084 0.27026,5.35782 -0.12113,0.7276 -0.18357,1.36251 -0.13876,1.41091 0.0791,0.0855 0.66334,-0.39135 2.88984,-2.3586 0.58992,-0.52123 1.61521,-1.31486 2.27842,-1.76361 1.66923,-1.12947 1.92907,-1.51505 1.87917,-2.78854 -0.0258,-0.65747 0.29185,-2.0774 0.78015,-3.48777 1.10171,-3.18207 0.97067,-4.38009 -0.84809,-7.75388 -1.3768,-2.55396 -1.56107,-3.59475 -0.72869,-4.1157 0.7324,-0.45838 1.7852,0.48279 2.63395,2.35469 0.42142,0.92941 0.76621,1.87104 0.76621,2.09252 0,0.22148 0.11906,0.40268 0.26459,0.40268 0.29107,0 0.42172,-2.07189 0.30298,-4.80489 -0.10833,-2.49374 0.5582,-3.66177 2.0896,-3.66177 1.39816,0 2.12409,2.6471 1.09672,3.99921 -0.42447,0.55864 -1.11751,2.92226 -1.10249,3.76003 0.003,0.1708 0.71443,-0.44805 1.5808,-1.37522 1.35019,-1.44494 1.6775,-1.66622 2.29112,-1.54892 0.39374,0.0753 0.93617,4.2e-4 1.2054,-0.16632 0.38624,-0.2392 0.54277,-0.21943 0.74197,0.0937 0.56148,0.88267 0.19877,1.48271 -2.48605,4.1128 -2.50906,2.45791 -2.87521,2.94749 -4.23334,5.66049 -1.36102,2.71878 -1.72317,3.72046 -1.34511,3.72046 0.29028,0 1.6133,-0.93228 2.67241,-1.88315 1.50214,-1.34862 2.59678,-1.86588 3.74552,-1.7699 0.78428,0.0655 1.01991,0.21981 1.22297,0.80076 0.3414,0.97676 -0.32708,1.68665 -2.07439,2.20288 -0.73837,0.21815 -1.64015,0.62946 -2.00395,0.91402 l -0.66146,0.51737 2.24896,0.0111 c 4.20288,0.0208 6.87917,0.67223 6.87917,1.67447 0,0.14789 -0.18429,0.47252 -0.40954,0.72142 -0.35935,0.39708 -0.827,0.4356 -3.81656,0.31435 -2.90545,-0.11784 -3.78,-0.052 -5.94047,0.44724 -1.39339,0.32198 -2.53343,0.64002 -2.53343,0.70675 0,0.0667 0.42482,0.49433 0.94405,0.95022 1.08035,0.94857 2.40658,3.40042 2.64477,4.88953 0.17512,1.09477 0.61324,1.74254 1.80467,2.66822 1.10627,0.85951 0.25246,0.76056 -1.732,-0.20072 -0.90123,-0.43656 -1.83717,-0.79375 -2.07987,-0.79375 -0.76465,0 -1.3164,-0.91875 -1.72308,-2.86918 -0.31326,-1.50238 -0.86634,-3.1292 -1.34746,-3.96335 -0.0968,-0.16777 -1.84433,0.83195 -3.4854,1.99388 -1.32358,0.93715 -1.60557,1.25436 -1.36875,1.53971 0.65287,0.78667 0.17559,1.55258 -1.52932,2.45418 -1.94876,1.03055 -2.10856,1.28589 -3.75769,6.00414 -1.03519,2.96172 -1.28694,3.45159 -1.81209,3.52604 -0.7567,0.10727 -1.3745,-0.37741 -1.3745,-1.07833 0,-0.29161 0.34724,-1.73555 0.77164,-3.20875 0.4244,-1.4732 0.83534,-3.13555 0.9132,-3.69412 0.12348,-0.88584 0.0841,-0.98938 -0.30862,-0.81058 -0.2476,0.11274 -0.92643,0.21256 -1.50851,0.22182 -1.00932,0.0161 -1.06224,-0.0239 -1.14264,-0.86179 -0.0469,-0.48836 0.10004,-1.15997 0.33073,-1.51204 0.59982,-0.91545 0.52178,-1.13721 -0.46538,-1.3224 -0.64326,-0.12068 -1.44903,0.0541 -2.99136,0.6489 -3.0709,1.18426 -3.11728,1.23096 -2.62073,2.63833 0.60758,1.72206 0.51556,4.36497 -0.2137,6.13768 -0.96236,2.33933 -2.70953,4.61709 -4.37812,5.70768 -0.81586,0.53325 -1.52094,0.99768 -1.56684,1.03207 -0.0459,0.0344 0.49917,0.6075 1.21126,1.27358 2.56356,2.39791 3.58039,5.64304 2.58493,8.24962 -0.25382,0.66462 -0.41911,1.25018 -0.36732,1.30125 0.0518,0.0511 0.42159,0.03 0.82177,-0.0469 0.66152,-0.12708 0.72761,-0.24487 0.72761,-1.29677 0,-1.38379 1.19553,-4.51811 1.8884,-4.95082 0.31045,-0.19388 0.49285,-0.6147 0.49285,-1.13711 0,-0.71718 0.11181,-0.85169 0.82682,-0.99469 3.62736,-0.72547 7.54516,0.65356 9.75528,3.43377 0.50865,0.63985 1.00507,1.16337 1.10316,1.16337 0.0981,0 0.0545,-0.44649 -0.0969,-0.99219 -0.38539,-1.38927 -0.10121,-4.40935 0.58741,-6.24249 0.77119,-2.05295 2.45598,-4.07846 4.05615,-4.87646 l 1.28151,-0.63908 0.78976,0.75271 c 0.43437,0.414 0.97919,1.07139 1.21072,1.46088 l 0.42097,0.70816 1.46246,-1.30348 c 0.80436,-0.71691 1.66755,-1.30347 1.9182,-1.30347 0.56456,0 2.16761,1.83937 2.87302,3.29654 0.74918,1.54761 1.10329,3.72801 0.89889,5.53474 l -0.17599,1.5555 1.43028,-1.16497 c 0.78665,-0.64074 2.08368,-1.45226 2.88229,-1.80339 1.68414,-0.74047 4.52234,-1.0104 5.88728,-0.55993 1.34831,0.44498 3.10537,2.04354 3.10537,2.82523 0,0.50055 -0.98725,2.92143 -1.78363,4.37374 -0.0503,0.0918 0.36018,0.24876 0.91222,0.34889 1.46112,0.26504 3.76009,1.36874 3.96538,1.90372 0.27205,0.70894 -0.63216,3.76615 -1.58169,5.34783 -0.96108,1.60093 -3.1997,3.37301 -4.59067,3.63396 -0.79499,0.14914 -1.28138,0.63731 -0.63499,0.63731 0.9721,0 3.13617,3.15059 2.76608,4.02703 -0.24728,0.58561 -2.56442,2.309 -4.06661,3.02458 -2.28228,1.08718 -4.40812,1.3471 -6.86412,0.83926 -1.12951,-0.23356 -2.78856,-0.7215 -3.68678,-1.0843 -0.89821,-0.3628 -1.63311,-0.59653 -1.63311,-0.5194 0,0.0771 0.52576,0.70233 1.16836,1.38932 2.30597,2.46527 3.41606,5.90179 2.82481,8.74487 -0.377,1.81286 -1.71221,4.69887 -2.2736,4.91429 -0.22822,0.0876 -1.16959,-0.21227 -2.09192,-0.66633 -0.92233,-0.45407 -1.75165,-0.82557 -1.84293,-0.82557 -0.0913,0 -0.16597,0.28706 -0.16597,0.63791 0,0.35086 -0.25465,1.30336 -0.56589,2.11667 -0.51286,1.34019 -0.64014,1.47875 -1.35836,1.47875 -3.44366,0 -6.80516,-3.67003 -7.28227,-7.95065 l -0.19021,-1.70664 -0.98551,1.75442 c -1.71861,3.05955 -4.26958,4.72056 -7.25706,4.72529 -2.4405,0.004 -2.46904,-0.0212 -2.46904,-2.1707 0,-1.44152 -0.0788,-1.82185 -0.35539,-1.71571 -0.19547,0.075 -1.0181,0.21918 -1.82807,0.32038 -1.32799,0.16592 -1.50201,0.12917 -1.77136,-0.37412 -0.16428,-0.30696 -0.3694,-1.31533 -0.45583,-2.24082 -0.24589,-2.63319 0.56351,-5.36262 2.14905,-7.24692 0.37076,-0.44062 0.6741,-0.91623 0.6741,-1.05691 0,-0.14069 -0.69322,-0.31865 -1.5405,-0.39548 -1.87396,-0.16992 -3.5047,-0.9505 -5.03244,-2.40887 l -1.14899,-1.09681 -0.43851,0.66094 c -1.30527,1.96735 -3.31275,2.99081 -5.92748,3.02196 l -1.78479,0.0213 0.19287,0.92604 c 1.02232,4.90845 -2.40516,10.22575 -7.07432,10.97492 -0.76237,0.12232 -1.47613,0.46205 -1.98438,0.94451 -2.03037,1.92732 -6.08967,2.65293 -8.90258,1.59134 -0.82183,-0.31016 -1.95023,-0.89457 -2.50754,-1.29869 l -1.01329,-0.73476 -0.53819,0.79862 c -0.78686,1.16762 -2.64752,2.49333 -3.77973,2.69303 -0.62581,0.11039 -1.37219,0.54444 -2.04408,1.18875 -2.04,1.95623 -5.8986,2.95218 -7.74281,1.99851 -0.48983,-0.2533 -1.46843,-0.42915 -2.38825,-0.42915 -2.15159,0 -4.55296,-1.19457 -5.70869,-2.83981 l -0.829,-1.18014 -3.14797,3.24988 -3.14796,3.24988 0.17201,3.85333 c 0.2886,6.46472 1.6716,11.69197 3.9946,15.09811 1.98647,2.91272 4.4285,4.63452 9.76578,6.88555 4.20216,1.77229 5.02589,2.52206 3.89511,3.54541 -0.38507,0.34848 -1.25452,0.5101 -3.61596,0.67217 -4.5651,0.3133 -10.22602,-0.21299 -14.23222,-1.32317 -1.01675,-0.28175 -1.90046,-0.46046 -1.9638,-0.39713 -0.2274,0.22741 0.48545,1.81304 1.3663,3.03912 1.11324,1.54955 1.33639,2.22243 0.96633,2.91389 -0.5547,1.03647 -2.5118,0.49534 -8.32816,-2.30266 -2.4604,-1.1836 -4.0118,-1.77636 -4.64915,-1.77636 -0.66865,0 -1.66751,0.40941 -3.31885,1.36033 -4.66766,2.68786 -10.35964,4.28282 -11.43752,3.20494 z M 82.031485,256.6404 c 0.58173,-0.29678 1.343589,-1.003 1.71257,-1.5875 0.365566,-0.57909 0.719037,-1.0529 0.785491,-1.0529 0.06645,0 0.597467,0.24844 1.180028,0.55209 0.922249,0.4807 1.182125,0.51152 2.009876,0.23834 0.580889,-0.19171 1.238487,-0.71107 1.690612,-1.33521 l 0.73994,-1.02146 -3.866147,-3.87154 -3.866147,-3.87154 -3.307292,-1.46338 c -4.152519,-1.83738 -5.67371,-2.60073 -7.015969,-3.5207 -0.584564,-0.40065 -1.894251,-1.17676 -2.910416,-1.72469 -2.627188,-1.41662 -2.773615,-1.52246 -2.773615,-2.00482 0,-0.77498 0.715917,-1.10189 2.118034,-0.96717 1.282953,0.12328 1.321549,0.10666 1.321549,-0.56905 0,-0.73158 0.651188,-1.87212 1.068879,-1.87212 0.134818,0 0.532432,0.56555 0.883586,1.25677 0.592907,1.1671 0.777287,1.30799 2.584144,1.97456 2.725415,1.00545 7.369641,2.00044 7.369641,1.57889 0,-0.40339 -2.368215,-8.47603 -2.885904,-9.8373 -0.740736,-1.94778 -0.731008,-2.47049 0.04163,-2.23705 0.327421,0.0989 0.708421,0.28554 0.846666,0.4147 0.484137,0.45234 0.64635,0.22465 0.726337,-1.01954 0.05986,-0.9311 0.196798,-1.27644 0.531323,-1.33994 0.346109,-0.0657 0.552576,0.2714 0.889822,1.45282 0.542107,1.89908 1.439318,4.05192 1.688667,4.05192 0.420038,0 1.518077,-1.4509 2.262497,-2.98957 0.882586,-1.82425 1.69994,-2.26961 2.256561,-1.22955 0.479772,0.89646 0.09488,2.53057 -1.205616,5.11858 -0.65078,1.29506 -1.18367,2.54522 -1.184201,2.77812 -5.3e-4,0.23291 0.604949,1.64379 1.345509,3.13531 1.60043,3.22331 3.483309,5.29325 6.066697,6.66939 1.473255,0.78479 9.779793,4.77397 9.940673,4.77397 0.0962,0 0.62657,-3.24213 1.04483,-6.38681 0.49885,-3.7506 0.7909,-9.16836 0.54668,-10.1414 -0.10222,-0.40729 -1.34869,-1.94597 -2.80153,-3.45828 -3.651273,-3.80076 -4.910443,-6.47995 -3.14178,-6.6849 0.556687,-0.0645 0.815697,0.11131 1.2867,0.87341 0.32435,0.5248 0.86725,1.13602 1.20645,1.35827 0.58409,0.38272 0.65733,0.35866 1.38394,-0.45456 1.05291,-1.1784 1.64363,-0.93145 1.64363,0.68714 0,1.78542 0.78969,3.1278 2.25822,3.8387 2.20339,1.06664 4.58298,0.29236 5.674,-1.84622 0.76055,-1.49078 1.15004,-1.49261 2.07186,-0.01 0.98872,1.59053 2.10763,2.21215 4.01884,2.2327 1.19587,0.0128 1.66555,-0.12638 2.63547,-0.78126 2.3541,-1.58948 3.46158,-4.28978 2.67726,-6.52779 -0.28184,-0.80421 -0.2518,-0.92204 0.36013,-1.4127 0.60944,-0.48866 0.64389,-0.62124 0.39536,-1.52136 -0.14974,-0.54232 -0.31258,-0.98604 -0.36187,-0.98604 -0.0493,0 -0.43064,0.17786 -0.84746,0.39525 -1.10625,0.57695 -2.79728,0.50718 -3.63258,-0.14987 -1.54142,-1.21248 -0.48199,-2.36205 2.17683,-2.36205 1.97336,0 2.52238,-0.41449 2.11123,-1.5939 -0.18095,-0.51908 -0.1112,-1.00361 0.27378,-1.90172 0.96665,-2.25511 2.30582,-2.48806 3.11873,-0.54252 0.48376,1.15781 0.1315,2.92123 -0.83775,4.19371 l -0.62232,0.81701 0.67592,1.3658 c 0.72375,1.46242 1.00225,1.58624 2.1883,0.97291 0.96091,-0.49691 1.70495,-1.5381 2.14107,-2.99616 0.87067,-2.91087 3.07813,-1.38218 2.50594,1.73539 -0.42214,2.30002 -2.8323,4.74658 -5.34195,5.42262 -1.08088,0.29116 -1.10489,0.32338 -1.41473,1.89825 -0.52852,2.68641 -1.46186,4.11605 -3.7224,5.70172 l -1.51748,1.06446 -0.19153,2.80993 c -0.10534,1.54546 -0.11624,3.71881 -0.0242,4.82965 0.38405,4.63672 1.06862,10.62431 1.20676,10.55501 10.21196,-5.12258 11.81646,-6.35055 14.16914,-10.84411 0.75338,-1.43894 0.76794,-1.53605 0.45642,-3.04427 -0.42828,-2.07356 -0.40562,-3.00842 0.0901,-3.71615 0.45396,-0.64813 1.23374,-0.77112 1.63133,-0.25731 0.14076,0.1819 0.4098,0.89934 0.59786,1.59431 0.18807,0.69498 0.44746,1.3288 0.57642,1.40851 0.12897,0.0797 0.79725,-0.31347 1.48506,-0.87374 2.2298,-1.81629 2.13553,-1.76495 2.57349,-1.40148 0.60595,0.50289 0.47625,1.33479 -0.41252,2.64583 -1.11887,1.65049 -2.26411,3.93557 -2.48588,4.96003 -0.10461,0.48322 -0.0512,1.26715 0.122,1.79205 0.37294,1.13005 1.83912,1.97917 3.41739,1.97917 1.6099,0 3.97287,-0.9999 5.13363,-2.17231 1.10171,-1.11278 1.56039,-1.06422 1.87738,0.19879 0.11609,0.46252 0.34487,0.65061 0.7914,0.65061 0.78868,0 1.16327,0.81905 0.54453,1.19062 -0.24232,0.14552 -1.34185,0.82699 -2.4434,1.51436 -2.57722,1.60822 -5.71899,2.66629 -8.06503,2.71611 -1.77103,0.0376 -1.79282,0.0471 -2.76774,1.21102 -0.54046,0.6452 -1.61211,1.86418 -2.38146,2.70884 -1.36925,1.50329 -1.39063,1.55154 -1.01207,2.28358 0.59248,1.14575 1.87693,2.08521 3.49339,2.55513 1.21688,0.35375 1.65756,0.37195 2.60227,0.10745 1.04094,-0.29145 1.20613,-0.26755 1.94944,0.28201 0.74236,0.54885 0.90512,0.57257 1.8945,0.27615 0.5953,-0.17836 1.55121,-0.74786 2.12425,-1.26557 0.82564,-0.74592 1.04188,-1.12881 1.04188,-1.84483 0,-1.13629 0.53388,-1.37347 1.76746,-0.78522 0.88765,0.42329 0.96288,0.41836 1.83445,-0.1203 1.15195,-0.71194 1.68976,-1.74971 1.68976,-3.26058 0,-0.9285 0.12874,-1.27894 0.58804,-1.60064 0.99032,-0.69365 1.47204,-0.50531 2.16095,0.84489 1.73301,3.39651 5.40042,4.68703 8.64679,3.04271 1.11568,-0.56511 1.56687,-0.986 2.0202,-1.88456 0.32102,-0.63632 0.62987,-1.20314 0.68633,-1.25959 0.0565,-0.0565 0.61872,0.0794 1.24949,0.30198 1.95145,0.68851 3.63549,-0.32876 5.01248,-3.02789 1.1973,-2.34691 0.79669,-5.1691 -0.96334,-6.78637 l -0.88838,-0.81633 0.73174,-0.79305 c 0.40246,-0.43618 0.93456,-1.17016 1.18245,-1.63107 0.2479,-0.46091 0.56531,-0.83802 0.70538,-0.83802 0.14006,0 0.63104,0.47523 1.09107,1.05606 0.94984,1.19927 1.96311,1.56961 3.61048,1.31961 1.51755,-0.23031 2.43125,-0.89338 3.00887,-2.18353 0.44863,-1.00204 0.57546,-1.09403 1.57955,-1.14564 1.34164,-0.069 2.63826,-0.91811 3.55073,-2.32535 1.39876,-2.15719 1.15705,-4.19825 -0.70958,-5.99187 l -1.11101,-1.06756 0.86246,-0.67497 c 1.06795,-0.8358 1.64571,-1.916 1.64571,-3.07687 0,-1.26831 -1.19344,-3.48996 -2.37931,-4.42918 -1.58122,-1.25235 -3.86683,-2.20429 -4.89276,-2.0378 -0.91495,0.14847 -1.9949,-0.37242 -1.98059,-0.9553 0.004,-0.17365 0.35978,-0.70268 0.79002,-1.17562 0.73726,-0.81042 0.88662,-0.8599 2.59582,-0.8599 1.49466,0 2.09923,-0.14275 3.43817,-0.81183 1.79506,-0.897 2.82568,-2.05822 2.56256,-2.88726 -0.12339,-0.38875 0.10541,-0.78309 0.8842,-1.52394 1.26717,-1.20542 1.58302,-2.43937 1.08223,-4.228 -0.40902,-1.46087 -1.9416,-3.11394 -3.1287,-3.37467 -0.44971,-0.0988 -0.88208,-0.28384 -0.96082,-0.41125 -0.0788,-0.12741 0.26177,-0.76217 0.75671,-1.41058 1.1363,-1.48862 1.38889,-2.72212 0.83094,-4.0578 -0.84713,-2.02795 -2.52641,-3.12071 -4.53039,-2.94806 -0.94802,0.0817 -0.96975,0.0618 -1.28265,-1.17047 -0.17506,-0.68945 -0.54503,-1.50427 -0.82217,-1.8107 -2.11587,-2.33959 -6.71826,-1.96771 -8.53724,0.68982 -0.42651,0.62313 -0.90425,0.96555 -1.50418,1.07809 -1.14561,0.21492 -1.45839,-0.007 -1.27819,-0.90832 0.23864,-1.19325 -0.50653,-2.57714 -1.72142,-3.19694 -0.5873,-0.29961 -1.28687,-0.54475 -1.5546,-0.54475 -1.08228,0 -1.52942,-1.35073 -0.61002,-1.84278 0.28148,-0.15064 0.9262,-0.27389 1.43272,-0.27389 0.76235,0 1.10482,-0.20888 1.98861,-1.21293 1.33442,-1.51598 1.73183,-2.68471 1.54114,-4.53232 -0.24278,-2.35228 -1.80057,-3.99348 -4.02893,-4.24465 -0.65608,-0.0739 -1.25567,-0.23606 -1.33242,-0.36024 -0.0768,-0.12418 0.16411,-0.74393 0.53524,-1.37721 0.8351,-1.42499 0.89531,-3.20731 0.15722,-4.65408 -0.57549,-1.12805 -1.94591,-2.40399 -2.582,-2.40399 -0.22722,0 -0.92167,-0.46875 -1.54322,-1.04167 -0.65175,-0.60076 -1.61621,-1.1728 -2.27855,-1.35145 -2.47328,-0.6671 -5.40052,0.35006 -6.34709,2.2055 -0.70538,1.38264 -1.11438,1.45717 -2.06365,0.37601 -1.68044,-1.91391 -3.18741,-1.91565 -4.9678,-0.006 l -1.11758,1.1989 -0.79087,-0.66548 c -0.43498,-0.36601 -0.9441,-0.72108 -1.13138,-0.78905 -0.27272,-0.099 -0.27522,-0.22253 -0.0126,-0.62062 0.72596,-1.10023 1.32399,-2.39398 1.47624,-3.19363 0.2391,-1.25578 -0.46253,-3.27092 -1.48337,-4.26036 -1.07865,-1.04546 -2.1011,-1.36525 -3.76535,-1.17767 l -1.2658,0.14268 0.15353,-1.14469 c 0.53209,-3.96698 -5.54702,-6.95584 -9.76791,-4.80251 -1.1611,0.59235 -2.85,2.31674 -3.12851,3.19426 -0.27083,0.85331 -1.04037,0.66722 -1.75089,-0.4234 -2.21662,-3.4024 -6.99787,-4.16556 -11.00936,-1.75725 -0.84509,0.50735 -1.79564,1.2419 -2.11232,1.63233 -0.88962,1.09678 -1.26445,2.73789 -0.92805,4.06321 0.15533,0.61195 0.22634,1.20338 0.15779,1.31428 -0.0685,0.11091 -0.81826,0.18242 -1.66603,0.15893 -5.58563,-0.15482 -7.97712,6.5129 -3.49174,9.73532 1.44311,1.03678 1.54553,1.21373 0.97603,1.68638 -0.20262,0.16816 -0.51473,0.65899 -0.69356,1.09073 -0.40069,0.96735 -0.7754,0.98805 -1.60389,0.0886 -0.86919,-0.94362 -2.53338,-1.67327 -3.81643,-1.67327 -2.283407,0 -4.086507,1.48083 -4.883484,4.01064 -0.361431,1.14727 -1.055602,1.46417 -1.939144,0.88525 -0.562396,-0.36849 -0.616582,-0.56231 -0.511491,-1.82958 0.193985,-2.3392 -1.053471,-4.2749 -3.494343,-5.42225 -1.439462,-0.67662 -2.673018,-0.71752 -4.124556,-0.13673 -0.979655,0.39198 -1.113438,0.39286 -1.536392,0.0101 -0.254813,-0.23061 -0.901599,-0.60242 -1.437302,-0.82625 -3.840202,-1.60454 -9.360403,2.40737 -8.828593,6.41635 0.162724,1.22668 0.144529,1.26928 -0.747164,1.74949 -0.913763,0.4921 -0.914107,0.49206 -1.690028,-0.16083 -1.18352,-0.99587 -3.02921,-1.42873 -4.460133,-1.04601 -1.625824,0.43484 -2.393365,1.00285 -2.772713,2.05192 -0.279126,0.77191 -0.448247,0.90087 -1.181424,0.90087 -2.690223,0 -5.665213,2.8501 -5.646804,5.40976 0.0085,1.18637 0.863452,2.87058 1.848424,3.64144 0.991591,0.77603 0.897548,1.10563 -0.479654,1.68106 -1.338673,0.55933 -2.078842,1.31885 -2.590254,2.65796 -1.019874,2.6705 0.684405,5.87326 4.046805,7.60494 1.139453,0.58683 2.055489,0.54889 3.273326,-0.13557 l 1.01713,-0.57166 1.085981,0.71867 c 1.341901,0.88802 1.289648,1.44843 -0.18074,1.9384 -1.414137,0.47122 -2.436734,1.42588 -2.645509,2.46975 -0.241284,1.20643 -0.783249,1.24877 -1.909324,0.14919 -1.624446,-1.58623 -3.48284,-1.87135 -6.017112,-0.92316 -2.902829,1.08609 -4.863228,3.99551 -3.920542,5.81847 0.534495,1.0336 0.483303,1.22607 -0.376323,1.41487 -0.780314,0.17139 -1.86517,1.15962 -2.386107,2.17359 -1.006808,1.95968 1.018365,5.3752 3.187131,5.3752 1.451878,0 1.721874,1.42477 0.426181,2.24896 -0.457541,0.29104 -1.033952,0.88636 -1.280914,1.32292 -0.509832,0.90125 -0.763085,0.90098 -1.947027,-0.002 -2.08141,-1.58756 -5.547964,-1.33233 -7.427144,0.54685 -0.69814,0.69814 -0.928056,1.15157 -0.928056,1.83028 v 0.90222 l -1.25677,-0.0275 c -2.698258,-0.059 -4.821259,2.21005 -4.827171,5.15919 -0.0032,1.6181 1.382455,3.7541 2.975087,4.58598 1.014901,0.53011 0.954675,1.35607 -0.132292,1.81428 -2.67427,1.12733 -3.781789,4.05135 -2.558279,6.75426 1.022816,2.25955 2.715313,3.5308 4.526657,3.40001 1.018499,-0.0735 1.077432,-0.0344 1.411483,0.93729 1.160911,3.37686 6.069557,4.44217 9.172333,1.99063 0.53717,-0.42442 1.050168,-0.77168 1.139994,-0.77168 0.334573,0 2.248959,1.6876 2.248959,1.98254 0,0.16856 -0.298994,0.58736 -0.664432,0.93067 -0.784832,0.73731 -1.272021,2.32449 -1.03159,3.36073 0.325013,1.4008 1.386095,2.90467 2.383326,3.37788 0.87267,0.41411 1.616991,0.43817 2.983789,0.0964 0.228341,-0.0571 0.510591,0.33709 0.758027,1.05864 0.298252,0.86974 0.68169,1.33191 1.57505,1.89846 2.334086,1.48023 5.031136,1.24732 6.483456,-0.5599 0.658436,-0.81933 0.904788,-0.9642 1.289509,-0.7583 1.429458,0.76502 2.971384,-0.0555 3.853768,-2.05072 0.675769,-1.52803 1.003987,-1.66932 2.020461,-0.86976 0.369999,0.29104 0.954876,0.52916 1.299726,0.52916 0.821218,0 1.803077,-0.70139 1.803077,-1.28802 0,-0.74291 0.999335,-1.62239 1.843491,-1.62239 1.381264,0 2.208998,1.41336 1.479642,2.52649 -0.350189,0.53446 -0.64486,0.64987 -1.675587,0.65626 -1.010943,0.006 -1.416639,0.15873 -2.116534,0.79536 -0.839387,0.76351 -0.853666,0.81117 -0.467013,1.55888 1.131842,2.18874 4.980031,3.31234 7.296653,2.13049 z m 32.165615,-2.54994 c 0.19883,-1.28668 0.60206,-4.08868 0.89607,-6.22666 0.29401,-2.13799 0.60575,-4.07276 0.69276,-4.29948 0.087,-0.22673 0.0459,-0.41224 -0.0914,-0.41224 -0.35153,0 -2.87256,5.71137 -3.34486,7.57774 -0.71829,2.83846 -0.6691,5.14869 0.12656,5.94436 0.49807,0.49806 0.60027,0.51476 0.95843,0.15661 0.22217,-0.22217 0.56207,-1.44389 0.76241,-2.74033 z m 96.72113,-10.58251 c 0.48883,-0.44238 0.63925,-1.56622 0.28137,-2.10219 -0.10692,-0.16012 -0.44168,-0.42118 -0.74393,-0.58013 -0.53876,-0.28333 -2.64323,-4.75543 -2.36753,-5.03113 0.2327,-0.2327 3.17203,2.67865 3.41102,3.37856 0.4046,1.18492 0.60771,1.46386 1.12249,1.54161 0.7748,0.11703 1.49241,-0.5557 1.49241,-1.39904 0,-0.93736 -0.75298,-1.53476 -1.70118,-1.34968 -0.38995,0.0761 -0.74714,0.0386 -0.79375,-0.0834 -0.0466,-0.12201 -0.73188,-0.77169 -1.52282,-1.44374 -0.79094,-0.67205 -1.46847,-1.43078 -1.50563,-1.68607 -0.0371,-0.25528 -0.1044,-0.70227 -0.14943,-0.99331 -0.0766,-0.4948 0.0879,-0.53412 2.53208,-0.60531 2.11259,-0.0615 2.7047,0.006 3.08704,0.35199 0.6885,0.62308 1.64756,0.3936 1.94871,-0.46628 0.4869,-1.39024 -1.00761,-2.14353 -2.22574,-1.12187 -0.22359,0.18753 -1.34995,0.37426 -2.57969,0.42767 -1.82713,0.0793 -2.18281,0.0286 -2.18281,-0.31131 0,-0.92483 3.25478,-4.75719 4.04024,-4.75719 1.35195,0 2.01441,-1.73756 0.94739,-2.48493 -0.50249,-0.35196 -0.65633,-0.35292 -1.32292,-0.008 -0.60393,0.31231 -0.7543,0.56858 -0.7543,1.28555 0,0.91981 -1.13205,2.59579 -2.82811,4.18695 l -0.77856,0.73041 -0.61151,-0.65093 c -0.4548,-0.48411 -0.79279,-0.61466 -1.31893,-0.50943 -0.57985,0.11597 -0.76612,0.0126 -1.03292,-0.57291 -0.46836,-1.02793 -0.16285,-1.79897 0.6336,-1.59907 0.57188,0.14353 0.6659,0.0282 1.04771,-1.28518 0.34214,-1.17692 0.36311,-1.65211 0.11376,-2.57811 -0.40688,-1.51104 -2.13669,-3.23916 -3.6503,-3.64674 -1.28189,-0.34517 -1.73711,-0.14107 -1.99727,0.89549 -0.1478,0.58888 -0.2416,0.61344 -1.84956,0.48437 l -1.69387,-0.13597 -0.17189,0.7826 c -0.11233,0.51144 0.0501,1.48157 0.46873,2.79992 0.35235,1.10953 0.58614,2.07181 0.51955,2.1384 -0.0666,0.0666 -0.94294,-0.16607 -1.94745,-0.51702 -1.7726,-0.61932 -3.25097,-0.78393 -4.36134,-0.48563 -0.48774,0.13103 -0.53017,0.30978 -0.43359,1.82655 0.12423,1.95102 -0.59786,3.87137 -2.02718,5.39115 -0.45927,0.48833 -0.83504,0.98376 -0.83504,1.10096 0,0.46988 1.69152,1.59342 2.97099,1.97339 1.70746,0.50706 3.5262,0.51469 4.92639,0.0207 1.28266,-0.45255 1.52258,-0.22835 1.07632,1.00577 -0.39578,1.09452 -0.14714,2.19797 0.54475,2.41757 0.57178,0.18148 2.46671,-0.56731 3.75233,-1.48276 0.73986,-0.52682 0.8006,-0.68021 0.68288,-1.72456 -0.13902,-1.23343 0.0523,-1.53823 1.1361,-1.81025 0.50244,-0.12611 0.81716,-0.008 1.27567,0.48049 l 0.60867,0.6479 -0.58369,2.21022 c -0.32102,1.21561 -0.79753,2.3888 -1.05891,2.60708 -1.20975,1.01031 -0.36447,2.96968 1.08295,2.51029 0.91178,-0.28939 1.18183,-1.16241 0.65955,-2.13222 -0.43595,-0.80951 -0.43405,-0.95573 0.0398,-3.06149 0.53224,-2.36535 1.0358,-2.85002 1.47288,-1.41762 0.13321,0.43657 0.5339,1.54867 0.89042,2.47134 0.57777,1.49529 0.61174,1.77843 0.3126,2.60568 -0.31796,0.8793 -0.29676,0.96152 0.40316,1.56357 0.87776,0.75502 0.92561,0.76112 1.54832,0.19757 z m 12.21389,-10.60847 c 0.20159,-0.40018 0.44818,-1.0675 0.54796,-1.48293 0.15205,-0.63307 0.27583,-0.72496 0.76473,-0.56772 2.07642,0.66779 3.09686,0.36553 3.09686,-0.9173 0,-0.87765 -0.67905,-1.53404 -1.95006,-1.88499 l -0.95432,-0.26349 1.05531,-1.33508 c 1.15451,-1.46056 1.26092,-1.84588 0.64979,-2.35307 -0.33439,-0.27752 -0.6805,-0.21792 -1.97281,0.33968 l -1.56728,0.67625 -0.41948,-1.44296 c -0.45635,-1.56981 -0.88396,-1.90736 -1.85549,-1.4647 -1.08013,0.49214 -1.57771,1.51509 -1.25245,2.57488 0.19893,0.64816 0.19737,0.91153 -0.005,0.91153 -0.47409,0 -1.25284,0.84401 -1.25284,1.35783 0,0.26513 0.27056,0.65934 0.60124,0.87601 0.67656,0.4433 1.78001,0.27529 1.78001,-0.27101 0,-0.49808 0.97411,-0.96688 1.59777,-0.76894 0.2857,0.0907 0.64686,0.40291 0.80256,0.69386 0.60677,1.13375 -1.16663,2.41512 -2.07933,1.50243 -0.24227,-0.24228 -0.46589,-0.17131 -0.97896,0.3107 -0.86897,0.81636 -0.8418,0.96342 0.25093,1.35856 0.69564,0.25155 0.95722,0.52607 1.08778,1.14161 0.19575,0.92289 0.82255,1.73645 1.33784,1.73645 0.19199,0 0.51401,-0.32742 0.71561,-0.7276 z M 21.166665,223.21705 c 0,-0.84274 -0.151572,-1.28416 -0.567822,-1.65365 -0.429773,-0.38148 -0.597333,-0.41946 -0.689207,-0.1562 -0.06676,0.19131 -0.405523,0.45586 -0.752803,0.5879 -0.629392,0.23929 -0.627817,0.24346 0.490769,1.2992 0.617203,0.58252 1.211485,1.06211 1.320626,1.06575 0.10914,0.004 0.198437,-0.51071 0.198437,-1.143 z M 203.29782,195.9901 c 0.0877,-0.32742 0.16117,-0.92273 0.16315,-1.32291 0.003,-0.5988 -0.11235,-0.72761 -0.65145,-0.72761 -0.36028,0 -1.01253,0.21739 -1.44944,0.48309 l -0.79438,0.4831 1.11871,0.81834 c 1.36723,1.00014 1.41458,1.00795 1.61341,0.26599 z m 13.89738,-6.80555 c 1.31528,-0.35417 1.47444,-0.59021 0.8862,-1.31428 l -0.46161,-0.56818 -1.12448,0.82809 c -1.06644,0.78536 -1.57758,1.80656 -0.74415,1.48674 0.20918,-0.0803 0.859,-0.27484 1.44404,-0.43237 z m 0.58893,-9.07911 c 1.13394,-1.82284 1.34676,-2.30544 1.0167,-2.30544 -0.16104,0 -0.47761,0.18482 -0.7035,0.41071 -0.28618,0.28618 -0.65315,0.35746 -1.2103,0.23509 -0.74422,-0.16346 -0.78704,-0.13236 -0.61843,0.44918 0.0996,0.34365 0.25164,1.01176 0.33778,1.48471 0.0861,0.47294 0.23033,0.85555 0.32043,0.85023 0.0901,-0.005 0.47589,-0.51133 0.85732,-1.12448 z M 61.362028,170.12708 c 0.229999,-1e-5 0.750906,-0.41701 1.157571,-0.92668 1.666137,-2.08815 4.725098,-2.82413 8.077715,-1.94349 0.217417,0.0571 0.559798,-0.45923 0.901982,-1.36027 0.63467,-1.6712 2.87665,-4.08012 4.568412,-4.90858 l 1.058333,-0.51827 -3.307292,-0.0648 c -1.81901,-0.0357 -6.016067,-0.0952 -9.326793,-0.13229 l -6.019502,-0.0674 2.31e-4,5.58641 2.31e-4,5.58641 1.235466,-0.62547 c 0.679506,-0.34401 1.423647,-0.62548 1.653646,-0.62548 z m 38.026376,-6.68769 c 1.439516,-0.29363 1.581446,-0.38048 1.396416,-0.85448 -0.11328,-0.29019 -0.21433,-0.91457 -0.22456,-1.38751 l -0.0186,-0.8599 h -5.556254 c -3.055937,0 -5.55625,0.0508 -5.55625,0.1129 0,0.0621 0.630511,0.40155 1.401136,0.75435 1.635153,0.7486 3.114815,1.97866 3.891097,3.23471 l 0.550021,0.88995 1.257301,-0.78158 c 0.691515,-0.42987 1.978373,-0.92867 2.859683,-1.10844 z m 69.103436,-2.63887 c -0.0605,-0.42624 -0.29119,-0.61909 -0.81215,-0.67903 -0.88333,-0.10164 -0.91908,0.10375 -0.13229,0.76011 0.79125,0.66008 1.04659,0.63816 0.94444,-0.0811 z m -82.369965,-0.19844 c 0.0954,-0.15436 -0.173642,-0.26458 -0.645844,-0.26458 -0.445151,0 -0.809365,0.11906 -0.809365,0.26458 0,0.14552 0.29063,0.26459 0.645844,0.26459 0.355213,0 0.719428,-0.11907 0.809365,-0.26459 z m 12.101726,-2.83386 2.841309,-0.15225 0.66423,-1.13342 c 0.36533,-0.62339 0.96198,-1.36764 1.32588,-1.65388 0.36391,-0.28625 0.66165,-0.59649 0.66165,-0.68942 0,-0.20136 -48.403086,-0.16058 -54.084558,0.0456 -4.587567,0.16645 -4.632028,0.33435 -0.443814,1.67595 2.797589,0.89615 5.661048,1.28431 5.955822,0.80736 0.101764,-0.16466 0.705138,-0.29938 1.340832,-0.29938 0.914922,0 1.263267,0.13661 1.671423,0.6555 0.512208,0.65117 0.548628,0.65598 5.509308,0.7276 10.513662,0.15181 31.84167,0.16191 34.557918,0.0164 z m 56.425359,-0.1057 c 4.1844,-1.11142 4.49415,-1.14152 6.40095,-0.62198 2.06267,0.562 7.22509,0.85035 7.22509,0.40357 0,-0.53547 1.06097,-1.33994 1.76715,-1.33994 0.38985,0 1.10482,0.14319 1.58882,0.31821 0.68635,0.24818 1.29167,0.24762 2.75065,-0.003 2.12288,-0.36403 6.12486,-1.85555 5.91029,-2.20274 -0.078,-0.12626 -7.41041,-0.22957 -16.29416,-0.22957 -15.27599,0 -16.14242,0.0251 -15.9705,0.46302 0.1,0.25466 0.30404,1.14763 0.45345,1.98438 l 0.27168,1.52135 2.41912,-0.006 c 1.33052,-0.003 2.89538,-0.13281 3.47746,-0.28742 z m -83.007284,-7.04846 c 1.588357,-2.53162 2.216741,-3.76531 2.131748,-4.18521 -0.05409,-0.26721 -0.812674,0.58893 -2.006572,2.26463 -1.055783,1.48184 -1.852428,2.80296 -1.770322,2.93581 0.327849,0.53047 0.89492,0.18053 1.645146,-1.01523 z m 6.769565,0.67415 c 0.155971,-0.24768 0.199228,-0.53469 0.09613,-0.63779 -0.209407,-0.2094 -1.249034,0.63645 -1.249034,1.01624 0,0.39033 0.843058,0.11359 1.152908,-0.37845 z m -21.386259,-0.62354 c 2.258837,-1.3602 3.652302,-2.57189 5.292997,-4.60255 0.795632,-0.98474 1.446603,-1.85031 1.446603,-1.92348 0,-0.55095 -1.294737,0.2366 -3.134906,1.90685 -1.839878,1.66999 -4.822385,3.95095 -6.818285,5.21447 -0.433797,0.27462 -0.359682,0.31717 0.576048,0.33073 0.779976,0.0113 1.501863,-0.24215 2.637543,-0.92602 z m 8.387427,-0.7593 c 1.476146,-1.79996 2.772327,-4.02133 2.503397,-4.29026 -0.0884,-0.0884 -0.493041,0.23733 -0.899204,0.72384 -0.406163,0.48651 -1.539434,1.78139 -2.518381,2.8775 -0.978947,1.09611 -1.782619,2.08222 -1.785938,2.19136 -0.0033,0.10914 0.289004,0.19844 0.649605,0.19844 0.485148,0 1.018362,-0.44229 2.050521,-1.70088 z m 90.862631,1.30913 c -0.42425,-1.10557 -3.87504,-5.86514 -3.87504,-5.34472 0,0.91859 3.05628,5.73647 3.639,5.73647 0.23249,0 0.32649,-0.15602 0.23604,-0.39175 z m 6.97288,0.17667 c 0,-0.1183 -0.36577,-0.56478 -0.81282,-0.99219 -0.44705,-0.42741 -1.54023,-1.69984 -2.42928,-2.82763 -0.88905,-1.12778 -1.72039,-2.05052 -1.84744,-2.05052 -0.38976,0 1.58665,3.49613 2.72971,4.82865 0.73488,0.85668 1.2821,1.25677 1.71896,1.25677 0.35248,0 0.64087,-0.0968 0.64087,-0.21508 z m 8.73125,-0.0112 c 0,-0.12443 -0.74414,-0.74253 -1.65365,-1.37355 -0.9095,-0.63101 -2.9325,-2.31514 -4.49554,-3.7425 -1.56305,-1.42736 -2.95801,-2.5952 -3.09993,-2.5952 -0.46696,0 0.87557,1.94085 2.63035,3.80261 2.03643,2.16059 4.84796,4.13489 5.88834,4.13489 0.40173,0 0.73043,-0.10181 0.73043,-0.22625 z m -82.049701,-2.02271 c 2.58616,-1.25871 3.536913,-1.51385 2.933974,-0.78735 -0.184076,0.22179 -0.247886,0.48968 -0.141801,0.59531 0.106086,0.10562 3.666739,0.17944 7.912558,0.16404 l 7.71968,-0.028 1.71629,-1.69549 c 2.71607,-2.68318 5.74076,-3.83388 9.53958,-3.62921 2.06248,0.11112 4.55886,1.02913 5.6911,2.09281 0.54767,0.51451 0.55466,0.51435 1.04171,-0.0238 0.75154,-0.83044 2.22384,-1.65951 3.54095,-1.99393 l 1.18987,-0.30212 -0.64763,-0.39925 c -5.03574,-3.10437 -10.23064,-6.88933 -14.61647,-10.64943 -1.64125,-1.4071 -2.02864,-1.87532 -1.89637,-2.29207 0.17762,-0.55965 -0.26757,-1.29209 -0.78536,-1.29209 -0.17265,0 -0.53191,0.1594 -0.79836,0.35424 -0.37653,0.27532 -0.42338,0.46337 -0.21029,0.84413 0.30865,0.55154 -0.0861,0.9485 -5.3391,5.36906 -4.40243,3.70478 -12.091749,8.7784 -13.304086,8.7784 -0.304085,0 -1.309191,0.45189 -2.233569,1.0042 -1.810968,1.08203 -5.785775,2.9469 -7.501521,3.5195 -0.582083,0.19426 -1.097745,0.37679 -1.145915,0.40563 -0.04817,0.0288 0.04532,0.30075 0.207746,0.60426 0.2629,0.49123 0.536104,0.55183 2.488036,0.55183 2.059965,0 2.3408,-0.0721 4.638978,-1.19063 z m 5.401889,-10.29362 c 0.286062,-0.39138 0.558861,-0.46594 1.220592,-0.33359 0.708869,0.14177 1.104911,-0.002 2.35481,-0.85289 2.48552,-1.69273 7.98491,-6.17182 7.98491,-6.50348 0,-0.0772 -2.20266,-0.14038 -4.8948,-0.14038 h -4.894787 v 2.91895 c 0,2.78199 -0.02793,2.92981 -0.595312,3.1507 -0.9716,0.37826 -1.306507,-0.3356 -1.233894,-2.63006 0.03454,-1.09141 0.04352,-2.3118 0.01996,-2.71198 L 95.25,131.23333 H 81.227083 67.204166 v 4.08164 c 0,3.66298 0.04749,4.09455 0.463021,4.20743 0.254661,0.0692 6.50039,0.10767 13.879396,0.0855 12.862982,-0.0386 13.431572,-0.061 13.784775,-0.54427 z m 63.947812,-3.88572 v -4.25747 l -13.5599,0.047 c -7.45794,0.0259 -14.30404,0.11013 -15.21354,0.18725 l -1.65365,0.14023 v 3.71032 c 0,3.22335 0.0608,3.75645 0.46302,4.0618 0.37185,0.28228 3.36747,0.35314 15.21355,0.3599 l 14.75052,0.008 z m -32.28208,-0.0576 c -0.002,-1.04644 -0.0767,-2.3491 -0.16691,-2.8948 l -0.164,-0.99219 h -3.66955 c -2.01825,0 -3.66955,0.0672 -3.66955,0.14938 0,0.38593 7.19191,5.9266 7.47448,5.75837 0.10914,-0.065 0.19713,-0.97432 0.19553,-2.02076 z M 110.57752,127.549 c 1.63547,-1.77153 3.16007,-1.76032 4.80144,0.0353 l 0.98767,1.0805 21.28591,-0.13489 21.28591,-0.13488 0.80751,-0.59702 c 0.61236,-0.45274 1.02118,-0.55923 1.69171,-0.44066 0.48631,0.086 1.32746,0.23201 1.86922,0.32448 0.54176,0.0925 1.61332,0.0217 2.38125,-0.15723 1.83712,-0.42807 5.49728,-1.82745 5.49728,-2.10175 0,-0.46585 -13.93719,-0.59934 -46.66097,-0.44694 -18.79308,0.0875 -42.176195,0.16203 -51.962472,0.16556 -9.786276,0.004 -17.793229,0.0994 -17.793229,0.213 0,0.11362 0.327422,0.34176 0.727604,0.50698 0.400182,0.16522 1.44838,0.60334 2.329328,0.97359 2.365122,0.99405 5.03267,1.35382 6.254059,0.84349 1.063882,-0.44452 2.4267,-0.17652 2.698034,0.53056 0.124254,0.3238 3.224849,0.37839 21.493106,0.37839 h 21.34791 z m -41.324306,-5.6952 c 1.810747,-0.98802 4.415669,-3.14889 5.824569,-4.83167 0.617219,-0.7372 1.122216,-1.41313 1.122216,-1.50208 0,-0.50602 -1.028321,-5e-4 -2.227529,1.09505 -2.160142,1.97343 -5.151164,4.1548 -7.084048,5.16645 -0.974024,0.50979 -1.719496,0.97835 -1.656604,1.04124 0.303208,0.30321 2.786454,-0.29515 4.021396,-0.96899 z m 7.408579,0.50694 c 1.224155,-0.85743 4.326496,-5.47731 3.938601,-5.86521 -0.07394,-0.0739 -0.52873,0.31866 -1.010645,0.87244 -2.799665,3.21717 -3.96152,4.47546 -4.315263,4.67343 -0.218572,0.12231 -0.397403,0.33554 -0.397403,0.47383 0,0.39364 1.143455,0.29466 1.78471,-0.15449 z m 7.568329,-2.26931 c 1.91894,-3.80267 1.473111,-4.18418 -0.694058,-0.59393 -0.978898,1.62169 -1.779815,3.02896 -1.779815,3.12725 0,0.0983 0.267891,0.14067 0.595313,0.0942 0.457062,-0.0649 0.893323,-0.6751 1.87856,-2.62749 z m 59.493788,2.53188 c 0.0789,-0.0789 -0.34779,-0.91107 -0.94809,-1.84939 -0.60029,-0.93831 -1.44172,-2.26377 -1.86982,-2.94546 -0.42811,-0.68169 -0.82754,-1.09195 -0.88763,-0.91169 -0.12984,0.38952 2.22627,5.35677 2.67677,5.64328 0.36974,0.23514 0.82867,0.26336 1.02877,0.0633 z m 6.55942,0.004 c 0,-0.0767 -0.8632,-1.17835 -1.91823,-2.44821 -1.05502,-1.26985 -2.17641,-2.66543 -2.49197,-3.10128 -0.31556,-0.43585 -0.65099,-0.71522 -0.7454,-0.62081 -0.39079,0.39079 2.48781,4.93612 3.78653,5.97895 0.40698,0.32679 1.36907,0.46126 1.36907,0.19135 z M 99.086458,121.5424 c 1.164162,-0.52428 2.457002,-1.01448 2.872972,-1.08935 0.67477,-0.12145 0.73702,-0.0754 0.57748,0.42729 l -0.17882,0.56341 h 10.33658 10.33658 v -0.66146 c 0,-0.3638 0.065,-0.66146 0.14442,-0.66146 0.0794,0 1.24578,0.53578 2.59189,1.19063 2.14971,1.04577 2.66117,1.19062 4.20398,1.19062 1.85513,0 3.36813,-0.39426 2.95852,-0.77093 -0.13283,-0.12216 -1.37502,-0.71401 -2.76042,-1.31523 -4.75673,-2.06429 -10.11296,-5.62185 -14.82481,-9.84653 l -2.37556,-2.12995 -1.78203,1.63335 c -5.22514,4.78916 -12.34408,9.15603 -18.715365,11.48029 -0.522534,0.19063 -0.52273,0.19778 -0.01558,0.57102 0.339412,0.2498 1.191849,0.37689 2.513541,0.37475 1.72448,-0.003 2.291499,-0.13452 4.116618,-0.95645 z m 58.171142,-0.58052 c -1.28923,-0.8471 -3.37216,-2.51398 -4.62873,-3.70416 -2.12694,-2.01456 -2.8747,-2.51481 -2.8747,-1.92315 0,0.73804 3.66361,4.55513 5.95312,6.20251 1.07892,0.77632 1.56006,0.95309 2.60865,0.95844 l 1.28572,0.007 z m -68.544746,-0.90719 c 1.118116,-2.01692 1.441282,-2.95364 0.964121,-2.79459 -0.251655,0.0839 -2.099892,3.93546 -2.099892,4.376 0,0.32151 0.35441,-0.17196 1.135771,-1.58141 z m 9.368604,-9.64823 c 0.260387,-0.0999 0.343542,-1.08561 0.343542,-4.07227 v -3.94044 h -9.128125 -9.128126 v 3.94935 c 0,3.53868 0.04815,3.96196 0.463021,4.07066 0.629795,0.16501 17.018534,0.15815 17.449688,-0.007 z m 8.847652,-0.51672 c 0.23888,-0.21027 0.37824,-0.59677 0.30969,-0.85889 -0.13588,-0.5196 0.53438,-1.13576 2.62943,-2.41717 0.95839,-0.58619 1.25677,-0.92551 1.25677,-1.42918 0,-0.65862 1.06707,-1.46783 1.93555,-1.46783 0.60969,0 1.76862,1.05552 1.76862,1.6108 0,0.33137 0.6582,0.9943 1.85208,1.86539 1.23419,0.9005 1.85208,1.52935 1.85208,1.88496 0,0.79468 0.77299,1.23557 2.18282,1.24501 l 1.25677,0.008 v -3.96875 -3.96875 h -10.71563 -10.71562 v 3.95035 c 0,4.59404 -0.35894,4.18941 3.57187,4.02658 1.57894,-0.0654 2.52759,-0.22745 2.81557,-0.48094 z m 33.76308,0.47207 5.09323,-0.0306 v -4.14288 -4.14287 l -4.96094,0.17338 c -2.72852,0.0953 -7.55055,0.17371 -10.71563,0.17412 l -5.75468,7.5e-4 v 3.96128 3.96129 l 3.63802,0.0736 c 2.00091,0.0405 4.53099,0.0576 5.62239,0.038 1.09141,-0.0196 4.27633,-0.0493 7.07761,-0.0661 z m 5.87428,-11.44007 c 0.7399,-0.547037 0.86479,-0.56142 1.92334,-0.221501 1.32232,0.424618 2.42854,0.379333 4.43936,-0.181731 1.79857,-0.501846 3.96875,-1.416347 3.96875,-1.672415 0,-0.370189 -7.54453,-0.526555 -19.11827,-0.396241 l -11.70569,0.1318 -1.95496,-0.937669 c -2.67248,-1.281821 -5.77136,-3.341373 -8.71025,-5.788936 l -2.46312,-2.051336 -1.21416,1.011174 c -3.5591,2.96408 -7.03441,5.314262 -9.92665,6.712915 l -2.161204,1.045135 -14.169204,0.01961 c -7.793062,0.01079 -14.704986,0.100083 -15.359829,0.198437 l -1.190625,0.178826 1.68053,0.754506 c 2.366248,1.062372 5.661311,1.690257 6.503871,1.239333 0.937223,-0.501587 1.959966,-0.415124 2.754557,0.232872 l 0.702708,0.573064 32.604776,-0.13141 32.60478,-0.131411 z M 82.679059,93.115751 c 0.936974,-0.591752 2.511633,-1.943485 3.499244,-3.003851 2.319795,-2.490689 4.408555,-5.974838 3.581592,-5.974264 -0.10914,7.6e-5 -1.023788,1.086616 -2.032549,2.414535 -2.074493,2.730829 -4.929504,5.299543 -7.286479,6.555797 -0.877269,0.46758 -1.595034,0.902694 -1.595034,0.966921 0,0.06423 0.479168,0.116776 1.064818,0.116776 0.789507,0 1.505286,-0.27818 2.768408,-1.075914 z m 6.684505,-0.102979 c 1.125191,-1.278284 2.806192,-4.22538 2.660105,-4.663641 -0.04972,-0.14916 -0.654053,0.496455 -1.342961,1.434701 -0.688909,0.938246 -1.799146,2.313837 -2.467195,3.056868 -1.164867,1.295612 -1.187449,1.350965 -0.551143,1.350965 0.453729,0 0.99156,-0.372706 1.701194,-1.178893 z m 4.981541,0.08706 c 0.812572,-1.287197 2.02827,-4.404611 1.883328,-4.829417 -0.05563,-0.163052 -0.375368,0.239322 -0.710522,0.894166 -0.335154,0.654844 -1.068324,1.917866 -1.629266,2.806716 -0.560943,0.888851 -1.019895,1.752054 -1.019895,1.91823 0,0.67758 0.830553,0.233322 1.476355,-0.789695 z m 34.907675,-0.872509 c -0.62632,-0.934015 -1.47872,-2.322994 -1.89421,-3.08662 -1.16429,-2.139821 -1.07951,-0.860203 0.11138,1.681089 0.94392,2.014272 2.2361,3.527406 2.74417,3.213402 0.0976,-0.06031 -0.33501,-0.873856 -0.96134,-1.807871 z m 7.14609,1.689786 c 0.0933,-0.151006 -0.22867,-0.716553 -0.71554,-1.256771 -0.48688,-0.540219 -1.47206,-1.866079 -2.18929,-2.946358 -0.71723,-1.080278 -1.34572,-1.839147 -1.39664,-1.686376 -0.21271,0.638125 2.33177,5.349739 3.21951,5.961571 0.40427,0.278618 0.88502,0.246596 1.08196,-0.07207 z m 9.38655,0.04743 c 0,-0.124918 -0.68461,-0.679611 -1.52136,-1.232651 -2.00351,-1.324204 -4.31603,-3.70092 -6.37199,-6.548857 -1.56782,-2.171758 -2.16082,-2.721353 -2.16082,-2.002644 0,0.772727 2.66695,4.774608 4.34553,6.520658 2.00124,2.081693 3.16859,2.925379 4.48049,3.238222 1.16821,0.278576 1.22815,0.27981 1.22815,0.02527 z m -44.05313,-1.058631 c 1.59338,-0.758973 5.5677,-3.685781 5.32903,-3.924457 -0.16472,-0.164717 -7.577558,4.220308 -7.577802,4.482607 -3.4e-4,0.365083 0.648782,0.203969 2.248772,-0.55815 z m 24.42542,0.369933 c -0.95317,-0.786254 -10.00563,-6.658147 -10.00563,-6.490169 0,0.332297 3.33519,3.166953 5.2803,4.487852 1.89508,1.286922 4.24029,2.42293 4.57496,2.216089 0.12877,-0.07958 0.19643,-0.175777 0.15037,-0.213772 z m -25.88964,-3.204477 c 0.89214,-2.143015 0.91316,-2.229702 0.54084,-2.229702 -0.27883,0 -2.648494,4.534373 -2.648494,5.067917 0,0.770198 1.377939,-1.08537 2.107654,-2.838215 z"
       id="path32" /><path
       style="fill:#000000"
       d="m 110.25173,96.140636 c -0.49966,-0.49966 -0.14437,-1.665278 0.74583,-2.446886 1.34832,-1.183836 1.98578,-1.26326 3.41528,-0.42552 1.19602,0.700917 1.6208,1.421512 1.42884,2.423882 -0.0813,0.424422 -0.41938,0.493151 -2.74878,0.558767 -1.46086,0.04115 -2.73939,-0.0085 -2.84117,-0.110243 z"
       id="path31" /><path
       style="fill:#000000"
       d="m 137.10864,108.7312 c -0.56598,-0.22714 -0.60173,-0.37349 -0.52917,-2.16604 l 0.0778,-1.92243 1.01065,-0.0832 c 1.48794,-0.12252 1.76748,0.24697 1.76748,2.33626 0,1.38943 -0.0939,1.82742 -0.41852,1.95198 -0.56087,0.21523 -1.17505,0.17772 -1.90826,-0.11655 z"
       id="path30" /><path
       style="fill:#000000"
       d="m 131.02244,108.7916 c -0.24269,-0.16036 -0.32017,-0.80104 -0.26458,-2.18783 l 0.0786,-1.96106 1.27733,-0.0815 c 1.77876,-0.11346 2.02996,0.17893 2.02996,2.36284 0,1.00083 -0.0298,1.82503 -0.0662,1.83156 -1.03552,0.18578 -2.79707,0.20653 -3.05516,0.036 z"
       id="path29" /><path
       style="fill:#000000"
       d="m 92.515972,108.83194 c -0.311091,-0.31109 -0.192707,-3.67021 0.141111,-4.00402 0.174625,-0.17463 0.746125,-0.3175 1.27,-0.3175 1.318895,0 1.5875,0.38052 1.5875,2.24895 0,0.90253 -0.139954,1.75392 -0.3175,1.93146 -0.334671,0.33467 -2.379907,0.44232 -2.681111,0.14111 z"
       id="path28" /><path
       style="fill:#000000"
       d="m 87.365416,108.69083 c -0.478749,-0.47875 -0.40614,-3.26023 0.09827,-3.76464 0.492035,-0.49204 1.72761,-0.54781 2.177143,-0.0983 0.177545,0.17754 0.3175,1.02893 0.3175,1.93145 0,1.82528 -0.274146,2.24896 -1.455208,2.24896 -0.451115,0 -0.963084,-0.14287 -1.137709,-0.3175 z"
       id="path27" /><path
       style="fill:#000000"
       d="m 109.97847,118.88611 c -0.097,-0.097 -0.17639,-0.86776 -0.17639,-1.71276 v -1.53638 l 1.38553,-0.93307 c 0.76205,-0.51319 1.59317,-0.93307 1.84695,-0.93307 0.25378,0 1.12407,0.42389 1.93397,0.94199 l 1.47256,0.94198 -0.0784,1.6377 c -0.0777,1.62502 -0.0848,1.63834 -0.91341,1.71876 -0.69232,0.0672 -0.95774,-0.0798 -1.55276,-0.85989 -0.39473,-0.51753 -0.80728,-0.94095 -0.91677,-0.94095 -0.1095,0 -0.48232,0.4159 -0.8285,0.92423 -0.60044,0.88169 -1.67199,1.25228 -2.17282,0.75146 z"
       id="path26" /><path
       style="fill:#000000"
       d="m 148.69583,135.60775 c 0,-1.88142 0.0406,-2.02305 0.66146,-2.30592 0.49663,-0.22628 0.82918,-0.22497 1.33452,0.005 0.6428,0.29288 0.66956,0.39292 0.59531,2.22528 l -0.0777,1.91862 -1.25678,0.0806 -1.25677,0.0806 z"
       id="path25" /><path
       style="fill:#000000"
       d="m 141.47543,137.41846 c -0.10336,-0.10337 -0.18793,-0.98695 -0.18793,-1.96352 0,-2.13575 0.2591,-2.43171 2.02996,-2.31874 l 1.27733,0.0815 v 2.11666 2.11667 l -1.46571,0.0777 c -0.80614,0.0427 -1.55028,-0.007 -1.65365,-0.11024 z"
       id="path24" /><path
       style="fill:#000000"
       d="m 136.71479,137.24085 c -0.26282,-0.68489 0.0498,-3.97628 0.39864,-4.19769 0.49188,-0.31216 1.09804,-0.2695 1.62277,0.11419 0.3801,0.27794 0.4465,0.6811 0.3813,2.3151 l -0.079,1.97856 -1.09096,0.0797 c -0.74775,0.0546 -1.13558,-0.0365 -1.23279,-0.28988 z"
       id="path23" /><path
       style="fill:#000000"
       d="m 85.835989,137.22632 c -0.07534,-0.19634 -0.101371,-1.1786 -0.05784,-2.18281 l 0.07914,-1.82583 h 1.322917 1.322917 l 0.07685,2.18281 0.07685,2.18281 h -1.341921 c -0.88209,0 -1.388861,-0.12232 -1.478907,-0.35698 z"
       id="path22" /><path
       style="fill:#000000"
       d="m 75.196426,135.547 0.07753,-2.06474 1.081211,-0.0792 c 1.463658,-0.10728 1.742292,0.29461 1.643993,2.37124 l -0.07937,1.67675 -1.400448,0.0804 -1.400448,0.0804 z"
       id="path21" /><path
       style="fill:#000000"
       d="m 81.953064,137.55064 c -0.368546,-0.20625 -0.461398,-0.62176 -0.461398,-2.06475 0,-2.13836 0.266256,-2.46798 1.898675,-2.35053 l 1.144034,0.0823 0.07735,2.05452 c 0.05658,1.50301 -0.01444,2.08282 -0.264583,2.15992 -0.968585,0.29854 -1.982684,0.34874 -2.394075,0.11852 z"
       id="path20" /><path
       style="fill:#000000"
       d="m 110.63442,143.60147 c -0.16674,-0.16674 -0.30317,-1.03481 -0.30317,-1.92904 0,-1.80814 0.34582,-2.33422 1.81055,-2.7543 0.95188,-0.273 2.571,0.0841 3.29325,0.72642 0.38675,0.34392 0.45952,0.76363 0.39687,2.28881 -0.0702,1.7096 -0.12722,1.87482 -0.67357,1.9524 -0.32828,0.0466 -0.94356,-0.0882 -1.36729,-0.29959 -0.42374,-0.21138 -0.86952,-0.29503 -0.99064,-0.18588 -0.41485,0.37386 -1.85917,0.50801 -2.166,0.20118 z"
       id="path19" /><path
       style="fill:#000000"
       d="m 104.15764,145.07983 c -0.097,-0.097 -0.17639,-0.9237 -0.17639,-1.83708 0,-1.41617 0.0866,-1.72134 0.58804,-2.07257 0.70012,-0.49038 1.82661,-0.53723 2.26946,-0.0944 0.17755,0.17755 0.3175,1.02894 0.3175,1.93146 0,0.90252 -0.13995,1.75391 -0.3175,1.93146 -0.33467,0.33467 -2.37991,0.44231 -2.68111,0.14111 z"
       id="path18" /><path
       style="fill:#000000"
       d="m 66.542708,166.10105 c -0.291042,-0.15991 -0.707761,-0.37328 -0.926042,-0.47414 -0.432641,-0.19993 -0.657764,-1.56602 -0.416488,-2.52734 0.206482,-0.82269 1.60944,-1.28458 2.722858,-0.89644 0.750152,0.2615 0.827604,0.39905 0.910413,1.61679 0.04978,0.73203 0.01912,1.4464 -0.06813,1.58748 -0.129437,0.20929 -1.53098,1.05481 -1.65754,0.99996 -0.01975,-0.009 -0.274027,-0.1464 -0.565068,-0.30631 z"
       id="path17" /><path
       style="fill:#000000"
       d="m 200.82622,232.52068 c -1.66537,-0.61847 -1.26776,-2.59776 0.52185,-2.59776 0.6036,0 0.9225,0.24654 1.58103,1.2223 0.4537,0.67226 0.78956,1.25119 0.74635,1.28651 -0.27737,0.22669 -2.30765,0.29007 -2.84923,0.089 z"
       id="path16" /><path
       style="fill:#000000"
       d="m 128.32292,186.79583 c -0.15576,-0.29104 -0.52322,-0.52916 -0.81656,-0.52916 -0.75019,0 -1.38826,-1.60564 -1.16447,-2.93024 0.17468,-1.03392 1.57417,-3.41976 2.00596,-3.41976 0.13181,0 0.23965,-0.11907 0.23965,-0.26459 0,-0.14552 -0.26789,-0.26524 -0.59531,-0.26606 -2.10007,-0.005 -4.69636,-1.86533 -4.69636,-3.36474 0,-0.44128 0.18687,-0.95741 0.41527,-1.14696 0.23659,-0.19635 0.35628,-0.57023 0.27817,-0.86893 -0.0754,-0.28835 -0.0283,-0.72763 0.10475,-0.97618 0.3512,-0.65623 1.90184,-1.31553 3.07826,-1.30882 1.05021,0.006 3.06369,0.77361 3.38257,1.28956 0.38013,0.61507 0.63112,0.2558 0.39543,-0.56602 -0.67045,-2.33773 0.0968,-5.10832 1.63498,-5.90372 0.67709,-0.35014 0.9695,-0.38129 1.3498,-0.14379 0.35301,0.22046 0.63184,0.22483 1.02198,0.016 0.73254,-0.39204 2.00936,0.37229 2.66252,1.59383 0.54342,1.01633 0.66859,3.47644 0.23491,4.61711 -0.31155,0.81942 -0.29635,0.82124 1.03966,0.12487 1.3834,-0.72106 2.88726,-0.9091 4.09169,-0.51161 0.98624,0.32549 1.83168,1.27115 1.70224,1.90404 -0.0396,0.1936 0.0822,0.63099 0.27059,0.97196 0.38244,0.69206 0.23161,1.60911 -0.43096,2.62033 -0.52163,0.79611 -2.7854,1.91285 -3.885,1.91651 l -0.77711,0.003 0.68076,0.72761 c 0.37441,0.40018 0.87294,1.10864 1.10783,1.57436 0.80503,1.59609 0.36316,4.058 -0.76742,4.27573 -0.28586,0.055 -0.67657,0.324 -0.86825,0.59766 -0.42683,0.60938 -1.87581,0.66358 -2.94596,0.11019 -1.00439,-0.51939 -2.12804,-1.89275 -2.31551,-2.83008 -0.21678,-1.08388 -0.5159,-1.14672 -0.85317,-0.17923 -0.44404,1.27378 -1.58203,2.61733 -2.56461,3.02788 -1.31872,0.55099 -2.67419,0.47893 -3.01633,-0.16037 z m 4.62498,-7.39988 c 0.0871,-0.14088 0.55164,-0.24135 1.03238,-0.22328 0.48074,0.0181 1.00362,-0.0472 1.16195,-0.14505 0.15833,-0.0979 0.36266,-0.0569 0.45406,0.091 0.0914,0.1479 0.2928,0.2689 0.44756,0.2689 0.175,0 0.15439,-0.15299 -0.0545,-0.40471 -0.41872,-0.50453 0.0484,-1.71196 0.66229,-1.71196 0.2214,0 0.40255,-0.12654 0.40255,-0.28121 0,-0.15467 -0.20836,-0.24825 -0.46302,-0.20795 -0.62162,0.0984 -1.83031,-0.73354 -1.99812,-1.37524 -0.1729,-0.66116 -0.71386,-0.67488 -0.71386,-0.0181 0,0.58769 -1.25388,1.49847 -1.91823,1.39335 -0.25466,-0.0403 -0.46302,0.0533 -0.46302,0.20795 0,0.15467 0.23585,0.28121 0.52412,0.28121 0.64979,0 0.96401,1.04901 0.5474,1.82744 -0.29332,0.54807 0.0546,0.82171 0.37846,0.29768 z"
       id="path15" /><path
       style="fill:#000000"
       d="m 101.96026,198.04063 c -0.0838,-0.21829 -0.37349,-0.39688 -0.64384,-0.39688 -0.61086,0 -1.03934,-0.76355 -1.03934,-1.85208 0,-0.97009 0.34622,-1.71852 1.23779,-2.67579 l 0.64396,-0.69142 -1.11515,-0.17832 c -1.488736,-0.23806 -2.48759,-0.8637 -3.051922,-1.9116 -0.362345,-0.67284 -0.402998,-0.99902 -0.183678,-1.47379 0.154913,-0.33534 0.389239,-0.9669 0.520726,-1.40346 0.184482,-0.61252 0.496569,-0.88318 1.366879,-1.18544 1.158905,-0.40248 1.477815,-0.34791 3.853325,0.65941 0.43476,0.18436 0.45849,0.14341 0.19844,-0.3425 -0.46931,-0.8769 -0.35138,-2.74051 0.23418,-3.70093 0.63581,-1.04281 1.71564,-1.62556 2.17008,-1.17111 0.22153,0.22152 0.39902,0.22519 0.65405,0.0135 0.55633,-0.46172 1.83673,0.21674 2.3163,1.22737 0.4741,0.99909 0.54645,2.83445 0.14155,3.59101 -0.32985,0.61633 -0.0512,0.64977 0.97125,0.11653 1.86059,-0.97036 4.83741,-0.0802 4.48097,1.33995 -0.0842,0.3357 -0.0337,0.68422 0.11237,0.77449 0.5224,0.32286 0.26132,1.50074 -0.5018,2.26386 -0.42205,0.42205 -1.31502,0.91383 -1.98438,1.09286 -0.66936,0.17903 -1.21702,0.41987 -1.21702,0.53521 0,0.11534 0.10935,0.20971 0.243,0.20971 0.45389,0 1.3445,1.77814 1.3445,2.68434 0,0.98645 -0.61848,2.07816 -1.17732,2.07816 -0.19446,0 -0.428,0.19398 -0.51898,0.43107 -0.12936,0.33711 -0.40148,0.3994 -1.24846,0.2858 -1.19544,-0.16034 -2.53137,-1.23156 -2.78219,-2.23089 -0.16727,-0.66646 -0.62305,-0.82514 -0.62305,-0.21691 0,0.21215 -0.45781,0.867 -1.01737,1.45521 -0.87255,0.91724 -1.17502,1.06947 -2.12497,1.06947 -0.74046,0 -1.15808,-0.13155 -1.2599,-0.39687 z m 5.73783,-6.89645 0.45114,-0.81102 -0.87498,-0.59955 -0.87499,-0.59955 -0.78213,0.57826 c -0.80881,0.59797 -0.80586,0.73541 0.0442,2.05961 0.3893,0.60649 1.54909,0.24904 2.03681,-0.62775 z"
       id="path14" /><path
       style="fill:#000000"
       d="m 174.31317,204.70655 c -0.19229,-0.19004 -0.53923,-0.41723 -0.77097,-0.50487 -0.23174,-0.0876 -0.62307,-0.58444 -0.86962,-1.10401 -0.40634,-0.85629 -0.41051,-1.01771 -0.0446,-1.72534 0.63632,-1.2305 2.04578,-1.38576 2.40163,-0.26455 0.10696,0.33698 0.40443,0.50472 0.89511,0.50472 0.92728,0 1.71925,0.82861 1.48809,1.55692 -0.22359,0.70448 -1.63795,1.88266 -2.26006,1.88266 -0.26949,0 -0.6473,-0.15549 -0.8396,-0.34553 z"
       id="path13" /><path
       style="fill:#000000"
       d="m 169.44032,207.61097 c -0.57134,-0.49144 -0.68059,-0.75832 -0.53989,-1.31889 0.21326,-0.84973 1.15114,-1.153 2.51973,-0.81477 0.77191,0.19077 0.97188,0.37503 1.03898,0.95741 0.0664,0.57636 -0.093,0.82855 -0.79375,1.25579 -1.11619,0.68052 -1.35122,0.67212 -2.22507,-0.0795 z"
       id="path12" /><path
       style="fill:#000000"
       d="m 118.05708,208.70333 c -0.79053,-0.79053 -0.0537,-2.32833 1.1156,-2.32833 1.14456,0 1.92381,1.56435 1.15982,2.32833 -0.17462,0.17463 -0.68659,0.3175 -1.13771,0.3175 -0.45111,0 -0.96308,-0.14287 -1.13771,-0.3175 z"
       id="path11" /><path
       style="fill:#000000"
       d="m 173.93701,211.19959 c -0.16012,-0.10691 -0.43296,-0.46369 -0.60631,-0.79284 -0.48213,-0.91546 0.48165,-2.97342 1.39251,-2.97342 0.78855,0 1.75387,1.11846 1.75387,2.03209 0,1.19524 -1.655,2.32516 -2.54007,1.73417 z"
       id="path10" /><path
       style="fill:#000000"
       d="m 77.192949,211.6819 c -0.218307,-0.31168 -0.501263,-0.54757 -0.62879,-0.52421 -0.825535,0.15123 -1.422493,-0.75516 -1.422493,-2.15985 0,-0.80845 0.834844,-2.71807 1.319136,-3.01738 0.526798,-0.32558 0.249604,-0.53241 -0.79299,-0.59171 -1.297572,-0.0738 -2.417014,-0.6276 -3.148618,-1.55769 -0.574209,-0.72999 -0.733475,-1.81091 -0.305772,-2.07525 0.135716,-0.0839 0.236106,-0.52712 0.223087,-0.98499 -0.02924,-1.02835 0.711697,-1.68905 2.170578,-1.93553 0.825117,-0.1394 1.369293,-0.0321 2.52822,0.49846 l 1.476793,0.6761 -0.213863,-0.58774 c -0.117624,-0.32325 -0.213863,-1.37911 -0.213863,-2.34635 0,-1.38631 0.112024,-1.88303 0.529167,-2.34633 0.69582,-0.77281 1.473986,-1.05143 2.067434,-0.74022 0.319221,0.1674 0.600804,0.15136 0.840889,-0.0479 0.579057,-0.48057 1.955024,0.38776 2.435857,1.53719 0.29217,0.69844 0.36406,1.44321 0.253695,2.62826 -0.0847,0.90951 -0.101833,1.65365 -0.03806,1.65365 0.06377,0 0.505773,-0.23768 0.982233,-0.52818 1.041575,-0.63505 2.827322,-0.69264 3.922138,-0.12649 0.593606,0.30697 0.780611,0.58846 0.780611,1.17501 0,0.42424 0.119062,0.84493 0.264583,0.93487 0.380576,0.2352 0.325773,1.09857 -0.125074,1.97041 -0.417331,0.80703 -2.288177,1.86604 -3.29654,1.86604 -0.577964,0 -0.560719,0.0531 0.341403,1.05167 1.09211,1.20883 1.358497,2.00691 1.110723,3.32766 -0.121266,0.6464 -0.368062,1.00942 -0.797168,1.17256 -0.341838,0.12997 -0.699648,0.36271 -0.795132,0.51721 -0.284541,0.4604 -2.068784,0.31563 -2.905176,-0.23571 -0.428132,-0.28223 -1.03757,-0.94253 -1.354307,-1.46734 l -0.575885,-0.9542 -0.630068,1.25689 c -0.704416,1.4052 -1.550656,2.12559 -2.779402,2.36604 -0.656155,0.12841 -0.908193,0.045 -1.223341,-0.40496 z m 4.166425,-6.68598 c 0.291042,0.0329 0.657556,-0.0303 0.814477,-0.14045 0.442672,-0.31072 1.164025,-1.92005 0.860623,-1.92005 -0.147795,0 -0.57473,-0.24071 -0.948744,-0.53491 l -0.680026,-0.53491 -0.569384,0.53491 c -0.313161,0.2942 -0.77007,0.53491 -1.015352,0.53491 -0.581984,0 -0.562504,0.14805 0.10766,0.81821 0.328378,0.32838 0.499891,0.75912 0.42155,1.0587 -0.08817,0.33717 -0.03034,0.44169 0.173975,0.31443 0.16833,-0.10485 0.54418,-0.16373 0.835221,-0.13084 z"
       id="path9" /><path
       style="fill:#000000"
       d="m 57.877603,211.86704 c -0.545703,-0.61646 -0.992187,-1.22116 -0.992187,-1.34378 0,-0.26512 2.169763,-2.55008 2.427502,-2.55639 0.210643,-0.005 2.327985,2.17343 2.332146,2.39961 0.0076,0.41086 -1.972916,2.623 -2.347647,2.62225 -0.235194,-4.7e-4 -0.874111,-0.50523 -1.419814,-1.12169 z"
       id="path8" /><path
       style="fill:#000000"
       d="m 154.11979,219.20936 c -1.38612,-0.48668 -2.65857,-1.97534 -3.07403,-3.5964 -0.18331,-0.71525 -0.41541,-1.30046 -0.51576,-1.30046 -0.10036,0 -0.32918,0.3542 -0.5085,0.7871 -0.17931,0.43291 -0.83781,1.25885 -1.46332,1.83543 -1.84678,1.7023 -4.37487,2.03815 -4.90218,0.65124 -0.1629,-0.42846 -0.4477,-0.62794 -0.89654,-0.62794 -0.54776,0 -0.70739,-0.18411 -0.95414,-1.10046 -0.54652,-2.02962 0.43586,-4.56932 2.24374,-5.80063 1.13376,-0.77218 1.18495,-1.03641 0.20081,-1.03641 -1.17666,0 -3.4362,-1.26955 -4.16289,-2.33897 -0.83618,-1.23055 -0.88109,-2.76192 -0.0971,-3.31105 0.40276,-0.2821 0.50482,-0.54475 0.37303,-0.96 -0.24497,-0.77182 0.46928,-1.52031 1.79016,-1.87598 1.4202,-0.38242 2.79855,-0.10319 4.47562,0.90669 l 1.40569,0.84646 0.006,-1.99138 c 0.007,-2.34852 0.69602,-3.95026 2.05506,-4.77891 1.07765,-0.65707 1.83255,-0.65821 2.42492,-0.004 0.42791,0.47282 0.51865,0.48234 1.0816,0.11348 1.06364,-0.69692 2.51691,0.54333 3.07252,2.62213 0.28726,1.07479 0.2757,1.49694 -0.076,2.77813 -0.22812,0.83091 -0.49879,1.70304 -0.60148,1.93806 -0.16653,0.38112 -0.035,0.37491 1.21695,-0.0575 1.77709,-0.61379 2.72034,-0.61483 4.0495,-0.004 1.46936,0.67473 2.08953,1.42865 1.87578,2.28033 -0.10491,0.41796 -0.0258,0.89031 0.20397,1.2184 1.13657,1.62267 -1.74831,4.20574 -4.69715,4.20574 h -1.44785 l 0.89844,1.33508 c 0.99628,1.48047 1.32395,2.71746 1.09446,4.13165 -0.23319,1.43697 -0.8504,2.20619 -1.77021,2.20619 -0.51533,0 -0.78765,0.13399 -0.78765,0.38757 0,0.36843 -0.77833,0.94854 -1.23937,0.92373 -0.11871,-0.006 -0.69208,-0.17882 -1.27417,-0.38319 z m -1.06171,-8.86014 c 0.0881,-0.14251 0.035,-0.4929 -0.11789,-0.77863 -0.4102,-0.76647 0.14867,-1.82395 1.01721,-1.92472 0.99465,-0.11541 0.85221,-0.59407 -0.20687,-0.69519 -1.20568,-0.11512 -1.61511,-0.59163 -1.61511,-1.8797 0,-0.74438 -0.11389,-1.07723 -0.36857,-1.07723 -0.41954,0 -0.68977,0.56105 -0.68977,1.43214 0,0.8322 -1.15756,1.44425 -1.87917,0.99359 -0.28798,-0.17984 -0.63782,-0.2564 -0.77742,-0.17012 -0.45216,0.27945 -0.26944,0.82734 0.37364,1.12034 0.70027,0.31907 1.14396,1.57304 0.7101,2.0069 -0.34488,0.34488 -0.36646,0.96715 -0.0335,0.96715 0.13512,0 0.42427,-0.17859 0.64255,-0.39687 0.57163,-0.57163 1.68442,-0.49883 2.02218,0.13229 0.3072,0.57402 0.6693,0.68 0.92266,0.27005 z"
       id="path7" /><path
       style="fill:#000000"
       d="m 161.23195,230.91315 c -0.89071,-1.36274 -0.91245,-1.4376 -0.63193,-2.17543 0.22331,-0.58734 0.40385,-0.68705 1.11812,-0.61752 0.58255,0.0567 0.96906,0.29288 1.22273,0.74713 0.32716,0.58586 0.31253,0.78647 -0.12404,1.7007 -0.27222,0.57007 -0.61402,1.07397 -0.75954,1.11978 -0.14552,0.0458 -0.51692,-0.30279 -0.82534,-0.77466 z"
       id="path6" /><path
       style="fill:#000000"
       d="m 173.23594,231.26422 c -0.5457,-0.56219 -0.99219,-1.145 -0.99219,-1.29513 0,-0.47925 0.81127,-1.10451 1.4331,-1.10451 0.33085,0 0.81705,-0.23812 1.08044,-0.52916 0.26339,-0.29104 0.56691,-0.52917 0.67449,-0.52917 0.40288,0 1.83905,1.55283 1.83905,1.98843 0,0.53599 -2.07323,2.48692 -2.64583,2.48975 -0.21828,0.001 -0.84336,-0.45801 -1.38906,-1.02021 z"
       id="path5" /><path
       style="fill:#000000"
       d="m 164.19524,234.3903 c -0.86963,-0.68405 -0.81578,-1.43883 0.15412,-2.1602 0.94231,-0.70085 1.90181,-0.45017 2.34169,0.61179 0.74484,1.79822 -0.88933,2.81207 -2.49581,1.54841 z"
       id="path4" /><path
       style="fill:#000000"
       d="m 158.68386,234.92665 c -0.61447,-0.35503 -0.61259,-1.73007 0.003,-2.05942 0.88576,-0.47405 2.70916,0.14411 2.70916,0.91844 0,0.74873 -1.96212,1.57422 -2.71197,1.14098 z"
       id="path3" /><path
       style="fill:#000000"
       d="m 160.77446,238.10194 c -0.41698,-0.59533 -0.28047,-1.43531 0.50087,-3.08185 0.79156,-1.66811 1.97259,-0.65676 1.97259,1.68918 0,1.62373 -1.65782,2.55715 -2.47346,1.39267 z"
       id="path2" /><path
       style="fill:#000000"
       d="m 54.024889,238.90844 c -0.889781,-0.82895 -0.72725,-1.78651 0.605411,-3.56677 0.651457,-0.87026 1.070108,-1.62134 0.930336,-1.66906 -0.139772,-0.0477 -0.90465,0.15663 -1.699729,0.45411 -1.172352,0.43863 -1.599315,0.48728 -2.258838,0.25737 -1.450626,-0.50569 -1.795978,-2.1684 -0.681805,-3.28257 0.821155,-0.82116 1.599101,-0.81847 3.476988,0.012 0.822621,0.3638 1.540391,0.66146 1.595044,0.66146 0.356363,0 -0.05166,-0.9006 -0.958964,-2.11667 -1.420369,-1.90372 -1.414459,-3.10501 0.01892,-3.84624 1.044749,-0.54026 1.690694,-0.48425 2.506322,0.21732 0.826685,0.71109 0.90221,1.73208 0.277813,3.75565 -0.223566,0.72454 -0.306805,1.41703 -0.184975,1.53886 0.121829,0.12183 0.80299,-0.47098 1.513691,-1.31735 1.593606,-1.89782 1.633076,-1.9267 2.640239,-1.93168 1.437902,-0.007 2.273944,1.53031 1.571182,2.8893 -0.228426,0.44173 -0.681045,0.854 -1.00582,0.91616 -3.032043,0.58028 -3.67842,0.79473 -3.277977,1.08754 0.226457,0.16559 0.92378,0.4527 1.549608,0.63801 1.622339,0.48039 1.89039,0.64752 2.266476,1.41314 0.591019,1.20318 -0.50303,2.57679 -2.052345,2.57679 -0.663878,0 -1.746047,-0.9701 -2.345441,-2.10256 -0.81551,-1.54078 -1.097051,-1.32696 -1.027073,0.78001 0.05923,1.78345 0.01945,1.93187 -0.67944,2.53451 -0.906741,0.78187 -2.00571,0.82167 -2.779627,0.10065 z"
       id="path1" /></g></svg>
