<?xml version="1.0" encoding="UTF-8" standalone="no"?>
<!-- Created with Inkscape (http://www.inkscape.org/) -->

<svg
   width="344.30051mm"
   height="307.4003mm"
   viewBox="0 0 344.30051 307.4003"
   version="1.1"
   id="svg1"
   xml:space="preserve"
   sodipodi:docname="stamp_goal_cherry_blossom_2.svg"
   inkscape:version="1.4.4 (dcaf3e7, 2026-05-05)"
   xmlns:inkscape="http://www.inkscape.org/namespaces/inkscape"
   xmlns:sodipodi="http://sodipodi.sourceforge.net/DTD/sodipodi-0.dtd"
   xmlns="http://www.w3.org/2000/svg"
   xmlns:svg="http://www.w3.org/2000/svg"><sodipodi:namedview
     id="namedview1"
     pagecolor="#ffffff"
     bordercolor="#000000"
     borderopacity="0.25"
     inkscape:showpageshadow="2"
     inkscape:pageopacity="0.0"
     inkscape:pagecheckerboard="0"
     inkscape:deskcolor="#d1d1d1"
     inkscape:document-units="mm"
     inkscape:zoom="0.02237853"
     inkscape:cx="670.28531"
     inkscape:cy="558.57109"
     inkscape:window-width="944"
     inkscape:window-height="250"
     inkscape:window-x="0"
     inkscape:window-y="33"
     inkscape:window-maximized="0"
     inkscape:current-layer="layer1"><inkscape:page
       x="0"
       y="3.1101623e-39"
       width="344.30051"
       height="307.4003"
       id="page2"
       margin="0"
       bleed="0" /></sodipodi:namedview><defs
     id="defs1" /><g
     inkscape:label="Layer 1"
     inkscape:groupmode="layer"
     id="layer1"
     transform="translate(60.758573,-15.655974)"><path
       style="fill:#000000"
       d="m 38.784981,322.24221 c -0.376738,-0.44773 -0.690671,-1.13234 -0.69763,-1.52136 -0.007,-0.38902 -0.337014,-3.86246 -0.733458,-7.71876 l -0.720806,-7.01146 -3.301438,-0.72208 c -1.81579,-0.39715 -6.566239,-1.51341 -10.556551,-2.48059 -8.064963,-1.9548 -8.706591,-2.25078 -8.383296,-3.86726 0.08989,-0.44942 0.288598,-0.96796 0.441584,-1.15229 0.152987,-0.18434 2.116811,-1.48353 4.364054,-2.8871 2.247243,-1.40356 4.085897,-2.59438 4.085897,-2.64627 0,-0.0519 -0.327422,-0.43091 -0.727604,-0.84229 -0.400183,-0.41137 -1.10785,-1.19094 -1.572595,-1.73237 l -0.844991,-0.98442 -2.330009,0.28955 c -3.280038,0.40761 -9.8627902,0.12788 -13.4425087,-0.57124 -11.8930838,-2.32271 -23.7985003,-9.57504 -32.3138743,-19.68439 -7.425256,-8.81518 -12.72548,-19.84669 -14.687317,-30.56915 -0.804913,-4.39927 -0.981104,-12.63731 -0.364211,-17.02922 0.449546,-3.2005 1.765975,-8.78844 2.717367,-11.53461 l 0.494828,-1.4283 -3.063042,-3.06961 c -13.874328,-13.90409 -20.350894,-34.19841 -17.06824,-53.48333 1.480854,-8.69971 5.416928,-17.82 10.900305,-25.25712 2.375686,-3.22215 8.135132,-8.91712 10.843471,-10.72207 1.195627,-0.79682 2.177893,-1.59579 2.182812,-1.77549 0.0049,-0.17971 -0.275351,-1.3108 -0.622823,-2.51355 -2.203694,-7.6279 -2.272277,-17.315013 -0.179572,-25.363823 2.760413,-10.616898 7.702478,-19.34265 15.208966,-26.853079 3.600747,-3.602637 5.692187,-5.318647 9.708269,-7.965555 6.7835565,-4.470889 14.292617,-7.442219 22.725353,-8.992406 3.628218,-0.666975 12.90709,-0.652725 16.404166,0.02519 1.382448,0.267991 2.829365,0.543501 3.215371,0.612244 0.628805,0.111982 0.846666,-0.0911 2.093816,-1.951781 2.758455,-4.115466 7.934718,-9.64765 11.756437,-12.564811 4.571542,-3.489509 10.657808,-6.825095 16.101669,-8.824539 10.988415,-4.035871 23.130182,-4.793659 33.792973,-2.109077 5.708977,1.437355 11.490117,3.892071 16.076907,6.826372 l 2.20696,1.411861 2.13867,-1.431493 c 6.26065,-4.190491 15.17655,-7.30455 23.72433,-8.286205 3.45662,-0.396969 11.59706,-0.188311 15.2314,0.390415 15.77523,2.512021 29.7069,11.249517 38.63479,24.2305 0.85072,1.236927 1.56474,2.278876 1.58671,2.315441 0.022,0.03657 1.16096,-0.164732 2.5311,-0.447328 23.93908,-4.937533 49.05653,7.986948 59.94905,30.847493 2.43256,5.105309 3.9691,9.943443 5.02915,15.835438 0.68186,3.789911 0.67567,13.467443 -0.011,17.197923 -0.4113,2.23448 -1.28186,5.8976 -1.88638,7.9375 -0.12775,0.43107 0.27458,0.84628 2.1705,2.23996 4.54245,3.33912 9.90968,9.02601 13.11833,13.89962 9.28756,14.1069 11.40598,33.25174 5.60212,50.62815 -2.97884,8.91844 -8.69625,17.8124 -15.69447,24.41416 l -2.69199,2.53948 0.94493,3.27785 c 1.69642,5.88468 2.06481,8.60282 2.07584,15.31641 0.007,4.403 -0.10985,6.70807 -0.44967,8.85245 -3.83754,24.21617 -19.80071,44.10404 -41.09725,51.20139 -6.84994,2.28284 -14.59311,3.18511 -20.59927,2.40033 -1.56242,-0.20415 -1.59788,-0.19439 -2.24466,0.61764 -0.36144,0.45378 -1.16511,1.37319 -1.78594,2.04313 -0.62082,0.66993 -1.12877,1.27998 -1.12877,1.35566 0,0.0757 1.45851,1.06412 3.24114,2.19653 4.04118,2.56715 4.27302,2.78206 4.27302,3.96099 0,0.58367 -0.19483,1.12528 -0.51593,1.43427 -0.49619,0.47746 -5.20757,1.69571 -17.30858,4.4756 l -4.35723,1.00096 -0.58366,5.54042 c -0.32101,3.04723 -0.667,6.53112 -0.76886,7.74198 -0.22512,2.67609 -0.90743,3.75157 -2.3801,3.75157 -1.36864,0 -8.82852,-3.41266 -23.40397,-10.70658 -11.9804,-5.99529 -21.3243,-11.16539 -31.10146,-17.20884 l -2.79908,-1.73016 -1.08655,0.93005 c -2.01078,1.72115 -5.47656,2.52969 -10.77888,2.51461 -6.22759,-0.0177 -9.93699,-0.83797 -11.999448,-2.65342 -0.652064,-0.57397 -1.242639,-1.04358 -1.31239,-1.04358 -0.125226,0 -7.030334,4.16067 -15.005521,9.04156 -7.432964,4.54906 -22.350827,12.35798 -35.189582,18.42038 -5.884375,2.77857 -6.670552,2.94244 -7.781688,1.62193 z m 138.750429,-4.44258 c 0,-0.12625 0.23083,-2.5968 0.51296,-5.49011 0.28212,-2.8933 0.59346,-6.18007 0.69187,-7.30392 0.0984,-1.12385 0.31406,-2.15423 0.47923,-2.28974 0.16518,-0.1355 2.68157,-0.78218 5.59199,-1.43706 10.07328,-2.26661 12.82922,-2.96222 12.74562,-3.21705 -0.0891,-0.27152 -6.48439,-4.1508 -12.21646,-7.41027 -4.35098,-2.47414 -14.99504,-8.07415 -15.34583,-8.07369 -0.162,2.1e-4 -0.28107,1.4616 -0.30711,3.76909 -0.10856,9.62169 -2.80242,14.02221 -9.42081,15.38928 -3.39365,0.70098 -11.9583,0.40559 -16.06895,-0.5542 -1.26393,-0.29511 -0.16471,0.37634 4.89479,2.98995 5.31272,2.74443 27.9064,13.81766 28.24427,13.84261 0.10914,0.008 0.19843,-0.0886 0.19843,-0.21489 z M 55.447819,311.43169 c 13.020956,-6.50196 19.90794,-10.1322 19.4877,-10.27228 -0.131153,-0.0437 -1.358813,0.10987 -2.728134,0.3413 -3.871015,0.65423 -11.003887,0.81094 -13.686317,0.30067 -6.557102,-1.24732 -9.280512,-4.76872 -10.131663,-13.10035 -0.153814,-1.50563 -0.2399,-3.44062 -0.191303,-4.29996 0.0486,-0.85935 -0.01358,-1.56223 -0.138179,-1.56196 -0.382135,8.1e-4 -11.885955,6.51353 -17.765128,10.05747 -7.668115,4.62231 -8.334375,5.04289 -8.334375,5.26113 0,0.20655 2.850759,0.90254 12.159665,2.96867 3.268075,0.72536 6.09581,1.44652 6.283853,1.60259 0.188044,0.15606 0.341898,0.686 0.341898,1.17764 0,0.87521 0.913345,10.51252 1.206777,12.7335 0.08546,0.64682 0.289646,1.12448 0.480689,1.12448 0.182669,0 6.039202,-2.8498 13.014517,-6.3329 z m 16.254266,-13.90896 c 6.37667,-1.06227 14.213854,-3.59394 20.602793,-6.65536 l 2.478835,-1.1878 -0.18388,-0.9726 c -0.101133,-0.53492 -0.32364,-2.00461 -0.49446,-3.26596 -0.170819,-1.26136 -0.383697,-2.36635 -0.473061,-2.45554 -0.191916,-0.19154 -6.912172,-1.55632 -9.760212,-1.98214 -1.091856,-0.16325 -3.746379,-0.45602 -5.898939,-0.6506 -3.450409,-0.31191 -3.990638,-0.42603 -4.563244,-0.96396 -1.115785,-1.04823 -0.714678,-3.11796 0.719363,-3.71196 1.321588,-0.54742 8.528856,0.4691 15.916828,2.24492 2.471942,0.59418 3.688534,0.7836 3.748652,0.58366 0.04895,-0.16281 0.162643,-1.10988 0.252646,-2.10461 0.09,-0.99474 0.397347,-2.42349 0.682985,-3.175 0.285639,-0.75152 0.519403,-1.45485 0.519476,-1.56295 1.75e-4,-0.25704 -6.098288,-3.30689 -9.066247,-4.53404 -5.456485,-2.25607 -13.288312,-4.6008 -19.244035,-5.76139 -2.224957,-0.43357 -4.038231,-0.59663 -6.746875,-0.60672 -3.473375,-0.0129 -3.777711,0.0274 -4.884551,0.64766 -1.401255,0.78523 -2.240892,1.94594 -2.8589,3.95212 -0.580522,1.88451 -0.569696,8.89298 0.01868,12.09366 0.309253,1.68229 0.339087,2.64015 0.135973,4.36562 -0.494094,4.19736 0.171363,9.76832 1.47387,12.33869 1.139827,2.24934 3.039733,3.35654 6.644094,3.87192 1.567186,0.22409 8.516349,-0.0972 10.980208,-0.50762 z m 86.378245,0.38574 c 4.93684,-0.71346 6.56998,-2.81465 7.31182,-9.40738 0.24276,-2.15738 0.24049,-3.46939 -0.0101,-5.87335 -0.26044,-2.49794 -0.25615,-3.45295 0.0222,-4.94753 0.5309,-2.85071 0.46971,-10.48504 -0.0987,-12.31975 -0.62227,-2.00845 -1.46158,-3.16763 -2.86152,-3.95212 -1.09196,-0.61191 -1.42812,-0.65974 -4.48767,-0.63842 -4.76053,0.0332 -10.03507,1.10159 -17.64694,3.5746 -6.67108,2.16736 -16.422,6.76001 -16.30625,7.68019 0.0252,0.20011 0.23146,1.19727 0.45843,2.21592 0.22696,1.01865 0.41472,2.47716 0.41725,3.24115 0.003,0.76398 0.074,1.38906 0.15895,1.38906 0.0849,0 1.10708,-0.24325 2.27152,-0.54056 3.39603,-0.86709 9.36256,-2.04108 12.7014,-2.49917 2.71623,-0.37266 3.19935,-0.37755 4.00592,-0.0405 1.24112,0.51857 1.73067,1.87504 1.10993,3.07543 -0.53141,1.02763 -1.03481,1.21725 -3.83896,1.44608 -4.4147,0.36025 -15.3164,2.15104 -16.12065,2.6481 -0.11333,0.07 -0.28468,1.07022 -0.38079,2.22262 -0.0961,1.1524 -0.33882,2.6405 -0.53938,3.30689 -0.4304,1.4301 -0.52988,1.31391 2.35644,2.7524 10.03855,5.00305 23.40246,7.83332 31.47721,6.66638 z m -43.3981,-5.27534 c 0.86507,-0.14166 2.1783,-0.56389 2.91828,-0.93829 1.08759,-0.55027 1.45362,-0.91894 1.90994,-1.92372 0.88746,-1.95408 1.18273,-3.39522 1.36599,-6.66693 0.45561,-8.13384 -0.57729,-11.26656 -4.19519,-12.72388 -0.70916,-0.28565 -2.44585,-0.37301 -7.4154,-0.37301 -6.43984,0 -6.49937,0.005 -7.80278,0.67591 -2.860635,1.47213 -3.696705,4.13619 -3.482939,11.09804 0.13094,4.26438 0.427902,6.07101 1.282975,7.80521 0.215253,0.43657 0.345679,0.99408 0.289836,1.23892 -0.106541,0.46713 0.825248,1.1423 1.230668,0.89174 0.12705,-0.0785 0.67859,0.0442 1.22565,0.27282 0.54705,0.22857 1.72055,0.51034 2.60779,0.62615 2.34528,0.30613 8.23886,0.31611 10.06518,0.017 z m 81.06855,-4.85298 c 1.34227,-1.50279 2.63781,-3.02084 2.87899,-3.37344 0.63924,-0.93454 0.80681,-0.99502 2.00857,-0.725 1.99988,0.44934 6.89433,0.67382 9.88216,0.45323 11.44167,-0.84474 22.72177,-6.22114 31.58282,-15.05323 4.86322,-4.84733 8.55895,-10.10346 11.75528,-16.71859 4.31528,-8.93087 6.22843,-16.81342 6.22525,-25.64916 -0.002,-6.52528 -1.05154,-12.34816 -3.20821,-17.80514 -0.57071,-1.44406 -0.94518,-2.70384 -0.83217,-2.79952 0.11302,-0.0957 1.09845,-0.89218 2.18986,-1.77002 4.3248,-3.4785 9.51785,-9.58594 12.61031,-14.83075 8.39753,-14.24215 10.075,-31.91954 4.46288,-47.03041 -2.16041,-5.817 -5.738,-11.42635 -10.37366,-16.26496 -3.39771,-3.54646 -5.83528,-5.60066 -9.46911,-7.97986 l -2.45091,-1.6047 0.90673,-2.28878 c 2.25514,-5.69243 3.13481,-11.20993 2.91509,-18.284046 -0.15695,-5.052886 -0.536,-7.58562 -1.80352,-12.050569 -6.06245,-21.355517 -25.07538,-36.714982 -46.56607,-37.618087 -4.83227,-0.203067 -8.72309,0.200981 -13.46716,1.398517 -2.76651,0.698346 -3.61754,0.826626 -3.77441,0.568939 -0.11139,-0.182987 -0.80239,-1.344735 -1.53555,-2.581662 -8.88254,-14.985949 -26.98449,-25.102225 -44.96781,-25.130252 -11.06872,-0.01725 -22.25548,3.663441 -30.4219,10.009483 l -1.69242,1.315165 -1.46802,-1.066275 C 102.03769,24.29127 91.766052,20.89311 80.928545,20.906925 67.075918,20.924583 53.17361,26.5704 42.897707,36.351492 39.92981,39.176478 35.807475,44.587026 34.174236,47.801013 l -0.560028,1.102059 -1.659707,-0.50708 c -4.289395,-1.310513 -7.222515,-1.692436 -12.904497,-1.680303 -4.869588,0.0104 -5.77551,0.08559 -8.863542,0.735667 -22.820322,4.804022 -40.139599,22.931933 -43.138672,45.152808 -0.911911,6.756579 -0.231008,13.281706 2.101949,20.143076 l 1.136337,3.34204 -1.730825,1.01249 c -10.735957,6.28027 -19.422144,18.38868 -22.826783,31.82019 -3.524567,13.90462 -1.028742,29.30828 6.84331,42.23533 3.28336,5.39175 8.756303,11.59085 12.868656,14.57609 l 0.756284,0.549 -1.201854,3.15879 c -5.495713,14.4442 -4.634271,28.82713 2.581622,43.10363 3.401778,6.73034 6.495797,11.07441 11.463694,16.09525 8.101308,8.18766 17.3719074,13.29156 27.2884525,15.0236 4.5971535,0.80294 11.3142105,0.71554 14.9974755,-0.19514 0.4414,-0.10913 0.830689,0.21159 1.884631,1.55271 0.730576,0.92964 1.978104,2.38835 2.772286,3.24158 l 1.443966,1.55132 1.169319,-0.66814 c 0.643125,-0.36747 2.479006,-1.42443 4.079735,-2.3488 1.600729,-0.92436 5.767916,-3.26062 9.260416,-5.19169 6.096184,-3.37069 6.346554,-3.54038 6.26378,-4.24534 -0.04742,-0.40388 -0.126594,-0.7747 -0.175939,-0.82404 -0.102689,-0.10269 -8.108741,4.25263 -12.420299,6.75668 l -2.892874,1.68012 -1.295708,-1.2651 c -1.732603,-1.69167 -4.27531,-5.07892 -5.2253,-6.96083 l -0.770653,-1.52666 -1.561696,0.6308 c -7.186745,2.90285 -18.543583,1.75133 -27.5458463,-2.79299 -7.3526457,-3.71161 -14.7722087,-10.71779 -20.1949967,-19.06983 -5.570111,-8.57895 -8.560864,-20.36584 -7.643612,-30.12434 0.571264,-6.07758 2.012074,-11.31587 4.582065,-16.65881 0.865328,-1.79899 1.5371,-3.29424 1.492828,-3.32277 -5.002674,-3.22395 -5.8775,-3.91437 -9.212281,-7.27046 -4.359264,-4.38711 -6.541564,-7.40152 -9.117653,-12.59421 -6.857703,-13.82325 -7.061354,-29.75414 -0.546854,-42.77849 4.426505,-8.84985 11.366864,-15.84378 20.299228,-20.45593 l 3.35502,-1.73233 -1.4218,-2.9708 c -6.921054,-14.46125 -4.888477,-30.625408 5.530458,-43.981205 1.611542,-2.0658 5.686706,-6.189121 7.7021352,-7.793155 5.3086261,-4.225013 11.828437,-7.451563 18.4367289,-9.124042 8.1729579,-2.068476 17.6067469,-1.493444 24.4257689,1.488862 1.309688,0.572793 2.534054,1.107834 2.720813,1.188981 0.218712,0.09503 0.495749,-0.263945 0.778412,-1.008637 0.705155,-1.857776 3.062896,-6.336084 4.308352,-8.183311 7.840405,-11.62868 20.756153,-18.986569 35.820364,-20.406274 11.491796,-1.083027 24.139668,3.223138 33.046588,11.251226 l 2.06203,1.858573 1.90672,-1.868903 c 6.90604,-6.769075 16.70423,-10.868659 27.70359,-11.591247 8.3984,-0.551721 19.07182,2.240834 26.71257,6.988978 7.08654,4.40374 13.33316,11.172264 17.18454,18.620302 0.69368,1.341485 1.39828,2.840227 1.56577,3.330538 0.35163,1.029371 0.26225,1.038604 3.40218,-0.351428 2.52067,-1.115892 6.23266,-2.107808 9.53136,-2.546967 3.24741,-0.43233 10.8801,-0.155409 13.96712,0.506741 5.5518,1.19083 11.68418,3.877267 16.2709,7.127865 2.98291,2.113981 7.73364,6.761178 9.93466,9.718148 5.80942,7.804702 9.11631,17.54425 9.11631,26.849615 0,6.83359 -1.88669,14.05052 -5.02259,19.21232 -0.58455,0.96219 -1.06247,1.82657 -1.06204,1.92084 4.3e-4,0.0943 0.92317,0.60772 2.05052,1.141 2.72067,1.28699 7.07834,4.21686 9.84849,6.62161 4.15184,3.60418 8.12568,8.756 10.67549,13.84003 5.51506,10.9964 6.33115,24.02524 2.27049,36.24792 -3.53587,10.64305 -10.02313,19.2682 -18.91998,25.15513 l -2.93774,1.94386 1.52164,2.98697 c 1.76685,3.46829 3.15293,7.39177 3.99958,11.32134 0.51431,2.38702 0.59868,3.56032 0.59933,8.33437 6.9e-4,5.0566 -0.0648,5.86556 -0.7281,8.99583 -3.52072,16.61467 -14.02284,30.59739 -28.0198,37.30609 -5.00244,2.39766 -9.05903,3.54788 -14.56361,4.12945 -4.24861,0.44887 -9.81201,-0.15047 -12.5507,-1.35208 -1.09647,-0.48108 -1.11547,-0.4805 -1.28023,0.0386 -0.35802,1.12804 -3.34314,5.23002 -5.36382,7.37064 l -2.12293,2.24896 -1.14543,-0.64026 c -0.62999,-0.35214 -4.77684,-2.46758 -9.21523,-4.70096 -7.18455,-3.61526 -8.07907,-4.00215 -8.15434,-3.52693 -0.0465,0.29358 -0.20525,0.53378 -0.35278,0.53378 -0.79573,0 0.49105,0.76255 6.12587,3.63023 5.99326,3.05009 14.32093,7.59629 16.35073,8.9261 0.53871,0.35294 1.04625,0.64871 1.12786,0.65727 0.0816,0.009 1.24659,-1.21399 2.58886,-2.71679 z M 21.96042,273.96117 c 1.336087,-0.51822 2.495924,-1.30428 4.201992,-2.84781 l 1.159284,-1.04883 4.264674,0.18616 c 4.437194,0.1937 12.152735,0.985 14.196641,1.456 1.839292,0.42385 1.841992,0.42232 1.841992,-1.04624 0,-0.82524 -0.125706,-1.37636 -0.33073,-1.44999 -0.886726,-0.31844 -7.040202,-0.93929 -12.044736,-1.21525 -8.244631,-0.45463 -19.627178,0.28509 -26.9237695,1.74969 -3.8456863,0.77193 -7.53201301,1.73897 -7.53201301,1.97589 0,0.0952 0.76502081,0.4431 1.70004611,0.77319 l 1.7000462,0.60017 2.2025579,-0.54155 c 4.1678333,-1.02476 12.9859453,-2.1631 16.5586183,-2.13758 l 1.518939,0.0108 -1.146274,1.03663 c -1.945678,1.75956 -4.993362,2.64292 -9.142443,2.64989 -1.730024,0.003 -2.299154,0.0807 -2.014408,0.27536 0.670948,0.45867 8.372452,0.12308 9.789583,-0.42658 z m 182.03333,0.44557 c 0,-0.12693 -0.49874,-0.31052 -1.1083,-0.408 -1.41172,-0.22574 -3.90268,-1.548 -4.88199,-2.59148 l -0.75659,-0.80616 2.38125,0.17332 c 4.08111,0.29703 10.72542,1.2006 13.62388,1.85271 l 2.77596,0.62456 1.58509,-0.50638 c 0.87181,-0.27851 1.68692,-0.60819 1.81136,-0.73264 0.4288,-0.42879 -7.3723,-2.11857 -13.44629,-2.91256 -10.5904,-1.38438 -22.85123,-1.32876 -32.74219,0.14855 l -2.84427,0.42481 v 1.29139 c 0,1.533 0.048,1.72359 0.39688,1.57745 0.70456,-0.2951 6.00552,-1.08385 9.80796,-1.45937 4.75509,-0.46959 13.01625,-0.78758 13.69492,-0.52715 0.24305,0.0933 0.44191,0.44986 0.44191,0.79242 0,0.34257 0.24861,0.85447 0.55248,1.13756 0.57747,0.538 1.67373,0.95553 1.41665,0.53956 -0.22573,-0.36523 0.0655,-0.29253 1.25115,0.31236 1.66662,0.85024 6.04014,1.62432 6.04014,1.06905 z m -80.78112,-5.90077 c 0.33681,-0.31641 0.61237,-0.72431 0.61237,-0.90645 0,-0.46208 6.01301,-3.46326 10.45104,-5.21626 10.95944,-4.32892 23.04551,-6.47436 28.58556,-5.07433 1.25048,0.31601 1.77014,0.61727 2.5102,1.45521 0.55124,0.62415 1.16942,1.0567 1.5102,1.0567 0.40753,0 0.79059,0.36456 1.30454,1.24154 0.75564,1.28941 1.93808,5.24088 1.93964,6.4819 5e-4,0.3916 0.13771,0.79655 0.30492,0.89989 0.22226,0.13736 0.26649,-0.27956 0.16449,-1.55033 l -0.13953,-1.73823 1.62145,-0.27499 c 0.89179,-0.15124 2.93113,-0.40915 4.53186,-0.57314 1.60073,-0.16399 3.17831,-0.34987 3.50573,-0.41307 0.59473,-0.11479 0.59531,-0.12032 0.59531,-5.6505 0,-3.04458 -0.10692,-5.60168 -0.23762,-5.68245 -0.22622,-0.13982 -9.12217,0.49095 -12.19779,0.86488 l -1.45521,0.17693 -0.13229,2.1166 c -0.0728,1.16412 -0.19183,2.09319 -0.26459,2.06458 -0.0728,-0.0286 -0.5851,-0.2412 -1.13854,-0.47245 -0.55344,-0.23124 -1.35711,-0.49061 -1.78594,-0.57637 -0.72361,-0.14472 -0.77968,-0.24097 -0.77968,-1.33832 v -1.18238 l -1.25677,0.14817 c -0.69123,0.0815 -2.38787,0.21962 -3.77032,0.30695 -5.15245,0.32547 -14.42107,2.20973 -18.42229,3.74514 -0.29818,0.11442 -0.36312,-0.59637 -0.36312,-3.97439 0,-2.26255 -0.0918,-4.17046 -0.20399,-4.2398 -0.17384,-0.10745 -7.974,3.31456 -9.80457,4.30137 -0.5897,0.31789 -0.61317,0.44629 -0.5527,3.02366 0.0347,1.48043 0.107,2.77525 0.16059,2.87739 0.0536,0.10215 0.63958,-0.0467 1.30223,-0.33072 0.66265,-0.28405 1.67119,-0.51645 2.24121,-0.51645 0.8664,0 1.0364,0.0884 1.0364,0.53915 0,0.42834 -0.62522,0.83293 -3.04183,1.96842 -1.673,0.7861 -4.17764,2.09774 -5.56586,2.91475 l -2.52404,1.48547 -1.64403,-0.65493 c -1.33415,-0.53149 -4.5501,-1.18384 -6.09495,-1.23637 -0.17137,-0.006 0.0237,-0.19236 0.43358,-0.41452 0.61975,-0.33595 1.05083,-0.35651 2.56125,-0.12216 0.99885,0.15497 2.11649,0.39598 2.48364,0.53558 0.55479,0.21093 1.02646,0.0657 2.79209,-0.85944 l 2.12453,-1.11324 0.004,-2.85358 0.004,-2.85358 -0.59531,0.31272 c -1.28009,0.67244 -7.56225,4.86439 -9.12245,6.08721 l -1.64796,1.29161 h -3.17973 -3.17972 l -1.78689,-1.27281 c -3.1712,-2.25883 -9.383233,-6.13553 -9.831616,-6.13553 -0.115095,0 -0.197586,1.22039 -0.183314,2.71198 l 0.02595,2.71198 1.389062,0.7444 c 0.763985,0.40942 1.389063,0.84265 1.389063,0.96274 0,0.12009 -0.408053,0.2949 -0.906785,0.38846 -0.498732,0.0936 -0.952772,0.30807 -1.008979,0.47669 -0.06506,0.19517 -0.721076,-0.0369 -1.805193,-0.63871 -0.936651,-0.51992 -3.191282,-1.62824 -5.010293,-2.46295 -3.739144,-1.71582 -4.110367,-1.94839 -3.725033,-2.33372 0.455072,-0.45507 2.591845,-0.20605 4.151864,0.48387 0.820103,0.36269 1.539592,0.65943 1.598863,0.65943 0.05927,0 0.07422,-1.3958 0.03322,-3.10178 l -0.07454,-3.10178 -3.588935,-1.6481 c -1.973915,-0.90645 -4.59329,-2.05186 -5.820833,-2.54534 l -2.231898,-0.89724 -0.20443,3.99212 c -0.283421,5.53464 0.06151,5.30585 -5.646671,3.7453 -2.457207,-0.67177 -6.074992,-1.51626 -8.039523,-1.87663 -4.081444,-0.74869 -8.95613,-1.39723 -9.137669,-1.21569 -0.06751,0.0675 -0.122748,0.56367 -0.122748,1.10258 0,0.96074 -0.02253,0.98236 -1.156643,1.11019 -0.636154,0.0717 -1.529122,0.31619 -1.984375,0.5433 l -0.827732,0.41293 v -1.94848 c 0,-1.07167 -0.109836,-2.01637 -0.244081,-2.09933 -0.273345,-0.16894 -8.207262,-0.88088 -10.868418,-0.97527 l -1.719792,-0.061 v 5.67117 5.67117 l 1.984375,0.17671 c 1.091406,0.0972 2.922696,0.32253 4.069534,0.50075 1.709913,0.26573 2.110023,0.41913 2.223328,0.85241 0.09267,0.35435 0.286993,-0.0437 0.590062,-1.20854 0.578694,-2.22428 1.692243,-4.15779 2.394557,-4.15779 0.288159,0 1.039677,-0.47541 1.67004,-1.05645 2.654204,-2.44656 6.85377,-2.6812 16.436853,-0.91834 7.608806,1.39968 16.00144,4.23137 23.666415,7.98508 4.082259,1.99918 5.230446,2.45937 5.55625,2.22692 2.166335,-1.54554 4.187205,-1.88365 11.258585,-1.88365 7.44606,0 9.62888,0.4201 11.8604,2.28262 0.92259,0.77003 1.17277,0.77632 1.94702,0.0489 z m 104.86137,-0.91874 1.84891,-1.22945 v -4.06877 -4.06877 l -0.67098,-0.25511 c -0.77909,-0.29621 -7.08525,-1.84846 -7.50954,-1.84846 -0.19623,0 -0.28614,1.77947 -0.28614,5.66277 v 5.66277 l 1.91822,0.56891 c 1.05503,0.3129 2.0373,0.61276 2.18282,0.66634 0.52645,0.19387 0.69617,0.12034 2.51671,-1.09023 z M -0.53253989,266.83438 c 0.16717155,-0.10331 0.26796109,-2.26207 0.26796109,-5.73931 v -5.57371 l -0.8598958,0.17124 c -0.4729427,0.0942 -2.2588801,0.54107 -3.9687498,0.99308 l -3.1088541,0.82183 v 2.43966 c 0,1.34181 -0.075482,3.33262 -0.167739,4.42401 l -0.167739,1.98435 1.4909453,1.06764 1.4909453,1.06765 2.3775825,-0.74542 c 1.3076703,-0.40997 2.49816491,-0.81993 2.64554351,-0.91102 z M 217.22291,260.77404 v -5.66138 l -1.65364,-0.28026 c -2.89002,-0.48981 -8.41037,-1.17533 -8.52683,-1.05887 -0.0617,0.0617 -0.14783,2.4894 -0.19138,5.39486 l -0.0792,5.28266 0.92604,0.18577 c 0.95534,0.19165 8.97338,1.71074 9.32656,1.76699 0.10915,0.0174 0.19844,-2.51601 0.19844,-5.62977 z M 6.8158262,265.3983 c 1.2717666,-0.27938 3.2648028,-0.63912 4.4289698,-0.79943 1.164166,-0.16032 2.503619,-0.35385 2.976562,-0.43008 l 0.859896,-0.1386 v -5.54426 c 0,-3.04934 -0.06045,-5.54426 -0.134344,-5.54426 -0.402886,0 -8.1610818,1.11961 -9.4232425,1.3599 l -1.4877951,0.28324 -0.1635509,1.36124 c -0.089953,0.74869 -0.1645858,3.29601 -0.1658507,5.66072 -0.00196,3.65978 0.057166,4.29948 0.3973764,4.29948 0.2198219,0 1.4402124,-0.22858 2.711979,-0.50795 z M 202.76232,261.87136 c 0.0935,-1.20055 0.17063,-3.63404 0.17151,-5.40775 l 0.002,-3.22493 -1.12448,-0.14215 c -1.36865,-0.17301 -10.97962,-0.68403 -12.86481,-0.68403 H 187.59 v 5.55625 5.55625 l 3.77031,0.0296 c 2.07367,0.0163 4.90141,0.11609 6.28386,0.22178 1.38244,0.1057 3.06144,0.21143 3.73109,0.23497 l 1.21756,0.0428 z m -175.840962,1.47657 5.622395,-0.17134 v -5.55074 -5.55074 l -4.960937,0.19585 c -2.728516,0.10771 -5.734844,0.27292 -6.680729,0.36713 l -1.719792,0.17129 -0.07206,5.15158 c -0.03964,2.83336 -0.0078,5.31915 0.07083,5.52396 0.104743,0.27296 0.40656,0.32725 1.130396,0.20336 0.543124,-0.093 3.517577,-0.24612 6.609895,-0.34035 z m -39.046924,-2.227 -0.08703,-2.14073 -0.69207,0.1737 c -0.380638,0.0955 -1.099658,0.344 -1.597822,0.55215 l -0.905752,0.37845 0.99346,1.12494 c 0.987789,1.11852 1.991204,2.03329 2.243951,2.04572 0.07276,0.004 0.09313,-0.95683 0.04526,-2.13423 z m 247.684116,-1.09472 c -0.55298,-0.25084 -1.14368,-0.4592 -1.31266,-0.46302 -0.29354,-0.007 -0.6349,3.06657 -0.36985,3.32969 0.0642,0.0637 0.69521,-0.45262 1.40231,-1.14738 l 1.28564,-1.2632 z m -121.78772,-1.58798 c 5.39413,-3.94145 14.54097,-8.97126 21.29896,-11.71222 1.74625,-0.70826 3.32383,-1.4 3.50573,-1.53719 0.46045,-0.34729 0.407,-2.83969 -0.0746,-3.47637 -0.5543,-0.73284 -0.48213,-2.44739 0.14579,-3.46338 0.51922,-0.84012 2.11993,-1.71832 3.10912,-1.70576 0.25172,0.003 0.94295,0.22622 1.53608,0.49561 1.66622,0.75676 2.41178,2.72948 1.61041,4.26108 -0.43605,0.83339 -0.0399,1.96152 0.59945,1.70688 2.83366,-1.12869 13.28502,-3.64513 19.06902,-4.59137 5.9673,-0.97623 7.76694,-1.11955 8.06979,-0.64265 0.14552,0.22915 0.71728,1.13013 1.27058,2.00218 0.5533,0.87205 0.96434,1.6272 0.91342,1.67811 -0.0509,0.0509 -1.6347,0.27647 -3.51953,0.50122 -5.18109,0.61781 -4.61759,0.15354 -4.61759,3.80449 0,1.71923 0.0564,3.1823 0.12542,3.25128 0.069,0.069 1.40843,-0.036 2.97656,-0.23334 1.56813,-0.19732 4.63708,-0.44228 6.81989,-0.54434 l 3.96875,-0.18558 0.0773,-2.05412 0.0773,-2.05412 -1.61923,-1.49912 c -3.13341,-2.90099 -5.23748,-6.65183 -5.85927,-10.4451 -0.17483,-1.06657 -0.3465,-1.98066 -0.3815,-2.03132 -0.035,-0.0507 -0.63733,0.34605 -1.33852,0.88159 -1.71237,1.3078 -4.5905,2.66294 -7.12798,3.35613 -2.92243,0.79835 -8.58558,0.80193 -11.52355,0.007 -2.64847,-0.71634 -6.04338,-2.13664 -6.22242,-2.60322 -0.0776,-0.20224 0.0527,-1.51495 0.28962,-2.91714 0.2369,-1.40218 0.36976,-2.61038 0.29526,-2.68489 -0.0745,-0.0745 -1.23711,-0.41326 -2.58357,-0.75278 -1.34645,-0.33953 -2.57502,-0.78905 -2.73015,-0.99894 -0.41875,-0.56658 0.0195,-4.10594 0.83687,-6.75939 1.98752,-6.45176 6.29079,-11.78851 11.73384,-14.55186 l 1.17617,-0.59712 -0.77929,-0.53821 c -0.42861,-0.29601 -1.5882,-1.3733 -2.57687,-2.39396 -2.11454,-2.18297 -4.10764,-5.91888 -4.95279,-9.28364 -0.5211,-2.07465 -0.73884,-7.40368 -0.36022,-8.81622 0.18665,-0.69634 2.28766,-1.80041 4.66394,-2.45088 l 1.5955,-0.43675 -0.0521,-2.3685 c -0.0286,-1.30267 0.0251,-2.56957 0.11941,-2.81533 0.21512,-0.5606 3.66536,-1.90695 5.94317,-2.31913 2.14805,-0.3887 6.84445,-0.39323 8.59896,-0.008 4.42561,0.97098 7.96074,2.84097 10.7029,5.66153 l 1.44247,1.48373 0.8686,-1.87525 c 2.43884,-5.2653 6.6955,-9.12136 13.25636,-12.00878 2.84284,-1.25114 6.90646,-2.43704 8.78696,-2.56435 l 1.19063,-0.0806 0.0429,2.51355 c 0.0388,2.27281 0.0895,2.50751 0.52916,2.45059 0.26743,-0.0346 1.34625,-0.18935 2.39738,-0.34383 1.27086,-0.18677 2.07526,-0.19304 2.40099,-0.0187 0.57492,0.30769 2.72205,4.5474 3.36434,6.64321 0.59057,1.92706 0.82167,7.51459 0.4114,9.94695 -0.17203,1.0199 -0.76722,2.88005 -1.32264,4.13367 -0.98873,2.23161 -0.99811,2.28246 -0.44797,2.4301 0.30904,0.0829 0.8643,0.15243 1.23391,0.15441 1.17474,0.006 3.76126,0.78359 5.7868,1.73899 2.74256,1.29359 4.9291,2.92553 7.21154,5.38235 2.05491,2.21191 4.71819,6.33595 4.71819,7.30603 0,0.41658 -0.62024,0.9978 -2.31886,2.17295 -2.26781,1.56895 -2.3195,1.62852 -2.34775,2.70609 -0.0231,0.88019 0.0951,1.18306 0.58743,1.50566 0.33898,0.2221 0.72863,0.33442 0.86589,0.24959 0.25798,-0.15944 1.89037,1.52864 1.89037,1.95486 0,0.58253 -3.18938,3.91905 -5.10131,5.33666 -2.61088,1.93585 -5.30886,3.24831 -8.15912,3.96908 -1.85312,0.46862 -2.71871,0.53497 -5.51519,0.42279 -1.8244,-0.0732 -3.54612,-0.22781 -3.82604,-0.3436 -0.42692,-0.1766 -0.47703,-0.1285 -0.31088,0.29842 1.24512,3.19938 1.43489,7.88777 0.45923,11.34589 -0.32674,1.15812 -1.06315,3.06312 -1.63646,4.23333 -1.21104,2.4719 -4.04358,6.2287 -4.69631,6.2287 -0.24671,0 -1.3882,-0.31293 -2.53663,-0.69539 -1.91567,-0.63798 -2.10854,-0.6588 -2.33606,-0.25226 -0.13639,0.24373 -0.75745,1.18173 -1.38013,2.08446 -1.03771,1.50441 -1.20482,1.63527 -2.00336,1.56887 -0.47917,-0.0399 -1.69276,-0.41763 -2.69686,-0.83951 l -1.82565,-0.76705 0.0787,1.50096 0.0787,1.50096 5.15938,0.16081 c 2.83765,0.0884 6.18376,0.24991 7.43579,0.3588 l 2.27642,0.19799 0.17097,-0.85489 c 0.094,-0.4702 0.17098,-1.3752 0.17098,-2.01112 0,-0.99715 0.18534,-1.3839 1.34715,-2.8112 0.74094,-0.91024 1.7048,-2.28005 2.14193,-3.04404 0.45897,-0.80217 0.97973,-1.38753 1.23253,-1.38545 0.24077,0.002 2.34277,0.2971 4.6711,0.65581 2.32833,0.35871 4.32263,0.65474 4.43177,0.65785 0.42864,0.0122 0.16355,-0.88547 -0.49131,-1.66373 -0.60477,-0.71873 -0.67498,-0.99783 -0.56986,-2.26545 0.0993,-1.19756 0.25851,-1.56958 0.92738,-2.16723 1.60105,-1.43054 4.16008,-1.16875 5.41688,0.55414 0.70113,0.96115 0.68895,2.91203 -0.0244,3.91389 -0.30926,0.43432 -0.56229,0.98748 -0.56229,1.22924 0,0.73831 0.52004,1.46312 1.04976,1.46312 1.95682,0 13.52298,3.67327 18.8421,5.98402 2.78339,1.20916 3.49182,1.42682 3.67864,1.13021 0.12726,-0.20205 0.84535,-1.85564 1.59575,-3.67465 5.56436,-13.48823 4.68903,-27.79866 -2.37386,-38.80907 -0.74863,-1.16705 -1.36115,-2.24911 -1.36115,-2.40457 0,-0.15546 1.03689,-0.83425 2.3042,-1.50842 12.90829,-6.86683 21.7458,-21.01246 23.11147,-36.99303 0.62333,-7.29401 -1.07755,-15.81926 -4.53002,-22.70559 -3.83926,-7.65785 -10.83136,-14.73054 -18.5044,-18.71767 -1.38244,-0.71837 -2.78143,-1.38663 -3.10885,-1.48505 l -0.59531,-0.17893 v 8.61679 8.61679 h 3.04271 c 4.03734,0 4.10104,0.0574 4.10104,3.69737 v 2.63904 l 0.85989,0.43446 c 3.83082,1.93553 6.90283,6.26835 8.31624,11.72934 0.88525,3.42039 1.09978,8.2281 0.51625,11.5696 -1.09701,6.28178 -4.00986,11.10496 -8.23162,13.6301 l -1.46076,0.87372 v 2.71631 c 0,4.05352 0.65182,3.77464 -8.82254,3.77464 -9.414,0 -8.76467,0.27813 -8.78669,-3.76363 -0.0143,-2.62712 -0.0211,-2.65448 -0.79375,-3.19377 -3.55961,-2.48457 -4.85609,-3.94353 -6.53179,-7.35036 -3.57431,-7.2669 -3.63785,-16.41166 -0.1622,-23.34641 1.25223,-2.49852 4.35172,-5.79319 6.24541,-6.63871 l 1.12448,-0.50207 v -2.70554 c 0,-2.18979 0.0831,-2.77477 0.43608,-3.06867 0.29372,-0.24458 1.48143,-0.40632 3.63802,-0.49542 l 3.20194,-0.13229 0.009,-9.525 c 0.005,-5.23875 0.10755,-9.68371 0.22763,-9.87769 0.12007,-0.19397 0.85698,-0.76123 1.63757,-1.26057 1.97559,-1.26377 2.42046,-1.79089 3.55109,-4.20758 1.40928,-3.01229 2.52311,-6.68339 3.05049,-10.05416 0.63777,-4.076353 0.41968,-10.269475 -0.49846,-14.155213 -3.54869,-15.018575 -13.93207,-26.638791 -27.87468,-31.195023 -6.84579,-2.237102 -14.62592,-2.578728 -21.21469,-0.93154 -3.48044,0.87011 -5.48,1.712973 -7.93073,3.343002 -1.07065,0.712113 -2.12246,1.258717 -2.33736,1.214676 -0.23129,-0.0474 -0.688,-0.997774 -1.11923,-2.329033 -2.69009,-8.304605 -9.12055,-16.465688 -17.08635,-21.684777 -9.17919,-6.014088 -21.36162,-8.580482 -31.53305,-6.64286 -9.43564,1.797456 -17.47141,6.160582 -22.46682,12.198643 -0.95832,1.158342 -1.88585,2.106077 -2.06117,2.106077 -0.17532,0 -0.77459,-0.597724 -1.33172,-1.328275 -2.3464,-3.076802 -7.03956,-6.723331 -11.633777,-9.039307 -6.321925,-3.186922 -15.674975,-4.953885 -22.254707,-4.204322 -8.31248,0.946957 -15.113078,3.362605 -21.640433,7.686923 -4.401056,2.915662 -9.304312,7.894483 -12.147701,12.334911 -1.241614,1.938988 -3.118877,5.894662 -3.89852,8.214766 -0.419189,1.247445 -0.882587,2.388506 -1.029772,2.535691 -0.180424,0.180424 -0.7701,-0.03476 -1.809966,-0.660484 -3.674117,-2.210856 -6.639078,-3.283614 -11.160007,-4.037823 -2.144845,-0.357817 -3.664767,-0.425491 -7.011458,-0.312187 -6.489237,0.219698 -10.7321632,1.273326 -16.7843138,4.167978 -6.9352881,3.317044 -11.7895784,7.249635 -16.6414832,13.481713 -8.682124,11.151841 -10.87553,25.541514 -5.793383,38.007044 1.235283,3.02991 1.963641,4.08316 3.721913,5.38207 l 1.45867,1.07758 v 9.91353 9.91353 h 2.983837 c 4.1353193,0 4.1599125,0.0209 4.1599125,3.53971 v 2.71596 l 1.3890625,0.62302 c 1.6999835,0.76246 4.4688338,3.48827 5.7343901,5.64523 2.05828739,3.50807 3.045165,7.71467 3.020756,12.87608 -0.018148,3.83759 -0.5147175,6.5007 -1.81203314,9.71799 -1.64570386,4.08128 -3.87643856,6.84123 -6.94311296,8.59028 l -1.3890625,0.79224 v 2.87016 c 0,2.666 -0.041827,2.89946 -0.5880381,3.28204 -0.878815,0.61554 -15.6721914,0.61554 -16.5510064,0 -0.546634,-0.38288 -0.588038,-0.61537 -0.588038,-3.30192 v -2.89003 l -1.124479,-0.57257 c -1.740513,-0.88624 -4.703448,-4.04645 -5.798964,-6.18506 -2.091403,-4.08275 -2.930045,-7.66714 -2.940469,-12.56771 -0.01115,-5.24223 1.11446,-9.41406 3.547688,-13.14872 1.24158,-1.90565 3.750989,-4.33877 5.278545,-5.11807 l 1.037679,-0.52939 v -2.64045 c 0,-3.61758 0.08646,-3.69879 3.937891,-3.69879 2.762549,0 2.886041,-0.0242 3.039095,-0.59531 0.08775,-0.32743 0.161164,-4.19696 0.163151,-8.59896 0.0029,-6.31645 -0.06757,-8.00365 -0.334081,-8.00365 -0.185731,0 -1.644247,0.64459 -3.241146,1.43242 -9.700461,4.78572 -17.976719,14.27156 -21.413965,24.54362 -1.551788,4.63745 -2.041778,7.46938 -2.18929,12.65313 -0.144844,5.08998 0.223127,8.61736 1.380045,13.22917 2.98589,11.90261 11.187155,22.72143 21.266209,28.05362 0.925027,0.48938 1.736107,1.03112 1.802399,1.20387 0.06629,0.17276 -0.287629,0.95307 -0.786491,1.73403 -4.676257,7.32064 -7.171079,17.91188 -6.286415,26.68765 0.532359,5.28092 1.385537,8.74853 3.370687,13.69962 0.9687,2.416 1.134921,3.05813 0.873238,3.37344 -0.263146,0.31707 -0.239026,0.38944 0.129803,0.38944 0.249154,0 0.650685,-0.23276 0.892292,-0.51723 1.320492,-1.55478 13.8942128,-5.99913 22.0522725,-7.79467 0.97630613,-0.21488 1.10919284,-1.52416 0.28128356,-2.77138 -1.51548656,-2.28303 0.18392591,-5.32089 2.97656234,-5.32089 1.904021,0 3.5698968,1.60506 3.5698968,3.43958 0,0.95473 -0.8418054,2.64584 -1.3170496,2.64584 -0.1476597,0 -0.2684722,0.23812 -0.2684722,0.52916 0,0.29104 0.056007,0.52917 0.1244597,0.52917 0.068453,0 2.2413434,-0.34978 4.8286456,-0.77728 7.3448723,-1.2136 16.3388173,-2.12397 21.0422063,-2.12989 2.075891,-0.003 2.579687,-0.0782 2.579687,-0.38698 0,-0.21105 0.19604,-0.49343 0.435645,-0.62752 0.40447,-0.22635 0.40447,-0.28831 0,-0.86577 -0.877738,-1.25315 -0.374933,-3.66723 0.943775,-4.53128 1.571131,-1.02945 3.509967,-0.799 4.82488,0.57347 0.960128,1.00216 1.176352,2.72391 0.481244,3.83206 -0.477412,0.76109 -0.476006,0.78652 0.07644,1.38262 0.506085,0.54608 0.933625,0.63473 4.242594,0.87969 7.744667,0.57334 16.143906,2.09513 24.282481,4.39954 4.152806,1.17585 5.301965,1.41547 5.471643,1.14093 0.118133,-0.19115 0.104033,-0.55448 -0.03133,-0.80742 -0.36731,-0.68633 -0.297353,-2.27396 0.13723,-3.11435 1.093688,-2.11496 4.240161,-2.40166 5.81517,-0.52987 0.988811,1.17514 1.116969,2.36313 0.412022,3.81935 -0.421226,0.87014 -0.545331,1.48444 -0.436003,2.15815 0.08406,0.51798 0.187687,0.96414 0.230291,0.99146 0.0426,0.0273 1.446679,0.56603 3.120168,1.19713 8.383187,3.16145 17.908967,8.28556 25.267707,13.59203 l 2.38125,1.71715 0.79375,-0.73647 c 0.43656,-0.40506 1.68672,-1.38896 2.77812,-2.18644 z m 127.56383,-4.09272 1.29485,-1.91889 -0.99549,-0.50421 c -1.20487,-0.61027 -7.09925,-2.94949 -7.43213,-2.94949 -0.33081,0 -0.565,3.04248 -0.35337,4.5907 l 0.17543,1.28341 2.64584,0.98425 c 1.92983,0.7179 2.74382,0.90968 3.00792,0.70868 0.19915,-0.15155 0.94478,-1.13906 1.65695,-2.19445 z m -257.517101,1.14837 c 1.114981,-0.48805 2.473722,-1.03306 3.019425,-1.21114 l 0.992188,-0.32377 v -2.8899 c 0,-1.58945 -0.05792,-2.8899 -0.128712,-2.8899 -0.275208,0 -5.653245,2.10167 -7.345767,2.87063 -0.982266,0.44627 -1.785938,0.91938 -1.785938,1.05134 0,0.13197 0.484918,0.94062 1.077594,1.79701 0.592677,0.85638 1.21663,1.76542 1.386562,2.02008 0.406767,0.60959 0.431019,0.60589 2.784648,-0.42435 z m 168.450151,-3.73304 c 2.61937,-0.6397 6.04242,-1.36752 7.60677,-1.61738 l 2.84427,-0.4543 v -3.13624 c 0,-3.07632 -0.0114,-3.13623 -0.59531,-3.13524 -0.93288,0.002 -8.09748,1.72696 -12.8323,3.09028 l -4.29947,1.23798 v 2.98208 2.98209 l 1.25677,-0.39309 c 0.69122,-0.2162 3.39989,-0.91649 6.01927,-1.55618 z m -78.978125,-1.46461 v -2.87879 l -2.182813,-0.66028 c -5.38623,-1.6293 -13.181201,-3.59444 -14.287499,-3.60194 -0.415382,-0.003 -0.463021,0.32301 -0.463021,3.16683 0,3.07336 0.01814,3.17382 0.595313,3.29689 0.327422,0.0698 1.964531,0.37861 3.63802,0.6862 2.996096,0.55071 10.349593,2.34989 11.641667,2.84837 0.363802,0.14036 0.750755,0.20262 0.859895,0.13835 0.109141,-0.0643 0.198438,-1.41229 0.198438,-2.99563 z m 156.633325,0.17339 v -3.00122 l -3.50573,-0.94432 c -1.92815,-0.51938 -3.83695,-1.01753 -4.24179,-1.10699 l -0.73606,-0.16266 0.0746,3.09223 0.0746,3.09224 3.83646,0.99131 c 2.11005,0.54522 3.98528,1.00241 4.16718,1.01597 0.2466,0.0184 0.33073,-0.73883 0.33073,-2.97656 z m -234.0900928,1.18154 3.63802067,-0.88546 v -2.98829 c 0,-2.70884 -0.0432986,-2.97865 -0.46302081,-2.88527 -1.96323156,0.43679 -5.17800476,1.26422 -6.21770806,1.60034 l -1.2567708,0.4063 v 2.90855 c 0,2.19826 0.080767,2.88667 0.3307291,2.81892 0.1819011,-0.0493 1.9678385,-0.48809 3.9687499,-0.97509 z M 217.22291,247.51771 c 0,-1.67349 -0.0738,-3.04271 -0.16395,-3.04271 -0.17528,0 -8.20924,-1.23277 -9.42719,-1.44655 l -0.72761,-0.12772 v 3.16839 c 0,2.34968 0.0855,3.17257 0.33073,3.18457 0.1819,0.009 2.35479,0.29161 4.82865,0.62823 2.47385,0.33663 4.64674,0.627 4.82864,0.64527 0.24734,0.0249 0.33073,-0.73398 0.33073,-3.00948 z M 8.6995779,249.36265 c 1.3650261,-0.20565 3.3593231,-0.45342 4.4317711,-0.55061 l 1.949905,-0.17669 v -3.13851 -3.1385 h -0.776285 c -0.772948,0 -10.0818708,1.50954 -10.2314724,1.65914 -0.1629743,0.16298 -0.3440583,5.57602 -0.1946246,5.81781 0.088106,0.14256 0.6326253,0.17622 1.2475917,0.0771 0.6001869,-0.0967 2.2080883,-0.34411 3.5731142,-0.54976 z m 43.6879241,-3.67919 c 0,-2.90473 -0.05415,-3.30534 -0.46302,-3.42519 -0.695374,-0.20382 -6.987096,-0.91132 -9.921875,-1.1157 l -2.579687,-0.17965 v 3.43835 3.43835 l 3.108854,0.19099 c 1.709869,0.10504 4.418541,0.34409 6.01927,0.53122 1.600729,0.18713 3.118776,0.35618 3.373438,0.37567 0.418043,0.032 0.46302,-0.28412 0.46302,-3.25404 z m -24.275519,2.06576 4.43177,-0.18127 v -3.25065 c 0,-1.78786 -0.112334,-3.32008 -0.249631,-3.40493 -0.258839,-0.15997 -9.097935,0.30333 -11.656618,0.61098 l -1.455209,0.17497 -0.07461,3.28065 -0.07461,3.28064 2.32357,-0.16456 c 1.277964,-0.0905 4.317868,-0.24613 6.755342,-0.34583 z m 164.785647,-5.92005 c 1.81314,-3.07467 1.43171,-2.90414 3.93563,-1.75957 1.19827,0.54775 2.37685,0.95937 2.61906,0.91471 0.66398,-0.1224 3.11282,-4.00789 4.03799,-6.40693 1.20772,-3.13174 1.51437,-6.08663 0.93674,-9.02648 -0.4774,-2.42972 -1.72854,-5.42972 -2.9153,-6.99032 -1.21657,-1.5998 -0.82895,-1.72602 1.7331,-0.56433 2.69881,1.2237 4.80631,1.67493 7.77972,1.66571 2.26536,-0.007 3.03343,-0.13164 5.11984,-0.83065 1.35006,-0.45232 3.27946,-1.3041 4.28756,-1.89287 1.76644,-1.03165 5.25761,-4.02583 5.25761,-4.50915 0,-0.12927 -0.83344,-1.25463 -1.85208,-2.5008 -1.01865,-1.24616 -1.85209,-2.43336 -1.85209,-2.63821 0,-0.20486 1.09794,-1.11967 2.43987,-2.03293 1.34193,-0.91326 2.5456,-1.73509 2.67482,-1.8263 0.26463,-0.18676 -1.03821,-2.30872 -2.70323,-4.40282 -1.48854,-1.87213 -4.65552,-4.34768 -6.98773,-5.46213 -3.09098,-1.47703 -6.99445,-2.06622 -9.93016,-1.49885 -1.50511,0.29088 -1.68822,-0.16147 -0.61426,-1.51745 4.40249,-5.5586 5.26132,-13.48445 2.19412,-20.24899 -0.43921,-0.96867 -0.92024,-1.76123 -1.06894,-1.76123 -1.24721,0 -4.55499,0.69141 -5.21801,1.09069 -0.45374,0.27325 -0.94336,0.49681 -1.08805,0.49681 -0.14469,0 -0.33977,-0.6526 -0.43352,-1.45024 -0.0937,-0.79763 -0.29671,-2.039 -0.45104,-2.75859 l -0.28059,-1.30836 -1.37133,0.39869 c -2.37285,0.68987 -6.48118,2.65489 -8.77569,4.19743 -3.67499,2.47059 -6.23522,5.61541 -7.70655,9.46622 -0.40051,1.04824 -0.96244,2.09843 -1.24872,2.33375 -0.41867,0.34413 -0.49181,0.6418 -0.37384,1.52135 0.0807,0.60143 0.0558,1.0935 -0.0553,1.0935 -0.11107,0 -0.61913,-0.62507 -1.12901,-1.38906 -2.78107,-4.16699 -5.72523,-6.52662 -10.02378,-8.03365 -2.90829,-1.01962 -7.72846,-1.18652 -11.18689,-0.38735 -1.37631,0.31804 -2.61166,0.72064 -2.74522,0.89468 -0.14373,0.18728 -0.1549,1.43807 -0.0274,3.06472 0.11852,1.51156 0.15201,2.85101 0.0744,2.97656 -0.0776,0.12555 -0.521,0.23118 -0.98536,0.23474 -1.06403,0.008 -2.88408,0.4144 -4.38385,0.97851 l -1.15831,0.43567 0.13163,3.19228 c 0.16058,3.89457 0.99499,6.68211 2.84848,9.51614 1.69138,2.58615 4.76798,5.39387 7.25925,6.62483 1.09953,0.54329 1.99914,1.09427 1.99914,1.22441 0,0.13013 -0.32742,0.30841 -0.7276,0.39616 -4.34656,0.95314 -8.68915,3.63481 -11.42772,7.05696 -2.35124,2.93813 -4.39893,7.46759 -4.88493,10.80542 l -0.1763,1.2108 1.53067,0.41721 c 0.84187,0.22946 2.21529,0.56675 3.05203,0.74953 1.7718,0.38702 1.75108,0.31466 0.99404,3.4725 -0.80983,3.37803 -0.89004,3.19774 1.78409,4.00995 4.7063,1.42943 8.17278,1.50209 12.50156,0.26206 3.37894,-0.96794 5.80569,-2.45759 8.6562,-5.31359 1.34349,-1.34606 2.47874,-2.44739 2.52279,-2.44739 0.044,0 0.0769,1.75617 0.0729,3.9026 -0.006,3.14985 0.0893,4.1833 0.4927,5.35782 0.74673,2.17395 1.80979,4.17422 3.20444,6.02951 0.99641,1.32553 1.32138,1.59959 1.61133,1.35895 0.30691,-0.25471 0.30244,-0.38819 -0.0288,-0.86111 -0.49961,-0.7133 -0.50392,-2.36847 -0.009,-3.3262 1.0789,-2.08635 4.09922,-2.36642 5.84696,-0.54217 0.66634,0.69551 0.78115,1.02353 0.78115,2.23187 0,1.13501 -0.12747,1.5522 -0.64143,2.09929 -0.54027,0.57508 -0.56944,0.68277 -0.18494,0.68277 0.26852,0 0.61033,0.36819 0.83008,0.89412 0.30475,0.72936 0.68012,1.02012 2.03702,1.57788 0.91489,0.37606 1.82589,0.65831 2.02444,0.62723 0.19855,-0.0311 0.81737,-0.83042 1.37517,-1.77631 z m 14.77526,-50.86615 c 0.30336,-0.39634 0.29258,-0.46302 -0.0749,-0.46302 -0.26389,0 -0.42927,0.22086 -0.42927,0.57326 0,0.3153 0.0337,0.52366 0.0749,0.46303 0.0412,-0.0606 0.23435,-0.31861 0.42928,-0.57327 z M -22.905933,179.98281 c -0.788297,-1.84703 -0.939131,-2.30159 -1.600744,-4.82404 -2.275243,-8.67453 -1.705023,-19.67239 1.370284,-26.42876 0.355748,-0.78157 0.646815,-1.46618 0.646815,-1.52136 0,-0.31442 -1.049435,0.005 -2.424285,0.73772 -3.032511,1.61631 -5.630038,5.45146 -6.869244,10.14217 -0.71032,2.68874 -0.782336,8.27421 -0.143673,11.14304 0.513284,2.30564 1.556055,5.1239 2.477872,6.69686 1.511731,2.57958 4.551174,5.03836 6.235277,5.04408 l 0.731155,0.002 z m 9.093271,-0.67606 c 1.769374,-4.46354 2.544423,-10.16596 2.344475,-17.24946 -0.157226,-5.56998 -0.648423,-9.01984 -1.75174,-12.30312 -1.000765,-2.97811 -0.950103,-2.94126 -3.92329,-2.85371 l -2.566579,0.0756 -0.608823,1.53596 c -3.223483,8.13233 -3.1698,22.73131 0.115215,31.333 l 0.438289,1.14764 2.671794,-0.075 2.671794,-0.075 z m 4.7594835,1.03513 c 6.1938298,-3.14226 9.48745806,-15.06526 6.6223717,-23.97313 -1.1308429,-3.51592 -2.5545398,-5.61835 -5.0874948,-7.51292 -1.4869785,-1.11221 -3.4383854,-1.9915 -3.7432234,-1.68666 -0.08052,0.0805 0.173734,0.90344 0.56501,1.82872 1.7541131,4.14806 2.5093196,8.62218 2.5087333,14.86265 -5.757e-4,6.12835 -0.6788846,10.35385 -2.3863233,14.8655 -0.44058,1.16417 -0.801486,2.14643 -0.802014,2.18281 -0.0039,0.27207 1.293094,-0.0445 2.3229405,-0.56697 z m 243.4740085,0.53375 c 0,-0.0547 -0.30442,-0.78772 -0.6765,-1.62904 -0.83125,-1.87961 -2.12186,-7.15171 -2.48983,-10.1709 -0.84094,-6.89981 0.16943,-15.20593 2.48718,-20.44678 0.74061,-1.67465 0.62602,-1.8127 -0.94219,-1.13502 -3.57232,1.54375 -6.36606,5.31231 -7.65798,10.33007 -0.64503,2.50526 -0.78694,8.05147 -0.27079,10.58333 0.75175,3.68759 1.99743,6.69308 3.74239,9.02937 1.20463,1.61286 3.94952,3.53834 5.04412,3.53834 0.41998,0 0.7636,-0.0447 0.7636,-0.0994 z m 8.82923,-1.95115 c 1.01428,-3.1014 1.49013,-5.1667 1.90037,-8.24801 0.43878,-3.29569 0.4959,-10.08042 0.1116,-13.25633 -0.34569,-2.85687 -1.45515,-7.3668 -2.25992,-9.18653 l -0.62325,-1.40927 -2.58381,0.0759 -2.5838,0.0759 -0.76076,1.98229 c -1.03475,2.69621 -1.68903,6.21625 -2.07406,11.15846 -0.27711,3.55692 -0.26174,4.75801 0.10832,8.46667 0.41591,4.16828 1.47344,9.18496 2.40299,11.39935 l 0.4165,0.99219 h 2.63761 2.6376 z m 4.79681,1.27898 c 4.93872,-2.86178 7.91468,-10.95004 7.01735,-19.07221 -0.70122,-6.34711 -3.50651,-11.26002 -7.57245,-13.26167 -0.93735,-0.46146 -1.77834,-0.76496 -1.86885,-0.67445 -0.0905,0.0905 0.25986,1.27343 0.7786,2.6287 3.11769,8.14525 3.0241,20.60871 -0.21945,29.22604 -0.35681,0.94795 -0.64874,1.76891 -0.64874,1.82434 0,0.35015 1.39344,-0.0217 2.51354,-0.67075 z m -49.72193,-15.39998 c 0.0791,-0.12796 -0.1609,-0.23265 -0.53329,-0.23265 -0.40542,0 -0.67707,0.1493 -0.67707,0.37211 0,0.39704 0.94617,0.28802 1.21036,-0.13946 z"
       id="path55" /><path
       style="fill:#000000"
       d="m 179.51979,219.82781 c -0.85915,-0.46992 -1.19063,-1.05654 -1.19063,-2.10709 0,-0.92721 0.66743,-1.81908 1.59683,-2.13382 0.30936,-0.10477 1.99507,-7.56028 1.76208,-7.79327 -0.19105,-0.19105 -1.76041,1.03115 -4.61568,3.59466 -1.70656,1.53218 -1.91823,1.82723 -1.91823,2.67397 0,1.27023 -0.87546,2.10233 -2.21189,2.10233 -1.7739,0 -2.8072,-1.70207 -1.97822,-3.25854 0.47434,-0.89062 1.05509,-1.22178 2.15866,-1.23097 0.89249,-0.007 1.36393,-0.31138 4.01415,-2.5881 1.65159,-1.41883 3.01223,-2.7219 3.02364,-2.89572 0.0155,-0.23677 -0.98232,-0.28674 -3.97831,-0.19924 -3.99665,0.11673 -3.9996,0.11728 -4.904,0.91135 -0.49772,0.437 -1.19285,0.79455 -1.54474,0.79455 -2.2733,0 -3.32533,-2.40717 -1.74339,-3.9891 1.00222,-1.00223 2.07094,-1.0174 3.22598,-0.0458 l 0.86497,0.72761 3.98397,-0.0944 c 2.19119,-0.0519 4.08618,-0.15621 4.21109,-0.23178 0.25394,-0.15362 -0.1746,-0.52999 -3.8451,-3.37699 -2.19419,-1.70192 -2.70851,-1.98539 -3.60233,-1.98539 -1.52518,0 -2.43698,-0.80364 -2.43698,-2.14789 0,-0.76327 0.17787,-1.22903 0.64944,-1.70059 0.75428,-0.75428 2.18504,-0.89062 2.43766,-0.23229 0.088,0.22943 0.44149,0.52414 0.78545,0.65491 0.46808,0.17797 0.62537,0.43999 0.62537,1.0418 0,0.55416 0.24526,1.02898 0.78921,1.5279 0.43406,0.39813 0.94008,1.18851 1.12448,1.75639 0.41366,1.27393 1.05066,1.73987 1.76702,1.29249 0.43238,-0.27002 0.68482,-0.18159 1.70483,0.59725 0.65851,0.50281 1.27127,0.9142 1.36167,0.9142 0.20493,0 -0.0694,-2.0412 -0.53343,-3.96875 -0.19267,-0.80036 -0.4874,-2.13982 -0.65497,-2.97656 -0.19553,-0.97639 -0.43641,-1.52136 -0.67247,-1.52136 -0.66067,0 -1.44676,-1.11635 -1.44676,-2.05461 0,-0.6381 0.22293,-1.11943 0.7734,-1.6699 1.05217,-1.05217 2.17481,-1.0409 3.24833,0.0326 0.68912,0.68911 0.78375,0.94333 0.65242,1.75261 -0.0845,0.52062 -0.36077,1.17549 -0.61396,1.45526 -0.43855,0.48459 -0.42499,0.69 0.28618,4.33753 0.41059,2.10587 0.84555,3.89005 0.96658,3.96485 0.26752,0.16534 0.54888,-0.26412 2.60006,-3.96876 1.5188,-2.74312 1.5959,-2.96837 1.44894,-4.23334 -0.12827,-1.10402 -0.0594,-1.45725 0.3966,-2.03392 1.39701,-1.76673 4.26437,-0.70763 4.26437,1.57509 0,0.7687 -0.99309,1.86887 -1.89882,2.10357 -0.69026,0.17886 -1.09026,0.70635 -2.76126,3.64127 -1.97175,3.46318 -2.22675,4.10404 -1.62377,4.08085 0.1819,-0.007 1.92475,-0.63999 3.87301,-1.40665 3.22296,-1.26827 3.58081,-1.47554 3.96978,-2.29931 1.11946,-2.37084 4.52648,-1.68035 4.52648,0.91736 0,1.78091 -1.51529,2.74361 -3.32495,2.11242 -0.9999,-0.34876 -1.17277,-0.31507 -4.41192,0.85979 -1.85419,0.67253 -3.58059,1.38319 -3.83646,1.57925 -0.62789,0.48112 -0.44908,0.58721 3.76142,2.2316 2.84428,1.11082 3.53824,1.29269 4.04734,1.06073 1.72685,-0.78681 3.49998,0.24059 3.49998,2.02797 0,1.21344 -1.20405,2.45456 -2.38125,2.45456 -0.95936,0 -2.38125,-1.22879 -2.38125,-2.05787 0,-0.4109 -0.75211,-0.81232 -3.83726,-2.04802 -2.1105,-0.84531 -3.90824,-1.46597 -3.99498,-1.37923 -0.15022,0.15022 2.03023,4.6802 3.1087,6.45847 0.30913,0.50971 0.80807,0.9065 1.26646,1.00718 2.63666,0.57911 2.05671,4.42239 -0.66733,4.42239 -0.77234,0 -1.16206,-0.16892 -1.62117,-0.70268 -0.62299,-0.72426 -0.7798,-1.83833 -0.35358,-2.51206 0.17233,-0.2724 -0.29468,-1.44285 -1.60991,-4.0349 -1.01895,-2.00816 -1.94827,-3.6512 -2.06514,-3.6512 -0.19395,0 -0.38104,0.7947 -1.43793,6.10778 -0.31851,1.60117 -0.30709,1.79089 0.14113,2.34442 0.73138,0.90322 0.62127,2.03825 -0.28572,2.94524 -0.80646,0.80646 -1.63511,0.95947 -2.53389,0.46787 z"
       id="path54" /><path
       style="fill:#000000"
       d="m 143.4812,52.170522 c -0.16615,-0.102687 -0.55498,-0.8626 -0.86406,-1.688696 -0.63712,-1.702845 -1.81843,-2.896472 -3.35747,-3.39247 -2.17678,-0.701526 -2.19648,-1.247974 -0.0802,-2.22498 1.77701,-0.820384 2.69746,-1.837072 3.32163,-3.668924 0.7969,-2.338756 1.59347,-2.32264 2.45848,0.04974 0.6632,1.818902 1.8413,2.993068 3.75304,3.74053 1.65982,0.64896 1.57372,1.258143 -0.28135,1.99064 -1.87317,0.739646 -3.00815,1.861842 -3.55832,3.518246 -0.4771,1.43642 -0.91874,1.968239 -1.39173,1.675916 z"
       id="path53" /><path
       style="fill:#000000"
       d="m 80.592383,67.776624 c -0.07522,-0.12171 -0.322624,-3.306632 -0.549786,-7.077605 -0.622106,-10.327181 -0.883233,-12.945422 -1.462628,-14.665331 -1.240855,-3.683422 -0.08192,-6.346193 2.762094,-6.346193 0.654261,0 1.188528,0.226522 1.779348,0.75442 0.737544,0.658995 0.85917,0.959412 0.96157,2.375077 0.07994,1.105108 -0.05791,2.316998 -0.433312,3.809643 -0.390479,1.552568 -0.75128,4.881325 -1.240991,11.449402 -0.379747,5.09323 -0.737689,9.409246 -0.795426,9.591147 -0.118363,0.372903 -0.812078,0.447271 -1.020869,0.10944 z"
       id="path52" /><path
       style="fill:#000000"
       d="m 85.548769,68.904857 c -0.09446,-0.246174 1.198542,-3.189238 3.167601,-7.209896 4.475967,-9.139562 4.946131,-10.230336 4.946131,-11.474955 0,-2.254446 1.304243,-3.653344 3.406143,-3.653344 2.014563,0 3.585176,2.157827 2.956696,4.062135 -0.324792,0.984131 -1.170973,1.872612 -2.031265,2.132807 -0.593899,0.179624 -3.768975,4.550062 -8.810466,12.127455 -1.621732,2.437474 -3.067092,4.431771 -3.21191,4.431771 -0.144818,0 -0.335136,-0.187188 -0.42293,-0.415973 z"
       id="path51" /><path
       style="fill:#000000"
       d="M 74.850802,67.518709 C 69.262094,58.732366 65.417862,53.36567 64.297973,52.786554 63.106423,52.170379 62.177085,50.87761 62.177085,49.83626 c 0,-1.029398 0.395277,-1.946681 0.838865,-1.946681 0.160094,0 0.566939,-0.297656 0.904099,-0.661459 0.452647,-0.488414 0.883861,-0.661458 1.648305,-0.661458 1.890933,0 3.223314,1.616225 3.223314,3.909995 0,1.856814 2.356197,7.377251 6.13562,14.375412 1.865528,3.454302 2.062563,4.047529 1.425539,4.291978 -0.251243,0.09641 -0.750528,-0.443865 -1.502025,-1.625338 z"
       id="path50" /><path
       style="fill:#000000"
       d="m 89.255886,72.352127 c -0.08617,-0.224557 -0.1122,-0.44224 -0.05784,-0.483739 0.195582,-0.149318 2.061924,-1.475178 8.828058,-6.271502 3.782426,-2.681258 7.510826,-5.500021 8.285326,-6.263918 0.7745,-0.763897 1.63078,-1.508037 1.90286,-1.653646 0.78629,-0.420811 2.18239,-0.305333 3.02516,0.250228 3.07243,2.025361 1.06308,6.180961 -2.9246,6.048462 -0.57407,-0.01907 -3.51824,1.315218 -9.659076,4.377482 -4.858315,2.422705 -8.92553,4.404919 -9.038256,4.404919 -0.112726,0 -0.27546,-0.183729 -0.36163,-0.408286 z"
       id="path49" /><path
       style="fill:#000000"
       d="m 63.846543,68.340249 c -7.970406,-3.942146 -8.932135,-4.35305 -10.411404,-4.448327 -1.23879,-0.07979 -1.844785,-0.268936 -2.5258,-0.788372 -1.222243,-0.93225 -1.516369,-1.584513 -1.356017,-3.00715 0.188088,-1.668716 1.305425,-2.681821 2.957734,-2.681821 1.057539,0 1.377501,0.170615 3.236972,1.726067 1.134888,0.949336 3.134995,2.47491 4.444682,3.390162 7.499358,5.240797 12.22721,8.645903 12.640529,9.103992 0.372769,0.413147 0.400069,0.575076 0.132292,0.784688 -0.242337,0.189698 -2.81172,-0.959676 -9.118988,-4.079239 z"
       id="path48" /><path
       style="fill:#000000"
       d="m 130.87132,72.165101 c -0.73417,-1.645074 -1.19543,-2.094289 -2.90117,-2.825401 -1.44287,-0.618445 -1.47491,-0.958797 -0.15862,-1.684894 1.40275,-0.773789 2.0858,-1.51079 2.91324,-3.143348 1.12844,-2.226444 1.39256,-2.236475 2.336,-0.08872 0.74005,1.684762 1.4638,2.458856 2.86892,3.06849 0.6286,0.27273 1.12448,0.668509 1.12448,0.89749 0,0.239028 -0.57849,0.667782 -1.38907,1.029534 -1.60025,0.714171 -2.12309,1.229121 -2.73162,2.690382 -0.41461,0.995585 -0.79054,1.432439 -1.24046,1.441474 -0.11098,0.0022 -0.48074,-0.621027 -0.8217,-1.385011 z"
       id="path47" /><path
       style="fill:#000000"
       d="m 161.80683,75.869267 c -0.0782,-0.472942 -0.26226,-2.467239 -0.40906,-4.431771 -0.53823,-7.202777 -0.61493,-7.829403 -1.11619,-9.11923 -0.32159,-0.827516 -0.45325,-1.620018 -0.35561,-2.140498 0.37168,-1.98124 2.77792,-2.78746 4.01769,-1.346143 0.72301,0.840552 0.78101,1.664284 0.24613,3.49587 -0.20956,0.717636 -0.56829,3.507449 -0.79717,6.199585 -0.66914,7.870801 -0.71338,8.202083 -1.0953,8.202083 -0.19159,0 -0.41231,-0.386953 -0.49049,-0.859896 z"
       id="path46" /><path
       style="fill:#000000"
       d="m 165.53281,77.58106 c -0.0702,-0.11354 1.29202,-2.75563 3.02709,-5.871311 2.50541,-4.498984 3.15468,-5.874903 3.15468,-6.685364 0,-2.156507 2.43457,-3.099272 3.9891,-1.544742 1.2267,1.226698 0.91042,3.082087 -0.65232,3.82668 -1.18986,0.566929 -2.14218,1.659988 -7.69092,8.827528 -1.25087,1.615796 -1.56816,1.867043 -1.82763,1.447209 z"
       id="path45" /><path
       style="fill:#000000"
       d="m 157.43902,76.266142 c -0.59153,-0.836744 -2.35426,-3.091582 -3.91717,-5.01075 -2.03575,-2.499802 -3.08528,-3.574807 -3.70072,-3.790561 -1.09762,-0.384793 -1.65669,-1.189763 -1.64605,-2.370061 0.009,-1.029447 0.35531,-1.614348 1.23096,-2.080723 1.58693,-0.845201 3.52312,0.378226 3.52312,2.22616 0,1.117014 1.67445,4.598828 4.39834,9.145828 0.9279,1.548936 1.68708,2.94792 1.68708,3.108854 0,0.647795 -0.55485,0.215076 -1.57556,-1.228747 z"
       id="path44" /><path
       style="fill:#000000"
       d="m 111.78646,78.9854 c -1.21378,-0.559745 -2.02141,-0.645677 -9.78958,-1.041617 -10.957625,-0.558504 -11.560602,-0.620417 -11.454064,-1.176087 0.06523,-0.340207 0.545575,-0.478281 2.196895,-0.631493 13.665749,-1.267923 18.290699,-1.852533 19.561719,-2.472673 1.50647,-0.735018 2.18868,-0.7873 3.4417,-0.263758 1.64764,0.688428 2.42604,2.789521 1.61471,4.358471 -0.96434,1.864818 -3.14643,2.345447 -5.57138,1.227157 z"
       id="path43" /><path
       style="fill:#000000"
       d="m 46.089914,79.196981 c -1.070492,-0.527568 -1.639911,-1.564985 -1.639911,-2.987731 0,-0.85552 0.185156,-1.277398 0.905711,-2.06366 0.852884,-0.930657 0.998198,-0.988302 2.491375,-0.988302 1.202416,0 1.769698,0.136063 2.347096,0.562952 0.566124,0.418554 1.335301,0.609965 2.998729,0.746241 2.155446,0.176583 13.859726,1.296517 16.988292,1.625537 1.498774,0.157621 2.065057,0.473277 1.616888,0.90128 -0.125566,0.119916 -3.562051,0.412943 -7.636634,0.651173 -11.763343,0.68777 -13.094933,0.822453 -14.277297,1.444067 -1.25145,0.657934 -2.601008,0.696506 -3.794249,0.108443 z"
       id="path42" /><path
       style="fill:#000000"
       d="m 168.34008,80.102601 c 0.06,-0.181901 2.42146,-1.5952 5.24757,-3.140663 2.82611,-1.545464 5.49379,-3.152808 5.92816,-3.571875 1.10999,-1.070871 1.73451,-1.403226 2.65709,-1.414024 1.0799,-0.01264 1.87323,0.594007 2.24334,1.715433 0.26155,0.792516 0.23338,1.055462 -0.19126,1.785117 -0.57913,0.995118 -1.93787,1.553001 -3.02384,1.24155 -0.75789,-0.217361 -4.48451,0.825029 -9.88343,2.764542 -2.93367,1.053891 -3.13471,1.095746 -2.97763,0.61992 z"
       id="path41" /><path
       style="fill:#000000"
       d="m 150.08145,78.453529 c -4.75321,-1.614251 -5.82452,-1.891519 -6.90673,-1.787532 -1.58028,0.151845 -2.34411,-0.228385 -2.83921,-1.413339 -0.32765,-0.784168 -0.32765,-1.025321 0,-1.80949 0.75128,-1.798081 2.75535,-2.045314 4.2344,-0.52238 0.53494,0.550812 3.18956,2.200464 6.28007,3.902605 4.76619,2.625048 6.30787,3.682997 5.21009,3.575341 -0.19403,-0.01903 -2.88441,-0.89437 -5.97862,-1.945205 z"
       id="path40" /><path
       style="fill:#000000"
       d="m 78.713543,80.585219 c -1.415357,-0.851696 -2.095211,-2.062655 -2.096633,-3.734534 -0.0034,-3.963079 4.585819,-6.048728 7.505461,-3.411006 1.305584,1.179516 1.701559,2.166831 1.540652,3.841424 -0.142884,1.487018 -0.735474,2.454646 -2.051998,3.350665 -1.238721,0.843066 -3.454101,0.822009 -4.897482,-0.04655 z"
       id="path39" /><path
       style="fill:#000000"
       d="m 160.99896,86.42486 c -2.34232,-1.071143 -2.78706,-3.811689 -0.91035,-5.609695 0.69334,-0.664262 1.02157,-0.77871 2.23326,-0.77871 1.2127,0 1.53972,0.114254 2.23581,0.781148 0.44844,0.429632 0.93897,1.240287 1.09008,1.801456 0.67448,2.504813 -2.25298,4.901412 -4.6488,3.805801 z"
       id="path38" /><path
       style="fill:#000000"
       d="m 182.82708,88.453132 c -0.21828,-0.08808 -0.75476,-0.470653 -1.19217,-0.850168 -0.63807,-0.553611 -1.86729,-0.943772 -6.21771,-1.97354 -6.83679,-1.618304 -6.34845,-1.479123 -6.34845,-1.809369 0,-0.197508 1.64196,-0.214387 5.4901,-0.05643 3.01956,0.123942 6.02589,0.197399 6.68073,0.163238 3.82919,-0.199755 3.73181,-0.209839 4.25883,0.441008 0.73356,0.905903 0.67925,2.687441 -0.10436,3.423606 -0.64328,0.604333 -1.90382,0.929247 -2.56697,0.66166 z"
       id="path37" /><path
       style="fill:#000000"
       d="m 139.67038,88.238633 c -1.65923,-0.901771 -1.5525,-3.469167 0.17853,-4.294636 0.76875,-0.366592 1.08193,-0.378846 2.28907,-0.08956 1.09996,0.2636 2.40286,0.273103 6.10373,0.04452 6.17412,-0.38135 7.40587,-0.376079 7.27014,0.03111 -0.0949,0.284703 -2.26872,0.844068 -9.5402,2.45487 -1.62756,0.360544 -2.26331,0.646124 -3.01357,1.353709 -1.05127,0.991477 -2.09213,1.149769 -3.2877,0.499987 z"
       id="path36" /><path
       style="fill:#000000"
       d="m 13.932261,88.569268 c -0.08291,-0.618464 -0.351006,-3.981979 -0.595773,-7.47448 -0.352167,-5.024967 -0.547819,-6.554837 -0.937632,-7.331647 -0.552594,-1.101197 -0.641222,-2.76831 -0.198793,-3.739335 0.369832,-0.811694 1.301634,-1.319969 2.364453,-1.28975 2.266103,0.06443 3.198795,2.545112 1.882002,5.005563 -0.299835,0.560248 -0.661341,3.763492 -1.098814,9.736419 -0.149217,2.037292 -0.340915,4.269714 -0.425996,4.960938 -0.197042,1.600826 -0.782095,1.679049 -0.989447,0.132292 z"
       id="path35" /><path
       style="fill:#000000"
       d="m 18.099178,90.386027 c -0.07726,-0.201329 1.295698,-3.236471 3.051012,-6.744759 2.471447,-4.939598 3.19148,-6.615629 3.19148,-7.428848 0,-1.872765 1.920095,-2.888439 3.786325,-2.002855 1.92016,0.911176 1.889664,2.891245 -0.06484,4.209921 -1.115141,0.752371 -4.783034,5.432751 -7.954818,10.150672 -1.48559,2.209764 -1.762106,2.459678 -2.009159,1.815869 z"
       id="path34" /><path
       style="fill:#000000"
       d="M 8.0386146,87.402509 C 3.8141497,81.264648 2.0814608,78.983264 1.366436,78.617434 0.39643543,78.12115 -0.25167985,77.256363 -0.25869557,76.449004 c -0.0103422,-1.190163 0.50809403,-1.566292 2.40227747,-1.74287 1.6261836,-0.151595 1.776793,-0.119869 2.1828124,0.459804 0.2398605,0.342449 0.4324115,1.042627 0.427891,1.555951 -0.00589,0.669086 0.8712389,2.711602 3.0982071,7.214588 2.2591566,4.568071 3.0270476,6.36065 2.8153946,6.572304 -0.211654,0.211654 -0.9287813,-0.635574 -2.6292724,-3.106272 z"
       id="path33" /><path
       style="fill:#000000"
       d="m 21.058148,93.436374 c -0.198051,-0.320453 0.567498,-0.962492 4.474147,-3.752308 4.771179,-3.407195 7.653213,-5.603855 7.781585,-5.931051 0.05977,-0.152337 0.494345,-0.66393 0.965729,-1.136872 1.093646,-1.097264 2.357642,-1.166029 3.516059,-0.191286 1.009904,0.849779 1.264463,1.94351 0.719586,3.091753 -0.532615,1.122404 -1.253646,1.561436 -2.594769,1.579945 -0.81752,0.01128 -2.681965,0.797557 -7.802291,3.290384 -3.700441,1.801557 -6.771324,3.275558 -6.824184,3.275558 -0.05286,0 -0.158998,-0.101755 -0.235862,-0.226123 z"
       id="path32" /><path
       style="fill:#000000"
       d="m 0.83192831,90.445017 c -5.32120551,-2.619501 -6.67585751,-3.18293 -7.77401611,-3.233378 -1.1236317,-0.05162 -1.4475876,-0.19281 -2.0886946,-0.910334 -1.2516446,-1.400834 -0.9895996,-3.344723 0.5588248,-4.145445 1.448929,-0.74927 3.0342158,-0.256557 3.8921411,1.209692 0.4519861,0.772474 3.63473223,3.248291 9.8164353,7.636081 2.4560358,1.743301 3.0235151,2.377293 2.287474,2.555584 -0.1364258,0.03305 -3.1478998,-1.367444 -6.69216449,-3.1122 z"
       id="path31" /><path
       style="fill:#000000"
       d="m 51.147854,95.127321 c -0.463525,-0.201601 -1.029072,-0.726809 -1.256771,-1.167129 -1.256583,-2.429964 0.548477,-5.060195 3.472682,-5.060195 0.766652,0 3.316385,-1.04982 10.012642,-4.122578 4.941232,-2.267417 9.100987,-4.142652 9.243899,-4.167187 0.142913,-0.02454 0.293453,0.193515 0.334535,0.484556 0.05779,0.409453 -0.509428,0.913973 -2.50726,2.230101 -7.647738,5.038158 -13.782732,9.378637 -14.455665,10.227314 -0.775694,0.978273 -2.517169,1.954414 -3.472122,1.946211 -0.291042,-0.0025 -0.908415,-0.169492 -1.37194,-0.371093 z"
       id="path30" /><path
       style="fill:#000000"
       d="m 107.77663,95.234543 c -0.60467,-0.299313 -1.39469,-0.990409 -1.75559,-1.535771 -0.63608,-0.961172 -2.15458,-2.077914 -12.73513,-9.365728 -2.171656,-1.495822 -3.997261,-2.86606 -4.056898,-3.044973 -0.2957,-0.887098 1.182938,-0.403195 6.730722,2.202714 3.320428,1.559674 7.275096,3.414795 8.788146,4.122491 1.59052,0.743931 3.12877,1.286721 3.64652,1.286721 2.1395,0 3.60116,1.345333 3.94375,3.629884 0.20889,1.392954 -0.32019,2.330534 -1.62211,2.874507 -1.19576,0.499621 -1.63864,0.47403 -2.93941,-0.169845 z"
       id="path29" /><path
       style="fill:#000000"
       d="m 177.46854,98.958349 c -0.36708,-0.28874 -0.73829,-0.807392 -0.82492,-1.15256 -0.0866,-0.345168 -1.499,-1.989677 -3.13859,-3.654463 -4.45416,-4.522607 -6.15545,-6.548411 -5.79888,-6.904985 0.33585,-0.335842 2.035,0.750815 7.30772,4.673499 1.74353,1.297111 3.61007,2.47007 4.14786,2.606576 1.40296,0.356108 2.19812,1.303399 2.19812,2.618661 0,0.843879 -0.15643,1.206048 -0.73635,1.704876 -0.90998,0.782731 -2.23961,0.828414 -3.15496,0.108396 z"
       id="path28" /><path
       style="fill:#000000"
       d="m 144.36884,98.834506 c -0.75347,-0.698292 -0.94833,-2.097122 -0.42766,-3.069998 0.30427,-0.568541 1.58204,-1.308261 2.25984,-1.308261 0.39911,0 6.48988,-4.297992 9.3194,-6.576298 0.86625,-0.697502 1.20943,-0.841351 1.44506,-0.605724 0.23562,0.235627 -0.10257,0.73241 -1.42409,2.091871 -3.99384,4.108498 -6.789,7.405346 -6.9675,8.218044 -0.39954,1.819073 -2.81607,2.53763 -4.20505,1.250366 z"
       id="path27" /><path
       style="fill:#000000"
       d="m 38.893753,99.821592 c -0.218281,-0.08202 -0.712428,-0.369934 -1.098105,-0.639806 -0.726369,-0.508269 -2.295016,-0.727891 -9.088353,-1.272435 -5.721912,-0.45866 -6.482291,-0.567952 -6.482291,-0.931725 0,-0.451662 0.885003,-0.564481 8.466666,-1.079322 5.139432,-0.348999 6.705136,-0.54396 7.558014,-0.941122 1.355233,-0.631095 1.887475,-0.628101 2.944761,0.01657 1.181868,0.72063 1.632945,2.240029 1.018036,3.429132 -0.599333,1.158982 -2.194816,1.841026 -3.318728,1.41871 z"
       id="path26" /><path
       style="fill:#000000"
       d="m -12.404489,99.581043 c -0.794129,-0.556229 -1.343927,-1.882366 -1.16609,-2.81266 0.214163,-1.120323 1.489557,-2.047552 2.816388,-2.047552 0.611299,0 1.37917,0.187516 1.7063796,0.416702 0.6605741,0.462685 1.182018,0.519265 8.38635761,0.909975 6.47642539,0.351233 7.54062469,0.483206 7.54062469,0.93512 0,0.429526 -0.5941118,0.53328 -5.2916664,0.924119 -7.2466475,0.602925 -9.7453509,0.974217 -10.488108,1.55847 -0.8529043,0.670893 -2.6276555,0.729563 -3.5038855,0.115826 z"
       id="path25" /><path
       style="fill:#000000"
       d="m 12.821207,100.32131 c -1.29293,-0.602352 -1.935357,-1.515105 -2.124726,-3.018789 -0.270033,-2.144194 1.228596,-3.892256 3.505168,-4.088573 2.201654,-0.189856 4.052627,1.525564 4.052627,3.755841 0,2.784106 -2.86175,4.549441 -5.433069,3.351521 z"
       id="path24" /><path
       style="fill:#000000"
       d="m 166.78998,105.21297 c -0.55008,-0.47315 -0.70958,-0.83346 -0.67349,-1.52135 0.16823,-3.20642 0.0451,-4.366955 -0.8954,-8.441993 -1.09472,-4.743113 -1.1822,-5.362794 -0.78255,-5.543775 0.14552,-0.0659 0.76605,1.303319 1.37895,3.042708 2.15596,6.118537 3.04251,8.16597 3.83254,8.85107 0.48364,0.41939 0.81926,1.02006 0.91712,1.64137 0.13321,0.8457 0.0439,1.09031 -0.65167,1.78594 -0.99503,0.99502 -2.10798,1.06127 -3.1255,0.18603 z"
       id="path23" /><path
       style="fill:#000000"
       d="m 155.09195,105.22097 c -0.78958,-0.84048 -0.72098,-1.87314 0.21674,-3.26258 0.43561,-0.64545 1.69597,-3.698812 2.80081,-6.785242 1.10483,-3.086431 2.05019,-5.653381 2.10079,-5.704333 0.0506,-0.05095 0.20239,-0.02442 0.33731,0.05897 0.14084,0.08705 -0.25417,2.548823 -0.92765,5.781182 -1.01924,4.891793 -1.13949,5.802943 -0.9176,6.952493 0.29377,1.52189 -0.0878,2.81338 -0.97089,3.28599 -0.88871,0.47562 -2.01709,0.33605 -2.63951,-0.32648 z"
       id="path22" /><path
       style="fill:#000000"
       d="m 63.322397,106.51483 c -1.056263,-0.47063 -1.297516,-0.94616 -1.496844,-2.95042 -0.190018,-1.91064 0.158092,-2.57989 1.688236,-3.2457 0.792729,-0.344932 1.537643,-1.172469 3.490897,-3.878088 6.110314,-8.463918 8.988432,-12.303125 9.223221,-12.303125 0.139307,0 0.322804,0.181162 0.407771,0.402582 0.156979,0.409082 -0.490782,1.755824 -3.991765,8.299164 -3.909463,7.306787 -4.645995,8.927647 -4.645995,10.224297 0,2.07325 -1.025196,3.35571 -2.93788,3.6751 -0.524956,0.0877 -1.247454,-0.005 -1.737641,-0.22381 z"
       id="path21" /><path
       style="fill:#000000"
       d="m 95.46025,107.0111 c -0.843108,-0.45765 -1.264952,-1.71692 -1.267107,-3.78252 -0.0014,-1.29368 -0.303799,-2.00351 -3.551148,-8.334373 -1.95232,-3.806139 -3.946434,-7.658622 -4.431364,-8.561075 -0.669452,-1.245844 -0.807727,-1.714788 -0.574423,-1.948092 0.168998,-0.168998 0.42844,-0.232381 0.576539,-0.140851 0.148098,0.09153 2.02602,2.694578 4.17316,5.784551 5.687068,8.184324 7.124377,10.04306 8.231629,10.64522 2.504444,1.36198 2.690164,5.18961 0.311126,6.41224 -0.855332,0.43957 -2.589431,0.40203 -3.468412,-0.0751 z"
       id="path20" /><path
       style="fill:#000000"
       d="m 79.246329,111.08054 c -0.798756,-0.6283 -1.458828,-1.96325 -1.458828,-2.95038 0,-0.3468 0.286297,-1.169 0.636216,-1.8271 0.589219,-1.10817 0.688809,-1.90753 1.348188,-10.821181 0.391584,-5.293541 0.811659,-9.729727 0.933499,-9.85819 0.451018,-0.475534 0.988909,0.09138 1.143034,1.204714 0.08722,0.630037 0.417347,5.005836 0.733617,9.723998 0.541342,8.075839 0.611509,8.632219 1.197532,9.495779 0.465614,0.68612 0.622497,1.28141 0.622497,2.36204 0,1.29027 -0.09619,1.54094 -0.899583,2.34433 -0.781482,0.78148 -1.07205,0.89958 -2.213277,0.89958 -0.946977,0 -1.517249,-0.16011 -2.042895,-0.57359 z"
       id="path19" /><path
       style="fill:#000000"
       d="m 34.573336,112.28558 c -0.411699,-0.22314 -0.888935,-0.7396 -1.060526,-1.14769 -0.342199,-0.81385 -1.045994,-1.41045 -7.782077,-6.59679 -4.077485,-3.13939 -5.202179,-4.26405 -4.264173,-4.26405 0.379659,0 2.787293,1.22718 8.887404,4.52995 3.560216,1.9276 5.07711,2.6138 5.778006,2.6138 1.390968,0 2.4972,1.17208 2.4972,2.64583 0,2.13521 -2.09529,3.28154 -4.055834,2.21895 z"
       id="path18" /><path
       style="fill:#000000"
       d="m -8.2316978,112.31568 c -0.8755387,-0.47585 -1.396547,-1.70581 -1.1664148,-2.75359 0.2356045,-1.0727 1.5369078,-2.1413 2.6076072,-2.1413 0.5686178,0 2.5154417,-0.9099 5.99897039,-2.80378 5.20776841,-2.8313 8.09175471,-4.33997 8.29631171,-4.33997 0.061341,0 0.176578,0.16951 0.2560819,0.3767 0.09603,0.25025 -0.7159908,1.02092 -2.4190883,2.29589 -5.29273151,3.96225 -9.0686195,7.18255 -9.5668627,8.15918 -0.7708029,1.5109 -2.4928069,2.0296 -4.0066054,1.20687 z"
       id="path17" /><path
       style="fill:#000000"
       d="m 203.14136,116.00522 c -0.10316,-0.10317 -0.26776,-0.89639 -0.36578,-1.76273 l -0.1782,-1.57514 -0.95546,0.20391 c -0.52551,0.11215 -1.36577,0.2116 -1.86726,0.22099 -0.85503,0.016 -0.93439,-0.057 -1.275,-1.17354 -0.23754,-0.77867 -0.3233,-1.97972 -0.24787,-3.47124 0.13786,-2.72595 0.88842,-4.599 2.57695,-6.43083 l 1.11573,-1.21043 -0.7613,-0.003 c -2.31718,-0.01 -5.05584,-1.31544 -7.02483,-3.349662 -1.16507,-1.203661 -2.60001,-3.505817 -2.60001,-4.17133 0,-0.392818 2.65526,-2.000871 3.30389,-2.000871 0.45668,0 0.4473,-0.04915 -0.10816,-0.566637 -0.60837,-0.56679 -1.34406,-2.027029 -1.34317,-2.666011 7.1e-4,-0.510435 2.04628,-1.69084 3.81181,-2.199624 2.27465,-0.655501 5.45731,-0.448723 7.32575,0.475956 0.77578,0.383929 1.44255,0.66601 1.48171,0.626848 0.0392,-0.03916 -0.0458,-0.479252 -0.18886,-0.977976 -0.98234,-3.425242 0.59039,-8.257997 3.47819,-10.687925 1.08222,-0.910628 1.78333,-0.848008 3.09721,0.27663 l 1.10988,0.950011 0.93133,-0.817719 c 1.37496,-1.207228 2.31754,-1.116451 3.68798,0.355177 1.34465,1.44393 2.64334,4.047328 3.01093,6.03582 0.26608,1.439316 0.0914,3.587676 -0.39207,4.823079 -0.19407,0.495874 -0.16749,0.493341 0.52307,-0.04986 2.68315,-2.110561 8.23538,-1.979289 11.58711,0.273956 1.10509,0.742913 1.19239,1.31782 0.42901,2.825353 l -0.6029,1.190625 1.30062,0.79375 c 1.8044,1.101199 1.91382,1.360211 1.20849,2.860739 -1.399,2.976249 -4.41155,5.189044 -7.87245,5.782521 l -1.87264,0.32112 1.16087,1.02184 c 1.39107,1.22447 2.67733,3.70283 3.02193,5.82263 0.37986,2.33675 -0.27021,5.4901 -1.13181,5.4901 -0.18144,0 -0.96065,-0.16361 -1.73156,-0.36358 -1.56023,-0.40472 -1.49196,-0.46194 -1.74959,1.46643 -0.21532,1.61178 -0.49847,1.8204 -2.07182,1.52647 -1.46738,-0.27414 -2.51432,-0.75552 -1.67288,-0.76919 0.41018,-0.007 0.43875,-0.0763 0.16605,-0.40492 -0.43557,-0.52483 -1.43216,-0.53402 -1.2316,-0.0114 0.11852,0.30886 0.0215,0.33744 -0.488,0.14373 -2.12148,-0.80659 -4.79418,-3.39125 -5.54809,-5.36534 -0.26242,-0.68713 -0.55532,-1.24932 -0.65088,-1.24932 -0.0956,0 -0.31565,0.50602 -0.48907,1.12448 -0.65735,2.34436 -3.26686,4.94015 -6.02255,5.9909 -1.54259,0.58819 -3.61205,0.94794 -3.8847,0.6753 z m 11.48103,-10.60981 c 0.65253,-0.59053 0.6274,-1.84924 -0.0453,-2.26936 -0.56554,-0.35318 -0.68235,-1.48982 -0.35604,-3.464661 l 0.16729,-1.012528 1.51789,1.502039 c 1.07772,1.06648 1.4798,1.64768 1.38655,2.00425 -0.0722,0.27621 0.0638,0.80007 0.30238,1.16413 0.85617,1.30668 3.06735,0.59702 3.06735,-0.98444 0,-0.65482 -0.94089,-1.52863 -1.64598,-1.52863 -0.57725,0 -3.64569,-2.753654 -3.64569,-3.27169 0,-0.144623 0.83614,-0.174864 2.03437,-0.07358 1.50288,0.12704 2.1813,0.309994 2.59674,0.700282 1.55136,1.457422 3.76416,-0.588422 2.33934,-2.162831 -0.52957,-0.585172 -1.75444,-0.633424 -2.20795,-0.08698 -0.24482,0.294984 -0.89844,0.396875 -2.54594,0.396875 -1.24541,0 -2.21656,-0.111697 -2.21656,-0.254938 0,-0.140216 0.70889,-0.844879 1.5753,-1.565919 1.14119,-0.949704 1.728,-1.271052 2.12938,-1.166089 1.08598,0.28399 2.28632,-1.509195 1.64908,-2.46355 -0.23468,-0.351468 -1.23645,-0.899505 -1.64423,-0.899505 -0.51536,0 -1.5923,1.276491 -1.60821,1.906203 -0.0161,0.637626 -2.80911,3.205237 -3.21424,2.954856 -0.1155,-0.07138 -0.21,-1.001152 -0.21,-2.066152 0,-1.428657 0.10785,-2.025868 0.41132,-2.277728 0.74478,-0.618108 0.93445,-1.235884 0.60287,-1.963611 -0.5537,-1.215245 -2.07618,-1.254505 -2.95508,-0.0762 l -0.54177,0.726323 0.59012,0.79818 c 0.6474,0.875645 1.08214,3.837777 0.67044,4.56801 -0.35271,0.625597 -3.2696,-1.79284 -3.27795,-2.717795 -0.003,-0.363802 -0.0934,-0.792463 -0.20035,-0.952579 -0.23468,-0.351468 -1.23645,-0.899505 -1.64423,-0.899505 -0.49618,0 -1.59287,1.266877 -1.59287,1.840057 0,0.812493 0.94297,1.616723 1.8175,1.550086 0.56204,-0.04283 1.12698,0.263667 2.24227,1.216485 0.82001,0.700554 1.42561,1.379403 1.3458,1.508554 -0.25829,0.417908 -4.07425,0.281012 -4.51732,-0.162056 -0.89992,-0.899918 -2.74033,-0.161599 -2.74033,1.09934 0,0.750384 0.86669,1.678785 1.5672,1.678785 0.27988,0 0.84542,-0.279698 1.25677,-0.62155 0.61316,-0.509571 1.09349,-0.631938 2.66613,-0.67921 1.05503,-0.03171 1.91823,0.04335 1.91823,0.166811 0,0.502568 -3.08204,3.250621 -3.64569,3.250621 -0.70509,0 -1.64597,0.87381 -1.64597,1.52863 0,1.56789 2.21036,2.29235 3.05607,1.00164 0.23234,-0.3546 0.38455,-0.86838 0.33824,-1.14174 -0.10356,-0.61126 2.52191,-3.640998 2.93431,-3.386124 0.15777,0.09751 0.28596,0.953181 0.28596,1.908864 0,1.46159 -0.10331,1.85491 -0.66146,2.51823 -0.79981,0.95052 -0.82689,1.37382 -0.13229,2.06841 0.64283,0.64283 1.77025,0.68524 2.42656,0.0913 z"
       id="path16" /><path
       style="fill:#000000"
       d="m 25.796878,121.40119 c -0.990832,-0.54489 -1.443235,-1.36951 -1.449325,-2.64176 -0.007,-1.4584 -0.711259,-3.21511 -4.043831,-10.08667 -1.833141,-3.77982 -2.334659,-5.03936 -2.099995,-5.27403 0.16956,-0.16956 0.35335,-0.25669 0.408423,-0.19363 0.05507,0.0631 1.991429,2.96373 4.303014,6.44594 2.968384,4.47162 4.458554,6.48214 5.073323,6.84486 0.921844,0.5439 1.64485,1.6608 1.64485,2.54097 0,1.92023 -2.189902,3.26982 -3.836459,2.36432 z"
       id="path15" /><path
       style="fill:#000000"
       d="m 1.1363397,121.41539 c -1.07613133,-0.31116 -1.66550183,-1.14894 -1.66550183,-2.36748 0,-0.78527 0.17649481,-1.09737 0.99218746,-1.75453 0.54570307,-0.43964 1.69264467,-1.91808 2.54875897,-3.28543 2.3282761,-3.71861 7.3103237,-10.82045 7.5907037,-10.82045 0.493045,0 0.206251,0.79863 -1.7676938,4.92245 -3.4223411,7.1497 -4.3368732,9.35768 -4.3368732,10.47064 0,1.41724 -0.6082249,2.48213 -1.6189427,2.83447 -0.4626991,0.1613 -0.8532699,0.28253 -0.867935,0.26941 -0.014665,-0.0131 -0.4082817,-0.13421 -0.8747036,-0.26908 z"
       id="path14" /><path
       style="fill:#000000"
       d="m 13.312439,124.48966 c -1.579126,-0.67479 -2.144863,-3.11406 -1.012451,-4.36536 0.447819,-0.49483 0.467088,-0.63648 1.062219,-7.80868 0.663716,-7.99875 0.673045,-8.06979 1.059609,-8.06979 0.427291,0 0.511905,0.68336 1.081115,8.73125 0.285565,4.03751 0.549234,6.20854 0.8194,6.74688 0.695814,1.38648 0.844988,2.2053 0.577953,3.17242 -0.413095,1.49611 -2.081444,2.23698 -3.587845,1.59328 z"
       id="path13" /><path
       style="fill:#000000"
       d="m 63.04787,130.22261 c -0.166152,-0.10269 -0.560407,-0.87711 -0.876125,-1.72094 -0.712385,-1.90402 -1.861202,-3.07673 -3.630246,-3.70575 -2.284326,-0.81225 -2.457598,-1.50329 -0.522318,-2.08311 1.572583,-0.47116 3.489469,-2.39849 3.89369,-3.9149 0.174558,-0.65484 0.423784,-1.46259 0.553836,-1.79499 l 0.236458,-0.60438 0.748471,0.55337 c 0.424548,0.31388 0.945747,1.10198 1.204307,1.82101 0.569963,1.58501 1.713829,2.70684 3.672705,3.60194 2.0614,0.94195 2.021475,1.42278 -0.196412,2.3654 -2.014197,0.85604 -3.07598,1.94985 -3.691409,3.80273 -0.478252,1.43988 -0.919662,1.97213 -1.392957,1.67962 z"
       id="path12" /><path
       style="fill:#000000"
       d="m 206.17656,144.80494 c -0.32742,-0.0631 -0.59531,-0.22842 -0.59531,-0.36745 0,-0.13903 0.42328,-1.09332 0.94063,-2.12063 0.51735,-1.02732 0.9043,-1.96945 0.8599,-2.09363 -0.0444,-0.12418 -0.73559,0.0106 -1.53595,0.29949 -0.80037,0.2889 -1.66357,0.59305 -1.91823,0.67589 -0.41201,0.13401 -0.46302,-0.059 -0.46302,-1.75183 0,-3.57935 1.66511,-7.28679 4.39201,-9.77903 1.81075,-1.65492 3.81693,-2.45774 6.51965,-2.60896 2.50262,-0.14004 2.57735,-0.0336 1.96322,2.79641 -0.2388,1.10043 -0.40561,2.02657 -0.37068,2.0581 0.0349,0.0315 0.88738,-0.11356 1.89433,-0.32241 1.00695,-0.20885 1.98922,-0.31894 2.18281,-0.24465 0.88684,0.34031 0.16047,4.90784 -1.17807,7.40791 -2.21417,4.13552 -8.09016,6.93701 -12.69129,6.05079 z"
       id="path11" /><path
       style="fill:#000000"
       d="m 15.345837,151.79786 c -3.635934,-1.24416 -6.3448343,-3.48827 -7.6959312,-6.3755 -0.9014721,-1.9264 -1.381579,-4.34547 -1.1488337,-5.78851 0.1835133,-1.13779 0.2958843,-1.16349 2.627057,-0.6006 2.3044449,0.55643 2.2509219,0.58077 1.8261889,-0.83051 -0.204039,-0.67797 -0.370981,-1.80907 -0.370981,-2.51354 v -1.28087 h 1.573842 c 3.37682,0 7.584557,2.02078 9.622422,4.6212 1.80771,2.30673 2.886391,5.94723 2.612657,8.8176 -0.09186,0.96321 -0.190268,1.11329 -0.730042,1.11329 -0.34313,0 -1.239072,-0.24249 -1.990983,-0.53887 -0.751911,-0.29637 -1.429539,-0.47644 -1.505839,-0.40014 -0.0763,0.0763 0.235802,0.98668 0.693561,2.02306 0.457759,1.03638 0.766764,1.99035 0.686679,2.11993 -0.301039,0.48709 -4.416117,0.2438 -6.199797,-0.36654 z"
       id="path10" /><path
       style="fill:#000000"
       d="m 117.93903,191.49438 c -2.4939,-3.82598 -6.03761,-6.95284 -10.56014,-9.31793 l -1.4971,-0.78292 1.60958,-1.86291 c 4.67078,-5.40591 7.09269,-11.67682 7.15719,-18.53166 0.0259,-2.75109 -0.44334,-7.10841 -0.83199,-7.72608 -0.0979,-0.15562 -1.13053,-0.58249 -2.2947,-0.94862 l -2.11666,-0.66568 -0.031,-1.72022 c -0.0526,-2.9154 -0.07,-2.94132 -2.95064,-4.38673 -3.11213,-1.56156 -5.58852,-2.3565 -8.055132,-2.58574 l -1.846024,-0.17157 -1.295266,-1.61331 c -1.789456,-2.22884 -4.31095,-7.40992 -5.010811,-10.29604 -0.311118,-1.283 -0.504122,-2.49313 -0.428897,-2.68916 0.07522,-0.19603 1.316505,-0.74311 2.758402,-1.21573 2.582974,-0.84664 2.622105,-0.87191 2.653768,-1.71414 0.02411,-0.64139 -0.09691,-0.88858 -0.484718,-0.98999 -0.656262,-0.17162 -1.123371,-1.37755 -0.909956,-2.34922 0.119709,-0.54503 0.05088,-0.79152 -0.253656,-0.90838 -0.698398,-0.268 -0.47141,-0.77366 0.574242,-1.27923 2.273461,-1.09921 5.601745,-2.33673 7.209898,-2.68076 4.48016,-0.95846 9.71576,0.025 13.31451,2.50101 1.03573,0.7126 1.19112,0.95851 1.46388,2.31667 0.2398,1.19405 0.23455,1.56307 -0.0245,1.72318 -0.2136,0.13201 -0.23729,0.28308 -0.0673,0.42909 0.26321,0.22606 1.7258,0.89666 1.7082,0.7832 -0.62295,-4.01453 -0.68393,-4.8959 -0.50113,-7.24265 0.34893,-4.47956 2.27469,-9.30436 5.25626,-13.16903 1.30862,-1.6962 4.87558,-5.181083 5.30312,-5.181083 0.17363,0 1.07978,0.733724 2.01368,1.630493 0.93389,0.89678 1.73859,1.58139 1.78822,1.52136 0.0496,-0.06 0.58935,-0.85328 1.19938,-1.76279 0.61003,-0.909505 1.25354,-1.651657 1.43002,-1.649225 0.59932,0.0083 4.64107,2.322355 6.58619,3.770915 5.19091,3.86575 8.94248,9.45063 10.00758,14.89808 0.1729,0.88428 0.27317,2.87871 0.22282,4.43207 -0.0504,1.55335 -0.032,2.82323 0.0407,2.82194 0.0728,-0.001 0.39926,-0.46988 0.72555,-1.04132 0.32629,-0.57145 1.2704,-1.7704 2.09803,-2.66433 5.81961,-6.28588 15.28245,-8.6006 24.74191,-6.05216 3.14541,0.84739 3.09336,0.76693 2.40321,3.71468 -0.31844,1.36015 -0.65617,2.73723 -0.7505,3.06019 -0.17011,0.58241 -0.1438,0.5878 3.23067,0.66146 l 3.40217,0.0743 0.0765,2.47772 c 0.32825,10.6348 -7.33318,21.72136 -16.64479,24.08608 -1.83527,0.46607 -2.1333,0.82058 -0.68984,0.82058 1.17065,0 3.78689,0.73869 5.719,1.61476 4.9419,2.24076 9.55609,7.62546 10.91807,12.74124 0.32363,1.21559 0.31271,1.27459 -0.3156,1.70633 -1.4556,1.00019 -4.01551,3.69692 -5.31374,5.59772 -0.75886,1.11109 -1.40759,2.05823 -1.44163,2.10476 -0.034,0.0465 -1.10001,-0.63504 -2.36883,-1.5146 -4.02707,-2.79161 -7.92892,-3.98392 -13.05741,-3.99005 -4.20741,-0.005 -6.961,0.62203 -10.20918,2.32487 -2.6629,1.39601 -2.7195,1.48534 -2.76178,4.3585 -0.0251,1.70398 -0.0623,1.80571 -0.75398,2.06044 -0.40018,0.14737 -1.69975,0.76356 -2.88793,1.36931 -2.48924,1.26905 -2.39102,1.06268 -2.65161,5.57159 l -0.16508,2.85632 -0.87372,-0.84684 c -1.58801,-1.53916 -3.53246,-5.84791 -3.5391,-7.84237 -0.004,-1.21927 -0.45049,-1.06722 -0.66931,0.22796 -0.10109,0.59833 -0.71063,2.14025 -1.35453,3.42651 -3.04406,6.08082 -9.74451,10.61944 -17.36465,11.76215 l -1.18583,0.17783 z m 22.05257,-23.02957 c 1.06245,-0.71372 1.74018,-2.34825 1.45114,-3.49985 -0.10527,-0.41944 -0.59422,-1.14253 -1.08656,-1.60686 l -0.89515,-0.84424 -0.0789,-4.65738 c -0.0577,-3.4049 0.005,-4.68962 0.23416,-4.77728 0.17221,-0.0659 1.86713,1.45089 3.7665,3.37076 l 3.45338,3.49066 0.004,1.26991 c 0.005,1.56306 0.56038,2.6949 1.58265,3.22353 1.93063,0.99837 3.74291,-0.0756 4.34163,-2.57298 0.39176,-1.63406 -1.23873,-3.64025 -2.95854,-3.64025 -0.8514,0 -1.25823,-0.32693 -4.52713,-3.63802 -3.24892,-3.29086 -3.52866,-3.64705 -2.93146,-3.73261 0.36311,-0.052 2.53654,0.0531 4.82984,0.23367 4.07977,0.32119 4.17671,0.34298 4.49792,1.01076 0.18055,0.37537 0.73283,0.95483 1.2273,1.28768 2.96217,1.99403 6.46829,-1.71595 4.45084,-4.70964 -0.80881,-1.20021 -1.66396,-1.6106 -3.06695,-1.47187 -0.82386,0.0815 -1.37567,0.33338 -1.91783,0.87554 l -0.76118,0.76118 -4.82904,-0.44345 c -2.65597,-0.24389 -4.86583,-0.45436 -4.91079,-0.46771 -0.2259,-0.0671 0.4808,-0.71031 3.60723,-3.28333 3.37125,-2.77451 3.41874,-2.80228 4.3517,-2.54467 0.72805,0.20102 1.1904,0.16155 2.02655,-0.17301 2.88435,-1.15409 2.97468,-4.82691 0.15233,-6.19319 -0.99108,-0.47977 -1.30842,-0.51926 -2.21374,-0.27549 -1.64408,0.44271 -2.9685,2.32902 -2.60668,3.71261 0.10795,0.41279 -0.59811,1.11642 -3.44718,3.43533 -1.97061,1.60392 -3.74472,2.91622 -3.94246,2.91622 -0.28927,0 -0.35953,-0.90364 -0.35953,-4.62411 0,-4.59641 0.004,-4.62661 0.63866,-5.04257 1.5761,-1.0327 1.82194,-3.32787 0.52193,-4.87283 -1.38347,-1.64417 -3.85324,-1.6381 -5.24245,0.0129 -1.33657,1.58843 -1.01608,3.93182 0.6743,4.93035 l 0.76172,0.44996 v 4.57316 c 0,3.79366 -0.0646,4.57316 -0.37915,4.57316 -0.20854,0 -1.96432,-1.28743 -3.90173,-2.86096 -3.49447,-2.83815 -3.52404,-2.87139 -3.70824,-4.16719 -0.14625,-1.02885 -0.38439,-1.48882 -1.12148,-2.16612 -0.80193,-0.73689 -1.13005,-0.85989 -2.29372,-0.85989 -1.22462,0 -1.45878,0.10084 -2.38514,1.0272 -0.86456,0.86457 -1.0272,1.20179 -1.0272,2.12981 0,2.53062 2.03653,4.05293 4.52944,3.38575 0.60367,-0.16157 1.14675,0.1806 4.21425,2.65516 1.93669,1.56234 3.56268,2.96886 3.61329,3.1256 0.0609,0.18869 -1.56931,0.40072 -4.82442,0.62747 -4.79271,0.33386 -4.93107,0.32919 -5.49691,-0.18578 -1.41922,-1.29161 -3.01757,-1.47891 -4.44007,-0.52029 -1.06465,0.71746 -1.55511,1.5923 -1.56043,2.78332 -0.008,1.79381 1.57675,3.48939 3.2634,3.4916 1.13835,0.001 2.5684,-0.78772 3.11934,-1.72149 l 0.49162,-0.83323 3.50618,-0.31003 c 3.84136,-0.33966 6.01972,-0.39507 6.01972,-0.1531 0,0.0859 -1.49454,1.72299 -3.3212,3.63802 l -3.32121,3.48186 -1.45469,0.1649 c -3.16327,0.35858 -4.31209,3.48611 -2.09495,5.70326 0.74326,0.74325 1.06837,0.87872 2.10894,0.87872 0.67662,0 1.56544,-0.17335 1.97516,-0.38522 1.0414,-0.53853 1.7104,-2.05311 1.52011,-3.44145 l -0.15129,-1.10381 3.3174,-3.48789 c 1.82458,-1.91834 3.42666,-3.48788 3.5602,-3.48788 0.13856,0 0.24278,2.0973 0.24278,4.88548 0,4.65713 -0.0254,4.89907 -0.54332,5.17626 -0.77272,0.41355 -1.57119,1.83421 -1.57236,2.79757 -0.001,0.97882 0.94798,2.48078 1.85904,2.94179 1.0214,0.51683 2.45831,0.40655 3.45866,-0.26546 z"
       id="path9" /><path
       style="fill:#000000"
       d="m 133.23648,212.34046 c -0.51627,-1.35182 -1.80548,-2.59686 -3.14768,-3.03983 -1.57865,-0.521 -1.48101,-1.15479 0.28585,-1.85556 1.12425,-0.44589 2.26445,-1.76714 2.85148,-3.30425 0.63416,-1.66053 1.31715,-1.57628 2.02502,0.24981 0.61456,1.58538 1.14606,2.16746 2.7783,3.0427 0.67845,0.36381 1.28142,0.80778 1.33994,0.9866 0.0612,0.18704 -0.49219,0.59225 -1.30285,0.95399 -1.65204,0.73719 -2.12047,1.21068 -2.86673,2.89773 -0.72539,1.63985 -1.35492,1.66191 -1.96333,0.0688 z"
       id="path8" /><path
       style="fill:#000000"
       d="m 7.215761,218.70761 c -3.7224325,-0.93638 -7.17287792,-3.51772 -8.5449393,-6.39261 -0.6727106,-1.40954 -0.7918764,-1.95285 -0.7343819,-3.34826 0.037747,-0.91613 0.011475,-1.84429 -0.058381,-2.06257 -0.1049588,-0.32797 0.2060787,-0.39688 1.79135556,-0.39688 1.10309291,0 1.91830884,-0.11248 1.91822904,-0.26468 -7.62e-5,-0.14557 -0.1727003,-1.08944 -0.383609,-2.09747 -0.21090863,-1.00804 -0.32294441,-1.93073 -0.24896837,-2.05043 0.21951747,-0.35518 3.54553437,-0.24036 5.34830947,0.18464 3.8039525,0.89678 6.5043615,3.03865 8.0057425,6.34987 1.252018,2.76127 1.959345,6.46721 1.310846,6.86801 -0.227942,0.14087 -2.74002,-0.40006 -3.868027,-0.83292 -0.545375,-0.20928 -0.376278,0.47472 0.616324,2.49302 0.375878,0.76428 0.59482,1.47821 0.486536,1.58649 -0.347925,0.34793 -4.2105678,0.32312 -5.6390357,-0.0362 z"
       id="path7" /><path
       style="fill:#000000"
       d="m -11.205573,229.4572 c -0.07833,-0.12674 -0.394564,-0.90436 -0.702746,-1.72805 -0.646583,-1.72815 -2.05893,-3.1035 -3.688269,-3.59166 -2.151834,-0.64471 -2.266864,-1.52506 -0.277162,-2.12118 1.454041,-0.43565 2.794562,-1.67991 3.71425,-3.44755 0.887324,-1.70543 1.397346,-2.40417 1.754848,-2.40417 0.138947,0 0.5308084,0.78797 0.8708031,1.75104 0.7495078,2.12308 1.8044929,3.24724 3.7362426,3.98125 0.9928524,0.37725 1.431986,0.68854 1.431986,1.01509 0,0.50622 -0.030608,0.52719 -2.3014112,1.57698 -1.6129579,0.74567 -2.2758497,1.55058 -3.1271194,3.79706 -0.4399221,1.16095 -1.0862751,1.69729 -1.4114221,1.17119 z"
       id="path6" /><path
       style="fill:#000000"
       d="m 229.79062,232.70379 c -0.14552,-0.0514 -0.83013,-0.16961 -1.52135,-0.26273 -0.70019,-0.0943 -1.25647,-0.3086 -1.25609,-0.48383 3.7e-4,-0.17299 0.4135,-0.99913 0.91806,-1.83587 l 0.91737,-1.52136 -0.71962,0.006 c -0.39579,0.003 -1.19577,0.11669 -1.77772,0.25159 -1.42072,0.32933 -1.5965,0.0807 -1.23076,-1.74045 0.90047,-4.48375 3.76218,-7.42605 8.07881,-8.30634 1.80284,-0.36764 4.35886,-0.14208 4.56808,0.40314 0.11643,0.30341 -0.0399,1.01388 -0.75505,3.43169 -0.0451,0.15234 0.34195,0.22747 0.91666,0.17796 0.54706,-0.0471 1.35073,-0.007 1.78594,0.0881 0.70344,0.1545 0.79127,0.28162 0.79109,1.14496 -3.1e-4,1.41312 -1.36865,4.0857 -2.80814,5.48472 -1.40481,1.36533 -3.72344,2.63552 -5.27779,2.89128 -1.95906,0.32236 -2.3651,0.36418 -2.62949,0.27083 z"
       id="path5" /><path
       style="fill:#000000"
       d="m 52.148536,234.96584 c -0.170918,-0.10564 -0.739906,-1.61093 -1.264416,-3.3451 -0.52451,-1.73417 -0.975343,-3.18185 -1.001852,-3.21707 -0.02651,-0.0352 -1.086967,0.35482 -2.356573,0.86677 -1.269605,0.51194 -2.830798,1.00241 -3.469316,1.08993 l -1.160942,0.15913 -1.21419,-1.87695 c -2.70891,-4.18754 -4.098975,-8.43412 -4.303707,-13.14761 -0.15359,-3.53605 0.328693,-6.17764 1.658908,-9.08628 0.70612,-1.54399 3.353652,-5.20603 3.907154,-5.40433 0.173677,-0.0622 0.256245,-0.17432 0.183484,-0.24911 -0.07276,-0.0748 -1.203854,0.0855 -2.513541,0.35621 -2.652583,0.54826 -6.256963,0.6387 -8.863542,0.2224 -2.646367,-0.42265 -6.656272,-1.89672 -9.045079,-3.32503 -3.327807,-1.98975 -8.946587,-7.5945 -8.946587,-8.92425 0,-0.23018 0.848487,-1.37983 1.885526,-2.55478 l 1.885526,-2.13626 -1.664016,-1.51082 c -0.915209,-0.83095 -1.882758,-1.66639 -2.150109,-1.85655 -0.742965,-0.52843 -0.599678,-1.09468 0.819449,-3.23839 2.754547,-4.16096 6.089662,-7.1468 10.163238,-9.09887 3.741322,-1.79285 5.409794,-2.13714 10.227052,-2.11038 3.654009,0.0203 4.356101,0.10024 6.440938,0.73338 1.286942,0.39082 2.685927,0.88953 3.108854,1.10823 0.996932,0.51554 0.971431,0.27551 -0.09634,-0.90679 -1.746501,-1.93383 -3.924305,-6.89264 -4.720162,-10.7477 -0.538247,-2.60721 -0.415707,-7.81638 0.24757,-10.5242 0.963691,-3.93426 3.639603,-9.67882 4.697687,-10.08484 0.239649,-0.092 1.477931,0.3016 2.811847,0.89369 1.310987,0.58191 2.480497,0.99814 2.598911,0.92496 0.118414,-0.0732 0.473007,-0.90748 0.787985,-1.85399 0.736762,-2.21397 1.092972,-2.57135 2.338823,-2.34651 1.945336,0.35107 5.460384,1.47074 7.332183,2.33556 4.057752,1.8748 8.247712,5.20244 10.703929,8.50101 2.28134,3.06372 3.861875,7.21889 4.181396,10.99274 l 0.187953,2.21992 1.051199,-1.98438 c 1.397595,-2.63827 5.041146,-6.30515 7.808398,-7.85839 3.502961,-1.96619 8.364551,-3.25411 12.283523,-3.25411 0.770773,0 2.438929,0.18093 3.707013,0.40207 2.73601,0.47712 6.73418,1.9324 6.20593,2.25887 -0.28561,0.17652 -0.2722,0.30687 0.0717,0.69635 0.6548,0.74165 0.78979,1.93436 0.39164,3.46013 l -0.36362,1.39347 0.68998,0.14804 c 1.23776,0.26556 4.12165,1.15546 4.45681,1.37526 0.56114,0.368 0.90519,5.11322 0.59314,8.18089 -0.62911,6.18468 -3.09988,11.6978 -6.9826,15.58052 -1.81513,1.81513 -4.5236,3.68199 -5.724598,3.94577 -1.15935,0.25464 -0.945332,0.65863 0.348908,0.65863 1.68276,0 4.80112,0.95117 7.18582,2.19182 5.74176,2.9872 9.62144,7.86879 11.41341,14.36091 0.48413,1.75397 0.85293,8.75081 0.47996,9.10584 -0.12812,0.12195 -1.78075,0.43454 -3.67253,0.69463 -1.89177,0.2601 -3.46658,0.48661 -3.49958,0.50336 -0.033,0.0168 0.24045,1.44895 0.60766,3.18266 0.97819,4.61834 0.99709,4.56011 -1.82166,5.61055 -3.65696,1.3628 -6.75582,1.97172 -10.76454,2.1152 -5.70954,0.20435 -10.383709,-0.88331 -14.669164,-3.41348 -2.26424,-1.33682 -5.586954,-4.58545 -6.720081,-6.57023 l -0.830787,-1.45521 -0.0025,3.19882 c -0.0039,5.05014 -1.192842,8.79604 -3.988897,12.56771 -3.573639,4.82058 -9.117322,8.20666 -15.493745,9.46358 -3.057409,0.60268 -5.718937,0.85445 -6.158806,0.5826 z m 21.57854,-28.46083 c 0.871989,-0.57135 1.676978,-1.94714 1.678186,-2.86815 0.0016,-1.19381 -0.728122,-2.41976 -1.79824,-3.0212 l -0.986312,-0.55433 -1.249049,-4.96107 c -0.686977,-2.72858 -1.193119,-5.01699 -1.12476,-5.08535 0.141039,-0.14104 1.895119,0.98463 6.019246,3.86281 2.81537,1.96482 2.844271,1.9958 2.844271,3.04897 0,4.0131 6.015557,4.3115 6.761477,0.3354 0.216359,-1.15329 -0.0084,-1.8234 -0.984203,-2.93482 -0.896659,-1.02124 -2.167823,-1.38465 -3.373338,-0.96441 -0.699116,0.24372 -0.937046,0.16613 -2.189457,-0.71397 -0.772807,-0.54306 -2.749156,-1.92279 -4.391886,-3.06605 -1.64273,-1.14326 -2.892886,-2.16483 -2.778125,-2.27017 0.114762,-0.10533 2.434598,-0.43788 5.155193,-0.73899 l 4.946536,-0.54748 0.913985,0.91398 c 0.782734,0.78274 1.092397,0.91399 2.15639,0.91399 1.610784,0 2.655836,-0.6363 3.329037,-2.02695 0.465962,-0.96255 0.498418,-1.26145 0.240841,-2.21802 -0.732414,-2.71998 -3.956762,-3.62923 -5.917331,-1.66866 -0.381765,0.38177 -0.694119,0.84109 -0.694119,1.02073 0,0.21244 -0.670534,0.38977 -1.918229,0.50731 -1.055026,0.0994 -3.330243,0.36064 -5.056037,0.58055 -1.725794,0.21992 -3.306964,0.33494 -3.513711,0.2556 -0.401744,-0.15416 -0.02174,-0.68291 3.873394,-5.38963 1.85592,-2.24262 2.050295,-2.39914 3.002722,-2.41793 3.251711,-0.0641 5.061304,-3.41469 3.069469,-5.68327 -1.544446,-1.75902 -3.972543,-1.81859 -5.391495,-0.13226 -0.832022,0.9888 -1.057444,1.80731 -0.830666,3.01614 0.179641,0.95757 -0.09564,1.33396 -5.979832,8.17624 -0.462506,0.53781 -0.792876,0.72956 -0.9583,0.55619 -0.138851,-0.14552 -0.769116,-2.37325 -1.400589,-4.95052 l -1.148132,-4.68593 0.591397,-0.62951 c 2.869924,-3.0549 -1.321505,-7.37758 -4.905838,-5.05946 -2.063959,1.33483 -1.821823,4.8581 0.403325,5.8687 0.539127,0.24486 1.010614,0.45926 1.047748,0.47646 0.08172,0.0378 2.446025,9.41818 2.446025,9.70455 0,0.4218 -0.793408,0.14517 -5.198642,-1.81256 -4.069299,-1.80844 -4.552152,-2.09122 -4.682351,-2.74221 -0.217074,-1.08538 -1.405665,-2.3389 -2.539996,-2.67875 -1.34237,-0.40218 -2.644427,0.0346 -3.705369,1.24292 -1.893985,2.15713 -0.222144,5.66318 2.700458,5.66318 0.337706,0 1.050242,-0.2224 1.583411,-0.49422 l 0.969399,-0.49423 2.592274,1.17495 c 5.648522,2.56022 6.51478,3.00825 6.275015,3.24551 -0.133737,0.13234 -2.445814,1.00266 -5.137949,1.93404 l -4.894792,1.69342 -0.79375,-0.48563 c -2.286164,-1.39872 -5.159374,0.28196 -5.159374,3.01797 0,1.17481 0.109982,1.42835 1.010045,2.32841 1.292638,1.29264 2.11944,1.49927 3.654037,0.9132 1.220834,-0.46624 2.212089,-1.62772 2.214095,-2.59431 0.0012,-0.55857 0.337629,-0.7098 5.645797,-2.53759 4.133029,-1.42314 4.409358,-1.49306 4.409358,-1.1157 0,0.12971 -1.124575,2.24307 -2.499056,4.69636 l -2.499055,4.46053 -1.350803,0.47866 c -1.598749,0.56653 -2.380743,1.6265 -2.379603,3.22551 0.0014,1.96402 1.452525,3.40943 3.421929,3.40846 1.42071,-7e-4 2.507533,-0.6249 3.107233,-1.78459 0.487531,-0.94278 0.554312,-2.71329 0.118768,-3.14883 -0.165364,-0.16537 -0.300663,-0.46033 -0.300663,-0.65547 0,-0.51368 4.760619,-9.32895 5.038024,-9.32895 0.265131,0 0.402875,0.47522 1.708535,5.89435 l 0.942049,3.90997 -0.73545,0.96434 c -2.324043,3.04733 1.394989,7.0697 4.596833,4.97177 z"
       id="path4" /><path
       style="fill:#000000"
       d="m 122.2547,242.00159 c -0.53326,-1.24405 -1.34796,-2.01375 -2.71835,-2.56821 -1.52018,-0.61506 -1.5514,-1.26836 -0.0859,-1.79828 1.03644,-0.37479 2.52249,-1.94478 2.52249,-2.66499 0,-0.26986 0.23066,-0.77173 0.51259,-1.11527 0.66279,-0.80766 1.28934,-0.46864 1.7862,0.96653 0.43755,1.26382 1.24242,2.15786 2.46371,2.73664 1.28278,0.60793 1.23352,1.34577 -0.1323,1.98143 -1.46238,0.6806 -1.97494,1.18302 -2.53842,2.48817 -0.62452,1.44652 -1.18223,1.4385 -1.81,-0.026 z"
       id="path3" /><path
       style="fill:#000000"
       d="m 98.236098,243.03282 c -2.778987,-0.86849 -4.652082,-2.61056 -5.795177,-5.38978 -0.688336,-1.67356 -0.789042,-2.69325 -0.313004,-3.16929 0.17917,-0.17917 1.037528,-0.3175 1.970125,-0.3175 h 1.652624 l -0.514916,-1.49663 c -0.833575,-2.42282 -0.807739,-2.47212 1.295747,-2.47212 3.971183,0 7.444853,2.19947 9.350753,5.92074 0.57122,1.11532 0.95323,3.71015 0.57968,3.93751 -0.12745,0.0776 -0.88013,0.0378 -1.67263,-0.0884 -0.7925,-0.12616 -1.47989,-0.1904 -1.52754,-0.14275 -0.0476,0.0477 0.21237,0.60971 0.57782,1.24902 0.82318,1.44004 0.84186,1.98088 0.0755,2.18625 -1.03743,0.27802 -4.520849,0.14486 -5.679002,-0.21709 z"
       id="path2" /><path
       style="fill:#000000"
       d="m 98.954167,265.12769 c 0,-0.88489 4.757953,-1.68159 6.217713,-1.04113 l 0.79375,0.34825 -1.19063,0.0759 c -1.21112,0.0772 -4.14504,0.51416 -5.22552,0.77824 -0.358724,0.0877 -0.595313,0.0236 -0.595313,-0.16126 z"
       id="path1" /></g></svg>
