<?xml version="1.0" encoding="UTF-8" standalone="no"?>
<!-- Created with Inkscape (http://www.inkscape.org/) -->

<svg
   width="311.61005mm"
   height="317.94843mm"
   viewBox="0 0 311.61005 317.94843"
   version="1.1"
   id="svg1"
   xml:space="preserve"
   sodipodi:docname="stamp_goal_clover_2.svg"
   inkscape:version="1.4.4 (dcaf3e7, 2026-05-05)"
   xmlns:inkscape="http://www.inkscape.org/namespaces/inkscape"
   xmlns:sodipodi="http://sodipodi.sourceforge.net/DTD/sodipodi-0.dtd"
   xmlns="http://www.w3.org/2000/svg"
   xmlns:svg="http://www.w3.org/2000/svg"><sodipodi:namedview
     id="namedview1"
     pagecolor="#ffffff"
     bordercolor="#000000"
     borderopacity="0.25"
     inkscape:showpageshadow="2"
     inkscape:pageopacity="0.0"
     inkscape:pagecheckerboard="0"
     inkscape:deskcolor="#d1d1d1"
     inkscape:document-units="mm"
     inkscape:zoom="0.021636109"
     inkscape:cx="600.8474"
     inkscape:cy="577.73789"
     inkscape:window-width="944"
     inkscape:window-height="250"
     inkscape:window-x="0"
     inkscape:window-y="33"
     inkscape:window-maximized="0"
     inkscape:current-layer="layer1"><inkscape:page
       x="0"
       y="0"
       width="311.61005"
       height="317.94843"
       id="page2"
       margin="0"
       bleed="0" /></sodipodi:namedview><defs
     id="defs1" /><g
     inkscape:label="Layer 1"
     inkscape:groupmode="layer"
     id="layer1"
     transform="translate(44.666233,-9.8267734)"><path
       style="fill:#000000"
       d="m 108.3206,326.85485 c -3.67707,-1.94125 -13.853216,-8.17467 -19.484737,-11.93541 l -1.783929,-1.19132 -1.490804,1.29063 c -2.562406,2.21834 -4.949273,4.1132 -6.171785,4.8996 -1.598001,1.02793 -3.136051,1.03846 -4.244772,0.0291 -1.011239,-0.92066 -1.262738,-2.20272 -1.49675,-7.62996 -0.09671,-2.24282 -0.246638,-4.07609 -0.333181,-4.07394 -0.08654,0.002 -0.872637,0.17263 -1.746876,0.37884 -0.874238,0.20622 -3.017363,0.58867 -4.7625,0.8499 -4.484466,0.67127 -19.165096,0.67596 -25.794851,0.008 -13.313413,-1.34088 -26.213042,-3.9421 -34.8756903,-7.03271 -4.7320662,-1.68828 -6.31565512,-2.72555 -7.6579642,-5.01602 -0.6171894,-1.05316 -0.7275029,-1.58761 -0.8497828,-4.11708 l -0.1405215,-2.90681 -5.5562501,-1.40387 c -7.8019581,-1.97128 -16.7565821,-4.53557 -17.4693891,-5.00262 -0.810189,-0.53086 -1.280009,-1.75627 -1.080692,-2.81872 0.151636,-0.8083 2.956772,-4.46601 10.183155,-13.27818 1.067759,-1.30207 1.995997,-2.50973 2.06275,-2.68368 0.06675,-0.17396 -1.688699,-4.10925 -3.901005,-8.7451 -6.673737,-13.9847 -6.422083,-13.36942 -6.037655,-14.7617 0.336345,-1.21814 1.367203,-2.00149 2.633891,-2.00149 0.552237,0 3.542508,0.60229 6.645048,1.33843 10.7641034,2.55398 25.981154,6.36898 26.846626,6.7306 1.017111,0.42497 5.529385,4.68943 6.071786,5.73832 0.266954,0.51623 0.371527,1.7586 0.371527,4.41384 v 3.69538 l 1.366482,0.29306 c 5.190707,1.1132 17.769159,3.05693 18.627309,2.87845 0.241715,-0.0503 -0.758546,-0.94712 -2.450491,-2.19713 -3.481383,-2.57205 -12.967915,-10.15725 -15.691216,-12.54633 -18.8562916,-16.54207 -31.391429,-31.2877 -41.857134,-49.23837 -15.539968,-26.654 -23.606955,-55.91049 -22.871214,-82.94688 0.186222,-6.84311 0.420608,-9.60848 1.379168,-16.27187 5.695529,-39.592237 29.817762,-72.716932 62.428713,-85.727227 15.711076,-6.2680092 32.595532,-7.7001825 48.562225,-4.119145 6.372861,1.429316 15.027457,4.615931 20.35616,7.495121 7.820709,4.225664 16.01273,10.398628 21.81296,16.436808 l 1.04317,1.085965 3.85162,-3.778609 c 4.45963,-4.375089 7.05362,-6.506364 11.65683,-9.577483 6.02764,-4.021449 12.08917,-6.990637 18.91771,-9.266676 10.29171,-3.430354 17.69608,-4.5373229 28.65564,-4.2840794 6.8488,0.1582554 10.96921,0.6559834 17.23463,2.0818644 23.48769,5.345323 44.22692,21.006689 57.75484,43.613946 8.03266,13.423826 13.33062,27.749429 16.04805,43.39368 4.66242,26.841555 0.53634,55.710995 -12.00619,84.005215 -13.49135,30.43461 -33.44275,54.63849 -64.42759,78.15978 -2.54662,1.93319 -4.66369,3.60393 -4.70462,3.71275 -0.0796,0.21162 0.73949,0.11293 7.74733,-0.93345 4.16879,-0.62247 10.76398,-1.80568 11.8401,-2.12416 0.41105,-0.12166 0.46302,-0.53405 0.46302,-3.67386 0,-1.94525 0.12673,-3.87013 0.28161,-4.27751 0.30919,-0.81322 4.06786,-4.56718 5.53923,-5.53228 1.31199,-0.86057 7.75353,-2.54562 27.35086,-7.15478 7.6931,-1.80937 8.40602,-1.81748 9.29119,-0.10575 0.83562,1.61591 0.97036,1.26276 -6.18996,16.22351 -2.56011,5.34907 -3.69341,7.98615 -3.52491,8.20208 0.13659,0.17504 1.90877,2.34231 3.93817,4.81617 4.94472,6.02764 7.61317,9.40372 7.98535,10.10292 0.47663,0.89541 0.36832,2.31627 -0.23504,3.08332 -0.37483,0.47651 -1.208,0.90007 -2.69378,1.36943 -2.85916,0.90321 -11.76858,3.31621 -16.87188,4.56954 l -4.10105,1.00718 -0.15048,2.7661 c -0.28594,5.25598 -1.86999,6.93358 -8.88856,9.41352 -11.9086,4.20779 -29.30552,7.09103 -44.80367,7.42544 -7.97546,0.17209 -13.1793,-0.11954 -18.25625,-1.02309 -1.67349,-0.29784 -3.28083,-0.55791 -3.57187,-0.57794 -0.50338,-0.0346 -0.53848,0.18652 -0.72032,4.53844 -0.21724,5.19937 -0.46079,6.41591 -1.43841,7.18491 -1.0276,0.80831 -2.85683,0.73574 -4.196,-0.16647 -1.6076,-1.08305 -4.59847,-3.4867 -6.13807,-4.93293 l -1.38029,-1.29659 -2.32387,1.53176 c -5.5868,3.68249 -14.18712,8.90848 -18.62259,11.31604 -2.807,1.52363 -3.51909,1.5561 -5.95256,0.27139 z m 11.00648,-10.73894 c 7.08933,-4.27825 11.1125,-6.8967 11.1125,-7.23246 0,-0.17297 -0.19712,-0.47789 -0.43804,-0.67761 -0.36321,-0.30109 -3.02305,-3.49094 -3.55272,-4.26064 -0.0849,-0.12333 -2.10914,0.94128 -4.49837,2.3658 -4.93841,2.94441 -6.38413,3.65251 -6.98583,3.42162 -0.61897,-0.23752 -1.22299,-1.80043 -0.86331,-2.23385 0.15698,-0.18917 2.31973,-1.54425 4.80612,-3.01129 2.48638,-1.46703 4.68263,-2.8179 4.88054,-3.00191 0.29929,-0.27827 0.0281,-0.84021 -1.61119,-3.33872 -1.08407,-1.65228 -2.71864,-4.34232 -3.63237,-5.97787 -1.58114,-2.8302 -1.69493,-2.96477 -2.35755,-2.78824 -0.89003,0.23713 -8.86571,0.23932 -10.08894,0.003 l -0.92605,-0.17908 -1.71373,3.10143 c -0.94255,1.70578 -2.52013,4.31167 -3.505728,5.79087 -0.985598,1.47919 -1.787496,2.78888 -1.781996,2.91041 0.0055,0.12154 2.218974,1.53066 4.918824,3.13139 2.69985,1.60073 5.00211,3.08901 5.11613,3.3073 0.3471,0.66447 -0.62278,2.38125 -1.34527,2.38125 -0.46204,0 -7.161276,-3.93612 -9.344554,-5.49037 l -1.306329,-0.92996 -0.545755,0.66153 c -3.926119,4.75902 -3.918743,4.74844 -3.552602,5.09439 0.489931,0.46292 10.48231,6.7701 14.25164,8.99563 1.67349,0.98807 3.39925,2.01286 3.83503,2.27728 l 0.79232,0.48079 1.98581,-1.08295 c 1.09219,-0.59563 3.95033,-2.26851 6.35142,-3.71752 z m -38.059046,-3.73465 c 5.833512,-5.21003 11.328977,-11.57227 15.378688,-17.8043 2.306484,-3.54941 3.991508,-6.43733 3.842788,-6.58606 -0.0478,-0.0478 -1.867674,1.10142 -4.044216,2.55378 -4.625981,3.0868 -10.758139,6.21001 -14.688596,7.48115 l -2.777677,0.89832 -0.339182,1.15199 c -0.684137,2.32358 -0.733122,14.51345 -0.05832,14.51345 0.11766,0 1.326593,-0.99375 2.686518,-2.20833 z m 62.492866,0.42239 c 0.26702,-2.82725 0.20012,-8.94253 -0.1256,-11.48241 l -0.29804,-2.32397 -1.47072,-0.42755 c -5.3726,-1.56186 -11.40018,-4.66875 -17.85759,-9.20462 -1.4268,-1.00223 -2.64491,-1.7715 -2.70691,-1.7095 -0.15221,0.15221 3.39665,5.98096 5.30929,8.72013 3.7857,5.42163 8.53269,10.84653 13.33298,15.23703 1.79006,1.63725 3.34314,2.97683 3.45129,2.97683 0.10815,0 0.27253,-0.80368 0.3653,-1.78594 z m -81.104231,-7.75857 c 3.397868,-0.2484 4.035607,-0.37013 5.076664,-0.96904 1.463206,-0.84177 4.723981,-3.26507 5.402868,-4.01523 l 0.499979,-0.55247 -1.430069,-0.005 c -4.633303,-0.0149 -8.844169,-2.07856 -11.149092,-5.464 -1.542697,-2.26588 -2.111129,-4.42155 -2.116167,-8.02515 -0.0046,-3.2898 0.260541,-4.79277 1.76573,-10.00919 0.517733,-1.79426 0.941334,-3.60997 0.941334,-4.03489 v -0.77259 h -3.947702 c -15.829714,0 -42.69792,-4.22409 -52.8846193,-8.31426 -1.9534075,-0.78433 -2.2297673,-0.83683 -2.3878572,-0.45355 -0.09833,0.23839 -0.1787812,7.53866 -0.1787812,16.22282 0,15.53446 0.00881,15.80119 0.545515,16.52011 0.8961813,1.20044 1.692587,1.64779 4.88203,2.74224 4.3425277,1.49013 9.1301367,2.73248 15.2099557,3.94688 13.999675,2.79632 28.826496,3.98296 39.770212,3.18292 z m 113.026661,0.0144 c 4.54671,-0.31345 9.54162,-0.8535 14.81667,-1.60197 11.25022,-1.59628 25.33498,-5.27173 28.00443,-7.30782 1.66283,-1.2683 1.63208,-0.93464 1.5976,-17.33647 -0.0172,-8.19022 -0.11061,-15.2485 -0.20753,-15.68506 -0.20982,-0.94502 -0.26518,-0.94263 -3.20075,0.13815 -4.71351,1.73536 -14.78757,4.04297 -23.54792,5.394 -10.38729,1.60194 -17.23636,2.24612 -26.1276,2.4574 -7.81862,0.1858 -7.1364,-0.30294 -5.86494,4.20154 2.7322,9.67951 2.63749,14.5496 -0.36834,18.94195 -2.05246,2.99922 -5.59794,4.82267 -10.04735,5.1674 -1.3186,0.10216 -2.02465,0.26415 -1.96301,0.45039 0.13799,0.4169 4.56609,3.71015 5.85258,4.35266 0.81183,0.40544 1.94673,0.60155 4.52158,0.7813 4.83391,0.33746 12.02115,0.35769 16.53458,0.0465 z M 78.908946,294.05351 c 2.488852,-0.66606 6.064517,-2.09565 9.234827,-3.6922 2.493475,-1.25569 2.561201,-1.53266 0.327548,-1.33951 -1.001154,0.0866 -3.368092,0.28496 -5.259863,0.44087 -6.358718,0.52405 -10.725018,1.66286 -13.427093,3.50204 -1.320908,0.89909 -1.495682,1.17708 -0.88689,1.4107 2.016294,0.77372 6.4502,0.63116 10.011471,-0.3219 z m 74.382834,0.25806 c 0.45821,-0.26286 0.42878,-0.33353 -0.39687,-0.95294 -3.05502,-2.2919 -7.79061,-3.42374 -17.40685,-4.16035 -1.95276,-0.14959 -3.60236,-0.22009 -3.66577,-0.15667 -0.17189,0.17188 4.74636,2.58219 7.53748,3.69392 4.31905,1.72034 5.84507,2.01967 9.86523,1.93509 1.96453,-0.0413 3.79458,-0.2029 4.06678,-0.35905 z m -86.902607,-4.33272 c 2.342828,-2.19956 6.086463,-3.6985 11.530618,-4.61682 1.309688,-0.22092 5.385698,-0.64118 9.0578,-0.9339 5.916057,-0.4716 11.48872,-1.2558 12.244868,-1.72313 0.144549,-0.0893 0.192901,-0.44099 0.10745,-0.78146 -0.08545,-0.34046 -0.294248,-2.02482 -0.463992,-3.743 l -0.308626,-3.12397 -1.984375,-0.60997 c -1.091406,-0.33548 -3.823527,-1.08629 -6.071379,-1.66846 -4.432155,-1.14787 -5.210447,-1.50544 -5.462478,-2.50961 -0.484341,-1.92977 0.957275,-2.98682 3.387887,-2.48415 2.331394,0.48216 6.050977,1.59253 8.01248,2.39188 1.019305,0.4154 1.984925,0.75567 2.145822,0.75617 0.172953,5.3e-4 0.354544,-0.78324 0.444219,-1.91732 0.08342,-1.05503 0.363422,-2.56375 0.622218,-3.35272 l 0.470535,-1.43448 -1.708504,-1.5567 c -6.521037,-5.9416 -15.754093,-10.5119 -23.668925,-11.71596 -5.166827,-0.78601 -8.401672,0.20332 -9.955515,3.04475 -0.65816,1.20354 -0.40782,5.47258 0.558553,9.525 1.147232,4.81084 1.327329,8.57539 0.544281,11.37709 -2.276269,8.14433 -2.239791,7.96608 -2.247082,10.9802 -0.0059,2.44128 0.08606,3.113 0.570546,4.16719 0.317673,0.69123 0.618571,1.25677 0.668663,1.25677 0.05009,0 0.727314,-0.59733 1.504936,-1.3274 z m 91.578867,-0.51246 c 0.86092,-2.97556 0.47899,-6.79363 -1.25484,-12.54455 -0.86242,-2.86053 -0.96987,-3.54196 -0.986,-6.25309 -0.0156,-2.6211 0.11924,-3.63294 0.97318,-7.30245 1.44565,-6.21219 1.29975,-9.40961 -0.50237,-11.00984 -1.27889,-1.13562 -3.03724,-1.62961 -5.78238,-1.62448 -3.08424,0.006 -4.74274,0.30847 -8.73125,1.59368 -3.78421,1.21937 -8.55892,3.53239 -12.03855,5.83185 -2.47529,1.63576 -3.76065,2.6287 -6.82779,5.27445 l -0.87468,0.7545 0.39848,1.12041 c 0.21917,0.61623 0.5332,2.10432 0.69785,3.30686 0.16465,1.20254 0.34153,2.2286 0.39307,2.28014 0.0515,0.0515 1.20267,-0.33266 2.55807,-0.85376 3.23865,-1.24515 7.18984,-2.28027 8.70723,-2.28111 1.79968,-9.9e-4 2.64785,1.17018 1.98915,2.74667 -0.44344,1.06131 -0.74693,1.18668 -6.11533,2.52619 -2.32834,0.58096 -4.88818,1.28017 -5.68855,1.55379 l -1.4552,0.4975 -0.16661,2.62145 c -0.0916,1.44179 -0.25398,3.18699 -0.36077,3.87821 -0.10679,0.69123 -0.0914,1.25687 0.0343,1.25699 0.12567,1.2e-4 1.08607,0.17913 2.13422,0.3978 2.8363,0.59172 5.17683,0.86687 11.29796,1.32814 10.69649,0.80606 15.87069,2.25808 19.25788,5.40426 1.56494,1.45359 1.79068,1.40507 2.34292,-0.50361 z m -160.2955685,-16.35024 0.078568,-12.10469 0.741616,-1.51022 c 1.40907074,-2.86942 4.366231,-4.43052 10.701675,-5.6495 1.3460335,-0.25898 2.4473345,-0.54859 2.4473345,-0.64358 0,-0.55585 -3.417136,-1.57471 -12.8322922,-3.82607 -5.8208334,-1.39189 -11.9525518,-2.87094 -13.6260418,-3.28679 -1.67349,-0.41585 -3.083596,-0.64929 -3.13357,-0.51874 -0.04997,0.13055 1.944323,4.51719 4.431771,9.74809 2.689576,5.65596 4.5226324,9.8278 4.5226324,10.29302 0,0.55012 -0.412244,1.28992 -1.3890624,2.49276 -7.377501,9.08454 -10.021827,12.40225 -9.945587,12.47825 0.08848,0.0882 10.903242,3.06749 14.7742328,4.07006 1.0914062,0.28267 2.2466756,0.52478 2.5672652,0.53802 l 0.5828902,0.0241 z m 237.2384385,9.68504 c 4.30929,-1.16223 7.86564,-2.14371 7.90299,-2.18106 0.0688,-0.0688 -2.1488,-2.80461 -7.286,-8.98868 -4.00748,-4.82414 -4.28206,-5.20813 -4.28206,-5.98825 0,-0.38387 1.79923,-4.44055 3.99829,-9.01484 2.19906,-4.5743 4.24773,-8.85268 4.55259,-9.50753 0.30486,-0.65484 0.59914,-1.27992 0.65396,-1.38906 0.2016,-0.40138 -1.06961,-0.16469 -7.38313,1.37464 -3.54856,0.86519 -9.72614,2.3416 -13.72796,3.28092 -6.89643,1.61873 -9.525,2.38852 -9.525,2.78942 0,0.0977 1.23976,0.38738 2.75503,0.64374 5.2981,0.89638 9.03725,2.55053 10.62254,4.69927 1.37175,1.8593 1.43909,2.56768 1.43909,15.13747 v 11.62369 l 1.22229,-0.18329 c 0.67226,-0.10082 4.74807,-1.13421 9.05737,-2.29644 z m -119.97771,1.91619 c 3.04767,-0.37963 3.7446,-2.27076 3.71469,-10.07988 -0.0234,-6.09558 -0.5972,-8.79138 -2.03552,-9.56236 -0.72386,-0.388 -6.61853,-0.63066 -9.03467,-0.37191 -2.13989,0.22916 -3.17856,0.97808 -3.62175,2.6114 -0.80515,2.96733 -0.71043,12.06479 0.15546,14.93041 0.49989,1.65436 1.24694,2.23869 3.16156,2.47294 1.87993,0.23001 5.81134,0.2297 7.66023,-6e-4 z M 61.117735,266.36927 c -5.57e-4,-0.0364 -0.295429,-1.55442 -0.655271,-3.37344 -1.844519,-9.3241 0.168659,-14.39103 6.543757,-16.46986 2.367323,-0.77195 7.293377,-0.7464 10.889274,0.0565 8.418964,1.87978 16.76678,6.25722 23.704505,12.4302 l 1.98437,1.76563 1.05834,-0.3261 c 1.41554,-0.43617 11.2,-0.44174 12.83229,-0.007 l 1.19063,0.31689 1.71979,-1.5613 c 6.78468,-6.15943 15.54814,-10.79878 23.85159,-12.62697 5.06674,-1.11555 9.16571,-0.91883 12.46323,0.59816 4.32815,1.99112 6.22011,6.05051 5.51639,11.83593 -0.2801,2.30274 -0.73196,4.78094 -1.22168,6.70021 l -0.18565,0.72761 2.2115,-10e-4 c 1.21632,-7.5e-4 3.35578,-0.0772 4.75436,-0.16978 l 2.54286,-0.16841 4.20401,-2.91281 c 18.3132,-12.68856 35.21627,-27.76104 46.94297,-41.85909 25.17481,-30.2656 39.50293,-68.74168 38.52455,-103.45209 C 259.49892,100.4657 255.95968,85.153481 248.7981,69.453123 237.19811,44.022397 216.14717,25.419826 192.05541,19.310001 c -13.14329,-3.333224 -25.83633,-3.468783 -38.20123,-0.407982 -11.07276,2.740943 -20.14928,7.184822 -29.01426,14.205425 -2.72952,2.161639 -8.72532,7.975653 -10.08996,9.78405 l -0.72068,0.955038 0.93877,1.558503 c 0.51633,0.857178 1.18544,2.234699 1.48691,3.061159 l 0.54814,1.502656 1.51624,-1.899531 c 0.83394,-1.044741 2.63675,-3.061771 4.00627,-4.482289 2.29448,-2.37994 2.56887,-2.582518 3.49423,-2.579688 1.36235,0.0042 2.30308,0.937139 2.30308,2.284101 0,0.853391 -0.21971,1.201872 -1.6757,2.65786 -1.4054,1.405401 -1.82183,1.675695 -2.58171,1.675695 -0.80551,0 -1.10377,0.232661 -2.68875,2.097428 l -1.78274,2.097429 1.41595,-0.14614 c 5.70133,-0.588428 7.70438,5.804932 3.13756,10.01448 -2.06605,1.90442 -6.37555,3.500602 -6.95984,2.577837 -0.12857,-0.203038 -0.23558,-0.483707 -0.23781,-0.623711 -0.002,-0.140003 1.18658,-1.394674 2.64179,-2.788156 2.25195,-2.15643 2.64583,-2.65731 2.64583,-3.364571 0,-1.695288 -1.73054,-2.200999 -3.47512,-1.015525 -1.77801,1.208187 -4.41503,5.899844 -4.07049,7.242007 0.10024,0.39048 0.2019,1.065836 0.22591,1.500792 0.0367,0.665097 -0.0857,0.833358 -0.7698,1.058333 l -0.81347,0.267505 0.4758,1.058334 c 0.31967,0.711055 0.47726,1.709479 0.48025,3.042708 0.004,1.72114 -0.0998,2.166152 -0.78145,3.35468 -0.85654,1.49346 -1.66758,2.20157 -2.5216,2.20157 -0.70686,0 -2.36449,-1.701034 -2.89232,-2.968064 -0.52871,-1.26915 -0.52306,-3.484428 0.0129,-5.057413 0.41616,-1.221349 0.41308,-1.248597 -0.19843,-1.758122 -0.34163,-0.28465 -0.69771,-0.521507 -0.79128,-0.526349 -0.42513,-0.022 -0.4541,-0.93332 -0.0563,-1.771598 0.43589,-0.91857 0.43418,-0.926187 -0.71394,-3.190525 -1.56426,-3.085029 -3.18917,-4.826208 -4.68795,-5.023393 -0.86378,-0.113641 -1.25384,-0.03703 -1.65365,0.324795 -1.122001,1.0154 -0.55309,2.088635 2.73485,5.159207 1.49975,1.400607 2.03865,2.075535 1.98079,2.480789 -0.20738,1.452407 -4.760133,0.0099 -7.082741,-2.244111 -2.578436,-2.502288 -3.131723,-6.287576 -1.228329,-8.403569 1.271576,-1.413605 3.6207,-2.00983 5.34129,-1.355661 0.83113,0.315994 0.88591,0.417596 -1.34305,-2.490714 -1.307338,-1.7058 -1.338226,-1.726262 -2.62378,-1.738196 -1.238908,-0.0115 -1.380681,-0.09189 -2.976563,-1.687771 -1.455988,-1.455988 -1.675694,-1.804469 -1.675694,-2.65786 0,-1.400004 0.934967,-2.281029 2.420689,-2.281029 1.076947,0 1.233551,0.113943 3.914631,2.848218 1.536047,1.56652 3.377807,3.592995 4.092817,4.503278 l 1.30001,1.65506 0.71032,-1.825668 c 0.39068,-1.004118 1.08802,-2.385316 1.54966,-3.069329 l 0.83933,-1.24366 -0.76967,-0.970928 C 105.95658,41.350028 99.815636,35.479251 97.366666,33.515155 85.952082,24.360552 71.728625,18.612064 56.912197,17.16526 52.617878,16.745925 43.916352,17.013017 39.421885,17.702122 26.538662,19.677415 14.419481,24.695537 3.7695105,32.464501 -4.6948182,38.639079 -12.920322,47.289745 -18.869567,56.273755 -30.064211,73.178889 -36.25251,92.31574 -37.597762,114.1893 c -1.404224,22.83244 4.349451,48.72403 16.164153,72.73883 12.6029614,25.61702 30.6471363,46.70637 58.00609,67.79534 4.465076,3.44179 9.12263,6.85712 13.181708,9.66597 2.123008,1.46911 2.735152,1.76418 3.836459,1.84931 1.568627,0.12125 7.528529,0.22459 7.527087,0.13052 z M 13.758332,258.7625 c 0,-2.00962 -0.0068,-2.0165 -1.5875,-1.61238 -0.509323,0.13021 -1.853416,0.44608 -2.9868735,0.70193 -1.1334573,0.25585 -2.1172532,0.55647 -2.1862133,0.66805 -0.06896,0.11158 0.5607579,0.40671 1.3993731,0.65584 1.8368367,0.54569 4.8873047,1.38161 5.1627757,1.41476 0.109141,0.0131 0.198438,-0.80955 0.198438,-1.8282 z m 198.913968,0.81034 c 1.41143,-0.40107 2.53636,-0.83676 2.49983,-0.96821 -0.0677,-0.24372 -3.5931,-1.20678 -5.58138,-1.52472 l -1.09908,-0.17575 v 1.87624 1.87623 l 0.80719,-0.17729 c 0.44395,-0.0975 1.962,-0.50543 3.37344,-0.9065 z M 111.40366,61.449477 c 0.17583,-0.545703 0.94292,-2.36257 1.70465,-4.037482 1.31926,-2.900856 1.37531,-3.114193 1.18161,-4.497917 -0.11183,-0.798942 -0.33952,-1.802553 -0.50597,-2.230246 -0.35041,-0.900382 -2.59638,-4.118817 -2.87076,-4.11375 -0.32327,0.006 -2.65917,3.786041 -3.08405,4.990785 -0.63694,1.806019 -0.503,2.662745 0.87805,5.616251 0.70749,1.513053 1.49757,3.316552 1.75574,4.007776 0.25816,0.691224 0.5035,1.256771 0.54521,1.256771 0.0417,0 0.21968,-0.446485 0.39552,-0.992188 z"
       id="path105" /><path
       style="fill:#000000"
       d="m 170.62705,28.376168 c -2.0348,-0.07617 -2.34505,-0.156484 -2.9044,-0.751889 -0.90657,-0.965004 -0.86148,-2.518125 0.10107,-3.481052 0.66741,-0.667664 0.92407,-0.735261 3.11563,-0.820552 3.51959,-0.136976 4.74398,0.554201 4.74398,2.677995 0,0.754602 -0.17811,1.177167 -0.70009,1.66092 -0.38505,0.356854 -0.85156,0.648825 -1.03669,0.648825 -0.18513,0 -0.49517,0.03398 -0.68897,0.07551 -0.1938,0.04153 -1.37754,0.03714 -2.63053,-0.0098 z"
       id="path104" /><path
       style="fill:#000000"
       d="m 46.242588,28.427148 c -1.285087,-0.697392 -1.623939,-2.091684 -0.865006,-3.559298 0.536529,-1.037534 1.867827,-1.401135 4.696564,-1.282716 1.938095,0.08113 2.367174,0.18541 2.926803,0.711281 1.340287,1.259437 0.956318,3.452176 -0.727722,4.155813 -1.239646,0.517957 -5.059251,0.502072 -6.030639,-0.02508 z"
       id="path103" /><path
       style="fill:#000000"
       d="m 183.66515,29.50252 c -2.69325,-0.534175 -3.4839,-1.190828 -3.4839,-2.893446 0,-0.737515 0.91828,-1.962682 1.69137,-2.256607 0.34243,-0.130194 1.54855,-0.02177 3.0741,0.276349 1.38082,0.269833 2.5357,0.494203 2.56641,0.498599 0.0307,0.0044 0.2986,0.26857 0.59531,0.587051 0.36632,0.39319 0.53948,0.937662 0.53948,1.696272 0,0.922731 -0.14171,1.236455 -0.81405,1.802193 -0.90983,0.76557 -1.54605,0.809767 -4.16872,0.289589 z"
       id="path102" /><path
       style="fill:#000000"
       d="m 155.3974,29.776793 c -1.53357,-0.667092 -1.88853,-2.444469 -0.75678,-3.78947 0.54104,-0.642991 1.02912,-0.850823 2.84427,-1.211131 2.91263,-0.578158 3.44283,-0.551544 4.26918,0.214292 0.55145,0.511063 0.7001,0.894514 0.7001,1.805962 0,1.663258 -0.70815,2.225729 -3.59696,2.857016 -2.71922,0.594226 -2.40318,0.58296 -3.45981,0.123331 z"
       id="path101" /><path
       style="fill:#000000"
       d="m 61.515624,29.738823 c -1.468677,-0.286993 -2.002707,-0.52794 -2.579687,-1.163919 -0.881884,-0.97206 -0.939653,-2.040218 -0.163692,-3.026693 0.858551,-1.09147 1.500404,-1.218841 3.973296,-0.788471 2.894326,0.503714 3.029113,0.55357 3.657973,1.353036 0.798207,1.014755 0.70246,2.336535 -0.237329,3.276324 -0.886819,0.886818 -1.619882,0.941945 -4.650561,0.349723 z"
       id="path100" /><path
       style="fill:#000000"
       d="m 33.028207,30.286978 c -1.00738,-0.54708 -1.416179,-1.927933 -0.921361,-3.1122 0.472749,-1.131448 0.580222,-1.19799 2.914143,-1.804306 2.7669,-0.718797 3.751839,-0.661268 4.686862,0.273756 0.863256,0.863256 0.982998,1.757976 0.389,2.906641 -0.435814,0.842771 -1.100392,1.157221 -3.666916,1.735027 -2.183262,0.491522 -2.498459,0.491622 -3.401728,0.0011 z"
       id="path99" /><path
       style="fill:#000000"
       d="m 195.70401,32.715585 c -2.29894,-0.924555 -2.82276,-1.435487 -2.82276,-2.753343 0,-1.23198 0.41629,-1.896251 1.46225,-2.333278 0.8252,-0.344792 1.06125,-0.312903 3.21985,0.434987 2.67758,0.927704 3.51998,1.65995 3.51998,3.059695 0,0.676929 -0.21144,1.143087 -0.77339,1.705037 -0.99807,0.998067 -1.8979,0.975972 -4.60593,-0.113098 z"
       id="path98" /><path
       style="fill:#000000"
       d="m 142.52365,33.590616 c -0.88555,-0.696569 -1.1519,-2.047339 -0.61025,-3.094781 0.3139,-0.607014 0.92563,-1.011582 2.649,-1.751934 3.14869,-1.352663 4.34998,-1.246311 5.05782,0.447773 0.43664,1.04503 0.25303,2.091042 -0.48821,2.781334 -0.67986,0.63312 -4.42663,2.158239 -5.30217,2.158239 -0.34039,0 -0.92818,-0.243284 -1.30619,-0.540631 z"
       id="path97" /><path
       style="fill:#000000"
       d="m 74.083333,33.301375 c -2.398459,-0.962689 -2.910417,-1.492582 -2.910417,-3.012378 0,-0.94571 0.137429,-1.253432 0.81405,-1.822772 1.047605,-0.881501 1.518435,-0.864202 4.080742,0.14993 2.526095,0.9998 2.754314,1.16099 3.219535,2.273947 0.305389,0.730585 0.302594,0.99595 -0.01859,1.76464 -0.714724,1.710574 -2.103216,1.883725 -5.185325,0.646633 z"
       id="path96" /><path
       style="fill:#000000"
       d="M 20.607879,34.528217 C 19.60958,33.985652 19.18477,32.812734 19.567045,31.65443 c 0.390309,-1.182649 0.494529,-1.259321 3.272513,-2.407517 2.094522,-0.865707 2.427987,-0.93393 3.245747,-0.664045 1.57992,0.521421 2.13666,2.613764 1.069286,4.018595 -0.417205,0.549107 -4.480562,2.32782 -5.283768,2.312941 -0.314526,-0.0058 -0.882851,-0.17961 -1.262944,-0.386187 z"
       id="path95" /><path
       style="fill:#000000"
       d="m 207.30104,38.09806 c -2.15217,-1.206001 -2.77812,-1.871847 -2.77812,-2.955185 0,-1.523849 0.9268,-2.576908 2.28008,-2.590713 0.87624,-0.0089 4.19993,1.757811 5.02779,2.672585 0.78432,0.866673 0.61453,2.28478 -0.37996,3.173358 -1.13225,1.011662 -1.90923,0.955483 -4.14979,-0.300045 z"
       id="path94" /><path
       style="fill:#000000"
       d="m 131.15054,39.474582 c -0.86423,-0.902061 -0.93128,-2.081465 -0.17312,-3.045302 0.29581,-0.37606 1.42805,-1.238591 2.51608,-1.916734 1.67357,-1.04309 2.11489,-1.207354 2.86543,-1.066551 1.52851,0.28675 2.27186,1.628371 1.76058,3.177561 -0.22825,0.691585 -0.7653,1.204687 -2.34959,2.244805 -2.46877,1.620795 -3.51572,1.758191 -4.61938,0.606221 z"
       id="path93" /><path
       style="fill:#000000"
       d="m 86.502352,39.621352 c -2.155561,-1.104474 -3.687769,-2.53687 -3.687769,-3.447538 0,-1.211476 0.490124,-2.053255 1.422274,-2.442732 1.163448,-0.48612 1.916901,-0.261014 4.311739,1.288199 1.461903,0.9457 1.966458,1.43647 2.197949,2.137896 0.398134,1.206356 -0.204337,2.423913 -1.458745,2.948039 -1.123216,0.469309 -0.823594,0.521357 -2.785448,-0.483864 z"
       id="path92" /><path
       style="fill:#000000"
       d="m 9.0820276,40.617675 c -0.7704361,-0.539634 -1.109488,-1.662977 -0.8248264,-2.732806 0.1871285,-0.703275 0.6332954,-1.132897 2.2566548,-2.172975 1.112876,-0.713014 2.348991,-1.367898 2.746923,-1.455299 1.061036,-0.233042 2.246427,0.480024 2.605212,1.567153 0.50029,1.515893 -0.10195,2.489986 -2.440651,3.947635 -2.128938,1.326908 -3.324537,1.55987 -4.3433124,0.846292 z"
       id="path91" /><path
       style="fill:#000000"
       d="m 218.85193,46.01362 c -0.58069,-0.226565 -3.37139,-2.435338 -3.81416,-3.018831 -0.93187,-1.228016 -0.21071,-3.12313 1.3685,-3.596275 1.22837,-0.368026 1.54501,-0.21634 4.05779,1.94387 1.36158,1.170525 1.52136,1.414743 1.52136,2.325288 0,1.72888 -1.61537,2.938258 -3.13349,2.345948 z"
       id="path90" /><path
       style="fill:#000000"
       d="M -0.19825749,48.559537 C -1.2432967,48.098017 -1.7098299,47.169393 -1.4887367,45.990864 -1.3641465,45.326742 -0.82412272,44.663973 0.70588108,43.29742 2.5732421,41.629549 2.8086303,41.496762 3.65452,41.634031 c 1.3293467,0.215723 2.1663114,1.103273 2.1663114,2.297239 0,1.138341 -0.4617853,1.796884 -2.4527478,3.497817 -1.6679219,1.42495 -2.38489057,1.652213 -3.56634109,1.13045 z"
       id="path89" /><path
       style="fill:#000000"
       d="m 227.2424,54.561631 c -0.23736,-0.104367 -1.1601,-0.995803 -2.05052,-1.980969 -1.30261,-1.441204 -1.61896,-1.964159 -1.61896,-2.676298 0,-1.76699 1.82223,-2.992378 3.29913,-2.218553 0.37791,0.198009 1.33802,1.106357 2.13357,2.018553 1.13989,1.307015 1.44647,1.848107 1.44647,2.552957 0,1.585548 -1.84003,2.906548 -3.20969,2.30431 z"
       id="path88" /><path
       style="fill:#000000"
       d="m 54.365461,55.986905 c -1.99367,-0.868641 -1.834035,-3.963018 0.239755,-4.64743 1.104488,-0.364514 2.060433,-0.153203 2.747755,0.607388 1.199618,1.327499 0.775153,3.344499 -0.84641,4.022032 -1.105126,0.461751 -1.12231,0.461896 -2.1411,0.01801 z"
       id="path87" /><path
       style="fill:#000000"
       d="m -8.6367963,57.945975 c -0.7705823,-0.310968 -1.4173727,-1.292786 -1.4173727,-2.151549 0,-0.676758 1.4341305,-2.84037 3.0036019,-4.531407 1.1200648,-1.206822 3.0546114,-0.948482 3.8323472,0.511772 0.6314281,1.185551 0.3725915,2.053605 -1.1785577,3.952501 -1.9777643,2.421153 -2.744323,2.822271 -4.2400187,2.218683 z"
       id="path86" /><path
       style="fill:#000000"
       d="m 167.60713,61.807738 c -2.40793,-1.049135 -1.57013,-4.922324 1.06475,-4.922324 1.34279,0 2.51354,1.169372 2.51354,2.510584 0,1.303924 -0.40057,1.960603 -1.46801,2.406607 -1.07164,0.447761 -1.09425,0.447816 -2.11028,0.0051 z"
       id="path85" /><path
       style="fill:#000000"
       d="m 234.25218,64.218227 c -0.31104,-0.176745 -1.13874,-1.154792 -1.83934,-2.173437 -1.56747,-2.279055 -1.71871,-3.52151 -0.55092,-4.525998 1.02271,-0.8797 2.26576,-0.842349 3.13592,0.09423 1.21722,1.310126 2.598,3.749369 2.598,4.589552 0,0.541342 -0.25586,1.064822 -0.7734,1.582363 -0.8205,0.820493 -1.64442,0.959389 -2.57026,0.433293 z"
       id="path84" /><path
       style="fill:#000000"
       d="m -16.283904,67.87765 c -0.958922,-0.958923 -0.847443,-2.062473 0.429283,-4.249559 1.326876,-2.272995 1.685364,-2.679832 2.55331,-2.897673 1.425832,-0.357861 2.982559,0.96897 2.982559,2.542098 0,0.75817 -1.982892,4.052598 -2.849545,4.734307 -0.931885,0.733021 -2.310573,0.67586 -3.115607,-0.129173 z"
       id="path83" /><path
       style="fill:#000000"
       d="m 200.28958,71.554313 c 0,-0.734886 1.6041,-6.789766 2.00331,-7.561751 0.70117,-1.355915 2.56379,-1.230946 2.92194,0.196042 0.20416,0.813443 -0.0873,1.489768 -1.69209,3.927065 -2.32244,3.527136 -3.23316,4.495735 -3.23316,3.438644 z"
       id="path82" /><path
       style="fill:#000000"
       d="m 239.89976,75.114214 c -0.57964,-0.337298 -2.56851,-4.560372 -2.56851,-5.453861 0,-0.900986 1.35565,-2.191605 2.30203,-2.191605 0.41538,0 1.01913,0.184842 1.34167,0.410759 0.77297,0.541406 2.44172,4.182107 2.44172,5.327071 0,1.703691 -2.00161,2.789402 -3.51691,1.907636 z"
       id="path81" /><path
       style="fill:#000000"
       d="m 24.232285,75.972487 c -0.266588,-0.43135 -0.413784,-2.188185 -0.95633,-11.414156 -0.669066,-11.377448 -0.667952,-11.913656 0.02658,-12.79661 1.082321,-1.375948 3.320587,-0.704236 3.766855,1.130448 0.08521,0.350329 0.04578,2.31486 -0.08762,4.365625 -0.133407,2.050764 -0.436636,6.800212 -0.673843,10.554328 -0.237207,3.754116 -0.516779,7.147397 -0.621271,7.540625 -0.192696,0.725161 -1.139788,1.12874 -1.454367,0.61974 z"
       id="path80" /><path
       style="fill:#000000"
       d="m 194.08715,76.753875 c -0.23148,-0.374538 -0.62442,-4.844186 -1.06052,-12.063256 -0.21977,-3.638021 -0.46617,-7.686146 -0.54755,-8.995834 -0.12251,-1.971385 -0.0665,-2.537929 0.32553,-3.291535 0.86747,-1.667618 2.94418,-1.639709 3.62429,0.04871 0.29225,0.725535 0.24672,2.628517 -0.28834,12.051818 -0.34946,6.154631 -0.74657,11.482678 -0.88247,11.840104 -0.24531,0.645213 -0.88676,0.869812 -1.17094,0.409996 z"
       id="path79" /><path
       style="fill:#000000"
       d="m 145.68944,77.664513 c -2.80055,-0.998369 -3.93274,-4.074439 -2.15425,-5.85293 1.14179,-1.141792 2.77939,-0.550589 2.77939,1.00341 0,1.671442 1.96176,1.496118 2.79004,-0.249348 0.36567,-0.770591 0.39318,-1.115729 0.15284,-1.917893 -0.53049,-1.770614 -1.3948,-2.727509 -3.3478,-3.706433 -1.77987,-0.892136 -1.94531,-0.923838 -4.75445,-0.91102 -3.60868,0.01647 -5.2316,0.530359 -11.18343,3.541188 -4.0948,2.071425 -4.1384,2.102665 -3.36175,2.409129 1.76423,0.696164 2.91683,0.632872 4.47349,-0.245653 2.2199,-1.252834 3.5894,-1.051039 3.5894,0.528898 0,1.003487 -1.18652,2.309201 -2.76732,3.045315 -2.51912,1.173058 -6.07545,0.6562 -9.41709,-1.36863 -2.90859,-1.762432 -3.09738,-2.712728 -0.78018,-3.927205 0.80037,-0.419482 2.94045,-1.719479 4.75574,-2.888882 3.87005,-2.493068 7.85979,-4.440362 10.45781,-5.104187 2.72476,-0.696212 6.88819,-0.634244 9.12812,0.135862 3.19847,1.099658 5.81906,3.282422 6.95773,5.795297 0.78913,1.741498 0.78853,5.03675 -0.001,6.528771 -1.52434,2.879937 -4.51727,4.182422 -7.3171,3.184311 z"
       id="path78" /><path
       style="fill:#000000"
       d="m 72.429149,77.688883 c -3.487998,-1.294975 -5.092877,-5.368971 -3.638789,-9.237097 1.319614,-3.510403 5.014395,-6.182184 9.412677,-6.806521 5.223322,-0.741451 9.743682,0.672002 16.914671,5.288981 1.74625,1.124308 3.917728,2.448655 4.825507,2.942995 1.361525,0.741434 1.651055,1.018115 1.653645,1.580282 0.005,1.080361 -2.302488,2.760117 -5.364598,3.905244 -3.431573,1.283294 -7.591565,0.327976 -9.007165,-2.068443 -0.40709,-0.689148 -0.423906,-0.896455 -0.123751,-1.52561 0.4995,-1.047003 1.494756,-1.073091 3.22268,-0.08447 1.600472,0.915697 2.768496,1.022741 4.277946,0.392052 L 95.606068,71.656758 92.716054,70.0761 c -4.152896,-2.271377 -6.672449,-3.322641 -9.220251,-3.84708 -5.368945,-1.105143 -10.419972,1.158553 -10.921059,4.894441 -0.168405,1.255549 0.34377,2.272981 1.382455,2.746238 0.782541,0.35655 1.44905,-0.08447 1.44905,-0.958817 0,-1.464148 1.614674,-2.144378 2.75725,-1.161576 1.584054,1.362546 0.871509,4.514314 -1.2664,5.601613 -1.308195,0.665323 -3.200648,0.808473 -4.46795,0.337967 z"
       id="path77" /><path
       style="fill:#000000"
       d="m 186.24554,76.266144 c -4.71484,-4.8507 -8.57056,-9.412727 -8.80601,-10.419133 -0.38,-1.624253 1.88918,-2.764845 3.22177,-1.619409 0.92301,0.793375 8.51578,13.012193 8.51578,13.704178 0,0.866983 -1.04941,0.270731 -2.93154,-1.665636 z"
       id="path76" /><path
       style="fill:#000000"
       d="m 31.840073,77.905181 c -0.244411,-0.636925 0.08756,-1.138665 3.347554,-5.059495 6.489472,-7.804955 9.06529,-10.675465 9.728978,-10.84204 1.545181,-0.387816 2.925922,0.961965 2.582674,2.524762 -0.116814,0.531852 -1.46581,1.916438 -4.715307,4.839712 -10.287562,9.25477 -10.58073,9.483464 -10.943899,8.537061 z"
       id="path75" /><path
       style="fill:#000000"
       d="M 16.212586,77.709067 C 15.143022,76.919968 7.0034994,69.704784 4.6963522,67.500638 2.7662553,65.656708 2.4627492,64.78604 3.3222926,63.558869 c 0.6680657,-0.953797 2.3333032,-0.819077 3.3603641,0.271858 1.5220867,1.616748 10.7817923,12.390866 11.2072073,13.040132 0.89095,1.359761 -0.21871,1.914306 -1.677278,0.838208 z"
       id="path74" /><path
       style="fill:#000000"
       d="m 210.87767,78.80913 c 0.009,-0.645545 7.4357,-5.254966 8.46735,-5.254966 1.09521,0 1.63652,0.554088 1.53675,1.573019 -0.12413,1.267616 -0.89721,1.71586 -4.78763,2.775918 -4.54422,1.238208 -5.22241,1.355999 -5.21647,0.906029 z"
       id="path73" /><path
       style="fill:#000000"
       d="m 201.74817,78.8513 c -0.0881,-0.142514 -0.0306,-0.50114 0.1277,-0.796947 0.73538,-1.374069 13.20788,-15.710491 13.89847,-15.975497 1.68337,-0.645967 3.4036,0.949203 2.78324,2.580886 -0.46001,1.209899 -15.52354,14.450673 -16.43999,14.450673 -0.1151,0 -0.28134,-0.116602 -0.36942,-0.259115 z"
       id="path72" /><path
       style="fill:#000000"
       d="m 177.05969,77.928207 c -2.22618,-0.78068 -4.33765,-1.609464 -4.69215,-1.841743 -1.42231,-0.931934 -0.92776,-3.061466 0.71098,-3.061466 0.93733,0 1.76678,0.466012 5.11836,2.875628 2.84322,2.044136 3.86609,2.947779 3.67914,3.250277 -0.22085,0.357347 -0.54624,0.274742 -4.81633,-1.222696 z"
       id="path71" /><path
       style="fill:#000000"
       d="m -21.298961,79.61193 c -1.477486,-0.845223 -1.551371,-2.206731 -0.271303,-4.999432 1.020381,-2.226148 1.686803,-2.910417 2.834509,-2.910417 1.088146,0 2.331586,1.270697 2.331586,2.382696 0,0.94998 -1.411389,4.388839 -2.093263,5.100251 -0.56749,0.592072 -2.103624,0.826151 -2.801529,0.426902 z"
       id="path70" /><path
       style="fill:#000000"
       d="m 50.403124,86.337154 c -3.27822,-0.137976 -14.251676,-0.879558 -15.394176,-1.040333 -1.204173,-0.169453 -1.660129,-0.754869 -1.057387,-1.357611 0.589338,-0.589339 12.777185,-1.653795 18.935675,-1.653795 2.247666,0 2.401076,0.03662 2.920643,0.69714 1.389229,1.766118 0.01609,3.622238 -2.577709,3.484372 -0.536229,-0.0285 -1.8084,-0.0869 -2.827046,-0.129773 z"
       id="path69" /><path
       style="fill:#000000"
       d="m -5.6885438,86.213225 c -1.4123966,-0.77252 -1.6426574,-2.469689 -0.4630209,-3.412758 0.7068887,-0.565127 0.8594301,-0.576947 5.35781264,-0.415185 5.67496786,0.204073 14.59547706,0.904656 15.94114606,1.251957 1.15814,0.298902 1.381531,1.16067 0.396875,1.531011 -0.695438,0.261563 -7.0558233,0.731053 -14.75052103,1.088805 -6.51251817,0.302789 -5.84025997,0.307335 -6.48229177,-0.04383 z"
       id="path68" /><path
       style="fill:#000000"
       d="m 244.29111,86.651283 c -0.65026,-0.455459 -2.02315,-4.283616 -1.98742,-5.541667 0.046,-1.617553 2.27929,-2.582421 3.69012,-1.59424 0.67949,0.47593 2.27174,5.126347 2.00931,5.868499 -0.0921,0.260357 -0.40852,0.741267 -0.70325,1.068689 -0.63513,0.705599 -2.14291,0.805183 -3.00876,0.198719 z"
       id="path67" /><path
       style="fill:#000000"
       d="m 222.77917,87.398977 c -0.80037,-0.0441 -3.65787,-0.200982 -6.35,-0.34863 -8.6512,-0.474467 -12.44886,-0.847459 -12.86495,-1.263548 -0.51296,-0.512967 -0.0828,-1.014795 1.05232,-1.227753 1.09498,-0.20542 11.12021,-0.865759 16.70742,-1.100479 4.09477,-0.172023 4.25715,-0.158864 4.96094,0.40202 0.77488,0.617538 0.96518,1.719828 0.45991,2.66394 -0.22615,0.422554 -1.95868,1.152605 -2.37814,1.002097 -0.0728,-0.02611 -0.78714,-0.08355 -1.5875,-0.127647 z"
       id="path66" /><path
       style="fill:#000000"
       d="m 166.15833,87.389377 c -0.79094,-0.290824 -1.32291,-0.967898 -1.32291,-1.683746 0,-1.096957 0.24878,-1.546373 1.09957,-1.986334 0.80667,-0.417146 4.28417,-0.310562 14.51084,0.444754 5.39345,0.398347 6.6472,0.810337 5.46122,1.794606 -0.37848,0.314114 -6.20572,0.878833 -13.85151,1.342352 -4.95309,0.300277 -5.30648,0.305572 -5.89721,0.08837 z"
       id="path65" /><path
       style="fill:#000000"
       d="m 23.376755,87.067403 c -2.447469,-1.492377 -1.278092,-5.311155 1.626368,-5.311155 1.370334,0 2.355933,0.705121 2.779491,1.988513 0.619112,1.875927 -0.799111,3.830343 -2.779491,3.830343 -0.436562,0 -1.168428,-0.228466 -1.626368,-0.507701 z"
       id="path64" /><path
       style="fill:#000000"
       d="m 193.54271,87.856123 c -1.50836,-0.617362 -2.08826,-2.508485 -1.20315,-3.923657 1.01602,-1.624496 2.79134,-1.831565 4.14002,-0.482884 2.19211,2.192105 -0.0667,5.581276 -2.93687,4.406541 z"
       id="path63" /><path
       style="fill:#000000"
       d="m -26.073487,90.8964 c -0.795983,-0.795982 -0.804494,-1.253044 -0.0738,-3.962759 0.732244,-2.715445 1.615928,-3.732848 3.041328,-3.501537 2.058141,0.33399 2.499162,1.560935 1.646192,4.5798 -0.734498,2.599564 -1.512736,3.533928 -2.943435,3.533928 -0.731097,0 -1.205194,-0.184336 -1.67029,-0.649432 z"
       id="path62" /><path
       style="fill:#000000"
       d="m 214.43841,96.806426 c -1.65377,-1.048792 -5.38597,-3.959658 -6.07903,-4.741244 l -0.52917,-0.596755 1.05833,0.141173 c 1.64257,0.219105 7.85696,2.609756 8.52782,3.280621 0.74097,0.740966 0.76593,1.517074 0.0711,2.211861 -0.73926,0.739261 -1.53956,0.661659 -3.04909,-0.295656 z"
       id="path61" /><path
       style="fill:#000000"
       d="m 172.56873,97.567753 c -0.8123,-0.387978 -1.02008,-1.363637 -0.46939,-2.204101 0.48407,-0.738779 1.33929,-1.153821 5.34903,-2.59589 3.16851,-1.139529 4.32038,-1.404436 4.32038,-0.993604 0,0.584072 -6.86559,5.643943 -8.06979,5.947351 -0.29104,0.07333 -0.79965,0.0041 -1.13023,-0.153756 z"
       id="path60" /><path
       style="fill:#000000"
       d="m 247.42945,98.755728 c -0.87738,-0.900387 -1.86741,-4.98318 -1.47524,-6.083776 0.39356,-1.104503 1.4861,-1.753517 2.60006,-1.544537 1.25952,0.236288 1.71004,0.98174 2.2805,3.773485 0.54065,2.645897 0.35717,3.585344 -0.81906,4.193596 -1.10125,0.569478 -1.789,0.479391 -2.58626,-0.338768 z"
       id="path59" /><path
       style="fill:#000000"
       d="m -27.781253,103.52981 c -0.890452,-0.32551 -1.5875,-1.24098 -1.5875,-2.08495 0,-1.38568 0.759568,-4.951155 1.134676,-5.326264 0.629356,-0.629355 1.885649,-0.832922 2.791005,-0.452249 1.22061,0.513229 1.477937,1.405978 1.10021,3.816985 -0.436242,2.784508 -0.734808,3.442458 -1.755681,3.869008 -0.930906,0.38895 -1.065383,0.40314 -1.68271,0.17747 z"
       id="path58" /><path
       style="fill:#000000"
       d="m 5.2916647,104.06222 c -0.9779134,-0.3495 -1.3838015,-1.88887 -0.7903971,-2.99765 0.3672742,-0.68626 11.1194454,-9.62095 12.3828314,-10.289715 0.666679,-0.352903 1.372149,-0.01965 1.372149,0.648181 0,0.389271 -8.5375298,9.990734 -10.4020295,11.698314 -1.1714067,1.07282 -1.6754818,1.2579 -2.5625538,0.94087 z"
       id="path57" /><path
       style="fill:#000000"
       d="m 42.99479,105.18623 c -0.436562,-0.1966 -1.288322,-0.94391 -1.892798,-1.66069 -9.806101,-11.627981 -10.42407,-12.506621 -8.945124,-12.718356 0.528545,-0.07567 1.870012,1.013622 8.192089,6.652102 4.881011,4.353234 5.423958,4.954814 5.423958,6.009654 0,1.54301 -1.334014,2.36763 -2.778125,1.71729 z"
       id="path56" /><path
       style="fill:#000000"
       d="m 210.40957,106.88327 c -0.3276,-0.13167 -1.12976,-0.98733 -1.78259,-1.90146 -8.62023,-12.070615 -9.12925,-12.906842 -7.85665,-12.906842 0.27546,0 2.98694,2.52871 6.35,5.921985 5.706,5.757257 5.86926,5.951757 5.86926,6.992257 0,0.84109 -0.14928,1.18769 -0.69714,1.61864 -0.7624,0.5997 -0.99238,0.63334 -1.88288,0.27542 z"
       id="path55" /><path
       style="fill:#000000"
       d="m 177.13854,106.84007 c -0.74578,-0.42291 -0.91736,-0.74933 -0.92199,-1.754 -0.005,-1.0166 0.48196,-1.5816 7.38945,-8.579321 3.09563,-3.136067 4.54953,-4.431771 4.97285,-4.431771 0.38094,0 0.59823,0.159492 0.59823,0.439093 0,0.965617 -9.21225,13.673089 -10.33208,14.252179 -0.89197,0.46126 -1.01392,0.46653 -1.70646,0.0738 z"
       id="path54" /><path
       style="fill:#000000"
       d="m 249.50209,111.5871 c -0.97043,-0.50661 -1.2851,-1.39657 -1.47943,-4.18408 -0.17248,-2.47422 -0.16768,-2.50203 0.55651,-3.22335 0.94673,-0.94299 2.27567,-0.98641 3.15887,-0.1032 0.63212,0.63211 1.02254,2.62153 1.0573,5.38751 0.0229,1.81942 -1.72121,2.9438 -3.29325,2.12312 z"
       id="path53" /><path
       style="fill:#000000"
       d="m -30.15528,115.23371 c -0.583004,-0.62058 -0.606653,-0.79044 -0.465841,-3.34589 0.11386,-2.0663 0.265032,-2.8484 0.650309,-3.36444 0.693536,-0.92892 1.74633,-1.24076 2.764716,-0.81893 1.200123,0.4971 1.520012,1.52082 1.345644,4.30637 -0.123356,1.97061 -0.248776,2.46255 -0.792609,3.10885 -0.872854,1.03733 -2.582532,1.093 -3.502219,0.11404 z"
       id="path52" /><path
       style="fill:#000000"
       d="m 193.75844,117.47883 c -0.96801,-0.39956 -1.2365,-1.2733 -1.18008,-3.84031 0.0729,-3.31676 1.08103,-17.744413 1.32038,-18.896425 0.25586,-1.231495 1.10347,-1.324721 1.3963,-0.153575 0.25666,1.026486 0.99784,11.7086 1.20246,17.33021 0.14654,4.02588 0.12011,4.41107 -0.33961,4.94965 -0.58803,0.68891 -1.59111,0.9441 -2.39945,0.61045 z"
       id="path51" /><path
       style="fill:#000000"
       d="m 23.908828,117.43013 c -0.782737,-0.37901 -1.154318,-1.32486 -1.15662,-2.94414 -0.0023,-1.60813 0.684621,-13.18247 1.05421,-17.76338 0.27188,-3.369837 0.633948,-4.27591 1.441008,-3.606109 0.568816,0.472075 0.626166,0.977352 1.214086,10.696539 0.758451,12.53833 0.742474,12.84334 -0.71339,13.61874 -0.687072,0.36594 -1.080869,0.36558 -1.839294,-0.002 z"
       id="path50" /><path
       style="fill:#000000"
       d="m -7.3485702,120.42235 c -0.1756492,-0.10855 -0.5523768,-1.10845 -0.8371724,-2.22199 -0.2847956,-1.11354 -0.7208237,-2.33446 -0.9689512,-2.71315 -0.5449801,-0.83174 -1.8733802,-1.53127 -3.7437462,-1.97143 -1.06233,-0.25 -1.389062,-0.44297 -1.389062,-0.82036 0,-0.53271 0.730444,-1.03968 1.50396,-1.04384 0.264228,-10e-4 1.098665,-0.29044 1.854304,-0.64226 1.5759167,-0.73373 2.2213374,-1.73434 2.8460679,-4.41232 0.2096835,-0.89883 0.4988291,-1.75183 0.6425457,-1.89555 0.5375887,-0.53758 1.0508922,0.0644 1.3455458,1.57806 0.6561468,3.37064 1.4876849,4.40151 4.1447437,5.13829 2.91404067,0.80804 2.9839887,1.46553 0.2350735,2.20963 -0.9720831,0.26313 -2.1082083,0.76517 -2.5247224,1.11564 -0.7626939,0.64176 -1.6257663,2.5718 -1.9492473,4.35899 -0.1944389,1.07425 -0.6739222,1.6203 -1.1593391,1.32029 z"
       id="path49" /><path
       style="fill:#000000"
       d="m 230.24857,122.43594 c -0.14756,-0.1819 -0.41104,-1.0266 -0.58551,-1.8771 -0.44592,-2.1738 -0.91719,-3.17864 -1.86472,-3.97594 -0.72402,-0.60922 -2.51728,-1.28491 -4.09313,-1.54227 -0.35885,-0.0586 -0.52917,-0.29162 -0.52917,-0.72397 0,-0.56472 0.23222,-0.70817 2.03272,-1.25569 3.06538,-0.93218 3.63752,-1.67269 4.72818,-6.11964 0.23355,-0.95227 0.3744,-1.1273 0.85163,-1.05834 0.42837,0.0619 0.62919,0.3481 0.80058,1.14097 0.87052,4.02692 1.64881,5.13267 4.11473,5.84592 2.49499,0.72166 2.72991,0.85233 2.63763,1.46707 -0.0675,0.44942 -0.43343,0.65155 -1.84009,1.01635 -3.00739,0.77991 -4.03682,1.93278 -4.75109,5.32077 -0.29591,1.40356 -0.63626,2.0926 -1.03366,2.0926 -0.10989,0 -0.32053,-0.14883 -0.4681,-0.33073 z"
       id="path48" /><path
       style="fill:#000000"
       d="m 249.28362,123.47722 c -0.51687,-0.55019 -0.57528,-0.90064 -0.57528,-3.45161 0,-2.66173 0.0406,-2.87985 0.64943,-3.48868 0.79953,-0.79953 2.20063,-0.86486 3.09157,-0.14415 0.57654,0.46638 0.63149,0.73027 0.71388,3.42849 0.0865,2.83406 0.0687,2.94373 -0.58328,3.59577 -0.90222,0.90221 -2.47824,0.93098 -3.29632,0.0602 z"
       id="path47" /><path
       style="fill:#000000"
       d="m -30.271274,127.50887 c -0.635639,-0.75542 -0.684979,-1.00211 -0.684979,-3.42483 0,-2.37251 0.0578,-2.67798 0.633378,-3.34713 0.506311,-0.58862 0.856964,-0.73634 1.747872,-0.73634 0.890908,0 1.241562,0.14772 1.747873,0.73634 0.581062,0.67553 0.633377,0.96559 0.633377,3.51174 0,2.59395 -0.04246,2.81786 -0.649431,3.42483 -0.980792,0.9808 -2.526759,0.90656 -3.42809,-0.16461 z"
       id="path46" /><path
       style="fill:#000000"
       d="m 184.77988,134.43225 c -2.22923,-1.35933 -1.36949,-5.05709 1.2756,-5.48633 1.83817,-0.29829 3.38619,1.17685 3.38619,3.22677 0,0.7454 -0.20518,1.17082 -0.89959,1.86523 -1.06376,1.06376 -2.42961,1.20692 -3.7622,0.39433 z"
       id="path45" /><path
       style="fill:#000000"
       d="m 248.6807,135.74432 c -0.77083,-0.77083 -0.77871,-0.80839 -0.62461,-2.97656 0.0858,-1.20774 0.20961,-2.46048 0.27506,-2.78388 0.33754,-1.66773 2.72231,-2.25031 3.99635,-0.97627 0.6335,0.6335 0.67217,0.80455 0.51714,2.28777 -0.0922,0.88169 -0.16755,2.07102 -0.16755,2.64295 0,0.79656 -0.18097,1.22084 -0.7734,1.81327 -1.04261,1.04261 -2.17566,1.04005 -3.22299,-0.007 z"
       id="path44" /><path
       style="fill:#000000"
       d="m 32.030897,138.1582 c -1.31657,-0.70608 -1.921927,-1.96744 -1.805427,-3.76189 0.153421,-2.36314 1.630088,-3.79782 3.900445,-3.78955 2.217062,0.008 3.734269,1.33451 4.11689,3.59923 0.234754,1.38949 -0.706428,3.25291 -1.990762,3.94144 -1.173658,0.6292 -3.059054,0.63401 -4.221146,0.0108 z"
       id="path43" /><path
       style="fill:#000000"
       d="m -28.94402,140.14878 c -0.451308,-0.4513 -0.688588,-1.14097 -0.914015,-2.65664 -0.404081,-2.71684 -0.3848,-3.38054 0.119107,-4.09997 0.607917,-0.86792 1.587366,-1.17643 2.63608,-0.83033 0.476722,0.15733 1.007503,0.45564 1.179514,0.6629 0.376033,0.45309 1.02481,4.91332 0.848693,5.83462 -0.301656,1.57801 -2.704323,2.25448 -3.869379,1.08942 z"
       id="path42" /><path
       style="fill:#000000"
       d="m 246.71193,148.0464 c -0.75821,-0.75821 -0.78418,-1.15944 -0.25426,-3.92875 0.48595,-2.53953 0.68803,-2.93124 1.73616,-3.36539 1.03497,-0.4287 1.9794,-0.13141 2.71301,0.854 0.51984,0.69826 0.52244,0.77779 0.10712,3.27539 -0.50893,3.06059 -1.02823,3.81418 -2.62835,3.81418 -0.73469,0 -1.20784,-0.18359 -1.67368,-0.64943 z"
       id="path41" /><path
       style="fill:#000000"
       d="m 10.047404,148.17105 c -1.0951249,-0.4104 -3.7144999,-1.12801 -5.8208335,-1.59468 -5.03904226,-1.11645 -7.2892493,-2.05743 -9.2409376,-3.86435 -3.2396994,-2.99939 -3.8047078,-7.49424 -1.3191319,-10.49418 2.3426415,-2.82743 7.31051713,-3.08706 10.2888451,-0.53772 l 0.9985866,0.85475 0.1640369,-1.56942 c 0.4028555,-3.85431 2.9910795,-6.55336 6.5411954,-6.82129 3.658233,-0.27608 6.591188,2.57167 7.036488,6.83207 0.266216,2.54701 -0.435579,4.86591 -3.051929,10.08432 -1.287172,2.56732 -2.558145,5.39505 -2.824384,6.28386 -0.266239,0.8888 -0.550835,1.60629 -0.632436,1.59442 -0.0816,-0.0119 -1.044375,-0.35738 -2.1395,-0.76778 z"
       id="path40" /><path
       style="fill:#000000"
       d="m -26.250303,152.79355 c -0.741118,-0.41328 -0.953137,-0.93138 -1.637075,-4.00041 -0.46696,-2.09539 -0.294886,-2.92935 0.737181,-3.57278 0.958454,-0.59754 2.141151,-0.4845 2.903132,0.27748 0.499182,0.49919 1.487034,4.05483 1.490831,5.36605 0.0047,1.60707 -2.043835,2.73839 -3.494069,1.92966 z"
       id="path39" /><path
       style="fill:#000000"
       d="m 229.94383,154.7151 c -0.12778,-0.32742 -0.3599,-1.07384 -0.51582,-1.65872 -0.41262,-1.5478 -0.81857,-1.96785 -2.42854,-2.51288 -1.90451,-0.64474 -1.94528,-1.25132 -0.11926,-1.77408 1.75079,-0.50122 2.21832,-1.01137 2.76834,-3.02068 0.35091,-1.28193 0.57543,-1.68312 0.94194,-1.68312 0.37136,0 0.563,0.36012 0.83948,1.57749 0.42226,1.8593 1.10725,2.68386 2.57815,3.1035 2.10944,0.60181 2.11948,1.21232 0.0296,1.79746 -1.73114,0.48469 -2.29076,1.26261 -2.90541,4.03874 -0.19462,0.87902 -0.86778,0.95396 -1.18844,0.13229 z"
       id="path38" /><path
       style="fill:#000000"
       d="m 244.73959,160.68531 c -0.87897,-0.33349 -1.5875,-1.24975 -1.5875,-2.05289 0,-1.32129 1.04681,-4.72627 1.6517,-5.37252 1.0289,-1.09927 3.09215,-0.58096 3.66287,0.92015 0.30823,0.81071 -0.89354,5.37744 -1.5772,5.99334 -0.51391,0.46299 -1.59831,0.7212 -2.14987,0.51192 z"
       id="path37" /><path
       style="fill:#000000"
       d="m -23.225956,164.5675 c -0.530651,-0.49437 -1.909463,-4.36168 -1.909463,-5.35568 0,-1.94718 2.354778,-3.00465 3.826955,-1.71859 0.894664,0.78156 2.131139,5.09463 1.748815,6.10022 -0.551562,1.45072 -2.577056,1.98885 -3.666307,0.97405 z"
       id="path36" /><path
       style="fill:#000000"
       d="m 241.3397,168.80251 c -1.21633,-0.88111 -1.36344,-1.4968 -0.72356,-3.02825 0.41804,-1.0005 1.09926,-1.46801 2.13907,-1.46801 1.8493,0 2.50588,1.39889 1.71404,3.65183 -0.28788,0.81906 -0.52341,1.5231 -0.52341,1.56452 0,0.0414 -0.33933,0.0753 -0.75406,0.0753 -0.4183,0 -1.24296,-0.35417 -1.85208,-0.79541 z"
       id="path35" /><path
       style="fill:#000000"
       d="m 30.956249,172.26503 c -0.218282,-0.12496 -2.123282,-0.70766 -4.233334,-1.29488 -4.737481,-1.31841 -6.00055,-1.85224 -7.428598,-3.13966 -3.252478,-2.93218 -3.042423,-7.73878 0.41714,-9.54524 1.620632,-0.84623 5.37117,-0.21261 6.45229,1.09006 0.564356,0.68001 0.707301,0.53982 1.178786,-1.15602 1.283233,-4.61553 6.798053,-5.68211 9.360297,-1.81029 0.528708,0.79893 0.711534,1.4669 0.805777,2.94397 0.147144,2.30619 -0.419659,3.91004 -2.664089,7.53843 -0.797548,1.28933 -1.821798,3.0806 -2.276112,3.98059 -0.854684,1.69312 -0.947667,1.77346 -1.612157,1.39304 z"
       id="path34" /><path
       style="fill:#000000"
       d="m -18.888819,176.14635 c -0.903673,-0.81254 -2.371924,-4.72405 -2.150934,-5.73021 0.455161,-2.07233 3.339786,-2.41399 4.306602,-0.51007 0.867284,1.70792 1.658699,4.35023 1.508199,5.03545 -0.358848,1.63383 -2.429488,2.31474 -3.663867,1.20483 z"
       id="path33" /><path
       style="fill:#000000"
       d="m 1.3185184,176.67552 c -1.09479466,-4.25424 -1.23537039,-4.39203 -5.7698458,-5.65549 -0.4467586,-0.12448 -0.3023453,-0.90384 0.2179919,-1.17644 0.2182813,-0.11436 1.0517188,-0.40533 1.8520834,-0.64661 0.8003646,-0.24128 1.72539022,-0.6894 2.05561248,-0.99582 0.58182886,-0.5399 1.64855422,-3.42598 1.64855422,-4.46025 0,-0.28028 0.1801101,-0.57872 0.4002445,-0.66319 0.5022682,-0.19274 1.1872556,0.3544 1.1872556,0.94832 0,0.94025 0.833476,3.19724 1.4522723,3.93264 0.4228904,0.50257 1.1733562,0.92274 2.1762884,1.21845 1.9257588,0.5678 2.3042203,0.7711 2.4070176,1.29298 0.061579,0.31263 -0.4019272,0.56286 -1.8308776,0.98842 -1.1890951,0.35412 -2.1879982,0.84448 -2.6389639,1.29544 -0.6655858,0.66559 -1.5657368,2.95532 -1.5657368,3.9828 0,0.5109 -0.5032571,1.06323 -0.9687603,1.06323 -0.1835681,0 -0.4639793,-0.50602 -0.623136,-1.12448 z"
       id="path32" /><path
       style="fill:#000000"
       d="m -13.564987,187.57881 c -0.257461,-0.1572 -0.942071,-1.22848 -1.521355,-2.38062 -1.417312,-2.81889 -1.410769,-4.1525 0.02401,-4.89445 1.687644,-0.87272 2.80685,-0.12341 4.122311,2.75989 0.9984442,2.18844 1.030292,3.28001 0.11974,4.10404 -0.619188,0.56036 -2.129741,0.78663 -2.744709,0.41114 z"
       id="path31" /><path
       style="fill:#000000"
       d="m -7.5540881,198.13807 c -0.6978201,-0.33899 -3.0292479,-4.32246 -3.0292479,-5.17577 0,-0.9072 1.3517765,-2.19774 2.3020265,-2.19774 1.1363795,0 1.7891256,0.60333 2.9729275,2.74785 1.3191825,2.38977 1.3753598,3.30242 0.2609963,4.24009 -0.8507142,0.71583 -1.5920992,0.82987 -2.5067024,0.38557 z"
       id="path30" /><path
       style="fill:#000000"
       d="m 34.401135,198.26109 c 0.008,-0.72711 1.181761,-5.1608 1.546984,-5.84323 0.353148,-0.65986 1.557375,-0.81905 2.098963,-0.27746 0.611354,0.61135 0.30417,1.52011 -1.336146,3.95278 -1.654679,2.45398 -2.319753,3.0782 -2.309801,2.16791 z"
       id="path29" /><path
       style="fill:#000000"
       d="m 22.170836,196.98227 c -2.094332,-2.9408 -2.437287,-3.62595 -2.229458,-4.45401 0.234449,-0.93412 1.351592,-1.2347 2.013127,-0.54165 0.531957,0.5573 1.936455,5.63551 1.807073,6.53379 -0.06724,0.46685 -0.374336,0.16991 -1.590742,-1.53813 z"
       id="path28" /><path
       style="fill:#000000"
       d="m 28.688766,204.22834 c -0.100126,-0.16201 -0.481858,-4.63452 -0.848295,-9.93893 l -0.666248,-9.64437 0.52811,-0.71055 c 0.715379,-0.96251 1.948548,-1.08115 2.728563,-0.26249 0.555946,0.58349 0.574104,0.7554 0.413794,3.91756 -0.318172,6.27607 -0.969706,16.27282 -1.082068,16.60261 -0.139755,0.41019 -0.828366,0.43338 -1.073856,0.0362 z"
       id="path27" /><path
       style="fill:#000000"
       d="m 42.122198,206.30883 c 0.05365,-0.1819 1.400463,-1.19393 2.992916,-2.24895 3.274747,-2.16958 4.394911,-2.45153 4.944806,-1.24464 0.517088,1.13489 -0.465012,1.80345 -4.242018,2.88777 -3.633996,1.04326 -3.834413,1.07611 -3.695704,0.60582 z"
       id="path26" /><path
       style="fill:#000000"
       d="m 34.521375,206.36403 c -0.254371,-0.41158 0.245511,-1.07364 6.014434,-7.96566 3.414327,-4.07904 5.509661,-6.36924 5.921961,-6.47273 1.558508,-0.39116 2.780113,0.7633 2.300397,2.17396 -0.275298,0.80955 -12.043996,11.45942 -13.559673,12.27058 -0.34759,0.18603 -0.559538,0.1841 -0.677119,-0.006 z"
       id="path25" /><path
       style="fill:#000000"
       d="m 23.415623,206.31153 c -0.574878,-0.32059 -10.694917,-8.7965 -12.46278,-10.43804 -0.597133,-0.55447 -1.1752447,-1.29026 -1.2846921,-1.6351 -0.2878708,-0.907 0.5903191,-1.99446 1.6989071,-2.10374 0.740015,-0.0729 1.035277,0.0976 2.061845,1.19062 1.848289,1.96804 10.134627,11.51843 10.588221,12.20342 0.494056,0.7461 0.145672,1.19951 -0.601501,0.78284 z"
       id="path24" /><path
       style="fill:#000000"
       d="m 15.081248,206.75144 c -5.1853968,-1.36291 -5.9480784,-1.81956 -5.3245594,-3.18803 0.4359084,-0.95672 1.5741284,-0.81215 3.6662534,0.46564 2.924657,1.78628 4.059706,2.62846 3.897094,2.89157 -0.196094,0.31729 -0.465378,0.29694 -2.238788,-0.16918 z"
       id="path23" /><path
       style="fill:#000000"
       d="m -0.79375206,208.15524 c -0.76666934,-0.3809 -3.43958344,-4.2314 -3.43958344,-4.95493 0,-0.26888 0.3133551,-0.86128 0.6963447,-1.31643 0.6019146,-0.71534 0.8428759,-0.81676 1.776893,-0.74791 0.94815402,0.0699 1.20361757,0.24175 2.08498715,1.40257 1.59711175,2.10351 2.11188305,3.33364 1.78610335,4.26817 -0.2450624,0.70298 -1.43235756,1.69129 -2.01952618,1.68106 -0.12306813,-0.002 -0.52141649,-0.15179 -0.88521858,-0.33253 z"
       id="path22" /><path
       style="fill:#000000"
       d="m 219.60417,210.60833 c -0.49136,-0.49136 -0.52917,-0.88194 -0.52917,-5.46685 0,-4.80378 0.0181,-4.96864 0.66871,-6.07877 0.36779,-0.62759 1.19117,-2.60258 1.82972,-4.38887 0.63855,-1.78629 1.9726,-5.45045 2.96455,-8.14259 l 1.80354,-4.89479 0.0874,-6.67983 0.0874,-6.67983 0.68612,-0.17221 c 0.75298,-0.18898 1.47275,0.46032 1.22524,1.10531 -0.10754,0.28024 0.16947,0.32277 1.3253,0.20348 1.95782,-0.20207 3.53069,0.23564 5.81073,1.61705 2.00165,1.21274 4.00626,2.00707 5.06516,2.00707 0.34832,0 0.82041,0.1871 1.04909,0.41577 1.14726,1.14726 -0.40892,3.2888 -2.75557,3.79206 -1.87331,0.40175 -2.53873,0.36931 -5.15132,-0.25118 -1.70402,-0.40471 -2.68188,-0.49569 -3.87576,-0.36062 l -1.59673,0.18065 0.10424,2.14656 c 0.0638,1.31402 0.54586,3.94235 1.24289,6.77676 0.65718,2.67235 1.19463,5.55937 1.27103,6.82762 0.22892,3.79992 -0.68422,7.61056 -1.93911,8.09211 -0.22297,0.0856 -1.81016,0.08 -3.52709,-0.0123 -1.7585,-0.0945 -3.18478,-0.0644 -3.26617,0.0691 -0.20263,0.33236 0.10066,6.19011 0.3205,6.19011 0.099,0 0.5286,-0.74414 0.95472,-1.65365 0.56495,-1.20582 0.93345,-1.67621 1.36073,-1.73697 0.43469,-0.0618 0.6275,0.0822 0.74685,0.55774 0.23814,0.9488 -0.43795,2.30617 -2.4006,4.81962 -1.89737,2.42987 -2.54012,2.73973 -3.56242,1.71742 z m 9.78958,-36.8992 c 0,-1.24945 -0.45235,-2.7883 -0.81963,-2.7883 -0.13129,0 -0.23474,1.16086 -0.2299,2.57969 l 0.009,2.57969 0.52037,-0.62463 c 0.3374,-0.405 0.52036,-1.01906 0.52036,-1.74645 z"
       id="path21" /><path
       style="fill:#000000"
       d="m 47.095832,213.09696 c -9.671589,-0.66364 -11.361176,-0.97236 -10.177111,-1.85956 0.461993,-0.34616 1.915057,-0.50093 9.647944,-1.02762 8.300901,-0.56537 8.836958,-0.54835 9.505797,0.30194 0.720134,0.91551 0.692326,1.56421 -0.101061,2.3576 -0.763646,0.76364 -0.982291,0.76925 -8.875569,0.22764 z"
       id="path20" /><path
       style="fill:#000000"
       d="m 27.63693,213.66307 c -1.466812,-1.46681 -0.454943,-4.11307 1.572746,-4.11307 1.575996,0 2.421677,1.09647 2.305026,2.98859 -0.05235,0.84917 -1.239998,1.77391 -2.278245,1.77391 -0.655965,0 -1.151146,-0.20105 -1.599527,-0.64943 z"
       id="path19" /><path
       style="fill:#000000"
       d="m 4.6302064,215.08304 c -0.873125,-0.5869 -1.7363282,-1.26124 -1.9182292,-1.49855 -0.4954766,-0.64639 -0.3989164,-1.7741 0.1981756,-2.31446 0.4742251,-0.42917 1.0144541,-0.47246 5.2255209,-0.41877 7.7130853,0.0984 13.5350453,0.41988 13.8818263,0.76666 0.211779,0.21178 0.226375,0.40029 0.04504,0.58163 -0.398514,0.39851 -4.05745,0.98206 -9.3918,1.49785 -4.5902418,0.44384 -4.7332369,0.47558 -4.7332369,1.05055 0,0.56838 -0.8795385,1.42452 -1.447934,1.40941 -0.1495217,-0.004 -0.9862327,-0.48742 -1.8593577,-1.07432 z"
       id="path18" /><path
       style="fill:#000000"
       d="m 15.559003,219.20012 c -0.386906,-0.84917 -0.236515,-0.98767 1.969641,-1.81384 1.385982,-0.51904 1.785938,-0.58605 1.785938,-0.29926 0,0.33033 -2.901837,2.78173 -3.292868,2.78173 -0.08693,0 -0.295153,-0.30089 -0.462711,-0.66863 z"
       id="path17" /><path
       style="fill:#000000"
       d="m 44.864287,219.52145 c -4.676969,-3.2498 -4.47868,-3.51295 1.169921,-1.55262 2.88943,1.00276 3.630249,1.36388 3.8926,1.89745 0.431583,0.87775 -0.09301,1.69862 -1.14121,1.78574 -0.583742,0.0485 -1.507854,-0.45358 -3.921311,-2.13057 z"
       id="path16" /><path
       style="fill:#000000"
       d="m 16.545663,228.83718 c -0.514386,-0.45164 -0.935248,-0.95162 -0.935248,-1.11106 0,-0.15944 -1.369219,-1.67619 -3.042708,-3.37055 -1.770679,-1.79276 -3.0427089,-3.29466 -3.0427089,-3.59257 0,-0.86831 0.7584269,-1.688 1.5618489,-1.688 0.597304,0 1.229493,0.52992 3.314287,2.77813 1.416906,1.52796 2.715123,2.76768 2.884925,2.75491 0.169802,-0.0128 1.712604,-1.62011 3.42845,-3.57187 2.846796,-3.23822 3.905421,-4.11536 3.883754,-3.21794 -0.0044,0.1819 -1.132581,2.29221 -2.507087,4.68958 -1.62441,2.83324 -2.408757,4.4492 -2.240973,4.61698 0.790188,0.79019 -0.357543,2.53354 -1.667947,2.53354 -0.407189,0 -1.093603,-0.3444 -1.636593,-0.82115 z"
       id="path15" /><path
       style="fill:#000000"
       d="m 45.610697,231.23192 c -0.489365,-0.18103 -3.666351,-3.89522 -9.443545,-11.04037 -1.607453,-1.98808 -2.191198,-3.23322 -1.515796,-3.23322 0.608983,0 12.929448,11.2264 13.252254,12.07544 0.497863,1.30948 -0.94806,2.69565 -2.292913,2.19815 z"
       id="path14" /><path
       style="fill:#000000"
       d="m 116.73815,231.45727 c -2.43472,-0.82158 -4.27857,-3.67314 -5.955,-9.20957 -2.95105,-9.74585 -3.93958,-22.0151 -2.9736,-36.90707 0.20767,-3.20146 0.45083,-6.35662 0.54036,-7.01146 0.10782,-0.78864 0.0789,-1.05663 -0.0856,-0.79375 -0.13664,0.21828 -0.33339,0.98449 -0.43721,1.7027 -0.30843,2.13348 -2.15121,9.32413 -3.19125,12.45251 -3.24852,9.77123 -8.211372,15.88012 -14.765678,18.1754 -2.273371,0.79612 -6.825791,0.96427 -9.570995,0.35352 -5.742333,-1.27755 -10.306371,-5.39419 -11.88918,-10.72372 -0.536168,-1.80535 -0.5538,-5.44642 -0.03566,-7.36453 l 0.381264,-1.41141 -1.371009,0.19105 c -5.511639,0.76801 -9.746363,-0.63293 -13.545257,-4.48108 -5.848349,-5.92417 -6.70746,-14.50231 -2.207077,-22.03744 0.488166,-0.81735 1.792117,-2.3915 2.897668,-3.49811 5.899405,-5.90505 15.923665,-9.06082 31.993143,-10.07185 8.781566,-0.55251 9.407567,-0.60996 8.726973,-0.80097 -0.363802,-0.10209 -1.852084,-0.2682 -3.307292,-0.36911 -4.845022,-0.336 -13.1311,-1.23602 -16.241984,-1.76418 -14.606278,-2.47984 -22.526669,-7.79113 -25.428194,-17.05174 -0.744083,-2.37485 -0.818015,-6.55436 -0.16381,-9.26042 1.539157,-6.36656 6.517475,-11.66656 12.078774,-12.85924 1.387379,-0.29754 5.874872,-0.19511 7.025378,0.16037 l 0.553498,0.17101 -0.507519,-1.93815 c -1.278132,-4.88103 0.488574,-10.687838 4.449777,-14.625537 5.478984,-5.446472 14.769912,-6.875464 21.752822,-3.345694 5.229388,2.643386 8.826738,7.306135 11.246968,14.577871 2.1209,6.37237 3.03219,12.85462 4.05433,28.83958 0.23673,3.70204 0.46989,2.82075 0.73502,-2.77813 0.54072,-11.41907 2.50546,-22.29604 5.12488,-28.37183 2.2042,-5.112696 5.64389,-9.358166 9.33423,-11.520874 6.49961,-3.809063 14.69017,-3.331661 20.80498,1.212655 5.02651,3.735532 7.26193,10.359369 5.49509,16.282709 -0.23216,0.77834 -0.38425,1.45242 -0.33797,1.49796 0.0463,0.0455 0.73899,-0.0384 1.53935,-0.18655 0.80037,-0.14814 2.62148,-0.215 4.04692,-0.14857 2.43674,0.11355 2.73889,0.19383 5.05338,1.34281 5.90018,2.929 9.14083,8.85487 8.83035,16.14721 -0.0981,2.3033 -0.28991,3.43845 -0.87433,5.17355 -2.06408,6.12805 -7.68447,11.31071 -15.42608,14.22464 -5.09773,1.91878 -15.25456,3.63145 -25.04586,4.22329 -4.19506,0.25357 -4.49423,0.53292 -0.79375,0.74116 10.01681,0.56367 15.33098,1.13142 20.31319,2.17023 11.78262,2.45669 19.18582,8.01475 21.27576,15.97307 0.6639,2.5281 0.59835,6.70008 -0.14759,9.39271 -1.74341,6.29323 -5.89437,11.07092 -10.9538,12.60768 -1.4637,0.44459 -2.28253,0.52677 -4.24432,0.42602 -1.33691,-0.0686 -2.65824,-0.22167 -2.93629,-0.34004 -0.44038,-0.18746 -0.48117,-0.13271 -0.31645,0.42474 1.48109,5.01204 0.20047,9.78788 -3.65965,13.648 -6.5773,6.57729 -17.65431,6.38052 -24.50559,-0.43533 -3.04737,-3.03162 -5.4591,-7.05224 -7.48714,-12.48191 -1.21498,-3.25285 -2.98281,-10.1048 -3.4029,-13.18938 -0.17825,-1.30876 -0.42886,-2.37957 -0.55693,-2.37957 -0.32869,0 0.035,12.24325 0.51092,17.19792 1.27215,13.24513 4.05945,22.55551 8.94136,29.86677 1.36059,2.03765 1.48089,2.33894 1.48089,3.70889 0,1.15986 -0.14894,1.71026 -0.67047,2.47776 -1.18701,1.74684 -4.09248,2.68833 -6.1518,1.99343 z"
       id="path13" /><path
       style="fill:#000000"
       d="m 36.140141,231.17969 c -0.447405,-0.69261 -1.479726,-4.59964 -1.479726,-5.60033 0,-0.37594 0.110338,-0.68353 0.245194,-0.68353 0.379433,0 3.458973,5.06635 3.458973,5.69057 0,1.22641 -1.548645,1.63945 -2.224441,0.59329 z"
       id="path12" /><path
       style="fill:#000000"
       d="m 147.0023,235.78623 c -0.0755,-0.12215 -0.26707,-0.80131 -0.42572,-1.50925 -0.61988,-2.76603 -1.27065,-3.47165 -3.7859,-4.105 -2.14052,-0.53899 -2.27316,-1.58359 -0.24929,-1.96327 1.46703,-0.27521 2.92455,-1.1157 3.34067,-1.92641 0.20467,-0.39875 0.5148,-1.4172 0.68917,-2.26321 0.49106,-2.38255 1.57733,-2.32024 1.96639,0.11281 0.39528,2.47197 1.22476,3.30219 4.20817,4.21193 0.79814,0.24339 0.99039,0.4221 0.92604,0.86087 -0.0602,0.41052 -0.38911,0.63235 -1.27183,0.85777 -2.56299,0.6545 -3.41538,1.53172 -3.84937,3.96149 -0.10397,0.58208 -0.29661,1.26669 -0.4281,1.52135 -0.25029,0.48477 -0.88515,0.6213 -1.12023,0.24092 z"
       id="path11" /><path
       style="fill:#000000"
       d="m 69.855334,234.90034 c -0.853573,-3.37546 -1.294484,-3.92477 -3.709501,-4.62149 -2.686189,-0.77494 -2.682307,-1.40919 0.01354,-2.21205 2.121269,-0.63174 2.720277,-1.24908 3.309807,-3.4111 0.521448,-1.91233 0.730913,-2.27341 1.318842,-2.27341 0.374085,0 0.581789,0.38911 0.918015,1.71979 0.238998,0.94589 0.577536,1.98645 0.752306,2.31237 0.375809,0.70082 1.563498,1.35986 3.212494,1.78261 0.992075,0.25433 1.190625,0.41023 1.190625,0.93489 0,0.54249 -0.223726,0.69556 -1.615923,1.10555 -2.428526,0.71519 -2.988832,1.41819 -3.755962,4.7125 -0.152863,0.65645 -0.380141,0.9501 -0.78068,1.00867 -0.468351,0.0685 -0.614407,-0.1126 -0.853559,-1.05833 z"
       id="path10" /><path
       style="fill:#000000"
       d="m 194.68096,237.40765 c -0.61936,-0.0945 -0.73744,-0.26635 -0.89226,-1.29877 -0.31064,-2.07154 5.2e-4,-5.41023 0.61521,-6.60089 0.7425,-1.43823 2.42581,-2.91807 3.78124,-3.32416 1.00951,-0.30246 1.20587,-0.27629 2.30597,0.30731 1.94077,1.02958 3.45924,3.66907 2.7943,4.85724 -0.12643,0.22592 -1.63327,1.72401 -3.34854,3.32911 -3.23971,3.03161 -3.24882,3.03634 -5.25592,2.73016 z"
       id="path9" /><path
       style="fill:#000000"
       d="m 25.675458,236.75393 c -1.606711,-1.62722 -2.921293,-3.14854 -2.921293,-3.38071 0,-0.61375 0.757393,-1.59822 1.229575,-1.59822 0.2232,0 1.052788,0.55272 1.843529,1.22827 0.79074,0.67556 1.497236,1.16875 1.569991,1.096 0.143103,-0.14311 0.187439,-0.65328 0.79981,-9.20344 0.282694,-3.94707 0.516496,-5.79924 0.76372,-6.05013 0.655938,-0.66569 0.912508,0.52296 1.199246,5.55594 0.15228,2.6729 0.39324,6.46716 0.535467,8.43169 0.377986,5.22102 0.361879,5.47917 -0.388686,6.22974 -0.357188,0.35719 -0.888075,0.64943 -1.179749,0.64943 -0.324917,0 -1.661779,-1.1459 -3.45161,-2.95857 z"
       id="path8" /><path
       style="fill:#000000"
       d="m 33.840481,243.50005 c -1.360757,-1.0259 -1.70936,-1.4383 -1.773761,-2.09837 -0.09793,-1.00371 1.029469,-2.48392 1.889611,-2.48096 0.729629,0.003 3.581287,2.25747 3.893582,3.07887 0.425064,1.118 -0.29578,2.2703 -1.629662,2.60509 -0.553755,0.13898 -1.012976,-0.0742 -2.37977,-1.10463 z"
       id="path7" /><path
       style="fill:#000000"
       d="m 185.9108,244.7849 c -0.63875,-0.70582 -0.53809,-1.71104 0.24501,-2.44659 l 0.68289,-0.64143 -14.47989,-0.1323 -14.4799,-0.13229 0.68304,-0.81163 c 0.37568,-0.44641 1.48815,-1.22031 2.47216,-1.7198 1.48743,-0.75501 2.13723,-0.92403 3.85355,-1.00231 l 2.06442,-0.0942 v -8.66942 -8.66942 l -1.06785,-0.17076 -1.06786,-0.17076 0.0757,-2.57503 0.0757,-2.57504 2.84427,-0.0751 2.84427,-0.0751 v -2.17726 c 0,-2.00413 -0.0473,-2.19804 -0.59531,-2.43845 -0.87161,-0.38239 -0.85934,-1.20593 0.0446,-2.99669 0.92938,-1.8411 2.78551,-6.44009 5.23103,-12.96111 l 1.71915,-4.58413 -0.0832,-5.26602 c -0.0587,-3.71085 0.006,-5.35572 0.22046,-5.56973 0.47749,-0.47749 1.61561,-0.0631 1.71317,0.62371 0.0778,0.5475 0.23198,0.59807 1.93657,0.63499 2.23326,0.0484 4.44131,0.59353 6.87685,1.69786 0.99754,0.4523 2.59677,0.98837 3.55385,1.19125 2.96535,0.62861 2.66617,1.41747 2.66617,-7.03026 v -7.40834 h -0.66713 c -0.44625,0 -0.76231,-0.2089 -0.95462,-0.63099 -0.23996,-0.52664 -0.1329,-0.97512 0.6474,-2.71198 1.85535,-4.12977 4.32487,-10.5851 7.62831,-19.94036 l 2.10211,-5.95313 -0.0385,-7.14375 c -0.0212,-3.92906 -0.0268,-7.28455 -0.0124,-7.45665 0.0393,-0.47068 0.99238,-0.68102 1.60361,-0.3539 0.35681,0.19096 0.53916,0.55448 0.53916,1.07484 v 0.78628 l 1.78594,-0.16074 c 2.3552,-0.21197 4.61375,0.33075 8.07355,1.94005 2.68958,1.25104 2.72734,1.25971 5.48635,1.26034 2.77087,6.3e-4 2.77832,0.002 2.85593,0.66635 0.0535,0.45807 -0.22804,1.02304 -0.90271,1.81124 l -0.98051,1.14551 0.80145,0.62723 c 0.6221,0.48687 0.77237,0.77939 0.67149,1.30715 -0.16508,0.86356 -1.08342,1.33886 -3.34923,1.73343 -1.98161,0.34509 -2.76052,0.26306 -6.73273,-0.70904 -2.8275,-0.69195 -3.8352,-0.70121 -6.71734,-0.0617 l -1.25677,0.27886 v 1.82113 c 0,1.57586 0.28037,2.65024 2.08174,7.97726 2.6263,7.76652 5.89748,16.65129 7.11516,19.32534 0.786,1.72606 0.88995,2.159 0.64664,2.69302 -0.18617,0.4086 -0.55543,0.66677 -1.03184,0.72141 l -0.74191,0.0851 -0.0698,8.83174 -0.0697,8.83174 2.621,-0.18582 c 3.55641,-0.25214 3.45833,-0.41132 3.30683,5.36639 -0.0636,2.42442 -0.17384,4.59833 -0.24506,4.83091 -0.13556,0.44273 -1.19304,1.03234 -1.85154,1.03234 -0.32778,0 -0.38443,1.18918 -0.38443,8.06979 v 8.06979 h 1.03944 c 0.96235,0 1.87098,0.51099 1.87098,1.0522 0,0.24168 -0.89001,1.33873 -3.28088,4.04411 l -1.56109,1.76644 -1.59232,-0.16643 c -1.44492,-0.15103 -1.57585,-0.1235 -1.41435,0.29737 0.3786,0.98662 0.49158,1.76181 0.34304,2.35366 -0.20502,0.81685 -1.28026,1.30272 -2.15064,0.9718 -0.72657,-0.27624 -0.74545,-0.33105 -0.77466,-2.24936 l -0.0201,-1.32291 H 197.5116 186.66368 l -0.0697,8.79739 -0.0697,8.7974 h 3.70163 c 3.65842,0 3.70671,0.008 4.13591,0.66278 0.55975,0.85429 0.55787,0.85648 -3.55112,4.13762 -3.36821,2.68962 -4.1006,3.00712 -4.89974,2.12408 z m -11.55038,-11.96006 c 0,-5.58051 0.14688,-6.27933 1.57182,-7.47834 1.02824,-0.86521 1.56732,-0.89544 2.5256,-0.14166 1.29885,1.02168 1.45883,1.84405 1.45883,7.4993 v 5.17946 l 1.91823,-0.0777 1.91823,-0.0777 v -8.73125 -8.73125 l -6.94532,-0.0543 -6.94531,-0.0543 v 8.8517 8.8517 h 2.24896 2.24896 z m 26.85521,-15.20505 c 0,-0.46917 -0.20247,-0.53803 -1.78594,-0.6074 -1.59898,-0.07 -1.78594,-0.0262 -1.78594,0.41892 0,0.77367 0.25888,0.87795 1.97352,0.79499 1.39619,-0.0676 1.59836,-0.14427 1.59836,-0.60651 z m -25.00313,-3.42068 c 0,-0.81046 0.64907,-1.47411 1.44171,-1.47411 0.72523,0 1.11994,0.41945 1.24492,1.32292 0.0843,0.60936 0.21435,0.6678 1.65141,0.74196 0.85796,0.0443 1.66208,-0.0217 1.78695,-0.14654 0.12487,-0.12487 0.14958,-1.14336 0.0549,-2.26331 l -0.17213,-2.03628 h -4.59138 -4.59139 v 2.24896 2.24896 h 1.5875 c 1.50449,0 1.5875,-0.0336 1.5875,-0.64256 z m 13.62604,-8.20395 v -8.44963 l -0.84804,-0.21997 c -1.49455,-0.38765 -1.6655,-0.93133 -1.6655,-5.29693 0,-3.83211 -0.0114,-3.90988 -0.57249,-3.90988 -0.31487,0 -1.61628,-0.20009 -2.89204,-0.44465 -1.72912,-0.33147 -2.64413,-0.38198 -3.59469,-0.19844 -1.27006,0.24523 -1.27548,0.25078 -1.35735,1.38775 -0.0518,0.71992 0.17976,1.94145 0.62703,3.3073 1.44991,4.42761 4.69933,13.07254 5.56829,14.81416 1.07253,2.14962 1.11104,2.67815 0.23688,3.25092 -0.6072,0.39785 -0.66146,0.59446 -0.66146,2.39693 v 1.96353 l 2.57969,-0.0757 2.57968,-0.0757 z m 7.58055,8.31734 h 1.01841 v -4.40107 c 0,-2.6594 0.12572,-4.8207 0.31769,-5.46143 0.68198,-2.27626 3.0391,-3.69434 5.1817,-3.11739 1.11652,0.30064 2.52274,1.60844 2.95105,2.74451 0.1599,0.42413 0.28081,2.78802 0.28081,5.4901 v 4.74528 h 1.01842 c 0.56012,0 1.92934,-0.077 3.0427,-0.17111 l 2.0243,-0.17112 v -8.29862 -8.29863 l -10.3849,0.0692 -10.38489,0.0692 -0.0699,8.57195 -0.0699,8.57195 2.02801,-0.17143 c 1.11541,-0.0943 2.4863,-0.17143 3.04643,-0.17143 z m 17.77331,-19.84375 c 0.0714,-0.0728 0.16771,-1.14432 0.21398,-2.38125 l 0.0841,-2.24896 -12.62755,-0.0687 -12.62755,-0.0687 v 2.33972 c 0,1.28684 0.0828,2.42247 0.18391,2.52362 0.20602,0.20603 24.56928,0.1119 24.77307,-0.0957 z m -34.89317,-9.13534 c 0.48169,-1.01507 0.3362,-1.90605 -0.52614,-3.22214 -0.72384,-1.10472 -0.91476,-0.67728 -0.91476,2.04804 0,2.51145 0.0268,2.64081 0.49468,2.3904 0.27208,-0.14561 0.69788,-0.69295 0.94622,-1.2163 z m 19.72577,0.96188 c 0.50198,-0.13904 0.69336,-0.40379 0.79375,-1.0981 l 0.13229,-0.9149 1.7198,-0.1567 c 2.09074,-0.1905 2.91041,0.18238 2.91041,1.32398 0,0.65897 0.12285,0.78125 0.93855,0.93428 0.51621,0.0968 1.46871,0.0966 2.11667,-6e-4 l 1.17812,-0.17667 v -8.8335 -8.8335 H 203.2 196.58542 v 8.84514 8.84514 l 0.59531,0.11467 c 0.90854,0.17499 2.10981,0.15419 2.84427,-0.0492 z m -6.08542,-0.55779 c 0,-0.29104 -0.1006,-0.52917 -0.22357,-0.52917 -0.12297,0 -0.43908,0.23813 -0.70247,0.52917 -0.46746,0.51654 -0.46213,0.52917 0.22358,0.52917 0.52608,0 0.70246,-0.13288 0.70246,-0.52917 z m 11.51579,-51.77692 c 0.85187,-1.79518 0.3736,-6.16683 -0.67466,-6.16683 -0.1546,0 -0.25779,1.42978 -0.25779,3.57187 0,1.96454 0.10549,3.57188 0.23443,3.57188 0.12894,0 0.44305,-0.43962 0.69802,-0.97692 z"
       id="path6" /><path
       style="fill:#000000"
       d="m 200.71477,180.02732 c -0.26042,-0.67863 -0.18073,-4.65777 0.11457,-5.72101 0.64682,-2.32894 3.55326,-2.83531 4.58,-0.79795 0.43727,0.8677 0.76309,4.47209 0.53384,5.90574 l -0.16498,1.03173 h -2.45142 c -1.99129,0 -2.48156,-0.0786 -2.61201,-0.41851 z"
       id="path5" /><path
       style="fill:#000000"
       d="m 41.852217,249.85978 c -2.112129,-1.61084 -2.567442,-2.34116 -2.147768,-3.44499 0.708135,-1.86253 1.966929,-1.84149 4.500946,0.0753 1.080417,0.81723 2.051869,1.6209 2.158781,1.78593 0.385624,0.59526 0.203133,2.01921 -0.326677,2.54902 -0.931977,0.93198 -2.029602,0.67884 -4.185282,-0.96522 z"
       id="path4" /><path
       style="fill:#000000"
       d="m 51.170201,256.7353 c -2.866812,-2.05484 -3.11283,-2.44643 -2.4504,-3.9003 0.333218,-0.73134 1.581078,-1.28964 2.281617,-1.02082 0.671251,0.25758 3.571589,2.32474 4.134576,2.94683 0.721784,0.79756 0.399989,2.74975 -0.522551,3.17009 -1.026383,0.46765 -1.212791,0.40291 -3.443242,-1.1958 z"
       id="path3" /><path
       style="fill:#000000"
       d="m 167.52612,258.6054 c -0.48952,-0.34288 -0.58706,-0.62503 -0.52189,-1.50977 0.077,-1.04577 0.17791,-1.15762 2.59369,-2.87551 2.10494,-1.49685 2.69053,-1.78905 3.60234,-1.79751 1.33753,-0.0124 2.3625,-0.75639 2.90295,-2.10711 0.29713,-0.74259 1.06279,-1.47724 3.18408,-3.05506 2.49835,-1.85829 2.86665,-2.05142 3.49236,-1.83138 0.79242,0.27868 1.25935,1.30844 1.02203,2.25398 -0.1689,0.67296 -4.60912,4.25031 -5.87096,4.73006 -0.94606,0.35969 -2.45216,1.48765 -3.5703,2.67392 -1.10517,1.17249 -5.17595,3.94006 -5.79538,3.94006 -0.24029,0 -0.7078,-0.18975 -1.03892,-0.42168 z"
       id="path2" /><path
       style="fill:#000000"
       d="m 110.00052,311.79242 c -0.75782,-0.41112 -0.83463,-0.58482 -0.567,-1.28224 0.23081,-0.60149 2.01396,-0.55627 2.57651,0.0653 0.60366,0.66704 0.55016,0.96755 -0.23602,1.32576 -0.83315,0.37961 -0.87819,0.37685 -1.77349,-0.10886 z"
       id="path1" /></g></svg>
