<?xml version="1.0" encoding="UTF-8" standalone="no"?>
<!-- Created with Inkscape (http://www.inkscape.org/) -->

<svg
   width="346.5744mm"
   height="307.92209mm"
   viewBox="0 0 346.5744 307.92209"
   version="1.1"
   id="svg1"
   xml:space="preserve"
   sodipodi:docname="stamp_goal_strawberry_2.svg"
   inkscape:version="1.4.4 (dcaf3e7, 2026-05-05)"
   xmlns:inkscape="http://www.inkscape.org/namespaces/inkscape"
   xmlns:sodipodi="http://sodipodi.sourceforge.net/DTD/sodipodi-0.dtd"
   xmlns="http://www.w3.org/2000/svg"
   xmlns:svg="http://www.w3.org/2000/svg"><sodipodi:namedview
     id="namedview1"
     pagecolor="#ffffff"
     bordercolor="#000000"
     borderopacity="0.25"
     inkscape:showpageshadow="2"
     inkscape:pageopacity="0.0"
     inkscape:pagecheckerboard="0"
     inkscape:deskcolor="#d1d1d1"
     inkscape:document-units="mm"
     inkscape:zoom="0.022340608"
     inkscape:cx="671.4231"
     inkscape:cy="559.51925"
     inkscape:window-width="944"
     inkscape:window-height="250"
     inkscape:window-x="0"
     inkscape:window-y="33"
     inkscape:window-maximized="0"
     inkscape:current-layer="layer1"><inkscape:page
       x="0"
       y="0"
       width="346.5744"
       height="307.92209"
       id="page2"
       margin="0"
       bleed="0" /></sodipodi:namedview><defs
     id="defs1" /><g
     inkscape:label="Layer 1"
     inkscape:groupmode="layer"
     id="layer1"
     transform="translate(62.039384,-13.502964)"><path
       style="fill:#000000"
       d="m 179.30812,83.290831 c -0.17462,-0.174625 -0.3178,-0.62111 -0.31816,-0.992188 -7.9e-4,-0.798587 -1.13923,-5.148434 -1.69652,-6.482218 -0.21452,-0.513423 -0.74692,-1.452202 -1.1831,-2.086175 -1.02175,-1.485054 -3.66382,-2.899934 -6.98102,-3.738469 -1.54242,-0.389899 -2.44182,-0.746565 -2.44182,-0.968328 0,-0.217284 0.80664,-0.557648 2.11667,-0.893132 2.88091,-0.737772 5.58868,-2.057977 6.77175,-3.301642 1.16343,-1.223011 2.30093,-4.016046 3.1542,-7.744828 0.39546,-1.72815 0.71056,-2.579688 0.95458,-2.579688 0.20034,0 0.36612,0.0893 0.3684,0.198438 0.002,0.10914 0.23663,1.299772 0.52077,2.645847 0.52458,2.485136 1.52449,5.294276 2.43195,6.832313 0.88229,1.495368 3.89555,3.08692 7.52313,3.973587 3.02882,0.740316 2.96201,1.06148 -0.37325,1.794393 -2.78574,0.612156 -6.03804,2.353239 -6.98197,3.737714 -0.93191,1.366856 -1.94266,4.152128 -2.58082,7.111817 -0.54452,2.525454 -0.78512,2.992225 -1.28479,2.492559 z"
       id="path22" /><path
       style="fill:#000000"
       d="M 30.03021,83.822225 C 23.969859,79.305473 21.186669,76.580378 19.658792,73.667297 18.067491,70.63329 17.849917,67.781258 19.000318,65.035804 c 1.877619,-4.480971 8.010723,-5.595949 11.541639,-2.098231 0.679524,0.673135 1.442248,1.521538 1.694942,1.88534 0.276222,0.397676 0.513432,0.540106 0.594825,0.357157 0.449459,-1.010262 2.161227,-2.763292 3.307384,-3.387108 5.045665,-2.746195 10.653028,0.868031 10.653028,6.86641 0,4.290811 -2.406797,7.659717 -9.664757,13.528209 -4.971501,4.019753 -4.150628,3.830687 -7.097169,1.634644 z"
       id="path21" /><path
       style="fill:#000000"
       d="m 225.86102,92.324968 c -0.67713,-2.903464 -1.83917,-5.188858 -3.06261,-6.023305 -0.94394,-0.643814 -4.36274,-1.899582 -5.17157,-1.899582 -0.25928,0 -0.61557,-0.173688 -0.79175,-0.385974 -0.26519,-0.319534 -0.19107,-0.415365 0.43062,-0.556716 3.26493,-0.742336 5.5847,-1.838914 6.53329,-3.08835 0.82694,-1.089201 1.45807,-2.666897 2.14487,-5.361669 0.2967,-1.164167 0.64812,-2.116667 0.78094,-2.116667 0.13281,0 0.5175,1.125254 0.85486,2.500564 0.70949,2.892372 1.69818,5.071012 2.63607,5.808759 0.71557,0.562868 3.52876,1.693746 5.34913,2.150303 0.9528,0.238966 1.09113,0.350689 0.8275,0.66834 -0.1741,0.209775 -0.51032,0.383921 -0.74717,0.38699 -0.75442,0.0098 -4.02844,1.264191 -5.03077,1.927497 -1.18781,0.786058 -2.19117,2.743057 -3.03381,5.91732 -0.33679,1.268687 -0.73472,2.347497 -0.8843,2.397356 -0.14958,0.04986 -0.52546,-0.996331 -0.8353,-2.324866 z"
       id="path20" /><path
       style="fill:#000000"
       d="m -4.9027758,103.53138 c -0.8129744,-4.334293 -2.2885757,-7.374575 -4.1531735,-8.557068 -1.1513097,-0.730139 -4.2666537,-1.875967 -6.0914437,-2.240441 -1.4224,-0.284104 -0.978223,-0.757085 1.309475,-1.394394 3.007831,-0.837924 5.1204496,-1.837768 6.0001709,-2.839715 1.0285197,-1.171419 2.2764079,-4.300774 2.8257594,-7.086214 0.598203,-3.033137 1.0763978,-3.048141 1.7266694,-0.05418 0.6346273,2.921937 1.7088498,5.685445 2.65729912,6.836079 0.96376572,1.169215 3.80834848,2.573554 6.51500078,3.216385 2.0780917,0.493547 2.5003577,1.025842 1.0583333,1.334102 -2.12706,0.454698 -4.9590602,1.504575 -6.10371894,2.262766 -1.87756546,1.243648 -2.82298456,3.084467 -3.99668456,7.78192 -0.7685389,3.0759 -1.2698371,3.28837 -1.7476872,0.74076 z"
       id="path19" /><path
       style="fill:#000000"
       d="m 199.25546,116.10794 c -0.0596,-0.194 -0.36567,-1.4243 -0.68016,-2.73398 -0.7854,-3.27087 -1.90161,-5.52545 -3.20187,-6.46735 -1.30641,-0.94636 -3.96804,-2.02293 -5.61013,-2.26918 -1.14908,-0.17231 -1.74759,-0.50904 -1.44415,-0.81249 0.0666,-0.0666 1.00127,-0.36432 2.07702,-0.66159 2.6424,-0.7302 5.17673,-2.01343 5.92477,-2.99996 0.87006,-1.147464 1.90314,-3.868198 2.46842,-6.500892 0.62604,-2.915652 1.04315,-2.949042 1.65264,-0.132292 0.54113,2.500866 1.60505,5.420479 2.36324,6.485274 0.76938,1.08049 2.92803,2.23296 5.67177,3.02806 1.3,0.37673 2.42698,0.7483 2.5044,0.82572 0.23842,0.23842 -0.48049,0.5518 -2.0481,0.8928 -2.45512,0.53404 -5.2372,1.99719 -6.12323,3.22032 -0.83191,1.14842 -1.70788,3.51962 -2.37522,6.42956 -0.39418,1.71884 -0.93394,2.49502 -1.1794,1.696 z"
       id="path18" /><path
       style="fill:#000000"
       d="m 108.97153,133.28385 c -5.15943,-5.32474 -7.78124,-10.95671 -7.41963,-15.93827 0.0846,-1.16575 0.39795,-2.82279 0.69629,-3.68231 0.29834,-0.85953 0.54244,-1.62896 0.54244,-1.70985 0,-0.0809 -0.56555,0.39281 -1.25678,1.05266 -4.425591,4.22475 -10.024841,7.46511 -15.236342,8.81747 -4.798023,1.24506 -9.514327,1.39717 -15.350728,0.49509 l -1.019888,-0.15763 0.170159,-1.06412 c 0.281506,-1.76044 2.147912,-6.39196 3.505639,-8.6993 1.617833,-2.74937 4.424469,-5.58551 7.245291,-7.32146 1.200607,-0.73886 2.312844,-1.39023 2.471637,-1.44749 0.158794,-0.0573 0.229185,-0.16767 0.156424,-0.24535 -0.07276,-0.0777 -1.263385,0.081 -2.645833,0.35266 -1.585012,0.31145 -3.695222,0.49685 -5.712364,0.50189 -3.923353,0.01 -6.314727,-0.542 -9.89366,-2.28293 -2.168578,-1.05488 -2.851206,-1.56581 -5.029243,-3.76429 -1.813243,-1.830263 -2.873402,-3.174548 -3.779726,-4.792706 -1.250401,-2.232478 -1.990622,-4.109662 -1.725204,-4.37508 0.231925,-0.231925 8.103453,-1.648235 11.057614,-1.989577 3.723597,-0.430248 10.225446,-0.180159 13.404249,0.515585 3.981365,0.8714 8.074386,2.534323 11.930938,4.847332 0.472943,0.283653 0.859896,0.401337 0.859896,0.26152 0,-0.139817 -1.484302,-1.807869 -3.298448,-3.706783 -3.547911,-3.713692 -4.628194,-5.202296 -5.925394,-8.165053 -0.962633,-2.198619 -0.989806,-2.388353 -0.367304,-2.564711 1.226653,-0.347519 4.942734,-0.440631 7.077604,-0.17734 9.805995,1.20936 17.852583,6.539364 21.743483,14.40273 0.54694,1.105341 1.074,2.009711 1.17125,2.009711 0.0973,0 0.55475,-0.937546 1.01666,-2.083436 2.1084,-5.230448 6.40188,-10.069455 10.90891,-12.295001 3.12211,-1.541677 5.17362,-2.016895 8.72816,-2.02182 4.18171,-0.0058 4.171,-0.01761 2.75787,3.040907 -1.52583,3.302458 -2.74422,4.874759 -7.00953,9.04559 -2.26142,2.211338 -4.04567,4.086627 -3.96499,4.167307 0.0807,0.08068 1.02968,-0.283565 2.1089,-0.809433 2.86947,-1.39821 5.6306,-2.363552 8.73913,-3.055361 3.76688,-0.838328 10.2489,-0.84991 13.99286,-0.025 4.44285,0.978892 10.5363,3.161469 14.4198,5.164941 l 1.32291,0.682484 -1.45521,1.377908 c -2.72541,2.580646 -5.89145,4.417146 -9.78958,5.678586 -3.49172,1.12993 -10.08637,1.24059 -13.55989,0.22754 -0.25467,-0.0743 -0.46303,-0.004 -0.46303,0.15568 0,0.15989 0.20836,0.36673 0.46303,0.45964 0.99689,0.3637 3.38767,2.03964 4.76652,3.34135 3.52484,3.32763 6.36432,8.96646 7.46485,14.82419 0.41491,2.20838 0.44478,2.1803 -2.58898,2.43301 -7.13737,0.59454 -15.22391,-1.71238 -20.91311,-5.96609 -2.00223,-1.49702 -5.76792,-5.1975 -6.3264,-6.21683 -0.50458,-0.92096 -0.61844,-0.26734 -0.30444,1.74764 0.83326,5.34702 -0.99114,10.68309 -5.41721,15.84443 -1.42316,1.65959 -5.4445,5.28177 -5.87076,5.28802 -0.15609,0.002 -1.23557,-0.9781 -2.39884,-2.17865 z"
       id="path17" /><path
       style="fill:#000000"
       d="m -8.5989556,146.91926 c -4.9316454,-3.72065 -8.5284734,-7.23394 -9.7212544,-9.49548 -1.87088,-3.54723 -2.043638,-7.00063 -0.499434,-9.98363 2.255481,-4.357 7.820589,-5.45047 11.7799514,-2.3146 0.5750604,0.45546 1.3822126,1.36097 1.7936715,2.01226 0.8375043,1.32566 1.033331,1.42453 1.2802978,0.64641 0.3544018,-1.11662 2.8563825,-3.32345 4.43946768,-3.91576 3.06880472,-1.14819 5.80683572,-0.55295 8.12336482,1.766 1.8088258,1.81071 2.3831018,3.26851 2.3831018,6.04949 0,3.48878 -1.6289233,6.66747 -5.2126408,10.17199 -1.6376256,1.60143 -9.7809803,8.16656 -10.1217111,8.16007 -0.079075,-0.002 -1.9892418,-1.39504 -4.2448147,-3.09675 z"
       id="path16" /><path
       style="fill:#000000"
       d="m 225.7775,149.32054 c -8.64849,-6.40767 -11.58177,-9.78207 -12.55317,-14.44094 -0.90366,-4.33398 1.4398,-8.84166 5.17906,-9.96197 1.43369,-0.42954 3.68131,-0.36816 5.17674,0.14138 1.25448,0.42745 3.85286,2.64784 4.59359,3.92536 0.30005,0.5175 0.31689,0.51458 0.76342,-0.13229 3.27992,-4.75142 8.22468,-5.72333 12.24758,-2.40731 1.56958,1.29378 2.44762,3.24706 2.57823,5.7355 0.27509,5.24111 -2.32295,9.03311 -10.79733,15.75932 -2.11005,1.67477 -3.97549,3.12634 -4.14541,3.22571 -0.17406,0.10179 -1.50253,-0.70364 -3.04271,-1.84476 z"
       id="path15" /><path
       style="fill:#000000"
       d="m 207.9625,192.71375 c -5.24809,-3.99683 -7.30414,-5.95211 -8.72688,-8.29917 -1.95182,-3.21986 -2.24291,-6.82217 -0.77015,-9.53094 2.39018,-4.39614 8.39348,-4.62563 11.4814,-0.43889 l 0.92604,1.25556 0.39688,-0.59755 c 2.2961,-3.45708 6.01761,-4.62416 9.29151,-2.91385 1.62954,0.85128 2.99265,2.47928 3.42725,4.09326 0.16376,0.60816 0.25505,1.95132 0.20286,2.98478 -0.13807,2.73417 -1.46167,5.29573 -4.14096,8.01397 -2.2046,2.23665 -8.58908,7.45384 -9.11701,7.45013 -0.17881,-0.001 -1.51573,-0.90904 -2.97094,-2.0173 z"
       id="path14" /><path
       style="fill:#000000"
       d="m 6.0963304,196.80586 c -0.066912,-0.194 -0.3719245,-1.44287 -0.6778049,-2.77527 -0.6873377,-2.99399 -2.0147082,-5.82504 -3.1995079,-6.82399 -1.0945409,-0.92285 -2.05309435,-1.3485 -5.1178444,-2.27258 -2.5050347,-0.75531 -3.0439807,-1.18787 -1.8163205,-1.45776 2.5404754,-0.55851 4.85014846,-1.40413 6.1763002,-2.26126 1.901016,-1.22869 2.8286407,-2.96676 3.9407777,-7.38375 0.4848149,-1.9255 0.8922869,-3.04271 1.109751,-3.04271 0.2101804,0 0.4762973,0.65543 0.6852151,1.68765 0.9709347,4.79717 2.2221529,7.41536 4.1445993,8.67263 1.145879,0.74939 4.273817,1.90167 6.338239,2.3349 1.235633,0.2593 0.671859,0.71854 -1.66507,1.35635 -3.390574,0.92536 -5.369693,2.00285 -6.3233516,3.44262 -0.8864184,1.33824 -1.9614543,4.34762 -2.4864686,6.96043 -0.3233188,1.60904 -0.8408857,2.33869 -1.1085144,1.56274 z"
       id="path13" /><path
       style="fill:#000000"
       d="m 29.862508,229.96165 c -5.691116,-4.23159 -7.647973,-6.92616 -7.617906,-10.48977 0.02563,-3.03798 1.412759,-4.98177 4.057425,-5.6857 2.099759,-0.55889 4.61992,0.39884 5.866776,2.22954 0.351742,0.51645 0.712636,0.93981 0.801986,0.94081 0.08935,9.9e-4 0.477939,-0.45344 0.863532,-1.00985 1.853761,-2.67498 5.765488,-3.09373 8.105324,-0.86767 1.22538,1.16579 1.991301,3.44705 1.733815,5.16409 -0.255306,1.7025 -1.505422,4.09437 -2.984904,5.71107 -1.146571,1.25291 -6.281077,5.5554 -7.330689,6.14279 -0.231611,0.12962 -1.451449,-0.61558 -3.495359,-2.13531 z"
       id="path12" /><path
       style="fill:#000000"
       d="m 191.17893,232.78211 c -0.13715,-0.33563 -0.43811,-1.5032 -0.6688,-2.59461 -0.23069,-1.0914 -0.86312,-2.87734 -1.40541,-3.96875 -1.33416,-2.68514 -2.55877,-3.4452 -7.6667,-4.75839 -1.48589,-0.382 -1.42832,-0.90142 0.14002,-1.26344 1.90794,-0.4404 4.04213,-1.2939 5.41922,-2.16722 1.78337,-1.13099 2.96361,-3.64216 3.89907,-8.29603 0.17788,-0.88495 0.43156,-1.49521 0.59841,-1.43959 0.15929,0.0531 0.55336,1.16108 0.8757,2.46217 0.72404,2.92254 1.53953,5.00829 2.40094,6.1408 0.81813,1.07561 3.13281,2.26382 5.83592,2.99581 3.19959,0.86643 3.17562,0.93632 -0.71459,2.08382 -2.52787,0.74564 -4.6639,2.00085 -5.41788,3.18374 -0.70105,1.09984 -1.81961,4.2892 -2.24862,6.41153 -0.34679,1.71552 -0.68233,2.10326 -1.04728,1.21016 z"
       id="path11" /><path
       style="fill:#000000"
       d="m 123.54965,255.13274 c -1.21158,-1.00892 -3.80808,-2.15772 -5.96725,-2.64015 -2.97495,-0.66471 -10.52503,-0.58447 -13.24901,0.1408 -2.23342,0.59466 -3.9232,1.37101 -5.068794,2.32881 -0.411348,0.34392 -0.854559,0.6253 -0.984914,0.6253 -0.130355,0 -1.698798,-1.08528 -3.485428,-2.41173 -4.002626,-2.97168 -9.752198,-6.7679 -13.407044,-8.85215 -2.524592,-1.4397 -3.232183,-2.04609 -8.622471,-7.38924 -6.300879,-6.24579 -10.075272,-10.55674 -14.941542,-17.06563 -13.290969,-17.77735 -22.568329,-37.41187 -25.3783,-53.71042 -1.226967,-7.11672 -1.495617,-14.86385 -0.715654,-20.6375 0.991476,-7.33936 3.540925,-15.19946 6.817411,-21.01847 4.863012,-8.63668 10.947426,-15.04682 18.638934,-19.63675 l 2.547674,-1.52033 0.957328,0.59469 c 3.065767,1.90445 8.159117,3.73776 10.400567,3.74359 1.05138,0.003 1.074688,0.30635 0.12596,1.64075 -2.914167,4.09884 -5.901422,12.96695 -4.960312,14.72543 0.585272,1.09359 3.186185,1.89119 7.946878,2.43699 7.641017,0.87603 15.909505,-1.03911 22.408417,-5.19022 l 1.3621,-0.87003 0.184013,1.23624 c 0.39041,2.62285 2.123437,6.64023 4.185657,9.7029 1.29911,1.92935 6.58765,7.28746 7.81744,7.92029 0.56528,0.29088 1.14083,0.39379 1.58245,0.28295 2.03441,-0.5106 7.79586,-5.79992 10.3153,-9.47 1.575,-2.2943 2.95005,-5.11104 3.61276,-7.40061 0.30122,-1.04068 0.53968,-1.45998 0.7523,-1.32282 0.17121,0.11045 1.35438,0.89372 2.62927,1.74061 6.83988,4.54363 15.68557,6.4493 23.56118,5.07591 3.89985,-0.68008 4.33936,-1.11737 4.04384,-4.02341 -0.54995,-5.40805 -2.40568,-10.75486 -5.04126,-14.5251 -0.66084,-0.94534 -1.20153,-1.77262 -1.20153,-1.83841 0,-0.0658 0.39768,-0.11962 0.88372,-0.11962 1.14462,0 4.50398,-0.86234 6.49982,-1.6685 l 1.56686,-0.63288 1.94095,1.16808 c 12.45136,7.49337 21.03424,20.32842 23.82309,35.62568 0.78708,4.31729 0.85016,14.28629 0.11958,18.89977 -2.34999,14.83982 -9.7727,31.5003 -25.30901,56.80682 -4.35068,7.08665 -10.68251,15.84486 -16.52568,22.85835 -3.47798,4.17459 -3.72108,4.40417 -6.47153,6.11173 -3.26216,2.02526 -5.23268,3.3941 -9.55731,6.6391 l -3.05348,2.29119 z M 95.753806,241.55136 c 1.142383,-1.00302 1.54854,-2.19205 1.5271,-4.47057 -0.03137,-3.33399 -1.414774,-7.12677 -3.035219,-8.32143 -0.681294,-0.50229 -0.796249,-0.51386 -1.455208,-0.14655 -0.880358,0.49072 -2.016478,2.54433 -2.558186,4.62408 -0.835954,3.20945 -0.28896,6.64582 1.312839,8.24762 0.7335,0.7335 1.067798,0.87383 2.081704,0.87383 0.969199,0 1.38949,-0.15946 2.12697,-0.80698 z m 31.540804,0.30267 c 0.46164,-0.28149 1.10136,-1.06618 1.45521,-1.78494 0.89607,-1.82019 0.90489,-6.02098 0.018,-8.60307 -0.57847,-1.68427 -1.63671,-3.14128 -2.26697,-3.12123 -2.2039,0.0701 -5.06638,6.41445 -4.5245,10.02798 0.5,3.33424 2.94,4.93145 5.31821,3.48126 z M 74.879837,219.78662 c 1.124035,-1.12403 1.552503,-2.7049 1.376103,-5.07724 -0.237628,-3.19579 -1.868859,-7.07625 -3.295639,-7.83984 -1.916637,-1.02575 -4.250955,3.93117 -3.980829,8.45329 0.203272,3.40292 1.654043,5.3364 4.005841,5.33868 0.801017,7.8e-4 1.205774,-0.18614 1.894524,-0.87489 z m 72.270723,0.0466 c 1.2898,-1.2037 1.76972,-2.54263 1.88898,-5.27009 0.12172,-2.78367 -0.346,-5.23829 -1.28881,-6.7638 -1.04122,-1.68471 -2.23165,-1.36281 -3.86576,1.04535 -1.3322,1.96324 -1.99814,4.00255 -2.13692,6.54391 -0.10603,1.94167 -0.0434,2.42434 0.4369,3.36575 0.30837,0.60445 0.88744,1.28302 1.28682,1.50792 1.02078,0.57483 2.82909,0.36393 3.67879,-0.42904 z m -36.58303,-0.51867 c 1.63707,-1.28772 2.33207,-4.2559 1.76643,-7.54398 -0.51715,-3.00615 -2.09537,-5.92477 -3.20377,-5.92477 -1.75651,0 -4.20586,5.00269 -4.21899,8.61709 -0.0111,3.06268 1.63861,5.40583 3.80608,5.40583 0.76234,0 1.38148,-0.18544 1.85025,-0.55417 z m 24.16086,-19.54477 c 1.27005,-0.77439 1.99419,-2.41275 2.13912,-4.83972 0.26025,-4.35809 -1.34269,-8.66342 -3.22552,-8.66342 -1.27473,0 -3.10749,2.87111 -3.85866,6.04481 -0.44333,1.87306 -0.24388,5.32548 0.361,6.24864 0.61037,0.93155 1.96548,1.72749 2.94109,1.72749 0.43656,0 1.1759,-0.23301 1.64297,-0.5178 z M 85.063542,197.6703 c 1.169246,-0.84625 1.669465,-2.04742 1.801343,-4.32554 0.137143,-2.36907 -0.225005,-4.36973 -1.183823,-6.53993 -0.818593,-1.85282 -1.318304,-2.39025 -2.222507,-2.39025 -2.3885,0 -4.842884,7.31216 -3.650139,10.87458 0.923043,2.7569 3.26794,3.81939 5.255126,2.38114 z M 59.688368,179.76059 c 1.677498,-1.60714 2.154662,-5.18344 1.200744,-8.99944 -0.537337,-2.14954 -1.172055,-3.32386 -2.138979,-3.95741 -0.627117,-0.4109 -0.720549,-0.41124 -1.3408,-0.005 -1.136335,0.74456 -2.227682,2.53787 -2.945443,4.83998 -1.242646,3.9856 -0.553402,7.73325 1.601453,8.70764 1.179489,0.53335 2.713737,0.28522 3.623025,-0.58593 z m 100.398682,0.1428 c 0.35345,-0.33205 0.89648,-1.1281 1.20673,-1.76899 0.50246,-1.03793 0.55016,-1.48848 0.43655,-4.12327 -0.13465,-3.12299 -0.71656,-5.23779 -1.8311,-6.65469 -1.23281,-1.56727 -3.19308,-0.14831 -4.45544,3.22512 -1.61453,4.31452 -1.25771,8.18867 0.88428,9.60099 1.08282,0.71395 2.84083,0.58339 3.75898,-0.27916 z m -49.35892,-2.88042 c 0.3638,-0.25326 0.95911,-0.9857 1.32291,-1.62766 0.58494,-1.03216 0.66089,-1.47326 0.65657,-3.81302 -0.007,-3.74328 -1.14688,-6.93481 -2.79136,-7.81491 -1.95437,-1.04594 -5.04907,5.13287 -4.66918,9.32237 0.33534,3.69825 3.03534,5.63577 5.48106,3.93322 z m 26.98957,-19.80029 c 1.21739,-1.21739 1.58202,-2.43103 1.58395,-5.27204 0.001,-1.5813 -0.1775,-2.73571 -0.65893,-4.25971 -1.38637,-4.38863 -3.38005,-4.66919 -5.28476,-0.74367 -2.07998,4.28672 -1.84526,9.3445 0.50003,10.77465 0.44821,0.27332 1.27542,0.49739 1.83824,0.49793 0.8315,8.1e-4 1.21042,-0.18611 2.02147,-0.99716 z m -54.030081,0.36183 c 2.90914,-1.51362 3.716031,-6.06489 2.00838,-11.32826 -0.469174,-1.44611 -1.671891,-2.61209 -2.477161,-2.40151 -0.74814,0.19564 -1.930956,1.61353 -2.744952,3.29048 -2.130473,4.38907 -1.849401,8.99398 0.630137,10.32377 1.089685,0.5844 1.635519,0.60881 2.583596,0.11552 z m 86.340701,-7.8644 c 2.1137,-1.47411 2.154,-5.96429 0.0901,-10.03724 -0.72529,-1.43129 -1.81209,-2.78711 -2.55114,-3.18264 -0.60122,-0.32176 -1.54714,0.17724 -2.18554,1.15293 -1.17644,1.79802 -1.64474,7.37416 -0.81565,9.71222 0.98754,2.78493 3.37166,3.81271 5.46225,2.35473 z m -117.746092,-0.5715 c 1.214033,-0.81773 1.998715,-2.33353 2.358723,-4.55642 0.466956,-2.88326 -0.137243,-6.89825 -1.217759,-8.09221 -0.732756,-0.80969 -1.596243,-0.61898 -2.843155,0.62793 -2.887056,2.88706 -4.42392,8.06663 -3.174649,10.69928 0.881957,1.85858 3.162105,2.47641 4.87684,1.32142 z"
       id="path10" /><path
       style="fill:#000000"
       d="m 30.828648,271.44128 c -2.440449,-1.92907 -4.241345,-4.81173 -4.767659,-7.63151 -0.147317,-0.78927 -0.30375,-1.47093 -0.347629,-1.51481 -0.04388,-0.0439 -0.837723,0.0423 -1.764097,0.19147 -2.335907,0.37619 -4.908565,-0.0618 -7.410681,-1.26155 -2.662901,-1.27688 -5.647566,-4.22172 -6.8544472,-6.76299 -0.8929524,-1.88024 -1.6020165,-4.67782 -1.6097466,-6.35118 l -0.00459,-0.9945 -1.3890624,0.15768 c -1.8557951,0.21065 -4.9122268,-0.45321 -7.07760403,-1.53726 -1.12766397,-0.56455 -2.40366477,-1.54486 -3.70605137,-2.84724 -3.071985,-3.07199 -4.4866979,-6.34256 -4.4928915,-10.38678 l -0.00314,-2.05052 h -1.9363529 c -3.678093,0 -7.00534,-1.46502 -9.848395,-4.33633 -3.32231,-3.35533 -5.026576,-7.92504 -4.367381,-11.71041 0.166871,-0.95825 0.267724,-1.77264 0.224119,-1.80976 -0.0436,-0.0371 -0.853187,-0.19985 -1.799072,-0.36164 -5.38338,-0.92075 -10.031608,-5.42092 -11.517489,-11.15062 -0.427506,-1.6485 -0.433985,-2.53339 -0.05298,-7.23644 0.05897,-0.72791 -0.0076,-0.77172 -1.914915,-1.25949 -4.640321,-1.18672 -8.538126,-5.00705 -10.228206,-10.0249 -0.362566,-1.07646 -0.487696,-2.21269 -0.480775,-4.36562 0.0095,-2.96597 0.01098,-2.97225 1.557636,-6.77075 0.130753,-0.32113 -0.249837,-0.62809 -1.60732,-1.29638 -4.797137,-2.36162 -7.741878,-7.70426 -7.438817,-13.49624 0.145316,-2.7772 0.679493,-4.49824 2.158513,-6.9544 l 0.902278,-1.49838 -0.854532,-0.52813 c -0.469993,-0.29047 -1.517846,-1.22354 -2.328561,-2.07349 -4.166395,-4.36803 -5.083374,-10.7062 -2.355996,-16.28464 l 0.753901,-1.542 -0.956867,-1.86499 c -0.802965,-1.56503 -0.97161,-2.18964 -1.048527,-3.88338 -0.14994,-3.30173 1.295748,-6.46093 3.799052,-8.3019 0.641237,-0.47158 1.170529,-0.94854 1.176204,-1.05992 0.0057,-0.11138 -0.398763,-0.82575 -0.898752,-1.5875 -2.022811,-3.0818 -2.829411,-8.12787 -1.894509,-11.852006 1.11244,-4.431341 4.226425,-8.498163 7.874396,-10.283853 l 1.763526,-0.863249 -0.739471,-1.648141 c -0.925052,-2.061766 -1.332372,-3.928587 -1.332372,-6.106492 0,-2.497854 0.432763,-4.203837 1.778623,-7.011459 2.038605,-4.252769 5.806581,-7.504543 9.935674,-8.574515 1.218088,-0.315643 1.373564,-0.432844 1.306815,-0.985105 -0.314796,-2.604538 -0.345985,-5.79449 -0.06925,-7.082396 0.51885,-2.414674 2.250005,-5.628481 4.109439,-7.628983 2.977812,-3.203724 6.489203,-4.81444 10.521509,-4.826338 l 2.315104,-0.0068 v -1.531912 c 0,-3.481897 1.718976,-7.332395 4.535239,-10.15891 3.616858,-3.630023 8.852226,-5.098385 13.4564265,-3.774119 0.8003646,0.230202 1.6145103,0.440471 1.8092128,0.467265 0.2112442,0.02907 0.5949429,-0.609893 0.9514626,-1.584447 1.72247269,-4.708414 5.7827443,-8.18941 10.7909566,-9.251421 3.3622525,-0.712978 6.9579765,0.03416 10.0267695,2.083425 1.287364,0.859669 1.654986,1.000657 1.837226,0.704604 2.485854,-4.03832 5.699338,-6.358182 10.083981,-7.279776 2.336582,-0.491119 4.399693,-0.327683 6.902257,0.546782 2.136179,0.746439 4.918459,2.67337 5.935237,4.110582 0.408708,0.577708 0.834084,1.05292 0.945281,1.056027 0.111196,0.0031 0.861081,-0.531038 1.666411,-1.186988 4.614719,-3.75874 10.418509,-4.371225 15.572361,-1.643381 2.232792,1.181778 4.885199,3.890164 5.972267,6.098313 0.788131,1.600923 0.916552,1.737849 1.302395,1.388666 0.848499,-0.767881 3.896876,-1.999539 5.487186,-2.217028 7.112879,-0.972747 14.332308,4.253001 15.736595,11.390856 0.247258,1.25679 0.385129,1.516641 0.730605,1.377005 0.923438,-0.373239 4.75258,-0.447365 6.144447,-0.118946 5.615886,1.325099 10.102196,6.236222 10.874896,11.904653 l 0.30657,2.248958 2.39788,-0.05496 2.39787,-0.05496 0.18463,-1.619018 c 0.65218,-5.719 4.67966,-10.466401 10.35131,-12.201643 1.44386,-0.441746 2.26384,-0.526754 4.10105,-0.425154 1.26299,0.06985 2.48288,0.207431 2.71086,0.305745 0.3348,0.144375 0.47134,-0.126758 0.70993,-1.409714 0.95239,-5.121245 5.61012,-9.884948 10.88102,-11.128602 0.88397,-0.208571 2.36366,-0.286299 3.91022,-0.205403 2.22871,0.116575 2.70108,0.237384 4.531,1.158801 1.12359,0.565761 2.12644,1.066427 2.22855,1.112589 0.10211,0.04616 0.54754,-0.632964 0.98985,-1.509171 2.30333,-4.562877 7.37559,-7.702886 12.44297,-7.702886 3.65124,0 6.71102,1.169825 9.1886,3.51302 l 1.41957,1.342571 0.42895,-0.641858 c 0.87533,-1.309796 3.34867,-3.392002 4.98756,-4.198825 1.69451,-0.834204 4.58895,-1.59322 6.0756,-1.59322 1.48446,0 4.38006,0.758511 6.06822,1.589588 2.13688,1.051982 4.32446,2.997472 5.64779,5.022763 1.02483,1.568462 1.03739,1.577094 1.51949,1.044381 0.86827,-0.959434 4.45719,-2.562848 6.51627,-2.911268 6.52368,-1.103876 13.66071,3.47323 15.58646,9.995869 0.18259,0.618464 0.34291,1.122944 0.35625,1.121066 0.0134,-0.0019 0.77902,-0.240002 1.70149,-0.529167 2.26714,-0.710676 5.73743,-0.710888 8.03743,-4.91e-4 5.69833,1.760035 10.26139,7.783558 10.26139,13.545678 v 1.804061 l 2.44739,0.0056 c 4.1469,0.0095 7.18631,1.405177 10.33992,4.748169 1.93807,2.054464 3.6583,5.200019 4.15671,7.600857 0.32123,1.547351 0.23159,6.404885 -0.13433,7.279628 -0.14614,0.349352 -0.0184,0.488653 0.56261,0.613663 2.76923,0.595802 5.50885,2.145264 7.68373,4.345731 2.94295,2.977576 4.55661,6.610153 4.78038,10.761328 0.1421,2.636097 -0.14776,4.323958 -1.16297,6.771968 -0.34518,0.83236 -0.62761,1.569519 -0.62761,1.638131 0,0.06861 0.74414,0.515064 1.65365,0.992117 2.56092,1.343253 5.18427,4.107734 6.48757,6.836579 1.4219,2.977196 1.74903,4.615056 1.59302,7.975986 -0.13905,2.99555 -0.88664,5.38178 -2.36532,7.54981 -0.41488,0.6083 -0.75434,1.21046 -0.75434,1.33813 0,0.12767 0.5214,0.59964 1.15867,1.04883 2.46764,1.73935 3.95744,4.98246 3.81905,8.31359 -0.0707,1.7019 -0.23327,2.3083 -1.04067,3.88197 l -0.95686,1.86499 0.75518,1.542 c 1.7271,3.52654 2.01744,7.90789 0.75089,11.33157 -1.16485,3.1488 -2.68106,5.0181 -6.06374,7.47585 -0.0673,0.0489 0.0458,0.35132 0.25117,0.67212 3.33962,5.21612 3.70996,9.92684 1.19649,15.21949 -1.15615,2.43453 -3.77808,5.13462 -6.04293,6.22307 -1.21436,0.58361 -1.50345,0.8359 -1.35875,1.18582 1.41593,3.42417 1.86609,6.04976 1.48106,8.63846 -0.98002,6.58921 -5.55395,11.52959 -11.98879,12.94931 -0.64274,0.14181 -0.68814,0.22925 -0.48562,0.93539 0.45087,1.57209 0.57511,4.14648 0.28159,5.83487 -1.13903,6.55202 -6.10288,11.64981 -12.23986,12.5701 l -1.13458,0.17014 -0.011,3.22103 c -0.009,2.73164 -0.10508,3.46221 -0.63019,4.80852 -2.32801,5.96872 -7.73453,9.92188 -13.56959,9.92188 h -1.79649 v 1.92395 c 0,5.48478 -3.498,10.97254 -8.54665,13.40822 -2.38709,1.15164 -5.1826,1.73911 -6.99762,1.47054 l -1.12448,-0.16639 -0.005,0.87611 c -0.009,1.67215 -0.7874,4.59065 -1.74258,6.5316 -2.5998,5.28288 -8.73961,8.75217 -14.16441,8.00357 -1.8857,-0.26022 -1.93918,-0.22664 -2.1959,1.37882 -0.4007,2.50581 -2.78081,6.0832 -5.22552,7.85414 l -0.97594,0.70697 -2.33146,-0.35055 c -1.28231,-0.19281 -3.30529,-0.35313 -4.49552,-0.35627 l -2.16406,-0.006 -0.30645,-1.47619 c -0.16855,-0.81191 -0.26074,-1.52192 -0.20485,-1.5778 0.0559,-0.0559 0.68052,0.0726 1.38808,0.28556 2.09374,0.63013 3.79491,0.50379 5.6415,-0.41896 2.74648,-1.37244 4.28251,-3.64397 4.49848,-6.65251 0.11268,-1.56969 0.047,-1.90671 -0.57997,-2.97656 -0.38886,-0.66356 -0.77613,-1.20646 -0.86058,-1.20646 -0.0845,0 -1.53796,1.05147 -3.23,2.33659 -1.69204,1.28513 -4.0587,3.02145 -5.25924,3.85849 -2.42588,1.69136 -2.38592,1.71509 -1.86576,-1.10795 l 0.31707,-1.72075 2.39491,-1.77091 c 8.65653,-6.401 20.24089,-16.6684 30.04783,-26.63186 18.27464,-18.56631 31.50646,-36.22998 40.60585,-54.20632 9.17092,-18.11767 14.04582,-39.75408 12.84665,-57.01771 -1.20209,-17.30562 -6.09698,-33.163875 -14.49601,-46.963545 -5.77925,-9.495351 -15.02971,-19.711837 -23.87919,-26.372894 -7.55369,-5.685705 -17.05781,-10.125602 -26.83318,-12.53525 -6.1274,-1.510415 -10.81759,-2.076716 -17.21995,-2.079163 -6.4617,-0.0025 -9.67602,0.315282 -15.87499,1.569323 -16.93702,3.426328 -32.00274,11.365201 -44.41167,23.402701 -1.57965,1.532364 -3.24583,3.262366 -3.70262,3.84445 -0.79146,1.008554 -0.75593,0.99223 0.75542,-0.347051 7.34307,-6.507042 11.39891,-9.645639 16.87084,-13.055435 10.06552,-6.272257 20.00274,-10.249646 31.26578,-12.514174 6.03704,-1.213797 10.43321,-1.576983 16.80478,-1.388311 12.70688,0.376272 24.42066,3.67784 35.33413,9.959048 22.95542,13.211902 39.33971,39.812363 43.44051,70.527171 0.6515,4.87969 0.65073,17.68822 -10e-4,22.3573 -2.28997,16.39711 -6.63034,29.85062 -14.12379,43.77849 -6.35427,11.81052 -13.12081,21.63706 -23.32399,33.8717 -8.51266,10.20753 -23.81213,25.50635 -34.53805,34.53658 -4.31778,3.63516 -11.08095,9.00818 -11.19513,8.894 -0.062,-0.062 0.002,-0.57127 0.14267,-1.13167 0.14049,-0.56039 0.32488,-1.3292 0.40976,-1.70846 0.10612,-0.47418 1.20915,-1.54854 3.53139,-3.43958 12.50756,-10.18513 27.66203,-24.87779 37.75381,-36.60329 16.22465,-18.8512 27.67278,-37.74276 33.51818,-55.31132 6.99806,-21.03285 7.61822,-41.54937 1.85163,-61.255612 -8.93887,-30.546881 -30.20477,-52.793232 -56.89872,-59.522004 -13.98577,-3.525408 -27.13568,-3.022357 -42.17863,1.613548 -15.74464,4.852149 -31.73832,15.841326 -45.39419,31.190112 -1.48891,1.673489 -2.89074,3.146178 -3.11516,3.272642 -0.31257,0.176131 -0.90674,-0.319164 -2.53921,-2.116666 C 105.00538,69.451253 96.02032,60.712769 93.181318,58.472913 78.709948,47.055598 64.665681,40.682744 48.815626,38.341133 43.952114,37.622622 35.126241,37.480975 30.559377,38.048139 12.030873,40.349214 -4.031311,48.678762 -16.321482,62.359676 -28.92043,76.384308 -36.968636,94.376917 -39.863761,114.99091 c -0.796601,5.672 -0.865142,17.08678 -0.136452,22.72471 2.325216,17.9904 7.966998,33.45221 18.391348,50.40313 13.2277672,21.50953 32.914093,43.30076 57.904254,64.09549 3.644502,3.03266 3.744009,3.14316 4.050326,4.49792 0.172718,0.76389 0.376997,1.61554 0.453954,1.89256 0.170725,0.61455 -2.084315,-1.10276 -8.918781,-6.79203 -31.83777633,-26.503 -56.230782,-57.34544 -67.010847,-84.72831 -7.922406,-20.12402 -10.013387,-39.77842 -6.263007,-58.8698 C -35.623983,78.847467 -18.39424,54.487652 4.8024445,42.902423 19.400054,35.611871 35.963775,33.248779 52.387501,36.113619 c 5.148871,0.898133 12.734536,3.192362 18.123958,5.481461 10.699945,4.544685 22.199145,12.161943 30.228641,20.023948 2.51313,2.460706 3.16768,2.701279 0.9395,0.345302 C 91.027227,50.701017 78.325945,42.48736 64.330964,37.811739 52.827533,33.968527 42.82721,32.702676 32.09288,33.731012 c -18.694485,1.790909 -34.856991,9.390136 -47.971282,22.55496 -7.925628,7.956168 -13.219669,15.363848 -18.108276,25.337984 -5.527884,11.278441 -8.905155,23.035314 -10.374548,36.115624 -0.486275,4.32875 -0.41043,14.86247 0.13907,19.31459 1.464435,11.86504 4.793461,24.15849 9.385926,34.66041 6.472674,14.80153 18.743749,32.96682 33.6016612,49.74167 4.6825944,5.28674 19.7620658,20.44796 24.5179038,24.65083 6.013885,5.31464 13.15584,11.0892 17.823047,14.41065 0.148239,0.1055 0.810326,3.32995 0.820783,3.99733 0.0083,0.53257 -0.227272,0.42556 -2.305809,-1.04728 -1.273307,-0.90225 -3.5615,-2.58242 -5.084874,-3.7337 l -2.769769,-2.09323 -0.709604,0.84999 c -1.710769,2.04923 -0.974296,6.14681 1.550568,8.62704 2.072869,2.03623 5.289088,2.78962 7.930468,1.85768 l 1.049466,-0.37027 -0.298982,1.49475 -0.298983,1.49476 -2.10628,0.0812 c -1.158455,0.0447 -3.164296,0.23177 -4.457426,0.41575 l -2.351144,0.33451 z M 24.22839,257.82565 c 0.644387,-0.22422 1.41274,-0.61117 1.707453,-0.85989 0.564704,-0.47657 1.977701,-2.2571 1.977701,-2.49212 0,-0.0758 -0.922735,-0.89457 -2.050521,-1.81943 -1.127787,-0.92485 -3.580948,-3.05423 -5.451469,-4.73194 -5.518134,-4.94934 -5.417406,-4.87248 -5.881013,-4.48772 -0.223206,0.18524 -0.726389,0.88208 -1.118184,1.54853 -0.623654,1.06083 -0.711916,1.49175 -0.708834,3.46067 0.003,1.92826 0.110542,2.46808 0.754022,3.78554 2.126119,4.35303 7.02659,6.89924 10.770845,5.59636 z m 180.28001,-0.62376 c 4.09828,-2.01758 6.63877,-6.70975 5.71584,-10.55692 -0.31466,-1.31168 -1.66865,-3.49288 -2.1682,-3.49288 -0.14166,0 -2.06612,1.63898 -4.27659,3.64219 -2.21047,2.0032 -4.912,4.40687 -6.00341,5.34149 -1.09141,0.93462 -2.14438,1.84114 -2.33994,2.0145 -0.29346,0.26013 -0.22953,0.50564 0.36606,1.40563 0.73453,1.10996 1.93137,2.00905 3.23437,2.42973 1.32076,0.42642 3.70833,0.0845 5.47187,-0.78374 z M 7.982401,242.32634 c 0.8422469,-0.26071 2.99781,-2.34452 2.99781,-2.89802 0,-0.31006 -11.75579274,-12.47738 -12.216302,-12.64394 -0.470658,-0.17024 -2.0511888,1.61362 -2.530946,2.85654 -0.3031104,0.78528 -0.4617158,1.90249 -0.4532126,3.19242 0.011081,1.68094 0.1447612,2.25772 0.8742478,3.77206 1.8687332,3.87929 5.9561608,6.52638 9.4314209,6.10796 0.5820833,-0.0701 1.4357252,-0.24425 1.8969819,-0.38702 z m 212.679319,-0.25502 c 1.89866,-0.71038 4.28557,-2.90523 5.35857,-4.92739 1.98488,-3.74071 1.58473,-7.60839 -1.04048,-10.05681 l -0.62922,-0.58685 -6.29732,6.47475 -6.29732,6.47474 0.84427,1.06598 c 0.46435,0.58629 1.2777,1.29499 1.80744,1.57488 1.36241,0.71986 4.30274,0.71078 6.25406,-0.0193 z M -8.5410263,225.67794 c 1.0932243,-0.30362 2.3007032,-1.22312 3.123403,-2.3785 l 0.5418308,-0.76093 -4.0191033,-4.84061 c -2.2105072,-2.66233 -4.6836032,-5.69913 -5.4957682,-6.74844 -1.469299,-1.89831 -1.479984,-1.90573 -2.141958,-1.48634 -1.646543,1.04316 -2.42442,1.7793 -3.106788,2.94012 -0.654852,1.114 -0.733504,1.50314 -0.733504,3.62905 0,2.0187 0.105143,2.60281 0.690582,3.83646 2.130923,4.49033 6.912693,6.98359 11.1413057,5.80919 z M 237.5158,224.95498 c 5.19523,-2.55761 7.49866,-8.78323 4.79338,-12.95539 -0.63197,-0.97464 -2.81879,-2.71417 -3.41208,-2.71417 -0.15142,0 -1.25322,1.24661 -2.44844,2.77024 -1.19522,1.52363 -3.59895,4.45256 -5.34162,6.50873 -1.74268,2.05616 -3.1685,3.84531 -3.1685,3.97587 0,0.50064 2.03283,2.46099 3.04271,2.93422 1.669,0.78209 4.31851,0.57145 6.53455,-0.5195 z m -260.187714,-17.3717 c 1.298703,-0.45821 3.806695,-2.28049 3.657732,-2.65767 -0.05873,-0.14872 -1.162384,-1.8188 -2.452553,-3.71128 -1.290169,-1.89249 -3.417324,-5.07356 -4.727012,-7.06905 -1.309687,-1.99549 -2.559844,-3.62838 -2.778125,-3.62865 -0.218281,-2.7e-4 -1.048958,0.44237 -1.845948,0.98363 -1.106724,0.75161 -1.638049,1.35494 -2.248958,2.55372 -0.710137,1.39349 -0.798611,1.82394 -0.788529,3.83645 0.01273,2.54021 0.475116,3.88255 2.099782,6.09579 1.630823,2.22163 4.684155,3.90446 7.182159,3.95842 0.454647,0.01 1.3103,-0.15279 1.901452,-0.36136 z m 273.208054,-0.37653 c 5.02289,-2.22187 7.67666,-8.22067 5.64618,-12.76311 -0.78243,-1.75042 -1.6292,-2.59775 -3.44676,-3.44904 -0.98929,-0.46336 -1.36648,-0.53935 -1.44896,-0.29191 -0.0613,0.18398 -2.18457,3.44911 -4.71833,7.25583 -2.53375,3.80672 -4.60681,6.9914 -4.60681,7.07707 0,0.34149 2.87833,2.37685 3.72604,2.6348 1.24888,0.38003 3.40815,0.17355 4.84864,-0.46364 z M -33.038667,187.20473 c 0.854289,-0.57548 1.579061,-1.05769 1.610603,-1.07159 0.03154,-0.0139 -1.286392,-2.69821 -2.928744,-5.96514 -1.642351,-3.26693 -3.326033,-6.77331 -3.741514,-7.79196 -1.048925,-2.57168 -1.054114,-2.57549 -2.725571,-2.00589 -3.797646,1.29419 -6.094184,5.41995 -5.338035,9.58986 0.616553,3.40009 2.7277,6.25517 5.680681,7.68247 1.418938,0.68583 1.815886,0.75888 3.738413,0.68793 2.006474,-0.074 2.255218,-0.14963 3.704167,-1.12568 z m 295.772377,0.62579 c 0.96784,-0.36212 1.9589,-1.02381 2.87303,-1.91823 2.97561,-2.91142 4.09805,-7.1719 2.79768,-10.61915 -0.81726,-2.16654 -2.75433,-4.19674 -4.57533,-4.7953 -0.74934,-0.24631 -1.49143,-0.49515 -1.64911,-0.55299 -0.15768,-0.0578 -0.92522,1.35849 -1.70565,3.14739 -0.78044,1.7889 -2.51515,5.41741 -3.85493,8.06334 -2.74262,5.41644 -2.72046,4.85444 -0.2525,6.4054 1.13001,0.71014 1.55287,0.82235 3.09893,0.82235 1.16805,0 2.30392,-0.19215 3.26788,-0.55281 z M -43.467604,166.39594 c 0.769372,-0.30588 1.663008,-0.6587 1.985859,-0.78404 0.571116,-0.22173 0.57613,-0.25859 0.185266,-1.36209 -0.804746,-2.27197 -2.516232,-8.20787 -3.393895,-11.77094 l -0.899259,-3.65075 -1.292464,0.0322 c -2.509997,0.0626 -5.086438,2.16791 -6.158034,5.03201 -0.658828,1.76088 -0.720598,4.94044 -0.134332,6.91461 0.736121,2.47879 2.965373,4.77834 5.471403,5.64393 1.820413,0.62878 2.539109,0.61946 4.235456,-0.055 z m 314.767934,-0.36155 c 1.67123,-0.85617 3.29744,-2.60779 4.18363,-4.50627 0.63917,-1.36928 0.74104,-1.91482 0.74104,-3.96875 0,-2.04144 -0.10323,-2.60158 -0.72337,-3.92533 -1.45908,-3.11447 -3.10097,-4.45649 -5.89468,-4.81808 l -1.32639,-0.17167 -1.16013,4.58983 c -0.63808,2.52441 -1.68101,6.2441 -2.31762,8.26597 -0.63662,2.02188 -1.08633,3.74729 -0.99937,3.83426 0.087,0.087 0.95286,0.48631 1.92422,0.88742 2.08701,0.86183 3.62563,0.81009 5.57267,-0.18738 z m -318.957211,-21.85704 1.026448,-0.28781 -0.1586,-1.23487 c -0.08723,-0.67919 -0.341445,-2.54457 -0.564922,-4.1453 -0.223477,-1.60073 -0.48409,-4.67629 -0.579138,-6.83458 l -0.172816,-3.92417 -0.950169,0.16796 c -0.522593,0.0924 -1.159389,0.22945 -1.415104,0.30459 -0.632463,0.18585 -2.048606,-1.26111 -2.048606,-2.09318 0,-1.29101 1.537412,-2.60224 3.477952,-2.96629 l 0.946124,-0.17749 0.169212,-2.00178 c 0.09307,-1.10097 0.169212,-2.43978 0.169212,-2.97513 v -0.97335 l -2.056566,-0.44193 c -2.636165,-0.56649 -3.297129,-0.55603 -4.527463,0.0716 -2.198904,1.1218 -3.424162,3.44188 -3.072331,5.81761 0.154016,1.03999 0.416716,1.43849 1.875027,2.8443 0.932754,0.89918 1.695916,1.81468 1.695916,2.03443 0,0.21976 -0.457939,0.92867 -1.017643,1.57536 -1.507302,1.74155 -2.097343,2.81273 -2.573811,4.67257 -1.140754,4.45279 1.229669,9.27611 5.311246,10.80727 0.861662,0.32325 2.835916,0.21722 4.466032,-0.23985 z m 323.168431,-0.25981 c 1.69693,-0.84796 2.72653,-1.92756 3.76992,-3.95296 0.46892,-0.91026 0.63888,-1.75135 0.72177,-3.57187 0.13018,-2.85951 -0.35043,-4.39799 -2.19006,-7.01049 -0.65522,-0.93049 -1.19131,-1.92813 -1.19131,-2.21696 0,-0.28884 0.51845,-1.00973 1.15211,-1.60198 1.48688,-1.38972 2.02428,-2.46615 2.01708,-4.04025 -0.0115,-2.50467 -1.85196,-4.83527 -4.16046,-5.26835 -0.87722,-0.16457 -4.66566,0.54527 -5.17766,0.97014 -0.11869,0.0985 -0.11869,1.45388 0,3.01199 l 0.21581,2.83291 1.38968,0.46948 c 1.91641,0.64743 2.44677,1.1869 2.44677,2.48878 0,1.43122 -0.58205,2.03035 -1.97246,2.03035 -0.60319,0 -1.22825,-0.13154 -1.38903,-0.29232 -0.21338,-0.21338 -0.3362,0.26893 -0.45478,1.78593 -0.51103,6.53753 -0.74628,8.96998 -1.10577,11.43377 -0.21996,1.50751 -0.35568,2.78517 -0.3016,2.83925 0.1749,0.17491 3.21823,0.85736 3.92461,0.88008 0.37694,0.0121 1.41436,-0.34225 2.30538,-0.7875 z M -46.851187,111.8526 c 0.06734,-0.32742 0.378193,-2.02406 0.690789,-3.77031 0.623355,-3.48224 2.297833,-10.215877 3.152008,-12.675275 0.298523,-0.859527 0.542769,-1.651119 0.542769,-1.759095 0,-0.107976 -0.888085,-0.520222 -1.973522,-0.916103 -1.499679,-0.546963 -2.214351,-0.676099 -2.976562,-0.537842 -3.756323,0.681356 -6.808487,3.810879 -7.909992,8.110475 -0.80129,3.12774 0.01818,6.77268 2.038739,9.06816 1.447918,1.64492 2.452231,2.31535 4.04913,2.70301 1.961101,0.47607 2.248388,0.44922 2.386641,-0.22302 z m 319.958397,-0.23582 c 2.54008,-1.20757 4.66731,-4.55077 5.00299,-7.86279 0.52825,-5.212063 -3.47496,-10.795041 -8.29288,-11.565458 -1.45576,-0.232786 -4.92913,1.0159 -4.72627,1.699109 0.0713,0.239973 0.55996,1.865065 1.08602,3.611315 1.14169,3.789854 1.97711,7.307414 2.78628,11.731674 l 0.59714,3.26502 1.21559,-0.17427 c 0.66857,-0.0958 1.71758,-0.41291 2.33113,-0.7046 z M -39.820306,86.717185 c 1.411154,-3.462378 3.998854,-8.812002 5.778702,-11.946471 0.900847,-1.58647 1.606393,-2.910428 1.56788,-2.94213 -1.206764,-0.993357 -3.851463,-2.496647 -4.621018,-2.626663 -4.362555,-0.737048 -9.392664,3.774339 -10.389394,9.318005 -0.519838,2.891259 0.506396,6.326307 2.453948,8.213949 0.719448,0.697317 3.488111,2.131338 4.170006,2.159843 0.08263,0.0035 0.550571,-0.975986 1.039876,-2.176533 z m 305.393616,1.327143 c 3.15122,-1.332541 5.15774,-5.589757 4.4713,-9.486734 -0.80708,-4.581903 -4.08528,-8.335453 -8.05726,-9.225591 -2.17267,-0.486905 -3.57233,0.01294 -6.9948,2.49797 -0.0362,0.02627 0.72906,1.466755 1.70053,3.20108 1.63098,2.911728 4.86993,9.64777 6.06258,12.60837 0.55912,1.387928 0.50975,1.380833 2.81765,0.404905 z m -152.1263,-22.49381 c 1.07173,-1.346068 2.6443,-3.198724 3.4946,-4.117012 l 1.546,-1.669616 -0.44293,-1.405135 c -0.9262,-2.938241 -3.86399,-5.175594 -6.78739,-5.169113 -1.78352,0.004 -3.22449,0.632868 -4.59903,2.007265 -1.60791,1.607737 -2.78788,4.518473 -2.02328,4.991019 0.14126,0.08731 1.69663,1.880272 3.45637,3.984365 1.75974,2.104092 3.24623,3.825623 3.3033,3.825623 0.0571,0 0.98063,-1.101329 2.05236,-2.447396 z m -141.525674,0.06671 c 2.081252,-2.906952 5.753071,-7.369012 8.221838,-9.991325 l 2.05758,-2.185551 -1.148218,-1.488304 c -1.930662,-2.502496 -3.940423,-3.454082 -6.690488,-3.167824 -2.112973,0.219941 -4.024808,1.181178 -5.762743,2.897404 -2.219872,2.192144 -3.64575,5.323957 -3.653453,8.024483 -0.0043,1.5077 0.855027,4.142964 1.721339,5.278757 0.604927,0.793101 3.094939,2.691717 3.587002,2.735063 0.08366,0.0074 0.833872,-0.938847 1.667143,-2.102703 z m 281.819254,1.198163 c 2.6896,-1.720513 4.00921,-4.468192 3.76761,-7.844867 -0.26582,-3.715154 -2.99092,-7.696096 -6.41862,-9.376598 -2.12238,-1.040543 -4.89673,-1.103045 -6.82467,-0.153751 -1.13539,0.559053 -3.89095,3.442033 -3.89095,4.070871 0,0.112842 0.86689,1.126596 1.92644,2.252788 2.40602,2.557375 5.05606,5.745035 7.69615,9.257517 1.12112,1.491589 2.09931,2.711979 2.17374,2.711979 0.0744,0 0.78107,-0.413072 1.5703,-0.917939 z M 101.23007,54.834892 c 0.3296,-0.545703 0.95029,-1.401122 1.3793,-1.900932 2.66364,-3.103159 2.34683,-7.48004 -0.78638,-10.864279 -3.179287,-3.434007 -7.652609,-4.14412 -10.831527,-1.71944 -0.756129,0.576727 -3.523425,5.057867 -3.245366,5.255288 0.05256,0.03732 0.750414,0.531738 1.550779,1.098705 2.187718,1.549752 7.314881,5.705693 9.260416,7.506247 0.945885,0.875398 1.799378,1.59725 1.896648,1.604116 0.0973,0.0069 0.44653,-0.434002 0.77613,-0.979705 z m 22.55101,-0.303436 c 2.14917,-2.037199 5.36624,-4.710375 8.246,-6.851886 1.45521,-1.082153 2.684,-2.06835 2.73065,-2.191549 0.0466,-0.123198 -0.4205,-1.195285 -1.03812,-2.382415 -1.67255,-3.214863 -3.52435,-4.367456 -6.69278,-4.165706 -3.23975,0.206291 -6.38255,2.4619 -7.87552,5.652312 -1.3535,2.892365 -1.03898,5.889195 0.85915,8.186197 0.55356,0.669882 1.26104,1.629876 1.57219,2.133319 0.31114,0.503444 0.62554,0.915352 0.69866,0.915352 0.0731,0 0.74802,-0.583031 1.49977,-1.295624 z m 114.34323,-5.781981 c 0.65873,-0.836744 1.44612,-2.176198 1.74976,-2.976562 1.6034,-4.226399 -0.95891,-9.847161 -5.50595,-12.07801 -2.22671,-1.092455 -5.03209,-1.201768 -7.05651,-0.274959 -1.91996,0.878987 -3.21667,2.287812 -4.16874,4.529186 -0.62978,1.482617 -0.71379,1.894383 -0.43898,2.151589 0.18692,0.174944 1.53048,1.060421 2.98569,1.967727 2.78515,1.736508 7.64692,5.318729 9.65729,7.115626 0.65485,0.585307 1.27818,1.069272 1.3852,1.075476 0.10701,0.0062 0.73352,-0.673328 1.39224,-1.510073 z M -12.119756,48.471521 c 2.4330591,-2.073326 5.9712107,-4.622072 9.4170051,-6.783642 3.19939701,-2.007003 3.06027564,-1.653103 1.77551317,-4.516596 -1.36212947,-3.03593 -3.97536677,-4.534856 -7.50742157,-4.306179 -2.4492547,0.158573 -4.0323037,0.880209 -5.9559007,2.71501 -1.756017,1.674957 -3.124313,4.28044 -3.379513,6.435206 -0.164168,1.386144 0.244083,3.627667 0.894688,4.91233 0.434408,0.857765 2.41012,3.078596 2.738805,3.078596 0.118698,0 1.026268,-0.690626 2.016824,-1.534725 z m 97.088142,-7.394963 c 0.588154,-0.982265 1.221972,-2.248718 1.408484,-2.814338 0.519895,-1.576643 0.235615,-4.492342 -0.612028,-6.277218 -1.294181,-2.72515 -4.538652,-5.162032 -7.479196,-5.617532 -1.464124,-0.226798 -3.959595,0.255554 -5.278808,1.020345 -2.205754,1.278748 -3.379841,2.906285 -4.196603,5.817389 -0.24497,0.873125 -0.502702,1.784793 -0.572737,2.025928 -0.09721,0.334694 0.203692,0.547691 1.27175,0.900229 2.258633,0.745514 8.13541,3.469048 11.09473,5.141743 1.506875,0.85173 2.864707,1.557778 3.017405,1.568996 0.152698,0.01122 0.758849,-0.783276 1.347003,-1.765542 z m 55.887624,0.888326 c 2.28211,-1.374966 7.51897,-3.925615 10.68409,-5.203766 1.56435,-0.631721 2.84427,-1.245255 2.84427,-1.36341 0,-0.71926 -1.1457,-4.147187 -1.70517,-5.101853 -1.66394,-2.8393 -5.14369,-4.418759 -8.42442,-3.823848 -4.53599,0.822532 -7.8191,4.390843 -8.08012,8.782032 -0.0583,0.981338 -0.0327,2.175151 0.0569,2.652918 0.19726,1.051456 2.43859,4.955539 2.84498,4.955539 0.15931,0 0.96007,-0.403926 1.77947,-0.897612 z M 5.7279483,37.286143 c 2.7873006,-1.421974 13.1419287,-5.006981 14.4617387,-5.006981 0.321288,0 0.357162,-0.309351 0.207107,-1.785937 -0.34178,-3.363235 -2.025755,-5.832277 -4.895785,-7.178195 -1.214884,-0.569728 -1.855008,-0.692011 -3.594757,-0.686709 -1.808951,0.0055 -2.3666849,0.125124 -3.836458,0.822764 -2.8639414,1.359393 -4.7025819,3.549936 -5.4594755,6.50438 -0.2301741,0.898458 -0.3611735,2.142145 -0.2911097,2.763749 0.120437,1.068514 1.8421468,5.116199 2.1762094,5.116199 0.085731,0 0.640369,-0.247172 1.2325301,-0.54927 z M 219.15418,35.784892 c 0.88005,-1.842975 0.97847,-2.264762 0.97246,-4.167188 -0.006,-1.799995 -0.1215,-2.345366 -0.77411,-3.645312 -0.948,-1.88837 -2.85421,-3.708939 -4.85004,-4.632147 -2.23171,-1.032315 -5.10652,-1.011718 -7.41529,0.05313 -1.75435,0.809135 -3.35646,2.35235 -4.12624,3.974538 -0.62669,1.320644 -1.21793,4.663744 -0.84885,4.79974 0.16177,0.05961 1.84195,0.530179 3.73372,1.045704 3.06865,0.836236 9.75308,3.301946 11.50938,4.245505 0.3638,0.195451 0.69709,0.360132 0.74064,0.365958 0.0435,0.0058 0.5198,-0.912141 1.05833,-2.039927 z M 64.606846,32.014579 c 1.616002,-4.640376 -0.249941,-9.324472 -4.589608,-11.521343 -1.406217,-0.71187 -1.780927,-0.781509 -4.190153,-0.778731 -3.110249,0.0036 -4.527449,0.543456 -6.437302,2.452225 -1.62202,1.6211 -2.234205,3.149716 -2.373803,5.927345 l -0.115453,2.297204 0.891404,0.145168 c 0.490272,0.07984 2.320154,0.379034 4.066404,0.664871 1.74625,0.285837 4.960937,0.990088 7.14375,1.565004 2.182812,0.574916 4.202096,1.027919 4.487298,1.006675 0.388582,-0.02894 0.66866,-0.46967 1.117463,-1.758418 z m 98.865534,0.803836 c 2.29312,-0.576536 5.74056,-1.298165 7.66097,-1.603621 1.92041,-0.305456 3.77676,-0.614241 4.12523,-0.686189 0.62415,-0.128869 0.63121,-0.164314 0.47471,-2.381957 -0.26709,-3.784703 -1.87591,-6.313432 -4.92713,-7.744446 -1.26394,-0.592779 -1.82932,-0.690748 -3.98637,-0.690748 -2.17366,0 -2.7182,0.09592 -4.02705,0.709373 -2.83474,1.32863 -5.10994,4.471186 -5.42131,7.488016 -0.10626,1.029571 0.0114,1.860419 0.45465,3.210416 0.68613,2.089779 0.99153,2.747403 1.27591,2.747403 0.11059,0 2.07727,-0.471711 4.37039,-1.048247 z M 27.981431,30.795927 c 1.490631,-0.233696 5.328676,-0.501587 8.528991,-0.595313 l 5.818753,-0.17041 0.169213,-0.79375 c 0.356542,-1.672474 0.23301,-4.09224 -0.277505,-5.435804 -0.811533,-2.135783 -2.141974,-3.535353 -4.440711,-4.671451 -1.819685,-0.899337 -2.218629,-0.996355 -4.025029,-0.97883 -1.383116,0.01342 -2.456569,0.195448 -3.460349,0.586785 -3.186963,1.242478 -5.919044,4.792721 -5.941811,7.721175 -0.01026,1.319599 0.582773,4.7625 0.820331,4.7625 0.05383,0 1.317486,-0.191206 2.808117,-0.424902 z M 197.85042,29.082575 c 0.56324,-2.332208 0.44229,-3.81618 -0.46201,-5.668734 -1.29224,-2.647262 -3.89489,-4.553054 -7.09018,-5.191788 -3.19796,-0.639266 -7.23509,1.157174 -9.07377,4.03764 -1.30646,2.046678 -1.58891,4.037402 -1.013,7.139533 l 0.12846,0.691939 6.00608,0.165639 c 3.30334,0.0911 7.01811,0.328813 8.25504,0.528249 1.23693,0.199435 2.3674,0.339592 2.51216,0.31146 0.14476,-0.02813 0.47651,-0.934405 0.73722,-2.013938 z"
       id="path9" /><path
       style="fill:#000000"
       d="m 105.7724,288.39515 c -4.78079,-1.00174 -6.689126,-3.89922 -7.509506,-11.40187 -0.372507,-3.4067 -0.171346,-9.19663 0.417373,-12.01307 1.051817,-5.03191 2.894803,-7.19983 6.888483,-8.10296 2.01276,-0.45516 9.20333,-0.44583 11.37708,0.0148 4.56631,0.96756 6.43141,3.65155 7.29277,10.49474 0.40018,3.1793 0.17578,10.32107 -0.41072,13.07159 -0.8761,4.10864 -2.76386,6.68964 -5.54757,7.5848 -1.54202,0.49586 -10.60422,0.75091 -12.50791,0.35201 z"
       id="path8" /><path
       style="fill:#000000"
       d="m 177.12801,289.30219 c -0.63197,-1.18084 -3.76013,-3.87833 -5.94325,-5.125 -2.45675,-1.40294 -6.93302,-2.96487 -10.58268,-3.69268 -5.88954,-1.17449 -9.55917,-1.26183 -27.3597,-0.65112 l -5.1347,0.17616 0.17867,-1.29696 c 0.0983,-0.71333 0.2546,-2.70172 0.3474,-4.41864 0.13343,-2.46841 0.25698,-3.16811 0.59041,-3.3436 1.77001,-0.93156 12.16435,-4.00041 18.33987,-5.41471 0.90423,-0.20709 1.79326,-1.14017 1.79326,-1.88211 0,-0.72872 -1.05149,-1.71603 -1.82757,-1.71603 -2.40195,0 -10.72285,2.34929 -15.54706,4.38949 -1.5763,0.66663 -3.00144,1.269 -3.167,1.3386 -0.1989,0.0836 -0.41235,-0.66447 -0.62927,-2.20546 -0.18055,-1.2826 -0.60982,-3.16544 -0.95393,-4.18409 -0.3441,-1.01864 -0.62648,-1.87211 -0.62749,-1.8966 -0.004,-0.0985 6.87824,-5.10456 8.76015,-6.37194 14.66356,-9.87526 29.8124,-14.29439 38.21908,-11.14905 1.92805,0.72138 3.5801,2.23304 4.38427,4.01169 0.56008,1.23877 0.62436,1.75545 0.61645,4.95486 -0.008,3.21721 -0.10826,3.97909 -1.01011,7.67292 -1.37051,5.61337 -1.46463,7.49563 -0.57551,11.50938 1.99372,9.00025 2.38548,12.98501 1.63309,16.61079 -0.23496,1.13229 -0.58435,2.35865 -0.77643,2.72524 l -0.34923,0.66652 z"
       id="path7" /><path
       style="fill:#000000"
       d="m 44.27736,288.12496 c -0.840095,-2.6755 -0.842142,-8.0787 -0.0046,-12.03225 2.256143,-10.6494 2.165442,-10.00388 1.758607,-12.51593 -0.204937,-1.2654 -0.740051,-3.90808 -1.189143,-5.87261 -1.45961,-6.385 -1.335249,-10.21342 0.422204,-12.9974 2.195975,-3.47865 8.103905,-4.69724 15.758602,-3.25041 8.881294,1.67867 18.128533,5.89919 28.063065,12.80823 4.987224,3.46839 6.88935,5.02599 6.744279,5.52269 -0.871312,2.98324 -1.50352,5.4436 -1.683086,6.55006 l -0.220246,1.35713 -3.440675,-1.40266 c -4.11579,-1.67787 -8.627347,-3.07577 -12.308068,-3.81365 -3.290592,-0.65966 -3.488979,-0.66255 -4.23106,-0.0616 -0.730188,0.59127 -0.776396,1.77245 -0.09546,2.44012 0.311098,0.30503 2.169515,0.89473 4.983632,1.58137 2.468146,0.60222 6.825735,1.86825 9.683531,2.81339 l 5.195993,1.71845 0.165749,3.22289 c 0.09116,1.7726 0.246837,3.80647 0.345944,4.51973 l 0.180194,1.29683 -4.605516,-0.1718 c -16.932622,-0.63166 -22.104354,-0.51199 -27.88885,0.6453 -3.632283,0.72671 -8.111105,2.28615 -10.610568,3.6944 -2.015065,1.13533 -4.719851,3.50912 -5.854884,5.1384 l -0.548581,0.78745 z"
       id="path6" /><path
       style="fill:#000000"
       d="m 160.86667,295.88851 c -4.92571,-0.62654 -10.3185,-2.33219 -15.61042,-4.93731 -3.59839,-1.77143 -8.65456,-4.85316 -10.51516,-6.40899 l -0.72558,-0.60672 1.43211,-0.17893 c 0.78766,-0.0984 4.9837,-0.19503 9.32454,-0.2147 8.18201,-0.0371 10.88135,0.16686 15.61201,1.1796 9.60951,2.05719 16.16817,6.98888 12.53766,9.42752 -2.19923,1.47725 -7.78286,2.28295 -12.05516,1.73953 z"
       id="path5" /><path
       style="fill:#000000"
       d="m 54.137185,295.67949 c -4.003368,-0.91453 -5.586142,-1.76684 -5.586142,-3.0081 0,-2.55521 5.292316,-5.87235 12.152064,-7.61673 5.313594,-1.3512 12.234813,-1.76549 24.21168,-1.44926 l 3.952287,0.10435 -0.777287,0.63978 c -1.871622,1.54052 -7.079974,4.79456 -10.271953,6.41764 -6.504388,3.3074 -12.358861,4.95048 -18.418874,5.16935 -2.5851,0.0934 -4.038731,0.0224 -5.261775,-0.25703 z"
       id="path4" /><path
       style="fill:#000000"
       d="m 201.74479,320.50371 c -8.57676,-2.81266 -15.94895,-4.08574 -26.59062,-4.59185 -11.65042,-0.55408 -17.69873,-1.60834 -25.23896,-4.39931 -9.86798,-3.65258 -18.86221,-11.08658 -24.52411,-20.26992 l -1.1507,-1.86638 0.66685,-0.79251 c 0.73803,-0.87709 1.94022,-3.12971 2.21836,-4.15665 0.29199,-1.07807 1.39802,-0.71891 3.55104,1.15313 7.36146,6.40078 14.93649,10.72196 22.77812,12.9938 12.10432,3.50681 22.76831,1.35625 27.16157,-5.47754 1.95892,-3.04713 2.83404,-7.87831 2.35653,-13.00952 -0.15427,-1.65777 -0.35716,-3.39744 -0.45085,-3.86593 l -0.17037,-0.85181 2.22209,0.17968 c 4.78,0.3865 11.0461,1.69898 15.94116,3.33897 3.50049,1.17278 8.82856,3.41117 9.20805,3.86842 0.27921,0.33642 0.0433,0.6479 -1.50849,1.99183 -3.14945,2.72754 -12.55509,12.43971 -12.55509,12.96425 0,0.27034 1.06804,2.48167 2.37343,4.91406 2.60445,4.85302 5.07415,10.13135 6.99852,14.95748 1.73358,4.34763 1.55397,4.5072 -3.28653,2.9198 z"
       id="path3" /><path
       style="fill:#000000"
       d="m 109.11649,320.86192 c -0.81363,-0.34257 -2.02324,-1.01346 -2.68802,-1.49087 -1.2879,-0.9249 -3.20268,-3.29617 -3.80759,-4.71532 -0.20159,-0.47294 -0.45422,-0.85836 -0.56141,-0.85648 -0.10719,0.002 -0.94963,0.24 -1.87211,0.52917 -4.350884,1.36386 -9.641647,0.0363 -13.50974,-3.38998 l -1.42863,-1.26544 1.758473,-1.38193 1.758473,-1.38193 1.431969,1.16635 c 1.848575,1.50569 3.917165,2.28076 6.087089,2.28076 3.359719,0 5.304216,-1.20331 6.702516,-4.14773 0.51132,-1.0767 0.88456,-2.00069 0.82942,-2.05329 -0.0551,-0.0526 -1.40995,-0.86264 -3.01068,-1.80008 -1.600729,-0.93743 -3.286602,-1.93576 -3.746385,-2.2185 l -0.835968,-0.51407 1.293075,-1.71077 c 0.711192,-0.94092 1.418497,-1.67977 1.571791,-1.64188 0.153293,0.0379 2.842147,1.56247 5.975227,3.38796 3.13309,1.82548 5.84968,3.37784 6.03689,3.44968 0.1872,0.0718 3.12671,-1.47702 6.53224,-3.4419 l 6.19188,-3.57252 0.46714,0.58312 c 0.25692,0.32071 0.86933,1.13129 1.3609,1.8013 l 0.89377,1.21818 -3.8083,2.17377 c -2.09457,1.19557 -3.8083,2.28003 -3.8083,2.40991 0,0.12988 0.24252,0.88434 0.53894,1.67659 0.64438,1.72227 2.24796,3.31346 4.02208,3.991 2.75375,1.05167 6.94946,0.13405 9.36486,-2.04812 l 1.03009,-0.93062 1.83539,1.34055 1.8354,1.34054 -1.44203,1.27725 c -3.86141,3.42018 -9.02715,4.70978 -13.61286,3.39838 -1.01772,-0.29104 -1.86918,-0.52916 -1.89213,-0.52916 -0.0229,0 -0.42278,0.67518 -0.88851,1.50041 -1.22997,2.1794 -3.25482,4.19825 -5.13319,5.118 -2.26678,1.10993 -3.63328,1.22173 -5.47176,0.44767 z m 3.31071,-4.26225 c 1.20819,-0.50481 2.99971,-2.16668 3.57356,-3.31495 0.87989,-1.76065 0.87865,-2.54246 -0.007,-4.67094 -0.44894,-1.0784 -0.9056,-2.01595 -1.01479,-2.08343 -0.10919,-0.0675 -0.94571,0.24182 -1.85893,0.68735 l -1.66039,0.81006 -1.74022,-0.75398 c -0.95712,-0.41469 -1.81817,-0.78773 -1.91345,-0.82898 -0.0953,-0.0412 -0.55685,0.80482 -1.02571,1.88016 -0.69229,1.58779 -0.81802,2.14875 -0.66912,2.98542 0.40931,2.29998 2.0153,4.33636 4.15237,5.26515 1.08374,0.471 1.09435,0.47112 2.16412,0.0241 z"
       id="path2" /><path
       style="fill:#000000"
       d="m 17.093753,321.10577 c -0.231566,-0.27902 -0.09355,-0.90636 0.596646,-2.71198 1.97612,-5.16974 5.69112,-13.01788 8.775112,-18.53791 l 1.210124,-2.166 -1.8362,-2.06733 c -2.062458,-2.32208 -7.895316,-8.0742 -10.861324,-10.71099 -1.30224,-1.1577 -1.886415,-1.84954 -1.749189,-2.07157 0.440747,-0.71315 7.546106,-3.57192 12.17108,-4.89693 4.55458,-1.30484 14.128363,-2.89143 14.600209,-2.41958 0.07865,0.0786 -0.01233,1.19139 -0.202176,2.47278 -0.78638,5.30786 -0.231625,10.39347 1.529369,14.02021 1.664168,3.42733 5.764882,6.35214 10.567254,7.53702 3.339579,0.82397 9.117732,0.82977 13.207891,0.0133 8.98655,-1.79397 18.150171,-6.52144 26.163356,-13.49756 1.579277,-1.37489 2.723115,-2.16939 3.198792,-2.22187 0.679878,-0.075 0.793135,0.0482 1.384506,1.50581 0.354231,0.87312 1.059725,2.15393 1.567765,2.84624 l 0.923708,1.25875 -0.66521,1.1225 c -6.092541,10.28082 -15.743862,18.00463 -27.296298,21.84481 -5.449129,1.81137 -11.118273,2.79345 -18.653125,3.23134 -15.090774,0.87701 -20.831966,1.77491 -30.287515,4.73683 -3.846056,1.20476 -3.925195,1.21773 -4.344775,0.71217 z"
       id="path1" /></g></svg>
