<?xml version="1.0" encoding="UTF-8" standalone="no"?>
<!-- Created with Inkscape (http://www.inkscape.org/) -->

<svg
   width="319.46271mm"
   height="326.87048mm"
   viewBox="0 0 319.46271 326.87048"
   version="1.1"
   id="svg1"
   xml:space="preserve"
   sodipodi:docname="stamp_goal_bear_3.svg"
   inkscape:version="1.4.4 (dcaf3e7, 2026-05-05)"
   xmlns:inkscape="http://www.inkscape.org/namespaces/inkscape"
   xmlns:sodipodi="http://sodipodi.sourceforge.net/DTD/sodipodi-0.dtd"
   xmlns="http://www.w3.org/2000/svg"
   xmlns:svg="http://www.w3.org/2000/svg"><sodipodi:namedview
     id="namedview1"
     pagecolor="#ffffff"
     bordercolor="#000000"
     borderopacity="0.25"
     inkscape:showpageshadow="2"
     inkscape:pageopacity="0.0"
     inkscape:pagecheckerboard="0"
     inkscape:deskcolor="#d1d1d1"
     inkscape:document-units="mm"
     inkscape:zoom="0.021045542"
     inkscape:cx="617.70801"
     inkscape:cy="593.95001"
     inkscape:window-width="944"
     inkscape:window-height="250"
     inkscape:window-x="0"
     inkscape:window-y="33"
     inkscape:window-maximized="0"
     inkscape:current-layer="layer1"><inkscape:page
       x="0"
       y="0"
       width="319.46271"
       height="326.87048"
       id="page2"
       margin="0"
       bleed="0" /></sodipodi:namedview><defs
     id="defs1" /><g
     inkscape:label="Layer 1"
     inkscape:groupmode="layer"
     id="layer1"
     transform="translate(33.063209,52.33592)"><path
       style="fill:#000000"
       d="m 123.56042,274.47657 c -9.44848,-0.82863 -18.84572,-4.95079 -25.841574,-11.33556 l -1.896778,-1.7311 -2.42536,0.79257 c -9.189533,3.003 -18.908322,2.99954 -27.383168,-0.01 C 55.309748,258.39197 45.529967,249.46379 40.49118,238.8928 l -0.832131,-1.74575 -3.359213,-0.16314 c -4.505652,-0.21882 -9.010093,-1.02603 -12.804043,-2.29452 -17.0022613,-5.68464 -27.6133656,-19.56265 -29.3402806,-38.37347 -0.1667452,-1.81631 -0.2445603,-4.34462 -0.1729225,-5.61847 l 0.1302505,-2.31609 -1.6204841,-0.96757 C -22.41771,178.51116 -30.926385,163.68793 -30.951088,146.57223 c -0.01201,-8.31985 1.659027,-15.17987 5.614106,-23.04732 l 2.079502,-4.13655 -1.480403,-2.21345 c -1.781217,-2.66322 -4.57682,-8.30302 -5.542249,-11.18084 -3.619065,-10.787957 -3.710658,-22.21319 -0.262181,-32.704488 1.201853,-3.656397 3.924315,-9.045454 6.140409,-12.15481 2.152965,-3.020782 6.876259,-7.985751 9.831718,-10.334774 2.102403,-1.671007 2.15939,-1.74606 2.008972,-2.645833 -1.574949,-9.421036 -1.166467,-16.239278 1.444126,-24.104897 C -8.790391,17.039019 -5.16563,11.38655 0.30642921,6.2353836 6.9060173,0.02280875 15.021902,-3.5836774 24.674377,-4.5930927 l 2.885006,-0.3017018 0.730353,-2.2489584 C 32.690395,-20.694598 43.106191,-31.252175 56.20197,-35.435934 c 4.552162,-1.454296 8.300192,-1.948552 13.648029,-1.799778 5.3182,0.14795 8.495985,0.688999 13.546441,2.306412 l 3.237666,1.036866 3.051176,-2.979565 c 1.678146,-1.638761 3.944144,-3.64765 5.03555,-4.464197 13.332168,-9.974602 29.592108,-13.357889 44.979238,-9.359052 9.2401,2.401334 17.99696,7.476168 24.80742,14.376548 l 2.4502,2.482551 3.06769,-1.077251 c 14.05581,-4.935856 28.26582,-2.783453 39.98692,6.056855 6.83942,5.158445 12.21309,12.77518 15.1568,21.4835283 l 0.86161,2.5488613 2.14454,0.1768769 c 5.51117,0.4545477 10.87684,1.9254949 15.50784,4.25132527 10.43938,5.24296923 18.02486,14.37857823 21.41548,25.79182423 1.18572,3.991282 1.61592,6.808646 1.7783,11.645794 0.13462,4.010391 -0.13455,7.614606 -0.84966,11.377083 -0.10768,0.566533 0.14674,0.870295 1.77285,2.116667 4.64415,3.559645 9.80264,9.492385 12.74537,14.658374 2.43931,4.282214 4.49093,10.246848 5.51488,16.033293 0.2299,1.299176 0.34688,4.177014 0.33879,8.334375 -0.0114,5.843934 -0.0685,6.614027 -0.71688,9.662944 -1.33851,6.294149 -3.90702,12.516309 -7.39211,17.907259 l -1.57401,2.43479 1.115,1.90914 c 3.15161,5.3963 5.28719,11.59807 6.19631,17.99425 0.51386,3.61529 0.51094,10.60538 -0.006,14.04631 -1.65016,10.98658 -6.97867,20.86287 -15.20486,28.18195 -2.18833,1.94702 -8.45572,6.42065 -8.99509,6.42065 -0.10513,0 -0.25689,2.23242 -0.33724,4.96094 -0.17109,5.80973 -0.78395,9.7437 -2.20069,14.12609 -4.06983,12.58925 -13.01696,22.11509 -25.17951,26.80818 -4.53151,1.74854 -11.33693,3.05271 -15.92971,3.05271 h -2.07973 l -1.51443,2.84427 c -8.74125,16.41698 -24.92591,25.91728 -41.61958,24.43045 -3.60649,-0.32121 -8.1356,-1.24553 -11.18485,-2.28265 l -1.92752,-0.65559 -0.84997,0.7302 c -0.46749,0.40161 -1.6636,1.42925 -2.65802,2.28364 -5.49094,4.71776 -13.19887,8.35074 -20.20757,9.52445 -2.54941,0.42694 -8.41863,0.72402 -10.57234,0.53513 z m 7.67985,-5.14245 c 8.37583,-1.03219 15.81049,-4.73452 22.49595,-11.20257 2.84068,-2.7483 2.60537,-2.71639 7.32909,-0.99373 4.89789,1.78618 7.63433,2.26102 13.03052,2.26111 5.12318,8e-5 7.39292,-0.35033 11.37709,-1.75642 10.13932,-3.57836 18.40814,-11.24207 23.62782,-21.89876 0.89096,-1.81901 1.72424,-3.38035 1.85173,-3.46965 0.1275,-0.0893 2.51324,-0.23108 5.30165,-0.31507 6.88953,-0.20752 11.11606,-1.16793 16.50764,-3.7511 10.98341,-5.26228 18.31146,-14.72018 21.01634,-27.1246 0.52983,-2.42974 0.60888,-3.55955 0.63037,-9.00948 0.0135,-3.42724 0.1068,-6.36439 0.20729,-6.52698 0.10048,-0.1626 0.98531,-0.7404 1.96629,-1.28402 11.95567,-6.62535 20.05862,-17.70538 22.32832,-30.53192 0.62922,-3.55581 0.74293,-9.41116 0.25362,-13.05994 -0.84723,-6.31781 -3.42332,-13.27616 -7.0989,-19.17508 -1.39051,-2.23161 -1.40732,-2.10795 0.67626,-4.97743 2.95164,-4.06497 6.20784,-10.97117 7.42468,-15.74728 1.11385,-4.371905 1.41947,-7.435662 1.275,-12.781377 -0.15119,-5.59402 -0.60547,-8.316746 -2.17244,-13.020485 -2.71327,-8.144668 -8.62064,-16.044205 -16.27275,-21.760495 -1.23693,-0.92401 -2.34509,-1.845643 -2.46259,-2.048074 -0.12006,-0.206866 0.0194,-1.496226 0.31844,-2.9441 2.95478,-14.3059 -0.8134,-27.720605 -10.46238,-37.246062 C 243.7931,4.4588407 234.53926,0.5340659 225.77296,0.53022786 223.27253,0.52913312 222.04297,0.2586746 221.87693,-0.32676111 219.18871,-9.8048436 216.06635,-15.455714 210.35282,-21.18318 c -7.27999,-7.29775 -15.85685,-10.945882 -25.67365,-10.920192 -5.54496,0.01451 -9.67089,0.854243 -15.97391,3.251091 -1.84235,0.700589 -2.96909,0.995615 -3.31423,0.867801 -0.28761,-0.106507 -1.42646,-1.20568 -2.53078,-2.442607 -7.08519,-7.935971 -16.47853,-13.370008 -26.99671,-15.617566 -3.80038,-0.812077 -11.63586,-1.019096 -15.51988,-0.410044 -11.64477,1.826012 -22.566311,7.819897 -29.832967,16.372719 -0.933128,1.098289 -1.941167,2.060845 -2.240086,2.139014 -0.302997,0.07924 -2.420653,-0.491681 -4.785695,-1.290214 -6.837143,-2.308496 -11.828659,-3.041063 -17.311716,-2.54071 -15.954389,1.455909 -28.861557,12.474188 -33.646655,28.7226638 -0.447924,1.5209865 -0.9977,2.83475669 -1.287584,3.07687007 C 30.857094,0.34457974 29.868493,0.48799033 27.206636,0.61059121 17.894738,1.0394823 9.9450682,4.6179862 3.0137114,11.500915 c -5.3338889,5.296622 -8.7587548,11.579016 -10.4618949,19.190749 -0.5436903,2.42988 -0.6207555,3.458034 -0.6147868,8.202084 0.00521,4.13814 0.1195469,5.988464 0.482322,7.805208 0.9340288,4.677532 0.9783901,4.358941 -0.7914662,5.684104 -7.2722835,5.445049 -11.7553605,10.616537 -15.1535165,17.480454 -2.888819,5.835109 -4.187998,11.063899 -4.434098,17.84586 -0.367825,10.136434 2.31096,19.093426 8.434859,28.203426 1.134302,1.6874 2.062367,3.2608 2.062367,3.49643 0,0.23563 -0.673498,1.53393 -1.496663,2.88511 -4.935476,8.10134 -7.228826,16.69049 -6.890317,25.80591 0.234074,6.30316 1.308376,10.69056 4.000613,16.33829 4.054155,8.50475 10.511698,15.23421 19.2882384,20.10044 l 1.8049961,1.0008 -0.17858907,4.13375 c -0.54487693,12.61214 3.25990477,23.03372 11.36776357,31.13717 4.476541,4.4741 8.798199,7.1612 14.66979,9.12129 4.25365,1.41998 7.042284,1.87345 12.732086,2.07043 l 4.894792,0.16946 0.880656,1.85208 c 2.61063,5.49034 5.583509,9.90625 9.1487,13.58944 11.16583,11.53541 26.114989,14.89942 40.863342,9.19549 1.360671,-0.52624 2.773875,-0.9568 3.140453,-0.9568 0.475092,0 1.350923,0.65131 3.049657,2.26787 9.193785,8.74909 20.036135,12.61795 31.427255,11.21416 z"
       id="path38" /><path
       style="fill:#000000"
       d="m 121.17856,264.33438 c -4.7375,-0.86762 -9.36176,-2.84261 -13.36085,-5.70633 -2.51865,-1.80358 -4.04695,-3.18982 -6.84978,-6.21308 -1.148001,-1.23828 -2.249731,-2.34686 -2.448288,-2.46351 -0.224489,-0.13188 -1.285727,0.20429 -2.806277,0.88896 -11.19188,5.03943 -20.901353,5.19913 -30.097496,0.49505 -8.234496,-4.21218 -14.230929,-11.16658 -18.504326,-21.46051 -0.464033,-1.11778 -0.99616,-2.15886 -1.182504,-2.31351 -0.210416,-0.17463 -2.735604,-0.31909 -6.663612,-0.38119 -6.655435,-0.10524 -8.605817,-0.37412 -12.807096,-1.76565 -9.743519,-3.22719 -17.6322985,-11.23588 -20.7167801,-21.03169 -1.8637297,-5.9189 -2.3483746,-12.98326 -1.3560445,-19.76621 0.2361153,-1.61394 0.064283,-1.80838 -2.9159276,-3.29965 -4.8507512,-2.42726 -9.5285462,-5.8912 -12.5213418,-9.27215 -9.60337,-10.84887 -12.479187,-24.67657 -7.965037,-38.29804 1.073671,-3.2398 3.038547,-7.28692 5.431402,-11.18724 l 1.996394,-3.25408 -2.667575,-3.9529 c -3.148855,-4.66606 -5.412142,-9.06943 -6.728745,-13.09119 -1.644324,-5.022839 -1.901137,-6.756278 -1.901137,-12.832294 0,-4.711948 0.08072,-5.784497 0.61494,-8.170467 2.317889,-10.352383 7.827859,-18.414922 17.7074558,-25.910674 1.8191905,-1.380238 3.2411459,-2.64874 3.2411459,-2.891369 0,-0.237754 -0.232276,-1.273311 -0.516169,-2.301239 -1.1222097,-4.063331 -1.4348359,-6.498742 -1.4286438,-11.129377 0.0066,-4.936405 0.3033716,-6.841017 1.7489544,-11.224426 C 0.19715104,22.59844 2.9626405,18.231755 7.0401499,14.287136 10.616811,10.827042 13.940924,8.8000834 18.724656,7.1622254 22.785077,5.7720153 24.762214,5.4711348 30.067497,5.4360733 c 3.384732,-0.022369 4.916137,-0.1282791 5.194428,-0.3592405 0.217051,-0.1801359 0.66098,-1.4854127 0.986509,-2.9006152 1.674505,-7.279719 5.221802,-13.9447036 10.007629,-18.8032486 6.677683,-6.779144 15.260896,-10.156215 24.765607,-9.744042 5.412155,0.234698 9.627819,1.233446 17.129098,4.058116 1.584347,0.596599 1.884026,0.433933 4.321106,-2.345506 7.195147,-8.205916 16.808416,-13.811494 27.222956,-15.87394 4.13032,-0.81795 10.17318,-0.81987 14.49658,-0.0046 7.84533,1.479395 14.97919,4.857888 21.18475,10.03279 1.12757,0.940293 3.54155,3.277079 5.3644,5.192858 l 3.31428,3.483234 2.04394,-0.759703 c 5.18831,-1.928429 8.87061,-3.09575 11.30435,-3.583577 11.39901,-2.284858 21.80857,0.928471 29.8484,9.21391 4.98652,5.138848 8.45275,11.6621064 10.12181,19.0486996 0.3426,1.5161864 0.74211,2.8759137 0.88782,3.0216162 0.15541,0.1554185 2.37415,0.2823724 5.36802,0.3071537 6.80572,0.056333 10.26089,0.8018646 15.42186,3.3276185 8.02827,3.928987 14.50107,12.045631 16.76132,21.018033 1.63902,6.50631 1.41329,14.12726 -0.62623,21.142979 -0.22362,0.769229 -0.33751,1.578596 -0.25309,1.798594 0.0844,0.219997 1.4866,1.389453 3.11596,2.59879 4.09484,3.039264 9.65006,8.66332 11.89453,12.041907 8.16666,12.293222 8.96243,27.304104 2.16833,40.90208 -1.28292,2.56769 -4.59491,7.86536 -6.24448,9.98831 -0.26966,0.34705 -0.49029,0.81458 -0.49029,1.03896 0,0.22438 0.8272,1.72637 1.83822,3.33776 3.34586,5.3327 5.7283,11.09449 6.80779,16.46428 0.73894,3.67574 0.66904,11.50626 -0.13543,15.1728 -2.56418,11.68671 -9.86613,20.76757 -21.78868,27.09686 -1.65232,0.87717 -2.86319,1.68846 -2.91403,1.95242 -0.0478,0.2484 0.0577,1.76135 0.23443,3.36212 1.12452,10.18315 -0.83279,19.14311 -5.75023,26.32276 -3.89283,5.68369 -9.68936,10.09725 -16.21002,12.34256 -4.2975,1.47978 -6.2117,1.74922 -13.11191,1.84559 -4.03838,0.0564 -6.57442,0.19533 -6.78706,0.37181 -0.18673,0.15497 -0.41784,0.5939 -0.51359,0.9754 -0.37594,1.49785 -3.67723,7.97634 -5.32856,10.45684 -6.19204,9.30117 -15.82189,15.14345 -25.90239,15.71459 -5.7705,0.32695 -10.877,-0.78187 -18.08116,-3.9261 l -2.47073,-1.07835 -2.7606,2.93266 c -5.77415,6.13405 -11.41141,9.63763 -18.2271,11.32822 -3.74802,0.92968 -9.2414,1.09112 -13.09748,0.38492 z m 10.39389,-1.88863 c 2.21676,-0.31017 6.40574,-1.62993 8.52442,-2.68566 4.15728,-2.07155 9.40713,-6.41834 12.60401,-10.43591 0.73344,-0.92173 1.60182,-1.74321 1.92974,-1.82551 0.40148,-0.10077 1.58198,0.32147 3.61456,1.29285 6.60106,3.15467 13.12137,4.50614 18.75139,3.88663 5.8105,-0.63937 10.43691,-2.57987 15.48781,-6.49619 5.75694,-4.46377 9.69056,-10.30952 12.95109,-19.24659 0.71131,-1.94967 1.19203,-2.14718 4.38157,-1.80019 15.47133,1.6831 28.55859,-4.82587 34.58951,-17.20315 1.65659,-3.39982 1.6684,-3.18595 -0.2512,-4.54623 -2.26774,-1.60699 -3.60219,-2.24445 -5.96179,-2.84793 -5.33499,-1.36446 -11.07872,0.15626 -14.80161,3.9189 -0.8999,0.90951 -1.8524,1.65362 -2.11667,1.65358 -0.33639,-4e-5 -0.75332,-0.5753 -1.39026,-1.91822 -1.1707,-2.46831 -4.35236,-5.74077 -7.02438,-7.22485 -7.20363,-4.00099 -17.45244,-2.92143 -22.89889,2.41206 -0.65985,0.64615 -1.39525,1.17483 -1.63423,1.17483 -0.25077,0 -0.79617,-0.63211 -1.28976,-1.49481 -1.03814,-1.81449 -3.37925,-4.14401 -5.37529,-5.34871 -1.98253,-1.19654 -5.58017,-2.40575 -7.91067,-2.65888 -2.28247,-0.24792 -5.35182,0.0531 -7.56468,0.74178 l -1.61629,0.50305 0.0166,-0.56757 c 0.009,-0.31217 0.15796,-1.45089 0.33073,-2.53049 l 0.31412,-1.96292 1.72204,-0.34737 c 0.94713,-0.19104 2.77871,-0.70453 4.0702,-1.14108 l 2.34815,-0.79373 -0.1551,1.1316 c -0.0853,0.62238 -0.23299,1.33457 -0.32819,1.58265 -0.13829,0.36038 -0.0206,0.45106 0.58533,0.45106 0.83829,0 0.99625,-0.19401 2.38877,-2.93395 0.84702,-1.6666 1.10447,-1.90359 2.81665,-2.59291 0.63304,-0.25485 0.7245,-0.41223 0.59578,-1.02513 -0.0836,-0.39823 -0.0613,-0.86431 0.0497,-1.03574 0.39712,-0.61332 4.37852,-1.75068 6.5683,-1.87636 4.21783,-0.24206 8.7251,1.91685 10.71128,5.13055 0.6445,1.04283 0.93272,1.08849 1.83225,0.29028 0.60325,-0.5353 0.65365,-0.74404 0.57277,-2.37209 -0.0885,-1.78076 -0.092,-1.78805 -1.45066,-2.97656 -1.32813,-1.16182 -1.40668,-1.19142 -3.16096,-1.19142 -0.98944,0 -2.20062,-0.16782 -2.69151,-0.37293 -0.4909,-0.20511 -1.56737,-0.51302 -2.39216,-0.68424 -1.35798,-0.28192 -1.45406,-0.34586 -1.0172,-0.677 0.35486,-0.26898 1.44441,-0.3679 4.12045,-0.37408 2.00091,-0.005 3.63802,-0.0676 3.63802,-0.13999 0,-0.12403 -3.53006,-5.00521 -4.00851,-5.54275 -0.13474,-0.15138 -0.36922,-0.0502 -0.5931,0.256 -0.35034,0.47911 -0.39201,0.45432 -0.77431,-0.46065 -0.22223,-0.53186 -0.34353,-1.19844 -0.26956,-1.48129 0.0887,-0.33913 -0.28877,-1.08821 -1.10823,-2.19941 -0.6835,-0.92682 -1.99049,-3.17576 -2.90442,-4.99765 l -1.66169,-3.31253 0.63224,-3.56664 c 0.34773,-1.96165 0.6819,-3.69878 0.74259,-3.86029 0.0607,-0.16151 0.71725,-0.37416 1.45902,-0.47256 0.74176,-0.0984 1.54534,-0.25438 1.78572,-0.34662 0.29323,-0.11252 0.3741,-0.0658 0.24575,0.14183 -0.10522,0.17025 -0.0652,0.30955 0.0889,0.30955 0.15411,0 0.28019,-0.11788 0.28019,-0.26195 0,-0.25425 3.43766,-1.94485 3.60809,-1.77442 0.0467,0.0468 -0.69607,0.94077 -1.65069,1.98672 l -1.73568,1.90173 h 4.9361 4.93609 l -1.98852,-2.87598 -1.98853,-2.87597 0.74513,-0.71389 0.74514,-0.71388 1.69327,2.44558 c 1.81132,2.61605 2.34127,3.06975 2.34127,2.00436 0,-0.36147 0.24549,-2.06803 0.54553,-3.79237 0.79753,-4.58332 1.21859,-7.50077 1.08255,-7.50077 -0.0657,0 -0.98466,0.92274 -2.04216,2.05052 l -1.92271,2.05052 0.65706,-1.98437 c 0.39136,-1.1819 0.97085,-2.31046 1.43299,-2.79072 0.94749,-0.98466 0.96628,-1.17803 0.11445,-1.17803 -0.59531,0 -0.66146,-0.10583 -0.66146,-1.05833 v -1.05834 h 1.45521 c 0.80036,0 1.45521,-0.0678 1.45521,-0.15057 0,-0.30636 -4.5416,-6.72859 -4.75825,-6.72859 -0.12361,0 -0.26672,0.12593 -0.31803,0.27986 -0.0513,0.15392 -0.36378,-0.086 -0.6944,-0.53319 -0.43184,-0.5841 -0.53236,-0.93591 -0.35697,-1.24932 0.18663,-0.33349 -0.1692,-1.01503 -1.51046,-2.89304 -0.96503,-1.35122 -1.83003,-2.46278 -1.92222,-2.47012 -0.0922,-0.007 -0.25049,0.76055 -0.35178,1.70643 -0.1013,0.94589 -0.21942,1.71979 -0.26249,1.71979 -0.0431,0 -0.76343,-0.30299 -1.60079,-0.67331 -1.36949,-0.60566 -1.47517,-0.70792 -1.05157,-1.01766 0.41449,-0.30309 0.44906,-0.61364 0.28853,-2.59217 -0.15841,-1.95228 0.0266,-3.70569 1.40684,-13.33599 1.79387,-12.515885 2.60561,-19.689038 2.84476,-25.138359 l 0.16376,-3.73145 -1.2574,-0.141727 c -0.69157,-0.07795 -1.41516,-0.303798 -1.60797,-0.501884 -0.19282,-0.198086 -0.70992,-2.384219 -1.14913,-4.858073 -2.18561,-12.310592 -2.20783,-12.622188 -0.93469,-13.106234 0.36921,-0.140373 1.79463,-0.255225 3.16761,-0.255225 h 2.49631 v -3.953135 c 0,-2.35002 -0.10729,-4.019448 -0.26458,-4.116657 -0.14552,-0.08994 -0.26458,-0.782821 -0.26458,-1.539743 v -1.376222 l 3.86702,-2.767212 c 2.12686,-1.521967 3.90558,-2.889937 3.9527,-3.039934 0.0471,-0.149997 0.27895,-5.443079 0.51519,-11.762404 l 0.42951,-11.489681 -0.81034,-0.634183 c -0.62309,-0.487644 -0.81033,-0.843729 -0.81033,-1.541048 0,-0.887453 0.58893,-1.764832 1.35599,-2.02014 0.27872,-0.09277 0.37496,-0.879988 0.41151,-3.366083 0.0262,-1.7847473 0.1118,-3.4120158 0.19013,-3.616152 0.17425,-0.4540812 1.25883,-0.4884427 1.69362,-0.053657 0.21345,0.2134516 0.3175,1.4134327 0.3175,3.661697 0,3.31561 0.006,3.346789 0.66535,3.647354 1.45222,0.661674 1.43613,2.781688 -0.0262,3.447955 l -0.64797,0.295232 0.14548,3.244819 c 0.24768,5.524352 0.65616,17.1906 0.65662,18.752764 l 4.3e-4,1.485029 2.71198,1.981252 c 1.49159,1.089689 3.22997,2.320407 3.86307,2.734929 0.6331,0.414523 1.25205,1.019221 1.37544,1.343773 0.25029,0.658308 0.0414,2.414507 -0.31324,2.633695 -0.1259,0.07782 -0.22892,1.920393 -0.22892,4.094617 v 3.953135 h 2.49632 c 2.94427,0 3.77361,0.250318 4.01493,1.211819 0.22173,0.883438 -2.45662,16.515195 -2.91018,16.984809 -0.17915,0.185489 -0.94361,0.410433 -1.69881,0.499875 -1.02225,0.12107 -1.3717,0.271515 -1.36765,0.588789 0.003,0.234392 0.17593,2.569292 0.38432,5.188667 0.6405,8.050962 1.35074,13.29699 3.99407,29.501043 1.60686,9.8503 2.17848,13.23875 5.4231,32.14687 0.72417,4.22011 1.41292,7.90523 1.53056,8.18917 0.1833,0.44241 0.30494,0.32888 0.8505,-0.79375 0.92971,-1.91312 4.21932,-5.09838 6.46513,-6.26004 4.775,-2.4699 10.38379,-2.61486 15.06983,-0.38947 2.09186,0.99342 5.24961,3.73194 6.07891,5.27186 l 0.47816,0.88788 2.81259,-0.0132 c 2.5155,-0.0118 2.97289,0.0619 4.33011,0.69797 2.4083,1.12869 3.37728,1.98123 3.37728,2.97144 0,1.65139 -1.27868,1.96146 -2.85979,0.69347 -2.02282,-1.62223 -4.70264,-2.01345 -7.37004,-1.07593 -0.81695,0.28713 -1.58019,0.46345 -1.6961,0.39181 -0.11591,-0.0716 -0.49789,-0.75304 -0.84884,-1.51424 -0.79431,-1.72282 -2.68344,-3.83951 -4.42298,-4.95578 -3.79942,-2.43808 -9.19743,-2.57417 -13.60064,-0.3429 -3.26633,1.65517 -6.26975,5.87879 -6.66506,9.37285 l -0.1822,1.61038 -0.82249,-0.15796 c -0.45237,-0.0869 -1.4178,-0.28285 -2.1454,-0.43551 -2.87892,-0.60403 -5.99789,0.38301 -8.44559,2.67271 -3.30203,3.08888 -4.37763,7.75259 -2.77096,12.01458 0.49613,1.31608 2.62656,4.69533 2.88046,4.56892 0.0737,-0.0367 1.03028,-0.51823 2.12574,-1.07009 5.87284,-2.95854 12.95467,-1.85726 17.45514,2.71441 1.59988,1.62519 2.96202,3.95239 3.45086,5.89574 l 0.31613,1.25677 h 1.6648 c 0.91565,0 2.40245,0.22957 3.304,0.51017 l 1.63918,0.51017 -0.21653,-1.50236 c -0.1191,-0.8263 -0.22104,-2.09767 -0.22655,-2.82527 l -0.01,-1.32292 3.70417,-1.85408 c 4.27173,-2.13817 5.288,-2.76153 8.23333,-5.05012 5.46059,-4.24301 9.80394,-10.38983 11.99277,-16.97245 1.41542,-4.25672 1.694,-6.12178 1.68978,-11.31294 -0.004,-5.15698 -0.45782,-8.17572 -1.84878,-12.30312 -1.37692,-4.08576 -4.87991,-10.62096 -7.1374,-13.31561 -1.01164,-1.20754 -0.82409,-1.93553 1.17944,-4.57811 4.69362,-6.19068 7.75152,-12.47902 9.18264,-18.883364 0.68726,-3.075553 0.82793,-10.676429 0.26072,-14.087469 -1.73161,-10.413294 -7.33859,-18.885948 -17.46708,-26.39435 -2.03729,-1.510275 -3.79164,-2.872127 -3.89856,-3.026339 -0.35291,-0.509046 -0.21119,-1.76244 0.4462,-3.946289 1.1523,-3.827922 1.55278,-6.633783 1.57269,-11.018471 0.0133,-2.926513 -0.11457,-4.761037 -0.44646,-6.405512 C 252.08095,20.739639 244.12804,11.764442 233.31109,8.6298122 229.58966,7.5513838 227.14135,7.3109299 221.83422,7.5026443 217.46521,7.6604705 217.00766,7.634791 216.64317,7.2112992 216.42332,6.9558644 215.9874,5.3588877 215.67445,3.662462 c -2.56087,-13.881728 -11.64851,-24.268029 -24.33129,-27.808303 -1.76361,-0.492294 -2.71918,-0.5673 -7.19316,-0.564618 -4.96623,0.003 -5.27636,0.03468 -8.28437,0.84695 -1.71874,0.464122 -4.57624,1.445939 -6.35,2.181817 -5.08445,2.109388 -5.33835,2.193925 -6.05154,2.014925 -0.39481,-0.09909 -1.52293,-1.158472 -2.75302,-2.585264 -7.60938,-8.826224 -15.95254,-13.946725 -26.30274,-16.142941 -3.99698,-0.848123 -10.56479,-0.841761 -14.68437,0.01423 -9.86776,2.05037 -18.49768,7.055996 -25.332018,14.693371 -3.148419,3.51836 -3.798297,4.108206 -4.526319,4.108206 -0.337441,0 -1.792288,-0.479621 -3.232994,-1.065825 -10.674095,-4.343143 -19.019975,-4.97015 -27.365964,-2.05594 -10.935066,3.818251 -19.117097,14.0546206 -21.389203,26.7595919 -0.2821,1.577419 -0.651168,3.0061691 -0.820152,3.175 -0.214949,0.2147538 -2.11136,0.3074772 -6.313007,0.3086689 -5.427968,0.00154 -6.247584,0.061944 -8.519305,0.6278563 C 12.940664,10.483018 6.0683264,16.059775 1.8460074,24.707301 -1.920225,32.420738 -2.4516839,41.130952 0.29606194,50.10975 c 0.44048587,1.439373 0.73523216,2.878618 0.65499169,3.198322 -0.0875371,0.348775 -1.49750218,1.592057 -3.52503653,3.108313 -5.6923501,4.256924 -8.6716431,7.135357 -11.5765641,11.184655 -2.858075,3.983999 -5.284194,9.652997 -6.397594,14.948959 -0.671591,3.194469 -0.666594,10.282767 0.0098,13.890625 1.254698,6.692576 4.073708,12.719456 9.154144,19.571026 2.4499984,3.30411 2.4617838,3.38337 0.827357,5.56439 -2.337784,3.1196 -4.878375,7.85004 -6.247606,11.63271 -2.941804,8.1271 -3.125589,16.87494 -0.515765,24.54954 2.618614,7.70046 7.6223301,14.17635 14.5730614,18.8607 1.1812014,0.79606 3.7639788,2.22464 5.7395053,3.17462 2.2291463,1.07194 3.6501943,1.91101 3.7456073,2.21163 0.084557,0.26642 -0.048192,1.60212 -0.2949983,2.96822 -0.6311943,3.49375 -0.6286238,10.59635 0.00511,14.1255 2.4667215,13.73667 11.8100463,23.07687 25.6988023,25.69023 2.64105,0.49694 8.924015,0.64206 12.484838,0.28836 2.637293,-0.26197 2.902561,-0.0777 3.787207,2.63023 0.866335,2.65191 3.168821,7.26915 5.062829,10.15264 2.039643,3.1052 6.688093,7.84577 9.599368,9.78961 9.845198,6.57355 20.934683,6.84126 32.958816,0.79564 1.159807,-0.58314 2.344353,-1.06025 2.632327,-1.06025 0.335565,0 1.438938,1.04545 3.072578,2.91126 5.44682,6.22091 10.80293,9.75946 17.4505,11.52878 4.13175,1.09971 7.67992,1.27753 12.37711,0.62029 z m 81.6837,-79.62346 c 0.18193,-0.4392 0.79187,-1.45678 1.35543,-2.2613 l 1.02466,-1.46275 -0.72801,-0.64076 c -0.85138,-0.74933 -1.10791,-0.78223 -2.28023,-0.2924 -0.75151,0.314 -0.93541,0.5848 -1.31442,1.93559 -0.63892,2.27709 -0.58703,2.66089 0.41923,3.10095 1.17489,0.5138 1.15093,0.51977 1.52334,-0.37933 z m -10.8499,-2.50875 c 0.25433,-0.30645 0.95939,-0.39687 3.09451,-0.39687 2.47569,0 2.75593,-0.0478 2.67724,-0.45638 -0.16122,-0.8371 -1.26355,-1.13688 -3.91967,-1.06595 l -2.51354,0.0671 -0.0814,1.12448 c -0.0842,1.16324 0.17257,1.41471 0.74282,0.7276 z m 9.17842,-5.05037 0.77789,-0.15558 -0.49533,-1.46723 c -0.27243,-0.80698 -0.62211,-2.43361 -0.77705,-3.61474 -0.37963,-2.89394 -0.29845,-2.74903 -1.65381,-2.95228 -2.03769,-0.30557 -2.00304,-0.37581 -2.00304,4.05968 0,2.16312 0.0794,4.01233 0.17639,4.10934 0.218,0.21799 2.91835,0.23213 3.97495,0.0208 z m -7.38559,-4.14056 c -0.0821,-4.53108 -0.001,-4.38022 -2.1689,-4.05518 l -1.10769,0.1661 -0.67206,3.96032 -0.67207,3.96032 h 2.34688 2.34688 z m -5.97579,-2.00963 0.71182,-4.14527 -1.09764,-1.12448 c -0.60371,-0.61846 -1.17359,-1.12448 -1.26642,-1.12448 -0.0928,0 -0.9027,1.08436 -1.79972,2.40969 l -1.63095,2.4097 1.63559,2.41895 c 2.18914,3.23763 2.44857,3.57941 2.6032,3.42946 0.0728,-0.0706 0.45261,-1.99367 0.84412,-4.27357 z m -3.2359,-8.03255 c 0.0113,-0.19604 -6.13508,-6.32718 -6.23886,-6.22341 -0.034,0.034 -0.24121,1.25125 -0.46049,2.705 l -0.39867,2.64319 1.21163,1.85208 c 0.66639,1.01865 1.5693,2.30849 2.00646,2.86631 l 0.79484,1.01423 1.53728,-2.33714 c 0.8455,-1.28543 1.54202,-2.41955 1.54781,-2.52026 z m 8.80792,1.70224 c 0.69654,-0.66254 0.72761,-0.80207 0.72761,-3.26812 0,-2.38534 -0.0507,-2.63629 -0.68498,-3.39008 -0.37674,-0.44773 -0.78116,-0.81405 -0.89871,-0.81405 -0.11756,0 -0.35919,1.04179 -0.53697,2.3151 -0.17778,1.27331 -0.47294,3.11373 -0.65591,4.08982 -0.18298,0.9761 -0.26176,1.84564 -0.17509,1.93231 0.2953,0.29529 1.49462,-0.17115 2.22405,-0.86498 z m 6.54844,0.34205 c 0,-0.69653 -0.70538,-6.12005 -0.95948,-7.37728 l -0.15232,-0.75359 -0.89931,0.87164 -0.89931,0.87165 v 2.6801 c 0,2.43745 0.0539,2.73075 0.59545,3.2395 0.53757,0.50502 1.60216,1.0601 2.11653,1.10357 0.10914,0.009 0.19844,-0.27679 0.19844,-0.63559 z m -10.50233,-3.23875 c 0.23488,-1.4125 0.38405,-2.6112 0.33148,-2.66376 -0.0526,-0.0526 -0.65415,0.6872 -1.33686,1.64394 l -1.24129,1.73951 0.75211,0.90515 c 0.41365,0.49783 0.82307,0.91375 0.9098,0.92425 0.0867,0.0105 0.34988,-1.13658 0.58476,-2.54909 z m 13.87891,0.70968 0.86304,-1.31984 -1.35899,-1.72928 c -0.74744,-0.95111 -1.42052,-1.66775 -1.49573,-1.59254 -0.1179,0.1179 0.079,1.74604 0.618,5.11111 0.0758,0.47295 0.22165,0.85776 0.32419,0.85515 0.10255,-0.003 0.57482,-0.59869 1.04949,-1.3246 z m -15.55934,-3.94549 c 1.02521,-1.44596 1.86401,-2.69612 1.86401,-2.77813 0,-0.082 -2.11123,-0.14911 -4.69163,-0.14911 h -4.69162 l 2.76867,2.77812 c 1.52277,1.52797 2.79519,2.77813 2.82761,2.77813 0.0324,0 0.89775,-1.18306 1.92296,-2.62901 z m 18.88114,0.67423 c 0.46324,-0.34753 1.43756,-0.93072 2.16516,-1.29598 0.72761,-0.36526 1.59437,-1.03342 1.92615,-1.4848 l 0.60324,-0.82069 h -4.66165 -4.66165 l 0.61883,0.73471 c 1.62501,1.9293 3.00813,3.49837 3.08388,3.49849 0.0461,7e-5 0.46281,-0.28421 0.92604,-0.63173 z m 4.8966,-5.87822 c -0.30083,-0.30083 -0.38515,-0.71934 -0.28914,-1.4351 0.17636,-1.31488 -0.71478,-2.28146 -2.34351,-2.54191 -0.78726,-0.12589 -1.46462,-0.49073 -2.24279,-1.20802 l -1.11488,-1.02766 -1.43071,2.1942 c -0.7869,1.20681 -1.69883,2.63802 -2.02651,3.18048 l -0.5958,0.98628 4.97887,0.0782 c 2.73838,0.043 5.09368,0.10523 5.234,0.1382 0.14032,0.033 0.064,-0.13116 -0.16953,-0.36472 z m -17.65447,-0.69982 c 0.0143,-0.47294 0.0718,-1.71732 0.12779,-2.76529 0.14416,-2.69705 -0.27542,-2.61421 -0.65481,0.12927 -0.17533,1.26791 -0.37471,2.57319 -0.44305,2.90061 -0.0964,0.46183 -0.004,0.59531 0.40994,0.59531 0.42098,0 0.5397,-0.18225 0.56013,-0.8599 z m 4.47384,0.66146 c 0.008,-0.85668 -0.90691,-6.33737 -1.09095,-6.53521 -0.1363,-0.14652 -0.23382,1.13167 -0.23382,3.06476 0,1.82386 0.0794,3.39549 0.17639,3.4925 0.24107,0.24107 1.14609,0.22369 1.14838,-0.022 z m 4.0973,-4.91493 1.80479,-2.86441 -2.88469,-2.89367 c -1.58658,-1.59152 -2.92569,-2.77067 -2.9758,-2.62035 -0.0787,0.23615 1.31259,9.30784 1.69973,11.08267 0.16961,0.77761 0.14265,0.80856 2.35597,-2.70424 z m 8.96206,-2.4934 c -0.47472,-2.72852 -0.86926,-5.1693 -0.87675,-5.42396 -0.007,-0.25466 -0.11721,-0.46302 -0.24382,-0.46302 -0.18806,0 -3.12246,4.34706 -3.42986,5.08104 -0.0936,0.22359 4.94216,5.76688 5.23892,5.76688 0.096,0 -0.21378,-2.23243 -0.68849,-4.96094 z m -4.09911,-5.14988 c 0.89168,-1.41361 1.62123,-2.69353 1.62123,-2.84427 0,-0.17861 -1.61285,-0.27408 -4.6302,-0.27408 -2.54662,0 -4.63021,0.0874 -4.63021,0.19412 0,0.36426 5.67021,5.88323 5.84438,5.68849 0.0955,-0.10674 0.90312,-1.35066 1.7948,-2.76426 z m 0.86353,-5.97815 -0.52916,-0.74313 0.72067,-0.77822 0.72068,-0.77823 -0.87095,-5.26956 c -0.47901,-2.89827 -0.93323,-5.33187 -1.00936,-5.408 -0.16183,-0.16183 -0.63249,0.47306 -2.18108,2.94216 l -1.12878,1.79975 1.52566,1.86759 c 2.31753,2.83695 2.42151,3.0419 1.78667,3.5217 -0.28908,0.21848 -0.67291,0.40103 -0.85295,0.40566 -0.18004,0.005 -1.06025,-0.88456 -1.95602,-1.97596 -0.89577,-1.09141 -1.7013,-1.98438 -1.79007,-1.98438 -0.0888,0 -0.63731,0.7415 -1.21898,1.64778 -1.92753,3.00322 -3.30654,5.24292 -3.30654,5.37029 0,0.0691 2.38936,0.12568 5.30968,0.12568 h 5.30968 z m -8.65404,-5.51613 1.70864,-2.5551 -1.18149,-1.4798 c -0.64983,-0.81389 -1.47588,-1.83698 -1.83568,-2.27355 l -0.65418,-0.79375 -10e-4,4.82865 c -7.3e-4,2.65576 0.0564,4.82865 0.12703,4.82865 0.0706,0 0.89723,-1.1498 1.83699,-2.5551 z m -5.93409,-2.3397 c 0,-2.54661 -0.0508,-4.6302 -0.11286,-4.6302 -0.0621,0 -0.88349,0.99834 -1.82536,2.21855 l -1.71249,2.21855 1.62692,2.40097 c 0.8948,1.32054 1.71621,2.40578 1.82535,2.41166 0.10914,0.006 0.19844,-2.07291 0.19844,-4.61953 z m -2.65978,-4.49608 c 1.02632,-1.30868 1.86591,-2.43977 1.86576,-2.51354 -1.5e-4,-0.0738 -1.72796,-0.13413 -3.83958,-0.13413 -2.69107,0 -3.80575,0.0873 -3.72708,0.29198 0.26252,0.68286 3.41969,4.88239 3.61773,4.81214 0.11943,-0.0424 1.05686,-1.14777 2.08317,-2.45645 z m 13.23964,0.0927 c 0.87504,-1.33045 1.59097,-2.46154 1.59097,-2.51354 0,-0.052 -1.67327,-0.0945 -3.71837,-0.0945 h -3.71838 l 2.04709,2.51354 c 1.1259,1.38245 2.08323,2.51354 2.12741,2.51354 0.0442,0 0.79625,-1.08855 1.67128,-2.419 z m -14.33746,-4.72184 2.72469,-0.003 -0.84893,-1.25677 c -0.46691,-0.69123 -1.25934,-1.82594 -1.76094,-2.52158 l -0.91201,-1.26481 -1.51194,2.05856 c -0.83157,1.13221 -1.71174,2.22196 -1.95594,2.42168 -0.74591,0.61005 -0.5218,0.9096 0.54819,0.73274 0.5457,-0.0902 2.2183,-0.16531 3.71688,-0.16691 z m 13.88017,-2.29626 c -0.98448,-1.26134 -1.90863,-2.33178 -2.05366,-2.37874 -0.2317,-0.075 -0.65587,0.50413 -2.86937,3.91792 l -0.489,0.75417 h 3.601 3.601 z m -18.40315,0.56173 c 0.26145,-0.37031 0.98139,-1.34362 1.59985,-2.16291 0.61847,-0.8193 1.12448,-1.74709 1.12448,-2.06177 0,-0.81524 -2.13414,-3.74177 -2.38473,-3.27016 -0.10607,0.1996 -0.39653,1.8512 -0.64548,3.67021 -0.24896,1.81901 -0.51535,3.57518 -0.59198,3.9026 -0.18709,0.79933 0.30885,0.75626 0.89786,-0.078 z m 20.82945,-1.9064 c -0.10096,-0.69123 -0.37968,-2.44511 -0.61938,-3.89752 l -0.43583,-2.64076 -1.11662,1.55935 c -0.61414,0.85764 -1.11662,1.67417 -1.11662,1.81452 0,0.35047 2.99064,4.40162 3.25736,4.41246 0.11805,0.005 0.13204,-0.55683 0.0311,-1.24805 z m -12.54887,-2.86632 c 0,-2.3737 -0.0986,-3.82457 -0.25632,-3.77031 -0.33274,0.11449 -2.91868,3.17444 -2.91868,3.45368 0,0.33272 2.72836,4.17514 2.96461,4.17514 0.11571,0 0.21039,-1.73633 0.21039,-3.85851 z m 5.37726,2.04761 c 0.68053,-0.99599 1.23732,-1.93416 1.23732,-2.08483 0,-0.34023 -2.31128,-3.34648 -2.66929,-3.47189 -0.16518,-0.0579 -0.24842,1.28132 -0.22615,3.63802 0.0194,2.05128 0.122,3.7296 0.22802,3.7296 0.10602,0 0.74957,-0.81491 1.4301,-1.8109 z m -7.86547,-5.29931 0.17459,-1.09188 h -1.88793 -1.88793 l 0.86193,1.30948 c 1.4701,2.23343 2.35869,2.16284 2.73934,-0.2176 z m 11.12285,0.95864 c 0.28863,-0.32742 0.66402,-0.92273 0.8342,-1.32291 l 0.3094,-0.72761 h -1.99371 c -2.21649,0 -2.15116,-0.17834 -0.65717,1.79416 0.76734,1.0131 0.83068,1.02388 1.50728,0.25636 z m 1.37935,-3.99171 c -0.0507,-0.0291 -1.24891,-1.16996 -2.66277,-2.5353 -2.18793,-2.112851 -2.6311,-2.432297 -2.97657,-2.145583 -0.55878,0.463751 -0.58399,4.378823 -0.0302,4.690703 0.20664,0.11637 1.58755,0.17366 3.06868,0.1273 1.48113,-0.0464 2.65152,-0.10805 2.60086,-0.13712 z m -10.34434,-1.89527 c 0.0541,-1.507451 -0.0303,-1.975161 -0.45381,-2.513538 l -0.52033,-0.661458 -2.5889,2.586446 -2.5889,2.58644 3.04271,-0.0729 3.04271,-0.0729 z m -2.3729,-4.423693 c 0.26716,-0.38415 0.0595,-0.825278 -1.33444,-2.834695 -0.90797,-1.308861 -1.71785,-2.384057 -1.79973,-2.389324 -0.12397,-0.008 -1.32909,8.595042 -1.31185,9.364862 0.006,0.26322 3.91547,-3.378 4.44602,-4.140843 z m 12.72174,-0.714932 c -0.33244,-2.489177 -0.7051,-4.492224 -0.82812,-4.451215 -0.12303,0.04101 -0.92362,1.084407 -1.77909,2.318661 l -1.55541,2.2441 2.28383,2.306819 c 1.2561,1.26875 2.32868,2.26195 2.38352,2.20712 0.0548,-0.0548 -0.17229,-2.136307 -0.50473,-4.625485 z M 203.6698,90.221149 c 0.044,-2.611535 -0.0311,-4.427893 -0.18981,-4.586574 -0.17391,-0.17391 -0.69049,0.132468 -1.52813,0.90631 -0.69597,0.642968 -1.6628,1.497439 -2.14852,1.898824 l -0.88312,0.72979 1.39299,1.915771 c 0.76614,1.053674 1.68043,2.309024 2.03174,2.789667 1.08943,1.490482 1.24534,1.060505 1.32485,-3.653788 z m 6.7401,1.708437 c 0.98226,-1.374972 1.77118,-2.589352 1.75314,-2.698622 -0.075,-0.454436 -3.92017,-3.811534 -4.18101,-3.650328 -0.41521,0.256618 -0.38446,8.140265 0.0334,8.558113 0.17462,0.174625 0.38298,0.311489 0.46302,0.304143 0.08,-0.0073 0.94919,-1.138334 1.93146,-2.513306 z m -9.86181,-6.423332 1.70238,-1.541661 -1.11273,-1.319637 c -1.1668,-1.383754 -1.34586,-2.056259 -0.76059,-2.856659 0.32584,-0.445613 0.4482,-0.370329 1.63796,1.007764 0.7072,0.819145 1.38634,1.489354 1.50919,1.489354 0.12286,0 0.18945,-1.22039 0.14798,-2.711979 l -0.0754,-2.711979 -2.16504,-0.07656 -2.16504,-0.07656 -0.13844,1.134892 c -0.0761,0.624191 -0.20667,2.563643 -0.29005,4.309893 -0.0834,1.74625 -0.22093,3.561953 -0.30566,4.034896 -0.0847,0.472942 -0.0489,0.859895 0.0795,0.859895 0.12845,0 0.99962,-0.693747 1.93593,-1.541661 z m 12.02295,-1.869817 c -0.10226,-1.616187 -0.27049,-2.938522 -0.37383,-2.938522 -0.10334,0 -0.76403,0.733319 -1.46818,1.629597 l -1.28029,1.629597 1.53463,1.428423 c 0.84404,0.785632 1.58839,1.374649 1.65412,1.308925 0.0657,-0.06572 0.0358,-1.441832 -0.0665,-3.05802 z m -3.28562,-2.541647 c 0.565,-0.754077 1.0971,-1.190625 1.45123,-1.190625 0.61358,0 1.1946,-1.199477 1.1946,-2.46618 0,-0.704729 -0.0113,-0.70882 -1.95433,-0.70882 h -1.95434 l -0.17679,1.178943 c -0.19063,1.271242 0.0693,4.377307 0.3663,4.377307 0.0997,0 0.58267,-0.535781 1.07333,-1.190625 z m 7.53618,-13.427604 c 0.32892,-1.419704 0.86972,-5.369442 0.7517,-5.490104 -0.16574,-0.169455 -23.08834,-0.327419 -23.51922,-0.162076 -0.23439,0.08994 -0.26198,0.437831 -0.10053,1.267502 0.12239,0.628943 0.35867,2.006735 0.52506,3.061761 l 0.30254,1.918229 h 10.95126 10.95126 z"
       id="path37" /><path
       style="fill:#000000"
       d="m 204.74783,65.876044 c -0.11427,-1.672962 0.11324,-2.111462 1.09554,-2.111462 0.95271,0 0.99719,0.0755 1.0933,1.855869 l 0.0784,1.451422 -1.08728,0.08007 -1.08729,0.08007 z"
       id="path36" /><path
       style="fill:#000000"
       d="m 211.31389,67.29236 c -0.097,-0.09701 -0.17639,-0.796811 -0.17639,-1.555104 0,-1.524279 0.38702,-2.066824 1.3745,-1.926839 0.5587,0.0792 0.61644,0.236323 0.68811,1.872394 l 0.0782,1.785937 h -0.89404 c -0.49172,0 -0.97341,-0.07937 -1.07042,-0.176388 z"
       id="path35" /><path
       style="fill:#000000"
       d="m 198.34931,67.29236 c -0.30473,-0.304723 -0.19164,-2.877535 0.14111,-3.210278 0.17462,-0.174625 0.56753,-0.3175 0.87312,-0.3175 0.89613,0 1.19063,0.536638 1.19063,2.169583 v 1.534583 h -1.01424 c -0.55783,0 -1.09361,-0.07937 -1.19062,-0.176388 z"
       id="path34" /><path
       style="fill:#000000"
       d="m 125.83902,-16.205732 c -0.87278,-1.939303 -2.09737,-3.521178 -3.48069,-4.496235 -1.04277,-0.735009 -1.59815,-1.78762 -0.9432,-1.78762 0.12979,0 0.84759,-0.549899 1.59513,-1.221998 0.98526,-0.885835 1.65443,-1.83204 2.43253,-3.439583 0.59035,-1.219672 1.212,-2.217455 1.38144,-2.217296 0.16943,1.58e-4 0.72054,0.917674 1.22467,2.038922 0.88429,1.966724 2.08136,3.452173 3.84589,4.772368 l 0.79375,0.59387 -1.05523,0.861338 c -1.86822,1.524954 -2.80213,2.674005 -3.65693,4.499359 -0.45999,0.982265 -0.98841,1.785937 -1.17428,1.785937 -0.18587,0 -0.61925,-0.625078 -0.96308,-1.389062 z"
       id="path33" /><path
       style="fill:#000000"
       d="M 63.816948,7.7390598 C 63.689988,7.4843984 63.436295,6.5787343 63.253184,5.726473 62.410334,1.8035568 60.924755,0.20537939 57.097319,-0.89597401 54.577707,-1.6209981 54.759016,-2.1725316 57.829827,-3.1242266 c 3.22726,-1.0001812 4.499182,-2.5462879 5.556069,-6.7537793 0.384875,-1.5321931 0.527357,-1.7795851 0.985577,-1.7112531 0.427662,0.06378 0.650302,0.506631 1.104286,2.1965477 1.103214,4.1066106 2.292285,5.3894809 6.026095,6.5014575 1.383113,0.411909 1.787728,0.6447983 1.787728,1.0289852 0,0.3875798 -0.421044,0.6218262 -1.918229,1.06719992 C 68.605438,0.0277193 67.499384,0.85972936 66.5157,2.8575155 66.064283,3.7743068 65.545013,5.2030569 65.361767,6.0325156 64.90209,8.113229 64.32262,8.7533622 63.816948,7.7390598 Z"
       id="path32" /><path
       style="fill:#000000"
       d="m 178.20863,12.279497 c -1.95942,-0.717455 -3.05446,-2.207919 -3.05446,-4.1574414 0,-2.1750894 1.58494,-3.7023238 4.23854,-4.0842139 l 1.42892,-0.2056409 1.99492,-7.4175502 c 1.0972,-4.0796526 2.09816,-7.5724856 2.22436,-7.7618506 0.1262,-0.189366 0.48339,-0.285146 0.79375,-0.212844 1.14982,0.267857 8.2464,3.6106154 8.49841,4.003075 0.18652,0.2904639 0.0427,1.0317431 -0.5032,2.592798 -1.00102,2.8627704 -1.13973,3.1120848 -1.73148,3.1120848 -0.27481,0 -1.88753,-0.6055825 -3.58384,-1.345739 -1.6963,-0.7401565 -3.12155,-1.3057034 -3.16722,-1.2567709 -0.0457,0.048933 -0.62633,2.0881665 -1.29035,4.53163106 l -1.20731,4.44266284 1.04452,0.9436595 c 1.76011,1.5901578 1.98876,3.7484763 0.57507,5.4285447 -1.38953,1.65136 -3.97517,2.224436 -6.26063,1.387595 z"
       id="path31" /><path
       style="fill:#000000"
       d="m 138.28398,13.897349 c -0.0823,-0.214582 0.25947,-1.490742 0.75959,-2.835911 l 0.90929,-2.4457631 -0.72174,-0.753337 c -0.62234,-0.6495847 -0.72175,-0.9723805 -0.72175,-2.3437943 0,-1.4987128 0.057,-1.6427025 0.98831,-2.4961684 0.83665,-0.7667348 1.18174,-0.9055595 2.24896,-0.9047223 1.61486,0.00127 2.88266,0.7587004 3.41917,2.0427354 0.78099,1.8691799 0.008,3.7569092 -1.88112,4.5924486 -0.97666,0.4320223 -1.1559,0.6387408 -1.29769,1.4966051 -0.0905,0.547441 -0.16723,1.293003 -0.17056,1.656805 -0.005,0.531715 -0.31315,0.830126 -1.57169,1.521355 -1.80711,0.992522 -1.76411,0.98222 -1.96077,0.469747 z"
       id="path30" /><path
       style="fill:#000000"
       d="m 113.51406,13.38937 c -1.51606,-0.890137 -1.78614,-1.352497 -1.83352,-3.138911 -0.024,-0.9047685 -0.12201,-1.0325945 -1.08812,-1.4191559 -2.00915,-0.8039016 -2.77632,-2.6947792 -1.89849,-4.6792661 0.63356,-1.4322733 1.62556,-2.0353731 3.34786,-2.0353731 2.91251,0 4.46766,3.8038028 2.40036,5.8711075 l -0.66232,0.6623194 0.78403,2.2233912 c 1.22812,3.482768 1.10392,3.780423 -1.0498,2.515888 z"
       id="path29" /><path
       style="fill:#000000"
       d="m 80.082766,19.765762 -1.805775,-1.884403 1.179633,-1.069327 c 0.648799,-0.588129 1.43974,-1.456279 1.757646,-1.929222 0.317907,-0.472943 0.678827,-0.859896 0.802045,-0.859896 0.123218,0 0.64344,0.565547 1.15605,1.256771 0.51261,0.691224 1.296314,1.494896 1.741565,1.785938 0.445251,0.291041 0.80989,0.602672 0.810308,0.692513 7.7e-4,0.165175 -3.652052,3.957095 -3.771253,3.914862 -0.03544,-0.01256 -0.877043,-0.870814 -1.870219,-1.907236 z"
       id="path28" /><path
       style="fill:#000000"
       d="m 63.273101,31.63062 c -0.465172,-0.647741 -1.19973,-1.429755 -1.632352,-1.737808 -0.992602,-0.706796 -0.98942,-1.068337 0.01595,-1.811637 0.441392,-0.326335 1.164388,-1.092867 1.606659,-1.703403 0.44227,-0.610536 0.888594,-1.110066 0.991831,-1.110066 0.103238,0 0.987343,0.847659 1.964679,1.883686 l 1.776973,1.883686 -1.853246,1.886626 c -1.019286,1.037645 -1.891829,1.886627 -1.938985,1.886627 -0.04716,0 -0.466334,-0.52997 -0.931507,-1.177711 z"
       id="path27" /><path
       style="fill:#000000"
       d="m 106.9,37.448584 c -0.14931,-0.179914 -0.39266,-0.96608 -0.54076,-1.747035 -0.41485,-2.187495 -3.11193,-12.567979 -6.398697,-24.627243 l -0.262803,-0.964233 -1.521689,0.01433 c -1.89809,0.01788 -3.505697,-0.8009298 -4.581728,-2.3336292 -2.31736,-3.3008496 -0.178228,-8.14513971 3.763982,-8.5239362 1.886856,-0.18130299 3.068985,0.11972949 4.130645,1.05188528 2.15322,1.89055032 2.60145,4.72515982 1.15301,7.29165362 -0.76935,1.3632188 -0.786,1.4532515 -0.33073,1.7889704 1.79106,1.3207411 13.39569,8.0875281 13.68152,7.9778431 0.19498,-0.07482 0.68093,-0.711313 1.0799,-1.414428 2.6761,-4.716229 7.45609,-13.4888839 8.2815,-15.19893374 0.0431,-0.0892142 -0.28393,-0.31224525 -0.72665,-0.49562456 -0.44271,-0.18337931 -1.14897,-0.72525198 -1.56946,-1.20416149 -2.21634,-2.52426731 -1.53791,-6.61406201 1.34076,-8.08265401 1.65622,-0.8449369 4.07459,-0.6404503 5.43563,0.4596122 1.49831,1.2110125 2.05709,2.3370487 2.03317,4.0972416 -0.0255,1.8772648 -0.93319,3.52784527 -2.45359,4.4617522074226 C 128.82174,0.3637993 128.33395,0.75576545 128.33003,0.87103311 c -0.021,0.61726969 9.00425,16.59146489 9.37396,16.59146489 0.158,0 1.23729,-0.551966 2.39842,-1.226589 3.0069,-1.747041 11.87715,-7.0266131 12.02365,-7.1564828 0.0676,-0.059937 -0.0242,-0.311625 -0.20409,-0.5593067 -2.0646,-2.8430509 -1.72229,-6.3391507 0.8186,-8.36058091 1.39529,-1.11003982 3.82479,-1.28956599 5.62938,-0.41597909 2.84857,1.3789664 3.80626,5.324003 1.95006,8.0329383 -1.01374,1.4794572 -2.1869,2.0972816 -4.29613,2.2624702 l -1.88321,0.147488 -0.62459,1.984375 c -1.45247,4.61463 -5.48487,19.995984 -6.16211,23.505041 -0.189,0.979275 -0.4833,1.738185 -0.70742,1.824187 -0.21108,0.081 -1.77111,-0.28422 -3.46673,-0.811598 -5.81665,-1.809116 -10.00711,-2.404083 -16.70899,-2.372369 -6.1686,0.02919 -11.01076,0.756394 -16.1099,2.419413 -2.4813,0.809244 -3.24972,0.967566 -3.46093,0.713079 z"
       id="path26" /><path
       style="fill:#000000"
       d="m 232.97883,40.701688 c -0.0656,-0.194003 -0.25673,-0.887843 -0.42462,-1.541869 -0.71004,-2.766001 -1.88381,-4.060925 -4.43161,-4.889062 -1.78455,-0.580046 -1.72473,-1.071781 0.21282,-1.749452 0.80036,-0.279934 1.75286,-0.728019 2.11666,-0.995744 0.90199,-0.663781 1.77399,-2.267795 2.15797,-3.969509 0.28184,-1.24907 0.79395,-1.938165 1.16479,-1.567332 0.0687,0.06871 0.30113,0.801425 0.51649,1.628256 0.51666,1.983586 1.27236,3.425012 2.06944,3.947284 0.35613,0.233345 1.34526,0.659327 2.19806,0.946629 1.73657,0.585037 2.14965,1.230596 0.97281,1.520337 -1.28552,0.316501 -3.1022,1.1713 -3.72116,1.750918 -0.32711,0.306308 -0.84699,1.399617 -1.15531,2.429576 -0.30832,1.029959 -0.6445,2.04416 -0.74709,2.25378 -0.2581,0.527418 -0.78535,0.661427 -0.92925,0.236188 z"
       id="path25" /><path
       style="fill:#000000"
       d="m 233.82552,58.706365 c -0.98226,-1.01681 -1.78593,-1.924595 -1.78593,-2.017302 0,-0.09271 0.57355,-0.71153 1.27456,-1.375165 0.70101,-0.663634 1.53445,-1.563796 1.85208,-2.000358 l 0.57752,-0.79375 0.57752,0.79375 c 0.31764,0.436562 1.15108,1.336724 1.85209,2.000358 0.701,0.663635 1.27456,1.271103 1.27456,1.34993 0,0.163521 -3.61874,3.934868 -3.75037,3.908518 -0.0473,-0.0095 -0.88976,-0.849171 -1.87203,-1.865981 z"
       id="path24" /><path
       style="fill:#000000"
       d="m 170.61849,61.163008 -2.02213,-4.114684 0.77386,-0.962973 c 2.57384,-3.202799 2.3572,-7.805345 -0.50426,-10.712943 -1.7424,-1.770498 -3.1522,-2.365552 -5.61804,-2.371285 -1.75437,-0.0041 -2.17427,0.09828 -3.62268,0.883108 l -1.63831,0.887722 -1.27211,-1.056724 c -0.69966,-0.581198 -2.28414,-1.68122 -3.52107,-2.444493 -1.23693,-0.763273 -2.29485,-1.428034 -2.35094,-1.477246 -0.17631,-0.154682 0.75645,-1.421915 1.85578,-2.521248 3.34447,-3.344471 8.87975,-5.184559 13.48711,-4.483507 2.87146,0.43692 5.01708,1.225353 7.18069,2.638621 9.38014,6.127112 10.94334,19.093202 3.24461,26.912727 -1.01954,1.035536 -2.32996,2.120127 -2.91204,2.410201 l -1.05833,0.527409 z"
       id="path23" /><path
       style="fill:#000000"
       d="m 79.166318,64.289054 c -4.16587,-2.781862 -6.817034,-7.524954 -7.124057,-12.745369 -0.563989,-9.589671 6.057433,-17.5418 15.633354,-18.775192 4.676446,-0.602333 9.587624,1.087467 13.127585,4.516837 1.18197,1.145051 1.86663,2.010643 1.81149,2.29021 -0.0488,0.247187 -0.89258,0.939046 -1.87516,1.537465 -0.982585,0.598419 -2.567498,1.666261 -3.522031,2.372981 l -1.735515,1.284947 -1.637347,-0.887212 c -1.442731,-0.781758 -1.873209,-0.887314 -3.621721,-0.888072 -1.566239,-6.78e-4 -2.258835,0.134222 -3.286896,0.640203 -2.756042,1.356442 -4.369959,3.783954 -4.584302,6.8953 -0.138154,2.005414 0.515987,4.094976 1.779777,5.68525 l 0.767345,0.965578 -1.420493,2.695988 c -0.781271,1.482794 -1.625321,3.23177 -1.875667,3.886614 -0.250347,0.654843 -0.536623,1.284024 -0.636169,1.398178 -0.09955,0.114154 -0.909633,-0.279014 -1.800193,-0.873706 z"
       id="path22" /><path
       style="fill:#000000"
       d="m 57.684525,74.033763 c -0.863709,-3.415526 -1.420301,-4.116852 -4.142316,-5.21947 -0.998893,-0.404626 -1.816169,-0.886321 -1.816169,-1.070433 0,-0.184113 0.655288,-0.5375 1.456197,-0.785305 0.800908,-0.247805 1.790559,-0.669638 2.199224,-0.937406 0.811996,-0.53204 1.854887,-2.384502 2.164116,-3.844067 0.450851,-2.128021 1.22811,-2.290905 1.55436,-0.325734 0.09014,0.542955 0.453544,1.605442 0.807565,2.361081 0.67992,1.451251 1.694458,2.180128 3.989372,2.866093 0.582083,0.173988 1.058333,0.470185 1.058333,0.658215 0,0.18803 -0.813611,0.671446 -1.808025,1.074257 -0.994413,0.402811 -2.027781,0.931261 -2.296372,1.174332 -0.655935,0.593614 -1.351166,2.090594 -1.718886,3.701131 -0.402361,1.762253 -1.050277,1.917721 -1.447399,0.347306 z"
       id="path21" /><path
       style="fill:#000000"
       d="m 236.20792,94.046967 c -4.01364,-1.278011 -4.7209,-6.052361 -1.15247,-7.779809 1.41584,-0.685392 3.42691,-0.7076 4.71275,-0.05204 0.86477,0.440882 0.97363,0.447527 1.08369,0.06615 0.0673,-0.233185 0.91222,-3.271922 1.87762,-6.752748 0.96539,-3.480827 1.8867,-6.487155 2.04736,-6.68073 0.44277,-0.533509 0.81892,-0.440576 2.64765,0.654137 0.92438,0.55335 2.72016,1.476084 3.99062,2.050521 1.27047,0.574437 2.36728,1.191232 2.43737,1.370657 0.17444,0.446585 -1.96565,4.848405 -2.44703,5.033127 -0.21298,0.08173 -1.51605,-0.412148 -2.89573,-1.097499 -1.37967,-0.685352 -2.53297,-1.210265 -2.56288,-1.166474 -0.0299,0.04379 -0.80661,2.758526 -1.726,6.032745 -1.74075,6.199287 -2.25537,7.315185 -3.72374,8.074506 -1.15926,0.59948 -2.87315,0.69836 -4.28921,0.247462 z"
       id="path20" /><path
       style="fill:#000000"
       d="M 5.5663187,94.408943 C 5.4231344,94.071159 5.1150457,93.028026 4.8816772,92.090868 3.9145803,88.207218 2.7479411,87.070727 -1.7197943,85.659996 c -1.6817944,-0.531044 -1.4456001,-1.210537 0.668701,-1.923747 0.94986896,-0.320416 2.0930543,-0.771851 2.5404119,-1.003188 1.755067,-0.907581 2.9738129,-2.981624 3.788313,-6.446892 0.3126224,-1.330044 0.7212374,-1.807156 1.2424735,-1.450754 0.1399268,0.09568 0.5212199,1.184295 0.847318,2.419151 1.0689465,4.047844 2.2619868,5.352324 5.9153489,6.46789 2.581954,0.788407 2.63185,1.334551 0.194144,2.125055 -3.9202546,1.271267 -4.7849153,2.214919 -6.0694468,6.62392 -0.7332537,2.516806 -1.3295816,3.144345 -1.8411505,1.937512 z"
       id="path19" /><path
       style="fill:#000000"
       d="m 179.45181,100.08321 -1.92007,-2.01366 1.39321,-1.241756 c 0.76628,-0.682966 1.56113,-1.55549 1.76635,-1.938942 0.20521,-0.383453 0.50947,-0.697186 0.67611,-0.697186 0.16665,0 0.70415,0.535401 1.19446,1.189781 0.4903,0.654379 1.28553,1.458051 1.76716,1.785937 0.48163,0.327886 0.8765,0.725058 0.8775,0.882604 9.9e-4,0.157546 -0.47877,0.672646 -1.06613,1.144666 -0.58737,0.47202 -1.3771,1.325386 -1.75496,1.896366 -0.37785,0.57098 -0.76048,1.03088 -0.85029,1.02199 -0.0898,-0.009 -1.02731,-0.92229 -2.08334,-2.0298 z"
       id="path18" /><path
       style="fill:#000000"
       d="M 38.23923,101.26927 C 34.615283,97.159035 33.6916,93.484165 34.952564,88.193285 35.858919,84.390314 35.732171,82.609529 34.226792,77.996281 l -1.286169,-3.941477 -1.870787,0.164684 c -2.89761,0.255075 -2.973796,-0.03129 -1.190694,-4.475466 0.461283,-1.149693 0.74351,-2.174612 0.627171,-2.277598 C 30.389975,67.363438 29.549986,67.126827 28.639672,66.940622 21.904636,65.562967 14.553438,59.318539 10.624011,51.637334 6.2904945,43.166219 6.0868893,33.942367 10.062569,26.202536 16.93878,12.815967 34.284775,9.6197208 45.202179,19.727564 c 4.438343,4.109225 6.957573,9.44791 7.702018,16.321913 0.758994,7.008337 -1.702782,15.335707 -6.426699,21.739387 -2.788356,3.779859 -6.8714,7.283418 -9.898854,8.493962 -0.618464,0.247296 -1.124479,0.543227 -1.124479,0.657624 0,0.114398 0.714375,1.254885 1.5875,2.534417 2.152017,3.153702 2.099907,3.59765 -0.462726,3.942168 -0.763821,0.102688 -1.442401,0.273488 -1.507955,0.379556 -0.06555,0.106068 0.409661,1.733146 1.056032,3.61573 1.603352,4.66983 1.723844,6.328541 0.786442,10.826219 -1.092715,5.242872 -0.59333,7.677495 2.20546,10.752163 1.803512,1.981287 1.982281,2.361937 1.459659,3.108087 -0.588073,0.83959 -0.9949,0.69533 -2.339347,-0.82952 z M 16.693542,42.837704 c 0.415765,-0.415766 0.517425,-0.762293 0.407506,-1.389063 -0.450293,-2.567626 -0.462373,-4.15485 -0.04868,-6.397055 0.754736,-4.090691 2.920812,-7.716989 5.844149,-9.78388 0.823278,-0.582083 1.603893,-1.332916 1.734699,-1.668516 0.32106,-0.823724 -0.331534,-2.054708 -1.205582,-2.27408 -1.05519,-0.264836 -3.218006,1.005319 -5.31276,3.120019 -3.323865,3.355515 -5.158998,8.083481 -5.136766,13.234171 0.01395,3.23166 0.306456,4.903581 0.93879,5.365955 0.728159,0.532443 2.144444,0.426653 2.778648,-0.207551 z"
       id="path17" /><path
       style="fill:#000000"
       d="m 254.31539,108.03001 -1.93356,-1.9989 1.40671,-1.25379 c 0.7737,-0.68958 1.57462,-1.56752 1.77984,-1.95097 0.49352,-0.92214 0.91894,-0.8794 1.61943,0.16271 0.31791,0.47294 1.12969,1.36005 1.80396,1.97135 l 1.22594,1.11145 -1.35238,1.2698 c -0.74382,0.69839 -1.56118,1.59722 -1.81637,1.9974 -0.25519,0.40018 -0.53959,0.71911 -0.63199,0.70872 -0.0924,-0.0104 -1.03811,-0.91838 -2.10158,-2.01777 z"
       id="path16" /><path
       style="fill:#000000"
       d="m 229.98906,109.35556 c -0.9095,-0.95945 -1.65283,-1.87656 -1.65183,-2.03803 9.9e-4,-0.16146 0.41771,-0.57681 0.92604,-0.92299 0.50833,-0.34618 0.92851,-0.70337 0.93375,-0.79375 0.005,-0.0904 0.29398,-0.5123 0.64165,-0.93759 l 0.63214,-0.77326 1.75254,1.81397 1.75254,1.81397 -1.00571,0.94367 c -0.55313,0.51901 -1.3031,1.32499 -1.66658,1.79106 l -0.66089,0.84741 z"
       id="path15" /><path
       style="fill:#000000"
       d="m 236.82089,135.79698 c -1.42239,-0.72529 -2.0055,-1.71942 -1.98922,-3.39135 0.0114,-1.17248 0.16791,-1.65174 0.8599,-2.63347 0.46526,-0.66007 0.84593,-1.25061 0.84593,-1.31231 0,-0.0617 -0.50601,-0.34039 -1.12448,-0.61932 -1.79594,-0.80999 -2.64901,-1.902 -2.7706,-3.54666 -0.22868,-3.0931 2.50224,-4.72064 5.87946,-3.50395 0.58208,0.2097 1.0881,0.38307 1.12448,0.38526 0.0364,0.002 0.0688,-0.56156 0.072,-1.25278 0.0112,-2.41434 1.48601,-4.49512 3.36471,-4.74711 2.19021,-0.29377 3.73861,1.3739 3.9717,4.27761 l 0.13487,1.68026 1.90315,-0.14393 c 3.20361,-0.24229 4.90417,1.03547 4.90627,3.68646 0.002,1.97002 -1.2939,3.15682 -4.44173,4.06916 -0.25246,0.0732 -0.20312,0.2901 0.18893,0.83074 0.29184,0.40243 0.67515,1.28413 0.85179,1.95932 0.86191,3.29458 -2.41485,5.93597 -5.23246,4.21788 -0.88263,-0.53821 -2.21345,-2.11719 -2.21345,-2.6262 0,-0.16817 -0.11907,-0.30576 -0.26459,-0.30576 -0.14552,0 -0.26458,0.11492 -0.26458,0.25538 0,0.52631 -1.75401,2.22655 -2.77586,2.69076 -1.33199,0.60511 -1.88752,0.61062 -3.02617,0.03 z m 7.43484,-8.17653 c 0.98502,-0.89143 0.30237,-2.73712 -1.01236,-2.73712 -0.75933,0 -1.67878,0.86946 -1.67878,1.5875 0,0.70006 0.91277,1.5875 1.63281,1.5875 0.31596,0 0.79221,-0.19704 1.05833,-0.43788 z"
       id="path14" /><path
       style="fill:#000000"
       d="m 122.83448,150.01112 c -0.83368,-0.33517 -1.65315,-1.7973 -1.65432,-2.95171 -0.001,-1.38793 0.41129,-2.3109 1.57528,-3.52295 1.06081,-1.10462 1.68108,-2.78316 1.02444,-2.77232 -0.19347,0.003 -0.87351,0.24255 -1.51122,0.5319 -1.39888,0.63471 -1.35032,0.67808 -2.9537,-2.63855 -1.40442,-2.90511 -1.46476,-3.30602 -0.78041,-5.18559 0.31582,-0.86741 0.62962,-1.7557 0.69733,-1.97398 0.10647,-0.34326 -0.41784,-0.38532 -3.88061,-0.31135 -3.48791,0.0745 -4.24815,0.0124 -5.90094,-0.48243 -5.29114,-1.58401 -9.986248,-6.06973 -12.93155,-12.35484 -1.67405,-3.57233 -2.44448,-7.48888 -1.473146,-7.48888 0.14709,0 0.937855,0.40667 1.757255,0.90372 2.593006,1.57291 7.726551,3.65212 11.892961,4.81694 0.24347,0.0681 0.28346,0.27793 0.13229,0.69418 -0.11918,0.32814 -0.19731,1.1324 -0.17364,1.78724 0.0602,1.666 0.062,3.51866 0.005,5.7338 -0.0433,1.69452 0.0223,1.97298 0.61301,2.60483 0.84077,0.89927 1.70787,1.34368 3.0427,1.55946 1.8484,0.2988 5.26891,-0.89451 7.37289,-2.57217 0.71941,-0.57364 0.72914,-0.61641 0.38839,-1.70819 l -0.34949,-1.11981 h -1.87895 c -1.48427,0 -1.97092,-0.10164 -2.31683,-0.48386 -0.5903,-0.65227 -0.55097,-1.25514 0.12605,-1.93216 0.50465,-0.50465 0.75362,-0.5463 2.36857,-0.3962 l 1.80465,0.16772 0.54505,-1.23218 c 0.29978,-0.6777 0.51384,-1.25287 0.4757,-1.27816 -0.0382,-0.0253 -0.48608,-0.35543 -0.9954,-0.73365 -2.196,-1.63072 -6.1471,-3.09307 -8.38515,-3.10344 -2.61038,-0.0121 -11.816751,-3.73929 -15.734547,-6.37014 C 89.065602,103.71873 84.643687,97.96867 82.259857,90.67387 80.078041,83.997255 80.027538,76.141315 82.121608,69.168626 c 1.907803,-6.352469 4.689441,-11.715521 8.585361,-16.552742 4.619782,-5.735976 11.780441,-10.67911 18.924651,-13.064037 9.8152,-3.276573 20.63294,-3.653587 30.83478,-1.074636 12.75259,3.223761 23.19058,12.083324 28.63681,24.306366 3.65955,8.213184 4.72228,16.011362 3.244,23.804197 -2.00638,10.576757 -8.57115,18.997146 -18.78594,24.096036 -3.17179,1.58325 -8.96756,3.53161 -11.58534,3.89463 -2.87793,0.39909 -4.8807,1.06717 -7.03381,2.34631 -2.11724,1.25783 -2.28653,1.45714 -1.89337,2.22912 0.15968,0.31355 0.39971,0.87334 0.5334,1.24398 0.24213,0.67126 0.25034,0.67288 2.11139,0.41566 1.33946,-0.18514 2.05653,-0.17248 2.53321,0.0447 0.88501,0.40324 1.15528,1.50112 0.53756,2.18369 -0.39428,0.43568 -0.82032,0.51851 -2.66699,0.51851 h -2.19776 l -0.29563,1.09791 c -0.28176,1.04638 -0.26051,1.12649 0.45282,1.70683 1.21506,0.98852 3.89511,2.21061 5.49753,2.50683 1.19227,0.22041 1.77606,0.19286 2.91222,-0.13744 2.33922,-0.68003 3.38087,-2.46354 2.9158,-4.99245 -0.11204,-0.60925 -0.17305,-1.64351 -0.13558,-2.29835 0.14287,-2.4969 0.12797,-3.33325 -0.0737,-4.13241 -0.20486,-0.81198 -0.18795,-0.83021 1.06198,-1.14493 1.82327,-0.45909 5.9807,-2.03824 8.21158,-3.11907 l 1.91434,-0.92746 1.37084,0.44838 c 1.47461,0.48232 3.23426,1.25353 12.26298,5.37453 7.20964,3.29072 9.39364,4.06319 15.10208,5.34154 5.35859,1.20001 7.96301,2.29288 9.7697,4.09956 4.26031,4.26031 3.97236,11.59465 -0.61997,15.79179 -2.37406,2.16975 -4.99165,3.24496 -8.98343,3.69007 -4.60435,0.51342 -10.82711,-0.51403 -16.06213,-2.65204 -3.46637,-1.41568 -5.01865,-2.48863 -8.13586,-5.62358 -1.41878,-1.42686 -2.64997,-2.5943 -2.73598,-2.5943 -0.086,0 0.39082,1.01203 1.05961,2.24896 l 1.21599,2.24896 -1.25813,-3.6e-4 c -1.53379,-4.4e-4 -5.0393,-0.60084 -7.57938,-1.29813 -4.06285,-1.11533 -9.10744,-3.76824 -12.80524,-6.73417 -1.38376,-1.10989 -3.88575,-2.55067 -4.42937,-2.55067 -0.0401,0 0.28572,0.85371 0.72412,1.89713 1.03009,2.4517 0.94642,3.87151 -0.38879,6.5974 -1.44751,2.95515 -1.52456,3.02357 -2.95424,2.62328 -0.65521,-0.18345 -1.38663,-0.25858 -1.62539,-0.16696 -0.67191,0.25784 -0.24464,1.4191 0.94798,2.5765 1.75103,1.69932 2.01348,4.1286 0.62438,5.77944 -0.52827,0.62781 -0.88777,0.80154 -1.65869,0.80154 -1.10263,0 -1.5319,-0.27379 -2.38529,-1.52135 -0.79039,-1.15547 -1.47308,-1.1082 -2.11308,0.14629 -0.28232,0.55341 -0.82613,1.14872 -1.20845,1.32292 -0.79926,0.36417 -0.86152,0.36584 -1.66075,0.0445 z m 7.22992,-9.75948 c 0.4203,-0.4995 1.00566,-0.83153 1.66122,-0.94228 0.99431,-0.16799 1.0233,-0.2063 1.63675,-2.16236 0.61822,-1.97126 0.61972,-2.0051 0.1486,-3.35719 -0.26175,-0.75122 -1.00236,-2.21869 -1.6458,-3.26105 l -1.16989,-1.8952 -1.05389,0.41398 c -0.81999,0.3221 -1.05389,0.55454 -1.05389,1.04733 0,0.91996 -1.17546,2.01227 -1.92263,1.78662 -0.83179,-0.25121 -1.01982,-0.47801 -1.224,-1.47632 -0.14389,-0.70355 -0.35365,-0.92717 -1.05964,-1.12965 -1.07202,-0.30745 -1.31056,-0.0495 -3.05935,3.30775 l -1.18554,2.27598 0.83406,2.31565 c 0.66891,1.85713 0.96863,2.36702 1.5136,2.575 0.37375,0.14264 1.02297,0.43153 1.44271,0.64199 0.70082,0.35139 0.79316,0.33982 1.13037,-0.14162 1.18919,-1.6978 2.0389,-1.77286 3.23402,-0.28569 0.46778,0.58209 0.91211,1.05834 0.98741,1.05834 0.0753,0 0.42894,-0.34708 0.78589,-0.77128 z m -1.56027,-13.00389 c 0.99942,-0.3776 2.13758,-1.48732 2.75343,-2.68461 1.35716,-2.63845 -0.24365,-6.0277 -3.22636,-6.83086 -2.17932,-0.58683 -4.53872,0.44721 -5.55189,2.43319 -0.81786,1.60313 -0.63863,4.01536 0.39945,5.37636 1.27375,1.66998 3.74056,2.41805 5.62537,1.70592 z m 22.96983,-5.40336 c 1.30969,-0.65771 3.05882,-1.73535 3.88696,-2.39477 1.37009,-1.09093 3.91825,-4.09858 3.91825,-4.62479 0,-0.11906 -0.54149,-0.42328 -1.2033,-0.67602 l -1.20329,-0.45955 -0.4193,0.6361 c -1.26787,1.92342 -5.97655,6.02329 -8.93512,7.77985 -0.29726,0.17649 -0.38295,0.42722 -0.25736,0.75306 0.26741,0.6938 1.31439,0.44185 4.21316,-1.01388 z M 129.91785,109.5049 c 4.56832,-0.6148 8.28769,-2.43489 11.12366,-5.4434 2.77404,-2.94282 3.95016,-5.947549 3.95016,-10.091852 0,-4.232018 -1.34238,-7.230986 -4.77332,-10.663971 -1.84877,-1.849864 -2.71102,-2.491367 -4.51087,-3.356023 -3.33977,-1.604442 -5.1125,-2.000601 -8.97206,-2.00502 -3.87521,-0.0044 -5.6416,0.389474 -8.99584,2.006093 -1.83202,0.882968 -2.66781,1.506427 -4.50826,3.362948 -3.42343,3.45333 -4.73958,6.4715 -4.74824,10.888548 -0.007,3.779512 1.304,7.024767 4.0059,9.913107 4.08328,4.36503 10.43862,6.33031 17.42887,5.38957 z M 106.17669,83.515452 c 2.12979,-0.88988 3.45074,-3.773622 2.84059,-6.201184 -0.82207,-3.270656 -3.93226,-4.786241 -6.39201,-3.114801 -1.36583,0.928109 -1.93808,2.268749 -1.94532,4.557427 -0.005,1.685874 0.0818,2.019256 0.78776,3.015335 0.84569,1.193186 2.24776,2.100686 3.24551,2.100686 0.33437,0 0.99293,-0.160858 1.46347,-0.357463 z m 44.00053,-0.146683 c 3.12545,-1.419408 3.68266,-6.201652 1.02858,-8.827776 -0.89487,-0.88545 -1.62923,-1.095274 -3.20982,-0.917119 -4.26058,0.480229 -5.07065,7.917609 -1.06069,9.738371 1.37338,0.623593 1.88093,0.624615 3.24193,0.0065 z"
       id="path13" /><path
       style="fill:#000000"
       d="m 123.09757,98.80993 c -1.92029,-0.517091 -3.35423,-1.292561 -4.72283,-2.554091 -1.17748,-1.085361 -1.45858,-1.928663 -0.84682,-2.540423 0.54989,-0.549898 1.30299,-0.34927 2.39617,0.638352 1.21865,1.100984 2.78049,1.853766 4.37517,2.108765 l 1.11324,0.178015 v -3.305162 -3.305162 l -1.1783,-0.449996 c -1.28592,-0.491097 -2.68537,-1.889218 -2.95121,-2.948403 -0.41409,-1.649881 0.29705,-3.177795 1.87993,-4.039073 1.15108,-0.626332 6.02023,-0.611562 7.18716,0.0218 1.25908,0.683385 1.94159,1.700917 1.94159,2.894682 0,1.872395 -1.02538,3.147854 -3.36135,4.181167 l -1.15356,0.510271 0.0746,3.119975 0.0746,3.119975 1.1441,-0.05204 c 1.38105,-0.06282 3.01603,-0.817743 4.47421,-2.065888 1.49993,-1.283886 2.71607,-1.156247 2.71607,0.285064 0,0.69021 -1.8724,2.488552 -3.40521,3.270537 -2.57025,1.311244 -6.83555,1.718483 -9.75764,0.931633 z"
       id="path12" /><path
       style="fill:#000000"
       d="m 176.49507,177.0724 c -0.42066,-0.92317 -3.72215,-9.30205 -3.72215,-9.44645 0,-0.1696 1.34177,0.27678 2.64583,0.88023 2.37729,1.10007 4.21967,0.45273 5.12071,-1.79921 0.22906,-0.57246 0.59808,-1.14247 0.82005,-1.26669 0.33589,-0.18797 -0.17762,-1.44475 -3.0616,-7.49296 -4.45524,-9.34342 -5.01339,-10.57577 -4.78632,-10.56794 0.1643,0.006 1.36973,0.25719 3.11665,0.65031 0.39969,0.0899 0.98417,1.03827 2.15937,3.50359 0.88623,1.85914 2.91826,6.1187 4.51562,9.46568 3.34753,7.01416 4.55094,9.77961 4.55094,10.45813 0,0.6072 -1.7404,2.11648 -3.96875,3.44171 -1.47494,0.87716 -6.26043,2.9012 -6.8594,2.9012 -0.10968,0 -0.34861,-0.32742 -0.53095,-0.7276 z"
       id="path11" /><path
       style="fill:#000000"
       d="m 165.03645,178.62881 -0.12888,-5.45902 1.52475,-1.38644 c 0.83862,-0.76254 1.8765,-1.91747 2.3064,-2.56651 l 0.78165,-1.18007 2.43909,5.96404 c 1.3415,3.28022 2.37642,6.12733 2.29984,6.3269 -0.26953,0.70239 -4.89264,2.78002 -7.58222,3.40745 l -1.51175,0.35267 z"
       id="path10" /><path
       style="fill:#000000"
       d="m 85.470988,183.46035 c -4.131343,-1.22088 -6.842884,-3.01333 -7.120527,-4.707 -0.164206,-1.00167 -0.194718,-1.02424 -2.693581,-1.9923 -4.121754,-1.59677 -8.056727,-4.03391 -8.340847,-5.16594 -0.105458,-0.42017 0.862838,-2.91489 3.200262,-8.24514 6.879817,-15.6887 10.541698,-24.1304 11.693654,-26.95726 0.652303,-1.60073 1.265691,-2.9959 1.363084,-3.10037 0.09739,-0.10447 0.789999,0.1601 1.539122,0.58794 l 1.362044,0.7779 -2.233146,5.31312 c -1.22823,2.92221 -4.136722,9.61139 -6.463316,14.86483 -2.326593,5.25344 -4.184867,9.59702 -4.129498,9.65239 0.05537,0.0554 0.622402,-0.0196 1.26007,-0.16662 2.748693,-0.6337 5.045982,-0.2176 6.298748,1.14088 0.696742,0.75553 1.078171,0.88453 1.078687,0.36482 1.81e-4,-0.1819 0.724849,-2.71197 1.610374,-5.62239 0.885525,-2.91042 1.724411,-5.67862 1.864191,-6.15156 0.139781,-0.47295 0.278315,-0.85998 0.307856,-0.86007 0.02954,-1e-4 0.01234,1.67505 -0.03822,3.72255 -0.142196,5.75796 0.587371,10.59487 2.194703,14.55054 0.600403,1.4776 0.614933,1.69454 0.475818,7.10374 -0.125739,4.88908 -0.195945,5.57785 -0.567292,5.56551 -0.233087,-0.008 -1.431069,-0.31175 -2.662181,-0.67557 z"
       id="path9" /><path
       style="fill:#000000"
       d="m 97.777394,211.37619 c -1.011027,-0.13628 -2.450074,-0.52789 -3.197882,-0.87025 -5.226495,-2.39277 -6.375983,-9.17132 -2.352377,-13.872 0.606788,-0.70889 0.890444,-1.26884 0.795037,-1.56944 -0.31276,-0.98542 -0.970336,-6.40637 -1.211916,-9.99082 -0.160864,-2.38684 -0.159957,-5.27781 0.0025,-7.97328 l 0.254868,-4.22874 -0.881423,-2.09989 c -2.168033,-5.1651 -2.806065,-11.69641 -1.898249,-19.43172 0.679614,-5.79086 2.542422,-13.63191 4.776776,-20.10672 0.677928,-1.96453 1.292439,-3.82448 1.365579,-4.13323 0.143568,-0.60604 -0.563634,-2.21677 -0.973292,-2.21677 -0.310482,0 -2.075862,3.67083 -3.084286,6.41328 -0.414116,1.12621 -0.849507,2.04895 -0.967535,2.05052 -0.595699,0.008 -8.919289,-4.46451 -11.691654,-6.28222 -7.413642,-4.86076 -14.156007,-11.68768 -17.877912,-18.10211 -0.618746,-1.06636 -1.523704,-2.53687 -2.011017,-3.2678 -1.42395,-2.13579 -1.992524,-3.92864 -2.138126,-6.742013 -0.156042,-3.015113 0.198138,-4.938151 1.326197,-7.200641 2.82126,-5.658455 9.957818,-8.112312 15.47488,-5.320934 2.919921,1.477345 4.853851,3.783834 5.498734,6.558027 0.338498,1.456171 2.433155,4.821897 5.048411,8.111861 1.680005,2.11343 5.624175,6.05644 7.1965,7.19439 0.933285,0.67545 1.102744,0.92342 0.932383,1.36437 -0.114511,0.2964 -0.199039,1.66999 -0.18784,3.05244 0.01729,2.13423 0.149474,2.87289 0.875937,4.89479 2.671619,7.43569 7.741093,13.13511 13.741543,15.44913 2.38453,0.91957 5.07897,1.4136 7.1776,1.31602 l 1.45521,-0.0677 0.1785,1.79144 c 0.18966,1.90345 1.34493,4.70289 2.83388,6.86699 0.76189,1.10738 0.77741,1.18769 0.42226,2.18437 -0.7233,2.02984 -0.3019,4.2629 1.11734,5.92097 1.21694,1.42172 2.12858,1.86063 3.86463,1.86063 1.07969,0 1.66431,-0.15805 2.3792,-0.64318 l 0.94777,-0.64318 2.99175,2.64753 c 9.06423,8.02133 18.63973,12.44706 28.78863,13.30589 2.1841,0.18482 5.95352,-0.2053 6.51913,-0.67472 0.37704,-0.31291 0.46136,-1.2844 0.19704,-2.27012 -0.15227,-0.56785 -0.22536,-0.57741 -3.25302,-0.42518 -4.9482,0.2488 -9.20163,-0.54538 -14.95228,-2.79181 -4.94335,-1.93106 -9.31725,-4.4963 -13.32131,-7.81279 l -1.55977,-1.29194 1.1214,-1.03367 c 1.19151,-1.0983 1.93111,-2.37792 2.02415,-3.50209 0.0312,-0.37707 0.0873,-0.68558 0.12457,-0.68558 0.0373,0 0.9936,0.74714 2.1251,1.6603 5.62491,4.53951 13.42715,8.05921 20.08222,9.05937 2.7475,0.41291 6.20659,0.36871 6.86969,-0.0878 0.16752,-0.11532 0.17953,-0.68417 0.0331,-1.56992 l -0.22959,-1.38906 h -2.47993 c -7.6545,0 -16.4933,-3.59443 -24.25247,-9.86262 l -2.29881,-1.85708 0.61556,-0.82088 c 0.96078,-1.28123 1.97325,-3.45903 2.28593,-4.91701 0.19454,-0.90713 0.38314,-1.2661 0.59374,-1.13014 0.16975,0.10959 1.18213,0.77722 2.24974,1.48361 5.50334,3.64135 12.22087,5.76749 18.41454,5.82832 l 3.15772,0.031 0.31858,1.19062 c 0.17522,0.65485 0.93072,3.39328 1.6789,6.08542 1.56681,5.63782 2.3012,9.42275 2.54742,13.12901 0.17069,2.56923 0.16081,2.63246 -0.58085,3.71625 -0.41497,0.60641 -1.67723,1.83748 -2.80502,2.73572 -1.12779,0.89824 -2.05611,1.71178 -2.06295,1.80786 -0.007,0.0961 -0.0439,3.80611 -0.0824,8.24449 -0.0654,7.54721 -0.36859,11.42809 -1.12963,14.46035 -0.11486,0.45764 0.0688,0.87391 0.70586,1.59943 0.47363,0.53943 1.22272,1.75345 1.66464,2.69782 1.04945,2.24263 1.12012,4.96168 0.18481,7.11075 -0.90585,2.08136 -2.98902,3.86976 -5.38522,4.62318 -1.81732,0.57141 -2.29035,0.59702 -11.0269,0.59702 -6.90725,0 -9.48218,-0.0893 -10.58333,-0.36696 -5.49616,-1.38595 -7.49132,-5.02497 -6.39919,-11.67159 0.31502,-1.9172 0.29618,-2.1008 -0.55656,-5.42395 l -0.88261,-3.43959 h -1.56027 -1.56027 l -0.90212,3.43959 c -0.85026,3.24187 -0.88509,3.54252 -0.60597,5.23043 0.3686,2.22892 0.37882,5.04465 0.023,6.32585 -0.42268,1.52184 -1.85921,3.43782 -3.19268,4.25829 -2.3711,1.45891 -3.30495,1.58277 -12.54143,1.66351 -4.65667,0.0407 -9.293871,-0.0375 -10.304897,-0.17377 z"
       id="path8" /><path
       style="fill:#000000"
       d="m 203.20004,216.56152 c -0.31476,-0.50929 -1.09837,-1.35707 -1.74137,-1.88395 -0.643,-0.52689 -1.16909,-1.04301 -1.16909,-1.14695 0,-0.10393 0.88113,-1.10507 1.95806,-2.22476 l 1.95805,-2.03579 0.57234,0.92606 c 0.31478,0.50933 1.10053,1.391 1.74611,1.95926 0.64558,0.56826 1.17378,1.14709 1.17378,1.28629 0,0.1392 -0.48057,0.63929 -1.06794,1.11131 -0.58737,0.47202 -1.37709,1.32538 -1.75495,1.89636 -0.37786,0.57099 -0.78054,1.03815 -0.89486,1.03815 -0.11431,0 -0.46537,-0.41669 -0.78013,-0.92598 z"
       id="path7" /><path
       style="fill:#000000"
       d="m 61.790679,227.07865 c -0.245994,-0.40019 -1.063359,-1.29232 -1.816367,-1.98252 l -1.369105,-1.25491 1.348472,-1.25863 c 0.74166,-0.69225 1.559026,-1.58605 1.816368,-1.98623 0.586934,-0.91272 1.007683,-0.92134 1.484489,-0.0304 0.205218,0.38345 1.00034,1.25621 1.766938,1.93947 l 1.393815,1.24229 -1.970876,2.02927 c -1.083981,1.11611 -2.023885,2.02928 -2.088674,2.02928 -0.06479,0 -0.319066,-0.32742 -0.56506,-0.7276 z"
       id="path6" /><path
       style="fill:#000000"
       d="m 182.71458,230.67008 c -0.061,-0.19266 -0.25729,-1.00513 -0.43621,-1.8055 -0.90212,-4.03554 -2.12755,-5.38723 -5.8705,-6.47533 -2.37762,-0.6912 -2.32792,-1.23037 0.18508,-2.0079 3.41045,-1.05521 4.69651,-2.49992 5.68285,-6.38386 0.38523,-1.51694 0.59532,-1.93395 0.97433,-1.93395 0.33058,0 0.55822,0.29248 0.72074,0.92604 0.98894,3.85517 1.97968,5.63472 3.60496,6.47518 0.38579,0.1995 1.49921,0.62047 2.47426,0.93547 2.43071,0.78528 2.3909,1.27184 -0.16911,2.06651 -1.06806,0.33154 -2.36778,0.89218 -2.88826,1.24585 -1.1089,0.75352 -2.0832,2.60846 -2.77427,5.2819 -0.3361,1.30018 -0.61404,1.87586 -0.93556,1.93778 -0.25157,0.0485 -0.50731,-0.0695 -0.56831,-0.26219 z"
       id="path5" /><path
       style="fill:#000000"
       d="m 108.14342,237.1479 c -0.25741,-0.0671 -0.69381,-0.55928 -0.96976,-1.09378 -0.7339,-1.4215 -2.31188,-2.82661 -4.11845,-3.66725 -1.39732,-0.65021 -1.88862,-0.73705 -4.101044,-0.72495 -2.851852,0.0156 -4.598411,0.55338 -6.868286,2.11478 -2.065612,1.42089 -2.656714,1.1456 -2.656714,-1.23729 0,-1.74091 -0.701736,-4.21061 -1.661679,-5.84816 -1.006825,-1.71753 -3.650637,-4.09064 -5.538268,-4.97121 -2.506157,-1.16911 -4.938116,-1.50287 -7.898143,-1.08392 -1.505552,0.21309 -2.51254,0.24867 -2.666973,0.0942 -0.154434,-0.15444 -0.03162,-1.03725 0.325264,-2.33811 1.796546,-6.54847 -1.601925,-12.32482 -8.254657,-14.03035 -3.08018,-0.78965 -6.839795,-0.0521 -9.508805,1.86538 -0.720756,0.51781 -1.474588,0.94147 -1.675182,0.94147 -0.200594,0 -0.70598,-0.68461 -1.123079,-1.52135 -1.186155,-2.37956 -4.477052,-5.51076 -7.242229,-6.89079 -3.49419,-1.74387 -5.971423,-2.25661 -10.162193,-2.1034 -3.822734,0.13977 -5.942384,0.70395 -8.810979,2.34519 -1.951121,1.11632 -4.865167,3.89018 -5.659204,5.38695 -0.348933,0.65775 -0.803881,1.1959 -1.010994,1.1959 -0.207114,0 -1.107773,-0.29253 -2.001465,-0.65006 -0.893692,-0.35753 -2.386487,-0.74449 -3.317323,-0.8599 l -1.692429,-0.20983 -0.484209,-1.5875 c -0.694061,-2.27551 -1.2417366,-5.73108 -1.3209222,-8.33438 -0.067804,-2.22911 -0.062686,-2.24895 0.5800862,-2.24895 0.728031,0 0.844334,-0.29404 1.988453,-5.02709 0.351766,-1.45521 0.942609,-3.7647 1.312984,-5.13222 l 0.673407,-2.48638 -0.658023,-0.60984 c -0.361913,-0.33541 -0.658023,-0.79411 -0.658023,-1.01934 0,-0.27685 -0.252227,-0.40951 -0.778626,-0.40951 -0.428245,0 -1.205765,-0.25202 -1.727823,-0.56004 -0.7589348,-0.44778 -0.9155472,-0.67318 -0.7813239,-1.12448 0.2761221,-0.92841 0.8929109,-1.75506 1.3094969,-1.75506 0.711903,0 0.407639,-0.45181 -1.0741238,-1.59498 C 8.1437058,170.60732 6.0679194,168.37403 4.8162234,166.48906 4.308906,165.72508 3.8465864,165.1 3.7888467,165.1 c -0.2364344,0 -4.75252226,3.13901 -5.0748491,3.52739 -0.2616537,0.31528 -0.300814,0.93048 -0.1569516,2.46571 l 0.1916902,2.04562 -1.0941611,-0.86659 c -0.8998287,-0.71268 -1.0941611,-1.02712 -1.0941611,-1.7704 0,-0.87001 -0.037577,-0.90381 -1.0046367,-0.90381 -1.077574,0 -1.7280113,-0.54299 -3.8689816,-3.22984 -0.9726498,-1.22064 -1.0522445,-1.79725 -0.2480933,-1.79725 0.2218198,0 0.3411576,-0.14882 0.265195,-0.33073 -0.1456337,-0.34873 -1.6797103,-5.15492 -2.0057284,-6.28385 -0.170701,-0.5911 -0.349916,-0.66988 -1.684857,-0.74061 l -1.493837,-0.0791 -0.503415,-1.64064 c -0.276877,-0.90235 -0.58697,-2.02759 -0.689094,-2.50054 l -0.185681,-0.85989 h 3.328315 3.3283139 v -1.20365 -1.20364 l -3.5057289,0.043 -3.50573,0.043 -0.07619,-2.26117 -0.07619,-2.26118 1.134521,-0.14648 c 0.623987,-0.0806 1.424842,-0.17783 1.779678,-0.21615 0.600953,-0.0649 0.684769,-0.27165 1.223343,-3.01743 0.318003,-1.62125 0.656966,-3.0752 0.753252,-3.231 0.09979,-0.16145 -0.280243,-0.51554 -0.883768,-0.82343 -1.262078,-0.64387 -1.605691,-1.2046 -1.605691,-2.62028 0,-0.95102 1.075141,-4.01534 1.632122,-4.65182 0.120979,-0.13824 0.219961,0.36777 0.219961,1.12448 v 1.37584 h 1.7197919 1.7197917 l 0.00405,-0.99219 c 0.00524,-1.2835 0.3848028,-1.94822 0.6170864,-1.0807 0.090963,0.33972 0.1670123,0.9451 0.1689993,1.34528 0.00354,0.71318 0.035359,0.72761 1.6043166,0.72761 h 1.6007037 l -0.079349,-1.47412 -0.07935,-1.47412 -3.6380209,0.004 c -2.0009115,0.002 -3.6380207,-0.0689 -3.6380207,-0.15756 0,-0.29159 1.8899179,-3.62651 2.5528034,-4.50463 0.6020947,-0.7976 0.7608961,-0.8599 2.1917584,-0.8599 1.4741287,0 1.5756237,-0.0441 2.2855781,-0.99219 0.4086203,-0.5457 1.6877695,-1.96804 2.8425538,-3.16075 l 2.09960768,-2.16857 0.0135576,-2.72622 c 0.007457,-1.49943 -0.0802439,-3.11178 -0.19489026,-3.58301 -0.18412667,-0.75681 -0.10304123,-0.96219 0.69495228,-1.76018 1.5928233,-1.59283 4.794208,-2.16716 7.538002,-1.35235 1.670642,0.49613 2.642228,1.24646 2.85226,2.20273 l 0.162644,0.74052 1.908191,-0.6408 c 1.049505,-0.35244 2.622566,-0.78688 3.495691,-0.96543 l 1.5875,-0.32463 0.04831,-2.75319 c 0.04569,-2.60386 0.08538,-2.78508 0.731938,-3.34122 2.073971,-1.78395 7.694505,-1.83463 9.93538,-0.0896 0.628872,0.48972 0.661459,0.64843 0.661459,3.22144 v 2.70633 l 2.901933,0.73047 c 1.596064,0.40176 3.176981,0.8558 3.51315,1.00896 0.522868,0.23824 0.644328,0.19278 0.840306,-0.31453 0.947216,-2.45194 5.905088,-3.36603 9.196199,-1.69552 0.753686,0.38256 1.46566,0.84666 1.582164,1.03132 0.116504,0.18467 0.222793,2.1112 0.236197,4.28118 l 0.02437,3.94541 1.548657,1.34626 c 0.851761,0.74043 2.187854,2.11987 2.969096,3.0654 l 1.420441,1.71915 2.568118,6.4e-4 c 2.11912,5.3e-4 2.753152,0.0998 3.626452,0.5678 2.129097,1.14098 2.206453,1.36851 1.837666,5.40525 -0.08738,0.95649 -0.04627,2.35862 0.09136,3.11585 0.350493,1.92837 0.08105,2.95503 -0.959601,3.65632 -0.474374,0.31968 -0.966001,0.61902 -1.092504,0.6652 -0.126504,0.0462 -0.01343,1.15553 0.25128,2.46522 0.264708,1.30969 0.553982,2.80682 0.642832,3.32695 0.161332,0.94445 0.16402,0.94609 2.031832,1.2352 2.842322,0.43995 2.756141,0.25095 2.754656,6.04105 l -0.0013,4.95007 -0.661459,0.49286 c -0.419779,0.31278 -1.378206,0.5649 -2.623145,0.69003 l -1.961686,0.19718 -0.349046,1.71979 c -0.191975,0.94588 -0.59639,2.53605 -0.898699,3.53371 -0.30231,0.99765 -0.512636,1.84622 -0.467393,1.88571 0.04524,0.0395 0.580409,0.32295 1.189256,0.62993 1.770709,0.89279 1.809198,1.02182 1.756206,5.88736 -0.02597,2.38434 -0.05573,4.41644 -0.06615,4.51577 -0.01041,0.0993 -0.286821,0.26284 -0.614243,0.36336 -0.327422,0.10051 -1.334488,0.52525 -2.237925,0.94387 -1.958703,0.90758 -2.648085,0.94359 -3.901948,0.20379 -0.51953,-0.30653 -1.627663,-0.75985 -2.462519,-1.00739 l -1.51792,-0.45007 -0.191638,-1.83688 c -0.110064,-1.05497 -0.08191,-2.1634 0.06614,-2.60396 0.141782,-0.42189 0.257784,-1.16494 0.257784,-1.65121 0,-0.80018 -0.185931,-1.01338 -1.958451,-2.24564 -1.077148,-0.74884 -2.309971,-1.58409 -2.739607,-1.85612 l -0.781155,-0.49459 -1.005061,1.52295 c -0.552784,0.83762 -2.167546,2.66991 -3.58836,4.07175 -1.902208,1.87681 -2.505398,2.62671 -2.287832,2.84427 0.162506,0.16251 0.507034,0.29547 0.765617,0.29547 0.482736,0 1.096267,0.77025 1.382849,1.73609 0.129028,0.43485 -0.04707,0.66288 -0.86837,1.12448 -0.566621,0.31846 -1.215563,0.57901 -1.442093,0.57901 -0.22653,0 -0.824922,0.24371 -1.32976,0.54157 -0.558561,0.32956 -0.98175,0.43823 -1.081024,0.2776 -0.329416,-0.533 -0.216775,-2.03537 0.215241,-2.8708 0.521996,-1.00943 0.159879,-1.14728 -0.89163,-0.33944 l -0.660678,0.50759 0.58636,1.80164 c 0.322497,0.9909 0.833989,2.75414 1.136649,3.9183 0.302659,1.16417 0.783993,2.56952 1.069631,3.123 0.285637,0.55348 0.497545,1.32739 0.470905,1.71979 -0.02664,0.3924 0.03687,0.97303 0.141125,1.29028 0.183235,0.55756 0.222277,0.56314 1.16979,0.16714 0.539126,-0.22533 1.497034,-0.48489 2.128684,-0.57682 l 1.148454,-0.16714 0.07893,-1.26017 c 0.105827,-1.68956 1.254918,-3.9564 2.509065,-4.94971 3.126831,-2.47649 7.515993,-2.21224 10.295472,0.61984 l 1.105167,1.12608 1.51452,-1.50181 c 1.977472,-1.96089 3.838812,-2.70371 6.806187,-2.71621 1.576946,-0.007 2.501327,0.14136 3.625223,0.58044 2.641457,1.03196 5.078288,3.69626 5.887581,6.43717 l 0.32322,1.09468 2.887196,0.0241 c 2.702049,0.0225 3.001976,0.08 4.677069,0.89556 3.008957,1.46505 6.003295,5.00256 6.012751,7.10344 0.0025,0.55862 -0.08539,0.57395 -3.238561,0.5648 -3.755907,-0.0109 -6.353316,0.55502 -9.011025,1.96336 -2.120832,1.12384 -5.214309,4.06442 -6.144239,5.84057 l -0.728313,1.39105 1.578548,1.57989 c 2.757852,2.76018 4.403356,7.25355 3.938788,10.75564 l -0.169173,1.27528 1.530468,0.005 c 6.713836,0.0202 12.960476,4.49075 14.910006,10.67079 0.328319,1.04078 0.626645,1.93142 0.662948,1.9792 0.0363,0.0478 0.939719,-0.23906 2.007592,-0.63745 2.659205,-0.99205 6.381079,-1.05828 8.995009,-0.16006 3.22097,1.10681 6.39338,4.03128 6.74877,6.22132 0.11982,0.73836 0.0348,0.97916 -0.4707,1.33323 -0.33932,0.23767 -0.67974,0.41831 -0.75651,0.40143 -0.0768,-0.0169 -0.35018,-0.0856 -0.6076,-0.15266 z M 23.547915,191.46509 v -3.00365 l -2.452901,-0.17242 c -1.349095,-0.0948 -2.861055,-0.28948 -3.35991,-0.43255 -0.586408,-0.16818 -0.963177,-0.16925 -1.065909,-0.003 -0.249054,0.40298 -1.393591,5.31036 -1.267849,5.4361 0.178579,0.17858 6.058219,1.12749 7.154381,1.15464 l 0.992188,0.0246 z m 8.507057,2.4664 2.553932,-0.35705 0.325563,-0.98647 c 0.27347,-0.82862 0.251544,-1.25991 -0.13703,-2.69542 -0.254426,-0.93993 -0.549056,-1.84886 -0.654734,-2.01985 -0.145691,-0.23573 -0.809231,-0.21159 -2.744783,0.0999 -1.403953,0.22592 -3.030174,0.41076 -3.613824,0.41076 h -1.061181 v 3.0672 3.0672 l 1.389062,-0.1146 c 0.763984,-0.063 2.538332,-0.27526 3.942995,-0.47164 z m -8.566649,-11.9643 -0.0727,-4.29948 -1.322917,-0.16217 c -0.727604,-0.0892 -1.680104,-0.23926 -2.116667,-0.33347 l -0.79375,-0.17129 -1.019728,4.25263 c -0.560851,2.33894 -0.977569,4.2922 -0.926042,4.34058 0.22467,0.21094 3.145487,0.61249 4.664304,0.64125 l 1.6602,0.0314 z m 7.975419,4.00487 c 0.957805,-0.16204 1.816132,-0.3704 1.907392,-0.46302 0.09126,-0.0926 -0.334881,-2.01388 -0.946981,-4.26946 l -1.112909,-4.10104 -0.772811,0.0496 c -0.425045,0.0273 -1.487185,0.14671 -2.36031,0.26544 l -1.5875,0.21587 -0.0727,4.29862 -0.0727,4.29862 h 1.638527 c 0.90119,0 2.422186,-0.13258 3.379992,-0.29461 z M 14.976517,175.22583 c -0.268953,-0.26896 -0.490868,0.13596 -0.270197,0.49301 0.166696,0.26973 0.229017,0.26993 0.318638,0.001 0.06128,-0.18383 0.03948,-0.40617 -0.04844,-0.49408 z m 8.547335,-7.54614 -0.02406,-7.73906 -1.820467,7.14375 c -1.001257,3.92906 -1.823867,7.28349 -1.828021,7.45429 -0.0042,0.17081 0.617524,0.42455 1.381508,0.56388 2.580755,0.47067 2.318229,1.32125 2.291042,-7.42286 z m 6.374063,7.20897 c 0.363802,-0.10011 0.644923,-0.34922 0.624713,-0.55357 -0.09153,-0.92556 -3.692256,-13.71374 -3.927591,-13.94908 -0.07519,-0.0752 -0.136706,3.28052 -0.136706,7.45713 v 7.59384 l 1.389063,-0.18315 c 0.763984,-0.10074 1.686719,-0.26506 2.050521,-0.36517 z m -13.755392,-3.24022 c 0.158357,-0.61847 0.460602,-1.65171 0.671657,-2.29609 0.705566,-2.15422 0.383303,-2.0243 -0.937224,0.37786 -1.186453,2.15826 -1.267877,2.41222 -0.86951,2.71198 0.682521,0.51357 0.826034,0.41322 1.135077,-0.79375 z m 19.400415,0.5503 c 0.192742,-0.30556 -0.06215,-0.99931 -0.99781,-2.71581 -0.691174,-1.26797 -1.311253,-2.25083 -1.377954,-2.18413 -0.114169,0.11417 1.150264,4.83241 1.417563,5.28965 0.1723,0.29473 0.648678,0.10098 0.958201,-0.38971 z m 25.259578,-1.07947 0.08064,-1.25677 h -3.718664 -3.718663 v 1.14653 c 0,0.63059 0.06862,1.21515 0.152492,1.29902 0.08387,0.0839 1.720981,0.13348 3.638021,0.11024 l 3.485529,-0.0423 z m -44.479572,-7.01146 c 3.487355,-6.87148 4.454076,-9.04028 4.272462,-9.58513 -0.09192,-0.27576 -1.810017,0.78399 -11.2661945,6.94921 l -3.5030779,2.28393 0.5816795,1.00282 c 0.7232331,1.24686 5.5765319,6.16219 6.0844179,6.16219 0.221803,0 1.774762,-2.76197 3.830713,-6.81302 z m 23.653329,4.85926 c 1.085072,-1.07457 2.47763,-2.67336 3.094572,-3.55288 l 1.121713,-1.59911 -2.318676,-1.51545 c -11.472118,-7.49803 -12.769717,-8.30699 -12.769717,-7.961 0,0.80427 8.310685,16.5822 8.734317,16.5822 0.09071,0 1.052719,-0.87919 2.137791,-1.95376 z M 2.5566203,162.87819 c 0.023695,-0.0149 -0.2475497,-0.7157 -0.6027653,-1.55726 -0.9002907,-2.13292 -1.89133521,-5.96577 -2.1061004,-8.1453 l -0.18071438,-1.83396 H -3.5079598 -6.6829599 l 0.1778541,1.80494 c 0.2125881,2.15743 -0.069658,3.05114 -1.1380853,3.60364 l -0.7867552,0.40685 0.6379782,2.38392 c 0.350888,1.31115 0.9081722,2.94061 1.2384093,3.62101 0.5398542,1.1123 0.7296452,1.26895 1.8811866,1.55273 0.7044156,0.17359 1.5257443,0.56061 1.8251751,0.86004 l 0.5444195,0.54442 2.40815836,-1.60694 c 1.32448714,-0.88382 2.42754494,-1.61916 2.45123954,-1.63409 z m 50.4548987,2.38752 c 0.649654,-0.34543 1.829797,-0.70909 2.622541,-0.80813 l 1.441351,-0.18009 0.693923,-2.30072 c 0.381657,-1.2654 0.802636,-2.80734 0.935508,-3.42653 l 0.241585,-1.1258 -1.046018,-0.16727 c -0.575311,-0.092 -1.304917,-0.37691 -1.621348,-0.63314 -0.526252,-0.42613 -0.568803,-0.67129 -0.498831,-2.87412 l 0.0765,-2.40824 h -2.762462 -2.762461 l -0.182213,1.52135 c -0.341821,2.85396 -0.983293,5.48005 -1.8846,7.71525 -0.495204,1.22808 -0.844133,2.28912 -0.775398,2.35785 0.123068,0.12307 4.187085,2.91074 4.288593,2.94172 0.02868,0.009 0.58368,-0.26671 1.233333,-0.61213 z M 12.133104,156.6279 c 3.804292,-2.50191 6.916894,-4.71481 6.916894,-4.91758 0,-0.30747 -1.405149,-0.36865 -8.466667,-0.36865 H 2.1166641 v 0.90276 c 0,1.27381 0.6647437,4.5207 1.2777302,6.24099 0.9620106,2.69978 1.1010755,2.96797 1.4663452,2.8278 0.1955089,-0.075 3.4680729,-2.18342 7.2723645,-4.68532 z m 33.909886,3.24658 c 0.796034,-2.11471 1.478928,-4.92127 1.673849,-6.87917 l 0.164629,-1.65364 h -8.614302 c -7.364912,0 -8.601895,0.0553 -8.528756,0.38139 0.07684,0.34259 14.111669,9.67277 14.550166,9.67277 0.09996,0 0.439441,-0.68461 0.754414,-1.52135 z m 18.779925,-8.92969 v -1.19062 h -3.704166 -3.704167 v 1.19062 1.19063 h 3.704167 3.704166 z m -64.97589686,-4.07545 c 0.23464765,-2.3813 1.02870515,-5.67212 1.86566676,-7.7319 0.3672266,-0.90375 0.6381166,-1.6686 0.6019778,-1.69967 -0.4192471,-0.36043 -4.2898123,-2.76485 -4.4507826,-2.76485 -0.1188765,0 -0.2524283,0.55356 -0.2967817,1.23014 -0.1101259,1.6799 -0.8311564,2.1888 -3.5299488,2.49146 -1.1357008,0.12736 -2.167574,0.33423 -2.2930516,0.45971 -0.3395412,0.33954 -1.3731029,5.48478 -1.1950006,5.94891 0.084501,0.2202 0.6428026,0.48302 1.2406702,0.58403 1.3837821,0.23378 1.9926804,1.06448 1.7456137,2.38145 l -0.1739455,0.92721 h 3.1528022 3.15280222 z m 19.33316786,1.56531 c 0.08878,-0.14365 -0.648334,-0.78054 -1.638031,-1.41532 -7.077346,-4.53932 -12.8139921,-8.11308 -13.023218,-8.11308 -0.2303611,0 -0.8739407,1.52139 -1.5669418,3.70417 -0.3880188,1.22216 -1.0821749,5.63382 -0.9262911,5.88698 0.1886649,0.30639 16.9642639,0.24503 17.1544819,-0.0627 z m 28.571557,-1.26017 c -0.403168,-3.48668 -1.882345,-8.1598 -2.566222,-8.1074 -0.204832,0.0157 -2.210291,1.19211 -4.456576,2.61426 -2.246285,1.42215 -5.421592,3.43337 -7.056237,4.46938 -1.634645,1.03601 -2.974098,2.03248 -2.976562,2.21438 -0.0035,0.25791 1.893117,0.33073 8.613516,0.33073 h 8.617997 z m 8.008942,0.2921 c -0.02214,-1.46471 0.311266,-1.78496 2.328189,-2.23633 l 1.397085,-0.31265 -0.15446,-0.95516 c -0.08495,-0.52533 -0.402186,-1.96718 -0.70496,-3.20411 l -0.550499,-2.24896 -1.322917,-0.0547 c -2.12129,-0.0878 -2.97476,-0.31911 -3.828669,-1.03763 -0.670788,-0.56443 -0.801539,-0.86615 -0.801539,-1.84961 v -1.17517 l -2.050521,1.36705 c -1.127786,0.75188 -2.147243,1.4535 -2.265459,1.55915 -0.118216,0.10565 0.203669,1.39472 0.7153,2.8646 0.716337,2.05798 1.748597,6.98631 1.748597,8.34834 0,0.0905 1.239398,0.16448 2.754218,0.16448 h 2.754219 z m -18.851312,-6.29915 c 3.638021,-2.29519 6.768676,-4.31795 6.957011,-4.49504 0.276933,-0.26039 0.120013,-0.62157 -0.820417,-1.88833 -1.756923,-2.36658 -5.003598,-5.43338 -5.367164,-5.06981 -0.376566,0.37657 -8.574638,15.67454 -8.574638,16.00066 0,0.34835 0.07156,0.34965 0.595312,0.0108 0.327422,-0.21185 3.571875,-2.26306 7.209896,-4.55824 z m -16.280209,4.28726 c -0.01341,-0.53226 -8.295084,-15.62308 -8.635836,-15.73617 -0.708968,-0.23532 -6.181026,5.72951 -6.1701785,6.72582 0.00128,0.11712 0.9835408,0.82209 2.1828125,1.56659 1.1992717,0.7445 4.025963,2.53466 6.281536,3.97814 6.418803,4.10776 6.356996,4.07398 6.341666,3.46562 z m 2.918751,-10.6651 v -9.37709 h -0.644161 c -1.887227,0 -8.039398,1.92651 -8.492288,2.6593 -0.07786,0.12599 0.440431,1.27583 1.151769,2.5552 0.711337,1.27937 2.694563,4.91365 4.407169,8.07619 1.712607,3.16254 3.218158,5.68559 3.34567,5.60678 0.127512,-0.0788 0.231841,-4.36298 0.231841,-9.52038 z m 5.380351,5.77031 c 1.089908,-2.00092 3.061993,-5.60256 4.382413,-8.00365 l 2.400762,-4.36563 -1.782284,-0.841 c -1.885518,-0.88972 -4.054318,-1.50678 -6.346347,-1.80565 l -1.389062,-0.18113 v 9.41754 c 0,7.96747 0.05796,9.41754 0.376434,9.41754 0.211191,0 1.246314,-1.59698 2.358084,-3.63802 z M 5.0897701,133.21771 c 1.4524829,-1.91093 3.7007753,-4.28504 4.9518209,-5.22892 l 0.913468,-0.6892 -1.1780515,-2.28404 -1.1780516,-2.28405 -1.2224713,0.15444 c -1.781275,0.22503 -3.8125176,-0.29081 -4.8979798,-1.24386 l -0.9193579,-0.80721 -1.06673854,1.03205 c -0.5867062,0.56762 -1.53343606,1.58507 -2.10384426,2.261 l -1.0371056,1.22896 0.9273944,0.92739 c 0.85087105,0.85087 0.9273945,1.0564 0.9273945,2.49078 0,0.96504 -0.14867575,1.75996 -0.3884604,2.07698 -0.2136532,0.28248 -0.3922469,0.6537 -0.396875,0.82493 -0.010759,0.39809 5.069749,3.58979 5.2941371,3.3259 0.09244,-0.10871 0.7110649,-0.91203 1.374721,-1.78515 z m 43.6776679,0.46302 c 1.314708,-0.83675 2.499691,-1.59485 2.633295,-1.68468 0.138095,-0.0928 0.06089,-0.51532 -0.178909,-0.97905 -0.232004,-0.44865 -0.421826,-1.44104 -0.421826,-2.20533 0,-1.20012 0.113563,-1.50677 0.832841,-2.24888 0.97794,-1.00897 0.995748,-0.9664 -1.584189,-3.78728 -1.722763,-1.88365 -1.405645,-1.83116 -3.614277,-0.59819 -0.502506,0.28053 -1.592184,0.47981 -2.969783,0.5431 l -2.176034,0.1 -1.229826,2.25615 -1.229825,2.25614 0.892317,0.68617 c 1.831628,1.40848 3.893435,3.53834 5.151141,5.32116 0.713585,1.01152 1.344063,1.84429 1.401062,1.85059 0.057,0.006 1.179305,-0.67315 2.494013,-1.50989 z m 12.351311,-2.05052 V 130.175 h -3.571876 -3.571875 v 1.45521 1.45521 h 3.571875 3.571876 z m -44.927921,-6.91819 c 2.275747,-0.87679 3.660141,-1.22816 6.100316,-1.54831 l 1.256771,-0.16488 v -2.99646 -2.99645 L 22.32281,116.8222 c -2.460229,-0.36893 -3.272812,-1.22181 -3.272812,-3.4351 0,-0.66207 -0.07211,-1.20377 -0.160247,-1.20377 -0.479862,0 -3.654091,0.91218 -5.214617,1.49852 l -1.802989,0.67744 0.0832,2.99046 c 0.07886,2.83471 0.05072,3.0251 -0.540468,3.65561 -0.343016,0.36583 -0.581141,0.76295 -0.529167,0.8825 0.05198,0.11954 0.558827,1.08644 1.126339,2.14867 0.797883,1.49341 1.127834,1.88942 1.455209,1.74651 0.232852,-0.10164 1.45846,-0.5836 2.723573,-1.07102 z m 21.832178,-0.79496 1.113633,-2.00654 -0.782904,-0.78291 c -0.780113,-0.78011 -0.782904,-0.79417 -0.782904,-3.9441 v -3.16119 l -0.727604,-0.27881 c -1.241075,-0.47557 -5.459257,-1.55881 -6.072791,-1.55951 -0.529664,-6.1e-4 -0.589856,0.14898 -0.661459,1.6438 -0.07306,1.52518 -0.141594,1.68671 -0.944829,2.22674 -0.476332,0.32026 -1.339535,0.66227 -1.918229,0.76004 l -1.052171,0.17777 v 3.00324 3.00324 l 1.256771,0.1582 c 2.253743,0.28371 4.534016,0.89728 6.752347,1.8169 1.197537,0.49645 2.296403,0.91322 2.441924,0.92616 0.145521,0.0129 0.765718,-0.87943 1.378216,-1.98303 z M 9.3265601,116.94945 c 0.7051179,-0.004 0.7276039,-0.0486 0.7276039,-1.45883 v -1.4552 H 6.3499975 2.6458308 v 1.4552 1.45521 h 1.5566413 c 1.3341257,0 1.5764222,-0.0756 1.6950215,-0.52916 0.1373503,-0.52523 0.7170873,-0.75442 0.7170873,-0.28349 0,0.51637 0.883158,1.1155 1.4285055,0.9691 0.3057282,-0.0821 0.8832914,-0.15085 1.2834737,-0.15283 z M 42.711613,116.6275 c 0.404358,-0.5773 0.412919,-0.57793 0.889727,-0.0661 0.363705,0.39039 0.833682,0.51676 1.92182,0.51676 h 1.44038 l 0.07935,-1.52135 0.07935,-1.52135 h -3.849662 -3.849662 v 1.43316 c 0,1.59294 0.09934,1.68948 1.770934,1.72095 0.85815,0.0161 1.201965,-0.11116 1.517764,-0.56203 z m -18.369948,-6.42854 c 0.174562,-1.3965 0.639989,-1.35506 0.742817,0.0661 l 0.08136,1.12448 H 26.870421 28.575 V 109.66979 107.95 H 24.60625 20.6375 v 1.73188 1.73188 l 1.785937,-0.0782 1.785938,-0.0782 z"
       id="path4" /><path
       style="fill:#000000"
       d="m 166.96054,239.85848 c -0.31939,-0.51678 -1.10768,-1.37142 -1.75177,-1.8992 l -1.17106,-0.9596 1.72177,-1.67991 c 0.94697,-0.92396 1.72177,-1.80186 1.72177,-1.95089 0,-0.5989 0.6117,-0.18348 2.37901,1.61566 l 1.85325,1.88663 -1.77033,1.88369 c -0.97367,1.03602 -1.91243,1.91958 -2.08613,1.96345 -0.17369,0.0439 -0.57712,-0.34305 -0.89651,-0.85983 z"
       id="path3" /><path
       style="fill:#000000"
       d="m 131.61926,242.9361 c -1.23713,-0.58134 -2.43476,-1.89444 -2.65706,-2.91326 -0.0849,-0.38897 -0.20506,-0.86879 -0.26708,-1.06628 -0.1782,-0.56745 0.37042,-2.28269 0.97662,-3.05336 1.80248,-2.29148 6.03118,-2.48658 8.33462,-0.38453 l 0.55532,0.50677 0.58494,-1.52991 c 1.89884,-4.96642 4.62139,-11.16867 4.95957,-11.29844 0.21697,-0.0833 1.07051,0.16189 1.89676,0.54478 0.82624,0.38289 2.57382,1.14869 3.88351,1.70178 3.21069,1.35588 3.2949,1.5153 2.1395,4.05067 -0.50686,1.11222 -1.09337,2.08815 -1.30336,2.16873 -0.20999,0.0806 -1.84263,-0.52191 -3.62809,-1.33887 -1.92911,-0.88269 -3.31284,-1.37772 -3.4103,-1.22002 -0.0902,0.14595 -1.09096,2.6223 -2.2239,5.503 -2.65292,6.74553 -2.74698,6.92756 -4.05197,7.84129 -1.46498,1.02577 -4.1607,1.25284 -5.78908,0.48765 z"
       id="path2" /><path
       style="fill:#000000"
       d="m 125.18518,246.92874 -1.40343,-1.51502 1.19685,-1.13082 c 1.51485,-1.43128 2.50788,-1.51571 3.63504,-0.30908 0.42218,0.45195 0.76761,1.0605 0.76761,1.35234 0,0.6018 -2.0007,3.11759 -2.47929,3.11759 -0.17234,0 -0.94489,-0.68175 -1.71678,-1.51501 z"
       id="path1" /></g></svg>
