<?xml version="1.0" encoding="UTF-8" standalone="no"?>
<!-- Created with Inkscape (http://www.inkscape.org/) -->

<svg
   width="321.07867mm"
   height="320.99481mm"
   viewBox="0 0 321.07867 320.99481"
   version="1.1"
   id="svg1"
   xml:space="preserve"
   sodipodi:docname="stamp_goal_apple_2.svg"
   inkscape:version="1.4.4 (dcaf3e7, 2026-05-05)"
   xmlns:inkscape="http://www.inkscape.org/namespaces/inkscape"
   xmlns:sodipodi="http://sodipodi.sourceforge.net/DTD/sodipodi-0.dtd"
   xmlns="http://www.w3.org/2000/svg"
   xmlns:svg="http://www.w3.org/2000/svg"><sodipodi:namedview
     id="namedview1"
     pagecolor="#ffffff"
     bordercolor="#000000"
     borderopacity="0.25"
     inkscape:showpageshadow="2"
     inkscape:pageopacity="0.0"
     inkscape:pagecheckerboard="0"
     inkscape:deskcolor="#d1d1d1"
     inkscape:document-units="mm"
     inkscape:zoom="0.021430772"
     inkscape:cx="606.60437"
     inkscape:cy="583.27344"
     inkscape:window-width="944"
     inkscape:window-height="250"
     inkscape:window-x="0"
     inkscape:window-y="33"
     inkscape:window-maximized="0"
     inkscape:current-layer="layer1"><inkscape:page
       x="1.6855109e-20"
       y="0"
       width="321.07867"
       height="320.99481"
       id="page2"
       margin="0"
       bleed="0" /></sodipodi:namedview><defs
     id="defs1" /><g
     inkscape:label="Layer 1"
     inkscape:groupmode="layer"
     id="layer1"
     transform="translate(49.824527,-3.8817964)"><path
       style="fill:#000000"
       d="m 150.33852,57.759966 c -0.0695,-0.117198 -0.21392,-0.748868 -0.32085,-1.403712 -0.6556,-4.015028 -2.57217,-6.195058 -6.41507,-7.296898 -0.1819,-0.05215 -0.33073,-0.320736 -0.33073,-0.596846 0,-0.370347 0.39903,-0.647745 1.52136,-1.057621 2.66371,-0.972792 4.51693,-3.380467 5.20739,-6.765361 0.2541,-1.245707 0.43622,-1.613482 0.79901,-1.613482 0.36301,0 0.583,0.445362 0.96712,1.95795 0.27348,1.076872 0.79489,2.465861 1.15869,3.086641 0.8918,1.521744 2.63859,2.967717 4.09667,3.391174 0.86083,0.250005 1.22159,0.501126 1.27983,0.890889 0.0663,0.44372 -0.17127,0.626581 -1.30207,1.002174 -1.60492,0.533067 -3.47775,2.140207 -4.24376,3.641706 -0.28893,0.566354 -0.74133,1.881393 -1.00533,2.922309 -0.30586,1.206005 -0.62615,1.921883 -0.8829,1.973369 -0.22161,0.04444 -0.45982,-0.01509 -0.52936,-0.132292 z m 1.24403,-5.962918 c 0.29759,-0.808804 0.88814,-1.628226 1.66848,-2.315104 l 1.20785,-1.06319 -1.20273,-1.058678 c -0.77342,-0.680792 -1.41513,-1.571165 -1.79781,-2.494451 l -0.5951,-1.435773 -0.7134,1.508479 c -0.68322,1.444671 -2.151,3.21584 -2.66498,3.21584 -0.47868,0 -0.23308,0.445719 0.44579,0.80904 0.81309,0.43515 1.99992,2.091695 2.5006,3.490266 0.40587,1.133729 0.51565,1.071138 1.1513,-0.656429 z"
       id="path61" /><path
       style="fill:#000000"
       d="m 72.251065,57.897163 c -0.06098,-0.192656 -0.182611,-0.783607 -0.270286,-1.313223 -0.08767,-0.529617 -0.52765,-1.699857 -0.977723,-2.600533 -0.927315,-1.855722 -2.183713,-2.921686 -4.064211,-3.448193 -1.6929,-0.473982 -1.568254,-1.195066 0.328498,-1.900383 2.331693,-0.867053 3.56205,-2.37793 4.453617,-5.469038 0.453848,-1.573514 0.691343,-2.02308 1.068747,-2.02308 0.365657,0 0.533357,0.281908 0.680524,1.143981 0.503195,2.947609 2.407548,5.46355 4.815276,6.361713 1.818983,0.678541 1.804167,1.248931 -0.05041,1.94075 -1.47807,0.551369 -2.946189,1.813239 -3.61553,3.107601 -0.219484,0.424435 -0.611403,1.582333 -0.870932,2.573105 -0.329302,1.257135 -0.610071,1.82802 -0.929281,1.889494 -0.251576,0.04845 -0.507305,-0.06954 -0.568287,-0.262194 z m 2.638833,-7.255375 1.083442,-1.084257 -0.989281,-0.830552 c -0.544105,-0.456804 -1.280643,-1.443583 -1.636751,-2.192843 l -0.64747,-1.362291 -0.666116,1.454989 c -0.371497,0.811456 -1.080701,1.785795 -1.603466,2.202919 l -0.93735,0.747929 1.144147,1.007119 c 0.62928,0.553915 1.364038,1.538765 1.632794,2.188556 l 0.488647,1.181437 0.523981,-1.114374 c 0.28819,-0.612906 1.01153,-1.60229 1.607423,-2.198632 z"
       id="path60" /><path
       style="fill:#000000"
       d="m 184.34642,70.248448 c -0.85344,-0.370911 -1.38705,-1.251166 -1.38705,-2.288105 0,-0.817443 1.41101,-2.079089 2.32522,-2.079089 2.42665,0 3.17944,3.464558 0.95477,4.394085 -1.03727,0.433398 -0.82697,0.436386 -1.89294,-0.02689 z"
       id="path59" /><path
       style="fill:#000000"
       d="m 40.178831,70.381398 c -0.802225,-0.323738 -1.418813,-1.305719 -1.408958,-2.243912 0.01985,-1.889746 2.252843,-2.918849 3.76038,-1.73302 0.831914,0.654384 1.053276,1.732462 0.58557,2.851841 -0.491665,1.176718 -1.680519,1.63214 -2.936992,1.125091 z"
       id="path58" /><path
       style="fill:#000000"
       d="m 139.66216,73.826679 c -1.30167,-0.538372 -1.80173,-2.25185 -0.99379,-3.405337 0.61292,-0.875073 1.58722,-1.176482 2.65927,-0.822674 1.0364,0.342044 1.41507,0.923311 1.41507,2.172196 0,1.483339 -1.70829,2.623376 -3.08055,2.055815 z"
       id="path57" /><path
       style="fill:#000000"
       d="m 122.41487,78.382816 c -0.13908,-0.270428 -0.14304,-1.288421 -0.01,-2.447396 0.12574,-1.091406 0.59051,-5.199062 1.03283,-9.128125 1.18909,-10.562616 3.42142,-29.278251 3.57507,-29.973059 0.27867,-1.260151 2.55459,-1.44822 3.00354,-0.248196 0.12784,0.341699 0.0675,1.806814 -0.14417,3.49834 -1.45951,11.665537 -5.37642,38.013671 -5.71312,38.430727 -0.39146,0.484886 -1.46926,0.403159 -1.74463,-0.132291 z"
       id="path56" /><path
       style="fill:#000000"
       d="m 81.888542,79.188147 c -1.473742,-0.538734 -2.191399,-2.358258 -1.475886,-3.741908 0.511309,-0.988763 1.149743,-1.362902 2.325662,-1.362902 1.188325,0 1.985002,0.609892 2.303513,1.763443 0.559919,2.02786 -1.314126,4.013683 -3.153289,3.341367 z"
       id="path55" /><path
       style="fill:#000000"
       d="M 98.348088,80.367191 C 97.841587,79.755818 89.737659,39.3492 89.946434,38.476094 c 0.163553,-0.683986 1.29132,-1.224041 2.121163,-1.015763 0.345851,0.0868 0.743758,0.470449 0.893142,0.861131 0.605809,1.584375 7.184051,39.253308 7.184051,41.137977 0,1.152969 -1.12335,1.720522 -1.796702,0.907752 z"
       id="path54" /><path
       style="fill:#000000"
       d="m 154.70187,85.407503 c -0.17462,-0.174625 -0.3175,-0.505339 -0.3175,-0.73492 0,-0.598704 8.36521,-15.823515 14.86776,-27.059558 2.01797,-3.486939 2.14083,-3.638021 2.95862,-3.638021 1.05243,0 1.48821,0.406698 1.48821,1.388913 0,0.649033 -6.30362,11.514973 -16.07835,27.715253 -1.57,2.602058 -2.16799,3.079083 -2.91874,2.328333 z"
       id="path53" /><path
       style="fill:#000000"
       d="M 69.842471,87.656551 C 68.550594,85.648314 66.880822,83.052711 66.131867,81.888545 65.382911,80.724378 62.927878,76.914378 60.676235,73.421878 48.780488,54.970501 49.019093,55.396834 50.025149,54.390778 c 0.432169,-0.432169 1.615394,-0.550695 2.129188,-0.213285 0.479011,0.314568 12.04169,19.029162 18.723854,30.305205 3.405832,5.747285 3.673023,6.594733 2.126854,6.745728 -0.778843,0.07606 -0.914342,-0.07698 -3.162574,-3.571875 z"
       id="path52" /><path
       style="fill:#000000"
       d="m 22.082078,95.243432 c -0.197735,-0.122207 -0.509776,-0.958814 -0.693424,-1.859127 -0.802667,-3.934993 -3.288159,-7.265938 -6.264801,-8.395808 -0.849694,-0.322526 -1.759238,-0.586411 -2.02121,-0.586411 -0.261971,0 -0.75353,-0.224478 -1.092354,-0.498841 -0.812858,-0.658212 -0.400306,-1.182509 1.259305,-1.600404 4.065713,-1.023759 6.810467,-4.187827 7.997788,-9.219605 0.429487,-1.820133 0.548702,-2.042607 1.094551,-2.042607 0.546584,0 0.65266,0.199504 0.984751,1.852083 0.961801,4.786201 3.350447,7.817932 7.26317,9.218603 1.421177,0.508751 1.669313,0.692195 1.669313,1.234103 0,0.516575 -0.202146,0.69505 -1.07272,0.947105 -4.353646,1.260497 -7.081022,4.685062 -7.916166,9.939746 -0.161225,1.014415 -0.603726,1.384751 -1.208203,1.011163 z m 0.783305,-6.279567 c 0.547384,-1.658593 2.18338,-3.844959 3.512439,-4.69407 0.683323,-0.436563 1.24887,-0.855972 1.256771,-0.93202 0.0079,-0.07605 -0.410183,-0.366905 -0.929076,-0.646348 -0.518893,-0.279442 -1.293687,-0.906984 -1.721765,-1.394537 -0.860802,-0.9804 -2.361876,-3.79451 -2.361876,-4.427883 0,-0.80434 -0.414666,-0.377096 -0.865218,0.891462 -0.675409,1.901657 -2.042802,3.754796 -3.436484,4.657242 -0.674199,0.436563 -1.232281,0.855972 -1.240182,0.932021 -0.0079,0.07605 0.408359,0.365922 0.925023,0.644164 0.516664,0.278242 1.345929,0.955886 1.842812,1.505876 0.962805,1.06571 2.244882,3.380363 2.244882,4.052893 0,0.750589 0.441726,0.41398 0.772674,-0.5888 z"
       id="path51" /><path
       style="fill:#000000"
       d="m 200.97802,95.183857 c -0.12444,-0.327422 -0.36579,-1.190625 -0.53633,-1.918229 -0.90207,-3.84864 -3.41604,-6.446825 -7.16357,-7.403539 -0.99057,-0.252884 -1.19062,-0.409287 -1.19062,-0.930836 0,-0.521232 0.20066,-0.678466 1.19062,-0.932976 3.62888,-0.932945 6.18115,-3.758927 7.16245,-7.930565 0.48284,-2.05261 0.73432,-2.560192 1.22192,-2.466236 0.31595,0.06088 0.56144,0.647784 0.86556,2.069361 0.96028,4.488699 3.27142,7.229934 7.00756,8.311647 0.86075,0.24921 1.07272,0.433215 1.07272,0.9312 0,0.494944 -0.21431,0.68468 -1.05833,0.936963 -1.61899,0.483927 -3.07481,1.310389 -4.14743,2.354476 -1.18512,1.153594 -2.50438,3.77225 -2.85966,5.676281 -0.14466,0.775239 -0.33091,1.519379 -0.41389,1.653645 -0.27692,0.448069 -0.92204,0.251231 -1.151,-0.351192 z m 2.68692,-8.281348 c 0.37592,-0.443778 1.1097,-1.0364 1.63063,-1.316938 0.52092,-0.280538 0.94622,-0.572291 0.9451,-0.648339 -0.001,-0.07605 -0.47195,-0.406597 -1.04629,-0.734551 -1.16521,-0.665352 -2.50824,-2.452039 -3.18672,-4.239422 l -0.44809,-1.180438 -0.84855,1.813323 c -0.99782,2.132282 -1.36289,2.583158 -2.87783,3.554253 l -1.13348,0.726571 0.91654,0.566454 c 1.29071,0.797708 2.50897,2.264242 3.28008,3.948565 l 0.66024,1.442172 0.71244,-1.562391 c 0.39184,-0.859314 1.02001,-1.925481 1.39593,-2.369259 z"
       id="path50" /><path
       style="fill:#000000"
       d="m 171.89979,105.78042 c -0.17462,-0.17463 -0.3175,-0.52081 -0.3175,-0.76929 0,-0.73408 9.59624,-9.871715 10.86596,-10.346661 0.79037,-0.295648 1.96102,0.837321 1.74686,1.690632 -0.21963,0.875069 -10.60619,9.742819 -11.41151,9.742819 -0.31147,0 -0.70918,-0.14288 -0.88381,-0.3175 z"
       id="path49" /><path
       style="fill:#000000"
       d="m 52.784375,105.38168 c -5.445579,-4.1773 -10.38777,-8.178764 -10.606609,-8.587669 -0.35851,-0.669883 -0.08135,-1.463253 0.687059,-1.966737 0.958922,-0.628309 0.831532,-0.718285 8.795071,6.211966 3.786693,3.29537 4.255243,3.93875 3.452813,4.74118 -0.507157,0.50716 -1.331418,0.366 -2.328334,-0.39874 z"
       id="path48" /><path
       style="fill:#000000"
       d="m 36.777084,118.22509 c -8.11814,-4.48933 -11.735872,-6.61921 -11.87967,-6.99394 -0.413853,-1.07848 0.223885,-1.95823 1.419542,-1.95823 0.662019,0 8.055007,4.23429 13.568982,7.77155 1.558262,0.99964 1.929443,1.76869 1.203854,2.49428 -0.56437,0.56437 -1.348576,0.3255 -4.312708,-1.31366 z"
       id="path47" /><path
       style="fill:#000000"
       d="m 184.02056,120.52115 c -0.59805,-0.72062 -0.0602,-1.55708 1.78013,-2.76848 8.82693,-5.8103 10.69914,-6.92196 11.52245,-6.84166 0.57537,0.0561 0.93781,0.2836 1.15735,0.7264 0.41418,0.83539 0.0995,1.42418 -1.19956,2.24422 -4.35923,2.75186 -11.87766,7.03296 -12.35123,7.03296 -0.32044,0 -0.72955,-0.17705 -0.90914,-0.39344 z"
       id="path46" /><path
       style="fill:#000000"
       d="m 121.57604,125.40504 c -1.52797,-0.27165 -3.90922,-0.84394 -5.29167,-1.27177 l -2.51354,-0.77786 0.0209,-4.06468 c 0.0233,-4.53611 0.423,-7.014 1.73402,-10.74949 2.97661,-8.48121 8.65341,-14.436774 16.60962,-17.425249 7.39641,-2.778201 17.1096,-2.898635 25.88706,-0.320975 2.23453,0.656212 2.18945,0.52069 1.52859,4.595169 -1.27814,7.880295 -5.19293,16.130625 -10.3089,21.725775 -3.98207,4.35504 -9.57335,7.40577 -15.46373,8.43736 -3.07019,0.53769 -8.73073,0.4689 -12.20232,-0.14828 z m 2.31622,-10.79135 c 2.58238,-1.86476 7.25508,-5.15161 10.38378,-7.30413 6.47636,-4.45566 5.96102,-4.07007 5.73781,-4.29327 -0.2578,-0.2578 -3.438,0.85056 -6.24056,2.17496 -4.89793,2.3146 -9.89108,6.20669 -13.08709,10.20121 -1.611,2.0135 -1.98265,2.61171 -1.62258,2.61171 0.0734,0 2.24626,-1.52571 4.82864,-3.39048 z"
       id="path45" /><path
       style="fill:#000000"
       d="m -1.9020971,127.99219 c -0.1359049,-0.1819 -0.4485541,-1.20227 -0.694776,-2.2675 -0.6407617,-2.7721 -1.6694321,-4.72107 -3.3974935,-6.43706 -1.4512682,-1.44112 -3.6702794,-2.60638 -4.9633694,-2.60638 -0.267764,0 -0.630317,-0.17287 -0.805673,-0.38416 -0.64872,-0.78166 -0.192541,-1.27522 1.7890365,-1.93561 3.65234,-1.21722 6.1314571,-4.30916 7.2292353,-9.01627 0.5631968,-2.4149 0.9862372,-3.00371 1.72034,-2.39446 0.19983677,0.16585 0.36333956,0.57848 0.36333956,0.91695 0,1.18709 1.32724774,4.80071 2.33715734,6.36324 1.4645484,2.26594 4.3131482,4.3101 6.0309666,4.32783 0.3096036,0.003 0.7063884,0.17869 0.881744,0.38998 0.6173316,0.74384 0.1903897,1.29544 -1.4461148,1.86837 -2.3183584,0.81163 -3.0713579,1.27037 -4.3343641,2.64057 -1.3609676,1.47647 -2.51013446,3.83613 -3.09371708,6.35252 -0.58974377,2.54296 -0.57774867,2.51271 -0.99642952,2.51271 -0.2050302,0 -0.483977,-0.14883 -0.6198819,-0.33073 z m 0.7114728,-5.84472 c 0,-1.37132 2.7940713,-5.11721 4.6331487,-6.21145 0.5252461,-0.31252 0.5252461,-0.31368 0,-0.6262 -1.9278477,-1.14706 -4.6331487,-4.85118 -4.6331487,-6.34374 0,-0.94918 -0.4658519,-0.4661 -1.0223554,1.06016 -0.7389326,2.0266 -1.8536404,3.53066 -3.4856241,4.70313 l -1.3247293,0.95172 1.1304169,0.71827 c 0.6217293,0.39506 1.5330307,1.17785 2.0251142,1.73955 0.8757181,0.99961 2.1402997,3.37646 2.1454263,4.03245 0.00142,0.1819 0.1216472,0.33073 0.2671681,0.33073 0.1455208,0 0.2645833,-0.15958 0.2645833,-0.35462 z"
       id="path44" /><path
       style="fill:#000000"
       d="m 222.50133,129.44335 c -0.15281,-0.10692 -0.47282,-1.10949 -0.71114,-2.22794 -0.70959,-3.33021 -2.36663,-6.14961 -4.51443,-7.68118 -0.46563,-0.33203 -1.73956,-0.90691 -2.83097,-1.2775 -1.7082,-0.58003 -1.98437,-0.75953 -1.98437,-1.28974 0,-0.52544 0.26601,-0.70552 1.81071,-1.22577 3.12366,-1.05204 4.68912,-2.46829 6.28605,-5.68692 0.45273,-0.91249 1.01568,-2.59017 1.251,-3.72817 0.64456,-3.11718 1.53449,-3.10197 2.12852,0.0364 0.41454,2.19009 1.81207,5.18094 3.07311,6.57677 1.21561,1.34553 2.43498,2.11068 4.49315,2.81941 1.34455,0.46299 1.59496,0.64725 1.59496,1.17367 0,0.51319 -0.23627,0.70475 -1.32601,1.07517 -2.21922,0.75434 -3.39131,1.47182 -4.71349,2.88534 -1.51162,1.61605 -2.38963,3.41381 -2.97999,6.10166 -0.24038,1.09442 -0.47849,2.13868 -0.52913,2.32059 -0.10183,0.36579 -0.61813,0.42897 -1.04797,0.12824 z m 0.99821,-6.87888 c 0.68079,-1.91681 1.92722,-3.61242 3.37967,-4.5976 0.72065,-0.48881 1.31072,-0.94827 1.31128,-1.02103 5.5e-4,-0.0728 -0.54689,-0.48948 -1.21653,-0.92605 -1.30088,-0.84808 -3.02573,-3.20272 -3.55103,-4.84759 -0.356,-1.11474 -0.77606,-1.68941 -0.77606,-1.0617 0,0.22783 -0.41792,1.24962 -0.92872,2.27064 -0.85141,1.70187 -2.39579,3.47146 -3.71628,4.25823 -0.50773,0.30251 -0.50753,0.31035 0.0148,0.60687 1.35737,0.77057 3.50476,3.34212 4.12364,4.93814 0.34989,0.90234 0.69812,1.64062 0.77384,1.64062 0.0757,0 0.33915,-0.56724 0.58539,-1.26053 z"
       id="path43" /><path
       style="fill:#000000"
       d="m -17.681563,138.10104 c -1.404037,-1.10442 -1.032867,-3.8035 0.617027,-4.48691 2.531691,-1.04866 4.625566,2.29367 2.665098,4.25414 -0.942057,0.94206 -2.261452,1.03563 -3.282125,0.23277 z"
       id="path42" /><path
       style="fill:#000000"
       d="m 235.69844,139.30788 c -1.03115,-0.44065 -1.4099,-1.10617 -1.4099,-2.47738 0,-0.85014 0.15633,-1.18375 0.81405,-1.73719 1.36496,-1.14854 3.04592,-0.85153 3.83684,0.67793 1.11612,2.15834 -1.01766,4.48678 -3.24099,3.53664 z"
       id="path41" /><path
       style="fill:#000000"
       d="m 200.24377,151.9125 c -0.14432,-0.0957 -0.40173,-0.88833 -0.57201,-1.76146 -0.73385,-3.76277 -3.12847,-6.82169 -6.02401,-7.69512 -1.96113,-0.59157 -2.49919,-1.01465 -1.94768,-1.53148 0.21309,-0.19968 0.97843,-0.55832 1.70076,-0.79696 0.72233,-0.23865 1.75773,-0.74187 2.30088,-1.11827 1.7936,-1.24297 3.59707,-4.43461 4.04885,-7.16533 0.19706,-1.19114 0.63466,-1.75399 1.12706,-1.44967 0.16814,0.10392 0.48209,1.03485 0.69766,2.06875 0.89731,4.30353 3.02689,6.83043 6.63742,7.87577 0.75461,0.21848 1.07272,0.4555 1.07272,0.79928 0,0.54857 -0.23286,0.69865 -2.1159,1.36372 -1.74583,0.61661 -3.87358,2.64004 -4.63335,4.40618 -0.32216,0.74887 -0.77508,2.16835 -1.00649,3.15441 -0.40744,1.73609 -0.73881,2.21287 -1.28591,1.85018 z m 3.02925,-9.34935 c 0.57347,-0.5181 1.20836,-1.01015 1.41087,-1.09346 0.2834,-0.11659 0.24633,-0.22496 -0.16097,-0.47059 -1.15955,-0.69928 -2.71084,-2.60765 -3.3003,-4.05998 l -0.62224,-1.53312 -0.70504,1.55169 c -0.69253,1.52414 -1.86994,2.9634 -3.17763,3.8843 -0.50496,0.3556 -0.57215,0.50361 -0.284,0.62558 0.9652,0.40854 2.73897,2.41478 3.39112,3.83557 l 0.71442,1.55644 0.84555,-1.67722 c 0.46505,-0.92247 1.31475,-2.10112 1.88822,-2.61921 z"
       id="path40" /><path
       style="fill:#000000"
       d="m 20.296699,151.80469 c -0.150317,-0.1819 -0.35931,-0.80698 -0.464429,-1.38906 -0.242791,-1.34442 -1.518392,-4.19898 -2.382819,-5.3323 -0.967602,-1.26859 -2.767569,-2.41137 -4.514978,-2.86651 -0.840977,-0.21905 -1.651812,-0.52103 -1.801855,-0.67108 -0.449783,-0.44978 0.163732,-1.10204 1.372208,-1.45886 3.565768,-1.05284 5.793028,-3.69946 6.963003,-8.27401 0.283522,-1.10856 0.627872,-2.12794 0.765223,-2.2653 0.458817,-0.45881 0.991809,0.33616 1.310115,1.95408 0.846136,4.30082 3.230491,7.27487 6.724106,8.3871 2.340176,0.74502 2.253165,1.49318 -0.268482,2.30854 -1.855136,0.59984 -3.314324,1.71016 -4.445942,3.38299 -0.933266,1.37961 -1.989307,4.21411 -1.989307,5.33947 0,0.55807 -0.440463,1.21567 -0.81427,1.21567 -0.0986,0 -0.302256,-0.14883 -0.452573,-0.33073 z m 0.86021,-5.95616 c 0.235478,-1.04518 1.842958,-3.13897 3.051519,-3.97471 0.571559,-0.39523 1.039198,-0.77814 1.039198,-0.8509 0,-0.0728 -0.456583,-0.4478 -1.014628,-0.83342 -1.326153,-0.91639 -2.314522,-2.23852 -3.07835,-4.11787 -0.493376,-1.21393 -0.653857,-1.41592 -0.792452,-0.99743 -0.661286,1.99677 -1.842757,3.90365 -2.979014,4.8081 -0.683979,0.54444 -1.303129,1.0401 -1.37589,1.10147 -0.07276,0.0614 0.04374,0.17382 0.258898,0.24986 0.955744,0.33782 3.177781,2.81476 3.738321,4.16716 0.626248,1.51094 0.88979,1.61333 1.152398,0.44774 z"
       id="path39" /><path
       style="fill:#000000"
       d="m 223.86023,176.42949 c -0.059,-0.1921 -0.30353,-1.18272 -0.54349,-2.20137 -1.15611,-4.90767 -3.68549,-7.93476 -7.54903,-9.03444 -2.49248,-0.70943 -2.75576,-1.65539 -0.61104,-2.19544 4.18814,-1.05459 7.02069,-4.40867 8.2363,-9.75279 0.39023,-1.71559 0.5539,-2.04919 1.03979,-2.1194 0.44686,-0.0646 0.61383,0.0843 0.7418,0.66146 1.52064,6.85823 3.41262,9.48952 7.87705,10.95509 0.9537,0.31308 1.80281,0.74854 1.88691,0.96769 0.21455,0.5591 -0.27768,1.05942 -1.25302,1.27364 -1.61465,0.35464 -3.12135,1.17212 -4.44869,2.41368 -2.0754,1.9413 -3.12612,4.02343 -3.78073,7.49197 -0.27332,1.44825 -0.41647,1.73317 -0.90661,1.8045 -0.32013,0.0466 -0.63028,-0.0725 -0.68924,-0.26459 z m 0.90331,-5.92869 c 0,-1.42312 3.1229,-5.62585 4.50673,-6.06506 0.72431,-0.22988 0.64945,-0.57831 -0.22097,-1.02842 -1.58255,-0.81837 -4.28576,-4.63565 -4.28576,-6.05205 0,-0.96629 -0.4226,-0.58122 -0.97512,0.88852 -0.79,2.10146 -2.26875,4.09791 -3.71425,5.01463 l -1.14946,0.72896 0.86889,0.53965 c 1.85952,1.15489 3.8169,3.84017 4.32179,5.92895 0.17702,0.73233 0.64815,0.7649 0.64815,0.0448 z"
       id="path38" /><path
       style="fill:#000000"
       d="m -3.7589262,176.41094 c -0.138515,-0.1819 -0.3866287,-1.08905 -0.5513636,-2.01587 -0.3345955,-1.8825 -1.4958929,-4.5565 -2.6204288,-6.0338 -0.957191,-1.25746 -3.5920484,-2.95959 -4.9068284,-3.16984 -1.289922,-0.20626 -2.145967,-0.86442 -1.913222,-1.47094 0.100167,-0.26103 0.798862,-0.62886 1.669835,-0.87909 4.0960994,-1.1768 6.7091222,-4.47082 7.7903435,-9.82063 0.3265027,-1.61552 0.4327255,-1.81139 0.9823166,-1.81139 0.5566001,0 0.6730796,0.23177 1.2037879,2.39529 0.3231587,1.31741 0.9091211,3.02986 1.30213868,3.80545 1.36706633,2.69777 4.13337712,4.99882 6.54760872,5.44638 0.5405184,0.1002 1.1193855,0.34681 1.2863713,0.54802 0.3468338,0.41791 0.1544634,1.13042 -0.3449018,1.27747 -4.9816759,1.46697 -7.38826949,3.99874 -8.571167,9.01697 -0.2401152,1.01864 -0.5368714,2.11997 -0.6594583,2.44739 -0.2450676,0.65456 -0.8223456,0.78027 -1.2150318,0.26459 z M 0.15645581,165.5254 c 0.74579145,-0.67053 1.52170119,-1.21915 1.72424379,-1.21915 0.6672203,0 0.3770251,-0.38493 -0.93864522,-1.24506 -1.52684773,-0.9982 -2.81724108,-2.76733 -3.60468198,-4.94203 -0.6027524,-1.66465 -0.6346961,-1.66543 -1.1482477,-0.0283 -0.4892458,1.55961 -2.1058743,3.82109 -3.4651656,4.84736 -0.6548438,0.49441 -1.2211509,0.97699 -1.2584604,1.07241 -0.037309,0.0954 0.3622042,0.40509 0.8878082,0.68814 1.6028525,0.8632 3.0698907,2.86016 4.0740094,5.54562 l 0.2911763,0.77874 1.0409894,-2.13928 c 0.7403208,-1.52139 1.43263775,-2.4914 2.39697381,-3.35842 z"
       id="path37" /><path
       style="fill:#000000"
       d="m 236.69891,187.76267 c -1.3443,-0.77304 -1.69773,-2.38102 -0.8345,-3.79675 1.06271,-1.74289 3.94143,-1.35432 4.48244,0.60505 0.29349,1.06294 -0.0614,2.3243 -0.83434,2.96527 -0.62546,0.51868 -2.09914,0.63728 -2.8136,0.22643 z"
       id="path36" /><path
       style="fill:#000000"
       d="m -17.085977,187.87452 c -1.929439,-1.92944 0.06643,-5.12032 2.641273,-4.22273 1.850002,0.64492 2.193344,3.416 0.577008,4.65698 -0.230892,0.17728 -0.875446,0.3261 -1.432343,0.33073 -0.77306,0.006 -1.19546,-0.1745 -1.785938,-0.76498 z"
       id="path35" /><path
       style="fill:#000000"
       d="m 24.639926,195.38714 c -0.09128,-0.23788 -0.165967,-0.64835 -0.165967,-0.91216 0,-1.08607 -1.131638,-4.02446 -2.119816,-5.50426 -1.255639,-1.88034 -3.24249,-3.33365 -5.25275,-3.84222 -2.504981,-0.63372 -2.293106,-1.4931 0.600461,-2.43552 3.085638,-1.00498 5.791995,-4.50362 6.547949,-8.46486 0.576817,-3.02255 1.407458,-3.04512 2.112037,-0.0574 1.161775,4.92644 3.948965,8.12234 7.76941,8.90868 0.604868,0.12449 0.812979,0.32708 0.874554,0.85134 0.07508,0.63927 -0.04996,0.72769 -1.766482,1.24907 -1.419436,0.43114 -2.176114,0.86162 -3.267032,1.85866 -1.774364,1.62167 -2.696492,3.29695 -3.459597,6.28524 -0.494747,1.9374 -0.691109,2.34932 -1.151623,2.41579 -0.3254,0.047 -0.623867,-0.0989 -0.721144,-0.35237 z m 2.419751,-8.37164 c 0.816965,-1.18742 2.421741,-2.60092 2.952878,-2.60092 0.568317,0 0.255117,-0.45894 -0.859434,-1.25935 -1.36787,-0.98233 -2.383121,-2.38729 -3.228958,-4.46843 -0.503983,-1.24002 -0.661154,-1.43738 -0.808074,-1.01469 -1.000749,2.8792 -2.271269,4.63615 -4.305482,5.95389 l -0.620644,0.40205 1.321807,0.8565 c 1.086621,0.70411 2.962189,2.95552 2.962189,3.55578 0,0.0786 0.191531,0.60136 0.425625,1.16163 l 0.425625,1.01866 0.459019,-1.20924 c 0.25246,-0.66508 0.826412,-1.74323 1.275449,-2.39588 z"
       id="path34" /><path
       style="fill:#000000"
       d="m 197.58309,196.51587 c -0.13866,-0.18003 -0.44639,-1.13704 -0.68386,-2.1267 -1.07362,-4.47441 -3.26789,-7.05951 -7.02575,-8.27712 -1.48931,-0.48256 -1.75473,-0.66054 -1.75473,-1.17663 0,-0.50655 0.2672,-0.70019 1.60038,-1.15977 3.90538,-1.34628 5.7857,-3.61384 7.09896,-8.56094 0.49455,-1.86295 0.70893,-2.3095 1.10878,-2.3095 0.40123,0 0.60733,0.43647 1.08164,2.29069 1.25578,4.90925 3.30299,7.39037 7.12065,8.62989 1.30305,0.42307 1.56876,0.61074 1.56876,1.10805 0,0.49685 -0.25497,0.6776 -1.49851,1.06236 -0.82417,0.255 -1.91399,0.72043 -2.42182,1.03429 -2.19027,1.35366 -4.10696,4.44692 -4.77021,7.69846 -0.34087,1.67109 -0.93725,2.4193 -1.42429,1.78692 z m 0.72212,-5.62954 c 0,-1.26305 2.31999,-4.48296 3.80705,-5.28379 0.5255,-0.283 0.95545,-0.57945 0.95545,-0.65879 0,-0.0793 -0.42995,-0.37579 -0.95545,-0.65879 -1.56556,-0.84311 -2.96844,-2.82998 -3.91569,-5.54571 -0.14206,-0.40728 -0.39894,-0.066 -1.21946,1.62024 -0.96376,1.98056 -1.78158,2.95863 -3.44066,4.11482 -0.64144,0.44702 -0.64409,0.46307 -0.12603,0.76429 1.18324,0.68798 3.21828,3.08708 3.84196,4.52928 0.64422,1.48971 1.05283,1.92378 1.05283,1.11845 z"
       id="path33" /><path
       style="fill:#000000"
       d="m 0.42860046,230.03441 c -3.49653176,-0.9404 -6.52673596,-2.55148 -9.00414036,-4.78727 -2.2498101,-2.03039 -5.2900851,-6.64293 -5.3092731,-8.05494 -0.0037,-0.271 0.472494,-0.61012 1.30031,-0.92604 l 1.306121,-0.49845 -1.31202,-1.5875 c -2.347053,-2.83986 -5.184253,-9.19984 -4.481702,-10.04636 0.417106,-0.50258 3.67893,-1.83742 6.242099,-2.55446 2.2284271,-0.62339 7.1505534,-0.84756 9.1763599,-0.41792 l 0.99218746,0.21042 0.0115229,-1.40105 c 0.0138649,-1.68581 0.35798814,-3.59619 0.71146965,-3.94967 0.37779916,-0.3778 4.75238969,1.34237 7.27984929,2.86257 5.4105068,3.25427 8.9422338,8.02194 10.0978698,13.63167 0.95032,4.61307 0.068,11.12922 -1.593266,11.76671 -0.265131,0.10174 -1.693331,-1.17195 -4.342678,-3.87287 l -3.9476241,-4.02447 -0.263243,-2.56523 c -0.2719263,-2.64986 -0.6199093,-3.92827 -1.5832814,-5.81663 -0.7094814,-1.3907 -1.1796854,-1.44242 -0.9689254,-0.10657 0.2320087,1.47053 0.3104854,6.08383 0.106954,6.28736 -0.096909,0.0969 -0.9131795,-0.32427 -1.8139338,-0.93596 -0.9007543,-0.61169 -2.37048572,-1.44441 -3.2660699,-1.85049 -2.3276363,-1.0554 -6.2550449,-2.08812 -6.2452741,-1.64221 0.00231,0.1055 1.2643068,0.96573 2.8044336,1.91162 3.07239818,1.88694 7.2753724,4.97881 7.4387087,5.47219 0.1401631,0.42338 -0.6637669,0.82478 -3.61709468,1.80599 -1.37383072,0.45644 -2.54147372,0.96069 -2.59476212,1.12056 -0.131292,0.39387 2.53123849,0.70667 4.272868,0.50197 0.7590978,-0.0892 2.0875232,-0.38735 2.9520564,-0.66252 1.568805,-0.49933 1.5734305,-0.49921 2.3656284,0.0583 1.486853,1.04638 6.7468754,6.49967 6.7468754,6.99476 0,0.96295 -1.994701,2.25288 -4.7443767,3.06809 -1.8242019,0.54083 -6.7204313,0.54554 -8.71764883,0.008 z"
       id="path32" /><path
       style="fill:#000000"
       d="m 212.86081,230.29177 c -0.79842,-0.21453 -2.16764,-0.78206 -3.04271,-1.26117 -1.29526,-0.70918 -1.60744,-1.01127 -1.67938,-1.62506 -0.0755,-0.64455 0.21544,-1.04448 2.00548,-2.75631 1.15162,-1.10129 2.92454,-2.68164 3.93982,-3.51189 l 1.84598,-1.50952 1.70479,0.55538 c 1.96931,0.64155 6.37296,0.82234 7.26104,0.29809 0.61208,-0.36131 0.84823,-0.24337 -2.78451,-1.39072 -1.38596,-0.43773 -2.7536,-0.96675 -3.03919,-1.17558 -0.50446,-0.36887 -0.50542,-0.39501 -0.0336,-0.91633 0.55054,-0.60835 4.80753,-3.63604 7.97399,-5.67134 1.75668,-1.12914 2.01254,-1.37697 1.50441,-1.45725 -1.41365,-0.22334 -5.95569,1.60348 -9.3056,3.74274 -1.03378,0.66017 -1.51123,0.837 -1.6599,0.61477 -0.11479,-0.17157 -0.13029,-1.88953 -0.0345,-3.81769 0.0958,-1.92815 0.0924,-3.50572 -0.008,-3.50572 -0.10004,0 -0.54199,0.76949 -0.9821,1.70999 -0.79796,1.70521 -1.5265,4.93022 -1.54401,6.83484 -0.006,0.69595 -0.19679,1.18327 -0.62021,1.5875 -0.33604,0.32081 -2.23325,2.16012 -4.21603,4.08736 -2.55253,2.48104 -3.72925,3.4564 -4.03049,3.3408 -1.91098,-0.73331 -2.63457,-8.85826 -1.19868,-13.45945 1.87384,-6.00457 6.78147,-10.80754 14.19623,-13.89348 1.39483,-0.58051 2.68692,-1.05548 2.87131,-1.05548 0.43999,0 0.6317,0.74681 0.83817,3.26503 l 0.17008,2.07441 1.21572,-0.22233 c 0.66864,-0.12227 2.46587,-0.22114 3.99383,-0.2197 3.25621,0.003 5.70398,0.53235 8.99584,1.94515 2.71392,1.16476 2.76993,1.32563 1.58394,4.54858 -1.01331,2.7537 -2.2702,5.03693 -3.82033,6.93987 l -1.18198,1.451 1.31231,0.54537 c 0.72177,0.29996 1.31221,0.7008 1.3121,0.89077 -3.9e-4,0.63533 -1.599,3.73418 -2.78054,5.38996 -2.65394,3.71917 -6.59099,6.39145 -11.08605,7.52468 -2.56224,0.64596 -7.46232,0.69798 -9.6776,0.10273 z"
       id="path31" /><path
       style="fill:#000000"
       d="m 89.869411,240.49241 c -3.741019,-0.67025 -8.242677,-2.74144 -12.478786,-5.74145 -2.994898,-2.12099 -10.126459,-9.12803 -12.992398,-12.76555 -11.346099,-14.40074 -17.917672,-29.93978 -19.693385,-46.56666 -1.221808,-11.44039 0.412506,-22.50598 4.639196,-31.41102 5.327677,-11.22466 15.862601,-18.97629 27.775063,-20.43698 9.193244,-1.12727 17.616945,1.36218 26.014129,7.68791 1.57923,1.18966 2.73271,1.89625 2.77866,1.70212 0.14118,-0.59653 -0.99941,-5.7624 -1.93956,-8.78449 -2.43627,-7.83133 -5.914696,-13.57936 -11.693506,-19.32325 -2.414988,-2.4004 -2.746568,-2.83608 -2.600714,-3.41721 0.231474,-0.92227 3.93944,-4.549841 5.704182,-5.580509 1.886335,-1.101683 3.778298,-1.79335 4.328229,-1.582321 0.690029,0.264789 3.729419,5.112121 5.447849,8.68843 3.53966,7.36659 6.00965,17.17115 6.97577,27.69012 l 0.33289,3.62449 0.91649,-0.0907 c 2.18277,-0.21608 6.31692,-2.03375 8.72169,-3.83469 l 1.45521,-1.08981 2.5102,0.0834 c 1.38061,0.0459 2.5737,0.12266 2.65132,0.17063 0.30061,0.18579 6.07179,-0.40316 7.73859,-0.78971 2.74215,-0.63595 6.14769,-1.91787 9.31534,-3.50651 2.6597,-1.33389 3.01429,-1.44401 4.23429,-1.31507 1.8865,0.1994 5.50088,1.5741 8.24591,3.13628 10.63686,6.05337 17.00075,16.05659 19.5916,30.79546 0.67322,3.82979 0.67965,16.4897 0.0105,20.62614 -1.52784,9.44428 -4.9377,19.58986 -9.38157,27.91354 -5.3915,10.09867 -12.62391,19.46125 -19.85758,25.70626 -8.73668,7.5426 -16.3548,10.02799 -24.14363,7.87678 -1.08531,-0.29975 -3.46822,-1.25226 -5.29536,-2.1167 -6.38437,-3.02049 -8.65972,-3.03927 -14.80188,-0.12215 -1.96454,0.93302 -4.464849,1.94722 -5.556255,2.25377 -2.288656,0.64283 -6.802054,0.90471 -8.952464,0.51945 z"
       id="path30" /><path
       style="fill:#000000"
       d="m -3.9387089,252.43112 c -0.2130342,-0.71737 -0.7065863,-2.89026 -1.0967825,-4.82865 -0.8906757,-4.42464 -1.8693,-7.12808 -3.4302985,-9.47615 -1.6453641,-2.47499 -3.7292341,-4.26569 -7.8772781,-6.76908 -8.624722,-5.20511 -10.673292,-9.86916 -8.881024,-20.21974 0.806352,-4.65679 0.794926,-9.78021 -0.02714,-12.17083 -1.037289,-3.0165 -2.355021,-5.14251 -5.765955,-9.3027 -5.367688,-6.54678 -6.34309,-8.41669 -6.602636,-12.65772 -0.235881,-3.85433 0.566457,-6.26298 4.250658,-12.76063 1.110814,-1.95909 2.366974,-4.62236 2.84165,-6.02479 0.740167,-2.1868 0.851882,-2.87466 0.859415,-5.29166 0.01021,-3.27539 -0.452953,-5.15978 -2.601255,-10.58334 -2.346756,-5.92456 -2.595309,-6.966 -2.480477,-10.39319 0.09637,-2.87607 0.135394,-3.04223 1.256554,-5.34951 1.078513,-2.21953 1.450511,-2.67189 5.477319,-6.66065 2.79512,-2.76871 4.78246,-4.98748 5.629627,-6.28521 2.518477,-3.85792 3.396875,-8.15867 2.867905,-14.041642 -0.157015,-1.74625 -0.278247,-4.60375 -0.269404,-6.35 0.01355,-2.675542 0.125467,-3.514523 0.711456,-5.333308 0.813108,-2.523717 2.339287,-4.936152 4.080253,-6.449668 1.599588,-1.390608 5.331703,-3.190966 8.5138351,-4.107041 9.8264162,-2.828835 13.2077315,-6.285483 16.290791,-16.653732 1.9438529,-6.537126 4.2758679,-9.837393 8.3841719,-11.865277 2.378511,-1.174048 4.314819,-1.629683 9.199965,-2.164858 5.31761,-0.582552 7.122399,-1.027866 10.226502,-2.523286 3.994654,-1.92445 6.511718,-4.417622 10.666704,-10.565458 4.64135,-6.867476 7.112866,-8.933072 11.906866,-9.951295 3.093044,-0.656948 6.143154,-0.356584 12.234278,1.204786 2.802761,0.718446 6.167492,1.447665 7.47718,1.620486 2.8172,0.371746 7.024706,0.188495 9.260416,-0.403322 2.33875,-0.619093 5.915837,-2.427542 9.657292,-4.882385 4.083151,-2.679039 5.888291,-3.575047 8.575131,-4.256386 2.64931,-0.671823 4.80967,-0.672265 7.43225,-0.0015 2.81534,0.720041 4.30067,1.440359 8.79994,4.267552 6.26639,3.937601 9.44297,5.151812 14.21872,5.434934 3.47339,0.205915 6.25997,-0.190448 11.54847,-1.642652 7.97184,-2.189037 11.7794,-2.212028 16.06946,-0.09703 3.04258,1.499994 4.82828,3.362439 8.35855,8.717808 6.13483,9.306422 10.42573,12.020695 20.72677,13.111038 6.69796,0.708964 9.67306,1.823983 12.63782,4.736451 2.04764,2.011527 3.37576,4.666902 5.02871,10.054166 2.30892,7.525172 4.7169,10.859744 9.77488,13.536264 0.86918,0.459945 3.59428,1.505234 6.05577,2.322863 5.43994,1.806973 7.15677,2.693143 9.29014,4.795235 2.16142,2.129732 3.40644,4.644195 3.98736,8.052929 0.39578,2.322385 0.39504,2.936097 -0.01,8.069791 -0.48737,6.181627 -0.37918,7.798767 0.76356,11.412957 0.99745,3.1547 2.70707,5.49724 7.61037,10.42781 4.61708,4.64276 5.62307,6.07321 6.41834,9.12647 0.8825,3.38814 0.3496,6.95785 -1.83317,12.27975 -2.99962,7.31349 -3.63227,11.10125 -2.56145,15.33575 0.68434,2.70621 1.34921,4.18195 3.93569,8.7356 2.67458,4.70874 3.53269,7.20465 3.54748,10.31817 0.021,4.41556 -1.15134,6.97646 -5.88292,12.85099 -3.31605,4.11707 -5.18835,6.99071 -6.03357,9.26041 -1.20199,3.22773 -1.33381,7.26615 -0.42753,13.09688 0.51661,3.32363 0.51028,7.56164 -0.0143,9.6191 -0.5739,2.25065 -2.17465,4.84316 -4.07908,6.60633 -0.88327,0.81775 -3.06128,2.47194 -4.84002,3.67598 -6.65734,4.50638 -9.30061,8.28706 -10.92174,15.62145 -0.36154,1.6357 -0.90612,3.89675 -1.21018,5.02453 l -0.55283,2.05052 h -0.99381 -0.99381 l 0.48286,-1.46363 c 0.26557,-0.80501 0.85594,-3.21602 1.31193,-5.35782 0.45599,-2.14179 1.18197,-4.81197 1.61327,-5.93373 1.73138,-4.50301 4.87322,-8.04219 10.52894,-11.86053 4.09193,-2.76257 5.79868,-4.46591 7.08718,-7.07302 0.9106,-1.84246 0.99506,-2.2098 1.0885,-4.73429 0.0695,-1.87827 -0.0839,-4.08537 -0.48907,-7.03555 -1.39541,-10.16037 -0.0572,-14.49478 7.11073,-23.03182 2.24487,-2.67364 3.80125,-5.06391 4.57432,-7.02519 0.46956,-1.19127 0.58896,-2.02962 0.58957,-4.13962 9.4e-4,-3.25813 -0.39,-4.35321 -3.61952,-10.13899 -2.77242,-4.96686 -3.5072,-6.76393 -4.05122,-9.90818 -0.72351,-4.18162 -0.11609,-7.56137 2.56646,-14.28011 1.99052,-4.98547 2.3558,-6.39161 2.3558,-9.0686 0,-4.18564 -1.36561,-6.63395 -6.19772,-11.11143 -4.9123,-4.5518 -7.0116,-7.56466 -8.386,-12.0354 -0.70117,-2.28082 -0.80948,-6.08599 -0.39197,-13.7702 0.26624,-4.899997 0.10133,-6.127074 -1.19454,-8.888655 -0.93609,-1.994859 -3.09075,-4.209063 -5.17752,-5.320616 -0.84629,-0.450789 -3.5342,-1.47817 -5.97315,-2.283068 -5.47259,-1.806058 -8.10727,-3.149773 -10.47604,-5.342887 -3.13773,-2.905061 -4.36435,-5.191821 -6.53474,-12.182568 -1.46291,-4.711966 -2.40248,-6.63001 -4.156,-8.484101 -2.48766,-2.630336 -5.42309,-3.776229 -11.04357,-4.311032 -7.40429,-0.704538 -11.41536,-2.084228 -15.52353,-5.339636 -2.32072,-1.838998 -3.85403,-3.714511 -7.08746,-8.669259 -3.12525,-4.788972 -4.7769,-6.599696 -7.19503,-7.888007 -3.934,-2.09592 -7.13767,-2.140132 -14.3659,-0.198252 -5.798,1.557644 -8.26242,1.980371 -11.52287,1.976534 -5.19862,-0.0061 -9.78467,-1.493927 -15.21354,-4.935579 -6.33136,-4.013792 -8.38038,-4.951319 -11.53773,-5.279078 -3.68939,-0.382988 -7.06241,0.79218 -12.49645,4.353786 -7.000994,4.588625 -10.493112,5.85076 -16.213969,5.860114 -3.419744,0.0056 -6.045699,-0.434187 -12.118366,-2.029509 -4.276358,-1.123423 -4.907054,-1.22227 -7.826187,-1.22657 -2.611736,-0.0038 -3.452843,0.09742 -4.741142,0.570823 -3.62971,1.333787 -5.235896,2.894671 -9.245465,8.9847 -6.374263,9.6817 -10.912315,12.536821 -21.732143,13.672806 -4.956679,0.520406 -6.128872,0.778814 -8.552322,1.885347 -3.870047,1.767039 -5.985813,4.828818 -7.84466,11.352205 -0.539062,1.89177 -1.575125,4.67663 -2.3023621,6.188576 -1.148961,2.388724 -1.6226705,3.048091 -3.6145773,5.031215 -1.2661558,1.260572 -3.0572475,2.723192 -4.0010521,3.26729 -0.93979796,0.541789 -3.7458156,1.645273 -6.2355949,2.452188 -5.8933066,1.909967 -7.4705206,2.677955 -9.4979786,4.624819 -3.061564,2.939865 -4.055716,6.116043 -3.685109,11.77341 0.123927,1.891771 0.220871,5.463644 0.21543,7.937494 -0.0095,4.33408 -0.03952,4.58171 -0.823261,6.79818 -1.358125,3.84088 -2.846493,5.90229 -7.890833,10.92891 -5.093576,5.07568 -5.975655,6.42089 -6.524287,9.94983 -0.417737,2.68699 0.10315,5.10482 2.262703,10.50291 2.451484,6.12782 2.889326,8.08528 2.730544,12.20743 -0.175967,4.56828 -0.647011,5.88844 -4.584343,12.84816 -2.770866,4.89784 -3.10735,5.93739 -3.132061,9.67633 l -0.02024,3.06174 1.120389,2.22992 c 0.616213,1.22646 1.985432,3.28565 3.042708,4.57598 1.057276,1.29033 2.664678,3.25486 3.572005,4.36563 2.051391,2.51134 3.895421,6.0043 4.577247,8.67021 0.72657,2.84086 0.680955,6.80941 -0.13948,12.13477 -1.002916,6.50983 -0.85397,8.56061 0.860964,11.85433 1.13582,2.18146 3.08533,4.02499 6.1872,5.85083 5.374912,3.16381 7.9055888,5.36549 9.8540315,8.57297 1.3939089,2.29462 2.1469203,4.50945 3.0870269,9.07983 0.4598783,2.23573 1.0488205,4.74956 1.3087603,5.58631 l 0.4726178,1.52135 h -1.0203388 c -0.9936938,0 -1.0304536,-0.0341 -1.4076736,-1.30429 z"
       id="path29" /><path
       style="fill:#000000"
       d="m 206.45217,253.81974 c -0.37128,-0.0976 -0.23349,-0.38714 0.7716,-1.62112 3.17186,-3.89418 3.94601,-8.52601 2.06695,-12.36667 -0.36672,-0.74955 -0.66676,-1.49751 -0.66676,-1.66214 0,-0.44817 1.13572,-0.64754 3.00918,-0.52825 2.35244,0.14979 4.72806,1.36345 6.5578,3.35026 1.52176,1.65239 3.74851,5.31789 3.777,6.21739 0.0241,0.76215 -3.2975,3.28606 -6.33252,4.81169 -3.16648,1.59172 -7.06626,2.35561 -9.18325,1.79884 z"
       id="path28" /><path
       style="fill:#000000"
       d="m 9.9526197,253.45922 c -1.074497,-0.2814 -2.651203,-0.86022 -3.5037912,-1.28626 -2.0985856,-1.04868 -6.58111948,-4.25356 -6.58111948,-4.70531 0,-0.20043 0.31413866,-0.98553 0.69808589,-1.74468 2.58393789,-5.109 5.92628119,-7.80682 9.99545609,-8.06796 1.160194,-0.0745 2.142121,-0.005 2.478503,0.17483 0.55583,0.29747 0.55518,0.30217 -0.288208,2.08259 -0.780507,1.64767 -0.844145,1.98724 -0.830285,4.43028 0.01284,2.26302 0.120112,2.89906 0.741439,4.39604 0.399537,0.96262 1.307307,2.47108 2.017268,3.35213 1.003423,1.24524 1.201714,1.63612 0.890567,1.75552 -0.809726,0.31072 -3.718551,0.11025 -5.6179153,-0.38718 z"
       id="path27" /><path
       style="fill:#000000"
       d="m 178.24566,265.24476 c -0.77353,-0.21719 -1.92409,-0.69826 -2.5568,-1.06905 -1.28321,-0.75201 -3.16166,-2.66805 -3.42301,-3.49151 -0.15349,-0.4836 -0.33333,-0.52349 -1.82147,-0.40403 -3.27092,0.26255 -6.67193,-0.98892 -9.15348,-3.36821 -2.60936,-2.50182 -3.52714,-5.96843 -2.43431,-9.19473 l 0.55976,-1.65256 -0.78073,-1.07777 c -0.4294,-0.59277 -1.04095,-1.85972 -1.35899,-2.81544 -0.4849,-1.45713 -0.55837,-2.15087 -0.45503,-4.29692 0.11003,-2.285 0.23081,-2.78288 1.12711,-4.64637 1.88627,-3.92171 5.23123,-6.37711 8.6065,-6.31768 l 1.71979,0.0303 -0.0901,-1.26284 c -0.11553,-1.62024 0.46252,-2.84916 2.11962,-4.50627 2.2143,-2.21429 7.14117,-4.49411 10.58748,-4.89915 1.81427,-0.21324 4.93235,0.42548 6.75428,1.38356 1.62831,0.85626 3.71214,2.8902 3.91708,3.8233 l 0.15952,0.72629 2.43124,-0.13855 c 3.13104,-0.17842 4.71427,0.37077 6.98015,2.42127 3.64484,3.2984 5.18639,8.98582 3.64237,13.43824 l -0.43585,1.25683 0.79433,1.19922 c 2.19234,3.30984 1.56884,7.16208 -1.73719,10.73298 -1.36594,1.47538 -1.4769,1.69198 -1.53464,2.99544 -0.15642,3.53171 -3.33513,7.10803 -7.68053,8.64128 -1.32856,0.46877 -1.98538,0.53307 -4.32969,0.4239 -2.60268,-0.12121 -2.81145,-0.0922 -3.58644,0.49895 -2.18947,1.66999 -5.41518,2.30119 -8.02102,1.56954 z m 7.49184,-7.40776 c 3.58055,-0.74845 7.64858,-3.43099 9.67952,-6.38286 2.52706,-3.67295 3.47573,-7.62858 2.49572,-10.40624 -0.32633,-0.92493 -0.34013,-1.41761 -0.0819,-2.92366 0.76663,-4.47067 -1.65307,-9.52267 -5.54438,-11.57585 -1.96056,-1.03446 -3.41864,-1.27766 -4.62872,-0.77206 -0.88257,0.36876 -1.00214,0.34832 -2.60534,-0.44544 -1.52247,-0.75378 -1.90478,-0.83033 -4.0695,-0.81485 -5.70338,0.0408 -10.40871,3.23106 -11.93238,8.09027 -0.2903,0.92582 -0.79065,1.74931 -1.44222,2.37363 -2.191,2.09939 -3.3945,5.14003 -3.05309,7.71365 0.39521,2.97925 2.25169,6.20151 4.40687,7.64895 0.63618,0.42727 1.32584,1.20617 1.65119,1.86486 2.14033,4.33319 9.03995,6.9014 15.1242,5.6296 z"
       id="path26" /><path
       style="fill:#000000"
       d="m 182.28377,240.67826 c -1.3034,-0.73113 -2.23481,-2.09827 -2.23481,-3.28031 0,-0.68596 0.22398,-1.13735 0.89958,-1.81295 0.76509,-0.76509 1.08351,-0.89959 2.12981,-0.89959 1.6004,0 2.74217,0.61122 3.20327,1.71478 0.51983,1.24413 0.13946,2.1248 -1.56378,3.62064 l -1.40553,1.23437 z"
       id="path25" /><path
       style="fill:#000000"
       d="m 186.07618,243.90241 c -0.4214,-0.32731 -0.42391,-0.41694 -0.0339,-1.2117 0.23164,-0.47204 0.81505,-1.10168 1.29646,-1.39921 2.32983,-1.43992 3.24201,-3.69158 2.39451,-5.91073 -0.2383,-0.62398 -0.75859,-1.44384 -1.15619,-1.8219 -0.75478,-0.7177 -3.15809,-1.78387 -4.02109,-1.78387 -0.67817,0 -1.33202,-0.70096 -1.33202,-1.42799 0,-0.32804 0.30738,-0.88508 0.68307,-1.23787 0.60404,-0.56722 0.91782,-0.63973 2.71198,-0.62669 4.26915,0.031 7.15631,2.51881 7.95836,6.85751 0.55048,2.97782 0.23427,4.63879 -1.18144,6.20581 -1.64701,1.82305 -6.14306,3.27058 -7.31975,2.35664 z"
       id="path24" /><path
       style="fill:#000000"
       d="m 177.8,244.10401 c -1.8233,-0.57815 -3.16005,-1.39447 -4.28893,-2.61916 -1.67856,-1.82102 -2.04772,-2.69109 -2.04296,-4.81506 0.005,-2.17064 0.61913,-3.66244 2.28931,-5.55987 2.09082,-2.37529 5.57862,-3.35922 6.94804,-1.96008 1.20285,1.22896 0.98868,2.11838 -0.79522,3.30246 -1.97713,1.31235 -2.82462,2.77621 -2.82462,4.87895 0,2.05779 0.8262,3.50182 2.96494,5.18211 0.87224,0.68527 1.5859,1.33356 1.5859,1.44064 0,0.55913 -2.26671,0.64776 -3.83646,0.15001 z"
       id="path23" /><path
       style="fill:#000000"
       d="m 180.71042,254.8927 c -2.06826,-0.29608 -4.73515,-1.52133 -6.03191,-2.77123 -1.34421,-1.29565 -1.47198,-1.77526 -0.85637,-3.2147 0.17379,-0.40638 0.0327,-0.46302 -1.15321,-0.46302 -1.21131,0 -1.45512,-0.1039 -2.35457,-1.00335 -0.55185,-0.55185 -1.28164,-1.59364 -1.62178,-2.31511 -0.71978,-1.52676 -0.99845,-4.14272 -0.56117,-5.26802 l 0.30359,-0.78126 0.79227,1.57501 c 1.42066,2.82424 4.49676,5.45615 7.3765,6.31134 1.79031,0.53167 4.88426,0.5453 6.35051,0.028 0.61588,-0.2173 1.21695,-0.33502 1.33572,-0.26162 0.11877,0.0734 0.8322,0.25033 1.58539,0.39317 1.91342,0.36287 4.5468,-0.22822 7.06277,-1.58532 l 1.98841,-1.07253 -0.17677,0.94225 c -0.66767,3.55901 -4.27316,7.4979 -8.08626,8.834 -1.48951,0.52193 -4.53394,0.85556 -5.95312,0.65241 z"
       id="path22" /><path
       style="fill:#000000"
       d="m 39.484953,265.35378 c -1.154294,-0.27195 -3.018144,-1.1686 -3.728041,-1.79346 -0.396881,-0.34935 -1.10883,-0.4322 -3.713899,-0.4322 -3.196891,0 -3.239313,-0.008 -5.258003,-1.00383 -1.153671,-0.56906 -2.613045,-1.56676 -3.369474,-2.30355 -1.6375,-1.59497 -2.908432,-4.13415 -2.913457,-5.82074 -0.0033,-1.10859 -0.102561,-1.27746 -1.44052,-2.45082 -0.950092,-0.8332 -1.71079,-1.81932 -2.245112,-2.91041 -1.440798,-2.94212 -1.406588,-5.45173 0.108615,-7.96797 l 0.894796,-1.48595 -0.509408,-1.44936 c -0.609663,-1.7346 -0.67481,-4.91885 -0.141604,-6.92136 0.855918,-3.21448 3.291448,-6.39845 6.074254,-7.94087 1.257616,-0.69706 1.586047,-0.75681 4.242214,-0.77179 l 2.879064,-0.0162 0.473568,-0.92308 c 1.492899,-2.90996 5.722236,-4.99758 10.124666,-4.99758 3.451033,0 8.524742,2.04492 10.957077,4.41617 2.186544,2.13163 2.986044,4.20351 2.305953,5.9758 -0.122015,0.31796 0.172621,0.38131 1.652517,0.35531 1.487701,-0.0262 2.070217,0.10053 3.348525,0.72821 2.992271,1.46927 5.528217,4.85159 6.285683,8.38353 0.623871,2.90901 -0.181009,6.87837 -1.848128,9.11425 l -0.756282,1.01431 0.537438,1.21194 c 0.752129,1.69608 0.734376,4.47192 -0.03977,6.21795 -1.805434,4.07202 -6.732915,7.0226 -11.194642,6.70337 l -1.844184,-0.13195 -0.614448,0.95816 c -2.123064,3.31067 -6.516437,5.12587 -10.267401,4.24215 z m 4.832756,-7.80098 c 3.228602,-0.96915 6.166184,-3.14198 7.406397,-5.47827 0.335652,-0.63229 1.051639,-1.40435 1.649523,-1.7787 1.288376,-0.80668 2.901675,-2.99434 3.68399,-4.99554 0.798626,-2.04293 0.794464,-5.19436 -0.0093,-7.01216 -0.703842,-1.5919 -1.877238,-3.10417 -2.785902,-3.59047 -0.438394,-0.23463 -0.684331,-0.58998 -0.684331,-0.98881 0,-1.00636 -1.423895,-3.81992 -2.603685,-5.14477 -2.884939,-3.23967 -7.915636,-4.84757 -11.961295,-3.82304 -0.938792,0.23775 -2.018179,0.65912 -2.398638,0.93639 -0.642513,0.46826 -0.773019,0.47613 -1.833765,0.11067 -3.125586,-1.07685 -7.593305,1.70272 -9.603686,5.97489 -0.907885,1.9293 -1.251614,5.15919 -0.744502,6.99579 0.226279,0.81952 0.201334,1.18237 -0.124615,1.81269 -2.019559,3.9054 1.171877,11.92626 5.970603,15.0056 3.793427,2.43423 9.728983,3.26955 14.039167,1.97573 z"
       id="path21" /><path
       style="fill:#000000"
       d="m 37.576847,239.79113 c -1.088362,-1.22283 -1.316903,-1.65392 -1.316903,-2.484 0,-2.5197 3.638895,-3.67333 5.345786,-1.69477 0.719481,0.83399 0.805816,2.62352 0.170341,3.53079 -0.42031,0.60008 -2.416891,2.17048 -2.723581,2.14222 -0.08731,-0.008 -0.751346,-0.68045 -1.475643,-1.49424 z"
       id="path20" /><path
       style="fill:#000000"
       d="m 31.705671,243.72065 c -3.05406,-1.0554 -4.305567,-2.80436 -4.315485,-6.0308 -0.008,-2.59013 0.763583,-4.98293 2.094105,-6.49448 3.104852,-3.5273 10.570274,-3.82309 9.707272,-0.38461 -0.138172,0.55052 -0.407551,0.71238 -1.59626,0.95916 -2.674648,0.55525 -4.604773,2.39115 -5.053346,4.80663 -0.26716,1.43862 0.551284,3.03792 2.334114,4.56104 1.698862,1.45138 2.070191,2.19802 1.353701,2.72193 -0.671105,0.49073 -2.900224,0.4223 -4.524101,-0.13887 z"
       id="path19" /><path
       style="fill:#000000"
       d="m 40.928797,244.26474 c -0.256461,-0.17555 0.130649,-0.65974 1.493357,-1.86787 2.062408,-1.82846 2.957066,-3.38493 2.948077,-5.12888 -0.01052,-2.04115 -1.016635,-3.55161 -3.525562,-5.29286 -1.312706,-0.91105 -0.885423,-2.83432 0.749563,-3.37392 3.408859,-1.12502 8.343044,3.55475 8.335475,7.90569 -0.0035,2.03707 -0.87179,3.80146 -2.684547,5.45536 -0.845634,0.77153 -2.008133,1.52165 -2.791491,1.80125 -1.584605,0.56559 -4.0344,0.83696 -4.524872,0.50123 z"
       id="path18" /><path
       style="fill:#000000"
       d="m 37.375938,254.79882 c -4.2026,-0.75378 -7.351191,-2.93051 -9.16713,-6.33756 -0.753749,-1.41418 -1.364383,-3.72168 -0.984867,-3.72168 0.09448,0 0.629924,0.30319 1.189877,0.67375 2.494574,1.65083 5.917091,2.31089 8.442345,1.62818 1.222232,-0.33044 1.544518,-0.32945 2.513542,0.008 0.765196,0.26624 1.853526,0.35522 3.492795,0.28557 2.004509,-0.0852 2.670683,-0.23669 4.210654,-0.95775 2.139583,-1.00182 5.269686,-3.98912 6.082134,-5.80465 0.276762,-0.61846 0.598789,-1.12448 0.715615,-1.12448 0.349557,0 0.579917,1.80787 0.411526,3.22967 -0.38613,3.26026 -3.29238,6.43464 -5.405554,5.90427 -0.558271,-0.14012 -0.627235,-0.0932 -0.457565,0.31148 0.444267,1.05954 0.404387,1.57696 -0.189665,2.46084 -0.719325,1.07027 -2.958604,2.49675 -4.762963,3.03413 -1.659937,0.49437 -4.54071,0.68854 -6.090744,0.41052 z"
       id="path17" /><path
       style="fill:#000000"
       d="m 116.28437,267.59806 c -1.80245,-0.39372 -6.47992,-0.45287 -8.58266,-0.10854 -0.86417,0.14151 -1.59899,0.22952 -1.63294,0.19556 -0.034,-0.034 -0.56496,-2.21508 -1.18002,-4.84694 -1.16271,-4.97529 -1.19481,-5.7727 -0.26969,-6.69783 2.06077,-2.06077 9.84418,-2.45769 13.69313,-0.69829 1.48817,0.68026 1.99385,1.34648 1.99385,2.62684 0,0.94559 -2.09078,9.47301 -2.378,9.69887 -0.10365,0.0815 -0.8433,0.005 -1.64367,-0.16967 z"
       id="path16" /><path
       style="fill:#000000"
       d="m -9.3619269,266.28763 c -3.3276701,-3.51545 -4.5750071,-6.44192 -6.2461781,-14.65464 -1.259607,-6.19014 -2.442016,-7.80623 -8.497951,-11.6148 -6.159127,-3.87348 -8.973233,-6.66925 -11.093601,-11.02132 -1.542433,-3.16585 -1.991682,-4.95705 -2.156701,-8.59896 -0.133505,-2.94641 -0.0614,-3.8829 0.865415,-11.23975 0.773084,-6.13659 -0.02406,-8.36641 -5.00229,-13.99282 -4.897541,-5.53521 -7.201504,-9.87147 -8.031707,-15.11638 -0.98072,-6.19582 0.315074,-10.82745 5.847957,-20.90268 3.038827,-5.53362 2.985097,-7.21912 -0.497497,-15.60638 -2.245605,-5.40817 -2.640266,-7.20039 -2.622611,-11.90969 0.01732,-4.6214 0.465895,-6.70806 2.171115,-10.09957 1.469698,-2.92309 2.678831,-4.40148 7.320306,-8.95043 6.082844,-5.96159 6.523778,-7.11885 5.95184,-15.620908 -0.189367,-2.815004 -0.265265,-6.166892 -0.168662,-7.44864 0.4791,-6.356843 3.064595,-12.023103 7.349053,-16.105875 3.36355,-3.205215 6.045947,-4.646907 13.008435,-6.991566 6.8650984,-2.311862 7.8189179,-3.275957 9.9860244,-10.093601 1.63783548,-5.152575 2.7942303,-7.900565 4.3043829,-10.228687 4.014144,-6.188391 9.9212917,-9.717714 17.7784557,-10.622033 1.454232,-0.167375 3.656089,-0.422184 4.893017,-0.566243 2.933978,-0.341706 4.753429,-0.870899 6.951862,-2.021973 2.316471,-1.212878 3.77595,-2.828465 6.68685,-7.402086 2.965874,-4.659995 4.139558,-6.185378 6.350938,-8.254015 4.471455,-4.182826 9.531537,-6.094529 16.162892,-6.106351 3.744174,-0.0067 5.963793,0.366752 12.001624,2.019145 3.596974,0.984396 4.906778,1.220258 7.439154,1.339598 4.937135,0.232666 6.514651,-0.312808 12.81348,-4.430654 7.190174,-4.7005624 11.198854,-6.1495909 17.053614,-6.1644198 5.87421,-0.014878 10.20693,1.5491412 16.96673,6.1246248 5.82633,3.943649 8.01071,4.698735 12.93119,4.469997 2.42421,-0.112694 3.74187,-0.340959 6.48229,-1.122962 7.45369,-2.126977 7.07221,-2.060161 11.90625,-2.085337 5.05473,-0.02633 7.20314,0.38402 10.86248,2.074743 3.89833,1.801136 7.53136,4.991691 9.96321,8.749747 0.65916,1.018645 1.98452,3.071561 2.94522,4.562033 2.81796,4.371873 4.70682,6.084164 7.98102,7.234951 1.99586,0.701491 3.20763,0.916786 7.93726,1.410213 2.18374,0.227823 4.67673,0.59819 5.53998,0.823037 5.68019,1.479501 10.37068,4.803955 13.60935,9.645811 1.69522,2.534381 2.92418,5.479892 4.41743,10.587495 1.17172,4.007825 1.83108,5.351108 3.33063,6.785351 1.47868,1.414282 2.63164,1.975522 7.3377,3.571866 7.04403,2.389409 10.78452,4.641307 13.93145,8.387202 1.96237,2.33588 3.27285,4.715733 4.32055,7.846205 1.28018,3.825121 1.49471,6.41851 1.11625,13.49375 -0.51083,9.549712 -0.36496,9.941522 6.05796,16.271872 2.4362,2.4011 4.93584,5.06492 5.55475,5.91962 3.16286,4.36778 4.64739,10.20541 3.97831,15.64392 -0.40239,3.27082 -0.91086,5.01117 -2.5896,8.86354 -3.78209,8.67909 -3.83075,10.44385 -0.45597,16.53646 2.7574,4.97802 4.62824,8.99574 5.14713,11.05367 0.79409,3.14944 0.93682,6.23156 0.42478,9.1729 -0.83667,4.80615 -2.50635,8.27776 -6.03357,12.54504 -0.97896,1.18437 -2.56565,3.10589 -3.52598,4.27006 -2.18226,2.64547 -3.20232,4.62048 -3.60786,6.98541 -0.27404,1.59808 -0.23643,2.48974 0.28216,6.68963 0.80463,6.5164 0.78307,10.14836 -0.0804,13.53799 -1.53378,6.02129 -5.05354,10.46034 -12.08056,15.23575 -4.41645,3.00132 -5.35775,3.79459 -6.40569,5.39831 -1.27269,1.94766 -1.68802,3.15821 -2.83838,8.27292 -1.12005,4.97998 -2.11414,7.83323 -3.60713,10.35319 -1.05771,1.78528 -4.22804,5.52647 -3.96971,4.68452 0.50576,-1.64841 1.01046,-3.95079 1.29027,-5.88601 0.2775,-1.9193 0.26066,-2.43481 -0.1279,-3.9163 -0.43978,-1.67674 -0.43658,-1.74573 0.18606,-4.01407 0.34844,-1.26941 0.94907,-3.67723 1.33473,-5.35072 1.49637,-6.49311 3.75738,-9.65412 9.85615,-13.77944 4.88239,-3.30253 7.79073,-6.19674 9.29658,-9.25141 1.97112,-3.99849 2.27501,-7.1048 1.35775,-13.87852 -1.25811,-9.29071 -0.37469,-12.8173 4.77426,-19.05871 6.76533,-8.20076 8.19543,-11.03996 8.18641,-16.25261 -0.007,-3.96326 -1.13409,-7.16369 -4.59244,-13.03885 -2.92768,-4.97365 -3.75567,-7.7236 -3.53834,-11.75165 0.16342,-3.0289 0.70666,-4.92007 2.72042,-9.47052 2.06985,-4.67721 2.61023,-6.81426 2.61253,-10.33183 0.002,-3.32335 -0.40499,-5.02384 -1.90056,-7.9375 -0.77868,-1.51702 -1.72245,-2.61793 -5.2168,-6.08541 -5.64518,-5.60178 -6.65593,-6.96436 -7.85065,-10.58334 -0.66063,-2.00114 -0.70331,-3.26066 -0.48411,-14.287496 0.0909,-4.571963 0.0657,-4.857768 -0.62909,-7.143749 -1.47646,-4.857695 -4.30397,-8.318169 -8.93595,-10.936363 -0.82108,-0.464106 -3.43415,-1.503105 -5.80682,-2.308887 -5.24937,-1.782734 -7.52635,-2.946822 -9.65024,-4.933611 -2.3528,-2.200936 -3.19555,-3.917653 -5.38758,-10.974766 -2.02998,-6.535434 -4.46205,-9.97701 -8.96786,-12.690288 -2.30967,-1.39082 -5.11696,-2.148576 -10.18246,-2.748489 -10.58728,-1.253867 -14.37767,-3.521993 -19.47489,-11.65356 -3.90937,-6.236597 -6.28564,-8.737212 -9.94562,-10.466052 -3.01459,-1.423982 -4.83758,-1.792844 -8.73125,-1.766674 -2.84755,0.01914 -3.87223,0.142502 -5.95313,0.716713 -8.51209,2.348855 -8.46184,2.338762 -12.30312,2.471401 -6.13305,0.211775 -9.1453,-0.774227 -16.22741,-5.31174 -6.65616,-4.264604 -8.74822,-5.052541 -13.40593,-5.049106 -4.79488,0.0035 -7.55715,1.04473 -14.419788,5.435322 -6.311828,4.038194 -9.031354,4.99631 -14.181569,4.99631 -3.64799,0 -5.953178,-0.372745 -11.483014,-1.856783 -7.746242,-2.078855 -12.042518,-2.039018 -16.868237,0.156409 -3.871444,1.761286 -6.10384,4.048421 -10.440209,10.696207 -2.895233,4.438482 -4.430809,6.228219 -6.618269,7.713694 -3.273559,2.223032 -5.402568,2.865003 -12.619437,3.805204 -7.172522,0.934424 -10.040086,1.957596 -13.201752,4.710499 -3.1954422,2.782313 -4.7959497,5.596891 -6.7946356,11.948727 -1.6833417,5.349672 -2.6333239,7.333402 -4.45282613,9.298286 -1.88869087,2.039601 -4.32369187,3.34294 -9.63409787,5.15667 -4.7583804,1.625188 -6.5513874,2.471352 -8.8381544,4.170937 -3.556079,2.642972 -6.125487,6.731665 -7.000408,11.139731 -0.382406,1.92666 -0.412789,2.969392 -0.212007,7.276042 0.423037,9.073912 0.188887,11.377572 -1.495633,14.714582 -1.047383,2.07485 -2.378663,3.6469 -7.03235,8.30417 -3.529154,3.53187 -4.088416,4.21631 -5.080484,6.2177 -2.338356,4.71739 -2.491427,9.41073 -0.48861,14.98138 0.359823,1.00082 1.196591,3.12935 1.859484,4.73008 0.662893,1.60073 1.393865,3.62479 1.624381,4.49792 0.514937,1.95042 0.585809,5.64923 0.144993,7.56721 -0.359466,1.56402 -1.958395,4.97944 -4.632486,9.89529 -3.620034,6.6548 -4.169573,11.35898 -2.000001,17.12046 0.794477,2.1098 2.656221,4.86438 5.638958,8.34322 2.649764,3.09049 4.228291,5.26069 5.161352,7.09594 1.581833,3.11133 1.840921,7.29285 0.851487,13.74246 -1.459338,9.51268 -0.39994,13.81677 4.623797,18.78542 1.847728,1.82746 3.262626,2.90426 6.084011,4.6302 6.183391,3.7826 8.420612,6.64716 9.649652,12.35551 0.307112,1.4264 0.9146985,4.08326 1.3501924,5.90415 0.6843662,2.86146 0.7561965,3.49846 0.5293681,4.69453 -0.3269534,1.72401 0.025878,4.779 0.900831,7.79981 0.3479633,1.20136 0.5988339,2.21812 0.5574903,2.25946 -0.041344,0.0414 -1.0464347,-0.9509 -2.2335357,-2.20499 z"
       id="path15" /><path
       style="fill:#000000"
       d="m 100.80625,268.52421 c -4.824047,-3.86039 -13.381814,-8.55414 -18.955663,-10.39676 -3.666121,-1.21195 -7.660347,-2.02181 -10.876108,-2.2052 l -2.579687,-0.14712 v -1.07227 c 0,-0.58975 -0.138914,-2.03305 -0.308698,-3.20734 -0.169784,-1.17428 -0.227594,-2.4582 -0.128468,-2.85315 0.22299,-0.88846 1.591973,-2.47935 2.567708,-2.98392 1.34909,-0.69764 4.269556,-0.98403 6.843426,-0.67108 8.557118,1.04045 17.258203,6.27665 21.743437,13.08492 1.599173,2.42743 3.377063,6.56455 3.953743,9.20031 0.57257,2.61695 -0.0929,2.98555 -2.25969,1.25161 z"
       id="path14" /><path
       style="fill:#000000"
       d="m 120.81187,269.77834 c -0.22558,-0.2718 -0.13326,-0.92855 0.379,-2.69624 1.66183,-5.73465 3.67479,-9.28238 7.36802,-12.98577 5.57851,-5.59384 12.93104,-9.09763 19.2381,-9.16777 2.31359,-0.0257 2.68023,0.0414 4.10104,0.75128 1.26238,0.63069 1.67493,1.00687 2.16061,1.97016 0.55854,1.10778 0.5907,1.42996 0.46214,4.63021 l -0.13818,3.43958 -2.31422,0.1753 c -8.29359,0.62824 -18.11957,4.73641 -27.01809,11.29607 -1.50891,1.11231 -3.01274,2.23031 -3.34184,2.48444 -0.49886,0.38523 -0.64796,0.40232 -0.89658,0.10274 z"
       id="path13" /><path
       style="fill:#000000"
       d="m 161.69968,289.94723 c -1.56315,-1.58449 -5.15424,-3.394 -8.31544,-4.19005 -4.73835,-1.19321 -6.90861,-1.38043 -18.04987,-1.55707 l -10.71562,-0.16991 -0.0805,-0.96548 -0.0805,-0.96548 3.25552,-1.0735 c 1.79054,-0.59042 5.101,-1.55904 7.35657,-2.15248 2.25557,-0.59344 4.52792,-1.19285 5.04965,-1.33202 1.24393,-0.33181 1.77328,-1.35574 1.17385,-2.27058 -0.22515,-0.34362 -0.68502,-0.69395 -1.02195,-0.77851 -0.98891,-0.2482 -7.64122,1.61446 -13.65271,3.8228 -1.2284,0.45125 -2.25486,0.82046 -2.28102,0.82046 -0.0262,0 -0.13002,-0.62159 -0.2308,-1.38131 -0.10078,-0.75971 -0.41377,-2.06565 -0.69554,-2.90207 -0.28177,-0.83641 -0.51231,-1.6316 -0.51231,-1.76708 0,-0.30394 3.81144,-3.14592 7.01146,-5.22805 5.58288,-3.63258 13.17958,-6.84336 18.78541,-7.93975 3.521,-0.68863 8.28816,-0.63585 10.18646,0.11279 3.34505,1.3192 4.77005,3.52435 4.96495,7.68313 0.0807,1.72327 -0.023,3.33635 -0.31777,4.94005 -1.07767,5.86325 -1.06522,5.60822 -0.4531,9.28105 0.70979,4.25892 0.75007,9.46168 0.0723,9.34316 -0.0909,-0.0159 -0.74301,-0.61445 -1.44902,-1.3301 z"
       id="path12" /><path
       style="fill:#000000"
       d="m 59.245462,291.00735 c -0.487298,-0.78846 -0.421708,-5.19889 0.124069,-8.34266 0.686789,-3.95603 0.691495,-4.81929 0.04448,-8.15949 -1.026349,-5.29848 -0.950127,-8.62868 0.251401,-10.98387 0.702685,-1.37737 2.336029,-2.74741 4.130704,-3.4648 1.366498,-0.54623 1.97481,-0.6196 4.995553,-0.60247 4.886575,0.0277 8.844086,0.86775 14.617853,3.10286 4.827015,1.86861 11.383266,5.57531 15.105992,8.54046 1.919056,1.52853 1.907916,1.4992 1.220986,3.21487 -0.333816,0.83373 -0.75119,2.26001 -0.927496,3.16952 -0.176307,0.9095 -0.341903,1.65364 -0.367992,1.65364 -0.02609,0 -1.528645,-0.54061 -3.339014,-1.20137 -3.452323,-1.26004 -8.320912,-2.73805 -10.898889,-3.3087 -1.804605,-0.39945 -2.736588,-0.10999 -2.997891,0.93113 -0.287256,1.14452 0.452753,1.90674 2.197514,2.26347 2.716141,0.55534 8.323361,2.0941 11.663212,3.20067 l 3.255526,1.07863 -0.08053,0.96548 -0.08053,0.96548 -10.715625,0.1593 c -10.706028,0.15916 -12.706921,0.31259 -16.838358,1.29123 -4.808258,1.13897 -7.935842,2.59566 -9.995785,4.6556 -0.770378,0.77038 -1.241582,1.07102 -1.365187,0.87102 z"
       id="path11" /><path
       style="fill:#000000"
       d="m 107.79272,294.50441 c -3.62279,-0.51203 -5.00233,-2.72604 -5.59109,-8.97309 -0.55161,-5.85285 0.34645,-10.87547 2.30879,-12.91245 1.3995,-1.45272 2.89702,-1.76438 7.89778,-1.64364 3.55724,0.0859 3.80767,0.12789 5.02349,0.84253 2.50915,1.47485 3.54278,5.32433 3.2754,12.19833 -0.22726,5.84255 -1.26276,8.63815 -3.65573,9.86962 -1.03673,0.53351 -1.68898,0.63885 -4.49556,0.72598 -1.80558,0.0561 -3.94897,0.008 -4.76308,-0.10728 z"
       id="path10" /><path
       style="fill:#000000"
       d="m 188.10926,293.93477 c 1.02256,-2.13374 1.59508,-4.45425 1.3449,-5.45108 -0.0915,-0.36443 -0.45371,-0.95 -0.80498,-1.30127 -0.83987,-0.83987 -2.18182,-0.83783 -7.24131,0.011 -4.12794,0.69257 -8.94894,1.32796 -12.2311,1.61203 l -2.00866,0.17385 -0.17447,-2.85156 c -0.096,-1.56835 -0.30014,-3.57487 -0.45373,-4.45893 -0.38122,-2.1943 -0.23397,-4.93041 0.27988,-5.2007 0.21828,-0.11482 2.89719,-0.93815 5.95313,-1.82962 3.05593,-0.89148 6.84318,-2.08341 8.4161,-2.64874 1.57291,-0.56533 3.02346,-0.96509 3.22344,-0.88835 0.63022,0.24183 3.23814,4.38045 4.74152,7.5245 1.63791,3.42539 3.30626,8.10526 3.99813,11.21509 l 0.46801,2.1036 -1.07823,0.95685 c -1.05831,0.93917 -3.58177,2.40359 -4.75176,2.75756 -0.56951,0.17229 -0.55676,0.10341 0.31913,-1.72425 z"
       id="path9" /><path
       style="fill:#000000"
       d="m 32.963503,295.00098 c -0.933303,-0.44153 -2.287267,-1.23613 -3.00881,-1.76579 l -1.311895,-0.96302 0.145045,-1.34286 c 0.371115,-3.43587 4.167083,-12.75937 6.849333,-16.82305 2.448076,-3.7089 1.630559,-3.57575 8.487092,-1.38233 3.23509,1.03491 7.266438,2.31203 8.958551,2.83803 3.048497,0.94765 3.077892,0.96453 3.221695,1.85069 0.07982,0.49187 -0.08151,2.42016 -0.358508,4.2851 -0.277,1.86493 -0.506372,4.26936 -0.509717,5.34318 l -0.0061,1.95239 -2.182813,-0.17843 c -3.128104,-0.25572 -7.751347,-0.86039 -12.355735,-1.61602 -5.168029,-0.84813 -6.339765,-0.85075 -7.240241,-0.0162 -0.379166,0.3514 -0.769839,0.95943 -0.868163,1.35119 -0.254632,1.01453 0.334012,3.4035 1.351361,5.48438 0.480231,0.98227 0.794994,1.78585 0.699473,1.78573 -0.09552,-1.1e-4 -0.937285,-0.36145 -1.870588,-0.80297 z"
       id="path8" /><path
       style="fill:#000000"
       d="m 147.10833,300.39217 c -6.07758,-0.72897 -11.4289,-2.47194 -18.52083,-6.0324 -4.36002,-2.18892 -5.28373,-2.74981 -5.24659,-3.18582 0.0248,-0.29104 0.20086,-1.2733 0.39126,-2.18281 l 0.34619,-1.65364 1.19624,0.0115 c 8.72746,0.0841 20.96455,0.56176 23.15665,0.90396 5.7024,0.89017 9.6407,2.44834 11.48556,4.54421 1.25193,1.42227 1.41628,2.58802 0.56232,3.98857 -1.60436,2.63125 -7.72874,4.28314 -13.3708,3.60641 z"
       id="path7" /><path
       style="fill:#000000"
       d="m 69.294933,300.30287 c -4.28079,-0.62768 -7.781053,-2.94764 -7.778319,-5.15544 0.0048,-3.86793 7.958678,-6.98071 18.923401,-7.40574 1.888096,-0.0732 6.774256,-0.19573 10.858133,-0.27232 l 7.425232,-0.13926 0.472805,2.00554 c 0.568927,2.41325 0.981195,1.96549 -4.34306,4.717 -9.743033,5.03508 -18.777531,7.24445 -25.558192,6.25022 z"
       id="path6" /><path
       style="fill:#000000"
       d="m 106.81397,306.50431 c -2.43817,-0.72086 -4.52435,-1.69424 -5.08881,-2.37437 -0.32262,-0.38873 -0.2948,-0.57182 0.21417,-1.4097 0.32171,-0.52963 1.14547,-1.94861 1.83055,-3.15331 0.91948,-1.61686 1.35269,-2.14896 1.65454,-2.03223 1.09037,0.42166 3.28849,0.65013 6.19971,0.6444 2.94232,-0.006 4.09835,-0.13335 5.61176,-0.61922 0.48648,-0.15618 0.77145,0.19763 2.31914,2.87941 2.07961,3.60346 2.06485,3.74953 -0.49634,4.91083 -4.31896,1.95831 -8.2664,2.33039 -12.24472,1.15419 z"
       id="path5" /><path
       style="fill:#000000"
       d="m 201.87708,307.33933 c -1.95138,-0.86136 -2.73003,-2.8039 -6.58585,-16.42996 -2.02754,-7.16512 -2.64957,-9.02922 -4.16978,-12.49599 -1.01443,-2.31334 -2.95437,-6.0861 -3.94563,-7.67335 -0.23807,-0.38122 -0.27624,-0.67731 -0.10878,-0.84398 0.28068,-0.27934 9.7642,-3.79344 19.82661,-7.3467 12.7415,-4.49932 17.36724,-5.75635 18.87876,-5.13026 0.82409,0.34135 1.37238,1.23917 1.37238,2.24724 0,1.46952 -0.89549,5.5503 -1.83662,8.36955 -1.06992,3.20504 -2.66685,6.74348 -4.50599,9.98422 l -1.09381,1.9274 5.23957,2.53038 c 2.88176,1.39172 7.38268,3.48419 10.00206,4.64995 5.19635,2.31265 5.42396,2.443 5.42396,3.10636 0,0.68281 -0.87878,1.35821 -4.49792,3.45699 -10.15946,5.89156 -23.1336,11.81629 -29.30235,13.38112 -2.84929,0.72279 -3.57113,0.76383 -4.69661,0.26703 z m 3.75219,-3.31916 c 2.17568,-1.32661 6.14526,-8.9846 8.57903,-16.55038 1.46511,-4.55453 3.43906,-13.68667 3.04386,-14.08187 -0.32107,-0.32107 -2.46219,4.62731 -5.86413,13.5527 -1.82901,4.79863 -4.15538,10.10633 -6.12004,13.96313 -1.77704,3.48845 -1.67615,4.35873 0.36128,3.11642 z"
       id="path4" /><path
       style="fill:#000000"
       d="m 15.213542,307.09868 c -4.793558,-1.31304 -10.4619132,-3.68998 -19.0755748,-7.99904 -5.9844852,-2.9938 -11.5023982,-6.00276 -13.3914702,-7.30247 -1.169361,-0.80454 -1.494768,-1.72615 -0.804309,-2.27793 0.181901,-0.14537 2.831042,-1.39952 5.886979,-2.787 3.0559379,-1.38748 7.54769,-3.48016 9.9816718,-4.6504 l 4.4254213,-2.12771 -1.0970502,-1.93071 c -4.3070068,-7.57996 -7.1401217,-16.74848 -6.0562589,-19.59926 0.3492222,-0.91852 1.6041426,-1.35378 3.3213049,-1.15196 2.09290657,0.24598 6.7982818,1.51755 11.8561211,3.20396 7.060061,2.35401 24.676973,8.90848 25.111294,9.3428 0.136072,0.13607 -0.233241,1.00138 -0.880668,2.06342 -2.920223,4.79035 -5.088281,10.25022 -7.923147,19.95303 -2.096629,7.17607 -3.819181,12.32994 -4.545851,13.60117 -1.272063,2.22533 -3.112243,2.67456 -6.808463,1.6621 z m 2.817718,-2.96791 c 0.08727,-0.22742 -0.601643,-1.87877 -1.5729,-3.77032 -2.108029,-4.10544 -4.187741,-8.9561 -7.0582831,-16.46254 -2.4491551,-6.40451 -4.5289702,-10.95301 -4.6946954,-10.26717 -0.1554733,0.64342 0.5990026,4.8502 1.5329535,8.54738 2.4430581,9.67121 7.274323,20.10831 10.107688,21.83589 1.025596,0.62533 1.478049,0.65668 1.685237,0.11676 z"
       id="path3" /><path
       style="fill:#000000"
       d="m 169.00331,324.6184 c -8.23751,-0.59347 -15.74516,-2.72984 -23.56255,-6.70492 -8.27963,-4.21012 -15.60803,-9.87477 -20.217,-15.62718 -1.64209,-2.04949 -4.44147,-6.38477 -4.44147,-6.87834 0,-0.17352 0.20975,-0.50531 0.46611,-0.73731 0.43154,-0.39055 0.63265,-0.32369 2.71198,0.90154 9.99791,5.89121 19.23745,8.709 27.38129,8.35053 3.94204,-0.17352 5.85384,-0.62249 8.45575,-1.98576 3.15396,-1.65252 5.48522,-4.56104 6.33386,-7.90222 0.32139,-1.26535 0.33067,-1.27366 1.49814,-1.33967 2.84646,-0.16094 9.42439,-0.9424 12.92968,-1.53603 4.45241,-0.75404 5.04611,-0.78509 5.04611,-0.26387 0,0.65998 -2.01368,4.309 -3.61949,6.55895 -0.84694,1.18667 -3.11427,3.78206 -5.03851,5.76754 l -3.49862,3.60995 2.45267,3.41598 c 1.34897,1.87879 3.90562,5.36963 5.68144,7.75742 3.67573,4.94243 3.93202,5.63978 2.23657,6.08542 -0.98856,0.25983 -9.31531,0.85201 -10.96998,0.78015 -0.47857,-0.0208 -2.20926,-0.13426 -3.84598,-0.25218 z"
       id="path2" /><path
       style="fill:#000000"
       d="m 43.523959,324.6413 c -7.10062,-0.47905 -7.227344,-0.62792 -4.144391,-4.86838 1.067564,-1.46839 3.62986,-4.98378 5.693991,-7.81199 l 3.752965,-5.14218 -3.256648,-3.19219 c -1.791156,-1.7557 -3.987223,-4.16978 -4.880148,-5.36462 -1.597505,-2.13765 -4.044936,-6.62304 -4.044936,-7.41313 0,-0.48247 0.211446,-0.46397 7.857952,0.68767 2.939426,0.4427 6.709285,0.88652 8.377464,0.98625 l 3.033054,0.18133 0.585724,1.74849 c 0.78193,2.33419 1.589599,3.66981 3.182368,5.26258 3.669348,3.66935 10.190806,5.06348 18.154471,3.88099 6.067839,-0.90099 13.799921,-3.8246 20.767868,-7.85262 2.408037,-1.39203 2.584667,-1.45253 2.976567,-1.01949 0.22914,0.2532 0.41662,0.57349 0.41662,0.71175 0,0.47175 -3.236525,5.25849 -4.900389,7.24757 -9.182115,10.97682 -25.234207,19.63625 -39.946491,21.54945 -3.918506,0.50957 -9.602394,0.67997 -13.626041,0.40852 z"
       id="path1" /></g></svg>
