<?xml version="1.0" encoding="UTF-8" standalone="no"?>
<!-- Created with Inkscape (http://www.inkscape.org/) -->

<svg
   width="324.72156mm"
   height="325.81247mm"
   viewBox="0 0 324.72156 325.81247"
   version="1.1"
   id="svg1"
   xml:space="preserve"
   sodipodi:docname="stamp_goal_bear_8.svg"
   inkscape:version="1.4.4 (dcaf3e7, 2026-05-05)"
   xmlns:inkscape="http://www.inkscape.org/namespaces/inkscape"
   xmlns:sodipodi="http://sodipodi.sourceforge.net/DTD/sodipodi-0.dtd"
   xmlns="http://www.w3.org/2000/svg"
   xmlns:svg="http://www.w3.org/2000/svg"><sodipodi:namedview
     id="namedview1"
     pagecolor="#ffffff"
     bordercolor="#000000"
     borderopacity="0.25"
     inkscape:showpageshadow="2"
     inkscape:pageopacity="0.0"
     inkscape:pagecheckerboard="0"
     inkscape:deskcolor="#d1d1d1"
     inkscape:document-units="mm"
     inkscape:zoom="0.021113883"
     inkscape:cx="615.70862"
     inkscape:cy="592.02752"
     inkscape:window-width="944"
     inkscape:window-height="250"
     inkscape:window-x="0"
     inkscape:window-y="33"
     inkscape:window-maximized="0"
     inkscape:current-layer="layer1"><inkscape:page
       x="0"
       y="0"
       width="324.72156"
       height="325.81247"
       id="page2"
       margin="0"
       bleed="0" /></sodipodi:namedview><defs
     id="defs1" /><g
     inkscape:label="Layer 1"
     inkscape:groupmode="layer"
     id="layer1"
     transform="translate(51.300494,-4.5732699)"><path
       style="fill:#000000"
       d="m 108.01495,330.17912 c -2.47534,-0.38079 -5.9999,-1.75498 -8.019478,-3.12671 C 98.032377,325.71904 84.088794,311.90406 2.3255065,230.28322 -24.699266,203.30553 -47.156485,180.72837 -47.579423,180.11175 c -4.918858,-7.17141 -4.965474,-17.20352 -0.113643,-24.45663 0.945429,-1.41334 19.10371,-19.76956 72.960773,-73.75611 C 64.703853,42.368048 97.606829,9.5420645 98.38543,8.9523793 103.0448,5.4235325 109.36125,3.8757321 115.0511,4.8685764 c 5.81223,1.0141992 8.88033,2.9314124 15.34965,9.5917656 2.52259,2.597071 12.94141,13.115853 23.15295,23.375072 10.21154,10.259219 23.39027,23.534688 29.28607,29.501042 5.8958,5.966355 27.62275,27.857242 48.28212,48.646414 20.65937,20.78918 37.95955,38.3509 38.44484,39.02604 1.32423,1.84228 2.34032,3.98121 3.12251,6.57303 0.60639,2.00931 0.70617,2.83374 0.73002,6.0316 0.0338,4.53281 -0.39506,6.50706 -2.27024,10.45104 l -1.32087,2.77813 -30.07293,30.03415 c -68.72943,68.6408 -116.04123,115.46627 -117.58294,116.37426 -4.29045,2.52686 -9.61136,3.62732 -14.15733,2.928 z m 8.26943,-5.10877 c 1.16416,-0.37063 2.73838,-1.06629 3.49827,-1.54592 0.80196,-0.50619 7.79523,-7.24967 16.66875,-16.07338 8.40793,-8.36072 23.80011,-23.66008 34.20485,-33.99857 10.40474,-10.3385 36.13929,-35.95999 57.18789,-56.93666 37.87699,-37.74754 38.28114,-38.16128 39.33656,-40.26993 1.51615,-3.02919 1.99402,-5.43455 1.83787,-9.25111 -0.14448,-3.53164 -0.73557,-5.65526 -2.2843,-8.20689 -1.11293,-1.83361 -4.96989,-5.78047 -41.01829,-41.97435 -13.91385,-13.97 -38.15143,-38.377813 -53.86129,-54.239584 -15.70987,-15.861771 -33.3898,-33.672645 -39.28873,-39.579721 -10.12802,-10.142001 -10.84322,-10.800123 -12.842,-11.817256 -2.93003,-1.4910206 -5.0084,-1.9970692 -8.20208,-1.9970692 -3.14688,0 -5.1609,0.4820721 -8.17779,1.9574272 l -2.14097,1.046999 -72.409512,72.548038 c -48.441937,48.534606 -72.685125,73.002786 -73.242168,73.921906 -1.120171,1.84827 -2.053221,4.61798 -2.403089,7.13344 -0.495653,3.56361 0.427154,7.78939 2.418551,11.07518 0.853651,1.40852 16.765904,17.37053 114.172161,114.52922 16.892163,16.84923 31.263777,31.02653 31.936917,31.50512 4.17594,2.96899 9.5823,3.77322 14.6084,2.17311 z"
       id="path37" /><path
       style="fill:#000000"
       d="m 176.32304,98.47601 c -0.14773,-0.100817 -0.42324,-0.719084 -0.61226,-1.373928 -0.60882,-2.109199 -1.34226,-3.123632 -2.77443,-3.837309 -0.72911,-0.363334 -1.48961,-0.660608 -1.68999,-0.660608 -0.80536,0 -0.12129,-0.903064 0.98365,-1.298552 1.68271,-0.602284 2.72578,-1.761176 3.37771,-3.752757 0.68396,-2.089415 1.24292,-2.330013 1.67606,-0.721443 0.69741,2.589968 1.5722,3.669613 3.59569,4.437719 0.70739,0.268517 1.28616,0.625478 1.28616,0.793246 0,0.167768 -0.77391,0.685724 -1.7198,1.151014 -1.51954,0.74748 -1.80451,1.013241 -2.44739,2.282488 -0.40018,0.790078 -0.72761,1.698234 -0.72761,2.018124 0,0.669958 -0.55311,1.231362 -0.94779,0.962006 z"
       id="path36" /><path
       style="fill:#000000"
       d="m 79.15124,129.06325 c -0.560686,-2.17623 -1.561288,-3.15761 -4.09249,-4.01388 -0.688915,-0.23304 -0.348296,-0.60087 1.261754,-1.36255 1.702132,-0.80524 1.858263,-0.9802 2.612627,-2.92773 0.325059,-0.8392 0.73039,-1.57228 0.900736,-1.62906 0.183678,-0.0612 0.490515,0.51867 0.753987,1.42499 0.525101,1.80628 1.4533,2.8317 2.976256,3.28799 1.338829,0.40112 1.519252,1.17134 0.335301,1.43138 -1.292616,0.2839 -2.659029,1.69754 -3.202435,3.31311 -0.617837,1.83685 -1.152652,2.00146 -1.545736,0.47575 z"
       id="path35" /><path
       style="fill:#000000"
       d="m 14.855917,132.00378 c -0.139167,-0.35098 -0.456535,-1.21321 -0.705263,-1.91606 -0.561729,-1.58732 -1.778514,-2.82619 -3.316476,-3.37667 -1.6112767,-0.57672 -1.6311931,-1.08872 -0.06024,-1.54861 1.592521,-0.4662 2.762673,-1.62228 3.362243,-3.32182 0.919337,-2.60593 0.937956,-2.63751 1.312522,-2.22566 0.186866,0.20547 0.489777,0.90936 0.673137,1.56421 0.584515,2.08751 1.27076,2.91191 3.12307,3.75178 0.931674,0.42244 1.648816,0.90349 1.593648,1.06899 -0.05517,0.16551 -0.620527,0.48799 -1.256353,0.71664 -1.72962,0.62197 -2.76688,1.74233 -3.324372,3.59071 -0.263344,0.87313 -0.629575,1.75561 -0.813846,1.96108 -0.283294,0.31588 -0.374118,0.27501 -0.58807,-0.26459 z"
       id="path34" /><path
       style="fill:#000000"
       d="m 127.92604,135.43921 c -4.45671,-1.47017 -9.51167,-2.45821 -14.89769,-2.9119 -4.04297,-0.34056 -12.17383,0.0357 -15.480544,0.71643 -2.31725,0.47701 -2.806693,0.46733 -3.008868,-0.0595 -0.253603,-0.66088 2.023928,-2.26158 4.855025,-3.41223 l 1.449187,-0.58899 -0.901239,-0.557 c -1.50479,-0.93001 -3.615126,-3.37745 -4.422636,-5.1291 -1.146988,-2.48805 -2.163447,-6.45097 -1.743928,-6.79914 0.484261,-0.4019 5.464539,0.12428 7.459333,0.78811 2.04608,0.68089 4.39357,2.08039 5.88989,3.51137 l 1.15894,1.10834 -0.17558,-0.92604 c -0.46559,-2.45565 -0.47492,-3.97195 -0.0365,-5.94236 0.54312,-2.44122 0.95471,-3.48303 2.17323,-5.50087 l 0.9187,-1.52136 h 2.57949 2.5795 l 1.08396,1.91823 c 0.59618,1.05503 1.28593,2.51354 1.53278,3.24115 0.62378,1.83867 0.78617,5.7241 0.31238,7.47448 -0.20679,0.76398 -0.3149,1.38906 -0.24023,1.38906 0.0747,0 0.82974,-0.66195 1.67795,-1.471 2.66298,-2.54005 7.11464,-4.08525 11.76948,-4.08525 1.40899,0 1.68513,0.0736 1.68513,0.44937 0,0.80744 -1.36007,4.93099 -2.12844,6.45311 -0.8625,1.70861 -3.02539,4.18274 -4.39837,5.03128 l -0.93919,0.58045 1.47286,0.59923 c 0.81007,0.32957 1.6961,0.75833 1.96894,0.95279 1.20764,0.86069 3.49503,3.00863 3.49503,3.28194 0,0.28827 -3.35519,1.98412 -3.85756,1.94976 -0.13391,-0.009 -0.95785,-0.25231 -1.83098,-0.54033 z"
       id="path33" /><path
       style="fill:#000000"
       d="m 145.67398,138.04671 c -0.84053,-2.93154 -1.70827,-4.12504 -3.58662,-4.93308 -0.73097,-0.31445 -1.32903,-0.67876 -1.32903,-0.80956 0,-0.13081 0.63782,-0.52984 1.41737,-0.88673 1.64227,-0.75186 2.54513,-1.82919 3.25817,-3.88781 0.27722,-0.80037 0.61855,-1.45521 0.75852,-1.45521 0.13997,0 0.49954,0.7739 0.79906,1.71979 0.64205,2.02763 1.63557,3.14091 3.30572,3.70417 1.41586,0.4775 1.52625,1.07059 0.26651,1.43188 -1.48676,0.4264 -3.07089,2.16288 -3.58147,3.92593 -0.277,0.95648 -0.58406,1.52135 -0.827,1.52135 -0.21252,0 -0.42907,-0.14883 -0.48123,-0.33073 z"
       id="path32" /><path
       style="fill:#000000"
       d="m 201.99683,138.30786 c -0.073,-0.19023 -0.10004,-2.42529 -0.0601,-4.9668 l 0.0726,-4.62091 5.09909,-0.0719 5.09908,-0.0719 -0.072,4.96667 -0.072,4.96667 -4.96699,0.072 c -3.89747,0.0565 -4.99557,-0.002 -5.09972,-0.27388 z"
       id="path31" /><path
       style="fill:#000000"
       d="m 186.0897,138.31686 c -0.26992,-0.42167 -0.37636,-4.95617 -0.18024,-7.67881 l 0.1477,-2.05052 h 5.00538 5.00539 l -0.072,4.96094 -0.072,4.96093 -4.80939,0.072 c -3.66719,0.0549 -4.86056,-0.008 -5.02487,-0.26458 z"
       id="path30" /><path
       style="fill:#000000"
       d="m 170.93923,138.26696 c -0.1994,-0.24026 -0.27212,-1.85343 -0.22322,-4.95176 l 0.0725,-4.59541 h 5.02709 5.02708 l 0.0725,4.59541 c 0.0494,3.13103 -0.0229,4.71038 -0.22692,4.95621 -0.43127,0.51966 -9.31749,0.51559 -9.74909,-0.004 z"
       id="path29" /><path
       style="fill:#000000"
       d="m 47.230863,142.27969 c -0.270217,-1.15204 -0.659697,-6.71174 -0.661935,-9.44891 l -0.0023,-2.76818 -1.25677,1.21497 c -1.71501,1.65797 -3.219837,2.68868 -4.951677,3.39159 -2.048185,0.83129 -2.317209,0.67017 -1.844727,-1.10484 0.205687,-0.77272 0.37539,-1.48506 0.377117,-1.58298 0.0017,-0.0979 -0.860062,-0.1154 -1.915089,-0.0388 -1.297836,0.0942 -2.517229,-0.001 -3.770312,-0.29574 -2.356177,-0.55329 -4.894792,-1.47371 -4.894792,-1.77469 0,-0.57162 4.09385,-4.46007 5.431566,-5.15904 0.795489,-0.41565 1.444264,-0.81526 1.441722,-0.88802 -0.0025,-0.0728 -0.611612,-0.48948 -1.353488,-0.92604 -1.997719,-1.17557 -4.332486,-3.86067 -5.519314,-6.34748 -1.207784,-2.53071 -2.298546,-5.86253 -2.012731,-6.14805 0.11258,-0.11246 1.593656,-0.2011 3.29128,-0.19698 4.490835,0.0109 7.484049,0.99113 10.4813,3.43242 0.803746,0.65466 1.511793,1.1903 1.573438,1.1903 0.06164,0 -0.05432,-0.62508 -0.257705,-1.38907 -0.445704,-1.67423 -0.486128,-5.2045 -0.08165,-7.13072 0.161929,-0.77115 0.703339,-2.29424 1.203134,-3.38465 1.228973,-2.68127 4.606759,-7.705985 5.115806,-7.610151 0.217606,0.04097 0.970625,0.906399 1.673375,1.923182 4.729561,6.843019 5.738019,10.979099 4.224623,17.326819 -0.139319,0.58436 -0.0026,0.51738 1.172628,-0.57461 1.459658,-1.35623 3.643726,-2.56108 5.895185,-3.25212 1.756295,-0.53905 8.035612,-0.89001 8.299,-0.46384 0.23298,0.37697 -1.143134,4.55648 -2.167268,6.58239 -1.133383,2.24203 -3.115265,4.51604 -5.035705,5.77797 -0.88583,0.58209 -1.609003,1.11787 -1.607051,1.19063 0.002,0.0728 0.623746,0.41878 1.381766,0.76894 1.410258,0.65144 5.479259,4.47726 5.479259,5.15179 0,0.19506 -1.151932,0.72407 -2.709257,1.2442 -2.341765,0.78212 -3.057973,0.90486 -5.280106,0.90486 h -2.57085 l 0.159473,0.66146 c 0.08771,0.3638 0.261102,0.9371 0.385315,1.27399 0.342855,0.92991 0.272674,1.37184 -0.217857,1.37184 -0.992542,0 -4.787061,-2.13685 -6.413316,-3.61161 l -1.697638,-1.53949 0.17842,3.56774 c 0.09813,1.96225 0.350844,4.69291 0.561583,6.06812 0.435225,2.84012 0.317734,3.18816 -1.076249,3.18816 -0.703753,0 -0.917651,-0.12384 -1.028238,-0.59531 z"
       id="path28" /><path
       style="fill:#000000"
       d="m 237.20819,155.00169 c -1.26934,-3.63016 -1.88249,-4.42601 -3.86833,-5.02098 -1.41025,-0.42252 -1.25044,-0.9179 0.52725,-1.63434 1.63536,-0.65908 2.26957,-1.38916 2.94824,-3.39389 0.26366,-0.77881 0.61508,-1.41602 0.78095,-1.41602 0.16588,0 0.54117,0.71437 0.834,1.5875 0.7364,2.19575 1.47793,2.87773 3.99418,3.67343 0.80483,0.25451 0.50728,0.67903 -0.92604,1.32126 -1.8062,0.80929 -2.51442,1.61405 -3.0713,3.48994 -0.44436,1.49689 -0.97186,2.09974 -1.21895,1.3931 z"
       id="path27" /><path
       style="fill:#000000"
       d="m 180.31358,158.48571 c -0.10005,-0.72744 -0.28431,-1.38591 -0.40947,-1.46326 -0.12517,-0.0774 -0.30798,-0.8514 -0.40627,-1.72009 l -0.17869,-1.57944 h -7.58666 -7.58665 l -1.11042,-1.57458 c -1.21054,-1.71654 -1.32409,-2.15205 -0.69684,-2.67262 0.34139,-0.28333 0.63004,-0.26566 1.65365,0.1012 2.09614,0.75127 5.32867,0.4205 6.29186,-0.64381 0.63473,-0.70138 1.40437,-0.62566 2.29472,0.22574 0.68485,0.6549 0.93747,0.72422 2.52802,0.69366 1.85696,-0.0357 3.66944,-0.63496 3.92362,-1.29733 0.25305,-0.65945 1.4134,-0.4466 2.20913,0.40524 0.62824,0.67253 0.93896,0.79375 2.03459,0.79375 0.7466,0 1.7085,-0.21178 2.27599,-0.50111 1.01091,-0.51538 1.74037,-0.47192 3.44571,0.20532 1.12427,0.44647 3.39937,0.36841 4.12755,-0.14162 0.58362,-0.40879 0.6826,-0.40612 1.51258,0.0409 0.85715,0.46161 0.92535,0.46147 1.95743,-0.004 0.99486,-0.44862 1.13132,-0.45265 1.95922,-0.0579 2.04631,0.97582 4.36844,0.6956 4.77198,-0.57584 0.12558,-0.39567 0.3967,-0.55332 0.95153,-0.55332 0.42676,0 0.77593,0.10167 0.77593,0.22594 0,0.12428 0.30327,0.55319 0.67394,0.95315 0.58451,0.6307 0.80394,0.7034 1.65364,0.5479 0.53884,-0.0986 1.48548,-0.42945 2.10365,-0.73519 l 1.12393,-0.55589 0.65131,0.61187 c 0.69482,0.65274 2.47324,0.8523 3.11565,0.3496 0.18434,-0.14425 0.74839,-0.40158 1.25345,-0.57183 0.80172,-0.27027 1.01027,-0.24156 1.64293,0.22619 1.01564,0.7509 2.27347,0.69234 3.14913,-0.14659 0.60878,-0.58325 0.78773,-0.6352 1.23208,-0.3577 0.28591,0.17856 0.65985,0.54883 0.83097,0.82283 0.26501,0.42436 0.18647,0.61204 -0.53,1.26642 -0.8274,0.75572 -0.83677,0.79117 -0.57515,2.17462 0.31982,1.69121 0.0805,4.73529 -0.41968,5.33795 -0.44664,0.53817 -1.18474,0.55966 -1.61031,0.0469 -0.17674,-0.21295 -0.38692,-1.34404 -0.46708,-2.51354 l -0.14575,-2.12635 h -6.86613 c -6.52286,0 -6.8727,0.0251 -6.99757,0.50264 -0.0807,0.30876 -0.4284,0.54623 -0.90127,0.61564 -0.66276,0.0973 -0.76983,0.027 -0.76983,-0.50562 v -0.6186 l -10.78177,0.0691 -10.78177,0.0691 -0.19303,1.71979 c -0.10617,0.94589 -0.19239,2.06279 -0.1916,2.48202 0.002,0.95081 -0.24248,1.75131 -0.53441,1.75131 -0.12206,0 -0.30379,-0.59518 -0.40384,-1.32262 z"
       id="path26" /><path
       style="fill:#000000"
       d="m 184.1692,163.34453 c -0.46179,-0.58708 -0.54837,-1.07019 -0.54837,-3.06011 0,-3.69507 -0.76023,-3.3865 8.34369,-3.3865 h 7.7959 v 1.18608 1.18608 l -6.68073,0.0707 -6.68073,0.0707 -0.14766,1.89608 c -0.20944,2.68936 -0.97771,3.44099 -2.0821,2.03699 z"
       id="path25" /><path
       style="fill:#000000"
       d="m 170.87074,161.85885 c -0.0467,-2.51023 -0.0475,-4.65336 -0.002,-4.7625 0.0457,-0.10914 1.8164,-0.19843 3.93484,-0.19843 h 3.8517 l -0.15954,0.59531 c -0.0877,0.32742 -0.16116,2.10796 -0.16315,3.95676 l -0.004,3.36145 -0.99219,0.17385 c -0.5457,0.0956 -1.48964,0.4582 -2.09763,0.80574 -0.82799,0.47329 -1.50431,0.63189 -2.69456,0.63189 h -1.58911 z"
       id="path24" /><path
       style="fill:#000000"
       d="m 40.885422,172.80616 c -0.197227,-0.89796 -1.01971,-1.73162 -2.123965,-2.15282 l -0.79375,-0.30276 0.661458,-0.49726 c 0.363802,-0.27349 0.987534,-0.74843 1.38607,-1.05542 0.398537,-0.307 0.822824,-0.93718 0.942861,-1.40042 0.120037,-0.46324 0.329743,-0.83852 0.466013,-0.83397 0.136271,0.005 0.515342,0.57188 0.842382,1.26072 0.418335,0.88114 0.870821,1.38415 1.526284,1.69672 0.512417,0.24435 0.899683,0.53308 0.860592,0.64161 -0.03909,0.10853 -0.487795,0.47395 -0.997118,0.81203 -0.509323,0.33809 -1.144207,1.05962 -1.410853,1.6034 -0.579065,1.18091 -1.130401,1.27341 -1.359974,0.22817 z"
       id="path23" /><path
       style="fill:#000000"
       d="m -23.362384,177.36819 c -0.102044,-0.10204 -0.185535,-0.39767 -0.185535,-0.65694 0,-1.01959 -1.378105,-4.75705 -2.047306,-5.55235 -0.700096,-0.83202 -3.503416,-2.3541 -4.336443,-2.3545 -0.529881,-2.6e-4 -1.128112,-0.67698 -0.910181,-1.0296 0.08798,-0.14236 0.782838,-0.44044 1.544133,-0.66241 2.313898,-0.67467 3.736557,-1.75295 4.532424,-3.43527 0.383618,-0.8109 0.853642,-2.16193 1.044498,-3.0023 0.266,-1.17122 0.458968,-1.52793 0.826576,-1.52793 0.368995,0 0.612903,0.45752 1.057889,1.98438 1.135958,3.89775 1.741017,4.59681 5.033382,5.81538 2.267909,0.83939 2.542351,1.42282 0.879863,1.87048 -1.534691,0.41325 -3.102133,1.22095 -3.996633,2.05945 -0.689847,0.64666 -0.90099,1.19508 -2.257078,5.86254 -0.189165,0.65108 -0.825792,0.98887 -1.185589,0.62907 z"
       id="path22" /><path
       style="fill:#000000"
       d="m 202.02654,177.28979 c -0.54504,-0.60226 -0.3566,-1.50505 0.36174,-1.73304 0.27282,-0.0866 0.55562,-0.51113 0.64792,-0.97265 0.0901,-0.45045 0.1638,-4.66418 0.1638,-9.36386 v -8.54486 l 0.77823,-0.17093 c 0.42803,-0.094 1.01552,-0.0439 1.30553,0.11127 0.31039,0.16612 2.26719,0.2822 4.75711,0.2822 h 4.22983 l 0.094,2.05052 c 0.0517,1.12778 0.0519,2.19005 5.3e-4,2.36058 -0.054,0.17932 -0.94951,0.38858 -2.12361,0.49627 -3.96528,0.3637 -4.87504,1.22139 -4.34109,4.09259 0.22973,1.23528 0.20924,1.7976 -0.10274,2.81994 -0.21432,0.70233 -0.62581,2.289 -0.91443,3.52593 -0.28861,1.23693 -0.58861,2.45732 -0.66666,2.71198 -0.10003,0.32634 0.004,0.46302 0.35216,0.46302 1.10858,0 1.57565,1.59447 0.61731,2.10736 -0.28148,0.15064 -1.45365,0.27389 -2.60483,0.27389 -1.73111,0 -2.1729,-0.0882 -2.55478,-0.51021 z"
       id="path21" /><path
       style="fill:#000000"
       d="m 17.273525,178.63287 c -0.561431,-0.36309 -3.135586,-6.93062 -4.061611,-10.36251 -0.313437,-1.16161 -0.65218,-2.11203 -0.752762,-2.11203 -0.100582,0 -0.429876,0.50602 -0.731766,1.12448 -1.264211,2.58992 -3.6679163,5.13379 -5.9621599,6.30983 -1.5657298,0.8026 -1.626267,0.7411 -1.4581959,-1.48118 0.082543,-1.09141 0.1213382,-1.98438 0.086212,-1.98438 -0.035126,0 -0.6510231,0.16858 -1.3686593,0.37461 -0.7176362,0.20604 -1.8096372,0.45443 -2.42666903,0.55199 -1.54923712,0.24494 -6.95499697,-0.3726 -7.12432657,-0.81387 -0.3384359,-0.88195 3.9361859,-6.72196 5.2179375,-7.12877 0.59003402,-0.18727 0.69618778,-0.65687 0.1484858,-0.65687 -0.2014306,0 -1.3222909,-0.47852 -2.4908007,-1.06338 -1.675285,-0.83851 -2.5350173,-1.50076 -4.0655334,-3.13166 -1.7265831,-1.83984 -4.4545125,-6.03596 -4.4545125,-6.85197 0,-0.51798 4.7186863,-1.45148 7.4083341,-1.46559 2.920687,-0.0153 4.87520983,0.46777 7.3512953,1.81698 0.9145145,0.49832 1.7008086,0.90603 1.7473202,0.90603 0.046512,0 -0.2008621,-0.5964 -0.5497196,-1.32534 -1.6423267,-3.43165 -2.0712977,-7.69999 -1.1570646,-11.513 0.80407,-3.35356 2.6095889,-7.79916 3.1675186,-7.79916 0.6713152,0 6.359068,5.92812 7.488729,7.80521 1.407851,2.33934 2.098208,4.63565 2.290273,7.61807 l 0.166857,2.59099 1.157658,-1.59222 c 1.679823,-2.3104 4.206998,-4.12139 7.28328,-5.21925 1.641714,-0.5859 5.819746,-1.40313 6.045844,-1.18258 0.264757,0.25826 -0.493026,5.6346 -1.030325,7.30999 -0.687044,2.14232 -1.901469,4.22012 -3.420629,5.85247 -0.781751,0.84 -1.395089,1.54889 -1.362972,1.57532 0.03212,0.0264 0.772769,0.25059 1.645894,0.49813 2.350272,0.66634 6.482292,3.24294 6.482292,4.04215 0,0.50444 -3.565711,2.73054 -5.498487,3.43274 -0.914115,0.33211 -2.3131,0.68035 -3.108854,0.77388 -0.795754,0.0935 -1.446328,0.18342 -1.445719,0.19976 6.09e-4,0.0163 0.298265,0.61544 0.661458,1.33133 1.131691,2.23067 0.971237,2.33422 -2.314664,1.49383 -1.996693,-0.51067 -4.166399,-1.46893 -5.573031,-2.46136 -0.40856,-0.28826 -0.798215,-0.46872 -0.8659,-0.40104 -0.254999,0.255 1.57404,4.95997 3.240706,8.3363 0.952098,1.92876 1.668484,3.66998 1.591967,3.86938 -0.168823,0.43994 -1.588687,0.97135 -1.9577,0.73269 z"
       id="path20" /><path
       style="fill:#000000"
       d="m 226.52935,194.12732 c -0.20713,-0.24957 -0.0394,-1.11011 0.62341,-3.19874 0.80181,-2.52658 1.93016,-8.50053 1.65713,-8.77355 -0.0562,-0.0562 -0.89311,0.65435 -1.85971,1.57909 -1.84986,1.76976 -4.87343,3.52347 -5.31445,3.08244 -0.15821,-0.15821 -0.13997,-0.69169 0.0494,-1.44363 0.16517,-0.65597 0.30032,-1.23793 0.30032,-1.29324 0,-0.0553 -1.16086,-0.0919 -2.57969,-0.0813 -2.03338,0.0152 -3.04166,-0.12078 -4.76118,-0.64216 -1.19982,-0.3638 -2.18208,-0.79959 -2.18281,-0.96843 -0.002,-0.37931 1.74028,-2.5751 2.94295,-3.70976 0.4907,-0.46295 1.401,-1.12891 2.02288,-1.47991 l 1.1307,-0.63818 -1.57995,-0.9752 c -2.78994,-1.72205 -4.58268,-4.26121 -6.13146,-8.68435 -0.34115,-0.97429 -0.53782,-1.8539 -0.43705,-1.95468 0.32786,-0.32785 5.31741,-0.43415 6.87262,-0.14641 2.12974,0.39404 4.06368,1.28606 5.729,2.64249 1.26857,1.03326 1.41159,1.09348 1.27208,0.53564 -0.93014,-3.71922 -0.73103,-7.17369 0.59547,-10.33085 1.02765,-2.44589 3.48424,-6.56953 3.91368,-6.56953 0.45615,0 3.54125,4.19023 4.69323,6.3744 0.50596,0.9593 1.1019,2.44283 1.32431,3.29673 0.45153,1.73357 0.53454,5.09209 0.15827,6.40406 -0.13536,0.47198 -0.18104,0.85815 -0.10151,0.85815 0.0795,0 0.83946,-0.64332 1.68873,-1.42959 2.58153,-2.39004 5.31861,-3.45194 9.70525,-3.76534 2.89757,-0.20701 2.81294,-0.35903 1.78155,3.2001 -1.11987,3.86444 -2.56292,6.18254 -5.03685,8.09116 l -1.47437,1.13747 1.37283,0.65248 c 1.58693,0.75424 5.06978,3.91683 4.95553,4.49986 -0.0931,0.47515 -3.52746,1.9825 -5.46239,2.39746 -0.76333,0.16371 -1.96588,0.29765 -2.67234,0.29765 h -1.28448 l 0.50375,1.32575 c 0.27706,0.72917 0.50375,1.57585 0.50375,1.88153 0,0.49803 -0.10308,0.53696 -0.99219,0.37468 -1.7348,-0.31663 -4.74841,-1.94811 -6.3677,-3.44728 l -1.55712,-1.44162 -0.15317,2.70399 c -0.16142,2.84975 -1.02065,7.59944 -1.64511,9.09398 -0.30043,0.71903 -0.51627,0.88605 -1.14506,0.88605 -0.42617,0 -0.90237,-0.15364 -1.05822,-0.34143 z"
       id="path19" /><path
       style="fill:#000000"
       d="m 179.78438,208.92905 c -1.67413,-0.55397 -3.17025,-1.402 -4.21981,-2.39186 -0.91639,-0.86427 -1.04728,-0.90659 -2.3789,-0.76915 -1.53945,0.15888 -3.72353,-0.25863 -5.17525,-0.98931 -4.418,-2.22367 -6.69704,-8.24721 -4.76928,-12.60524 l 0.50714,-1.14647 -0.81096,-1.73298 c -2.44985,-5.23521 -0.0736,-11.30314 5.29048,-13.50937 0.82632,-0.33987 1.91913,-0.62105 2.42845,-0.62485 0.85503,-0.006 0.98618,-0.122 1.71023,-1.50762 1.52878,-2.92561 4.40193,-5.19772 7.68248,-6.07534 1.70905,-0.45721 5.18266,-0.45339 6.91399,0.008 1.98267,0.52792 4.42267,1.91414 5.86052,3.32949 2.15047,2.11682 3.76129,5.85338 3.76242,8.72757 4.5e-4,1.13347 0.0668,1.24307 1.17695,1.94443 5.30542,3.35173 6.08549,11.23581 1.5875,16.04454 -1.21913,1.30334 -3.95112,2.92367 -4.92952,2.92367 -0.28973,0 -0.6136,0.29964 -0.78646,0.7276 -1.62025,4.01154 -2.97011,5.58367 -6.04478,7.04011 -1.48628,0.70404 -2.06106,0.82433 -4.23333,0.88601 -1.56515,0.0444 -2.91286,-0.0608 -3.57187,-0.27884 z m 6.5721,-3.42661 c 2.61292,-1.19623 4.38542,-3.632 4.54843,-6.25043 l 0.0754,-1.21138 1.4497,-0.16035 c 1.91404,-0.2117 3.67949,-1.09615 4.79921,-2.40429 1.36316,-1.59254 1.83571,-2.77612 1.9528,-4.89111 0.0886,-1.6005 0.002,-2.12469 -0.54982,-3.33017 -0.85221,-1.86147 -2.16656,-3.14901 -3.98322,-3.90198 l -1.46355,-0.6066 0.14405,-2.27463 c 0.16609,-2.62274 -0.10524,-3.87913 -1.21596,-5.63056 -1.76571,-2.78424 -5.06373,-4.5173 -8.62499,-4.5323 -2.68599,-0.0113 -4.61226,0.70092 -6.50982,2.40699 -1.30665,1.17479 -2.60987,3.33522 -2.61572,4.33625 -0.003,0.49666 -1.03045,0.88116 -2.9837,1.11646 -2.44571,0.29463 -4.33382,1.64376 -5.46305,3.90356 -1.31084,2.62321 -1.10194,4.91869 0.67674,7.43653 0.48855,0.69156 0.88826,1.32458 0.88826,1.40671 0,0.0821 -0.28121,0.52834 -0.62492,0.99158 -1.25591,1.69267 -1.50514,3.38203 -0.8329,5.64571 0.54958,1.85061 1.73628,3.37395 3.37227,4.3289 1.43156,0.83563 2.14257,0.89053 6.04981,0.4672 0.54507,-0.0591 0.87607,0.17046 1.59138,1.10349 2.12029,2.76565 5.92763,3.60331 9.31959,2.05042 z"
       id="path18" /><path
       style="fill:#000000"
       d="m 36.769738,211.84412 c -1.921286,-0.42409 -3.713173,-1.49949 -4.935938,-2.96231 -0.849108,-1.01581 -1.130503,-1.18389 -1.981988,-1.18389 -2.753648,0 -5.848551,-2.17739 -7.378454,-5.19104 -0.866013,-1.7059 -0.909818,-1.92663 -0.909818,-4.58443 0,-2.51944 0.06945,-2.92386 0.710847,-4.13944 0.390966,-0.74096 1.353841,-1.93486 2.139721,-2.65311 1.34219,-1.22668 1.438453,-1.39873 1.586787,-2.83595 0.61228,-5.93242 6.487436,-10.13741 13.116129,-9.38754 4.247722,0.48052 8.216813,3.76812 9.182844,7.60615 0.277238,1.10146 0.4318,1.27101 1.732987,1.90103 1.660302,0.80391 3.507674,2.69342 4.230103,4.32659 1.135183,2.56627 1.092989,6.35153 -0.09984,8.95702 -1.197767,2.61626 -3.783614,4.81976 -6.273532,5.34591 -0.665811,0.1407 -1.348948,0.65691 -2.430974,1.83695 -2.402923,2.62061 -5.483665,3.67155 -8.68887,2.96406 z m 3.738175,-3.12441 c 1.407231,-0.47116 2.559892,-1.46591 3.396998,-2.93163 0.769398,-1.34716 0.769817,-1.34743 2.205291,-1.39028 2.54899,-0.0761 4.837746,-1.96523 5.742353,-4.73974 0.440382,-1.35069 0.230716,-4.51721 -0.378639,-5.71848 -1.00971,-1.99051 -2.603688,-3.17318 -4.617133,-3.42573 l -1.165091,-0.14614 -0.04496,-1.45521 c -0.0802,-2.59562 -1.802183,-5.02376 -4.504022,-6.35106 -1.104562,-0.54262 -1.715955,-0.65053 -3.704167,-0.65381 -2.804655,-0.005 -4.16224,0.4979 -6.052586,2.24036 -1.718665,1.58421 -2.281789,2.90209 -2.281789,5.3401 v 1.99601 l -1.513717,0.89701 c -3.543504,2.09984 -4.255923,6.41373 -1.64542,9.96346 1.158455,1.57526 3.050754,2.44293 5.327753,2.44293 1.33481,0 1.800134,0.0923 1.800134,0.35718 0,0.19645 0.364284,0.86005 0.80952,1.47468 1.419152,1.95909 4.310132,2.87556 6.625478,2.10035 z"
       id="path17" /><path
       style="fill:#000000"
       d="m 172.24375,217.85691 c -1.38245,-0.34744 -5.34972,-1.21997 -8.81617,-1.93895 -3.46644,-0.71898 -6.47277,-1.44845 -6.68073,-1.62104 -0.5848,-0.48535 -0.44863,-1.01497 0.30992,-1.20535 1.3895,-0.34875 8.83049,0.79567 13.3349,2.05089 2.3061,0.64263 5.12738,1.86517 5.42844,2.35229 0.18951,0.30664 -0.51949,1.09898 -0.91495,1.02248 -0.0813,-0.0157 -1.27896,-0.31288 -2.66141,-0.66032 z"
       id="path16" /><path
       style="fill:#000000"
       d="m 44.003521,218.1151 c -0.105957,-0.27612 0.05862,-0.59962 0.458488,-0.90124 0.732879,-0.55281 4.52362,-1.87041 7.528615,-2.61681 2.915781,-0.72425 8.360957,-1.45998 9.216375,-1.24529 0.915283,0.22972 0.956668,1.14293 0.06712,1.48113 -0.595482,0.2264 -16.471463,3.71294 -16.906904,3.71294 -0.109125,0 -0.272788,-0.19382 -0.363696,-0.43073 z"
       id="path15" /><path
       style="fill:#000000"
       d="m 63.628864,220.39237 c -0.216963,-0.35105 1.469751,-1.05279 2.530519,-1.05279 0.963587,0 0.946588,0.48775 -0.03444,0.98829 -0.778612,0.39726 -2.266652,0.43572 -2.496075,0.0645 z"
       id="path14" /><path
       style="fill:#000000"
       d="m 53.821911,228.36285 c -2.303408,-1.04616 -2.877902,-2.97317 -1.391191,-4.66644 1.446173,-1.6471 5.713695,-3.42465 7.79968,-3.2488 1.698966,0.14323 1.322666,0.66071 -1.408261,1.93662 -2.808246,1.31204 -4.317973,2.52889 -4.317973,3.48034 0,0.33019 0.339673,0.99145 0.75483,1.46945 1.271177,1.46362 0.591539,1.95018 -1.437085,1.02883 z"
       id="path13" /><path
       style="fill:#000000"
       d="m 162.27998,228.71852 c -0.0995,-0.25932 0.15214,-0.71844 0.67283,-1.22751 1.82702,-1.78625 1.28619,-2.90997 -2.19128,-4.55295 -1.32462,-0.62584 -2.74518,-1.27651 -3.15679,-1.44594 -0.41161,-0.16942 -0.69704,-0.45517 -0.63428,-0.63498 0.19913,-0.57054 3.29569,-0.32435 5.25688,0.41796 3.20478,1.21301 4.72474,2.58762 4.72474,4.27294 0,0.9886 -1.48416,2.44564 -3.11646,3.0595 -1.2421,0.46713 -1.41426,0.47941 -1.55564,0.11098 z"
       id="path12" /><path
       style="fill:#000000"
       d="m 97.763541,235.03749 c -9.537254,-0.58906 -14.506229,-1.10964 -21.29374,-2.23085 -8.108378,-1.3394 -14.128766,-3.17612 -14.854301,-4.53179 -0.635765,-1.18794 1.943181,-3.45418 6.330147,-5.5626 3.135603,-1.507 4.490121,-1.79416 5.461334,-1.1578 0.679297,0.4451 2.679236,0.57922 3.248016,0.21782 0.212503,-0.13502 -0.481699,-0.77279 -2.032809,-1.86756 -1.295533,-0.91439 -3.297431,-2.64365 -4.44866,-3.84279 -8.654072,-9.01429 -11.142813,-21.3899 -6.893518,-34.27901 l 0.562314,-1.70563 -0.624014,-0.41103 c -6.20088,-4.08452 -9.288642,-11.40169 -7.799231,-18.4821 0.900684,-4.2817 2.644935,-7.5841 5.559696,-10.52618 2.152433,-2.1726 4.680701,-3.74466 7.680599,-4.77575 1.884663,-0.64776 2.493673,-0.7275 5.55625,-0.7275 3.065904,0 3.66954,0.0792 5.55625,0.72931 1.164167,0.40112 2.380369,0.90021 2.702671,1.1091 0.322302,0.20888 0.633066,0.37979 0.690588,0.37979 0.05752,0 0.170483,-0.6385 0.251026,-1.41888 0.175595,-1.70135 1.142013,-3.69407 2.351361,-4.84842 2.701973,-2.5791 11.040077,-5.00925 19.33154,-5.6342 9.03686,-0.68114 19.82866,1.19941 26.71688,4.65562 3.34943,1.6806 4.67396,3.40361 4.91385,6.39217 0.11361,1.41536 0.20056,1.64598 0.56016,1.48579 2.66523,-1.18725 4.22189,-1.51769 7.17255,-1.52258 4.60302,-0.008 7.83471,1.05785 11.40391,3.75982 5.28947,4.00423 7.97266,10.33593 7.32448,17.28403 -0.20678,2.21651 -1.1433,5.20095 -2.19545,6.99631 -0.97845,1.6696 -3.37656,4.16048 -4.96472,5.15678 -0.75997,0.47675 -1.42315,0.89556 -1.47375,0.93068 -0.0506,0.0351 0.14283,0.69716 0.42983,1.47118 0.287,0.77403 0.77051,2.47888 1.07447,3.78857 2.16486,9.32775 0.54116,18.68845 -4.54355,26.19375 -1.74217,2.57154 -5.6974,6.45279 -8.36318,8.20677 -2.1218,1.39605 -2.3523,1.62184 -1.95348,1.91355 0.65772,0.48107 1.13746,0.41444 2.73003,-0.37917 l 1.42458,-0.7099 1.73623,0.4512 c 2.54571,0.66156 6.43165,2.67744 8.09941,4.20168 2.08934,1.90953 1.93044,2.72705 -0.76147,3.91781 -5.45796,2.41432 -17.60236,4.4244 -31.92776,5.28452 -3.90246,0.23432 -21.36171,0.29606 -24.738539,0.0875 z m 15.658049,-14.26094 c 2.66554,-0.55058 4.34406,-1.23683 6.42933,-2.62855 4.28487,-2.85977 6.61991,-7.05201 6.61991,-11.88514 0,-6.45103 -4.50964,-12.17655 -11.50937,-14.6125 -1.92193,-0.66884 -2.44528,-0.73539 -5.68854,-0.72339 -3.12936,0.0116 -3.83411,0.0998 -5.68855,0.7124 -6.085442,2.01014 -10.245812,6.46124 -11.423776,12.22209 -1.105193,5.40496 1.514319,11.12083 6.622699,14.45099 3.873877,2.52538 9.641397,3.49624 14.638297,2.4641 z M 83.152762,205.3159 c 1.953165,-0.73077 2.957086,-1.82426 2.957086,-3.22091 0,-0.94572 -0.146457,-1.2128 -1.156685,-2.10929 -1.555203,-1.38013 -3.470635,-1.92849 -6.053774,-1.73313 -4.802606,0.36322 -7.461509,3.52039 -4.955369,5.88399 1.277587,1.20492 2.768787,1.66375 5.4872,1.68839 1.698705,0.0154 2.677813,-0.11854 3.721542,-0.50905 z m 59.854148,-0.26382 c 1.31896,-0.65967 2.51392,-2.0431 2.51392,-2.91041 0,-0.92196 -1.19718,-2.25224 -2.70572,-3.00653 -3.74081,-1.87046 -9.21816,-0.76769 -10.41506,2.09689 -0.68646,1.64293 0.46071,3.26247 2.98908,4.2199 0.67814,0.25679 1.86158,0.36083 3.64941,0.32082 2.2188,-0.0497 2.85929,-0.16597 3.96837,-0.72067 z M 84.448348,192.66947 c 0.779707,-1.66139 1.769021,-2.43405 3.116551,-2.43405 1.449614,0 2.377467,0.6937 3.121707,2.33392 0.374972,0.82639 0.810992,1.59001 0.968934,1.69692 0.594816,0.40264 1.474905,0.18828 1.90177,-0.4632 0.371124,-0.56641 0.389354,-0.83276 0.122232,-1.78594 -0.772684,-2.75718 -3.490276,-4.9567 -6.124195,-4.9567 -2.532011,0 -5.390468,2.26238 -6.076244,4.80915 -0.365522,1.35745 -0.170941,2.17134 0.602125,2.51858 0.933046,0.4191 1.586503,-0.0554 2.36712,-1.71868 z m 52.348052,1.39515 c 0.59361,-0.63186 0.61,-0.73756 0.29747,-1.91823 -1.32333,-4.99929 -7.01795,-6.69497 -10.3487,-3.08154 -1.8554,2.01288 -2.49163,4.51906 -1.30803,5.15251 0.97111,0.51972 1.67007,0.10841 2.36833,-1.39364 0.84263,-1.81262 2.08313,-2.68871 3.53725,-2.49816 1.38159,0.18105 2.31882,0.92548 2.80223,2.22578 0.43617,1.17323 1.22833,2.18199 1.71348,2.18199 0.17036,0 0.59245,-0.30092 0.93797,-0.66871 z m 15.65989,-24.96786 c 0.46755,-0.9564 0.59531,-1.67412 0.59373,-3.3353 -0.002,-1.89889 -0.0941,-2.28776 -0.89702,-3.77963 -1.6317,-3.03183 -4.28379,-4.66099 -7.59932,-4.66821 -1.64624,-0.004 -2.12598,0.11571 -3.67781,0.91456 -0.98153,0.50528 -1.94743,1.16793 -2.14645,1.47255 -0.33859,0.51829 -0.24683,0.64182 1.42885,1.92346 2.60637,1.99347 6.21277,5.64439 8.23005,8.33163 l 1.75832,2.34228 0.85696,-0.99135 c 0.47132,-0.54524 1.12503,-1.53974 1.45269,-2.20999 z m -82.051973,-0.028 c 2.142261,-2.87186 5.93195,-6.67159 8.309224,-8.33124 1.018646,-0.71115 1.902935,-1.33144 1.965086,-1.37843 0.284287,-0.21493 -1.564223,-1.75626 -2.883065,-2.40398 -1.221648,-0.59998 -1.812786,-0.71864 -3.579938,-0.71864 -1.777312,0 -2.355975,0.11752 -3.609315,0.73302 -1.82503,0.89625 -3.484363,2.64506 -4.406953,4.6446 -0.902151,1.95523 -0.943343,4.58359 -0.101612,6.48352 0.619486,1.39828 2.109159,3.42142 2.428263,3.29783 0.110385,-0.0427 0.955624,-1.08975 1.87831,-2.32668 z M 131.651,158.77743 c 2.57098,-1.16768 3.47594,-4.32726 1.94767,-6.80006 -0.39501,-0.63913 -0.46247,-0.99942 -0.27799,-1.48464 0.38829,-1.02126 0.62922,-3.51836 0.42791,-4.43492 -0.54031,-2.46002 -4.34332,-4.52537 -11.3788,-6.17964 -9.88522,-2.32433 -20.66224,-2.03225 -29.368749,0.79596 -6.075726,1.97362 -7.477597,3.75734 -6.450407,8.20737 0.275978,1.1956 0.249496,1.35358 -0.383172,2.28587 -1.41388,2.08347 -1.173954,4.47895 0.610028,6.09067 1.455205,1.31469 2.653512,1.43605 5.962085,0.60381 4.230389,-1.06412 7.983485,-1.7132 11.815535,-2.04346 6.16437,-0.53126 14.01662,0.38888 21.51885,2.5216 3.71306,1.05554 4.14204,1.08919 5.57704,0.43744 z"
       id="path11" /><path
       style="fill:#000000"
       d="m 89.178619,153.87212 c -0.595454,-0.71748 0.108648,-1.35368 2.15532,-1.94748 5.728347,-1.66197 13.057851,-2.61259 14.747481,-1.91272 0.44564,0.18459 0.81025,0.42666 0.81025,0.53795 0,0.36728 -1.69537,0.98943 -3.175,1.16514 -2.98649,0.35464 -6.575128,1.01611 -9.575673,1.765 -3.464505,0.8647 -4.502118,0.94669 -4.962378,0.39211 z"
       id="path10" /><path
       style="fill:#000000"
       d="m 125.67708,154.23393 c -3.42405,-1.03673 -8.42188,-2.01879 -12.62641,-2.48106 -3.37646,-0.37122 -4.5715,-0.68621 -4.5715,-1.20495 0,-1.4284 8.43271,-0.87054 16.03277,1.06064 5.73092,1.45623 6.79059,2.00061 5.92485,3.04377 -0.47602,0.57357 -1.89563,0.44878 -4.75971,-0.4184 z"
       id="path9" /><path
       style="fill:#000000"
       d="m 103.58437,210.11427 c -1.45791,-0.6646 -2.64359,-1.71738 -3.05629,-2.71373 -0.31879,-0.76962 -0.2982,-0.87661 0.25484,-1.32443 0.70615,-0.57181 1.28882,-0.36426 1.99255,0.70977 0.96371,1.4708 4.0092,2.12967 4.89735,1.0595 0.16784,-0.20223 0.3638,-1.49891 0.43547,-2.8815 l 0.13031,-2.5138 -1.6013,-0.85348 c -0.95278,-0.50783 -1.81489,-1.19908 -2.12868,-1.70679 -1.05918,-1.7138 -0.46859,-3.69654 1.39631,-4.68768 1.59127,-0.84572 5.12958,-0.85406 6.70501,-0.0158 2.9414,1.56506 2.30097,5.27824 -1.1368,6.59114 l -1.14189,0.43609 v 2.70978 c 0,2.95779 0.0985,3.17792 1.55151,3.46852 1.20209,0.24042 3.07078,-0.54542 3.9084,-1.64361 0.74095,-0.97143 1.65219,-1.18128 2.21016,-0.50898 0.51851,0.62477 0.10065,1.59217 -1.17135,2.71183 -1.82698,1.60817 -4.57768,2.13535 -6.6418,1.2729 -0.80428,-0.33605 -1.05667,-0.33605 -2.00914,0 -1.47052,0.51883 -3.31227,0.47485 -4.59466,-0.10973 z"
       id="path8" /><path
       style="fill:#000000"
       d="m 138.78714,238.41092 c -0.33995,-0.55006 0.74485,-0.98648 4.23957,-1.70558 3.00591,-0.61852 10.9046,-2.47636 12.54829,-2.95146 0.21828,-0.0631 0.57074,-0.006 0.78323,0.12768 1.41027,0.88477 -4.78855,3.42462 -10.69721,4.38297 -2.67535,0.43393 -6.64393,0.51844 -6.87388,0.14639 z"
       id="path7" /><path
       style="fill:#000000"
       d="m 86.269076,241.02121 c -3.106293,-0.29533 -6.363702,-0.89753 -8.613233,-1.59234 -1.351521,-0.41744 -1.720427,-0.64257 -1.720427,-1.04992 0,-0.654 1.091086,-0.68123 5.344262,-0.13337 1.644562,0.21184 5.192357,0.64008 7.883988,0.95164 2.691631,0.31157 5.102647,0.67821 5.357813,0.81477 0.557773,0.29852 0.598173,0.65072 0.09671,0.84315 -0.75969,0.29152 -5.944798,0.39465 -8.349117,0.16607 z"
       id="path6" /><path
       style="fill:#000000"
       d="m 111.78646,241.66453 c -1.56382,-0.22214 -1.98438,-0.38012 -1.98438,-0.74542 0,-0.63022 1.48302,-0.79337 12.20439,-1.34261 4.31131,-0.22087 8.03202,-0.32741 8.26823,-0.23677 0.70464,0.2704 0.48874,0.84173 -0.43043,1.13903 -2.49264,0.80625 -5.58695,1.13927 -11.31094,1.21733 -3.27422,0.0446 -6.31031,0.0305 -6.74687,-0.0316 z"
       id="path5" /><path
       style="fill:#000000"
       d="m 144.6604,264.20783 c -0.66211,-0.35204 -2.16172,-1.39752 -3.33247,-2.32327 -2.97584,-2.35311 -4.91395,-3.2306 -10.13031,-4.58655 -2.49606,-0.64883 -4.71003,-1.32222 -4.91993,-1.49643 -0.54253,-0.45026 -0.2596,-1.53286 0.85668,-3.27788 3.09217,-4.83384 10.81172,-9.41399 18.03119,-10.69823 2.56132,-0.45562 7.31002,-0.20498 9.83433,0.51908 4.22782,1.21268 7.3319,3.25565 8.53766,5.61913 0.79821,1.56463 0.67351,2.14011 -0.62036,2.86273 -2.06051,1.15078 -5.76026,5.05893 -8.00365,8.45448 -0.65124,0.98571 -1.25254,1.43891 -3.34919,2.52432 -1.40549,0.7276 -3.03562,1.70987 -3.62251,2.18281 -1.27682,1.02893 -1.70567,1.05766 -3.28144,0.21981 z"
       id="path4" /><path
       style="fill:#000000"
       d="m 96.284953,271.10859 c -0.376661,-0.20025 -1.383755,-0.93336 -2.237987,-1.62914 -2.293425,-1.86802 -2.93284,-2.07296 -6.609673,-2.11843 -2.819299,-0.0349 -3.354446,-0.11808 -4.689171,-0.72914 -1.123404,-0.51431 -1.727241,-1.00972 -2.373752,-1.94753 -1.450817,-2.10451 -2.099929,-2.68582 -4.412289,-3.95144 -3.884808,-2.12627 -5.75193,-4.10543 -5.071842,-5.37618 0.331467,-0.61936 4.785275,-4.047 6.769681,-5.20994 1.765919,-1.03489 5.435387,-2.1895 8.07571,-2.54103 5.884744,-0.7835 13.622428,1.35317 19.49464,5.38321 2.60122,1.7852 5.97102,5.05087 5.85091,5.6701 -0.0487,0.25084 -0.95539,1.1804 -2.01496,2.06569 -1.05957,0.88529 -3.84733,3.63368 -6.19503,6.10753 -4.565529,4.81087 -5.022553,5.1076 -6.586237,4.2763 z"
       id="path3" /><path
       style="fill:#000000"
       d="m 108.34687,319.60179 c -0.58208,-0.14073 -1.79864,-0.64145 -2.70346,-1.11269 -1.88022,-0.97924 -4.57607,-3.64476 -92.488563,-91.44778 -42.651299,-42.59819 -52.18589,-52.24731 -52.73387,-53.36734 -2.024548,-4.13803 -1.8735,-8.49751 0.432872,-12.49337 0.591607,-1.02498 19.955131,-20.57421 71.473228,-72.158683 38.863981,-38.914058 71.230543,-71.117804 71.925693,-71.563881 3.88174,-2.490906 8.94599,-2.76499 13.22223,-0.715605 1.95299,0.93597 -0.3248,-1.290604 33.35236,32.602348 11.42295,11.496146 40.64927,40.883589 64.94738,65.305431 24.29811,24.42184 44.61571,45.04781 45.15023,45.83548 1.70871,2.51803 2.17153,4.08419 2.18451,7.39242 0.0127,3.23842 -0.43391,4.88892 -1.97123,7.28462 -0.80421,1.25325 -77.84348,78.30809 -78.29227,78.30809 -0.31968,0 -1.32876,-2.1074 -1.18654,-2.47801 0.069,-0.17993 -0.5617,-0.53154 -1.54053,-0.85876 -0.9116,-0.30474 -2.37183,-0.83363 -3.24495,-1.1753 -1.33147,-0.52104 -2.1209,-0.62848 -4.89479,-0.66621 -1.81901,-0.0247 -3.44956,-0.0604 -3.62345,-0.0792 -0.17389,-0.0188 -1.10042,-1.00999 -2.05897,-2.20263 -1.69782,-2.11243 -1.73881,-2.19954 -1.58768,-3.37344 0.6055,-4.7031 1.86598,-7.86974 5.01444,-12.59748 3.40088,-5.10679 6.7215,-8.16418 11.43895,-10.5322 3.34268,-1.67792 5.48155,-2.14094 9.86671,-2.13593 4.14131,0.005 7.29619,0.57388 9.59267,1.73054 1.54143,0.77636 4.73148,3.23819 6.05095,4.66965 l 1.09079,1.18337 3.52985,-3.52259 c 1.94142,-1.93742 3.47939,-3.57303 3.41773,-3.6347 -0.0617,-0.0617 -0.59572,0.0814 -1.18679,0.31788 -0.59106,0.2365 -1.47983,0.42999 -1.97505,0.42999 -0.5744,0 -1.185,0.23949 -1.68648,0.66146 -1.22088,1.0273 -2.32284,0.89191 -4.2425,-0.52127 -3.34006,-2.45881 -5.91443,-3.51387 -10.04906,-4.11843 -2.88531,-0.42189 -3.03722,-0.64554 -1.91227,-2.81528 1.92666,-3.71602 7.13493,-8.11514 11.68541,-9.86999 4.927,-1.90005 9.18423,-1.65996 14.12746,0.79674 1.45521,0.72321 3.46167,1.97943 4.4588,2.79159 l 1.81298,1.47667 11.27844,-11.20022 c 19.91728,-19.77914 21.73564,-21.65446 22.43177,-23.13447 1.6869,-3.58644 1.36771,-7.75644 -0.83035,-10.84806 -0.92675,-1.3035 -54.84747,-55.40207 -55.21994,-55.40207 -0.11197,0 -0.20358,0.94547 -0.20358,2.10105 0,1.39029 -0.11188,2.17346 -0.33073,2.3151 -0.1819,0.11773 -1.16416,0.27408 -2.18281,0.34744 l -1.85208,0.13338 1.05833,0.57104 c 1.218,0.65718 1.93315,1.39536 4.63539,4.78459 1.07322,1.34607 2.07665,2.44558 2.22984,2.44335 1.06593,-0.0155 0.86508,-0.53876 -1.30486,-3.39943 -1.23919,-1.63365 -2.25308,-3.14352 -2.25308,-3.35527 0,-0.2218 0.25235,-0.38653 0.59531,-0.38861 0.32743,-0.002 0.86132,-0.0749 1.18643,-0.16206 0.49538,-0.13278 1.36567,0.59939 5.37356,4.52079 2.63035,2.57357 5.13327,4.80151 5.56204,4.95099 0.84187,0.29347 1.03104,0.73349 1.11789,2.60014 l 0.0554,1.19062 -26.2599,0.0674 -26.2599,0.0674 v 8.33309 8.3331 h 26.72292 26.72292 v -6.86672 c 0,-6.93755 0.12728,-8.0037 0.99527,-8.33678 0.51876,-0.19907 2.7089,1.59922 2.7089,2.22423 0,0.26348 -0.17234,0.62208 -0.38296,0.79688 -0.30746,0.25517 -0.40204,1.47432 -0.47975,6.18396 -0.0532,3.22638 -0.19244,6.13403 -0.30935,6.46145 -0.20072,0.56209 -0.14441,0.59531 1.0089,0.59531 1.20391,0 1.22149,0.0125 1.22149,0.86754 0,0.71536 0.29776,1.16265 1.69751,2.54996 1.14269,1.13253 1.64841,1.82186 1.54728,2.10902 -0.32156,0.91315 -0.95267,1.35265 -1.94236,1.35265 -0.918,0 -1.02238,-0.0784 -1.32016,-0.99219 -0.17784,-0.5457 -0.63356,-1.4704 -1.01271,-2.05489 -0.37914,-0.58448 -0.82058,-1.29886 -0.98096,-1.5875 -0.2866,-0.51579 -1.43523,-0.90146 -1.42082,-0.47706 0.004,0.11927 0.36123,0.68454 0.79375,1.25616 0.95425,1.26118 0.98454,1.63924 0.14421,1.79988 -0.84268,0.16109 -1.91343,-0.5469 -3.06199,-2.02461 -0.69093,-0.88894 -1.11077,-1.19397 -1.65365,-1.20144 -0.40018,-0.006 -0.7276,0.0627 -0.7276,0.1517 0,0.0889 0.47625,0.73054 1.05833,1.42578 1.54053,1.83999 1.44802,2.08457 -0.7276,1.92356 l -1.78594,-0.13216 -1.55756,-1.68945 c -1.4437,-1.56595 -2.35938,-2.04994 -2.88463,-1.52469 -0.0906,0.0906 0.30626,0.72336 0.88194,1.40609 1.41064,1.67293 1.38421,2.13332 -0.12247,2.13332 -0.64306,0 -1.56579,-0.19867 -2.05053,-0.44147 -0.48473,-0.24281 -1.05993,-0.52187 -1.27821,-0.62014 -0.35794,-0.16114 -0.95327,-0.93621 -1.73668,-2.26099 -0.1815,-0.30692 -0.44322,-0.41392 -0.73686,-0.30124 -0.4225,0.16213 -0.4249,0.23369 -0.0332,0.99116 0.2322,0.44902 0.3852,1.07624 0.33998,1.39381 -0.0767,0.53852 -0.22475,0.57741 -2.19886,0.57741 h -2.11667 l -0.2364,-1.39355 c -0.19598,-1.15531 -0.34509,-1.42083 -0.87221,-1.55313 -0.34971,-0.0878 -0.67948,-0.11552 -0.73284,-0.0617 -0.0534,0.0539 9.9e-4,0.63267 0.12077,1.28626 0.11977,0.65358 0.16195,1.27866 0.0937,1.38906 -0.0682,0.1104 -0.52673,0.20073 -1.01887,0.20073 -0.49215,0 -0.9684,0.11906 -1.05834,0.26458 -0.0899,0.14552 -0.49356,0.26458 -0.89694,0.26458 -0.9878,0 -1.48199,-0.93306 -1.25292,-2.36558 0.16249,-1.01614 0.13594,-1.074 -0.49284,-1.074 -0.55969,0 -0.66459,0.12332 -0.66459,0.7813 0,1.01237 -0.49592,2.08715 -1.03234,2.23734 -0.23258,0.0651 -1.2852,0.19847 -2.33917,0.29633 -2.40049,0.22289 -2.66691,-0.12959 -1.42727,-1.88828 0.45652,-0.64767 0.83003,-1.23363 0.83003,-1.30213 0,-0.44798 -1.04828,0.052 -2.23528,1.06606 -0.76651,0.65485 -1.47493,1.19063 -1.57427,1.19063 -0.0993,0 -0.5194,0.25046 -0.93345,0.55659 -0.77946,0.57627 -1.32341,0.53913 -2.23335,-0.1525 -0.47375,-0.36009 -0.46016,-0.41664 0.33073,-1.37613 0.90086,-1.09289 1.00808,-1.40921 0.47767,-1.40921 -0.34305,0 -1.50497,1.37057 -1.50497,1.77522 0,0.11504 -0.32742,0.2274 -0.7276,0.2497 -0.40018,0.0223 -1.08396,0.13101 -1.51951,0.24157 l -0.79191,0.20103 0.7563,-0.99156 c 0.56927,-0.74635 0.68117,-1.06668 0.4525,-1.29535 -0.22866,-0.22867 -0.71298,0.13673 -1.95848,1.47759 -1.90978,2.05602 -2.5224,2.20921 -4.54145,1.13568 l -1.2144,-0.6457 1.19008,-0.87565 c 1.38661,-1.02025 1.48263,-1.27296 0.48312,-1.27139 -0.42907,6.7e-4 -1.27038,0.40955 -2.05052,0.99657 -2.40595,1.81037 -3.91886,2.70646 -4.56944,2.70646 -0.68306,0 -2.44605,-0.73987 -2.43607,-1.02234 0.003,-0.0926 0.59569,-0.58501 1.31649,-1.09433 0.7208,-0.50932 1.27381,-1.0451 1.2289,-1.19063 -0.14716,-0.47687 -0.92516,-0.44059 -1.67913,0.0783 -1.86871,1.28612 -4.53254,2.69982 -5.08727,2.69982 -0.71065,0 -4.5236,-2.33664 -4.50078,-2.75816 0.0268,-0.49613 4.27626,-3.06267 5.07085,-3.06267 h 0.74211 l -0.0699,-8.26823 -0.0699,-8.26823 -3.96875,-0.22095 c -4.30448,-0.23964 -4.32108,-0.24566 -5.54344,-2.00952 -0.86469,-1.24775 -0.67872,-1.78392 0.742,-2.1393 1.82785,-0.45721 4.10431,-1.61617 7.13516,-3.63254 2.99065,-1.98963 3.96634,-2.74644 8.02019,-6.22099 l 2.41641,-2.0711 0.11241,-1.55397 c 0.16742,-2.31461 0.28965,-2.39226 3.7655,-2.39226 1.63798,0 3.0766,0.1192 3.22458,0.26718 0.17436,0.17436 4.67365,0.2433 12.95135,0.19844 l 12.68418,-0.0687 -23.68021,-23.776346 -23.68021,-23.776343 -0.085,1.003897 c -0.10479,1.238024 0.18945,2.977666 1.67515,9.903997 1.90357,8.87445 4.7294,20.695885 6.73236,28.163821 1.16446,4.341674 1.29392,5.063324 0.96693,5.390314 -0.67548,0.67548 -15.77676,2.00494 -16.13783,1.42072 -0.43447,-0.70299 -3.41662,-18.347132 -4.54741,-26.905063 -0.40379,-3.055938 -0.84787,-5.675313 -0.98685,-5.820834 -0.16059,-0.168137 -0.19286,5.784389 -0.0885,16.329756 0.15669,15.840931 0.14238,16.605981 -0.31509,16.850821 -0.27067,0.14485 -6.93228,0.39836 -15.30635,0.58249 -11.68011,0.25681 -17.54463,0.25786 -27.630789,0.005 -16.583913,-0.41587 -18.46199,-0.52297 -18.709983,-1.06695 -0.105779,-0.23203 -0.114024,-3.04124 -0.01832,-6.242703 0.258979,-8.663567 0.268925,-26.733729 0.01456,-26.445105 -0.121837,0.138245 -0.609012,3.108854 -1.08261,6.601355 -1.547638,11.412906 -3.976218,25.277923 -4.548415,25.967383 -0.249522,0.30065 -0.787953,0.3458 -2.589058,0.21707 -5.578425,-0.39868 -13.135488,-1.22134 -13.369542,-1.45539 -0.165801,-0.1658 -0.04814,-1.02901 0.33242,-2.438687 2.945875,-10.912292 6.98586,-28.090638 8.524871,-36.248444 0.702549,-3.723985 0.76801,-4.43073 0.490016,-5.29037 -0.176472,-0.545703 -0.391804,-0.992188 -0.478516,-0.992188 -0.08671,0 -23.74377,23.604141 -52.571239,52.453649 -41.537425,41.56917 -52.527265,52.70509 -52.961437,53.6654 -0.861179,1.90476 -1.168315,4.10005 -0.829811,5.93118 0.453207,2.45162 1.401769,4.00165 4.048612,6.61578 1.326291,1.30989 6.181991,6.11639 10.790444,10.68111 l 8.379006,8.29948 0.561419,-1.10047 c 0.8113,-1.59028 3.940985,-4.77443 6.1485458,-6.25554 2.3848211,-1.60004 5.4215248,-2.9243 7.93345829,-3.45966 5.88231401,-1.25368 12.88821191,1.26623 18.05250491,6.49319 l 1.564355,1.58335 -0.573006,1.93324 c -0.675526,2.27914 -0.727896,4.42766 -0.161226,6.61451 0.509471,1.96612 0.33888,2.21483 -1.674791,2.44177 -2.655412,0.29926 -4.09846,0.71253 -6.642093,1.9022 -1.3655516,0.63868 -2.7011642,1.16123 -2.9680278,1.16123 -0.2689849,0 -1.9333554,-1.45646 -3.7348869,-3.26833 -4.11517298,-4.1388 -5.5003163,-4.89268 -10.2516255,-5.57959 -3.8995108,-0.56376 -6.0949298,-0.7412 -6.0949298,-0.49261 0,0.12463 0.822147,1.04244 1.826994,2.03959 1.6957662,1.68277 1.8905591,1.80139 2.7119788,1.65144 1.1289056,-0.20609 4.0609963,0.4106 5.5532887,1.16799 1.2641039,0.64157 5.5176452,4.65265 6.334093,5.97303 0.2822958,0.45654 0.442322,1.01494 0.3556139,1.2409 -0.2574215,0.67083 -1.2436298,1.18295 -1.8330101,0.95185 -0.6965804,-0.27314 -1.98437501,-0.29957 -1.98437501,-0.0407 0,0.11217 1.05245451,1.25153 2.33878781,2.5319 2.5871388,2.57516 2.4730259,2.56156 3.4051235,0.40557 1.1203071,-2.59134 6.3066464,-5.95454 10.1310894,-6.56973 1.235894,-0.1988 2.313661,-0.19105 3.830428,0.0276 1.962938,0.28291 2.189959,0.38352 3.244147,1.43771 1.151296,1.1513 3.433049,2.22762 4.722448,2.22762 1.06117,0 2.018671,0.63708 3.767922,2.50704 1.578472,1.68739 2.637913,3.40436 3.355351,5.43779 0.530717,1.50421 0.246946,1.70306 -2.437635,1.70809 -2.136947,0.004 -2.495291,0.0848 -4.377974,0.98763 -1.127786,0.5408 -2.050521,1.05109 -2.050521,1.13399 0,0.0829 1.041797,0.0722 2.315105,-0.0237 2.67958,-0.20188 4.980515,0.26216 6.938789,1.39937 1.355542,0.7872 4.791353,4.12319 6.04907,5.87333 1.29109,1.79658 1.170765,2.14213 -1.232101,3.53829 -1.137797,0.6611 -2.9535,1.90509 -4.034896,2.76442 -3.259861,2.59044 -3.083802,2.51845 -5.905455,2.41462 l -2.498259,-0.0919 1.492317,1.5875 c 1.299639,1.38253 3.789625,3.83645 3.892835,3.83645 0.01974,0 0.317226,-0.60066 0.661079,-1.3348 0.527537,-1.12631 1.107035,-1.69932 3.710124,-3.66857 6.518406,-4.93122 9.857262,-6.41809 14.408268,-6.41634 3.41539,0.001 6.06749,0.57235 8.844591,1.90436 6.051289,2.90243 12.261103,9.12004 13.531029,13.54801 0.33968,1.18439 -0.107104,1.72719 -2.846574,3.4583 -1.282121,0.8102 -2.772237,2.00249 -3.311368,2.64956 -1.170017,1.40424 -2.377555,1.94202 -2.988604,1.33097 -0.363056,-0.36306 -0.56034,-0.2695 -1.922037,0.91148 -0.8346,0.72384 -1.755579,1.58376 -2.04662,1.91093 -0.291042,0.32718 -1.61892,1.41298 -2.950841,2.4129 l -2.421674,1.81804 -2.010097,0.0382 c -1.105553,0.021 -2.010097,0.0571 -2.010097,0.0802 0,0.0808 4.863373,4.90464 4.944848,4.90464 0.04523,0 0.08519,-0.14883 0.0888,-0.33073 0.01555,-0.78403 1.915005,-2.88115 3.237523,-3.57442 0.760742,-0.39878 2.225332,-1.58826 3.254646,-2.64329 1.665563,-1.70717 1.980591,-1.91823 2.863145,-1.91823 1.371874,0 1.851654,0.29734 4.194536,2.59945 1.448744,1.42354 2.608697,2.2849 3.96875,2.94713 1.347124,0.65594 2.079937,1.19778 2.450883,1.81219 1.453338,2.4072 2.140806,3.10439 3.96229,4.01832 1.774217,0.89021 1.986394,0.93155 5.484117,1.06835 3.220734,0.12597 3.722722,0.20887 4.372085,0.72205 0.403475,0.31887 1.42528,1.02873 2.270677,1.57749 0.845398,0.54875 1.91696,1.31571 2.38125,1.70434 l 0.844164,0.70661 v 3.52673 c 0,3.50932 0.0049,3.53757 0.993349,5.72499 1.336006,2.95656 1.260403,3.17708 -1.617861,4.7189 -1.257248,0.67348 -3.202065,1.75158 -4.321817,2.39577 l -2.035912,1.17126 -3.123463,-0.23647 c -1.717904,-0.13006 -3.177702,-0.19242 -3.243995,-0.13858 -0.06629,0.0538 1.223784,1.43271 2.866836,3.06416 2.713091,2.69393 3.015662,2.92083 3.295533,2.47135 1.224489,-1.96659 1.494121,-2.20781 3.755715,-3.36002 1.305305,-0.66501 3.361941,-1.81782 4.570303,-2.56179 1.208361,-0.74397 2.543283,-1.42872 2.966488,-1.52168 0.48029,-0.10548 1.54389,0.0573 2.83007,0.43329 1.80643,0.528 2.66432,0.60375 6.95538,0.61412 4.75662,0.0115 4.93796,0.0321 6.42399,0.7284 0.96359,0.45152 2.34031,1.49334 3.72211,2.81667 1.44152,1.38051 2.829,2.42044 4.0493,3.03497 2.06568,1.04026 3.14608,2.11261 3.9144,3.88525 0.28326,0.65352 0.55554,1.24221 0.60507,1.30821 0.11057,0.14733 10.38929,-10.09577 10.38929,-10.35328 0,-0.10131 -1.04179,0.17123 -2.3151,0.60565 -3.75812,1.28217 -6.35805,1.81856 -8.82441,1.82057 -2.59646,0.002 -2.36206,0.12237 -6.31305,-3.23864 -4.00333,-3.40552 -5.42925,-3.90137 -11.2366,-3.90739 -4.25357,-0.004 -6.61857,-0.37943 -7.7581,-1.23021 -0.8585,-0.64096 -2.909772,-4.62798 -3.12728,-6.07842 -0.196225,-1.30852 0.354223,-4.26266 1.22362,-6.56691 0.47414,-1.25668 1.09024,-2.08875 3.03658,-4.10104 1.34296,-1.38847 3.08128,-3.32348 3.86294,-4.30003 1.51445,-1.89204 6.09132,-5.62044 8.267,-6.73444 3.04381,-1.55851 6.63704,-1.64219 10.3051,-0.23999 0.9928,0.37952 3.24805,0.9947 5.01168,1.36707 4.41005,0.93112 6.70271,2.04724 8.95293,4.35847 1.31261,1.34818 2.16752,1.97 3.43959,2.50176 1.93313,0.80811 2.31102,1.09822 3.69738,2.83853 1.38635,1.74028 3.0687,6.88212 3.18116,9.72268 0.0317,0.80036 0.0963,1.52995 0.14354,1.62129 0.0473,0.0914 1.09549,-0.86115 2.32938,-2.11666 l 2.24346,-2.28276 -0.76279,-0.20054 c -0.8002,-0.21037 -1.0138,-0.62888 -1.99075,-3.9005 -0.239,-0.80036 -0.84387,-2.128 -1.34416,-2.95029 -1.65413,-2.71881 -1.15107,-3.78976 2.67153,-5.6874 1.99254,-0.98915 2.63014,-1.45196 3.19393,-2.31836 1.18179,-1.81613 4.11968,-5.79187 4.98028,-6.73964 0.44679,-0.49205 1.52178,-1.35937 2.38887,-1.92736 4.26468,-2.79366 9.95712,-2.77192 13.33506,0.0509 0.52988,0.44281 1.10678,0.91961 1.28199,1.05956 0.17521,0.13995 0.4006,0.69175 0.50087,1.22623 l 0.18231,0.97178 -30.2665,30.1196 c -16.64657,16.56577 -30.75896,30.47232 -31.36086,30.90343 -1.86199,1.33365 -3.68013,1.91261 -6.31397,2.0106 -1.30969,0.0487 -2.8575,-0.0265 -3.43959,-0.16729 z M 19.735375,224.74911 c 0.969594,-0.12115 1.572618,-0.0824 1.768729,0.11375 0.366219,0.36622 1.425665,0.391 1.643557,0.0384 0.08808,-0.14251 0.03525,-0.49247 -0.117393,-0.77769 -0.198775,-0.37142 -0.191639,-0.57166 0.02515,-0.70565 0.541073,-0.3344 -2.750697,-1.22723 -4.690157,-1.27211 -2.356378,-0.0545 -2.887068,-0.38984 -4.574253,-2.89014 -1.482463,-2.19691 -2.952957,-3.60557 -3.8121935,-3.65189 -1.0623816,-0.0573 -3.758759,0.0816 -3.8811677,0.19982 -0.066034,0.0638 2.3106665,2.5489 5.2815562,5.52244 l 5.401618,5.40644 0.741694,-0.8998 c 0.625732,-0.75912 0.971707,-0.92854 2.212862,-1.08361 z M 203.51367,120.78459 c -0.28517,-0.36253 -0.60168,-1.10256 -0.70335,-1.6445 -0.2181,-1.16258 -0.84563,-2.45884 -1.19035,-2.45884 -0.13394,0 -0.0474,0.62508 0.19236,1.38906 0.23974,0.76399 0.45742,1.74625 0.48372,2.18281 0.0263,0.43657 0.0619,0.88305 0.079,0.99219 0.0172,0.10914 0.39702,0.19844 0.84415,0.19844 h 0.81295 z m -38.30195,-1.25907 c 1.05477,-0.90951 3.01049,-2.63821 4.34606,-3.84157 1.33556,-1.20336 2.94267,-2.43784 3.57136,-2.74328 1.42848,-0.69401 1.98014,-1.4457 1.23464,-1.68231 -0.54731,-0.17371 -2.41945,1.11527 -7.14711,4.92083 -2.53314,2.03906 -6.1324,4.47081 -6.61729,4.47081 -0.14403,0 -0.26188,0.11906 -0.26188,0.26458 0,0.14552 0.6652,0.26459 1.47823,0.26459 1.43234,0 1.53776,-0.0513 3.39599,-1.65365 z m 5.67093,0.036 c 1.60333,-1.89593 3.87543,-5.21662 3.69369,-5.39836 -0.23699,-0.23698 -6.30134,6.2806 -6.30134,6.77229 0,0.13405 0.27892,0.24374 0.61982,0.24374 0.43328,0 1.03152,-0.48684 1.98783,-1.61767 z m 5.83126,-0.50623 c 0.77064,-1.16814 2.1041,-3.27681 2.96325,-4.68593 1.28886,-2.11392 1.49233,-2.60108 1.16328,-2.78522 -0.21934,-0.12275 -0.51132,-0.15363 -0.64885,-0.0686 -0.13753,0.085 -1.2519,1.66903 -2.47637,3.52005 -1.22447,1.85103 -2.6511,3.89538 -3.17029,4.54299 -1.04321,1.30127 -1.03523,1.60065 0.0427,1.60065 0.61386,0 0.94013,-0.32591 2.1263,-2.1239 z m 4.09801,0.93327 c 0.77805,-1.64891 1.74329,-4.63021 1.49911,-4.63021 -0.20626,0 -3.4527,5.35843 -3.4527,5.69887 0,0.0864 0.3272,0.11944 0.72711,0.0734 0.55204,-0.0636 0.84734,-0.33853 1.22648,-1.14205 z m 4.9491,-2.38125 c 1.06857,-5.2721 1.12863,-5.95312 0.52499,-5.95312 -0.42817,0 -0.65469,0.64749 -1.58244,4.5234 -0.5955,2.48787 -1.08274,4.6389 -1.08274,4.78007 0,0.14117 0.32469,0.219 0.72152,0.17295 0.70248,-0.0815 0.73991,-0.17445 1.41867,-3.5233 z m 6.68956,1.65365 c -0.62753,-7.08995 -0.73566,-7.73907 -1.28912,-7.73907 -0.44675,0 -0.54302,0.20603 -0.61809,1.32292 -0.0489,0.7276 -0.007,2.9005 0.0932,4.82865 l 0.18217,3.50573 h 0.90079 0.90078 z m 7.56593,1.71979 c -0.005,-0.10914 -0.71372,-2.28203 -1.57566,-4.82865 -1.52096,-4.49369 -2.12345,-5.52511 -2.46485,-4.21961 -0.0842,0.32219 0.4168,2.40482 1.15642,4.80669 0.71779,2.33099 1.30508,4.28358 1.30508,4.33909 0,0.0555 0.35719,0.10092 0.79375,0.10092 0.43656,0 0.78993,-0.0893 0.78526,-0.19844 z M 117.61197,98.050932 c 3.51304,-0.61827 5.42779,-1.194627 8.00304,-2.408987 5.70243,-2.688984 8.20052,-7.081339 6.31729,-11.107572 -0.59816,-1.278823 -2.3822,-3.17969 -3.59188,-3.827092 -1.23752,-0.6623 -1.85911,0.497547 -0.78675,1.468021 0.70054,0.633977 1.06032,1.306501 1.32949,2.485139 1.00312,4.392576 -5.95939,8.276308 -15.52815,8.661708 -8.82841,0.355581 -16.378101,-2.436774 -17.598142,-6.508908 -0.418927,-1.398252 -0.139221,-2.647134 0.958047,-4.277668 1.013957,-1.506733 1.090581,-1.787401 0.545112,-1.996718 -1.120459,-0.42996 -4.548701,2.637444 -5.135074,4.594584 -0.498107,1.66253 -0.390903,3.705217 0.266191,5.072087 0.74575,1.55129 3.11407,3.91634 4.975522,4.968653 1.912612,1.081235 5.692894,2.36505 8.334374,2.830423 2.80734,0.494592 9.22212,0.519544 11.91093,0.04633 z m -4.77603,-10.31687 c 0.45917,-0.350223 1.24431,-1.39202 1.74477,-2.315104 0.86581,-1.596976 0.90968,-1.806593 0.90498,-4.324168 -0.005,-2.543879 -0.0498,-2.747788 -1.16791,-5.291667 -1.71349,-3.898261 -1.75577,-6.109362 -0.18481,-9.664884 0.0983,-0.222456 0.0135,-0.630467 -0.18853,-0.90669 -0.32801,-0.448582 -0.45593,-0.465484 -1.19768,-0.158242 -0.97941,0.405684 -2.17665,1.704092 -3.00847,3.262693 -0.49923,0.935427 -0.59569,1.525942 -0.59305,3.630665 0.003,2.37954 0.0641,2.653102 1.14571,5.131342 1.5361,3.519475 1.82864,4.992213 1.40196,7.057986 -0.18336,0.887743 -0.5221,2.009833 -0.75276,2.493534 -0.79908,1.675673 0.29796,2.30326 1.89579,1.084535 z m -9.14625,-0.432442 c 2.16547,-1.568655 3.4364,-4.542881 3.08507,-7.219677 -0.0988,-0.752622 -0.67039,-2.499497 -1.27024,-3.881945 -1.42004,-3.2727 -1.60922,-5.462347 -0.70915,-8.207827 0.44637,-1.361531 0.52942,-1.931546 0.31299,-2.147979 -0.84017,-0.840175 -3.13512,1.019977 -4.26105,3.453758 -0.54221,1.172024 -0.68421,1.888991 -0.68578,3.462465 -0.002,1.829714 0.10006,2.2009 1.30709,4.7625 1.10642,2.348062 1.32457,3.070707 1.40918,4.668149 0.0858,1.620544 -0.003,2.119975 -0.62367,3.502808 -0.5927,1.320722 -0.66369,1.685183 -0.39197,2.01258 0.44976,0.541935 0.55175,0.519345 1.82753,-0.404832 z m 18.2672,-0.584434 c 1.73538,-1.701688 2.39289,-3.322328 2.38841,-5.886979 -0.003,-1.678471 -0.14434,-2.445314 -0.68306,-3.704167 -1.70678,-3.988271 -1.7753,-4.223569 -1.77215,-6.085417 0.002,-1.337341 0.17032,-2.238099 0.60467,-3.240999 0.48852,-1.127976 0.53962,-1.463505 0.27203,-1.785938 -0.4589,-0.55294 -0.93859,-0.49755 -2.01284,0.232421 -1.28008,0.86984 -2.16823,2.154598 -2.66162,3.850192 -0.6235,2.142725 -0.32992,4.065238 1.09573,7.175412 0.65123,1.420711 1.30467,3.121327 1.45209,3.779146 0.32764,1.461955 -0.011,3.507036 -0.81877,4.944211 -1.1555,2.055934 0.2802,2.541413 2.13551,0.722118 z M 108.14844,58.570735 c 0.53182,-0.142524 0.59531,-0.325544 0.59531,-1.716179 v -1.556642 h -8.61216 -8.612164 l 0.07935,1.521355 0.07935,1.521354 6.085416,0.1398 c 3.346978,0.07689 6.918858,0.164562 7.937498,0.194825 1.01865,0.03026 2.11998,-0.01677 2.4474,-0.104513 z m 17.03829,-0.09782 h 6.31119 v -1.591116 -1.591115 l -8.63996,0.06976 c -9.71919,0.07848 -8.99354,-0.09821 -8.64818,2.105747 0.17827,1.137626 0.59695,1.287881 3.10559,1.114531 0.8581,-0.05929 4.40021,-0.107808 7.87136,-0.107807 z M 85.989583,56.753123 v -1.455209 h -7.808335 -7.808336 l 0.172238,1.12448 c 0.09473,0.618463 0.194361,1.153249 0.221401,1.188413 0.09475,0.123217 8.509172,0.519782 11.849594,0.558462 l 3.373438,0.03906 z m 65.800217,1.010282 c 0.92835,-0.127244 1.23425,-0.299348 1.42532,-0.80191 0.15515,-0.408061 0.14404,-0.825335 -0.0306,-1.151737 -0.26148,-0.488587 -0.63416,-0.511844 -8.20212,-0.511844 h -7.92819 v 1.49689 1.496889 l 6.7768,-0.183136 c 3.72724,-0.100725 7.30872,-0.256043 7.95883,-0.345152 z m -65.749284,-6.235803 0.08136,-1.124479 h 2.645833 2.645833 l 0.08154,1.128124 0.08154,1.128124 8.517428,-0.06979 8.51742,-0.06979 0.13229,-1.058333 0.13229,-1.058333 h 2.50992 c 2.30684,0 2.5164,0.04281 2.58999,0.529166 0.044,0.291042 0.13723,0.797058 0.2071,1.12448 l 0.12703,0.595312 h 8.59392 8.59392 v -0.873125 c 0,-1.294343 0.37949,-1.508125 2.67711,-1.508125 2.68587,0 2.87914,0.0907 2.87914,1.351224 v 1.030026 h 6.35 c 3.4925,0 6.35,-0.0906 6.35,-0.201332 0,-0.110733 -7.35211,-7.545947 -16.33802,-16.522698 -17.47183,-17.454019 -16.99229,-17.036696 -20.27381,-17.643317 -1.85255,-0.342463 -4.26538,0.02501 -6.11686,0.931587 -1.09101,0.534217 -4.69412,3.995834 -17.750032,17.053019 l -16.38115,16.382739 h 6.532424 6.532425 z"
       id="path2" /><path
       style="fill:#000000"
       d="m 111.0528,45.05996 c -0.0669,-0.117198 -0.39226,-1.046525 -0.72314,-2.065171 -0.7182,-2.211051 -2.01948,-4.884569 -2.61372,-5.36994 -1.31803,-1.076559 -4.25249,-2.187796 -6.52161,-2.469634 -1.304849,-0.162071 -2.540821,-0.45279 -2.746602,-0.646042 -0.652383,-0.612664 0.103445,-1.095396 2.035272,-1.29989 2.29885,-0.243345 4.73364,-1.047271 6.33002,-2.090062 1.43483,-0.937262 2.37368,-2.461686 3.50736,-5.694905 0.94706,-2.700999 1.32517,-2.718197 2.25222,-0.102439 1.04624,2.952054 2.12732,4.977884 2.97592,5.576545 1.73929,1.227022 3.48909,1.885914 5.78985,2.18018 2.72565,0.34861 3.54496,0.619997 3.54496,1.174224 0,0.455487 -0.32842,0.543241 -3.49528,0.933939 -1.82277,0.224876 -2.65261,0.480397 -3.96875,1.222041 -2.82938,1.594356 -3.41793,2.397536 -4.72906,6.453692 -0.65862,2.037527 -1.26472,2.850926 -1.63744,2.197462 z"
       id="path1" /></g></svg>
