<?xml version="1.0" encoding="UTF-8" standalone="no"?>
<!-- Created with Inkscape (http://www.inkscape.org/) -->

<svg
   width="316.52515mm"
   height="314.8371mm"
   viewBox="0 0 316.52515 314.8371"
   version="1.1"
   id="svg1"
   xml:space="preserve"
   sodipodi:docname="stamp_goal_cherry_blossom_3.svg"
   inkscape:version="1.4.4 (dcaf3e7, 2026-05-05)"
   xmlns:inkscape="http://www.inkscape.org/namespaces/inkscape"
   xmlns:sodipodi="http://sodipodi.sourceforge.net/DTD/sodipodi-0.dtd"
   xmlns="http://www.w3.org/2000/svg"
   xmlns:svg="http://www.w3.org/2000/svg"><sodipodi:namedview
     id="namedview1"
     pagecolor="#ffffff"
     bordercolor="#000000"
     borderopacity="0.25"
     inkscape:showpageshadow="2"
     inkscape:pageopacity="0.0"
     inkscape:pagecheckerboard="0"
     inkscape:deskcolor="#d1d1d1"
     inkscape:document-units="mm"
     inkscape:zoom="0.021849925"
     inkscape:cx="594.96771"
     inkscape:cy="572.08433"
     inkscape:window-width="944"
     inkscape:window-height="250"
     inkscape:window-x="0"
     inkscape:window-y="33"
     inkscape:window-maximized="0"
     inkscape:current-layer="layer1"><inkscape:page
       x="0"
       y="2.7460201e-21"
       width="316.52515"
       height="314.8371"
       id="page2"
       margin="0"
       bleed="0" /></sodipodi:namedview><defs
     id="defs1" /><g
     inkscape:label="Layer 1"
     inkscape:groupmode="layer"
     id="layer1"
     transform="translate(47.111955,-9.562529)"><path
       style="fill:#000000"
       d="m 15.603575,323.98927 c -15.73112423,-2.65171 -27.575249,-16.57958 -27.568333,-32.41843 8.77e-4,-2.00791 0.270244,-5.38632 0.68561,-8.59896 0.670966,-5.18957 1.4653636,-11.90722 3.5981639,-30.42709 0.5865507,-5.09323 1.7160577,-14.79682 2.5100156,-21.56354 0.7939578,-6.76672 2.0072055,-17.15459 2.6961058,-23.08416 l 1.2525461,-10.78103 -0.5348663,-0.72834 c -0.6520422,-0.88791 -6.557363,-9.40769 -21.1362871,-30.49397 -6.087039,-8.80401 -12.962987,-18.74573 -15.279884,-22.09271 -5.268053,-7.61021 -6.083565,-8.98383 -7.217951,-12.1577 -2.682212,-7.5045 -2.20846,-15.97768 1.280363,-22.89959 1.474592,-2.92563 2.847559,-4.80131 5.335885,-7.28964 2.538558,-2.538557 4.372252,-3.871086 7.485099,-5.439351 3.942061,-1.986028 3.996426,-1.997651 45.04829,-9.63191 9.095052,-1.691373 19.036771,-3.541294 22.092708,-4.110937 3.055938,-0.569643 7.997032,-1.472797 10.980209,-2.007009 3.546674,-0.635121 5.570392,-1.117466 5.847044,-1.393621 0.232698,-0.232279 1.892166,-2.803575 3.687708,-5.713992 3.582797,-5.807401 24.915323,-39.734833 31.358659,-49.873079 4.402875,-6.927689 9.769246,-11.106018 16.65346,-12.966615 3.18531,-0.8608905 8.72147,-1.0092974 12.0412,-0.3227859 5.02896,1.0399749 9.60251,3.5276169 13.22651,7.1941439 1.79478,1.815836 3.05735,3.529273 6.25181,8.484342 12.13262,18.819461 13.03629,20.234094 30.15097,47.199125 2.02488,3.190302 3.74774,5.8983 3.82858,6.017775 0.0808,0.119474 3.0574,0.747789 6.61458,1.396255 8.0738,1.471833 10.93611,2.002096 25.91448,4.800828 48.32463,9.029534 48.05976,8.971692 52.32098,11.425879 6.53863,3.765832 11.1232,9.359272 13.38596,16.331632 1.79781,5.53972 1.72592,12.6628 -0.18446,18.27505 -0.97897,2.87598 -2.11531,4.9094 -5.45407,9.75978 -3.24762,4.71797 -11.79269,17.22091 -16.10121,23.55892 -1.38493,2.03729 -3.90556,5.72823 -5.60141,8.20208 -1.69584,2.47386 -4.79202,6.99823 -6.88039,10.05417 -3.05957,4.47711 -7.01286,10.11637 -9.75237,13.91151 -0.3948,0.54694 -0.45684,-0.0685 3.01201,29.87703 0.93556,8.07641 2.30388,19.92313 3.04072,26.32605 0.73683,6.40291 2.00013,17.35666 2.80732,24.34166 1.26959,10.98632 1.44633,13.10478 1.30978,15.69979 -0.45478,8.64293 -3.59083,15.70605 -9.65679,21.74939 -3.97291,3.95809 -7.94813,6.42921 -13.14152,8.16915 -4.711,1.57833 -10.77223,2.05465 -15.71913,1.23528 -1.23693,-0.20487 -18.97724,-4.54001 -39.42292,-9.63363 -20.44568,-5.09363 -38.97006,-9.69743 -41.1653,-10.23066 l -3.99134,-0.96952 -7.25345,1.773 c -3.989399,0.97515 -16.957046,4.19121 -28.816994,7.14681 -37.63533,9.37903 -47.183763,11.72116 -48.947918,12.00643 -2.28692,0.3698 -8.108361,0.31054 -10.590173,-0.10781 z m 52.262049,-14.9175 c 22.846771,-5.69896 41.979506,-10.46545 42.517176,-10.59221 1.08379,-0.2555 1.32892,-0.19645 56.70158,13.6582 l 29.10416,7.28208 3.971,0.12887 c 4.37434,0.14196 6.84343,-0.20515 10.3165,-1.45031 11.25286,-4.03436 19.12885,-14.88817 19.17306,-26.42216 0.005,-1.32448 -0.39889,-5.90839 -0.8977,-10.18646 -0.49881,-4.27808 -1.33993,-11.58832 -1.86914,-16.24499 -0.52922,-4.65666 -1.61597,-14.0626 -2.415,-20.90208 -2.36959,-20.28301 -3.7677,-32.32137 -4.73188,-40.74353 l -0.90843,-7.9352 1.69573,-1.53046 c 1.64146,-1.48147 3.79964,-4.37403 4.35667,-5.83911 0.14948,-0.39317 0.73188,-1.33767 1.29422,-2.0989 0.56235,-0.76123 6.47593,-9.53983 13.1413,-19.50801 6.66536,-9.96818 14.09524,-21.01156 16.51084,-24.54086 2.4156,-3.52929 4.84798,-7.14565 5.40529,-8.03635 4.06453,-6.49599 4.4898,-15.93186 1.02998,-22.853 -3.36377,-6.72898 -9.46205,-11.431696 -16.84627,-12.991065 -2.09575,-0.442572 -36.30464,-6.89668 -61.72424,-11.645364 l -16.7314,-3.125625 -1.15961,-1.861681 c -0.63778,-1.023925 -2.4448,-3.885744 -4.01559,-6.359598 -1.57079,-2.473855 -3.53128,-5.56948 -4.35664,-6.879167 -1.9943,-3.164555 -13.87546,-21.777142 -22.20959,-34.792709 -3.6806,-5.748073 -7.22338,-11.076486 -7.87285,-11.840917 -2.26241,-2.662898 -6.31502,-5.265009 -10.00208,-6.42217 -1.3293,-0.41719 -2.80166,-0.620106 -5.21616,-0.718868 -4.00631,-0.163875 -7.107,0.422144 -10.2804,1.942953 -4.377469,2.097846 -7.116175,4.730681 -10.458657,10.054357 -1.178494,1.877023 -4.52028,7.163238 -7.426192,11.747145 -2.905913,4.583906 -7.228676,11.43 -9.606141,15.213542 -2.377465,3.783542 -5.597087,8.903229 -7.154716,11.377083 -1.557629,2.473855 -4.77108,7.593542 -7.141002,11.377084 -2.369922,3.783542 -4.392958,6.974454 -4.495634,7.090917 -0.16788,0.190421 -6.008002,1.340638 -20.374226,4.012722 C 32.497446,87.93666 24.222603,89.483845 16.80104,90.874118 9.3794773,92.264391 -0.85989789,94.180891 -5.9531272,95.133007 -22.248852,98.179291 -24.970415,98.734693 -26.6,99.34651 c -8.445664,3.17087 -14.335869,10.44909 -15.497306,19.14921 -0.597833,4.47827 0.215783,9.65411 2.139784,13.61228 0.579616,1.19242 3.097725,5.08507 5.595797,8.65033 2.498072,3.56526 6.469181,9.28026 8.824686,12.7 2.355505,3.41974 6.184083,8.95615 8.50795,12.30313 4.264726,6.14232 6.398164,9.23358 14.5169465,21.03437 2.45284887,3.56526 4.8604803,7.01267 5.3502922,7.6609 0.8135907,1.07673 0.877507,1.29399 0.7394712,2.51354 -0.3250507,2.87184 -2.1107182,18.07737 -4.25820001,36.25994 -1.23746219,10.4775 -2.54575439,21.60984 -2.90731589,24.73854 -0.3615615,3.1287 -1.3367278,11.28448 -2.1670362,18.12396 -1.104355,9.09688 -1.5015166,13.25229 -1.4793501,15.47813 0.1028181,10.32438 6.2033182,20.14961 15.4214935,24.83727 5.1575458,2.62274 7.8890188,3.23394 13.9054948,3.11152 l 4.233333,-0.0861 z"
       id="path38" /><path
       style="fill:#000000"
       d="m 110.48244,72.873808 c -0.22868,-0.228676 -0.4188,-0.734692 -0.4225,-1.12448 -0.004,-0.389787 -0.17959,-6.18558 -0.39087,-12.879538 -0.53921,-17.084147 -0.53855,-17.135149 0.23102,-18.02983 0.83186,-0.967095 2.23835,-1.002285 3.23344,-0.0809 l 0.70008,0.648229 -0.18187,8.334375 c -0.41321,18.935908 -0.59899,22.838229 -1.10491,23.208164 -0.63146,0.461737 -1.56086,0.427513 -2.06439,-0.07602 z"
       id="path37" /><path
       style="fill:#000000"
       d="m 121.97292,73.742571 c -0.38783,-0.195222 -0.69339,-0.604053 -0.73864,-0.988287 -0.0425,-0.36043 1.24217,-4.58439 2.85472,-9.386578 3.08916,-9.199561 3.4481,-9.921875 4.93048,-9.921875 0.82291,0 2.21385,1.331714 2.21385,2.119588 0,0.890866 -7.1199,17.534035 -7.72383,18.054892 -0.63601,0.548523 -0.68243,0.552217 -1.53658,0.12226 z"
       id="path36" /><path
       style="fill:#000000"
       d="m 99.553241,73.620311 c -0.284836,-0.254662 -1.387301,-2.546615 -2.449923,-5.09323 -1.062623,-2.546614 -2.691991,-6.41235 -3.620818,-8.590523 -1.842508,-4.320824 -1.920097,-4.990778 -0.690046,-5.958336 0.372254,-0.292815 0.942368,-0.532391 1.266921,-0.532391 0.842024,0 1.923074,0.939351 2.221442,1.930264 0.140411,0.466324 1.512308,4.519519 3.04866,9.0071 2.926973,8.549504 2.969493,8.778272 1.752683,9.429489 -0.69578,0.372373 -0.93026,0.34287 -1.528919,-0.192373 z"
       id="path35" /><path
       style="fill:#000000"
       d="m 136.60998,81.970896 c -1.58256,-0.765106 -1.29175,-3.339109 0.48579,-4.299837 0.87633,-0.47364 1.06689,-0.48521 2.46545,-0.149701 0.83364,0.199987 1.57646,0.521917 1.6507,0.7154 0.15486,0.40355 -1.64661,3.133919 -2.42954,3.682309 -0.60903,0.426579 -1.36019,0.4445 -2.1724,0.05183 z"
       id="path34" /><path
       style="fill:#000000"
       d="m 85.275837,81.690102 c -0.957345,-1.052668 -1.997618,-2.82107 -1.863859,-3.168446 0.214598,-0.557311 2.486834,-1.101323 3.448293,-0.825581 0.953407,0.273434 2.039729,1.688034 2.039729,2.656119 0,1.645615 -2.503733,2.569902 -3.624163,1.337908 z"
       id="path33" /><path
       style="fill:#000000"
       d="m 162.27191,115.17041 c -0.173,-0.0605 -0.63063,-1.05909 -1.01696,-2.21912 -0.95148,-2.85704 -1.47847,-3.41367 -4.0939,-4.32413 -3.1194,-1.08589 -3.14246,-1.79163 -0.0917,-2.80685 2.40348,-0.79983 3.2471,-1.72489 4.1047,-4.50094 0.60974,-1.973754 0.76215,-2.232913 1.31313,-2.232913 0.54568,0 0.70866,0.263663 1.30837,2.116663 0.37677,1.16417 0.82839,2.38417 1.00359,2.71112 0.35631,0.6649 1.60935,1.36091 3.65394,2.02961 2.2666,0.74132 2.51096,1.76038 0.5488,2.28874 -0.58894,0.15858 -1.69944,0.56635 -2.46777,0.90614 -1.55889,0.68942 -1.83384,1.08863 -2.77374,4.02729 -0.59925,1.8736 -0.85964,2.22424 -1.48846,2.00439 z"
       id="path32" /><path
       style="fill:#000000"
       d="m 55.389391,115.30353 c -0.141205,-0.18814 -0.542821,-1.27963 -0.892479,-2.42554 -0.82629,-2.70793 -1.444188,-3.34079 -4.137038,-4.2372 -2.920993,-0.97235 -3.187681,-1.80027 -0.820433,-2.54699 3.428366,-1.08145 4.105452,-1.79231 5.228345,-5.48919 0.437984,-1.441969 0.698019,-1.915028 1.05267,-1.915028 0.636241,0 0.918792,0.420251 1.334171,1.984378 0.912531,3.43616 1.537276,4.12801 4.671702,5.17347 2.933783,0.97854 2.860558,1.75196 -0.264401,2.79266 -2.74803,0.91518 -3.408908,1.57023 -4.130031,4.09361 -0.308564,1.07975 -0.659812,2.14177 -0.78055,2.36005 -0.291538,0.52707 -0.942598,0.6353 -1.261956,0.20978 z"
       id="path31" /><path
       style="fill:#000000"
       d="m 86.437057,119.40544 c -0.234569,-1.1345 -1.370962,-6.34898 -2.525318,-11.58773 -1.154356,-5.23875 -2.236104,-10.195269 -2.403884,-11.014483 -0.294769,-1.439259 -0.338099,-1.494905 -1.285101,-1.650389 -1.490704,-0.244751 -2.669576,-1.102248 -3.238577,-2.355702 -0.638078,-1.405621 -0.642175,-2.411008 -0.01545,-3.791021 0.748108,-1.647288 1.922673,-2.355075 3.908223,-2.355075 1.742568,0 2.589699,0.413484 3.588825,1.751706 0.775343,1.038487 0.885105,3.316448 0.220978,4.586087 -0.300966,0.57537 -0.458374,1.133982 -0.349796,1.24136 0.326466,0.322858 15.238792,10.276737 15.29578,10.209837 0.029,-0.034 2.343743,-3.68679 5.143873,-8.117195 l 5.09114,-8.055288 -0.71685,-0.571593 c -1.25132,-0.997773 -1.72651,-1.976707 -1.72733,-3.558456 -0.001,-2.571133 1.58463,-4.230428 4.0453,-4.232344 2.88125,-0.0022 4.83108,2.347714 4.29942,5.181714 -0.11679,0.622561 -0.58126,1.352524 -1.34925,2.120519 l -1.17115,1.17115 2.46554,4.031043 c 2.26277,3.699528 7.31604,11.86073 7.45999,12.04815 0.0336,0.0438 2.84314,-1.73054 6.24334,-3.94296 3.40021,-2.212412 6.99317,-4.54409 7.98436,-5.181502 l 1.80216,-1.158932 -0.60209,-0.974198 c -0.78079,-1.263358 -0.8146,-3.290265 -0.0763,-4.575493 0.75068,-1.306799 2.53158,-2.172552 4.17139,-2.027847 2.18827,0.193105 3.64161,1.698138 3.81035,3.945874 0.1772,2.360424 -1.04408,3.938863 -3.53745,4.571955 l -1.27243,0.323081 -2.8407,12.905082 c -1.56239,7.09779 -2.87486,12.93114 -2.91661,12.963 -0.0417,0.0319 -1.74276,-0.15457 -3.78005,-0.41429 -14.58804,-1.85971 -26.25753,-1.92581 -39.819799,-0.22556 -2.255573,0.28278 -4.410416,0.57896 -4.78854,0.65819 -0.668101,0.13998 -0.69953,0.0859 -1.113986,-1.91869 z"
       id="path30" /><path
       style="fill:#000000"
       d="m 186.53125,122.59055 c -1.64489,-0.57394 -3.80448,-2.05386 -4.76282,-3.26387 -1.1535,-1.45641 -2.13162,-3.74589 -2.30085,-5.38558 -0.14311,-1.38659 -0.12972,-1.42201 0.58936,-1.55947 0.40469,-0.0774 1.45142,-0.0758 2.32608,0.004 1.48706,0.13484 1.57669,0.1115 1.38099,-0.35955 -0.42443,-1.0216 -1.20151,-3.60593 -1.20151,-3.99583 0,-0.33244 0.3328,-0.38426 1.91823,-0.29871 5.17908,0.27948 9.12014,4.33365 9.40774,9.67776 l 0.11747,2.18282 h -0.84205 c -0.46314,0 -1.3756,-0.13435 -2.02769,-0.29855 -0.6521,-0.1642 -1.24091,-0.24327 -1.30848,-0.1757 -0.0676,0.0676 0.11559,0.81586 0.40701,1.66288 0.29142,0.84702 0.52985,1.69999 0.52985,1.89549 0,0.50135 -2.70849,0.44681 -4.23333,-0.0852 z"
       id="path29" /><path
       style="fill:#000000"
       d="m -17.333547,128.68687 c -0.361967,-0.81847 -0.658122,-1.57163 -0.658122,-1.67367 0,-0.43325 -1.302121,-1.3356 -2.778125,-1.92522 -2.17461,-0.86868 -2.145831,-1.39293 0.136361,-2.48399 2.053659,-0.9818 2.192024,-1.13263 3.170771,-3.45645 1.078393,-2.5604 1.634939,-2.53845 2.494984,0.0984 0.631883,1.93733 1.215427,2.55754 3.199891,3.40095 2.2692722,0.96445 2.2731311,1.54287 0.01611,2.4153 -2.058154,0.79557 -2.582502,1.33314 -3.309772,3.39322 -0.79697,2.25751 -1.35111,2.31396 -2.272102,0.23143 z"
       id="path28" /><path
       style="fill:#000000"
       d="m 175.33281,138.85653 c -0.21134,-0.33646 -0.52407,-1.05293 -0.69496,-1.59217 -0.41036,-1.29486 -1.25916,-2.07678 -2.97042,-2.73636 -1.99071,-0.76729 -1.96202,-1.24402 0.13445,-2.23455 2.04805,-0.96766 2.19385,-1.12758 2.95842,-3.24488 0.43371,-1.20104 0.74204,-1.67382 1.13008,-1.73277 0.44296,-0.0673 0.62959,0.20729 1.09839,1.61604 0.66282,1.99178 1.20245,2.56475 3.28148,3.4842 0.88575,0.39172 1.49613,0.81855 1.43817,1.0057 -0.0554,0.17882 -0.90461,0.71233 -1.88716,1.18556 -1.67295,0.80577 -1.82853,0.95705 -2.44895,2.38125 -1.1599,2.66263 -1.40142,2.88383 -2.0395,1.86798 z"
       id="path27" /><path
       style="fill:#000000"
       d="m 26.822141,159.67595 c -3.805233,-1.85162 -6.641516,-5.80723 -6.916148,-9.64559 -0.07334,-1.02503 -0.214488,-1.86369 -0.313659,-1.86369 -0.09917,0 -0.433868,0.45114 -0.74377,1.00254 -0.309903,0.55139 -1.314093,1.72235 -2.231533,2.60213 -2.840515,2.72391 -6.437245,4.02505 -10.2398226,3.70432 -2.6365645,-0.22238 -2.7799218,-0.37117 -2.5754609,-2.67302 0.090762,-1.02182 0.2388851,-2.12574 0.3291618,-2.45316 0.158883,-0.57625 0.1048982,-0.59531 -1.6857297,-0.59531 -1.017428,0 -2.22193945,-0.0744 -2.67669207,-0.16537 -0.79778063,-0.15955 -0.82666153,-0.21299 -0.82222883,-1.52135 0.019877,-5.86673 3.7640516,-11.63219 8.6277392,-13.2854 0.7820085,-0.26582 1.4218336,-0.56237 1.4218336,-0.65901 0,-0.0966 -0.5805952,-0.25272 -1.2902114,-0.34685 -1.5061015,-0.1998 -3.9615091,-1.36886 -5.4295132,-2.58509 -2.03633427,-1.68709 -4.1281923,-5.88849 -4.1281923,-8.29128 0,-0.77416 0.1216753,-0.91813 1.11019316,-1.31366 0.61060625,-0.24431 1.68826601,-0.51267 2.39479944,-0.59635 1.0463384,-0.12393 1.2516569,-0.23089 1.1069616,-0.57671 -0.5058279,-1.2089 -0.9077875,-2.86723 -0.9077875,-3.74517 0,-0.90326 0.089294,-1.02329 1.046123,-1.40613 2.7657864,-1.10665 6.5062297,-1.06428 9.6427297,0.10924 1.74324,0.65223 4.223974,2.41913 5.400594,3.84658 l 0.843887,1.02378 0.01525,-1.97851 c 0.04009,-5.20001 2.87834,-9.90014 7.278325,-12.05285 1.861569,-0.91078 2.042648,-0.81627 3.379493,1.76386 0.558678,1.07826 1.065163,2.01055 1.125522,2.07176 0.06036,0.0612 0.377517,-0.14027 0.704793,-0.44773 0.327277,-0.30746 1.283851,-0.87437 2.12572,-1.25979 1.795408,-0.82196 1.981842,-0.74217 3.010972,1.28872 2.421787,4.77917 1.990985,9.99372 -1.167484,14.13154 -0.472274,0.61871 -0.802443,1.12493 -0.733707,1.12493 0.06873,0 1.011676,-0.29765 2.095424,-0.66146 4.822912,-1.61899 10.09983,-0.35999 13.372582,3.19052 1.057269,1.14701 1.074841,1.19643 0.69001,1.94061 -0.217189,0.41999 -0.957909,1.32665 -1.646045,2.01478 l -1.251158,1.25116 0.779838,0.54754 c 0.428911,0.30115 1.289254,1.06659 1.911874,1.70098 l 1.132035,1.15344 -0.470577,0.80826 c -0.258817,0.44454 -1.087111,1.45275 -1.840652,2.24045 -3.320787,3.47134 -8.627048,4.50118 -13.258964,2.57332 -0.187846,-0.0782 0.141333,0.60495 0.731509,1.51806 2.623608,4.05923 2.871127,9.3408 0.633123,13.50957 -0.41718,0.77708 -0.956534,1.45054 -1.198563,1.49656 -0.242029,0.046 -1.295947,-0.33933 -2.342039,-0.85632 -1.826278,-0.90257 -2.377283,-0.98473 -2.377283,-0.3545 0,0.60465 -1.979275,3.6456 -2.370078,3.64137 -0.224426,-0.002 -1.256364,-0.4172 -2.293196,-0.92172 z M 23.644525,144.4433 c 0.805201,-0.63337 0.916736,-1.66621 0.278358,-2.57762 -0.367677,-0.52493 -0.379235,-0.88729 -0.09472,-2.96929 0.178237,-1.30426 0.422592,-2.37139 0.543012,-2.37139 0.459731,0 2.911573,3.98447 2.755137,4.47736 -0.419488,1.32169 1.19028,2.68134 2.456225,2.07459 1.559968,-0.74767 1.323413,-2.98089 -0.369049,-3.48404 -0.56796,-0.16885 -1.219311,-0.81515 -2.210573,-2.19341 -0.772944,-1.0747 -1.344954,-2.01441 -1.271133,-2.08823 0.07382,-0.0738 1.190228,0.12196 2.480904,0.43506 1.741256,0.42241 2.554716,0.76694 3.153031,1.33543 1.025837,0.97471 2.01437,0.99955 2.746325,0.069 0.691782,-0.87946 0.691782,-1.43043 0,-2.30989 -0.595715,-0.75733 -1.39922,-0.88338 -2.483073,-0.38955 -0.538008,0.24513 -1.118092,0.20953 -2.85672,-0.17532 -1.199896,-0.26561 -2.343367,-0.56481 -2.541047,-0.6649 -0.240787,-0.12191 0.326856,-0.63115 1.719791,-1.54285 1.700181,-1.1128 2.225204,-1.33371 2.880071,-1.21183 0.582949,0.10849 1.000758,-0.008 1.535517,-0.42883 0.986129,-0.77569 0.914168,-2.19612 -0.151394,-2.98835 -0.696022,-0.51747 -0.763323,-0.52127 -1.660011,-0.0937 -0.6715,0.32022 -0.97906,0.66808 -1.0926,1.23578 -0.126042,0.63021 -0.584151,1.06345 -2.263735,2.14086 -1.158143,0.74292 -2.177252,1.27922 -2.264685,1.19179 -0.08743,-0.0874 0.05913,-1.31695 0.3257,-2.73227 0.404698,-2.14869 0.609045,-2.68948 1.238446,-3.27742 0.894698,-0.83578 0.950083,-1.49382 0.205407,-2.44052 -1.394376,-1.77267 -4.030849,0.009 -3.017935,2.03935 0.374317,0.75034 0.371216,1.07257 -0.03409,3.54238 -0.245224,1.49433 -0.539098,2.71696 -0.653052,2.71696 -0.113955,0 -1.01925,-0.90375 -2.011769,-2.00833 -1.323332,-1.47274 -1.804578,-2.20621 -1.804578,-2.75035 0,-1.76089 -2.203598,-2.53747 -3.288088,-1.15876 -0.301604,0.38342 -0.54837,0.90315 -0.54837,1.15494 0,0.85899 1.034501,1.85158 1.937432,1.85893 0.708738,0.006 1.089791,0.29625 2.427711,1.85064 0.872861,1.01409 1.629865,1.97233 1.682232,2.12943 0.133328,0.39998 -5.525037,0.0186 -6.047375,-0.40765 -1.533296,-1.25111 -3.545402,0.12048 -2.86701,1.95435 0.510467,1.37992 1.615049,1.67796 2.780564,0.75024 0.695224,-0.55338 0.93907,-0.586 3.461925,-0.46302 l 2.714021,0.13229 -2.004681,1.66568 c -1.464498,1.21684 -2.14235,1.62198 -2.515584,1.50352 -1.83082,-0.58108 -2.989677,2.02443 -1.463692,3.29089 1.038567,0.86193 2.78711,-0.005 2.817053,-1.39617 0.0082,-0.38261 0.655242,-1.06918 1.996866,-2.11897 1.091579,-0.85412 2.052083,-1.48556 2.134454,-1.40319 0.08237,0.0824 0.03008,1.17655 -0.116193,2.43152 -0.193728,1.66205 -0.411212,2.43836 -0.80079,2.8584 -0.63919,0.68917 -0.751149,1.14118 -0.509006,2.05501 0.166926,0.62996 0.963764,1.23848 1.678579,1.28186 0.162276,0.01 0.608761,-0.22886 0.992187,-0.53046 z"
       id="path26" /><path
       style="fill:#000000"
       d="m 210.86826,160.53594 c -0.28933,-0.47295 -0.72265,-1.37161 -0.96294,-1.99704 -0.24028,-0.62542 -0.56736,-1.07864 -0.72683,-1.00714 -2.0984,0.9408 -3.66316,1.47331 -3.8997,1.32712 -0.16087,-0.0994 -0.66464,-0.96826 -1.11949,-1.93076 -0.78885,-1.66925 -0.82701,-1.9026 -0.82701,-5.05729 0,-3.09567 0.048,-3.405 0.74956,-4.83443 0.41226,-0.83993 1.05093,-1.88531 1.41928,-2.32307 l 0.66972,-0.79591 -1.15469,0.20639 c -3.40713,0.60901 -6.59093,-0.0851 -9.08588,-1.98085 -1.45125,-1.10272 -3.31019,-3.38694 -3.31228,-4.07006 -0.001,-0.45696 2.7523,-3.1354 3.22349,-3.1354 0.14947,0 -0.39591,-0.72116 -1.21195,-1.60258 -0.81604,-0.88142 -1.48371,-1.82479 -1.48371,-2.09637 0,-1.20745 3.42019,-3.89337 5.91364,-4.64405 2.63898,-0.79451 7.30677,-0.28032 8.81448,0.97097 0.66245,0.54978 0.65575,0.0432 -0.0124,-0.9414 -0.74892,-1.10359 -1.6459,-3.69118 -1.88745,-5.4449 -0.35624,-2.5863 0.86433,-6.76361 2.66671,-9.12665 0.3891,-0.51014 0.90168,-0.9264 1.13907,-0.92504 0.57572,0.003 2.89195,1.36872 3.82238,2.25328 0.40971,0.38951 0.78203,0.66639 0.82738,0.61528 0.0453,-0.0511 0.34956,-0.6287 0.67603,-1.28354 0.81772,-1.64016 2.32279,-3.43958 2.87695,-3.43958 0.69281,0 2.6579,1.36265 4.05503,2.81188 1.44148,1.49523 2.73242,4.08328 3.14203,6.2991 0.30518,1.65087 -0.0122,5.23301 -0.55326,6.24395 -0.43837,0.81911 -0.02,0.61572 1.32892,-0.64601 2.36895,-2.21588 5.17353,-3.18818 8.70869,-3.01916 1.86018,0.0889 2.60726,0.26234 4.0609,0.94258 1.60002,0.74874 1.78136,0.91203 1.78136,1.60397 0,0.4237 -0.35568,1.47175 -0.7904,2.329 -0.43472,0.85726 -0.7919,1.57246 -0.79375,1.58934 -0.002,0.0169 0.7014,0.28766 1.56276,0.60172 0.86136,0.31407 1.84242,0.79478 2.18014,1.06825 l 0.61403,0.49721 -0.51311,1.50954 c -0.63017,1.85393 -2.29979,4.29623 -3.71488,5.43406 -1.5578,1.25258 -3.7412,2.14697 -5.62239,2.3031 -0.90951,0.0755 -1.65365,0.2303 -1.65365,0.34403 0,0.11373 0.39963,0.45376 0.88807,0.75563 1.3943,0.86173 3.2236,2.97531 4.17053,4.81865 0.78622,1.53049 0.87682,1.95089 0.97592,4.5285 0.12716,3.30741 0.18575,3.23429 -2.59674,3.24031 l -1.72159,0.004 0.0787,1.85208 c 0.0433,1.01865 -0.0342,2.01998 -0.17229,2.22518 -0.35531,0.52813 -2.97699,0.68891 -4.76192,0.29202 -0.82,-0.18232 -2.07638,-0.62702 -2.79195,-0.98822 -1.69402,-0.85508 -3.918,-2.97256 -4.51683,-4.30055 -0.56827,-1.26019 -0.80211,-1.19754 -0.88679,0.23759 -0.19964,3.38351 -2.94163,7.09902 -6.47125,8.76882 -2.0792,0.98363 -2.4541,0.97356 -3.10062,-0.0833 z m 10.03962,-13.59558 c 0.72111,-0.91674 0.69222,-1.56432 -0.10536,-2.3619 -0.48879,-0.48879 -0.76098,-1.22604 -1.07878,-2.92204 -0.23377,-1.24757 -0.36634,-2.32701 -0.2946,-2.39876 0.0718,-0.0717 0.99598,0.52899 2.05386,1.33497 1.33053,1.01371 2.01024,1.73129 2.2051,2.32798 0.15493,0.47442 0.60366,1.04274 0.99717,1.26294 0.6603,0.3695 0.77254,0.35796 1.45521,-0.14952 0.88822,-0.66029 1.07806,-1.73121 0.47109,-2.65757 -0.3566,-0.54423 -0.60643,-0.65108 -1.32588,-0.56709 -0.74703,0.0872 -1.20583,-0.13566 -2.91625,-1.41663 -2.30424,-1.7257 -2.33432,-1.67985 1.24853,-1.90338 1.76142,-0.10989 2.09003,-0.0596 2.4884,0.38055 0.97807,1.08076 2.75822,0.21276 2.75822,-1.34491 0,-1.63669 -1.8732,-2.44914 -2.83313,-1.2288 -0.44313,0.56336 -0.75016,0.6358 -3.19314,0.75344 -3.06428,0.14756 -2.98459,0.37992 -0.76701,-2.23662 0.90826,-1.07167 1.47716,-1.52135 1.92466,-1.52135 1.534,0 2.34747,-2.42243 1.10558,-3.29229 -1.27834,-0.89539 -2.96408,-0.0462 -2.81071,1.41595 0.0602,0.57389 -0.2921,1.17218 -1.61972,2.75076 -1.16023,1.37954 -1.79101,1.93904 -1.99512,1.76964 -0.46397,-0.38506 -1.06569,-5.25396 -0.6951,-5.62454 0.48446,-0.48447 0.35522,-1.91494 -0.22005,-2.43555 -1.15752,-1.04755 -2.91918,-0.24083 -2.91918,1.33679 0,0.59843 0.19581,1.01986 0.63404,1.36456 0.50231,0.39512 0.74506,1.04502 1.16842,3.12806 0.29391,1.44613 0.48885,2.67493 0.43319,2.73067 -0.23505,0.23541 -4.61524,-2.51236 -4.61604,-2.89573 -10e-4,-0.66763 -1.02292,-1.57124 -1.77627,-1.57124 -0.99042,0 -1.66417,0.71288 -1.66417,1.7608 0,1.27397 0.84149,2.04294 1.99816,1.82594 0.74681,-0.1401 1.23588,0.0338 3.03538,1.0794 1.40974,0.81912 2.02576,1.31189 1.79694,1.43743 -0.19151,0.10506 -1.33882,0.45692 -2.54959,0.78189 -1.76454,0.47362 -2.33145,0.53162 -2.85672,0.29229 -0.92906,-0.4233 -1.34903,-0.37373 -1.95334,0.23058 -1.049,1.049 -0.32283,3.175 1.08447,3.175 0.30542,0 0.88392,-0.35178 1.28556,-0.78174 0.51517,-0.55149 1.44261,-1.01082 3.14886,-1.55952 1.33024,-0.42778 2.41861,-0.72278 2.41861,-0.65555 0,0.0672 -0.56555,1.06245 -1.25677,2.2116 -0.94446,1.57016 -1.39994,2.0917 -1.83288,2.09875 -0.63739,0.0104 -1.67285,1.15379 -1.67285,1.84725 0,0.69337 1.00685,1.60171 1.77541,1.60171 1.00824,0 1.66417,-0.71133 1.66417,-1.80473 0,-0.64376 0.37133,-1.52475 1.20942,-2.86941 0.66518,-1.06724 1.31463,-1.94044 1.44322,-1.94044 0.12859,0 0.30646,0.44648 0.39527,0.99219 0.0888,0.5457 0.27341,1.56648 0.41024,2.26841 0.19701,1.01065 0.1659,1.39454 -0.14948,1.84481 -0.21904,0.31272 -0.39825,0.76416 -0.39825,1.0032 0,0.71754 1.04505,1.82889 1.71979,1.82889 0.35796,0 0.85637,-0.29662 1.17142,-0.69714 z"
       id="path25" /><path
       style="fill:#000000"
       d="m 37.49109,179.07409 c -0.201246,-0.48247 -0.512377,-1.32184 -0.6914,-1.86527 -0.401339,-1.21826 -1.221285,-1.88446 -3.213343,-2.6108 -2.348581,-0.85633 -2.329775,-1.44993 0.07443,-2.34946 2.114759,-0.79123 2.503992,-1.19362 3.331793,-3.44439 0.91428,-2.48591 1.489594,-2.65747 2.17267,-0.6479 0.857689,2.52328 1.244191,3.028 2.856177,3.72979 2.186318,0.95182 2.288448,1.02091 2.376382,1.60752 0.06624,0.44187 -0.219845,0.64021 -1.653416,1.1463 -2.110105,0.74493 -2.666092,1.30409 -3.448961,3.46866 -0.705998,1.95202 -1.267524,2.25251 -1.804337,0.96555 z"
       id="path24" /><path
       style="fill:#000000"
       d="m 19.872411,185.71591 c -1.711434,-0.33611 -4.300407,-1.62826 -5.59628,-2.7931 -2.356785,-2.11848 -4.118108,-5.91416 -3.911853,-8.4301 l 0.08676,-1.05834 1.53227,0.0821 c 0.842748,0.0452 2.087349,0.24914 2.765779,0.45332 0.67843,0.20418 1.262251,0.34249 1.29738,0.30736 0.03513,-0.0351 -0.04577,-0.53678 -0.179779,-1.11478 -0.286068,-1.23385 -0.323335,-2.89841 -0.09091,-4.06054 0.213536,-1.06767 0.768166,-1.0732 2.974104,-0.0296 1.11638,0.52814 2.282612,1.39785 3.458899,2.57948 2.656148,2.66821 3.975478,5.77929 3.981826,9.38947 0.0037,2.1122 -0.125494,2.16798 -2.64795,1.14301 -0.870234,-0.35361 -1.582243,-0.58045 -1.582243,-0.50409 0,0.0763 0.253704,0.97409 0.563787,1.99497 0.733496,2.41488 0.432439,2.64658 -2.651791,2.04087 z"
       id="path23" /><path
       style="fill:#000000"
       d="m 210.87923,191.92592 c 0.003,-0.56598 0.11596,-1.50195 0.24996,-2.07995 0.13401,-0.578 0.20848,-1.08608 0.16549,-1.12907 -0.043,-0.043 -0.87572,0.29506 -1.85051,0.75123 -0.9748,0.45616 -1.85578,0.74592 -1.95774,0.64391 -0.42209,-0.42227 -0.14778,-4.79138 0.41654,-6.63449 0.99657,-3.25491 3.54494,-6.46332 6.22037,-7.83148 l 1.00147,-0.51212 0.43256,1.00229 c 0.28674,0.66442 0.43652,1.78275 0.44429,3.31741 0.006,1.2733 0.0234,2.3151 0.0376,2.3151 0.0143,0 0.53734,-0.2471 1.16244,-0.54912 1.41926,-0.68571 3.74639,-1.18845 4.37845,-0.94591 0.41906,0.16081 0.45562,0.39358 0.30017,1.91086 -0.56186,5.48412 -4.69542,10.02281 -9.6641,10.61128 l -1.34333,0.1591 z"
       id="path22" /><path
       style="fill:#000000"
       d="m 29.157535,220.65664 c -5.086246,-1.33252 -8.623814,-4.77086 -9.99954,-9.71908 -0.252807,-0.9093 -0.38276,-1.73016 -0.288783,-1.82413 0.251582,-0.25159 2.413313,-0.25526 4.700832,-0.008 l 2.006505,0.21689 -0.738113,-2.20678 c -0.405962,-1.21373 -0.773108,-2.74008 -0.81588,-3.39189 l -0.07777,-1.18511 1.322917,-0.0883 c 4.296358,-0.28669 9.922507,2.92042 11.871937,6.76743 0.967627,1.90952 1.489521,4.08492 1.489521,6.20872 0,2.10745 0.04783,2.08682 -2.848554,1.22835 -1.057381,-0.3134 -1.978191,-0.51414 -2.046243,-0.44608 -0.06805,0.068 0.22831,0.94917 0.658583,1.95804 0.430273,1.00887 0.785536,2.02779 0.789473,2.26426 0.01477,0.88695 -3.060973,1.00215 -6.024889,0.22565 z"
       id="path21" /><path
       style="fill:#000000"
       d="m 200.8719,228.41753 c -0.13593,-0.26344 -0.44895,-1.09733 -0.69561,-1.85308 -0.64548,-1.97778 -1.24336,-2.58962 -3.33087,-3.40862 -3.05826,-1.19987 -3.05182,-1.58481 0.0479,-2.86412 0.9697,-0.40021 1.95636,-0.94123 2.19259,-1.20226 0.23624,-0.26103 0.75369,-1.41287 1.14991,-2.55963 0.97548,-2.82333 1.44157,-2.82909 2.42955,-0.03 0.39895,1.13026 0.93086,2.28209 1.18203,2.55963 0.25117,0.27754 1.25006,0.83207 2.21976,1.23228 3.04031,1.2548 3.09102,1.71602 0.30053,2.73348 -2.19156,0.79908 -2.80445,1.42421 -3.648,3.72082 -0.7465,2.03243 -1.37036,2.59677 -1.84776,1.67152 z"
       id="path20" /><path
       style="fill:#000000"
       d="m 21.773789,243.08594 c -0.138281,-0.1819 -0.454795,-0.8817 -0.703364,-1.5551 -0.551975,-1.49536 -0.952353,-1.87371 -2.889315,-2.73033 -0.879553,-0.38898 -1.512362,-0.83643 -1.512362,-1.06938 0,-0.23396 0.727852,-0.74444 1.750095,-1.22743 1.712477,-0.8091 1.76941,-0.86926 2.648757,-2.79886 1.146973,-2.51687 1.271082,-2.49345 2.566813,0.4843 0.604362,1.3889 0.765349,1.54377 2.415022,2.3232 2.137487,1.00992 2.185842,1.47664 0.234261,2.26115 -1.771637,0.71216 -2.352917,1.26407 -2.904124,2.75735 -0.484849,1.31351 -0.835241,1.88583 -1.154574,1.88583 -0.109884,0 -0.312928,-0.14883 -0.451209,-0.33073 z"
       id="path19" /><path
       style="fill:#000000"
       d="m 62.309374,266.44679 c -5.60499,-1.21609 -10.135557,-5.27438 -12.713761,-11.38846 -2.175997,-5.16026 -2.686244,-10.6115 -1.535462,-16.40416 1.310413,-6.59619 5.613959,-14.68723 10.837354,-20.37516 3.209528,-3.49497 3.059969,-2.88609 1.205907,-4.90947 -4.420353,-4.82404 -8.162644,-12.14356 -9.663511,-18.90079 -1.2408,-5.58635 -1.268615,-13.2809 -0.06845,-18.9361 1.304889,-6.14866 4.207562,-13.02599 7.685005,-18.20815 l 1.755528,-2.61613 -0.308716,-3.99846 c -0.770174,-9.97522 0.687151,-21.52499 3.446869,-27.31752 1.862824,-3.90999 3.952613,-5.50974 7.162071,-5.48261 5.631321,0.0476 14.359799,4.9647 22.404124,12.62116 l 2.425706,2.30875 2.733669,-0.56116 c 8.398453,-1.72401 17.771143,-1.76446 26.774143,-0.11554 l 3.40297,0.62325 2.68245,-2.3835 c 7.06463,-6.27735 13.63137,-10.38477 18.949,-11.85238 2.15542,-0.59487 4.56917,-0.70702 5.74278,-0.26682 3.86697,1.45042 6.24894,6.42424 7.65883,15.9925 0.54075,3.66983 0.64032,14.96201 0.16281,18.46341 l -0.28083,2.05924 2.02596,3.01805 2.02597,3.01806 0.36475,-0.71167 c 1.20168,-2.34465 4.69271,-5.61291 7.50599,-7.02701 6.37258,-3.2032 14.0984,-2.60446 19.91059,1.54304 8.4358,6.01965 10.3352,18.30852 3.87885,25.0955 l -1.55746,1.63722 -0.17104,3.70416 c -0.41128,8.90749 -2.04556,17.77408 -4.68925,25.44108 -4.36121,12.64796 -12.56246,23.75187 -22.26586,30.14637 l -1.78594,1.17692 v 2.74447 c 0,5.0286 -0.90522,11.36583 -2.15638,15.09629 -0.62558,1.86523 -1.13642,2.52091 -1.96403,2.52091 -1.76456,0 -2.10247,-0.83989 -1.416,-3.51957 1.14969,-4.48792 1.6165,-8.14068 1.71423,-13.41376 0.0526,-2.83766 0.10066,-5.23896 0.10681,-5.33623 0.006,-0.0973 0.45769,-0.4472 1.00339,-0.77762 2.63259,-1.594 6.32141,-4.59004 9.21892,-7.48754 7.83305,-7.83306 12.84527,-17.09328 15.84048,-29.26576 1.39466,-5.66787 2.51993,-13.72128 2.52251,-18.05316 l 9e-4,-1.52136 h -1.28343 c -1.63044,0 -2.82936,-0.39769 -4.03921,-1.33982 l -0.95702,-0.74525 -1.14246,0.56524 c -0.80983,0.40067 -1.64817,0.56705 -2.87944,0.57144 -2.11014,0.008 -3.36642,-0.39911 -4.93728,-1.59818 -1.10366,-0.84244 -1.26561,-0.89007 -2.17116,-0.63857 -0.5382,0.14948 -1.63338,0.27216 -2.43375,0.27263 l -1.45521,8.6e-4 0.0874,2.313 c 0.1808,4.78581 -0.81721,11.40089 -2.43346,16.12965 -2.25939,6.61043 -5.28194,11.40933 -10.80381,17.15325 l -2.85741,2.97231 -0.004,1.81703 c -0.008,3.69692 -1.19105,6.81868 -3.52871,9.31101 -4.3678,4.65679 -12.49084,8.62104 -21.55912,10.52141 -1.84303,0.38623 -3.4998,0.74352 -3.6817,0.79398 -0.18897,0.0524 -0.3327,0.52058 -0.33532,1.09223 -0.0158,3.43879 -1.61443,7.27387 -4.10932,9.85813 -2.84661,2.94858 -6.59702,4.50768 -10.82449,4.49991 -7.81556,-0.0144 -14.057988,-5.34911 -15.011086,-12.82838 -0.166896,-1.30969 -0.32582,-2.41405 -0.353164,-2.45414 -0.02734,-0.0401 -1.108325,-0.25582 -2.402178,-0.4794 -12.315246,-2.12815 -23.035741,-7.75481 -26.224491,-13.76396 -1.00845,-1.90041 -1.650916,-4.41747 -1.65635,-6.48926 -0.0033,-1.27528 -0.09484,-1.5505 -0.632558,-1.90283 -0.615572,-0.40334 -0.675047,-0.36408 -2.859741,1.8878 -8.982394,9.25862 -12.973504,20.79078 -10.520318,30.39805 0.974206,3.81522 3.367364,7.87745 5.785635,9.82073 1.400743,1.12561 3.76363,2.20623 5.152191,2.35625 1.412868,0.15265 1.791691,-0.43433 1.958851,-3.03522 0.105644,-1.64375 0.193152,-1.91823 0.611558,-1.91823 0.894227,0 1.426513,1.25442 1.426513,3.3618 0,1.73166 0.05256,1.92987 0.511809,1.92987 0.970015,0 3.554753,-0.85459 4.088375,-1.35173 0.716748,-0.66776 0.950622,-2.09816 0.582248,-3.56111 -0.33758,-1.34065 -0.228168,-1.70175 0.515625,-1.70175 0.667892,0 1.325795,1.03991 1.505489,2.37963 0.141259,1.05316 0.155971,1.06649 0.668322,0.60539 0.954362,-0.85889 2.015314,-3.0598 2.333645,-4.84107 0.26082,-1.45946 0.243899,-2.09986 -0.100045,-3.78645 -0.74305,-3.64367 -2.541321,-6.54378 -6.152735,-9.92265 -2.380654,-2.22736 -2.745002,-2.95568 -1.478598,-2.95568 1.623188,0 5.366093,2.55111 7.337674,5.00125 1.442468,1.79259 3.132245,5.20322 3.525813,7.11646 0.904152,4.39533 -0.397096,8.94072 -3.426905,11.97053 -2.94359,2.94359 -6.024003,4.23359 -10.439884,4.37197 -1.600729,0.0502 -3.386667,-0.0121 -3.96875,-0.13842 z m 51.769376,-13.35883 c 0.96972,-0.20553 2.16034,-0.57451 2.64583,-0.81995 5.22222,-2.64014 7.75078,-8.46057 6.0458,-13.9167 -0.63036,-2.01723 -1.14466,-2.82708 -2.96156,-4.66346 -2.6336,-2.66182 -6.37975,-3.87116 -10.16751,-3.28229 -2.58417,0.40175 -4.52157,1.34279 -6.46073,3.1381 -4.613401,4.2712 -4.868159,11.2961 -0.57952,15.98029 2.08963,2.28236 5.58817,3.89327 8.52394,3.92488 0.65484,0.007 1.98403,-0.15534 2.95375,-0.36087 z m -6.52563,-25.42104 c 3.44342,-0.87839 7.71451,-0.45541 10.70539,1.06019 l 1.21817,0.61729 3.16635,-0.51111 c 8.22763,-1.3281 18.1323,-4.74023 24.10366,-8.30366 3.19539,-1.90686 5.77507,-3.98486 8.57093,-6.90411 6.26701,-6.54358 9.98088,-13.40028 11.66589,-21.53802 0.54977,-2.65508 0.63003,-3.7674 0.63003,-8.73125 v -5.68854 l -0.86938,-1.32292 c -1.40694,-2.14089 -1.94256,-4.29687 -1.8793,-7.56459 l 0.0542,-2.80209 -1.41787,-2.67753 c -0.77983,-1.47264 -2.17224,-3.72404 -3.09423,-5.00312 -1.3866,-1.92361 -1.65434,-2.46278 -1.549,-3.11934 0.07,-0.43656 0.27442,-3.20076 0.45418,-6.14266 0.76743,-12.55989 -1.3236,-24.1096 -4.79179,-26.46723 -1.12956,-0.76787 -2.22139,-0.75213 -4.6621,0.0672 -5.32794,1.78853 -11.73825,6.05942 -17.64361,11.75513 l -2.86194,2.76033 -4.41752,-0.83479 c -10.04389,-1.89804 -18.65556,-1.82601 -28.549972,0.23881 l -2.70121,0.5637 -3.251915,-3.09194 c -7.556214,-7.1845 -15.717814,-12.05374 -20.203912,-12.05374 -2.145764,0 -3.659524,2.00748 -4.99668,6.62637 -1.796439,6.20539 -2.387082,14.35114 -1.696998,23.40383 l 0.302537,3.96875 -1.615608,2.24896 c -4.999768,6.95978 -8.153718,15.4355 -8.762386,23.54747 -1.228452,16.3721 7.10699,31.09811 22.215211,39.24704 5.986443,3.2289 14.881865,6.18534 22.750713,7.5613 4.35894,0.76221 4.74063,0.77035 6.08542,0.12983 0.65484,-0.31191 2.02406,-0.7797 3.0427,-1.03955 z m 86.8216,-49.21998 c 2.17707,-1.26377 3.57556,-3.66759 4.10137,-7.04969 0.98695,-6.34833 -3.21213,-13.10906 -9.63446,-15.51196 -7.23343,-2.70638 -15.53288,0.42603 -18.80659,7.09804 -2.32971,4.7481 -2.16073,9.36635 0.44311,12.1098 1.02044,1.07516 2.51507,1.52693 3.72769,1.12673 l 0.8693,-0.2869 0.16047,-2.57221 c 0.16158,-2.59002 0.66122,-4.78346 1.25168,-5.49492 0.53224,-0.64131 2.02833,-0.48521 2.51842,0.26277 0.38998,0.59518 0.38806,0.80961 -0.0238,2.66073 -0.61588,2.76826 -0.45192,5.16755 0.41756,6.11018 1.32389,1.43527 3.43515,1.82638 4.93205,0.91366 1.0128,-0.61755 1.28593,-1.09224 1.52991,-2.659 0.3354,-2.15384 0.9719,-4.35766 1.3946,-4.82865 0.63054,-0.70259 1.82395,-0.59256 2.35445,0.21708 0.42269,0.64511 0.41127,0.84306 -0.22192,3.84727 -0.66129,3.13759 -0.66277,3.17322 -0.15829,3.81457 1.02136,1.29845 3.15231,1.3989 5.14442,0.2425 z"
       id="path18" /><path
       style="fill:#000000"
       d="m 151.73854,148.54677 c -2.13682,-1.86346 -7.50638,-5.32379 -11.0992,-7.15272 -2.02998,-1.03336 -3.73455,-2.00991 -3.78795,-2.1701 -0.40126,-1.20376 9.65208,-9.15987 12.96474,-10.26016 1.16955,-0.38846 1.33463,-0.38888 1.92073,-0.005 0.72048,0.47208 1.52072,2.73918 2.05452,5.82051 0.42398,2.44745 0.41473,12.97262 -0.0123,13.98253 -0.39913,0.94392 -0.75434,0.90646 -2.04055,-0.21521 z"
       id="path17" /><path
       style="fill:#000000"
       d="m 69.34962,149.12739 c -0.165324,-0.1992 -0.431448,-1.69652 -0.591386,-3.32737 -0.369574,-3.76847 0.05851,-9.58593 0.969719,-13.17802 1.102972,-4.34804 1.667652,-4.68973 4.977053,-3.01161 1.186048,0.60141 3.212244,1.8859 4.502658,2.85442 2.362721,1.77333 7.046502,6.20716 7.046502,6.67046 0,0.13714 -1.69664,1.07924 -3.770312,2.09356 -4.035879,1.97411 -7.454497,4.13486 -10.567093,6.67896 -1.063959,0.86963 -2.009188,1.58129 -2.100511,1.58147 -0.09132,1.8e-4 -0.301306,-0.16266 -0.46663,-0.36187 z"
       id="path16" /><path
       style="fill:#000000"
       d="m 93.408223,177.48553 c -0.29671,-0.31848 -0.539473,-0.67533 -0.539473,-0.79299 0,-0.50552 -2.059319,-2.43009 -3.290503,-3.0752 -1.157733,-0.60663 -1.663151,-0.70267 -3.720956,-0.70706 -2.972769,-0.006 -4.367045,0.59919 -6.501984,2.82374 -1.624349,1.69253 -2.482234,1.9453 -3.419891,1.00765 -1.601343,-1.60135 0.738506,-5.10201 4.617676,-6.90853 3.326922,-1.54935 7.038684,-1.55027 10.346013,-0.003 4.006915,1.87507 6.911483,6.23819 5.189957,7.79615 -0.692557,0.62676 -2.031071,0.55627 -2.680839,-0.14117 z"
       id="path15" /><path
       style="fill:#000000"
       d="m 126.28782,178.06204 c -0.31894,-0.12846 -0.78265,-0.54303 -1.03047,-0.92126 -0.69435,-1.05971 -0.15067,-2.43408 1.77885,-4.49674 4.50573,-4.81664 11.82204,-5.38257 16.60939,-1.28477 2.61571,2.23895 3.36227,4.26949 1.97185,5.36319 -0.93578,0.73609 -1.84309,0.69155 -2.55346,-0.12534 -2.48842,-2.86159 -4.26759,-3.8242 -7.06815,-3.8242 -2.93224,0 -5.99249,1.7121 -7.16369,4.00784 -0.29197,0.57231 -0.8314,1.15483 -1.19872,1.29448 -0.36733,0.13966 -0.68988,0.24638 -0.71679,0.23716 -0.0269,-0.009 -0.30987,-0.12189 -0.62881,-0.25036 z"
       id="path14" /><path
       style="fill:#000000"
       d="m 144.19792,187.325 c -1.1616,-1.1616 -0.28445,-2.18701 2.91964,-3.41312 4.26512,-1.63213 12.12472,-3.07095 14.0861,-2.57868 0.87103,0.21862 1.61866,1.27993 1.39594,1.98164 -0.22202,0.69952 -1.21936,1.02829 -3.66488,1.20811 -2.94144,0.21629 -6.75486,1.04376 -10.46475,2.27075 -1.76353,0.58325 -3.32713,1.06047 -3.47465,1.06047 -0.14753,0 -0.50636,-0.23813 -0.7974,-0.52917 z"
       id="path13" /><path
       style="fill:#000000"
       d="m 74.180143,186.77388 c -3.451416,-1.18784 -7.144746,-1.98339 -10.740783,-2.31358 -1.415799,-0.13 -2.755253,-0.38664 -2.976563,-0.57031 -0.505762,-0.41975 -0.517294,-1.33443 -0.02527,-2.00452 0.328625,-0.44756 0.694311,-0.51102 2.844271,-0.49361 4.193384,0.034 10.930729,1.59847 14.311843,3.32339 1.458987,0.74432 1.796617,1.97922 0.767776,2.80819 -0.562723,0.4534 -0.819887,0.4073 -4.181274,-0.74956 z"
       id="path12" /><path
       style="fill:#000000"
       d="m 159.51632,193.55937 c -0.25764,-0.25763 -6.96305,-0.99677 -10.54654,-1.16254 -3.78018,-0.17487 -3.83189,-0.18559 -4.2176,-0.87415 -0.35167,-0.62782 -0.34332,-0.76911 0.084,-1.42125 l 0.47447,-0.72412 4.66917,0.1342 c 4.93445,0.14182 10.77012,0.96572 11.87907,1.67712 0.65725,0.42164 0.81256,1.63412 0.27781,2.16887 -0.29706,0.29706 -2.36579,0.45643 -2.62035,0.20187 z"
       id="path11" /><path
       style="fill:#000000"
       d="m 60.507974,193.29101 c -0.947769,-0.94777 -0.34851,-2.05945 1.350286,-2.50491 3.872834,-1.01553 14.959958,-1.77449 15.795261,-1.08125 0.561138,0.4657 0.517767,2.03825 -0.06446,2.33716 -0.254662,0.13074 -2.189427,0.31343 -4.299479,0.40599 -2.110052,0.0926 -5.146146,0.35183 -6.746875,0.57616 -5.342212,0.74866 -5.544002,0.75758 -6.034734,0.26685 z"
       id="path10" /><path
       style="fill:#000000"
       d="m 155.83958,201.34762 c -2.59787,-1.35164 -5.31106,-2.50592 -8.73125,-3.71456 -2.02781,-0.7166 -2.86126,-1.14378 -3.08595,-1.58167 -0.39275,-0.76542 0.0343,-1.80169 0.82415,-1.99993 1.16862,-0.29331 7.88811,2.24422 12.44826,4.70093 1.89159,1.01906 2.12528,1.22906 2.19768,1.9748 0.0607,0.6254 -0.07,0.94028 -0.52189,1.25677 -0.80262,0.56217 -0.84333,0.5539 -3.131,-0.63634 z"
       id="path9" /><path
       style="fill:#000000"
       d="m 63.499999,201.87708 c -1.094734,-1.09473 -0.477831,-2.02143 2.248958,-3.37835 2.882151,-1.43423 7.107965,-3.17926 9.458076,-3.90568 2.185883,-0.67565 2.351078,-0.69127 2.976562,-0.28143 0.777947,0.50973 0.871782,1.48143 0.199217,2.06298 -0.254662,0.22019 -1.83224,0.90575 -3.505729,1.52344 -1.67349,0.6177 -4.636949,1.88474 -6.585466,2.81565 -1.948516,0.93091 -3.704688,1.69256 -3.902604,1.69256 -0.197916,0 -0.597972,-0.23812 -0.889014,-0.52917 z"
       id="path8" /><path
       style="fill:#000000"
       d="m 108.46208,209.8464 c -3.36769,-1.31783 -5.01,-3.88528 -6.19593,-9.68624 l -0.59442,-2.90755 -1.04244,-0.30181 c -2.563733,-0.74227 -3.926211,-1.81607 -4.827891,-3.80497 -0.685817,-1.51275 -0.686447,-2.1382 -0.003,-3.00702 0.983903,-1.25083 2.366204,-0.72076 2.74233,1.05161 0.177613,0.83694 1.137366,1.91555 2.182011,2.45225 0.76285,0.39192 3.0558,0.37817 4.41847,-0.0265 1.42611,-0.42351 3.46453,-2.44363 3.84369,-3.8092 0.55401,-1.99528 0.42831,-2.35231 -1.13973,-3.23726 -1.75037,-0.98784 -2.61313,-2.12803 -2.61313,-3.4534 0,-2.33193 1.70274,-3.33713 5.62841,-3.32271 2.09106,0.008 2.7059,0.11036 3.65803,0.6109 2.73263,1.43656 2.30385,4.40721 -0.90779,6.28936 -1.01624,0.59556 -1.16274,0.796 -1.16274,1.59081 0,3.46393 3.82141,6.33515 7.50253,5.63704 1.84409,-0.34972 2.96916,-1.28326 3.40461,-2.825 0.43066,-1.52481 1.33443,-2.01628 2.41082,-1.31101 1.03884,0.68068 1.13972,1.81629 0.31167,3.50876 -0.8377,1.71219 -1.94111,2.61982 -4.163,3.42435 l -1.63635,0.59251 -0.34801,2.08444 c -0.45363,2.71709 -1.02448,4.66743 -1.83326,6.26348 -1.90061,3.75069 -6.09361,5.5729 -9.63485,4.18715 z m 4.27203,-3.11404 c 1.38204,-0.55299 2.46167,-2.01864 3.1701,-4.30358 0.50225,-1.61995 0.50892,-1.7609 0.095,-2.0069 -0.24488,-0.14553 -1.41198,-0.88749 -2.59355,-1.64881 -1.18158,-0.76132 -2.27777,-1.3864 -2.43599,-1.38906 -0.15821,-0.003 -0.93211,0.45509 -1.71979,1.01724 -0.78767,0.56214 -1.93962,1.27969 -2.55988,1.59455 -1.01472,0.51508 -1.11013,0.64468 -0.95187,1.29302 0.69418,2.84383 1.75161,4.53847 3.31477,5.31221 1.37631,0.68126 2.23067,0.71174 3.68125,0.13133 z"
       id="path7" /><path
       style="fill:#000000"
       d="m 110.2651,251.86214 c -0.39567,-0.23046 -0.46302,-0.68466 -0.46302,-3.12262 v -2.85294 l -0.97144,-0.63965 c -1.44131,-0.94902 -2.01107,-1.87711 -2.13203,-3.47294 -0.21846,-2.88221 1.83889,-5.0475 4.79589,-5.0475 1.58051,0 2.72641,0.51682 3.69307,1.66562 0.81574,0.96945 1.33557,2.70669 1.09847,3.67103 -0.32693,1.32973 -1.42726,2.86668 -2.37389,3.31589 l -0.93507,0.44372 v 2.84508 c 0,1.86007 -0.10992,2.95501 -0.3175,3.16259 -0.3847,0.38471 -1.75722,0.40289 -2.39448,0.0317 z"
       id="path6" /><path
       style="fill:#000000"
       d="m 196.7123,282.07907 c -2.69712,-1.56003 -4.52373,-4.23974 -4.81523,-7.06417 l -0.1481,-1.43496 -1.17346,1.08165 c -2.28437,2.10566 -5.39913,2.98219 -8.39051,2.36118 l -1.54453,-0.32064 0.15858,-1.51721 c 0.0872,-0.83447 0.23476,-1.71573 0.32787,-1.95836 0.14418,-0.37573 -0.0279,-0.44114 -1.16031,-0.44114 -0.73127,0 -1.51791,-0.0723 -1.74809,-0.1606 -0.99972,-0.38363 -0.0995,-4.71801 1.47305,-7.09205 1.14582,-1.72987 2.6188,-2.79732 5.11989,-3.71031 0.43924,-0.16034 0.25939,-0.31869 -1.05833,-0.9318 -3.19215,-1.48525 -5.24764,-4.65022 -5.27613,-8.12398 -0.009,-1.04213 0.0648,-1.97576 0.163,-2.07472 0.0982,-0.099 0.99661,-0.17229 1.99646,-0.16292 l 1.81791,0.017 -0.0896,-1.64647 c -0.12589,-2.31392 0.0108,-2.44021 2.64102,-2.44021 1.95324,0 2.39611,0.0975 3.97666,0.87562 1.63194,0.80339 2.19939,1.31434 3.86218,3.47757 l 0.49888,0.64902 0.29646,-1.38232 c 0.41232,-1.9226 1.37529,-3.68811 2.72472,-4.99553 1.27289,-1.23326 3.57862,-2.4012 4.96979,-2.51737 0.85242,-0.0712 0.93499,-0.004 1.37274,1.11488 0.25618,0.65485 0.52919,1.50031 0.60671,1.8788 l 0.14093,0.68818 1.49255,-0.50388 c 0.82091,-0.27714 1.73449,-0.46776 2.03017,-0.4236 0.82177,0.12273 1.32641,1.82642 1.35609,4.57821 0.0222,2.05777 -0.0699,2.58523 -0.67821,3.8828 -0.38715,0.82585 -1.19082,2.02979 -1.78594,2.67542 -0.59512,0.64563 -1.08204,1.24026 -1.08204,1.3214 0,0.0811 0.44629,0.0243 0.99175,-0.12632 1.60036,-0.44188 4.49948,-0.1312 6.02495,0.64565 1.50988,0.76891 3.54606,2.82258 4.07436,4.10936 0.31659,0.77112 0.30285,0.92518 -0.12469,1.39761 -0.26428,0.29203 -0.90506,0.78591 -1.42396,1.09753 -0.5189,0.31161 -0.98524,0.5976 -1.03632,0.63554 -0.0511,0.0379 0.21583,0.47368 0.59312,0.96833 0.37729,0.49466 0.75696,1.25427 0.84372,1.68804 0.13666,0.6833 0.0267,0.88858 -0.82279,1.53654 -2.27295,1.73366 -5.68146,2.23181 -8.34527,1.21964 -1.21935,-0.46332 -1.32969,-0.4696 -1.16041,-0.0661 1.46876,3.50062 1.46274,5.68758 -0.024,8.71408 -0.51827,1.05503 -1.075,1.91823 -1.23718,1.91823 -0.16219,0 -0.92779,-0.35719 -1.70133,-0.79375 -0.77355,-0.43656 -1.45488,-0.79375 -1.51407,-0.79375 -0.0592,0 -0.17541,0.26789 -0.25827,0.59531 -0.0829,0.32742 -0.48272,0.98402 -0.88858,1.4591 l -0.73792,0.8638 z m -0.61074,-11.8482 c 0.5397,-0.48842 0.63678,-1.42003 0.1941,-1.86271 -0.3099,-0.3099 -0.0651,-4.31399 0.26374,-4.31399 0.41928,0 2.98476,2.88275 2.81292,3.16079 -0.32913,0.53255 0.59897,1.60208 1.38639,1.59766 0.86103,-0.005 1.20711,-0.20906 1.59081,-0.93875 0.43395,-0.82525 -0.15301,-1.81386 -1.14002,-1.92011 -0.52285,-0.0563 -1.25458,-0.54243 -2.17669,-1.44617 -0.76398,-0.74876 -1.38906,-1.4367 -1.38906,-1.52876 0,-0.0921 0.83415,-0.19173 1.85367,-0.2215 1.36099,-0.0397 2.06051,0.0681 2.6319,0.40559 0.97265,0.57456 2.0281,0.19481 2.28317,-0.82147 0.39612,-1.57825 -1.42549,-2.60668 -2.65064,-1.49648 -0.38261,0.34671 -1.12081,0.54023 -2.46445,0.64607 -1.05503,0.0831 -1.91823,0.0468 -1.91823,-0.0807 0,-0.76462 1.4427,-3.41126 1.99722,-3.66392 1.40838,-0.6417 0.90794,-2.95271 -0.6394,-2.95271 -1.09047,0 -1.72627,0.8186 -1.51412,1.94946 0.12611,0.67221 -0.001,1.30167 -0.48318,2.39183 -0.35987,0.81375 -0.75212,1.47954 -0.87165,1.47954 -0.47465,0 -2.06033,-3.04635 -1.97457,-3.79349 0.16874,-1.47016 -1.53919,-2.32565 -2.64503,-1.32487 -0.26612,0.24083 -0.48386,0.71708 -0.48386,1.05833 0,0.72609 0.85657,1.67551 1.52136,1.68629 0.47225,0.008 2.36834,2.80558 2.08993,3.08398 -0.31778,0.31779 -3.8912,-0.77367 -4.1566,-1.26958 -0.33308,-0.62236 -1.48928,-0.65528 -2.14583,-0.0611 -1.3091,1.18473 0.28326,3.33552 1.75536,2.37096 0.49021,-0.3212 0.85483,-0.32863 2.34878,-0.0479 0.97266,0.18278 1.83252,0.39637 1.91078,0.47464 0.28425,0.28424 -2.55363,1.79149 -3.37306,1.79149 -1.62088,0 -2.36781,1.55166 -1.27363,2.64584 0.29104,0.29104 0.75865,0.52917 1.03913,0.52917 0.51112,0 1.59785,-1.13549 1.61679,-1.68933 0.0101,-0.29657 2.88786,-2.38008 3.05563,-2.21232 0.0493,0.0493 -0.045,0.90247 -0.20958,1.89585 -0.20943,1.26385 -0.48453,1.99139 -0.91626,2.42311 -0.72431,0.72431 -0.76532,1.10522 -0.20508,1.90506 0.49233,0.70291 1.58867,0.77514 2.27926,0.15016 z"
       id="path5" /><path
       style="fill:#000000"
       d="m 20.598393,290.1993 c -0.230684,-0.48375 -0.50431,-1.26602 -0.608058,-1.73838 -0.103747,-0.47236 -0.250144,-0.85883 -0.325325,-0.85883 -0.07518,0 -0.786457,0.18889 -1.580613,0.41975 -0.794155,0.23087 -1.609693,0.35615 -1.812307,0.2784 -0.527594,-0.20246 -1.190842,-2.65436 -1.190842,-4.40232 0,-1.95763 0.591556,-3.88007 1.681359,-5.46408 l 0.882565,-1.2828 -2.141858,0.089 c -2.891608,0.12014 -4.677755,-0.54333 -6.6521604,-2.47096 -0.7935522,-0.77476 -1.4428222,-1.61941 -1.4428222,-1.877 0,-0.25759 0.5655469,-1.00324 1.2567709,-1.657 l 1.2567708,-1.18864 -1.1244791,-1.14869 c -0.6184636,-0.63178 -1.1244792,-1.36957 -1.1244792,-1.63952 0,-0.66299 1.9467573,-2.41503 3.5718752,-3.21461 1.098161,-0.54032 1.705,-0.64924 3.571875,-0.64115 1.874458,0.008 2.507625,0.12921 3.802314,0.72719 1.515013,0.69974 1.542548,0.70277 1.115518,0.12255 -1.227326,-1.66761 -1.864371,-3.50909 -1.962311,-5.67236 -0.111754,-2.46841 0.289878,-4.01742 1.561582,-6.02269 0.702662,-1.10798 0.876887,-1.23467 1.487306,-1.08146 0.380276,0.0954 1.222388,0.53885 1.871361,0.98536 0.94615,0.65097 1.225639,0.73969 1.410538,0.44778 0.126824,-0.20022 0.232412,-0.45589 0.234641,-0.56815 0.01128,-0.56826 1.453266,-2.30943 1.912601,-2.30943 0.743591,0 3.246201,1.73428 4.137744,2.8674 1.756285,2.23219 2.023498,3.08178 2.023498,6.43364 v 3.08333 l 1.264795,-1.18321 c 1.955299,-1.82917 3.818647,-2.56562 6.540413,-2.58497 1.577389,-0.0112 2.624248,0.12862 3.50573,0.46829 1.428807,0.55058 1.512036,0.83788 0.862759,2.97816 -0.216706,0.71435 -0.395299,1.31913 -0.396875,1.34394 -0.0016,0.0248 0.38409,0.12865 0.857032,0.23073 0.472943,0.10208 1.31441,0.41571 1.869926,0.69696 0.93071,0.4712 0.99668,0.57775 0.840034,1.35677 -0.715492,3.55825 -3.902442,6.61629 -7.687366,7.37641 l -1.442879,0.28977 0.729674,0.3751 c 3.091563,1.58929 5.260393,6.08222 4.709462,9.75609 l -0.181821,1.21247 -1.955502,-0.0864 -1.955502,-0.0864 -0.07577,1.85208 -0.07577,1.85208 -2.126641,-0.008 c -1.799756,-0.006 -2.367389,-0.1254 -3.692898,-0.77391 -1.694538,-0.82906 -3.585812,-2.58596 -4.145937,-3.85137 -0.192587,-0.43509 -0.41198,-0.79106 -0.487539,-0.79106 -0.07556,0 -0.282665,0.6116 -0.460233,1.35912 -0.753754,3.17313 -3.809292,6.11483 -6.966711,6.70717 -0.852355,0.1599 -0.953699,0.10652 -1.341438,-0.70658 z m 7.775447,-10.60086 c 0.236031,-0.1819 0.460724,-0.50932 0.499316,-0.7276 0.09737,-0.55072 -0.2818,-1.5875 -0.580571,-1.5875 -0.135714,0 -0.246753,-0.89297 -0.246753,-1.98438 0,-1.09141 0.08555,-1.98437 0.190117,-1.98437 0.104565,0 0.81894,0.62101 1.5875,1.38002 0.932699,0.92111 1.397383,1.59606 1.397383,2.02969 0,0.76072 0.691224,1.61737 1.305052,1.61737 0.811782,0 1.605365,-0.78915 1.605365,-1.5964 0,-0.83987 -1.022935,-1.75033 -1.682283,-1.49731 -0.211606,0.0812 -0.958602,-0.47267 -1.78798,-1.32573 l -1.424529,-1.46519 2.031714,0.14236 c 1.546472,0.10837 2.226085,0.28607 2.845551,0.74406 l 0.813838,0.6017 0.726323,-0.54027 c 0.882905,-0.65674 1.059373,-1.5466 0.441995,-2.22879 -0.538782,-0.59535 -1.766017,-0.66859 -2.211366,-0.13198 -0.240623,0.28994 -0.774943,0.34194 -2.347501,0.22847 -1.119784,-0.0808 -2.084163,-0.18877 -2.143064,-0.23993 -0.229565,-0.19941 2.617059,-2.78999 2.939552,-2.67515 0.188398,0.0671 0.669963,-0.0433 1.070145,-0.2454 1.376905,-0.6952 0.706506,-2.99961 -0.872646,-2.99961 -0.646597,0 -1.649218,1.19777 -1.476123,1.76343 0.108734,0.35534 -0.270108,0.85878 -1.412819,1.87751 -0.858767,0.76558 -1.615539,1.30136 -1.681718,1.19062 -0.06618,-0.11074 -0.265149,-0.9057 -0.442158,-1.76658 -0.25282,-1.22959 -0.252742,-1.77459 3.64e-4,-2.5415 0.576418,-1.74657 -0.78965,-2.96042 -2.252765,-2.00175 -0.847333,0.55519 -0.864781,1.6218 -0.04126,2.52213 0.58128,0.63549 1.420405,3.88483 1.088858,4.21637 -0.198583,0.19859 -3.823796,-1.02237 -3.823796,-1.28784 0,-0.48771 -0.865355,-1.06197 -1.6003,-1.06197 -0.523943,0 -0.904066,0.20651 -1.193667,0.6485 -0.484078,0.7388 -0.342557,1.44611 0.42906,2.14441 0.457671,0.41419 0.653156,0.43765 1.399154,0.16789 0.734133,-0.26547 1.120163,-0.22812 2.516494,0.24342 0.934752,0.31567 1.605983,0.68793 1.549268,0.8592 -0.05504,0.16621 -0.745292,0.80646 -1.533894,1.42278 -1.030351,0.80526 -1.602914,1.08264 -2.03472,0.98575 -0.410701,-0.0922 -0.808495,0.0728 -1.256771,0.52104 -0.794144,0.79414 -0.826349,1.3032 -0.126708,2.00284 0.920871,0.92087 2.645834,0.50901 2.645834,-0.63174 0,-0.43342 0.458713,-0.9735 1.565155,-1.84277 0.860835,-0.67631 1.634741,-1.22965 1.719791,-1.22965 0.08505,0 0.154637,0.87839 0.154637,1.95197 0,1.41232 -0.109724,2.04304 -0.396875,2.28136 -0.517165,0.42921 -0.507454,1.43912 0.0189,1.96547 0.499817,0.49982 1.439586,0.53921 2.028901,0.085 z"
       id="path4" /><path
       style="fill:#000000"
       d="m 206.0849,296.6224 c -0.80567,-1.80184 -0.84321,-1.83924 -2.66284,-2.65286 -1.33572,-0.59725 -1.82239,-0.9458 -1.76146,-1.26153 0.0463,-0.23994 0.87323,-0.83572 1.83761,-1.32393 1.61806,-0.81915 1.80431,-1.00449 2.41268,-2.40098 0.36259,-0.83232 0.73068,-1.72167 0.81797,-1.97633 0.27001,-0.78776 0.97343,-0.51999 1.3901,0.52917 1.17629,2.96185 1.22437,3.02642 2.8133,3.77786 1.81473,0.85824 2.37366,1.28216 2.15563,1.63494 -0.0882,0.14278 -0.91186,0.59674 -1.83026,1.0088 -1.77053,0.79439 -2.16016,1.22878 -2.90229,3.23569 -0.68359,1.84863 -1.25258,1.70557 -2.27044,-0.57083 z"
       id="path3" /><path
       style="fill:#000000"
       d="m 45.631562,300.23594 c -0.710645,-1.49761 -0.928244,-1.72323 -2.306042,-2.39103 -2.00198,-0.97035 -1.994613,-1.44881 0.03666,-2.38119 1.470893,-0.67515 1.600125,-0.81181 2.311074,-2.44374 1.008498,-2.31494 1.313108,-2.25709 2.452779,0.46582 0.455909,1.08926 0.725784,1.34993 2.059677,1.98942 1.755986,0.84184 2.089027,1.50665 0.968242,1.93277 -2.206856,0.83904 -2.522834,1.10906 -3.284549,2.80678 -0.413292,0.92115 -0.909326,1.67482 -1.102297,1.67482 -0.192971,0 -0.703966,-0.74414 -1.135544,-1.65365 z"
       id="path2" /><path
       style="fill:#000000"
       d="m 198.17292,314.0572 c -1.58775,-0.17788 -14.27319,-3.17352 -35.85104,-8.46616 -4.80219,-1.17788 -10.63625,-2.60512 -12.96459,-3.17164 -2.32833,-0.56652 -8.10286,-1.97802 -12.83229,-3.13667 -4.72943,-1.15865 -12.34943,-3.01662 -16.93333,-4.12884 l -8.33438,-2.02221 -14.816665,3.56683 c -8.149167,1.96175 -20.65073,4.99698 -27.781251,6.74496 -45.064125,11.047 -42.354765,10.42063 -45.640626,10.55154 -6.788971,0.27048 -12.501259,-1.80273 -17.2585921,-6.2638 -5.97780812,-5.60555 -8.4253953,-12.63026 -7.3445426,-21.07924 0.1472343,-1.15093 0.97762522,-8.16478 1.84531318,-15.58634 C 2.1431067,254.96685 3.1677911,246.33798 6.4819839,218.67813 7.8594475,207.18198 9.0599564,196.9426 9.1497814,195.92396 l 0.1633182,-1.85208 -2.8488168,-4.10105 c -1.5668493,-2.25557 -6.53435467,-9.45885 -11.0389009,-16.00729 -4.5045462,-6.54844 -12.8487299,-18.60579 -18.5426299,-26.79412 -5.693901,-8.18833 -10.733086,-15.51067 -11.198189,-16.27187 -2.205557,-3.60969 -2.935249,-9.46286 -1.716524,-13.76897 1.995632,-7.05117 7.202714,-11.87993 14.321436,-13.28091 2.204044,-0.43377 30.717529,-5.777526 33.881357,-6.349767 4.079413,-0.737843 37.865598,-7.042896 41.929449,-7.824718 2.324478,-0.447195 4.368862,-0.893401 4.543075,-0.991571 0.174213,-0.09817 2.329309,-3.393178 4.789102,-7.322241 2.459793,-3.929062 7.927811,-12.620625 12.151151,-19.314583 4.22334,-6.693959 9.586551,-15.206928 11.918246,-18.917709 11.435532,-18.1991 11.090659,-17.696989 13.285325,-19.342506 1.74619,-1.309264 4.60601,-2.676573 6.63365,-3.171624 3.62097,-0.884063 8.09156,-0.237641 11.7725,1.702237 3.30821,1.743452 4.11599,2.829217 16.27085,21.870226 10.11057,15.838568 22.97501,36.034123 26.83114,42.121505 1.28674,2.031291 1.57601,2.330119 2.46209,2.543496 1.11595,0.26873 4.05547,0.814471 23.09676,4.288061 7.20328,1.314052 14.58515,2.677514 16.40417,3.029915 1.81901,0.352401 6.87916,1.30948 11.24479,2.126843 10.46893,1.960066 25.27666,4.785096 28.51587,5.440276 3.05719,0.61836 4.95615,1.4105 7.16867,2.99035 3.95113,2.82131 6.65169,7.00793 7.58699,11.76197 0.47749,2.42704 0.18256,6.54849 -0.65647,9.17363 -0.73939,2.3134 -0.90654,2.61655 -3.92891,7.12534 -1.13282,1.68996 -3.55571,5.48107 -5.38419,8.4247 -1.82849,2.94362 -4.23539,6.80957 -5.34866,8.59099 -1.11328,1.78143 -3.73153,5.59143 -5.81835,8.46667 -2.08682,2.87524 -5.22541,7.4899 -6.97466,10.2548 -1.74924,2.76489 -3.64883,5.65414 -4.22132,6.42054 l -1.04088,1.39346 -0.87298,-0.66586 c -0.48014,-0.36622 -1.01057,-0.66585 -1.17873,-0.66585 -0.44672,0 -0.3882,-0.18149 0.45384,-1.40754 0.41778,-0.6083 2.15565,-3.30866 3.86195,-6.00079 3.15165,-4.97259 5.36296,-8.17997 8.75592,-12.7 2.08084,-2.77206 3.02203,-4.22458 9.51498,-14.68438 2.43898,-3.92906 5.43365,-8.62656 6.65482,-10.43889 2.89882,-4.30213 3.40062,-5.81881 3.37423,-10.19861 -0.0167,-2.76722 -0.10791,-3.40256 -0.71042,-4.94678 -0.92857,-2.37993 -2.20375,-4.30039 -3.93566,-5.92723 -2.99966,-2.8177 -4.6624,-3.48113 -12.50696,-4.99032 -3.36114,-0.64664 -8.25429,-1.59043 -10.87367,-2.09731 -2.61937,-0.50688 -12.50156,-2.36586 -21.96041,-4.131069 -9.45886,-1.765205 -21.30558,-3.981969 -26.32605,-4.926142 -5.02046,-0.944172 -10.74802,-2.004384 -12.7279,-2.356026 -5.30827,-0.942791 -4.84478,-0.635306 -7.60119,-5.042729 -7.32663,-11.715116 -16.46782,-26.043304 -29.27302,-45.883436 -2.20717,-3.41974 -5.05417,-7.850683 -6.32668,-9.846541 -1.41126,-2.21349 -2.83426,-4.096909 -3.64846,-4.828947 -3.99697,-3.593624 -9.94434,-4.348753 -15.03525,-1.909004 -2.89973,1.389657 -4.58047,3.3675 -9.376526,11.033995 -2.319435,3.707617 -5.727279,9.122372 -7.572987,12.032788 -4.042544,6.374514 -14.599588,23.114745 -20.439932,32.411459 -6.191845,9.856236 -6.410509,10.185262 -7.161532,10.776016 -0.811889,0.638632 -3.744844,1.21603 -52.0219382,10.241336 -31.6904128,5.92445 -31.3339858,5.85074 -33.5713178,6.94339 -3.816784,1.86402 -7.057951,5.78223 -8.103445,9.79615 -0.509729,1.95698 -0.504445,5.89327 0.01057,7.87054 0.605793,2.32579 1.493381,3.75994 8.973587,14.49931 7.343118,10.54256 8.687767,12.48703 25.3864036,36.71076 9.9104904,14.37656 10.8610644,15.84926 10.9538914,16.97053 0.10417,1.25828 -0.0099,2.34091 -1.808343,17.16072 -2.3082285,19.02077 -4.5699722,37.97466 -5.6830301,47.625 -0.6461912,5.60255 -1.5283155,13.16302 -1.9602763,16.80104 -1.86745813,15.72794 -1.83768085,15.28096 -1.2296823,18.45868 1.2446021,6.50495 5.2994089,11.89579 11.0999117,14.75728 3.847759,1.89817 6.355103,2.46484 10.200844,2.30544 2.755672,-0.11422 4.22267,-0.40949 14.702766,-2.95925 6.402917,-1.5578 16.52323,-4.0186 22.489584,-5.46845 14.02696,-3.40861 12.937739,-3.09992 12.557009,-3.55867 -0.172923,-0.20836 -0.375904,-1.14498 -0.451069,-2.08137 l -0.136663,-1.70254 -1.994108,0.0463 -1.994107,0.0463 -0.249103,-0.92604 c -0.392843,-1.46039 -0.04322,-4.32806 0.73517,-6.02997 0.749907,-1.63964 1.56664,-2.62914 3.106356,-3.76345 l 0.990151,-0.72945 -1.416654,-0.177 c -3.134092,-0.39158 -6.089632,-2.57896 -7.459197,-5.52052 -0.977155,-2.09874 -0.897081,-2.37967 0.909363,-3.19035 0.854941,-0.38368 1.667389,-0.69759 1.805438,-0.69759 0.13805,0 -0.03641,-0.85695 -0.387688,-1.90432 -0.616231,-1.83737 -0.621568,-1.91685 -0.151793,-2.26061 1.762467,-1.2897 7.113502,-1.50297 9.296213,-0.37051 0.625021,0.32429 1.610433,1.01787 2.189805,1.54129 0.579372,0.52343 1.107752,0.89734 1.174178,0.83092 0.06643,-0.0664 0.0037,-0.52882 -0.139284,-1.02755 -0.682087,-2.3783 0.07715,-6.01528 1.720586,-8.24209 0.888109,-1.20337 3.360167,-3.11922 4.024788,-3.11922 0.462259,0 1.359976,1.01575 1.987631,2.24896 0.296257,0.58209 0.580398,1.1048 0.631425,1.16159 0.05103,0.0568 0.578566,-0.33563 1.172307,-0.87204 0.593742,-0.53641 1.373033,-1.10902 1.731759,-1.27247 0.569714,-0.25958 0.753006,-0.20062 1.448841,0.46603 1.101643,1.05544 2.296982,3.55703 2.508465,5.24967 0.22091,1.76811 -0.242284,4.10098 -1.161633,5.85056 -0.382334,0.7276 -0.734677,1.40967 -0.782984,1.51571 -0.04831,0.10604 0.605855,-0.1201 1.453693,-0.50253 2.195469,-0.99029 5.215589,-1.14316 7.270417,-0.36801 1.83572,0.69249 3.92839,2.24585 3.92839,2.91597 0,0.27181 -0.45894,1.07003 -1.01986,1.77382 l -1.01987,1.27962 1.46769,1.34154 1.46769,1.34155 -0.56345,0.90741 c -0.90853,1.46314 -2.4663,2.8105 -4.16866,3.60557 -1.366905,0.63841 -1.904332,0.73925 -3.867715,0.72573 l -2.280224,-0.0157 0.743951,1.027 c 0.765135,1.05623 1.394481,2.73426 1.693967,4.51663 0.104525,0.62207 0.292082,0.96943 0.485022,0.89826 0.173025,-0.0638 3.428819,-0.85712 7.235099,-1.76288 l 6.9205,-1.64684 9.48366,2.29536 c 5.21602,1.26244 10.83116,2.64109 12.47811,3.06368 1.64694,0.42258 3.14905,0.76833 3.33801,0.76833 0.27705,0 0.26858,-0.32022 -0.0437,-1.65365 -0.7106,-3.0339 -0.0805,-6.05033 1.74546,-8.35541 l 0.76928,-0.97115 h -2.94652 c -2.59104,0 -3.10613,-0.0782 -4.26944,-0.6485 -1.56988,-0.76956 -4.63021,-3.71255 -4.63021,-4.45268 0,-0.51228 1.92968,-2.50784 2.66525,-2.75625 0.2776,-0.0937 0.12074,-0.41251 -0.59289,-1.20484 -1.88161,-2.08913 -1.86609,-2.41917 0.18749,-3.98851 3.23846,-2.47482 7.32173,-2.73528 11.16776,-0.71235 0.9095,0.47838 1.65364,0.82059 1.65364,0.76047 0,-0.0601 -0.35096,-0.80456 -0.77992,-1.65432 -1.05586,-2.09166 -1.46157,-4.51923 -1.09259,-6.53753 0.34712,-1.89869 1.5761,-4.48397 2.59614,-5.46122 0.7492,-0.71779 0.75762,-0.71911 1.62248,-0.25528 0.47815,0.25643 1.31594,0.91015 1.86174,1.4527 l 0.99238,0.98646 0.61708,-1.31749 c 0.85991,-1.83595 1.66869,-2.5589 2.45956,-2.19855 1.18852,0.54153 3.55249,2.97887 4.35695,4.49219 1.31331,2.47055 1.6651,5.9576 0.82888,8.21601 -0.30809,0.83204 -0.1112,0.7517 1.16576,-0.47571 2.95776,-2.84298 7.28764,-3.51781 11.16922,-1.74077 l 1.41856,0.64944 -0.35937,1.36232 c -0.19765,0.74927 -0.54678,1.64833 -0.77583,1.99791 -0.53023,0.80923 -0.52298,0.91879 0.0608,0.91879 0.26247,0 1.09591,0.3083 1.85209,0.68512 1.66019,0.82731 1.72675,1.23451 0.56472,3.4552 -1.60888,3.07465 -4.01462,4.82314 -7.52843,5.47165 l -1.81826,0.33559 0.95181,0.58824 c 1.20602,0.74537 2.67858,2.36859 3.35941,3.70313 0.78722,1.54308 1.19125,4.14248 0.91229,5.8694 l -0.23507,1.45521 h -2.01534 -2.01533 l -0.13028,1.62603 c -0.18161,2.26653 -0.22659,2.30877 -2.25715,2.11915 -3.31476,-0.30954 -6.57304,-2.49437 -7.86829,-5.27605 -0.59285,-1.27321 -0.91784,-1.21537 -0.91834,0.16345 -4.1e-4,1.12989 -1.48908,3.74954 -2.77296,4.87966 -0.83682,0.73659 -1.13849,1.152 -0.89736,1.23568 0.33745,0.11711 8.09406,2.00025 18.09032,4.39194 2.32833,0.55708 10.18646,2.46194 17.4625,4.23304 12.44734,3.02986 13.42594,3.22808 16.55876,3.35407 2.80446,0.11279 3.68078,0.0463 5.55625,-0.42143 8.84181,-2.20519 15.09773,-9.52669 15.96708,-18.68679 0.19418,-2.04597 -0.22177,-5.95443 -4.35036,-40.87813 -5.38699,-45.56854 -6.46925,-55.00006 -6.32728,-55.13997 0.23766,-0.23423 2.89034,0.76163 2.89034,1.08507 0,0.18778 0.65292,5.78921 1.45094,12.44763 0.79801,6.65843 1.87056,15.67811 2.38344,20.04373 1.62998,13.87442 3.81346,32.35905 4.4849,37.96771 2.78725,23.28231 2.83309,23.98432 1.84874,28.31217 -2.24754,9.8817 -10.73332,17.25995 -21.00005,18.25924 -1.39118,0.1354 -2.58896,0.23236 -2.66172,0.21545 -0.0728,-0.0169 -0.9062,-0.11744 -1.85208,-0.22341 z M 80.83106,297.49311 c 2.661096,-0.66681 2.751654,-0.7131 2.458408,-1.25677 -0.167453,-0.31045 -0.502125,-1.20038 -0.743715,-1.97761 l -0.439254,-1.41315 -0.712171,1.45563 c -0.650337,1.32924 -1.931382,2.73201 -3.230909,3.53792 -0.750931,0.46569 -0.379458,0.41751 2.667641,-0.34602 z m 61.30041,-0.7629 c -0.0595,-0.50932 -0.18313,-0.92604 -0.27482,-0.92604 -0.34303,0 -2.41929,0.93241 -2.42024,1.08689 -8.6e-4,0.13964 1.73041,0.6424 2.52557,0.73342 0.16477,0.0189 0.23366,-0.34462 0.16949,-0.89427 z m -55.142425,-7.15875 c 0.874842,-0.61277 0.784734,-1.80811 -0.190661,-2.52925 -0.770817,-0.56989 -2.098503,-3.2657 -1.770097,-3.59411 0.09142,-0.0914 1.12259,0.0522 2.291493,0.31919 1.551116,0.35427 2.336919,0.68766 2.908674,1.23406 0.96052,0.91792 1.416678,0.93799 2.255447,0.0992 0.787816,-0.78782 0.818557,-1.29811 0.120265,-1.9964 -0.575752,-0.57575 -1.348574,-0.67566 -2.103068,-0.27186 -0.543881,0.29107 -4.65038,-0.47872 -4.813089,-0.90225 -0.05241,-0.13644 0.559543,-0.64702 1.359907,-1.13461 1.087752,-0.66268 1.649874,-0.85006 2.226128,-0.74207 1.058864,0.19843 2.008365,-0.45905 2.003154,-1.38708 -0.0049,-0.87824 -0.207742,-1.20623 -1.005878,-1.62674 -0.504392,-0.26575 -0.729247,-0.24687 -1.268581,0.10652 -0.360539,0.23623 -0.76118,0.70741 -0.890313,1.04705 -0.222543,0.58533 -3.341073,2.72267 -3.597877,2.46587 -0.0666,-0.0666 0.01809,-1.06173 0.188188,-2.2114 0.219503,-1.48356 0.451152,-2.19066 0.79806,-2.43604 1.030557,-0.72894 0.295417,-2.69697 -1.00743,-2.69697 -0.732814,0 -1.678784,0.86135 -1.678784,1.52862 0,0.25867 0.169811,0.71274 0.377358,1.00905 0.306317,0.43733 0.328452,0.93269 0.117578,2.63123 -0.14288,1.15086 -0.290999,2.12369 -0.329153,2.16184 -0.03815,0.0381 -0.731025,-0.52035 -1.539713,-1.24112 -1.050823,-0.93659 -1.470341,-1.50136 -1.470341,-1.97945 0,-0.91098 -0.518047,-1.46434 -1.37089,-1.46434 -1.068716,0 -1.693867,0.58589 -1.693867,1.5875 0,0.98748 0.617445,1.58183 1.660118,1.598 0.737836,0.0115 3.333279,2.19038 3.085886,2.59067 -0.0787,0.12733 -1.045786,0.38593 -2.14909,0.57465 -1.511782,0.2586 -2.080971,0.26818 -2.31028,0.0389 -0.514734,-0.51474 -1.718928,-0.35711 -2.167812,0.28376 -0.554348,0.79145 -0.518402,1.42211 0.117289,2.0578 0.704404,0.7044 1.70199,0.67004 2.295901,-0.0791 0.343723,-0.43355 1.05087,-0.73247 2.462105,-1.04077 1.088934,-0.23789 2.028068,-0.38434 2.086964,-0.32545 0.279265,0.27927 -1.478557,3.10476 -2.077085,3.33868 -0.812347,0.31747 -1.054465,0.68245 -1.059667,1.59735 -0.0041,0.71445 0.810196,1.53636 1.522055,1.53636 0.192517,0 0.640696,-0.29066 0.995954,-0.64592 0.503759,-0.50376 0.611079,-0.82015 0.487604,-1.43753 -0.120362,-0.60181 0.05164,-1.15857 0.717424,-2.32224 l 0.875743,-1.53063 0.638658,1.40745 c 0.664885,1.46525 0.79313,2.2561 0.479894,2.95935 -0.231676,0.52014 0.758899,1.83411 1.382699,1.83411 0.2481,0 0.715709,-0.18535 1.03913,-0.41188 z m 66.848625,-0.95119 c 1.18939,-0.54192 1.23649,-2.26674 0.0763,-2.79533 -0.68566,-0.31241 -2.44151,-3.9298 -2.03071,-4.18368 0.51602,-0.31892 4.05151,0.97972 4.77461,1.7538 0.85134,0.91137 1.25698,0.95197 2.1887,0.21907 0.83779,-0.659 0.90638,-1.62364 0.16797,-2.36204 -0.59678,-0.59679 -1.10996,-0.66176 -1.89756,-0.24025 -0.53772,0.28778 -0.94203,0.22818 -4.05556,-0.59783 l -1.05833,-0.28077 1.5875,-1.42447 c 1.10548,-0.99196 1.80842,-1.42462 2.3151,-1.42496 0.83806,-5.5e-4 1.78594,-0.8278 1.78594,-1.55866 0,-0.27492 -0.21556,-0.76606 -0.47901,-1.09141 -0.91486,-1.1298 -2.77568,-0.53407 -2.83885,0.90883 -0.0313,0.71568 -3.00648,3.45976 -3.36375,3.10249 -0.36362,-0.36362 -0.56875,-4.43961 -0.23384,-4.64659 0.16547,-0.10227 0.30086,-0.58889 0.30086,-1.08137 0,-1.51964 -1.59763,-2.23821 -2.64583,-1.19001 -0.66653,0.66653 -0.6788,1.63465 -0.0282,2.22346 0.5123,0.46362 1.30649,4.52391 0.95385,4.87655 -0.28674,0.28674 -3.69716,-1.73624 -3.79727,-2.25244 -0.3802,-1.96061 -3.21383,-1.77156 -3.21383,0.21442 0,0.91098 0.9156,1.59203 2.02651,1.50738 0.50646,-0.0386 1.34464,0.28677 2.41711,0.93827 0.90299,0.54853 1.6418,1.03847 1.6418,1.08874 0,0.0503 -0.92273,0.3974 -2.05052,0.77138 -1.46576,0.48607 -2.33518,0.63302 -3.04869,0.51531 -1.19155,-0.19657 -2.04454,0.40755 -2.04454,1.44804 0,1.64192 1.69588,2.13988 2.89952,0.85139 0.61609,-0.65954 3.75174,-2.12834 4.54364,-2.12834 0.13003,0 -0.1833,0.83344 -0.69628,1.85209 -0.51299,1.01864 -1.09134,1.85208 -1.28524,1.85208 -0.1939,0 -0.55851,0.22759 -0.81026,0.50577 -0.65923,0.72845 -0.44866,1.90005 0.42972,2.39087 0.66046,0.36904 0.77237,0.35721 1.45521,-0.15381 0.61124,-0.45743 0.74068,-0.75522 0.7452,-1.71436 0.007,-1.45634 1.45523,-4.45432 1.88176,-3.89502 0.73767,0.96729 1.35729,3.11134 1.22875,4.25175 -0.11581,1.02749 -0.0503,1.24671 0.48444,1.62126 0.73602,0.51553 0.81134,0.52131 1.67371,0.12839 z"
       id="path1" /></g></svg>
