<?xml version="1.0" encoding="UTF-8" standalone="no"?>
<!-- Created with Inkscape (http://www.inkscape.org/) -->

<svg
   width="300.76074mm"
   height="297.6076mm"
   viewBox="0 0 300.76074 297.6076"
   version="1.1"
   id="svg1"
   xml:space="preserve"
   sodipodi:docname="stamp_goal_bear_7.svg"
   inkscape:version="1.4.4 (dcaf3e7, 2026-05-05)"
   xmlns:inkscape="http://www.inkscape.org/namespaces/inkscape"
   xmlns:sodipodi="http://sodipodi.sourceforge.net/DTD/sodipodi-0.dtd"
   xmlns="http://www.w3.org/2000/svg"
   xmlns:svg="http://www.w3.org/2000/svg"><sodipodi:namedview
     id="namedview1"
     pagecolor="#ffffff"
     bordercolor="#000000"
     borderopacity="0.25"
     inkscape:showpageshadow="2"
     inkscape:pageopacity="0.0"
     inkscape:pagecheckerboard="0"
     inkscape:deskcolor="#d1d1d1"
     inkscape:document-units="mm"
     inkscape:zoom="0.023114888"
     inkscape:cx="562.40809"
     inkscape:cy="540.77701"
     inkscape:window-width="944"
     inkscape:window-height="250"
     inkscape:window-x="0"
     inkscape:window-y="33"
     inkscape:window-maximized="0"
     inkscape:current-layer="layer1"><inkscape:page
       x="0"
       y="0"
       width="300.76074"
       height="297.6076"
       id="page2"
       margin="0"
       bleed="0" /></sodipodi:namedview><defs
     id="defs1" /><g
     inkscape:label="Layer 1"
     inkscape:groupmode="layer"
     id="layer1"
     transform="translate(36.167798,-18.561533)"><path
       style="fill:#000000"
       d="m 4.8947897,315.80698 c -1.7473898,-0.55263 -2.661634,-1.13614 -3.791884,-2.42018 -1.38356691,-1.57181 -1.82622837,-2.97082 -2.1608709,-6.8293 -0.6042159,-6.96671 -2.2685689,-11.98601 -5.6660749,-17.08755 -1.9773176,-2.96906 -5.6986969,-6.68426 -8.6217959,-8.6075 -3.505145,-2.3062 -8.746887,-4.20593 -12.535751,-4.54327 -3.498139,-0.31145 -6.146123,-1.80613 -7.365453,-4.1575 -0.500667,-0.96549 -0.595867,-1.7579 -0.799212,-6.6523 -0.128349,-3.0893 -0.159965,-49.65746 -0.07121,-104.88405 0.156892,-97.620959 0.16851,-99.353053 0.676091,-100.797212 0.639868,-1.820538 2.464459,-3.749534 4.289017,-4.534438 0.719253,-0.309414 2.337538,-0.670482 3.596187,-0.802373 9.464511,-0.991762 17.7956186,-6.78739 22.3459317,-15.545197 1.9356035,-3.72538 3.0104981,-7.052466 3.6286743,-11.231717 0.74498136,-5.036533 1.79476565,-6.892199 4.7085078,-8.323061 l 1.5032576,-0.73821 109.3992856,-0.06741 c 98.97467,-0.06099 109.51885,-0.02769 110.65411,0.349377 1.68904,0.561009 3.70266,2.415354 4.41111,4.062198 0.34182,0.794571 0.67617,2.398289 0.84283,4.042683 0.80046,7.897494 3.58995,13.890357 8.80875,18.924509 5.10714,4.926443 11.07494,7.78519 17.80001,8.52672 3.11516,0.343488 4.94841,1.131337 6.29607,2.70577 1.91726,2.239889 1.75218,-7.996713 1.74361,108.122901 -0.005,72.09322 -0.094,104.94725 -0.28527,105.70484 -0.40467,1.60277 -1.80357,3.36911 -3.32261,4.19534 -0.93088,0.50631 -2.15963,0.8393 -4.21232,1.14151 -13.38894,1.97125 -23.92574,12.06146 -26.68428,25.55331 -0.22599,1.10531 -0.52481,3.51459 -0.66403,5.35394 -0.22705,2.99958 -0.34095,3.50902 -1.10503,4.94259 -0.51733,0.97061 -1.27676,1.91077 -1.93372,2.3939 -2.31309,1.70107 6.88446,1.57351 -112.0606,1.55409 C 27.71265,316.14524 5.7406113,316.07448 4.8947897,315.80698 Z M 222.76036,310.95115 c 1.59221,-0.81188 1.92765,-1.56009 2.30993,-5.15233 1.21806,-11.44586 5.38673,-20.01913 12.69352,-26.1054 5.22881,-4.3554 11.49543,-7.19034 17.58093,-7.9534 2.47049,-0.30977 3.28841,-0.64981 4.05543,-1.68598 l 0.55296,-0.747 0.0671,-103.43879 c 0.0738,-113.619246 0.20193,-104.720559 -1.52339,-105.769785 -0.45464,-0.276487 -1.56314,-0.580584 -2.46331,-0.67577 -2.67811,-0.283187 -5.72565,-0.960567 -8.11898,-1.804618 -7.87227,-2.776287 -14.72548,-8.684022 -18.6014,-16.035133 -2.1526,-4.082631 -3.28618,-8.191555 -4.02902,-14.604065 -0.18394,-1.587907 -0.98394,-2.84601 -2.10848,-3.315871 C 222.38228,23.331499 207.92673,23.289725 114.2393,23.3482 10.821674,23.412749 6.1805583,23.435904 5.34611,23.891488 4.0966127,24.573677 3.5349112,25.680556 3.1910353,28.13824 0.76055872,45.508881 -10.823,57.531718 -27.016863,59.4917 c -2.205817,0.266975 -3.233787,0.782971 -3.820621,1.917783 -0.332832,0.643625 -0.383352,14.394397 -0.383352,104.342717 v 103.60141 l 0.859896,0.93386 c 0.804018,0.87317 1.031826,0.95904 3.505729,1.32136 7.819798,1.14528 14.186111,4.33825 19.7197923,9.89027 6.44475666,6.46612 9.9587995,14.41365 10.7861401,24.39447 0.2671665,3.22302 0.7461488,4.33471 2.1791105,5.05758 0.8685768,0.43817 6.6010831,0.46261 108.4701681,0.46261 101.87282,0 107.60104,-0.0244 108.46036,-0.46261 z"
       id="path66" /><path
       style="fill:#000000"
       d="m 10.027265,304.00625 c -0.3180992,-0.27964 -0.5448183,-1.17839 -0.7675572,-3.04271 -1.5007691,-12.56136 -9.15940529,-24.31979 -19.9418868,-30.6171 -3.555057,-2.07626 -10.414013,-4.43861 -12.890879,-4.43985 -0.377628,-1.8e-4 -0.883644,-0.21807 -1.124479,-0.48419 -0.405816,-0.44842 -0.437882,-7.75071 -0.437882,-99.71552 0,-87.525801 0.04644,-99.270214 0.393685,-99.558401 0.216527,-0.179702 1.367855,-0.495784 2.558506,-0.702405 C -13.766407,63.985449 -4.5105661,58.105196 1.0199411,50.70506 5.0926153,45.255587 7.2951168,40.329914 8.576921,33.804636 9.0865945,31.210042 9.2458921,30.781622 9.8067379,30.497127 10.758374,30.0144 218.23782,30.010529 218.89492,30.493227 c 0.2977,0.218685 0.57437,1.092623 0.81668,2.579687 1.35969,8.344614 5.36152,16.082977 11.31163,21.873409 5.35349,5.209818 13.18489,9.314806 20.03583,10.50219 1.22014,0.211471 2.31965,0.544175 2.44335,0.739343 0.1237,0.195168 0.22673,45.024554 0.22896,99.620854 0.003,85.45371 -0.0483,99.31833 -0.37208,99.64212 -0.20687,0.20687 -1.30819,0.52285 -2.44739,0.70218 -9.95179,1.56661 -20.51714,9.37541 -26.0879,19.28145 -2.83619,5.04337 -4.80751,11.11477 -5.36186,16.51379 -0.11177,1.08859 -0.34034,1.90937 -0.58926,2.11596 -0.32816,0.27234 -20.48248,0.33763 -104.40042,0.33821 -92.062533,6.3e-4 -104.045544,-0.0448 -104.445195,-0.39617 z m 5.371888,-3.43958 c -0.226262,-2.65325 -1.837201,-10.2701 -3.119983,-14.75193 -0.322833,-1.12793 0.253181,-1.38765 3.077487,-1.38765 h 2.591865 l 0.545228,-1.65365 c 0.299876,-0.90951 0.718994,-2.48989 0.931374,-3.51197 0.413703,-1.99095 0.856724,-7.2698 0.610109,-7.2698 -0.08181,0 -0.87815,0.18686 -1.769645,0.41525 -3.469935,0.88896 -6.096084,-0.72876 -6.093767,-3.75377 0.0013,-1.66735 0.673008,-2.76394 2.26435,-3.69653 l 1.240167,-0.72678 -1.422024,-0.35833 c -1.663161,-0.41909 -2.50976,-0.97855 -3.36382,-2.22292 -0.508416,-0.74077 -0.598819,-1.15161 -0.506489,-2.30175 0.137107,-1.70792 0.762968,-2.63229 2.321399,-3.42861 0.841454,-0.42996 1.625274,-0.59531 2.821987,-0.59531 1.567238,0 1.678787,-0.0423 2.060604,-0.78061 0.560235,-1.08338 0.515895,-1.24747 -0.385818,-1.42781 -1.281843,-0.25637 -2.658071,-1.70896 -2.829413,-2.98641 -0.226953,-1.69206 0.297703,-2.84144 1.935884,-4.24098 1.810403,-1.54668 2.226419,-2.34128 2.499183,-4.77352 0.376665,-3.35871 1.414235,-4.67666 3.681751,-4.67666 2.302329,0 3.376487,1.30936 3.625945,4.4199 0.192934,2.40572 0.755092,3.51594 2.56189,5.05954 2.04693,1.74875 2.561864,3.61035 1.486511,5.37407 -0.565774,0.92794 -1.961962,1.91322 -2.713409,1.91482 -0.605591,10e-4 -0.584747,0.40303 0.07642,1.47281 0.479963,0.7766 0.638142,0.85681 1.434747,0.72754 1.407711,-0.22844 3.489033,0.39427 4.497848,1.3457 2.153895,2.03139 1.076919,5.85509 -1.90772,6.77319 -0.545839,0.1679 -1.153363,0.35667 -1.350052,0.41949 -0.213253,0.0681 0.157729,0.46052 0.919,0.97209 1.841718,1.23763 2.557066,2.40275 2.414699,3.93293 -0.131839,1.41703 -0.950691,2.70645 -2.094307,3.29784 -0.94131,0.48677 -3.285409,0.53862 -4.608579,0.10193 -0.516373,-0.17042 -1.007095,-0.24162 -1.090492,-0.15822 -0.453605,0.45361 1.035309,9.03967 2.012692,11.60651 l 0.276134,0.7252 13.56736,0.0685 13.56736,0.0686 0.183459,1.66329 c 0.677873,6.1458 6.290128,9.5815 15.651482,9.5815 6.788408,0 12.141354,-1.66079 15.680975,-4.86514 l 1.617998,-1.46474 0.487061,1.0801 c 1.133763,2.51424 4.268883,4.60653 8.119721,5.41887 4.573375,0.96476 16.147005,0.87528 20.139575,-0.1557 3.26733,-0.84371 5.86337,-2.2238 7.77063,-4.13098 1.65972,-1.65966 3.06794,-4.08588 3.40179,-5.86101 0.088,-0.46775 0.30671,-0.97226 0.48608,-1.12113 0.2056,-0.17063 3.88356,-0.29635 9.95171,-0.34015 l 9.62557,-0.0695 1.25715,-6.35 c 0.69144,-3.4925 1.36262,-6.52859 1.49152,-6.74687 0.17337,-0.29357 0.90738,-0.43131 2.81996,-0.52917 l 2.58559,-0.13229 1.02321,-3.175 c 1.03834,-3.22197 3.18239,-10.35891 5.92162,-19.71146 2.25953,-7.71468 8.06927,-31.40476 8.06927,-32.90361 0,-0.34243 -0.27022,-0.43389 -1.28191,-0.43389 -0.91936,0 -1.40943,-0.14091 -1.73281,-0.49824 -0.54456,-0.60173 -2.96786,-15.49004 -2.69694,-16.56948 0.24995,-0.99585 1.09207,-1.18853 5.19468,-1.18853 3.60222,0 3.6848,-0.0129 3.81573,-0.59531 0.13451,-0.5983 1.75787,-10.96951 2.77026,-17.69845 0.73262,-4.86942 3.29593,-24.84801 3.96696,-30.91874 0.84045,-7.60339 2.13486,-20.37999 2.13486,-21.07228 0,-0.58573 -0.0963,-0.62355 -1.5875,-0.62355 -1.62101,0 -2.64583,-0.5465 -2.64583,-1.41094 0,-0.19393 -0.47591,-3.85511 -1.05758,-8.13594 -0.58167,-4.28083 -1.05792,-7.99169 -1.05833,-8.24635 -4.2e-4,-0.25467 0.23737,-0.70115 0.52841,-0.99219 0.45077,-0.45077 0.88195,-0.52917 2.91042,-0.52917 h 2.38125 v -2.66323 c 0,-1.46477 0.11583,-2.87966 0.25741,-3.1442 0.14158,-0.264545 0.70713,-0.572685 1.25677,-0.68476 l 0.99936,-0.203773 -1.00784,-0.299749 c -0.55431,-0.164862 -1.11804,-0.473973 -1.25272,-0.686913 -0.13468,-0.212941 -0.2467,-1.465737 -0.24893,-2.783991 -0.006,-3.285502 0.0961,-3.398966 3.14946,-3.516479 l 2.40274,-0.09247 v -1.674567 c 0,-1.990122 0.37652,-2.506115 1.82872,-2.506115 h 0.99718 l 0.17394,-6.151563 c 0.0957,-3.383359 0.17421,-7.893156 0.17455,-10.02177 4.9e-4,-3.116868 0.0779,-3.934321 0.39748,-4.199584 0.47676,-0.395676 0.51452,-1.099446 0.0822,-1.531787 -0.21925,-0.219244 -0.30024,-1.492195 -0.26702,-4.196586 0.0537,-4.366767 0.23406,-4.854961 1.79415,-4.854961 0.62023,0 1.02138,0.197747 1.4142,0.69714 0.49226,0.625813 0.54837,1.056743 0.54837,4.211892 0,2.843706 -0.0871,3.666521 -0.45623,4.309676 -0.42689,0.743829 -0.42774,0.826399 -0.0131,1.284604 0.39055,0.431547 0.46537,1.67466 0.63022,10.471309 l 0.18707,9.98163 h 0.99773 c 1.45816,0 1.82928,0.513771 1.82928,2.53244 v 1.700893 h 2.05779 c 3.08779,0 3.23388,0.160568 3.23388,3.554481 0,3.000707 -0.09,3.196127 -1.61272,3.503201 l -0.90083,0.181658 0.92605,0.24064 c 1.53354,0.398504 1.5875,0.523061 1.5875,3.664914 v 2.87802 h 2.35193 c 1.90384,0 2.46844,0.0943 2.96341,0.49514 l 0.61146,0.49513 -0.74845,5.78872 c -0.41165,3.1838 -0.90092,7.0945 -1.08726,8.69045 -0.40626,3.4794 -0.68494,3.84515 -2.92978,3.84515 -1.23693,0 -1.4259,0.0683 -1.4259,0.51552 0,0.53489 0.81049,8.49038 1.9826,19.46052 0.70741,6.62091 2.60223,21.79742 3.71629,29.76562 0.75947,5.43202 3.03836,20.35627 3.18158,20.83594 0.0731,0.24479 1.09332,0.33073 3.9263,0.33073 4.16956,0 5.09693,0.19474 5.31031,1.11512 0.0771,0.33257 -0.44347,4.16945 -1.15683,8.52641 -1.44643,8.83433 -1.35677,8.61472 -3.51707,8.61472 -0.69979,0 -1.27234,0.075 -1.27234,0.16673 0,0.0917 1.00137,4.22912 2.22527,9.19427 2.85779,11.59356 8.07744,31.00715 10.39458,38.66088 0.66084,2.18281 1.40665,4.70272 1.65737,5.59979 l 0.45585,1.63104 -1.88113,1.70373 c -3.82133,3.46097 -8.03447,9.07208 -10.47587,13.9519 -1.74315,3.48414 -3.52386,8.85289 -4.22162,12.72789 -0.29464,1.63629 -0.5357,3.13284 -0.5357,3.32567 0,0.25212 0.44589,0.3506 1.5875,0.3506 0.87312,0 1.5875,-0.0982 1.5875,-0.21831 0,-0.12007 0.24086,-1.55593 0.53524,-3.19081 3.06976,-17.04799 15.50983,-30.76888 31.08246,-34.28267 l 2.64584,-0.59701 0.0665,-97.53172 0.0665,-97.531721 -0.72796,-0.165709 c -0.40038,-0.09114 -1.65046,-0.39358 -2.77796,-0.672089 -9.61184,-2.374263 -18.61798,-8.716423 -24.2108,-17.049353 -2.59551,-3.86713 -5.18627,-10.01183 -6.02571,-14.29163 -0.226,-1.152262 -0.46791,-2.362912 -0.53756,-2.690334 l -0.12664,-0.595312 H 153.45328 89.958328 l -0.03454,1.389062 c -0.01899,0.763985 -0.02138,2.758282 -0.0053,4.431771 l 0.02923,3.042709 2.717281,0.132291 2.717281,0.132292 0.07716,1.889799 0.07716,1.889799 1.74613,1.020618 c 4.28794,2.506315 6.95389,7.512873 6.95389,13.059159 0,5.764478 -2.69421,10.850832 -7.282597,13.748659 L 95.25,74.62069 v 1.951971 c 0,1.535868 -0.08922,1.986207 -0.418515,2.112571 -0.836104,0.320844 -12.157594,0.178658 -12.493152,-0.1569 -0.186681,-0.186681 -0.317903,-1.086065 -0.318479,-2.182813 l -9.78e-4,-1.865313 -1.690505,-0.87409 c -3.79962,-1.964627 -6.695723,-6.318567 -7.507657,-11.286856 -0.372994,-2.282378 -0.373173,-2.763388 -0.0019,-5.035425 0.766205,-4.688462 3.346244,-8.575417 7.180499,-10.817774 l 1.734013,-1.014088 0.07759,-1.757759 0.07759,-1.757758 2.844271,-0.0751 2.844271,-0.0751 V 37.29729 32.808325 H 71.877799 56.17855 l -3.011831,3.213739 c -3.42308,3.652558 -8.027557,7.932358 -11.428734,10.622857 l -2.315105,1.831362 v 1.815169 1.815169 l 3.241146,0.07429 3.241146,0.07429 0.07686,2.183786 0.07686,2.183785 1.378346,0.694319 c 0.784088,0.39497 2.252522,1.578623 3.405942,2.74541 3.619402,3.661345 5.179898,8.065458 4.911368,13.861121 -0.162176,3.500237 -0.628836,5.347835 -2.11199,8.361788 -1.365055,2.77396 -4.494959,6.076139 -6.86758,7.245583 l -1.51144,0.744976 -0.07606,2.288575 -0.07606,2.288575 h -7.14375 -7.14375 l -0.07606,-2.288909 -0.07606,-2.288908 -1.511435,-0.729345 C 26.808432,88.411029 23.67281,85.09295 22.299062,82.28541 c -1.440231,-2.943414 -1.921479,-4.819034 -2.107609,-8.214212 -0.192978,-3.520087 0.347655,-6.402651 1.771759,-9.446726 0.56165,-1.200547 0.980825,-2.182812 0.931501,-2.182812 -0.04932,0 -1.61918,0.911794 -3.488567,2.026209 -4.22279,2.517371 -12.0356816,6.536364 -15.6358645,8.04317 l -2.7119792,1.135062 v 2.458906 2.458905 l 2.9765626,0.07481 2.9765625,0.07481 0.077748,1.918771 c 0.077685,1.917216 0.078542,1.919185 1.0583333,2.430555 2.6740323,1.395624 5.6184523,4.691215 6.7845833,7.593757 1.947034,4.846237 1.465448,10.915325 -1.217397,15.341995 -1.220086,2.01314 -3.611765,4.35213 -5.3488268,5.231 l -1.4654151,0.74143 -0.076805,2.02437 -0.076804,2.02437 -6.54843764,0.0708 -6.54843766,0.0708 -6.286e-4,-2.05515 -6.286e-4,-2.05514 -1.5207256,-0.78127 c -3.102028,-1.59366 -6.188818,-5.55836 -7.322591,-9.40519 -0.706977,-2.398729 -0.824327,-5.675633 -0.289764,-8.091429 1.077984,-4.871626 3.588996,-8.388545 7.5984448,-10.642366 l 1.2505938,-0.702993 0.076504,-1.857125 0.076504,-1.857125 2.778125,-0.132292 2.77812507,-0.132291 0.0698583,-4.497917 c 0.0588435,-3.788715 0.13761247,-4.548448 0.49957048,-4.818394 0.70296333,-0.524267 1.41494625,0.04108 1.41494625,1.123536 0,0.595795 0.1257644,0.916733 0.3592354,0.916733 0.1975794,0 3.1443763,-1.404526 6.5484376,-3.121168 6.1753363,-3.114176 9.7805743,-5.199967 17.8840683,-10.34673 l 4.286534,-2.722502 0.07909,-1.363654 0.07909,-1.363655 3.505729,-0.07382 3.50573,-0.07383 v -1.081512 c 0,-0.998521 -0.04568,-1.067698 -0.595313,-0.901486 -1.205751,0.364628 -2.844271,0.481604 -2.844271,0.203057 0,-0.15214 0.773907,-0.956071 1.719792,-1.786512 l 1.719792,-1.509893 v -2.079315 c 0,-2.013053 0.0217,-2.08476 0.68083,-2.250192 0.895778,-0.224826 1.188735,0.114374 1.309476,1.516175 0.05486,0.636989 0.105741,1.196424 0.113058,1.243187 0.04522,0.289029 5.505315,-4.692842 8.931337,-8.149082 3.276569,-3.30547 3.968953,-4.129149 3.590005,-4.270775 -0.651139,-0.243352 -40.237142,-0.266723 -40.387249,-0.02384 -0.0668,0.108091 -0.417357,1.510059 -0.779006,3.115484 -1.8001879,7.991358 -5.7448732,15.053573 -11.66548951,20.884859 -3.20054619,3.152256 -6.29636369,5.396325 -10.15278149,7.359459 -3.856691,1.963272 -6.330839,2.804179 -11.105286,3.774436 l -0.595312,0.120979 v 97.602313 97.6023 l 1.918229,0.31949 c 2.643593,0.44031 6.813365,1.83794 9.478926,3.17716 12.5962573,6.32856 21.0688995,18.5688 23.123536,33.40607 l 0.175653,1.26845 1.767974,-0.0778 1.767974,-0.0778 z m 9.116864,-16.7349 c -0.348831,-1.40696 -1.232685,-6.7046 -1.232685,-7.38846 0,-0.41111 -0.119063,-0.74747 -0.264584,-0.74747 -0.14552,0 -0.264606,0.0893 -0.264635,0.19843 -1.32e-4,0.50503 -1.074007,6.64249 -1.292755,7.38842 -0.135482,0.46199 -0.177837,0.90847 -0.09412,0.99219 0.08371,0.0837 0.859646,0.15221 1.724294,0.15221 1.497654,0 1.565097,-0.0282 1.424488,-0.59532 z m 151.353103,-13.32882 1.58632,-0.16581 -1.28806,-3.33992 c -2.69291,-6.98271 -3.75646,-9.69388 -3.84833,-9.81002 -0.0523,-0.0661 -2.57945,2.36226 -5.61601,5.39623 -3.55701,3.55399 -5.57051,5.76148 -5.66016,6.20551 -0.0765,0.37905 -0.21577,0.88713 -0.3094,1.12907 -0.11421,0.29509 -0.0114,0.48093 0.3122,0.56462 0.73956,0.19122 13.02721,0.20806 14.82344,0.0203 z m 16.42249,-5.21595 c 0.0437,-3.19633 -0.0255,-5.21423 -0.17692,-5.15938 -0.36783,0.13322 -10.61052,10.02824 -10.61052,10.25037 0,0.10439 2.41101,0.18275 5.35781,0.17413 l 5.35781,-0.0157 z m 14.54619,5.05373 c -0.0363,-0.10765 -2.56624,-2.52211 -5.62217,-5.36546 l -5.55625,-5.16974 -0.1323,4.04255 c -0.0728,2.2234 -0.0879,4.66568 -0.0337,5.42728 l 0.0986,1.38473 5.65591,-0.0618 c 3.11076,-0.034 5.62625,-0.14989 5.59,-0.25754 z m 20.35708,0.0687 c 0.0275,-0.003 -0.13998,-0.5631 -0.37228,-1.24487 -0.34509,-1.01277 -1.36453,-2.21093 -5.5717,-6.54844 -2.83213,-2.91987 -5.22982,-5.34042 -5.32821,-5.37899 -0.19026,-0.0746 -0.43188,0.54822 -3.10074,7.99243 -0.93608,2.61101 -1.64714,4.89017 -1.58013,5.0648 0.0922,0.24023 2.04257,0.29352 8.01241,0.21894 4.33981,-0.0542 7.9131,-0.10096 7.94065,-0.10387 z m -43.19617,-6.54276 c 5.18006,-4.94694 7.03368,-6.77667 6.94996,-6.86039 -0.0494,-0.0494 -1.81384,-0.16807 -3.9211,-0.26382 l -3.83137,-0.17409 -0.78865,4.66893 c -0.43376,2.56791 -0.73372,4.66892 -0.66658,4.66892 0.0671,0 1.08313,-0.9178 2.25774,-2.03955 z m 21.81448,-2.32607 c -0.41956,-2.32834 -0.82499,-4.39975 -0.90095,-4.60315 -0.11393,-0.30504 -0.79594,-0.33724 -3.89424,-0.18389 -2.06586,0.10226 -3.79171,0.22151 -3.8352,0.26501 -0.0435,0.0435 0.96515,1.09041 2.24145,2.32649 3.11679,3.01855 7.01184,6.59056 7.08917,6.50121 0.0344,-0.0398 -0.28067,-1.97734 -0.70023,-4.30567 z m -26.42405,-1.40683 c 0.33289,-1.92414 0.55611,-3.54758 0.49605,-3.60764 -0.22007,-0.22007 -4.86182,-0.19712 -4.81608,0.0238 0.0728,0.35152 3.02282,7.86357 3.20186,8.15327 0.21219,0.34332 0.40348,-0.4384 1.11817,-4.56943 z m 32.18358,0.56267 c 0.85204,-2.2833 1.59437,-4.2644 1.64962,-4.40244 0.0918,-0.22924 -4.71612,-0.008 -4.95731,0.22765 -0.15722,0.15391 1.39858,8.32624 1.58511,8.32624 0.0954,0 0.87054,-1.86815 1.72258,-4.15145 z m -44.3966,-2.87287 c 3.2378,-3.28236 3.77283,-3.94014 3.6389,-4.47376 -0.36014,-1.43493 -2.99512,-7.88539 -3.12999,-7.66225 -0.0807,0.13344 -0.69261,2.14762 -1.35991,4.47595 -1.45246,5.06791 -2.91866,10.09268 -3.18466,10.91407 -0.10603,0.32742 -0.0955,0.59505 0.0235,0.59473 0.11895,-3.1e-4 1.92443,-1.73224 4.01218,-3.84874 z m 56.04339,-1.59378 c -0.77325,-2.75437 -1.75421,-6.28737 -2.1799,-7.85111 -0.42569,-1.56375 -0.83805,-2.84367 -0.91634,-2.84427 -0.0783,-6.1e-4 -0.8305,1.86457 -1.67154,4.14485 l -1.52918,4.14595 3.77548,3.78223 c 2.07651,2.08022 3.80966,3.74804 3.85144,3.70626 0.0418,-0.0418 -0.55671,-2.32953 -1.32996,-5.08391 z m -200.117222,2.75766 c 0.746134,-0.39274 0.965753,-0.73822 0.970742,-1.52706 0.0088,-1.39004 -1.647334,-2.11142 -2.687094,-1.17045 -0.488582,0.44216 -0.63967,1.56889 -0.281365,2.09827 0.168903,0.24955 1.098581,0.87249 1.336259,0.89538 0.04595,0.004 0.343603,-0.12884 0.661458,-0.29614 z m 168.720632,-5.12812 c 0,-0.1338 -3.94807,-4.91593 -5.86934,-7.10929 l -0.90417,-1.03222 -0.60264,3.54576 c -0.33145,1.95017 -0.62312,3.72436 -0.64814,3.94264 -0.0359,0.31276 0.40311,0.42865 2.07116,0.54679 3.06734,0.21726 5.95313,0.2688 5.95313,0.10632 z m 12.40056,-0.2743 c 0.12693,-0.11544 -0.99656,-6.70621 -1.2562,-7.36933 -0.16588,-0.42363 -0.72461,0.1401 -3.35658,3.38663 -1.73666,2.14217 -3.20162,4.02108 -3.25547,4.17534 -0.068,0.19497 1.10162,0.22187 3.83646,0.0882 2.1639,-0.10574 3.9782,-0.23213 4.03179,-0.28087 z m -23.16483,-2.9585 c 0.24793,-1.56435 0.44961,-2.9613 0.44816,-3.10434 -0.001,-0.14304 -1.31233,1.04556 -2.91306,2.64132 -1.60073,1.59577 -2.91042,2.99272 -2.91042,3.10435 0,0.11162 1.10802,0.20294 2.46226,0.20294 h 2.46226 z m 28.58375,-0.19843 c -2.63273,-2.805 -3.52172,-3.55903 -3.19737,-2.71198 0.0696,0.1819 0.34808,1.55112 0.61874,3.04271 l 0.49211,2.71197 h 2.47118 2.47118 z m -32.37157,-2.64584 3.82962,-3.83646 h -5.50451 -5.50451 l 0.18597,0.59532 c 0.42899,1.37319 2.84511,7.0776 2.99774,7.0776 0.0914,0 1.88941,-1.7264 3.99569,-3.83646 z m 39.14149,0.0222 c 0.73687,-1.87959 1.33977,-3.5167 1.33977,-3.63802 0,-0.27398 -10.5795,-0.2961 -10.59343,-0.0221 -0.0177,0.34817 7.5431,7.44449 7.73231,7.25728 0.0999,-0.0988 0.78448,-1.71752 1.52135,-3.59711 z m -24.00655,-1.88775 c -0.0908,-5.05925 0.33784,-4.67221 -3.4285,-3.09565 l -2.18418,0.91429 1.77212,2.15577 c 2.7958,3.40107 3.64479,4.38671 3.78687,4.39641 0.0728,0.005 0.0969,-1.9619 0.0537,-4.37082 z m 5.89548,1.21012 c 1.38682,-1.6702 2.48615,-3.14275 2.44295,-3.27233 -0.10708,-0.32125 -4.9933,-2.33732 -5.18943,-2.14119 -0.22784,0.22784 -0.19591,8.59348 0.0325,8.51576 0.10586,-0.036 1.32715,-1.43204 2.71397,-3.10224 z m -15.73875,-5.96737 c 0,-0.0773 0.3062,-2.04599 0.68043,-4.37485 0.37424,-2.32886 0.64213,-4.33559 0.59532,-4.45941 -0.0834,-0.22051 -10.69204,7.43381 -11.71944,8.45577 -0.51852,0.51577 -0.48714,0.51905 4.96094,0.51905 3.01551,0 5.48275,-0.0633 5.48275,-0.14056 z m 33.14993,-0.53451 c -0.99718,-0.78596 -7.09475,-5.26007 -9.68034,-7.10297 -0.98896,-0.70489 -1.84136,-1.2375 -1.8942,-1.18356 -0.088,0.0898 0.99596,6.98102 1.31593,8.36629 0.13719,0.59391 0.1504,0.5953 5.62258,0.59238 l 5.48506,-0.003 z m -26.67458,-0.89722 c 1.45139,-0.59736 2.72726,-1.17448 2.83527,-1.28249 0.10801,-0.10801 -0.88354,-1.42231 -2.20344,-2.92066 -1.31991,-1.49835 -2.4541,-2.66999 -2.52044,-2.60366 -0.0663,0.0663 -0.35273,1.59183 -0.63642,3.38997 -0.28369,1.79813 -0.58758,3.61464 -0.67531,4.03667 -0.12158,0.58491 -0.0738,0.73154 0.20097,0.6168 0.19827,-0.0828 1.54798,-0.63927 2.99937,-1.23663 z m 13.10382,1.06035 c 0,-0.65177 -1.14464,-7.33634 -1.30842,-7.64108 -0.12714,-0.23654 -0.92113,0.50684 -2.48197,2.32376 -1.26227,1.46937 -2.29503,2.76932 -2.29503,2.88879 0,0.19766 5.42238,2.65721 5.88698,2.6703 0.10914,0.003 0.19844,-0.10572 0.19844,-0.24177 z m -27.12463,-5.19071 c 2.6939,-1.98312 4.96493,-3.71396 5.04672,-3.8463 0.087,-0.14082 -1.70456,-0.24063 -4.31937,-0.24063 h -4.46809 l -0.29499,1.25677 c -0.16224,0.69122 -0.58755,2.48535 -0.94512,3.98694 -0.50441,2.11826 -0.56798,2.69865 -0.28364,2.58954 0.20156,-0.0773 2.57058,-1.76319 5.26449,-3.74632 z m 43.43991,3.38755 c -0.0685,-0.25466 -0.50708,-2.0406 -0.97462,-3.96875 l -0.85007,-3.50573 h -4.64356 c -2.55396,0 -4.59085,0.0527 -4.52643,0.11712 0.40837,0.40837 10.72797,7.79929 10.90296,7.80872 0.11894,0.006 0.16022,-0.1967 0.0917,-0.45136 z m -25.97257,-8.40052 c 0,-2.62905 -0.0975,-4.10105 -0.27168,-4.10105 -0.14943,0 -1.0922,0.82686 -2.09506,1.83746 -2.07446,2.09048 -2.12499,1.59789 0.46974,4.57869 0.85504,0.98227 1.63165,1.78594 1.72581,1.78594 0.0942,0 0.17119,-1.84547 0.17119,-4.10104 z m 5.133,1.84709 c 1.05558,-1.23967 1.88029,-2.34099 1.8327,-2.44739 -0.1403,-0.31364 -3.81657,-3.76533 -4.01032,-3.76533 -0.0975,0 -0.17726,1.905 -0.17726,4.23333 0,2.32834 0.098,4.23334 0.21783,4.23334 0.1198,0 1.08147,-1.01428 2.13705,-2.25395 z m -14.26169,-3.87066 c 7.5e-4,-0.22863 -3.70788,-5.25248 -3.87741,-5.25248 -0.22249,0 -5.64703,5.11446 -5.64703,5.32423 0,0.10788 2.14287,0.17445 4.76194,0.14794 2.61907,-0.0265 4.76219,-0.12537 4.7625,-0.21969 z m 30.66333,0.0657 c -0.0159,-0.0873 -1.27812,-1.33404 -2.80494,-2.77047 -2.6855,-2.5265 -2.7911,-2.59553 -3.23816,-2.11666 -0.72157,0.77291 -3.45015,4.77547 -3.3337,4.89022 0.17344,0.17091 9.40791,0.16787 9.3768,-0.003 z m -22.87046,-4.50358 0.78085,-0.8224 -1.43327,-1.4513 c -0.7883,-0.79822 -1.50738,-1.4513 -1.59796,-1.4513 -0.0906,0 -0.30915,1.22039 -0.48571,2.71198 -0.17656,1.49159 -0.3808,2.99631 -0.45387,3.34382 -0.12124,0.57663 -0.0218,0.53832 1.13813,-0.43827 0.69904,-0.58857 1.62236,-1.44021 2.05183,-1.89253 z m 8.78282,2.16198 c -0.0711,-0.25466 -0.27577,-1.49722 -0.4548,-2.76123 -0.17903,-1.26401 -0.42338,-2.45464 -0.54301,-2.64583 -0.1604,-0.25638 -0.58396,0.0218 -1.61355,1.05989 l -1.39606,1.40753 1.81609,1.70133 c 1.85658,1.73926 2.42012,2.05771 2.19133,1.23831 z m -22.82157,-3.99551 1.02959,-1.06436 -1.36299,-1.83859 c -1.71844,-2.31804 -2.05899,-2.61782 -2.24811,-1.97902 -0.158,0.5337 -1.60801,6.84938 -1.89938,8.273 l -0.18766,0.91688 1.81947,-1.62177 c 1.00072,-0.89198 2.2828,-2.10074 2.84908,-2.68614 z m 38.16568,3.73092 c -0.072,-0.25466 -0.57364,-2.30849 -1.11463,-4.56406 -0.54099,-2.25557 -1.06329,-4.19206 -1.16066,-4.30332 -0.0974,-0.11125 -0.86912,0.76438 -1.715,1.94585 l -1.53796,2.14811 2.6084,2.61822 c 2.60354,2.61335 3.16719,3.02939 2.91985,2.1552 z M 185.33562,222.25 c 0.24513,-1.96453 0.51343,-3.91524 0.59623,-4.33491 0.21039,-1.06632 -0.0862,-0.88954 -2.57086,1.53241 l -2.14648,2.09229 0.69296,0.95042 c 0.38113,0.52273 1.13091,1.5647 1.66619,2.3155 0.53527,0.75079 1.05041,1.28658 1.14475,1.19062 0.0943,-0.0959 0.37209,-1.7818 0.61721,-3.74633 z m 19.66861,1.64813 1.67194,-2.30959 -2.3058,-2.18836 c -1.26819,-1.2036 -2.35837,-2.13579 -2.42263,-2.07153 -0.15624,0.15624 1.06877,8.89164 1.24594,8.88458 0.0762,-0.003 0.89099,-1.04483 1.81055,-2.3151 z m -12.65215,-6.41063 v -2.91042 h -1.31092 c -1.27414,0 -1.31483,0.0241 -1.44974,0.8599 -0.31964,1.9801 -0.31429,1.99617 1.16413,3.4949 0.79539,0.80632 1.48,1.46604 1.52135,1.46604 0.0413,0 0.0752,-1.30969 0.0752,-2.91042 z m 4.68804,1.53039 c 1.44527,-1.42731 1.5865,-1.84159 1.23202,-3.61398 -0.1606,-0.80298 -0.20638,-0.82683 -1.5875,-0.82683 h -1.42214 v 2.91042 c 0,1.60073 0.0856,2.91042 0.19012,2.91042 0.10456,0 0.81894,-0.62101 1.5875,-1.38003 z M 182.44,217.2271 c 1.33316,-1.30738 2.36252,-2.43847 2.28745,-2.51354 -0.17825,-0.17825 -8.51495,-0.17843 -8.51495,-1.8e-4 0,0.19412 3.53626,4.89079 3.68242,4.89079 0.0666,0 1.21192,-1.06968 2.54508,-2.37707 z m 27.34683,0.0605 c 0.88839,-1.20136 1.61526,-2.30269 1.61526,-2.4474 0,-0.3083 -8.19956,-0.3729 -8.20665,-0.0647 -0.006,0.26923 4.59053,4.8095 4.80545,4.74644 0.0939,-0.0276 0.89755,-1.03302 1.78594,-2.23438 z m 7.33128,-12.36779 c 0.3117,-2.18281 0.52812,-4.01256 0.48094,-4.06611 -0.0744,-0.0844 -40.33715,-0.14037 -45.55374,-0.0633 -2.27723,0.0337 -2.16162,-0.36727 -1.35428,4.69633 l 0.56395,3.53705 22.64821,-0.0676 22.64821,-0.0676 z m -25.29519,-9.14688 c 0,-0.30502 -5.23062,-8.90813 -5.52769,-9.09174 -0.17222,-0.10643 -6.93407,8.52803 -7.12347,9.09623 -0.0634,0.19024 1.93168,0.27883 6.27911,0.27883 4.3526,0 6.37205,-0.0898 6.37205,-0.28332 z m 16.88923,0.0348 c -0.1449,-0.40827 -7.15525,-9.27654 -7.33283,-9.27622 -0.09,1.6e-4 -0.79009,1.10149 -1.55569,2.44739 -0.7656,1.34591 -1.92046,3.34007 -2.56636,4.43148 -0.64589,1.0914 -1.18035,2.1332 -1.18768,2.3151 -0.0103,0.2558 1.43035,0.33073 6.35871,0.33073 3.859,0 6.33727,-0.098 6.28385,-0.24848 z m -10.80034,-8.22393 1.92282,-3.17156 -2.08763,-2.76691 c -1.14819,-1.5218 -2.17692,-2.77144 -2.28606,-2.77698 -0.10914,-0.006 -0.19465,2.87721 -0.19002,6.40609 0.007,5.42269 0.0634,6.34374 0.36325,5.94854 0.19516,-0.25719 1.2201,-1.89481 2.27764,-3.63918 z m -16.01077,0.64736 c 1.30969,-1.67465 2.53697,-3.26652 2.7273,-3.53748 0.30461,-0.43366 0.13607,-0.83632 -1.40743,-3.36246 -1.92055,-3.14323 -2.24551,-3.57555 -2.24665,-2.98886 -7.4e-4,0.37907 -1.43437,10.42775 -1.72507,12.09145 -0.0826,0.47295 -0.0556,0.85591 0.0602,0.85104 0.11573,-0.005 1.28199,-1.37903 2.59167,-3.05369 z m 10.45104,-3.15516 c 0,-3.41974 -0.0893,-6.213 -0.19843,-6.20725 -0.10914,0.006 -1.13225,1.25471 -2.27358,2.77547 l -2.07514,2.76503 2.17427,3.44223 c 1.19585,1.89323 2.21896,3.44223 2.27358,3.44223 0.0546,0 0.0993,-2.79797 0.0993,-6.21771 z m 16.01408,5.35781 c -0.0746,-0.32742 -0.49819,-2.97656 -0.94136,-5.88697 -0.44318,-2.91042 -0.89958,-5.52328 -1.01424,-5.80636 -0.17243,-0.42573 -0.46137,-0.0828 -1.67185,1.98438 -0.80487,1.37448 -1.58993,2.74143 -1.74459,3.03765 -0.24422,0.46777 0.0727,0.98087 2.40974,3.90189 1.48001,1.84982 2.7825,3.36362 2.89441,3.36401 0.11191,4e-4 0.14247,-0.26717 0.0679,-0.5946 z m -19.31441,-11.335 c 1.25514,-1.61396 2.23026,-2.98629 2.16693,-3.04961 -0.0633,-0.0633 -1.97826,-0.0823 -4.25542,-0.0421 l -4.14029,0.073 1.788,2.97185 c 0.98339,1.63451 1.8714,2.97397 1.97335,2.97656 0.10194,0.003 1.21229,-1.3158 2.46743,-2.92977 z m 13.99012,-0.0113 c 0.96972,-1.62018 1.71639,-2.9925 1.65928,-3.04962 -0.0571,-0.0571 -1.97176,-0.071 -4.25475,-0.0308 l -4.15091,0.073 2.29319,2.97656 c 1.26125,1.63711 2.38249,2.97656 2.49163,2.97656 0.10914,0 0.99185,-1.32559 1.96156,-2.94576 z m -11.79222,-5.45476 c -0.24699,-0.55574 -3.55071,-5.34617 -3.69069,-5.35155 -0.17336,-0.007 -4.46729,5.20476 -4.46729,5.42183 0,0.0705 1.85539,0.12816 4.12309,0.12816 2.2677,0 4.0834,-0.0893 4.03489,-0.19844 z m 13.27327,0.0826 c 0,-0.16725 -4.27257,-5.29745 -4.46708,-5.36375 -0.14715,-0.0502 -3.47899,4.68573 -3.69091,5.24628 -0.0486,0.12844 1.76473,0.23328 4.0349,0.23328 2.2677,0 4.12309,-0.0521 4.12309,-0.11581 z m -19.65255,-5.51394 1.46837,-1.79329 -1.4251,-2.10064 c -0.7838,-1.15535 -1.49542,-2.10454 -1.58138,-2.10931 -0.0859,-0.005 -0.36045,1.5689 -0.60999,3.49705 -0.24954,1.92815 -0.52022,3.98198 -0.60149,4.56406 l -0.14777,1.05834 0.71449,-0.66146 c 0.39298,-0.3638 1.37527,-1.46844 2.18287,-2.45475 z m 20.61684,2.5209 c -0.0713,-0.25467 -0.33671,-2.22271 -0.58971,-4.37344 -0.2655,-2.25695 -0.5703,-3.87365 -0.72086,-3.82347 -0.14346,0.0478 -0.85285,0.93265 -1.5764,1.96628 l -1.31556,1.87932 1.94985,2.40117 c 1.91241,2.35506 2.51135,2.87356 2.25268,1.95014 z m -13.13513,-3.92466 c 0,-2.38394 -0.10221,-4.08589 -0.24231,-4.03489 -0.37575,0.13676 -2.93374,3.42573 -2.92428,3.75994 0.009,0.31677 2.83179,4.39804 3.04192,4.39804 0.0686,0 0.12467,-1.85539 0.12467,-4.12309 z m 4.72988,1.95224 c 1.26056,-1.91303 1.38467,-2.22125 1.08968,-2.70602 -0.57252,-0.94083 -2.50262,-3.29957 -2.7107,-3.31269 -0.10914,-0.007 -0.19844,1.83295 -0.19844,4.08852 0,2.25557 0.0893,4.09836 0.19844,4.09508 0.10914,-0.003 0.8386,-0.97748 1.62102,-2.16489 z m -7.44185,-6.27766 c 0.9095,-1.13724 1.65364,-2.14234 1.65364,-2.23356 0,-0.21462 -6.20991,-0.21774 -6.42442,-0.003 -0.24552,0.24552 2.56181,4.35582 2.95048,4.3199 0.0917,-0.008 0.91079,-0.94587 1.8203,-2.08311 z m 11.82188,0.008 c 0.81038,-1.14995 1.47343,-2.16198 1.47343,-2.24896 0,-0.23254 -6.29745,-0.19314 -6.43968,0.0403 -0.10474,0.1719 3.1624,4.29948 3.4032,4.29948 0.0493,0 0.75266,-0.94086 1.56305,-2.0908 z m -9.90366,-4.39405 c 0,-0.12349 -2.72627,-3.93395 -3.18827,-4.45618 -0.18566,-0.20986 -3.68324,3.95536 -3.6885,4.3926 -10e-4,0.10914 1.54542,0.19843 3.43719,0.19843 1.89177,0 3.43958,-0.0607 3.43958,-0.13485 z m 11.37709,-0.031 c 0,-0.30847 -3.30519,-4.30117 -3.57188,-4.31487 -0.14552,-0.007 -0.55769,0.43208 -0.91594,0.97679 -0.35825,0.54471 -0.98333,1.42423 -1.38906,1.9545 -0.40574,0.53026 -0.73771,1.09581 -0.73771,1.25677 0,0.19821 1.06734,0.29265 3.3073,0.29265 1.81901,0 3.30729,-0.0746 3.30729,-0.16584 z m -10.58334,-6.05187 c 0,-1.96453 -0.0893,-3.56644 -0.19843,-3.55979 -0.10914,0.007 -0.76945,0.77052 -1.46736,1.69752 l -1.26892,1.68544 1.36758,1.87436 c 0.75216,1.03089 1.41247,1.87435 1.46735,1.87435 0.0549,0 0.0998,-1.60734 0.0998,-3.57188 z m 4.71165,1.37271 1.13978,-1.52381 -1.36099,-1.71039 c -0.74855,-0.94071 -1.41028,-1.71038 -1.47051,-1.71038 -0.0602,0 -0.10572,1.63711 -0.10109,3.63802 0.007,2.9054 0.0733,3.5567 0.33073,3.23419 0.17727,-0.2221 0.83521,-1.08954 1.46208,-1.92763 z m -11.34152,0.15759 1.36906,-1.6447 -1.12254,-1.59176 c -0.6174,-0.87547 -1.14912,-1.5641 -1.18161,-1.5303 -0.0325,0.0338 -0.19238,1.25209 -0.35532,2.7073 -0.16295,1.45521 -0.35773,2.92537 -0.43286,3.26704 -0.19969,0.90813 0.18867,0.63599 1.72327,-1.20758 z m 17.45951,-1.62986 c -0.1759,-1.75644 -0.40552,-3.14056 -0.51027,-3.07582 -0.10475,0.0647 -0.63935,0.76949 -1.18801,1.56612 l -0.99756,1.44841 1.38929,1.74595 c 0.76411,0.96026 1.44263,1.69259 1.50782,1.6274 0.0652,-0.0652 -0.0254,-1.55562 -0.20127,-3.31206 z m -13.94621,-3.77174 c -0.92228,-0.21412 -2.43968,-0.2712 -2.43968,-0.0918 0,0.0759 0.32285,0.62582 0.71745,1.22209 l 0.71744,1.08413 0.86233,-1.02366 0.86234,-1.02365 z m 10.85564,1.1114 c 0.40018,-0.56584 0.7276,-1.09908 0.7276,-1.18497 0,-0.0859 -0.71437,-0.15617 -1.5875,-0.15617 -0.87312,0 -1.5875,0.0703 -1.5875,0.15617 0,0.22213 1.42821,2.21378 1.5875,2.21378 0.0728,0 0.45972,-0.46296 0.8599,-1.02881 z m -8.58887,-3.26585 0.56536,-0.60179 -1.24684,-1.9073 c -0.68576,-1.04901 -1.3659,-1.9027 -1.51142,-1.89708 -0.14552,0.006 -1.07426,0.96645 -2.06385,2.13519 -2.26923,2.68 -2.18492,2.87278 1.25637,2.87278 2.19089,0 2.49171,-0.0603 3.00038,-0.6018 z m 10.22087,0.4412 c 0.23019,-0.0883 0.41852,-0.27546 0.41852,-0.41583 0,-0.42577 -3.79066,-4.73685 -3.97446,-4.52013 -0.0941,0.11097 -0.73321,1.02054 -1.42022,2.02126 l -1.2491,1.81949 0.58989,0.6279 c 0.53357,0.56797 0.81071,0.62791 2.90337,0.62791 1.27242,0 2.50182,-0.0723 2.732,-0.1606 z m -14.70893,-5.04906 1.32055,-1.50548 -1.09336,-1.60337 c -0.63449,-0.93046 -1.12548,-1.43681 -1.1699,-1.20649 -0.32293,1.67439 -0.7319,5.82083 -0.57412,5.82083 0.10795,0 0.79052,-0.67747 1.51683,-1.50549 z m 14.82706,-1.67519 -0.32336,-2.98132 -0.60276,0.75593 c -0.33152,0.41577 -0.80869,1.13832 -1.06037,1.60567 l -0.45762,0.84974 1.27131,1.48808 c 0.69922,0.81844 1.32189,1.43749 1.38373,1.37565 0.0618,-0.0618 -0.0331,-1.45402 -0.21093,-3.09375 z m -9.4892,-0.52349 V 136.525 H 190.5 c -1.01864,0 -1.85208,0.0723 -1.85208,0.1606 0,0.21646 3.43357,5.13107 3.5848,5.13107 0.0657,0 0.11936,-1.19063 0.11936,-2.64584 z m 5.56736,-0.7276 1.33982,-1.91823 h -1.99838 -1.99838 l 0.01,2.71198 0.01,2.71198 0.64905,-0.79375 c 0.35697,-0.43656 1.25196,-1.65696 1.98886,-2.71198 z m -5.6228,-6.35 c 0.0423,-1.20055 -0.0173,-2.17384 -0.13229,-2.16286 -0.2155,0.0205 -3.57629,3.85719 -3.74096,4.27063 -0.0507,0.12736 0.78271,0.19635 1.85209,0.1533 l 1.94431,-0.0783 z m 6.89051,2.05229 c -0.13051,-0.38892 -3.49476,-4.19656 -3.72621,-4.21731 -0.24527,-0.022 -0.26619,4.0596 -0.0221,4.30373 0.28876,0.28876 3.84664,0.20673 3.74826,-0.0864 z m -9.23214,-4.59179 c 2.1275,-2.28435 2.41675,-2.70847 2.34576,-3.43958 l -0.081,-0.83394 -2.43988,-0.076 c -2.35688,-0.0734 -2.44418,-0.0554 -2.56575,0.52917 -0.14609,0.70243 -0.68471,6.17642 -0.68363,6.94779 8.5e-4,0.61074 -0.38657,0.96455 3.42448,-3.12746 z m 11.03241,2.27492 c -0.0783,-0.54571 -0.21155,-1.82563 -0.29604,-2.84428 -0.0845,-1.01864 -0.22065,-2.30288 -0.30258,-2.85387 l -0.14897,-1.00178 -2.42252,0.0757 -2.42252,0.0757 v 0.85227 c 0,0.70956 0.44304,1.33852 2.64584,3.75618 1.4552,1.59715 2.74559,2.91026 2.86752,2.91804 0.12194,0.008 0.15761,-0.43235 0.0793,-0.97805 z m 4.67891,-17.72709 c 0.25201,-2.29195 0.45503,-4.25648 0.45115,-4.36562 -0.009,-0.26143 -24.54502,-0.25841 -24.7066,0.003 -0.0685,0.11081 0.10173,2.04558 0.37825,4.29948 0.27653,2.2539 0.50413,4.12776 0.50578,4.16414 0.002,0.0364 5.1578,0.0661 11.45811,0.0661 h 11.45509 z M -4.6206473,108.98093 c -1.7875866,-3.77296 -2.0946579,-5.49406 -2.0957679,-11.746556 -9.189e-4,-5.176035 0.046734,-5.732707 0.6963727,-8.134885 0.3835476,-1.418249 1.0404536,-3.293483 1.4597912,-4.167187 0.4193376,-0.873705 0.6346753,-1.587436 0.4785281,-1.586071 -0.6746443,0.0059 -3.1496369,1.697694 -4.4859478,3.066393 -2.718615,2.784505 -4.12451,6.428151 -4.12451,10.689458 0,4.397768 1.404799,7.923888 4.2958969,10.782938 1.3949744,1.37951 4.3649362,3.39077 4.6241959,3.13151 0.043248,-0.0433 -0.3386038,-0.95927 -0.8485591,-2.0356 z M 9.23611,107.537 c 3.314323,-3.54303 4.719975,-8.727201 3.704635,-13.663041 -0.526674,-2.560303 -2.254172,-5.718166 -4.1842433,-7.648785 -1.6530852,-1.653555 -4.5231703,-3.479151 -4.5231703,-2.877087 0,0.15281 0.3093782,0.888365 0.6875071,1.634566 1.3368246,2.638097 2.0056298,5.997166 2.149632,10.796512 0.1784104,5.946115 -0.5440233,10.008025 -2.4626312,13.846215 -0.3515002,0.70318 -0.6390913,1.33475 -0.6390913,1.40349 0,0.0687 0.8337224,-0.31313 1.8527165,-0.84859 C 7.0330594,109.5436 8.2146772,108.62891 9.23611,107.537 Z M 45.435044,87.536486 c 1.623522,-1.117012 2.890773,-2.47764 4.253661,-4.56709 4.650916,-7.130337 3.501693,-17.356319 -2.583716,-22.990333 -1.379373,-1.277056 -4.371634,-3.052699 -4.659395,-2.764938 -0.05663,0.05663 0.300158,0.869048 0.792874,1.805361 3.708557,7.047401 3.653107,20.835593 -0.113799,28.297793 -0.435235,0.862196 -0.791337,1.62448 -0.791337,1.693965 0,0.239475 1.975048,-0.699593 3.101712,-1.474758 z m -12.097545,1.264546 c 0,-0.05443 -0.299952,-0.635638 -0.666559,-1.29157 -3.808013,-6.813277 -3.921674,-20.412999 -0.233533,-27.942646 0.615449,-1.25649 1.072088,-2.331791 1.014755,-2.389559 -0.05733,-0.05777 -0.865373,0.269671 -1.795644,0.727642 -2.281484,1.123171 -5.064978,4.050499 -6.360832,6.689523 -1.545144,3.146705 -2.109287,5.877297 -1.931991,9.351322 0.282732,5.539971 2.444996,9.896308 6.52407,13.144116 1.432862,1.140861 3.449734,2.141291 3.449734,1.711172 z M 95.289968,71.839761 c 2.687101,-1.946852 4.496566,-4.663462 5.392762,-8.096337 0.66165,-2.534441 0.43136,-6.91781 -0.48903,-9.308145 -1.214558,-3.154347 -3.571147,-5.975333 -6.034392,-7.223553 -1.758736,-0.89122 -1.942392,-0.816947 -1.185471,0.479417 1.002211,1.716468 1.987733,5.505843 2.334849,8.9776 0.524018,5.241081 -0.418981,11.587136 -2.269182,15.270803 -0.384956,0.766432 -0.699921,1.440709 -0.699921,1.498393 0,0.251396 1.57538,-0.601963 2.950385,-1.598178 z M 83.956091,71.503644 c -1.678891,-3.413205 -2.03257,-5.366982 -2.047542,-11.310938 -0.01184,-4.699657 0.0553,-5.558071 0.600082,-7.672917 0.337376,-1.309687 1.007831,-3.184922 1.489898,-4.167187 0.482068,-0.982266 0.766119,-1.785938 0.631225,-1.785938 -0.621407,0 -3.066614,1.482343 -4.211081,2.552858 -3.724096,3.483456 -5.438888,8.865081 -4.391629,13.782489 0.644097,3.024362 1.831256,5.216919 3.985001,7.359878 1.660646,1.652331 3.721972,3.026879 4.540131,3.027484 0.155311,1.15e-4 -0.112927,-0.803463 -0.596085,-1.785729 z"
       id="path65" /><path
       style="fill:#000000"
       d="m 199.07396,115.25651 c -0.0774,-0.20163 -0.1034,-0.88624 -0.0578,-1.52135 l 0.0828,-1.15475 1.25677,-0.0806 1.25677,-0.0806 v 1.602 1.602 h -1.19893 c -0.77764,0 -1.24836,-0.12882 -1.33961,-0.36661 z"
       id="path64" /><path
       style="fill:#000000"
       d="m 192.46499,115.27111 c -0.0805,-0.20967 -0.10901,-0.90085 -0.0634,-1.53596 l 0.0828,-1.15475 1.24818,-0.0803 c 1.12982,-0.0727 1.26338,-0.0197 1.40855,0.5587 0.0882,0.35144 0.12184,1.04242 0.0747,1.5355 -0.0829,0.86809 -0.12556,0.89906 -1.34511,0.97726 -0.90878,0.0583 -1.3002,-0.0254 -1.40575,-0.30046 z"
       id="path63" /><path
       style="fill:#000000"
       d="m 185.79044,114.10175 0.0794,-1.52135 1.25677,-0.0806 1.25677,-0.0806 v 1.602 1.602 h -1.33612 -1.33612 z"
       id="path62" /><path
       style="fill:#000000"
       d="m 210.01562,206.19008 c -0.0613,-0.11657 -0.0596,-0.78352 0.004,-1.48209 l 0.11523,-1.27014 1.22906,0.0795 1.22907,0.0795 v 1.32291 1.32292 l -1.2328,0.0797 c -0.67804,0.0438 -1.28297,-0.0157 -1.34429,-0.13229 z"
       id="path61" /><path
       style="fill:#000000"
       d="m 203.2,204.91979 v -1.4842 l 1.25677,0.0806 1.25677,0.0806 v 1.32291 1.32292 l -1.25677,0.0806 -1.25677,0.0806 z"
       id="path60" /><path
       style="fill:#000000"
       d="m 196.16261,206.00592 c -0.0779,-0.20298 -0.10392,-0.82806 -0.0578,-1.38906 0.0822,-1.0011 0.10529,-1.02156 1.2442,-1.10313 0.63823,-0.0457 1.26418,0.0206 1.39099,0.14745 0.12681,0.12681 0.15398,0.78929 0.0604,1.47218 l -0.17018,1.24161 h -1.16297 c -0.7507,0 -1.21317,-0.13083 -1.30458,-0.36905 z"
       id="path59" /><path
       style="fill:#000000"
       d="m 189.2294,204.98591 0.08,-1.38906 1.25677,-0.0806 1.25677,-0.0806 v 1.46971 1.4697 h -1.33675 -1.33674 z"
       id="path58" /><path
       style="fill:#000000"
       d="m 182.29792,204.91981 v -1.4842 l 1.25677,0.0806 1.25677,0.0806 v 1.32291 1.32292 l -1.25677,0.0806 -1.25677,0.0806 z"
       id="path57" /><path
       style="fill:#000000"
       d="m 175.26613,206.02058 c -0.081,-0.21102 -0.10952,-0.84267 -0.0635,-1.40367 l 0.0838,-1.02001 h 1.32292 1.32291 v 1.32291 1.32292 l -1.25947,0.0808 c -0.91217,0.0585 -1.30006,-0.025 -1.40669,-0.3029 z"
       id="path56" /><path
       style="fill:#000000"
       d="m 114.67528,46.69081 c -0.25189,-0.530815 -0.91562,-1.26797 -1.47496,-1.638124 -0.55934,-0.370154 -1.01699,-0.751035 -1.01699,-0.846402 0,-0.09537 0.5348,-0.620427 1.18843,-1.166799 0.65364,-0.546371 1.2597,-1.277344 1.3468,-1.624384 0.26925,-1.072784 0.82965,-0.9974 1.49045,0.20049 0.33619,0.609445 0.99211,1.347676 1.4576,1.640515 0.46548,0.292838 0.85093,0.661335 0.85653,0.818881 0.006,0.157546 -0.45986,0.664195 -1.03438,1.125887 -0.57451,0.461692 -1.19959,1.157437 -1.38906,1.546099 -0.50801,1.042078 -0.91081,1.026196 -1.42442,-0.05616 z"
       id="path55" /><path
       style="fill:#000000"
       d="m 182.27374,49.80781 c -0.34553,-0.912039 -1.21275,-1.854949 -2.15863,-2.347038 -0.9801,-0.509887 -0.91593,-0.946947 0.25103,-1.709675 0.53824,-0.351802 1.29023,-1.175422 1.67108,-1.830266 0.38085,-0.654844 0.80366,-1.190625 0.93959,-1.190625 0.13593,0 0.4445,0.395174 0.6857,0.878164 0.56732,1.136025 1.23399,1.861936 2.14051,2.330718 0.92721,0.479477 0.92744,1.039519 6.3e-4,1.521684 -0.94589,0.492089 -1.81311,1.434999 -2.15864,2.347038 -0.15161,0.400182 -0.46015,0.727604 -0.68563,0.727604 -0.22549,0 -0.53402,-0.327422 -0.68564,-0.727604 z"
       id="path54" /><path
       style="fill:#000000"
       d="m 18.38854,49.54689 c -0.291042,-0.542902 -0.911534,-1.22719 -1.378871,-1.520639 -0.467337,-0.29345 -0.85429,-0.662446 -0.859896,-0.819992 -0.0056,-0.157546 0.44789,-0.654572 1.007768,-1.104502 0.559877,-0.449929 1.169634,-1.184231 1.355016,-1.631782 0.185381,-0.44755 0.486761,-0.813727 0.669733,-0.813727 0.182972,0 0.484352,0.366177 0.669733,0.813727 0.185382,0.447551 0.795139,1.181853 1.355016,1.631782 0.559878,0.44993 1.017207,0.946956 1.016287,1.104502 -9.21e-4,0.157546 -0.350284,0.484778 -0.776364,0.727183 -0.42608,0.242405 -1.081664,0.927015 -1.456854,1.521355 -0.375191,0.594339 -0.769968,1.080296 -0.877283,1.079903 -0.107315,-3.94e-4 -0.433243,-0.444908 -0.724285,-0.98781 z"
       id="path53" /><path
       style="fill:#000000"
       d="m 62.177086,49.741672 c -0.30667,-0.601123 -0.967908,-1.335049 -1.469417,-1.630947 -0.50151,-0.295898 -0.911837,-0.693069 -0.911837,-0.882602 0,-0.189534 0.410327,-0.586705 0.911837,-0.882603 0.501509,-0.295898 1.158773,-1.022034 1.460585,-1.613634 0.301813,-0.591601 0.695158,-1.075317 0.874102,-1.074924 0.178943,3.94e-4 0.563476,0.443192 0.854518,0.983996 0.291042,0.540804 0.945886,1.262011 1.455208,1.602681 0.509323,0.340671 0.963594,0.724902 1.00949,0.853847 0.0459,0.128945 -0.370823,0.521346 -0.926042,0.872001 -0.555219,0.350655 -1.248321,1.091518 -1.540227,1.646362 -0.291906,0.554844 -0.672465,1.05605 -0.845687,1.11379 -0.173221,0.05774 -0.56586,-0.386845 -0.87253,-0.987967 z"
       id="path52" /><path
       style="fill:#000000"
       d="m 204.91934,54.238154 c -0.25082,-0.790269 -1.41469,-2.080932 -2.28002,-2.528412 -1.01802,-0.526438 -0.96052,-0.95784 0.22995,-1.725311 0.56825,-0.366338 1.27482,-1.176304 1.65365,-1.895647 0.3638,-0.690803 0.80471,-1.256349 0.9798,-1.256771 0.1751,-4.21e-4 0.54831,0.519095 0.82937,1.154481 0.28106,0.635385 0.828,1.379526 1.21542,1.653646 2.00475,1.418485 1.95152,1.246023 0.65356,2.117529 -0.64053,0.430083 -1.44142,1.283519 -1.77975,1.896524 -0.66527,1.205396 -1.2345,1.42671 -1.50198,0.583961 z"
       id="path51" /><path
       style="fill:#000000"
       d="m 152.82579,55.609289 c -0.21386,-0.346042 1.11357,-7.739772 1.46575,-8.16412 0.48045,-0.57891 1.98897,-0.43248 2.45908,0.2387 0.22654,0.323421 0.41013,0.769905 0.40798,0.992188 -0.005,0.536024 -3.54855,6.96816 -3.90393,7.08662 -0.15235,0.05079 -0.34535,-0.01824 -0.42888,-0.153388 z"
       id="path50" /><path
       style="fill:#000000"
       d="m 140.56198,55.496352 c -0.58106,-0.73587 -3.50781,-6.496241 -3.50781,-6.903992 0,-0.583338 0.93784,-1.496529 1.53693,-1.496529 1.12038,0 1.43114,0.619734 2.06815,4.124457 0.3415,1.878892 0.62257,3.684059 0.62458,4.011481 0.004,0.657203 -0.31848,0.775422 -0.72185,0.264583 z"
       id="path49" /><path
       style="fill:#000000"
       d="m 162.18958,62.998875 c 0,-0.308746 1.1257,-1.476813 2.93234,-3.042708 3.06987,-2.660803 3.93855,-3.04124 4.85397,-2.125812 0.49654,0.496533 0.5513,2.058558 0.085,2.425672 -0.34067,0.26823 -7.40901,3.243971 -7.70547,3.243971 -0.0912,0 -0.16589,-0.225505 -0.16589,-0.501123 z"
       id="path48" /><path
       style="fill:#000000"
       d="m 128.11979,62.091264 c -1.78521,-0.765659 -3.48185,-1.59419 -3.77031,-1.84118 -0.67323,-0.576439 -0.67109,-1.630559 0.005,-2.306336 0.98259,-0.982592 1.65393,-0.692903 4.752,2.050521 2.62729,2.326535 3.5116,3.520577 2.59018,3.497415 -0.1819,-0.0046 -1.79135,-0.634762 -3.57656,-1.40042 z"
       id="path47" /><path
       style="fill:#000000"
       d="m 146.72707,63.698435 c -0.11789,-0.55365 -0.85651,-8.581432 -1.4667,-15.941146 -0.14479,-1.74625 -0.26447,-4.017449 -0.26597,-5.047108 -0.002,-1.616786 0.0808,-1.950568 0.60963,-2.447396 0.66549,-0.625193 1.98531,-0.761281 2.85728,-0.294617 1.18675,0.635128 1.18637,0.784858 -0.0413,16.255788 -0.53122,6.694558 -0.75293,8.069792 -1.301,8.069792 -0.14587,0 -0.32226,-0.267891 -0.39198,-0.595313 z"
       id="path46" /><path
       style="fill:#000000"
       d="m 152.48522,66.116221 c -0.35518,-0.427961 0.58814,-2.081215 6.61047,-11.585548 4.43138,-6.993506 5.24015,-7.964009 6.63683,-7.964009 1.31039,0 2.2779,0.946202 2.2779,2.227726 0,1.070059 0.20289,0.81192 -6.25528,7.958733 -7.94089,8.787647 -8.92367,9.780305 -9.26992,9.363098 z"
       id="path45" /><path
       style="fill:#000000"
       d="m 138.87517,63.566144 c -2.98308,-3.03006 -9.18021,-9.710781 -11.18943,-12.062592 -0.66689,-0.780606 -1.28457,-1.77948 -1.37262,-2.21972 -0.40705,-2.035271 1.86055,-3.480516 3.57587,-2.27906 0.6415,0.44932 4.38928,6.029875 9.37658,13.962004 2.5374,4.035633 3.21318,5.443639 2.61273,5.443639 -0.11162,0 -1.46303,-1.279922 -3.00313,-2.844271 z"
       id="path44" /><path
       style="fill:#000000"
       d="m 155.40234,71.107593 c -0.31145,-0.503926 0.64814,-0.912647 7.52929,-3.206977 8.3327,-2.778313 12.83438,-4.136035 13.71347,-4.136035 0.93594,0 2.21323,1.341918 2.21323,2.325216 0,1.242537 -0.86791,2.097073 -2.45271,2.414893 -1.16833,0.234301 -16.1848,2.328644 -19.70609,2.748402 -0.65136,0.07765 -1.19711,0.01643 -1.29719,-0.145499 z"
       id="path43" /><path
       style="fill:#000000"
       d="m 135.20208,71.006792 c -11.29544,-1.3627 -17.92942,-2.316263 -18.46649,-2.654358 -1.214,-0.764235 -1.3728,-2.708064 -0.30051,-3.678473 0.87109,-0.788324 2.44721,-0.533326 8.97742,1.452435 9.69973,2.949578 13.62604,4.326437 13.62604,4.778312 0,0.52333 -0.28244,0.530846 -3.83646,0.102084 z"
       id="path42" /><path
       style="fill:#000000"
       d="m 221.91013,73.078002 c -0.58262,-2.095567 -1.24601,-2.852468 -2.97881,-3.398686 -1.64359,-0.518094 -1.98862,-1.278376 -0.71621,-1.578165 2.12881,-0.501565 3.4166,-1.911477 3.90053,-4.270424 0.10141,-0.494312 0.33973,-0.859896 0.56056,-0.859896 0.41505,0 0.45933,0.08871 0.89664,1.7963 0.38396,1.499249 1.42097,2.577978 3.04279,3.165216 0.7276,0.263455 1.32291,0.63738 1.32291,0.830946 0,0.193565 -0.61985,0.583164 -1.37746,0.865775 -1.61235,0.601461 -2.59707,1.656968 -2.99427,3.209523 -0.42836,1.67437 -0.47708,1.773907 -0.86825,1.773907 -0.21538,0 -0.53445,-0.620999 -0.78843,-1.534496 z"
       id="path41" /><path
       style="fill:#000000"
       d="m 145.36746,75.701135 c -1.71097,-1.043344 -1.93901,-4.00231 -0.41351,-5.365349 2.88189,-2.574961 6.9879,0.813665 5.19261,4.285373 -0.78622,1.520396 -3.17254,2.059653 -4.7791,1.079976 z"
       id="path40" /><path
       style="fill:#000000"
       d="m 167.24357,76.572963 c -2.09525,-0.63635 -3.87325,-1.220701 -3.95111,-1.298559 -0.45588,-0.455884 0.8855,-0.685274 4.8917,-0.83653 4.37613,-0.165223 4.52521,-0.153506 5.07779,0.399077 1.16975,1.169746 0.33486,2.978111 -1.34893,2.921779 -0.47294,-0.01582 -2.57419,-0.549418 -4.66945,-1.185767 z"
       id="path39" /><path
       style="fill:#000000"
       d="m 121.06188,77.19946 c -0.58069,-0.829049 -0.51323,-1.451327 0.23885,-2.203412 l 0.65073,-0.65073 4.31021,0.167386 c 6.17889,0.239955 6.26259,0.556402 0.58125,2.197595 -4.32427,1.249171 -5.19699,1.323016 -5.78104,0.489161 z"
       id="path38" /><path
       style="fill:#000000"
       d="m 67.64822,81.166896 c -0.359653,-0.860771 -1.817035,-2.321064 -2.316438,-2.321064 -0.589006,0 -0.164904,-0.858432 0.666429,-1.34893 0.543174,-0.32048 1.139982,-1.010941 1.478811,-1.710869 0.312454,-0.645444 0.66762,-1.173535 0.789256,-1.173535 0.121636,0 0.497968,0.501408 0.836293,1.11424 0.338325,0.612831 1.031855,1.393891 1.541178,1.735687 0.509323,0.341797 0.962731,0.724361 1.007572,0.850144 0.04484,0.125782 -0.359394,0.52831 -0.898302,0.894508 -0.538908,0.366197 -1.23044,1.110078 -1.536739,1.653069 -0.73745,1.307316 -1.118824,1.381922 -1.56806,0.30675 z"
       id="path37" /><path
       style="fill:#000000"
       d="m 166.87846,85.552007 c -7.33884,-4.955228 -12.36179,-8.539418 -12.36179,-8.820916 0,-0.623721 0.83423,-0.379468 5.3334,1.561546 8.20391,3.539308 14.08485,6.362207 14.70879,7.060342 0.86718,0.970315 0.81821,2.539525 -0.10183,3.263233 -1.29993,1.022522 -1.86345,0.794675 -7.57857,-3.064205 z"
       id="path36" /><path
       style="fill:#000000"
       d="m 119.82543,88.663661 c -0.47351,-0.383425 -0.61861,-0.765729 -0.61861,-1.629878 0,-1.481977 0.5276,-1.894088 5.27964,-4.123895 8.33336,-3.910281 15.04074,-6.72405 15.32801,-6.43015 0.35037,0.358456 -0.19624,0.817882 -4.61239,3.876706 -13.15596,9.112423 -13.89152,9.509805 -15.37665,8.307217 z"
       id="path35" /><path
       style="fill:#000000"
       d="m 105.56018,91.193857 c -0.28593,-0.484627 -0.8177,-1.040528 -1.1817,-1.235334 -0.86051,-0.460532 -0.83595,-0.660387 0.20544,-1.671604 0.47699,-0.463171 1.07332,-1.139785 1.32518,-1.503587 0.4491,-0.648721 0.46424,-0.651269 0.78639,-0.132292 0.18066,0.291042 0.77495,0.970882 1.32066,1.510756 0.5457,0.539875 0.99218,1.085302 0.99218,1.212062 0,0.12676 -0.30172,0.391951 -0.6705,0.589314 -0.36878,0.197363 -0.91427,0.753263 -1.2122,1.235334 -0.29794,0.482071 -0.65507,0.876492 -0.79363,0.876492 -0.13856,0 -0.48588,-0.396513 -0.77182,-0.881141 z"
       id="path34" /><path
       style="fill:#000000"
       d="m 163.47319,92.331243 c -0.46129,-0.267036 -3.66486,-5.316153 -3.66486,-5.776149 0,-0.714385 0.6823,-0.405744 3.14658,1.423372 2.27963,1.692067 2.67426,2.094266 2.67426,2.725602 0,1.286376 -1.19141,2.185561 -2.15598,1.627175 z"
       id="path33" /><path
       style="fill:#000000"
       d="m 129.54922,92.055795 c -1.37227,-1.079427 -0.84347,-1.953059 2.84805,-4.705283 1.00397,-0.748512 1.91968,-1.36093 2.03491,-1.36093 0.62409,0 0.3455,0.764831 -1.21735,3.342084 -2.17131,3.580634 -2.37978,3.735562 -3.66561,2.724129 z"
       id="path32" /><path
       style="fill:#000000"
       d="m 146.05,98.160415 c -0.64595,-0.645954 -0.64863,-0.465007 0.10705,-7.227194 0.90821,-8.127054 1.25387,-8.010406 2.41393,0.814625 l 0.73954,5.625972 -0.61805,0.657882 c -0.75594,0.804669 -1.91029,0.860897 -2.64247,0.128715 z"
       id="path31" /><path
       style="fill:#000000"
       d="m 157.64213,100.9282 c -0.61075,-0.33161 -0.89804,-0.97364 -2.03752,-4.553473 -3.07225,-9.651947 -4.80094,-15.773816 -4.53055,-16.044203 0.18546,-0.185463 0.38797,-0.149322 0.63961,0.114147 0.48988,0.512929 3.45558,6.06131 6.64085,12.424077 2.91089,5.814669 3.13751,6.765447 1.87201,7.853982 -0.81371,0.69992 -1.56386,0.75956 -2.5844,0.20547 z"
       id="path30" /><path
       style="fill:#000000"
       d="m 134.7579,101.0209 c -0.89074,-0.43064 -1.27985,-1.626012 -0.92012,-2.826686 0.36575,-1.220776 5.79131,-12.210893 7.69051,-15.57807 1.31338,-2.328544 1.67031,-2.729479 1.98156,-2.225867 0.19159,0.310002 -2.04886,8.244854 -4.77474,16.91038 -1.18453,3.765603 -2.10414,4.625793 -3.97721,3.720243 z"
       id="path29" /><path
       style="fill:#000000"
       d="m 229.80777,106.05033 c -0.062,-0.19211 -0.40082,-1.3799 -0.75286,-2.63954 -1.17534,-4.205461 -2.63054,-5.837573 -6.11845,-6.862266 -3.13674,-0.921526 -3.28137,-1.684949 -0.47382,-2.501124 2.14409,-0.623303 3.26284,-1.258261 4.36346,-2.476514 1.13917,-1.260923 1.6012,-2.277042 2.41071,-5.301789 0.84971,-3.174909 1.72399,-3.557775 2.16108,-0.946386 0.29525,1.76391 1.35593,4.624734 2.12746,5.738043 0.87674,1.265138 2.23196,2.079496 4.83037,2.902587 2.72519,0.863251 2.85408,1.707514 0.35659,2.335732 -1.82642,0.459418 -4.18056,1.798273 -4.96094,2.8214 -0.88799,1.164217 -1.41216,2.402777 -2.11312,4.993067 -0.47303,1.74803 -0.67248,2.13142 -1.14524,2.20137 -0.31485,0.0466 -0.62321,-0.0725 -0.68524,-0.26458 z"
       id="path28" /><path
       style="fill:#000000"
       d="m 161.12242,115.87019 c -0.30181,-0.5916 -0.95907,-1.31773 -1.46058,-1.61363 -1.13949,-0.67231 -1.14933,-1.08954 -0.0419,-1.77399 0.47849,-0.29572 1.14095,-1.01981 1.47214,-1.60908 0.33119,-0.58928 0.74338,-1.07109 0.91597,-1.07069 0.17259,3.9e-4 0.55192,0.44319 0.84296,0.98399 0.29104,0.54081 0.94589,1.26201 1.45521,1.60268 0.50932,0.34067 0.96359,0.72491 1.00949,0.85385 0.0459,0.12895 -0.39814,0.53846 -0.98675,0.91003 -0.60488,0.38185 -1.30498,1.1358 -1.61018,1.73404 -0.29699,0.58214 -0.6542,1.05844 -0.79381,1.05844 -0.1396,0 -0.50076,-0.48403 -0.80258,-1.07564 z"
       id="path27" /><path
       style="fill:#000000"
       d="m 241.69921,125.41985 c -0.0911,-0.28699 -0.66328,-0.94779 -1.27153,-1.46843 l -1.10591,-0.94662 0.94994,-0.84667 c 0.52247,-0.46567 1.14891,-1.17409 1.39209,-1.57428 0.57712,-0.94971 0.77009,-0.91846 1.30918,0.212 0.24643,0.51678 0.80351,1.14186 1.23795,1.38906 0.43444,0.24721 0.79065,0.55711 0.79157,0.68867 9.2e-4,0.13156 -0.46761,0.64088 -1.04117,1.13183 -0.57356,0.49095 -1.11736,1.12745 -1.20845,1.41444 -0.0911,0.287 -0.32817,0.52182 -0.52684,0.52182 -0.19866,0 -0.43574,-0.23482 -0.52683,-0.52182 z"
       id="path26" /><path
       style="fill:#000000"
       d="m 26.527415,127.46302 c -0.143162,-0.1819 -0.526958,-1.22226 -0.852881,-2.3119 -1.168312,-3.90597 -2.165752,-4.99523 -5.579222,-6.09281 -2.879326,-0.92582 -2.791614,-1.57379 0.359983,-2.65937 3.110681,-1.07148 4.270109,-2.49848 5.368453,-6.60737 0.758383,-2.8371 1.412155,-3.07577 1.966534,-0.71791 0.504127,2.14413 1.315348,4.21271 2.025157,5.16405 0.719884,0.96485 2.571292,1.99855 4.407674,2.46096 2.210905,0.55671 2.336879,1.56022 0.261399,2.0823 -0.703618,0.17699 -1.939698,0.67361 -2.746845,1.1036 -1.769164,0.94247 -2.696426,2.25188 -3.446106,4.86632 -0.881285,3.07339 -1.152123,3.48977 -1.764146,2.71213 z"
       id="path25" /><path
       style="fill:#000000"
       d="m -9.3050816,133.94531 c -0.4468322,-0.87022 -0.9867824,-1.44597 -1.7555324,-1.87191 -0.610622,-0.33832 -1.110222,-0.72378 -1.110222,-0.85657 0,-0.13279 0.486278,-0.54842 1.080618,-0.92361 0.59434,-0.37519 1.2789493,-1.04456 1.5213543,-1.4875 0.2424051,-0.44294 0.6379759,-1.05945 0.8790463,-1.37003 l 0.4383099,-0.56469 0.4877318,0.91738 c 0.5077886,0.9551 1.687156,2.21524 2.753613,2.9422 l 0.6209708,0.42329 -1.1109076,0.73517 c -0.6109992,0.40434 -1.4677997,1.31518 -1.9040012,2.0241 -0.4362014,0.70892 -0.8971732,1.28894 -1.0243818,1.28894 -0.1272086,0 -0.5216782,-0.56554 -0.8765991,-1.25677 z"
       id="path24" /><path
       style="fill:#000000"
       d="m 165.69463,139.89844 c -0.14515,-0.1819 -0.44818,-0.69398 -0.67341,-1.13795 -0.22522,-0.44398 -0.83542,-1.0366 -1.35598,-1.31694 -1.18474,-0.63802 -1.19091,-1.01907 -0.0288,-1.77601 0.50474,-0.32876 1.22754,-1.16512 1.60621,-1.85857 0.37868,-0.69345 0.80085,-1.19139 0.93815,-1.10653 0.13731,0.0849 0.48852,0.62252 0.78047,1.19479 0.29635,0.58089 1.00354,1.33891 1.60102,1.71608 0.58861,0.37157 1.03265,0.78109 0.98675,0.91003 -0.0459,0.12895 -0.50016,0.5141 -1.00949,0.8559 -0.50932,0.3418 -1.20285,1.12285 -1.54117,1.73569 -0.65153,1.18014 -0.87845,1.31652 -1.30378,0.78351 z"
       id="path23" /><path
       style="fill:#000000"
       d="m 227.95894,150.76591 c -0.0607,-0.19266 -0.4241,-1.48138 -0.80766,-2.86383 -1.21926,-4.3946 -2.44135,-5.77828 -6.04958,-6.84944 -3.16984,-0.94102 -3.29008,-1.63872 -0.4392,-2.54836 3.71399,-1.18504 4.92146,-2.40707 6.06152,-6.13464 0.43593,-1.42533 0.8951,-3.00823 1.02038,-3.51756 0.16224,-0.65957 0.37465,-0.92604 0.73816,-0.92604 0.4282,0 0.63965,0.49126 1.31315,3.05091 1.32189,5.02387 2.33728,6.20817 6.46969,7.54591 1.85442,0.60031 2.14318,0.77388 2.0732,1.24613 -0.0643,0.43365 -0.54027,0.69597 -2.27042,1.25122 -1.20401,0.3864 -2.5137,0.9431 -2.91042,1.2371 -1.27933,0.94812 -2.33518,2.60801 -2.93426,4.61294 -0.32177,1.07683 -0.72939,2.43282 -0.90583,3.01332 -0.32,1.05283 -1.13783,1.58391 -1.35873,0.88234 z"
       id="path22" /><path
       style="fill:#000000"
       d="m 219.80261,168.76573 c -0.69123,-0.71889 -1.25677,-1.36629 -1.25677,-1.43866 0,-0.0724 0.44648,-0.57331 0.99218,-1.11319 0.54571,-0.53987 1.14102,-1.21971 1.32292,-1.51076 l 0.33073,-0.52916 0.33073,0.52916 c 0.1819,0.29105 0.77721,0.97089 1.32291,1.51076 0.54571,0.53988 0.99219,1.08303 0.99219,1.20701 0,0.12399 -0.36348,0.49417 -0.80774,0.82262 -0.44426,0.32846 -0.93963,0.88663 -1.10081,1.24038 -0.16118,0.35376 -0.42277,0.63098 -0.58131,0.61605 -0.15855,-0.0149 -0.85381,-0.61533 -1.54503,-1.33421 z"
       id="path21" /><path
       style="fill:#000000"
       d="m 239.07177,175.11002 c -0.0615,-0.194 -0.25514,-0.99072 -0.43029,-1.77048 -0.42959,-1.91264 -1.47239,-3.05021 -3.4606,-3.77515 -1.97126,-0.71876 -1.95631,-1.19961 0.0582,-1.87093 2.01129,-0.67026 2.87518,-1.63914 3.43129,-3.84828 0.57177,-2.27138 1.02322,-2.31456 1.58868,-0.15197 0.23526,0.89976 0.63435,1.95125 0.88687,2.33664 0.4685,0.71503 2.80841,1.97331 3.67825,1.97798 0.33748,0.002 0.45615,0.16681 0.39688,0.55182 -0.0619,0.40236 -0.47308,0.68029 -1.53738,1.03927 -1.72471,0.58173 -2.7711,1.64495 -3.17864,3.22978 -0.50895,1.9792 -0.68531,2.42203 -1.00732,2.52937 -0.17273,0.0576 -0.36439,-0.054 -0.4259,-0.24805 z"
       id="path20" /><path
       style="fill:#000000"
       d="m 145.29544,188.32784 c -5.20968,-14.32398 -8.25481,-23.28872 -8.01514,-23.59627 0.1256,-0.16116 1.12188,-1.39884 2.21394,-2.7504 l 1.98558,-2.45737 0.1317,-2.30983 c 0.0926,-1.62383 0.29758,-2.63498 0.69021,-3.4046 0.96064,-1.88301 2.62825,-2.77984 4.11669,-2.21394 0.61362,0.2333 0.85652,0.17525 1.58189,-0.37801 5.73182,-4.37188 14.18379,-0.9247 15.74363,6.42112 1.2028,5.66436 -0.97626,11.84071 -7.05124,19.98616 -1.97009,2.64154 -9.40625,10.36735 -10.57905,10.99113 -0.52728,0.28045 -0.62382,0.24646 -0.81821,-0.28799 z"
       id="path19" /><path
       style="fill:#000000"
       d="m 149.25741,199.09896 c -0.4915,-1.16417 -1.10526,-2.71198 -1.36392,-3.43958 -0.25865,-0.72761 -0.77382,-2.11489 -1.14482,-3.08286 l -0.67455,-1.75994 1.23695,-0.9637 1.23695,-0.9637 0.34784,1.00385 c 0.69544,2.00703 1.41023,6.90348 1.33225,9.12613 l -0.0771,2.19647 z"
       id="path18" /><path
       style="fill:#000000"
       d="m 238.34644,201.12025 c -0.47001,-0.85232 -1.02056,-1.42764 -1.65364,-1.72806 -0.52198,-0.24769 -0.94905,-0.60341 -0.94905,-0.79048 0,-0.18708 0.44649,-0.62797 0.99219,-0.97978 0.57212,-0.36883 1.2461,-1.14372 1.59192,-1.83026 0.32985,-0.65485 0.71079,-1.22831 0.84652,-1.27437 0.13574,-0.0461 0.55231,0.51916 0.92571,1.25603 0.44623,0.88059 1.05065,1.57444 1.76356,2.02448 1.14981,0.72584 1.1408,0.78499 -0.26644,1.74806 -0.49137,0.33628 -1.15251,1.07985 -1.4692,1.65237 -0.31668,0.57252 -0.68855,1.07667 -0.82638,1.12033 -0.13782,0.0437 -0.56766,-0.49558 -0.95519,-1.19832 z"
       id="path17" /><path
       style="fill:#000000"
       d="m -8.664129,205.78295 c -0.1472181,-0.18369 -0.5200021,-0.83487 -0.8284087,-1.44706 -0.370487,-0.73541 -0.9648563,-1.34989 -1.7518103,-1.81107 -0.655089,-0.38391 -1.191071,-0.80427 -1.191071,-0.93414 0,-0.12987 0.473238,-0.53487 1.05164,-0.9 1.056495,-0.66693 1.5855173,-1.30842 2.3643918,-2.86706 0.2312347,-0.46273 0.5271963,-0.84133 0.6576924,-0.84133 0.1304962,0 0.6067462,0.6916 1.0583334,1.53688 0.5801632,1.08595 1.1255515,1.70698 1.8588316,2.11666 0.5707702,0.31889 1.0845763,0.72223 1.1417913,0.89632 0.057215,0.17408 -0.37596,0.56139 -0.9626113,0.86067 -1.005776,0.51311 -2.4075691,2.15538 -2.4075691,2.82058 0,0.54739 -0.6908362,0.94435 -0.9912101,0.56955 z"
       id="path16" /><path
       style="fill:#000000"
       d="M 142.63394,205.04094 C 139.2648,197.78955 134.43592,184.092 132.1444,175.28646 l -1.23937,-4.7625 2.07896,-1.91937 c 1.14344,-1.05565 2.18838,-1.8829 2.3221,-1.83832 0.13372,0.0446 1.03989,2.4561 2.01371,5.35895 3.5676,10.6346 8.62869,24.05928 11.33163,30.05746 l 0.79347,1.76081 -0.57297,0.52445 c -0.76818,0.70314 -4.45081,2.96539 -4.82723,2.96539 -0.16456,0 -0.7994,-1.07657 -1.41076,-2.39239 z"
       id="path15" /><path
       style="fill:#000000"
       d="m 25.830867,224.30049 c -0.206294,-0.32742 -0.627134,-1.7264 -0.935201,-3.10885 -0.308066,-1.38245 -0.990285,-4.32925 -1.516042,-6.54844 l -0.955921,-4.0349 h -1.512301 c -3.031959,0 -6.402575,-2.50495 -7.943511,-5.90342 -2.589289,-5.71055 -1.172176,-13.30707 2.961799,-15.87689 0.697524,-0.4336 1.266471,-0.85987 1.264327,-0.94726 -0.0021,-0.0874 -3.663316,-1.2208 -8.1359376,-2.51869 -13.8218011,-4.01089 -26.5616494,-7.9946 -26.8072824,-8.38255 -0.373462,-0.58984 -0.286637,-1.67301 0.409831,-5.11274 3.411102,-16.84685 14.1879695,-28.32385 29.722136,-31.65307 3.585062,-0.76833 10.605036,-0.97599 14.207859,-0.42028 6.721334,1.03672 13.145477,3.73807 18.55907,7.80408 3.248901,2.44017 3.249509,2.38388 -0.08138,7.53696 -1.426464,2.20682 -6.142341,9.37022 -10.479726,15.91865 l -7.886156,11.90626 -1.859743,0.31608 c -2.96684,0.50424 -4.756846,1.77852 -5.794963,4.12535 -1.005807,2.2738 -0.603991,4.91868 1.008498,6.63828 0.78509,0.83724 2.524095,1.73768 3.373502,1.74677 0.429427,0.005 0.727132,0.45551 1.420724,2.15189 0.870413,2.12886 0.9582,2.57047 1.239465,6.23506 0.119315,1.55456 0.04766,2.12058 -0.395191,3.12172 -0.517417,1.16971 -0.529356,2.78464 -0.02059,2.78464 0.372354,0 1.648708,-1.69102 2.196742,-2.91042 0.740784,-1.64828 0.736825,-4.91458 -0.0082,-6.74687 -0.295841,-0.72761 -0.742161,-2.15636 -0.991823,-3.175 -0.704414,-2.87407 -0.888066,-3.14187 -2.29245,-3.34276 -2.262251,-0.3236 -3.671775,-1.48282 -4.021154,-3.30707 -0.394585,-2.06029 1.302212,-4.52571 3.529401,-5.12817 3.681751,-0.99591 7.808587,0.80983 9.358274,4.09481 0.42224,0.89506 1.268877,6.55994 2.670678,17.86964 0.514051,4.14735 1.240167,9.4259 1.613592,11.73012 0.373425,2.30422 0.616203,4.25224 0.539506,4.32894 -0.0767,0.0767 -1.187834,0.2286 -2.469192,0.33756 -3.257228,0.27699 -3.262361,0.27236 -4.149844,-3.73835 -0.397427,-1.79606 -0.924394,-4.32753 -1.171038,-5.62549 l -0.448443,-2.35993 -2.072525,-0.10062 c -1.898216,-0.0922 -2.0601,-0.0606 -1.924796,0.37556 0.279028,0.89939 2.538454,10.79497 2.540283,11.12565 0.0031,0.55881 -1.020104,1.38906 -1.711863,1.38906 -0.392107,0 -0.806025,-0.23913 -1.030439,-0.59531 z m -9.713334,-40.25957 c -0.746717,-0.73867 -8.1036614,-6.76581 -8.2608185,-6.76764 -0.2108984,-0.002 -1.2978675,2.23941 -1.6254713,3.35252 -0.1576001,0.53548 0.044637,0.64315 2.8187576,1.50062 1.6436962,0.50806 3.7624452,1.16451 4.7083312,1.45879 1.632346,0.50783 2.601055,0.69495 2.359201,0.45571 z m 0.01726,-7.61989 c -1.058651,-2.80684 -1.957732,-5.14379 -1.997957,-5.1932 -0.132792,-0.16315 -3.141948,2.00314 -3.908065,2.8134 l -0.7514389,0.79474 3.0003969,2.47458 c 4.75369,3.9206 5.375421,4.40928 5.481766,4.30861 0.05507,-0.0521 -0.76605,-2.39128 -1.824702,-5.19813 z m 10.925449,0.51374 c 1.544175,-2.36763 2.879871,-4.49314 2.968214,-4.72336 0.102168,-0.26625 -0.06086,-0.5586 -0.447978,-0.80333 -0.940486,-0.59457 -3.421111,-1.55559 -3.650073,-1.41408 -0.112619,0.0696 -0.287404,0.69356 -0.388413,1.38657 -0.101008,0.69301 -0.470576,2.86737 -0.821262,4.8319 -0.350685,1.96453 -0.695522,3.8993 -0.766305,4.29948 -0.07078,0.40018 -0.03264,0.7276 0.08477,0.7276 0.117404,0 1.476877,-1.93715 3.021051,-4.30478 z m -5.802109,3.1803 c 0.289575,-1.15827 1.760618,-9.71984 1.760618,-10.24691 0,-0.48644 -0.161678,-0.53256 -1.785937,-0.50946 -2.352425,0.0335 -4.457251,0.53972 -4.353622,1.04715 0.04298,0.21046 0.906185,2.50114 1.918229,5.0904 1.012044,2.58925 1.84008,4.82167 1.84008,4.96093 0,0.50177 0.475137,0.23986 0.620632,-0.34211 z m -17.8185516,-0.2528 c 0,-0.17543 0.4365112,-1.24916 0.970025,-2.38606 1.1404984,-2.43037 1.5872068,-1.81325 -3.61585843,-4.99519 -1.96453127,-1.20141 -5.52238947,-3.42447 -7.90635157,-4.94013 -3.3377074,-2.12202 -4.3877914,-2.67391 -4.5663174,-2.39988 -0.616393,0.94613 -2.804383,9.37638 -2.509963,9.6708 0.06499,0.065 2.778061,0.9604 6.0290442,1.9898 11.6925549,3.70235 11.5994212,3.67777 11.5994212,3.06066 z m 5.2492653,-8.43113 c 0.8236854,-0.73798 1.8186453,-1.53379 2.2110213,-1.76846 l 0.713411,-0.42667 -1.7617558,-2.53103 C 8.0574112,164.12747 -1.0494018,151.28856 -1.208077,151.113 c -0.1979522,-0.21902 -3.4755313,2.88916 -5.1020056,4.8383 l -1.7490965,2.09609 7.51501476,7.36276 c 4.13325814,4.04952 7.56460174,7.36277 7.62520804,7.36277 0.060606,0 0.7841177,-0.60381 1.607803,-1.34178 z m 26.9742743,-7.85249 c 4.259401,-6.64506 7.728544,-12.18482 7.728544,-12.34144 0,-0.33204 -7.072103,-4.55432 -7.278939,-4.34577 -0.09602,0.0968 -1.958664,4.65172 -5.706857,13.95554 l -2.603562,6.4626 1.9077,0.9694 c 1.049235,0.53317 1.987964,0.98852 2.086065,1.01188 0.0981,0.0234 1.838273,-2.54714 3.867049,-5.71221 z m -19.659044,3.65825 c 0.978309,-0.30217 2.004328,-0.5494 2.280041,-0.5494 0.275713,0 0.501297,-0.13571 0.501297,-0.30157 0,-0.60677 -4.312374,-22.06121 -4.468787,-22.23261 -0.381498,-0.41804 -9.2895466,2.41844 -9.2895466,2.95796 0,0.12167 0.9355225,2.46273 2.0789388,5.20236 1.1434164,2.73963 3.0679098,7.39743 4.2766518,10.35065 1.427654,3.48807 2.310704,5.32614 2.520186,5.24575 0.177361,-0.0681 1.122909,-0.37097 2.101219,-0.67314 z m 10.189671,-0.50026 c 0,-0.11849 0.478862,-2.41044 1.064137,-5.09323 1.565265,-7.17486 3.43378,-16.17567 3.43378,-16.54085 0,-0.19571 -1.145337,-0.5337 -2.976562,-0.87839 -3.386983,-0.63753 -5.454957,-0.72035 -5.610497,-0.22469 -0.05708,0.1819 -0.234304,3.54542 -0.393827,7.47448 -0.159523,3.92906 -0.364813,8.87839 -0.4562,10.99851 l -0.166158,3.85477 2.221934,0.26892 c 1.222064,0.14791 2.370763,0.2885 2.552664,0.31242 0.181901,0.0239 0.330729,-0.0534 0.330729,-0.17194 z"
       id="path14" /><path
       style="fill:#000000"
       d="m 50.403124,226.63611 c -0.727604,-0.17243 -1.320574,-0.42618 -1.31771,-0.56389 0.0097,-0.46846 0.41722,-2.36404 0.700489,-3.25865 0.277051,-0.87498 0.304362,-0.88859 1.463899,-0.72966 0.649869,0.0891 1.274737,0.21953 1.388594,0.28989 0.113857,0.0704 0.04683,1.11309 -0.148944,2.31716 -0.195776,1.20407 -0.358337,2.21898 -0.361247,2.25537 -0.007,0.0877 -0.168933,0.0585 -1.725081,-0.31022 z"
       id="path13" /><path
       style="fill:#000000"
       d="m 115.26632,227.09556 c -0.0917,-0.55502 -0.16806,-1.61725 -0.16966,-2.3605 l -0.003,-1.35137 1.62631,-0.16999 c 2.86358,-0.2993 2.64743,-0.49778 3.01947,2.77261 l 0.1692,1.48737 -1.28301,0.17335 c -0.70566,0.0953 -1.71268,0.23732 -2.23783,0.31551 -0.93386,0.13903 -0.95848,0.11999 -1.12157,-0.86698 z"
       id="path12" /><path
       style="fill:#000000"
       d="m 57.610098,228.07993 c -0.54731,-0.10525 -1.063122,-0.25937 -1.146248,-0.3425 -0.150316,-0.15031 0.282652,-4.37841 0.467265,-4.56302 0.0532,-0.0532 0.604711,-0.0286 1.225587,0.0547 l 1.128866,0.15141 -0.0756,2.38989 c -0.04166,1.31707 -0.194368,2.4148 -0.34018,2.44539 -0.145521,0.0305 -0.712383,-0.0306 -1.259693,-0.13586 z"
       id="path11" /><path
       style="fill:#000000"
       d="m 53.181249,232.46719 c -0.972606,-0.20501 -1.454116,-0.43647 -1.451913,-0.69791 0.01302,-1.54558 0.488718,-4.49223 0.72521,-4.49223 0.157565,0 1.056194,0.13404 1.996953,0.29787 l 1.710471,0.29787 -0.165563,1.75265 c -0.09106,0.96396 -0.166409,2.08008 -0.167444,2.48026 -0.0022,0.83282 -0.250672,0.86674 -2.647714,0.36149 z"
       id="path10" /><path
       style="fill:#000000"
       d="m 110.85812,232.52079 c -0.001,-0.62847 -0.077,-1.76485 -0.16839,-2.5253 l -0.16608,-1.38264 -1.97546,0.16699 -1.97546,0.16699 0.19133,-2.35623 c 0.10523,-1.29592 0.20676,-2.37021 0.22562,-2.3873 0.0188,-0.0171 0.77842,-0.11231 1.68792,-0.21158 l 1.65365,-0.1805 v 1.56757 c 0,0.86216 0.0767,1.95092 0.17038,2.41946 l 0.17038,0.8519 2.30222,-0.18221 2.30222,-0.18222 0.17844,2.32151 c 0.0981,1.27684 0.0868,2.40517 -0.0252,2.50741 -0.11201,0.10224 -1.18591,0.26754 -2.38646,0.36735 l -2.18281,0.18146 z"
       id="path9" /><path
       style="fill:#000000"
       d="m 236.03062,236.99531 c -0.12441,-0.32456 -0.41711,-1.25115 -0.65043,-2.05909 -0.52145,-1.80569 -1.44009,-2.73253 -3.35274,-3.38266 -1.94834,-0.66226 -1.92145,-1.19883 0.10129,-2.02093 0.8494,-0.34522 1.75564,-0.81888 2.01387,-1.05258 0.5132,-0.46444 1.10438,-1.74318 1.64827,-3.56526 0.49893,-1.67146 0.89391,-1.62477 1.39669,0.16509 0.91376,3.25295 1.1538,3.54645 3.63523,4.44496 2.14946,0.7783 2.23582,1.34941 0.2995,1.98064 -2.5013,0.81542 -3.16952,1.59318 -3.83105,4.45911 -0.34358,1.48848 -0.90819,1.95012 -1.26063,1.03072 z"
       id="path8" /><path
       style="fill:#000000"
       d="m 2.9513408,238.19115 c -0.1332515,-0.25466 -0.3783692,-1.10704 -0.544706,-1.89416 -0.8319188,-3.93673 -2.17961589,-5.41338 -5.9377846,-6.50591 -0.8419658,-0.24476 -1.5958433,-0.6144 -1.6752834,-0.82142 -0.1713572,-0.44655 0.3605691,-1.16341 0.8632777,-1.16341 0.8068916,0 3.39188687,-1.16851 4.24813521,-1.9203 1.19821369,-1.05205 1.82384239,-2.31847 2.54729179,-5.15632 0.4929297,-1.93361 0.676993,-2.31609 1.1145807,-2.31609 0.437798,0 0.6365749,0.41408 1.2066085,2.51354 0.3753545,1.38245 0.8811459,2.88978 1.1239809,3.34963 0.7021832,1.32969 2.2698795,2.434 4.4213064,3.11442 1.702957,0.53859 1.984375,0.71284 1.984375,1.22868 0,0.51773 -0.275178,0.68516 -1.984375,1.20741 -3.7232603,1.13765 -4.6343158,2.38188 -5.9305409,8.09934 -0.1909649,0.84232 -1.0516397,1.00081 -1.4368663,0.26459 z"
       id="path7" /><path
       style="fill:#000000"
       d="m 57.149999,238.59628 c -0.800365,-0.14095 -1.53468,-0.33441 -1.631812,-0.42992 -0.160932,-0.15824 0.203092,-4.78625 0.391272,-4.97443 0.04442,-0.0444 0.822012,0.0571 1.727983,0.22557 l 1.647219,0.30633 -0.07514,2.50987 c -0.04187,1.39842 -0.192308,2.53399 -0.339726,2.56435 -0.145521,0.03 -0.919427,-0.0608 -1.719792,-0.20177 z"
       id="path6" /><path
       style="fill:#000000"
       d="m 106.3625,236.83338 v -2.67713 l 0.8599,-0.002 c 0.47294,-10e-4 1.46639,-0.0752 2.20765,-0.16425 l 1.34777,-0.16196 0.18147,2.58172 c 0.0998,1.41994 0.14817,2.61287 0.10745,2.65095 -0.0407,0.0381 -1.11583,0.15493 -2.38914,0.25966 l -2.3151,0.19044 z"
       id="path5" /><path
       style="fill:#000000"
       d="m 145.25157,239.38177 c -0.85285,-3.31074 -1.54937,-4.15864 -4.04574,-4.92498 -2.21424,-0.67974 -2.20642,-1.21185 0.0297,-2.02154 0.9173,-0.33214 1.91223,-0.82494 2.21096,-1.0951 0.68809,-0.62227 1.42673,-2.07271 1.66492,-3.26932 0.31512,-1.58305 0.43335,-1.85208 0.81392,-1.85208 0.21299,0 0.48889,0.47516 0.65293,1.12448 0.85781,3.39543 1.49757,4.20245 4.02009,5.07108 2.15778,0.74303 2.31931,1.30313 0.52912,1.83475 -1.95913,0.58181 -2.8535,1.12442 -3.43427,2.08359 -0.53072,0.87652 -0.58754,1.03281 -1.10849,3.04912 -0.17051,0.65995 -0.44606,1.12448 -0.66701,1.12448 -0.22109,0 -0.49604,-0.46412 -0.66614,-1.12448 z"
       id="path4" /><path
       style="fill:#000000"
       d="m -7.6601299,254.32623 c -0.5071224,-0.82418 -1.1681333,-1.49586 -1.7384348,-1.76648 -0.5061031,-0.24016 -0.9201873,-0.59384 -0.9201873,-0.78596 0,-0.19212 0.4867722,-0.67143 1.0817164,-1.06515 0.704903,-0.46648 1.2646247,-1.12934 1.6067899,-1.90286 0.5819262,-1.31554 0.9666576,-1.36899 1.5129203,-0.2102 0.4824549,1.02344 1.3191558,1.92774 2.2147191,2.39365 0.4001823,0.20819 0.7276042,0.48666 0.7276042,0.61883 0,0.13216 -0.4939848,0.57559 -1.097744,0.98539 -0.6037591,0.4098 -1.3133973,1.15112 -1.5769736,1.64738 -0.801705,1.50944 -0.9304532,1.51551 -1.8104102,0.0854 z"
       id="path3" /><path
       style="fill:#000000"
       d="m 100.80625,292.33368 c -6.188296,-0.54831 -9.007049,-2.65455 -8.98789,-6.71597 0.0094,-1.99549 1.083354,-5.10457 2.517939,-7.28947 0.436237,-0.6644 0.422133,-0.70262 -0.907248,-2.45898 -2.483152,-3.2807 -5.999374,-9.87962 -7.458757,-13.9979 -0.562756,-1.58807 -0.868866,-1.19035 -0.676541,0.87899 0.228106,2.45433 0.902399,4.39824 2.985738,8.60754 l 1.716077,3.46727 -0.290738,1.60332 c -1.383599,7.63009 -5.541811,12.7624 -11.783676,14.54411 -1.848554,0.52766 -9.351145,0.75189 -11.673443,0.34889 -4.553401,-0.79019 -6.697465,-2.87194 -6.710651,-6.51564 -0.0078,-2.14389 0.566248,-3.95522 1.874016,-5.91362 l 1.081408,-1.61942 -1.600923,-1.71139 c -4.367978,-4.66938 -6.75528,-10.23624 -7.469142,-17.41702 -0.199097,-2.00272 -0.212464,-3.76306 -0.04152,-5.46731 0.13867,-1.38244 0.202981,-2.60283 0.142913,-2.71197 -0.06007,-0.10915 -0.380538,-0.19844 -0.712157,-0.19844 -1.038915,0 -8.162888,-2.06009 -8.396133,-2.42797 -0.122104,-0.19259 -0.223831,-0.60263 -0.226059,-0.9112 -0.01035,-1.43282 2.542281,-14.64527 2.900219,-15.01158 0.122727,-0.1256 1.117987,-0.0155 2.230543,0.24681 1.860349,0.43858 2.008549,0.52385 2.003696,1.15284 -0.0061,0.79254 -0.497222,4.31259 -0.618615,4.43398 -0.04546,0.0455 -0.638206,-0.0846 -1.317223,-0.2889 -0.679017,-0.20436 -1.286765,-0.28711 -1.350552,-0.18391 -0.211983,0.343 -0.770307,3.72452 -0.636972,3.85785 0.352961,0.35296 9.878162,2.30775 12.527561,2.57094 l 0.79375,0.0788 0.168373,-13.36146 c 0.225802,-17.9189 0.741169,-26.4671 2.227345,-36.94412 0.809166,-5.70434 2.602622,-13.73669 3.699257,-16.56786 0.21836,-0.56374 -0.122084,-0.58893 -1.301138,-0.0963 -0.675596,0.28228 -0.941364,0.60214 -1.154143,1.38906 -0.152038,0.56228 -0.700648,2.54207 -1.219131,4.39953 -2.19865,7.87664 -3.91974,22.55334 -4.191707,35.74502 l -0.07562,3.66806 -1.72245,-0.1755 c -1.754063,-0.17871 -6.336756,-1.10339 -6.556263,-1.3229 -0.09953,-0.0995 2.852829,-12.65468 5.658948,-24.06515 1.041572,-4.23533 0.689704,-3.78085 -1.6346,2.11129 -1.754346,4.44728 -5.139827,16.38578 -6.607088,23.2991 -0.09883,0.46565 -0.467627,0.64478 -2.04058,0.99111 -3.088041,0.67993 -5.260386,0.9155 -5.374438,0.58281 -0.324176,-0.94565 -1.565272,-9.67581 -3.031542,-21.32458 -0.704556,-5.59734 -1.871978,-13.52842 -2.239694,-15.21574 -0.06369,-0.29225 -0.02971,-0.67067 0.07552,-0.84093 0.105227,-0.17026 3.020764,-0.84411 6.478972,-1.49746 l 6.287651,-1.1879 4.750895,-2.68409 c 4.584018,-2.58981 9.109676,-4.85006 11.174874,-5.58107 0.545703,-0.19316 0.992187,-0.42025 0.992187,-0.50464 0,-0.0844 -0.863203,-0.90743 -1.918229,-1.82898 -11.773302,-10.28381 -15.920782,-25.95989 -10.498614,-39.68121 0.469853,-1.18901 1.464561,-3.26639 2.210462,-4.61639 l 1.356182,-2.45455 -1.59867,-1.57487 C 49.917051,119.2933 48.664378,111.59 51.58289,105.15335 56.448173,94.423204 70.092008,91.044748 78.455685,98.499172 c 1.299046,1.157821 3.303477,3.770968 3.619293,4.718408 0.05469,0.16408 0.848004,0.0622 2.067815,-0.26543 3.358193,-0.90212 6.057748,-1.15894 10.647864,-1.01297 6.152223,0.19565 11.164663,1.37961 16.575513,3.91522 2.8006,1.31241 6.94525,4.05431 8.98986,5.94725 0.85542,0.79197 1.62767,1.43996 1.71611,1.43996 0.0884,0 0.72736,-0.43544 1.41984,-0.96763 2.65204,-2.03817 5.99023,-3.1105 9.59528,-3.08228 8.07114,0.0632 15.17535,5.99778 16.84509,14.0718 0.58546,2.83099 0.36615,6.64167 -0.54442,9.45952 -1.57054,4.8602 -4.88306,8.31608 -9.52341,9.93557 l -1.75202,0.61147 -0.002,2.11754 c -0.009,8.60272 -2.87382,16.45945 -8.14764,22.34334 -2.59274,2.89267 -9.99498,7.48094 -18.37852,11.39192 -1.40372,0.65484 -2.55754,1.28402 -2.56403,1.39817 -0.006,0.11416 0.58351,0.12858 1.31111,0.0321 0.7276,-0.0965 1.32292,-0.10919 1.32292,-0.0282 0,0.081 -0.35088,1.67395 -0.77974,3.53982 -3.91342,17.02662 -6.36401,37.68682 -6.36401,53.65309 v 6.22793 l 0.7276,-3e-5 c 3.0462,-1.3e-4 20.97969,-2.85676 21.59206,-3.4394 0.23244,-0.22116 -1.06357,-8.17647 -1.38958,-8.52965 -0.15593,-0.16891 -2.22861,0.0698 -4.2251,0.48657 -0.61178,0.12772 -0.62129,0.17433 -0.44263,2.1685 0.10043,1.12088 0.24133,2.28781 0.31311,2.59317 0.1213,0.51599 -0.0402,0.57852 -2.28769,0.88565 -1.33001,0.18176 -2.45385,0.28911 -2.49742,0.23856 -0.0436,-0.0505 -0.16062,-1.23982 -0.2601,-2.64283 l -0.18087,-2.55092 2.08709,-0.18475 c 1.1479,-0.10162 2.23259,-0.27468 2.41042,-0.38458 0.25285,-0.15627 0.2564,-0.70272 0.0163,-2.50684 -0.16885,-1.26886 -0.26004,-2.35398 -0.20265,-2.41137 0.0574,-0.0574 0.99233,-0.23949 2.07763,-0.40463 1.0853,-0.16515 2.05172,-0.37843 2.14761,-0.47396 0.14711,-0.14656 -0.63099,-4.87653 -0.94596,-5.75037 -0.0725,-0.2012 -0.83,-0.1848 -2.57597,0.0558 -2.413,0.33249 -10.01621,1.07152 -12.39512,1.2048 l -1.19063,0.0667 0.0837,-1.44718 c 0.25194,-4.35638 2.39707,-19.76 4.03354,-28.96385 0.84465,-4.75046 2.26855,-11.40377 2.5317,-11.82955 0.0859,-0.13903 0.66847,-0.47236 1.29454,-0.74072 1.89892,-0.81398 9.03221,-4.69397 11.45054,-6.22827 1.25015,-0.79315 2.34195,-1.44209 2.42623,-1.44209 0.0843,0 0.36087,1.00874 0.61465,2.24164 0.55484,2.69548 2.95432,11.09306 4.53685,15.87784 1.70738,5.16227 3.98219,10.94171 5.88113,14.94169 0.92956,1.95807 1.63841,3.69486 1.57522,3.85953 -0.19127,0.49845 -5.3992,2.5237 -8.51174,3.31002 -3.0945,0.78177 -7.80332,1.4257 -8.07113,1.10372 -0.1421,-0.17084 -1.50847,-3.39834 -2.14093,-5.05707 -0.13254,-0.3476 -0.29952,-0.57346 -0.37108,-0.50191 -0.15594,0.15595 0.27301,2.08236 1.99048,8.93913 1.78354,7.12057 4.76919,21.73679 5.67487,27.78125 0.52559,3.50772 0.60987,3.41706 -4.26716,4.59009 -2.15311,0.51786 -4.39099,1.01703 -4.97307,1.10926 -0.58209,0.0922 -1.26843,0.22539 -1.5252,0.29593 -0.82792,0.22741 -0.19802,0.6193 0.99543,0.6193 h 1.1588 l 0.13848,1.12448 c 0.0762,0.61846 0.20753,2.67229 0.29193,4.56406 0.30708,6.88346 1.0661,13.08852 2.13608,17.4625 0.94959,3.8819 0.33971,9.42829 -1.38524,12.59759 -1.29094,2.37188 -3.7451,4.1664 -6.98096,5.10459 -2.85001,0.82632 -9.75306,1.12657 -15.06995,0.65546 z M 93.221424,245.3349 c 0.06563,-0.10914 0.05645,-1.81755 -0.02038,-3.79646 l -0.139701,-3.59801 -4.516071,-0.16225 c -2.483838,-0.0892 -4.552621,-0.12569 -4.597294,-0.081 -0.04467,0.0447 -0.157594,1.76007 -0.250935,3.812 l -0.169712,3.73077 1.561855,0.0967 c 3.118222,0.19301 8.015772,0.19199 8.132238,-0.002 z m -13.846425,-3.90261 c 0,-1.96453 0.02977,-3.66117 0.06615,-3.77031 0.06572,-0.19716 -7.428946,-0.99362 -7.613479,-0.80909 -0.05307,0.0531 -0.179815,1.77988 -0.281653,3.83734 l -0.185161,3.74085 1.162803,0.15329 c 1.962744,0.25875 2.938893,0.33343 4.933115,0.37745 l 1.918229,0.0423 z m 13.758334,-8.29555 v -1.01951 l -2.024295,-0.17111 C 89.995676,231.852 88.031145,231.775 86.743413,231.775 h -2.34133 l 0.0023,-0.7276 c 0.0013,-0.40019 0.07635,-1.34399 0.166856,-2.09734 l 0.164556,-1.36972 4.33106,0.15355 4.331061,0.15356 v -1.04211 -1.04211 l -8.929687,-0.48381 c -4.911329,-0.2661 -9.73336,-0.54366 -10.715626,-0.61681 l -1.785937,-0.133 v 1.0623 1.0623 l 1.785937,0.15252 c 0.982266,0.0839 2.768204,0.22743 3.968751,0.31898 l 2.182812,0.16645 -0.0036,1.36152 c -0.002,0.74884 -0.07889,1.64274 -0.17089,1.98644 l -0.167278,0.62491 -3.202547,-0.19229 c -1.761401,-0.10576 -3.500203,-0.20837 -3.864005,-0.22803 -0.578023,-0.0312 -0.671624,0.0862 -0.742044,0.93074 -0.07791,0.9344 -0.04716,0.97164 0.926041,1.12162 1.222901,0.18846 12.301157,0.93302 15.42642,1.03679 1.236927,0.0411 2.874036,0.0989 3.63802,0.12854 l 1.389063,0.0539 z m 9.366247,-15.84768 c 0.0982,-1.2733 0.24469,-2.69017 0.32546,-3.14859 0.17204,-0.97638 0.0644,-1.01451 -3.635918,-1.2883 l -2.278586,-0.16859 -0.164553,1.54207 c -0.0905,0.84813 -0.24161,2.33761 -0.335791,3.30996 l -0.171238,1.76789 1.026877,0.10586 c 0.564782,0.0582 1.933238,0.12587 3.041009,0.15033 l 2.01414,0.0445 z m -32.820696,-1.0321 c 0.09411,-1.11337 0.171115,-2.64696 0.171115,-3.40798 v -1.38369 l -2.795572,-0.19054 c -1.537565,-0.1048 -2.830686,-0.14879 -2.873603,-0.0978 -0.04292,0.051 -0.152743,1.54422 -0.244056,3.31819 l -0.166025,3.22539 1.121399,0.14932 c 0.616769,0.0821 1.716711,0.18681 2.444316,0.23264 0.727604,0.0458 1.513805,0.10479 1.747113,0.13102 0.343599,0.0386 0.456709,-0.33693 0.595313,-1.9766 z m 9.991222,-6.77311 c 6.533426,-7.85409 17.419333,-20.6058 18.93311,-22.17817 0.844025,-0.87669 1.301145,-1.66008 1.659694,-2.84427 l 0.49483,-1.63433 -0.57106,0.0231 c -0.314079,0.0127 -1.535983,0.16156 -2.71534,0.33073 l -2.144285,0.30759 -2.098892,2.51354 c -5.811572,6.95969 -11.185037,13.85443 -16.962115,21.76425 l -1.78584,2.44513 -0.132292,2.7125 c -0.07276,1.49187 -0.0564,2.71227 0.03636,2.71198 0.09276,-2.9e-4 2.471382,-2.76873 5.28583,-6.15209 z m 23.535354,1.05834 c 0.1153,-0.42467 0.94594,-6.43771 0.89766,-6.49821 -0.11946,-0.14965 -5.420491,-0.62117 -5.750763,-0.51152 -0.313596,0.10412 -1.310998,6.26158 -1.060213,6.54522 0.214422,0.24252 5.853316,0.68547 5.913316,0.46451 z m -32.980605,-3.57188 c 0.09484,-1.12778 0.240466,-2.66642 0.323606,-3.41918 l 0.151163,-1.36866 -1.152417,-0.14499 c -0.633829,-0.0797 -1.959815,-0.1841 -2.946635,-0.2319 -2.133216,-0.10334 -2.014327,-0.32362 -2.109247,3.90796 l -0.06528,2.91042 1.5875,0.15396 c 0.873125,0.0847 2.139058,0.17397 2.813185,0.19844 l 1.225686,0.0445 z m 34.398925,-5.95312 c 0.46654,-2.24996 0.99948,-6.05295 0.86683,-6.1856 -0.25866,-0.25866 -5.589908,-0.88635 -5.790962,-0.68181 -0.224103,0.22798 -1.306348,6.46088 -1.14913,6.6181 0.08755,0.0876 3.657862,0.60183 5.624132,0.81012 0.17913,0.019 0.38123,-0.23339 0.44913,-0.56081 z M 71.04493,197.7099 c 0.09829,-0.98227 0.267309,-2.4753 0.375588,-3.31785 0.108279,-0.84255 0.104437,-1.58904 -0.0085,-1.65886 -0.373877,-0.23107 -5.39513,-0.6222 -5.567757,-0.4337 -0.184814,0.2018 -0.756723,4.81333 -0.756723,6.10175 0,0.74841 0.07197,0.80607 1.124479,0.90086 0.618464,0.0557 1.918675,0.12209 2.889358,0.14751 l 1.764878,0.0462 z m 11.481188,-1.54112 1.39399,-1.73955 -2.5711,-6.39639 c -1.414105,-3.51801 -2.676569,-6.52968 -2.805476,-6.6926 -0.302001,-0.38169 -2.594444,-1.26086 -2.786613,-1.06869 -0.08049,0.0805 -0.264798,1.07537 -0.409573,2.21084 l -0.263226,2.06449 2.854302,6.68072 c 1.569867,3.67441 2.930668,6.68073 3.024004,6.68073 0.09334,0 0.796997,-0.78279 1.563692,-1.73955 z M 94.75709,174.48516 c 5.106792,-1.31771 9.14718,-5.22262 10.40653,-10.05761 0.52051,-1.99837 0.51897,-5.6585 -0.003,-7.66335 -0.73905,-2.83738 -1.9306,-4.86115 -4.2165,-7.16143 -3.257217,-3.2777 -6.944455,-4.86605 -11.401091,-4.91126 -12.896928,-0.13082 -20.760125,12.8838 -13.964447,23.11299 1.321888,1.98977 2.693763,3.27281 4.87063,4.55526 4.352571,2.5642 9.591508,3.34242 14.308108,2.1254 z m 21.92416,-21.29141 c 1.05562,-1.05562 0.57559,-3.98799 -0.94953,-5.80049 -1.73534,-2.06234 -5.00892,-2.61734 -7.34902,-1.24595 -2.10135,1.23147 -3.25858,3.5283 -2.3457,4.65566 0.71179,0.87903 1.77984,0.57582 2.29234,-0.65077 0.68572,-1.64115 2.80799,-2.44008 4.37522,-1.64705 1.01032,0.51123 1.86002,1.96646 1.86002,3.18554 0,1.08841 0.57201,2.03223 1.23164,2.03223 0.19572,0 0.59399,-0.23813 0.88503,-0.52917 z m -39.137687,-8.24066 c 0.169926,-0.31751 0.248667,-1.14203 0.178652,-1.87069 -0.174176,-1.81268 -1.270802,-3.31536 -3.111353,-4.26342 -1.242731,-0.64012 -1.674258,-0.73011 -2.975029,-0.62039 -1.970332,0.16619 -3.59997,1.11996 -4.667573,2.73174 -0.986058,1.48868 -1.101213,2.93327 -0.292186,3.66543 0.778599,0.70463 1.663181,0.21409 2.071491,-1.14873 0.559639,-1.86791 2.466817,-2.80075 4.412958,-2.15846 1.082488,0.35725 1.978596,1.57551 1.980154,2.69201 0.002,1.4169 1.779941,2.13649 2.402886,0.97251 z m 59.190487,-11.18622 c 1.27168,-0.93615 1.76303,-1.52171 2.45314,-2.92354 1.11863,-2.27226 1.21353,-4.79208 0.26202,-6.95751 -1.19705,-2.72424 -4.31457,-4.82332 -7.16351,-4.82332 -1.89341,0 -5.55028,1.60941 -5.55028,2.44272 0,0.13974 0.64033,0.98675 1.42295,1.88224 2.32871,2.66453 4.83424,6.88229 6.11467,10.29327 0.25947,0.69122 0.56156,1.25677 0.6713,1.25677 0.10974,0 0.91511,-0.52678 1.78971,-1.17063 z M 63.604057,117.01198 c 2.71758,-2.54159 5.16746,-4.24854 8.427312,-5.87172 l 3.107411,-1.54728 -0.858453,-1.27571 c -1.021421,-1.51789 -2.742966,-2.88699 -4.106281,-3.26562 -1.44487,-0.40128 -3.758025,-0.33659 -5.170172,0.14457 -3.810299,1.2983 -6.372321,6.34472 -5.106789,10.05885 0.400839,1.1764 1.652069,3.27826 1.951535,3.27826 0.07081,0 0.860752,-0.68461 1.755437,-1.52135 z"
       id="path2" /><path
       style="fill:#000000"
       d="m 87.709375,165.72793 c -3.485329,-0.87226 -5.714442,-2.30836 -6.757937,-4.35378 -0.647262,-1.26874 -0.654138,-1.88986 -0.0272,-2.45723 0.681756,-0.61698 1.315172,-0.29261 1.801348,0.92246 0.51158,1.27856 1.874047,2.49419 3.261318,2.90983 0.585434,0.1754 1.104641,0.27006 1.153794,0.21037 0.04915,-0.0597 0.326958,-1.57386 0.617347,-3.36482 l 0.52798,-3.25628 -0.719829,-0.37224 c -2.692209,-1.39219 -3.050287,-5.08565 -0.593946,-6.12636 1.28414,-0.54407 3.636649,-0.52826 5.334999,0.0358 1.527868,0.50747 2.942753,1.92272 2.942753,2.9435 0,1.59365 -1.719375,3.43744 -3.465923,3.71672 -0.574047,0.0918 -1.111488,0.27655 -1.194314,0.41056 -0.08282,0.13402 -0.37675,1.63007 -0.653165,3.32457 -0.551771,3.38251 -0.52084,3.49455 0.96679,3.50196 1.435089,0.007 3.18475,-0.76967 4.196523,-1.8632 1.094321,-1.18275 1.538194,-1.285 2.099501,-0.48362 0.4815,0.68743 0.329118,1.16859 -0.730914,2.30791 -1.454413,1.56321 -2.612198,1.99083 -5.584123,2.06247 -1.455209,0.0351 -2.883959,0.004 -3.175,-0.0687 z"
       id="path1" /></g></svg>
